<?xml version="1.0" encoding="utf-8"?>
<!-- Generator: Adobe Illustrator 19.0.1, SVG Export Plug-In . SVG Version: 6.00 Build 0)  -->
<svg version="1.1" id="Layer_1" xmlns="http://www.w3.org/2000/svg" xmlns:xlink="http://www.w3.org/1999/xlink" x="0px" y="0px"
	 viewBox="-41.3 170 172 165" style="enable-background:new -41.3 170 172 165;" xml:space="preserve">
<style type="text/css">
	.st0{fill:#D19000;}
	.st1{fill:#F2DB79;}
	.st2{fill:#FDFDFD;}
</style>
<path class="st0" d="M44.3,332.5c-44,0-79.8-35.8-79.8-79.8S0.3,173,44.3,173s79.8,35.8,79.8,79.8S88.2,332.5,44.3,332.5z"/>
<g>
	<path class="st1" d="M44.3,175.5c42.9,0,77.8,34.9,77.8,77.8S87.1,331,44.3,331s-77.8-34.9-77.8-77.8S1.4,175.5,44.3,175.5
		 M44.3,171.5c-45.1,0-81.8,36.6-81.8,81.8S-0.9,335,44.3,335s81.7-36.6,81.7-81.8S89.4,171.5,44.3,171.5L44.3,171.5z"/>
</g>
<path class="st2" d="M5.1,243.2c-4.2-3.3-6-7.3-4.8-12.1c0.5-1.9,1.9-3.9,3.4-5.3c3.9-3.8,9.7-3.2,13.2-0.4c2.9,2.4,3.8,5.4,3.7,9
	c0,3.8-2,6.2-4.8,8.8c1.1,0.6,1.9,1,2.6,1.5c1.4,1.1,2.8,2.2,4.1,3.4c0.8,0.7,1.6,1,2.4,0.1c2.9-3.7,6.7-6.1,10.8-8.1
	c0.2-0.1,0.4-0.3,0.8-0.5c-0.5-0.6-0.8-1.1-1.3-1.5c-3.6-2.5-5.2-6-6-10.2c-1.5-8.6,2.4-15.6,10.8-18.2c4.8-1.5,9.7-1,14,2.3
	c4.5,3.5,6.7,8.1,6.7,13.6c0,4.9-2.2,9-6.2,12c-0.4,0.3-0.8,0.7-1.2,1c-0.2,0.2-0.3,0.5-0.7,1.1c5.1,1.6,8.4,5.6,12.2,8.9
	c2.4-1.9,4.7-3.7,7-5.6c0.2-0.2,0.3-0.5,0.5-0.7c-0.7-0.4-1.6-1.3-2.1-1.9c-3.6-5.2-3.8-9,0-14c3.9-5.2,10.9-4.9,15.5,0.5
	c2.7,3.1,3.4,6.6,1.7,10.6c-0.7,1.7-0.9,2.4-2.4,4.3c-0.2,0.3-1,0.8-1.1,1c1.5,1.3,2.9,2.7,4.5,3.8c3.3,3.3,4.9,5.9,6.3,9.6
	c0.4,1.1,0.8,28.3,0.9,29.5c0.2,1.9-0.2,2.2-2.2,2.2c-6.5,0-13.1,0-19.6,0c-0.8,0-1.6,0.1-2.4,0.2c0.1,1.6,0.2,9,0.3,10.3
	c0.1,1.2-0.5,1.7-1.7,1.7c-0.4,0-0.8,0-1.2,0c-16.2,0-32.5,0-48.7,0c-0.9,0-1.4-0.1-2.3-0.2c-0.1-1.6,0-2.7,0.1-3.8
	c0.1-1.9-0.1-5.8-0.2-8.3c-6.7,0-15.4,0-22.2,0c-0.9,0-1.8-0.1-2.8-0.2c0.3-4,0.4-32.5,2.2-35.4c1.4-2.2,4.1-5.2,6.4-6.9
	C2.4,244.8,3.7,243.9,5.1,243.2z"/>
</svg>
