<?xml version="1.0" encoding="utf-8"?>
<!-- Generator: Adobe Illustrator 19.0.1, SVG Export Plug-In . SVG Version: 6.00 Build 0)  -->
<svg version="1.1" id="Layer_1" xmlns="http://www.w3.org/2000/svg" xmlns:xlink="http://www.w3.org/1999/xlink" x="0px" y="0px"
	 viewBox="0 0 223.5 165" style="enable-background:new 0 0 223.5 165;" xml:space="preserve">
<style type="text/css">
	.st0{fill:#D19000;}
	.st1{fill:#F2DB79;}
	.st2{fill:#FFFFFF;}
</style>
<g>
	<path class="st0" d="M109.3,163c-44,0-79.8-35.8-79.8-79.8S65.3,3.5,109.3,3.5c44,0,79.8,35.8,79.8,79.8S153.2,163,109.3,163z"/>
	<path class="st1" d="M109.3,5.5c42.9,0,77.8,34.9,77.8,77.8S152.1,161,109.3,161s-77.8-34.9-77.8-77.8S66.4,5.5,109.3,5.5
		 M109.3,1.5c-45.1,0-81.8,36.6-81.8,81.8S64.1,165,109.3,165S191,128.4,191,83.2S154.4,1.5,109.3,1.5L109.3,1.5z"/>
</g>
<g>
	<g>
		<path class="st2" d="M113.9,41.1c-3.2-3.2-4-3.2-7.3,0c-0.9,0.9-1.8,1.8-2.8,2.7h12.6C115.6,42.8,114.7,41.9,113.9,41.1z"/>
		<path class="st2" d="M155.1,82.9c-1.9-1.9-3.8-3.9-5.7-5.8v12.4c1,0,1.9,0,2.9,0c2,0.1,3.7-0.5,4.5-2.4
			C157.6,85.2,156.3,84,155.1,82.9z"/>
		<path class="st2" d="M61.5,84.9c0,0.8,0,1.7,0,2.5c1.6,2,3.8,2.2,6.2,2V78.9C65.6,80.9,63.5,82.9,61.5,84.9z"/>
		<path class="st2" d="M111.9,48.4c-1.4-1.5-2.2-1.5-3.7-0.1c-8.9,8.8-18,17.4-26.9,26.2c-2.6,2.6-5.2,5.3-7.8,8
			c5.8,1.1,5.8,1.1,5.8,7.2c0,8.5,0,17,0,25.5c0,1.6,0.4,2.1,2,2.1c4-0.1,8.1-0.1,12.1,0c1.7,0,39.2-0.2,44.3-0.2c0-0.9,0-1.7,0-2.4
			c0-9.3,0-18.5,0-27.8c0-2.7,1.4-4,4-4c1.1,0,2.2,0,3.3,0c0.1-0.2,0.2-0.4,0.3-0.6c-0.6-0.6-1.1-1.2-1.7-1.8
			C133,69.8,122.4,59.1,111.9,48.4z"/>
		<path class="st2" d="M116.5,43.7h-12.6C91.8,55.4,79.7,67.2,67.6,78.9v10.6c0,0,0.1,0,0.1,0c0.8-0.1,1.6,0.1,2.3,0
			c2-0.3,2.7,0.4,2.6,2.5c-0.1,9.3-0.1,18.5-0.1,27.8c0,2.9,1.3,4.1,4.1,4.1c6.8,0,13.6,0,20.4,0c3.8,0,20.1,0,23.3,0
			c6.4,0,12.9,0,19.3,0c3.3,0,4.5-1.2,4.5-4.6c0-9.2,0.1-18.4,0-27.6c0-1.8,0.6-2.3,2.3-2.2c0.9,0.1,1.9,0.1,2.8,0V77.1
			C138.4,65.9,127.4,54.8,116.5,43.7z M145,82.8c-1.1,0-2.2,0-3.3,0c-2.7,0-4,1.4-4,4c0,9.3,0,18.5,0,27.8c0,0.8,0,1.5,0,2.4
			c-5.1,0-42.6,0.2-44.3,0.2c-4-0.1-8.1-0.1-12.1,0c-1.6,0-2-0.5-2-2.1c0.1-8.5,0-17,0-25.5c0-6.1,0-6.1-5.8-7.2
			c2.6-2.7,5.2-5.4,7.8-8c9-8.7,18-17.4,26.9-26.2c1.4-1.4,2.2-1.4,3.7,0.1c10.5,10.7,21,21.4,31.6,32c0.6,0.6,1.1,1.2,1.7,1.8
			C145.1,82.4,145.1,82.6,145,82.8z"/>
	</g>
	<rect x="110.1" y="88.7" class="st0" width="11.4" height="11.4"/>
	<rect x="95.6" y="88.7" class="st0" width="11.4" height="11.4"/>
	<rect x="110.1" y="103" class="st0" width="11.4" height="11.4"/>
	<rect x="95.6" y="103" class="st0" width="11.4" height="11.4"/>
</g>
</svg>
