<?xml version="1.0" encoding="utf-8"?>
<!-- Generator: Adobe Illustrator 19.0.1, SVG Export Plug-In . SVG Version: 6.00 Build 0)  -->
<svg version="1.1" id="Layer_1" xmlns="http://www.w3.org/2000/svg" xmlns:xlink="http://www.w3.org/1999/xlink" x="0px" y="0px"
	 viewBox="0 0 223.5 165" style="enable-background:new 0 0 223.5 165;" xml:space="preserve">
<style type="text/css">
	.st0{fill:#D19000;}
	.st1{fill:#F2DB79;}
</style>
<g>
	<path class="st0" d="M4.3,93.2l64.6-64.8v25.8l2,0C135.7,52.7,181.8,37.9,219,6.6c-0.2,0.6-0.4,1.1-0.6,1.7
		c-2.2,6.3-4.5,12.9-7.3,19.1c-15.1,33.4-40.8,60-78.6,81.3c-18.2,10.2-38.4,18.2-62,24.4l-1.5,0.4v24.7L4.3,93.2z"/>
	<path class="st1" d="M214.8,12.6c-1.7,4.7-3.5,9.4-5.5,13.9c-14.9,33-40.4,59.3-77.8,80.4C113.5,117,93.4,125,70,131.1l-3,0.8v3.1
		v18.3l-39.3-39.3L7.1,93.2l46.6-46.8l13.2-13.2v18.9v4.1l4.1-0.1C133.1,54.7,178.2,41.2,214.8,12.6 M223.5,0
		c-43.6,39.7-96,50.8-152.6,52.2c0-10.4,0-19.8,0-28.6c-23.5,23.5-47,47.1-69.4,69.7c22.9,23,46.4,46.5,69.6,69.7c0-8.5,0-18,0-28
		c22-5.8,42.9-13.6,62.4-24.6c34.7-19.5,62.8-45.4,79.5-82.2C217.1,19.1,220,9.4,223.5,0L223.5,0z"/>
</g>
</svg>
