<?xml version="1.0" encoding="utf-8"?>
<!-- Generator: Adobe Illustrator 19.0.1, SVG Export Plug-In . SVG Version: 6.00 Build 0)  -->
<svg version="1.1" id="Layer_1" xmlns="http://www.w3.org/2000/svg" xmlns:xlink="http://www.w3.org/1999/xlink" x="0px" y="0px"
	 viewBox="0 0 223.5 165" style="enable-background:new 0 0 223.5 165;" xml:space="preserve">
<style type="text/css">
	.st0{fill:#D19000;}
	.st1{fill:#F2DB79;}
</style>
<g>
	<path class="st0" d="M154.5,133.4L153,133c-23.5-6.2-43.8-14.1-62-24.4C53.2,87.4,27.5,60.8,12.4,27.4C9.6,21.2,7.3,14.6,5.1,8.3
		C4.9,7.7,4.7,7.2,4.5,6.6c37.2,31.3,83.3,46.1,148.1,47.6l2,0V28.4l64.6,64.8l-64.7,64.9V133.4z"/>
	<path class="st1" d="M8.7,12.6c36.6,28.6,81.7,42.1,143.8,43.6l4.1,0.1v-4.1V33.2l13.2,13.2l46.6,46.8l-20.7,20.7l-39.3,39.3V135
		v-3.1l-3-0.8C130.1,125,110,117,92,106.9C54.6,85.8,29.1,59.5,14.2,26.5C12.2,22,10.4,17.3,8.7,12.6 M0,0
		c3.5,9.4,6.4,19.1,10.6,28.2C27.2,65,55.4,90.9,90,110.4c19.5,11,40.4,18.8,62.4,24.6c0,10,0,19.5,0,28
		c23.1-23.2,46.6-46.7,69.6-69.7c-22.4-22.5-45.9-46.1-69.4-69.7c0,8.8,0,18.2,0,28.6C96,50.8,43.6,39.7,0,0L0,0z"/>
</g>
</svg>
