<?xml version="1.0" encoding="utf-8"?>
<!-- Generator: Adobe Illustrator 19.0.1, SVG Export Plug-In . SVG Version: 6.00 Build 0)  -->
<svg version="1.1" id="Layer_1" xmlns="http://www.w3.org/2000/svg" xmlns:xlink="http://www.w3.org/1999/xlink" x="0px" y="0px"
	 viewBox="200 73 255 356" style="enable-background:new 200 73 255 356;" xml:space="preserve">
<style type="text/css">
	.st0{fill:#F2F2F2;}
	.st1{fill:#31317C;}
	.st2{fill:#D6AA7F;}
	.st3{fill:#919191;}
	.st4{fill:#0C3FBF;}
	.st5{fill:#706EAF;}
	.st6{fill:#825B3B;}
	.st7{fill:none;}
	.st8{fill:none;stroke:#000000;stroke-miterlimit:10;}
	.st9{fill:#FFFFFF;}
	.st10{fill:#231F20;}
	.st11{fill:#7F6746;}
	.st12{fill:#231F20;stroke:#231F20;stroke-miterlimit:10;}
</style>
<g>
	<g>
		<path class="st0" d="M449.7,313.8c-0.5-7.3-1.1-14.7-1.6-22c-0.2-2.4-0.4-4.8-1-7.2c-2.8-9.3-12.8-14.4-17.7-22.7
			c-1.9-3.2-3.3-7.2-6.7-8.7c-1.7-0.8-3.6-0.8-5.3-1.4c-5.9-2.1-7.5-9.6-10.8-15c-3.2-5.2-8.4-8.7-13.4-12.1
			c-12.5-8.2-25.4-15.9-38.5-23.2l-1-0.2c-2.5,1.9-5.3,3.5-8.1,4.9c-4,1.9-8.2,3.4-12.4,4.8c-4.8,1.6-9.5,3.2-14.3,4.9
			c-5.7,1.9-11.5,4-16.2,7.8c-4,3.3-7.2,7.9-12.2,9.2c-2.8,8-5.6,16.7-6.8,25.1c-0.9,6.1-3.2,12-6.6,17.1c-0.9,1.3-1.9,2.7-2.3,4.2
			c-0.5,1.6-0.4,3.3-1,4.8c-1.4,4.3-6.4,6.1-10.9,6.8c-4.4,0.7-9.4,1.2-12.5,4.5c-3.2,3.3-3.3,8.4-3.3,13c0,4.5,0.1,9,1.8,13.2
			c1.7,4.1,5.4,7.8,9.9,8c2.7,0.1,5.2-0.9,7.7-2c2.6-1.1,5.2-2.2,7.9-3.3c1.4-0.6,2.9-1.2,4-2.2c1.8-1.5,3.4-3.9,5.7-3.8
			c0.6,10.8,1.2,21.5,1.8,32.3c1.5,26.5,2.5,52.9,3.5,79.4h89.1c1.6-4.7-0.5-9.9-1-14.9c-0.2-2.3-0.2-4.5-0.1-6.8
			c0.2-6.8,0.5-13.6,0.7-20.4c0-0.6,0.1-1.2,0.5-1.6c0.5-0.4,1.2-0.3,1.9-0.3c3.1-0.1,4.6-4,4.4-7.2c-0.1-2.3-0.6-4.5-1.5-6.5
			c-0.7-1.6-1.7-3.3-1.6-5.1c0.1-1.8,1.8-4.8,3.1-3.6c2.2,2,4.4,4.1,6.7,6.1c2.7,2.5,6.1,5.1,9.6,4.3c4.4-1,6.7-6.8,11.2-7.3
			c0.9-0.1,1.9,0,2.6-0.6c1.7-1.5-0.8-3.9-1.1-6.1c-0.2-1.8,1.1-3.4,2.3-4.7c10.7-11.3,21.1-23,31.2-34.9c0.8-1,1.7-2,2-3.2
			C449.9,316.1,449.8,314.9,449.7,313.8z M401.5,312.8c-1.7,0.3-3,2-2.9,3.6c0,0.5,0.2,1,0,1.5s-0.6,0.8-1,1.1c-1,0.7-2,1.4-2.9,2.2
			c-0.3-0.5-0.2-1.1,0.1-1.6c0.3-0.5,0.7-0.9,1.1-1.4c0.4-0.6,0.6-1.4,0.8-2.1c1.2-4.5,2.3-9,2.3-13.6c-0.1,0-0.1,0-0.2,0
			c0.1,0,0.1,0,0.2,0c0-0.2,0-0.4,0-0.6c0,0.2,0,0.4,0,0.6c1-0.1,2,0,3,0.2c0.7,0.2,1.5,0.5,2,1s0.9,1.3,0.7,2.1
			c-0.1,0.4-0.3,0.7-0.5,1.1c-0.8,1.6-0.1,3.7,1.1,5C404.5,313,402.9,312.5,401.5,312.8z"/>
	</g>
	<g>
		<path d="M449.7,313.8l-1.5-19.6c-0.3-3.2-0.3-6.6-1.3-9.7c-1-3.1-2.8-5.9-5-8.3c-2.1-2.5-4.6-4.7-6.9-7c-2.3-2.3-4.5-4.8-6.2-7.7
			c-0.8-1.4-1.5-2.9-2.4-4.3c-0.9-1.4-1.9-2.7-3.2-3.5c-1.4-0.9-3-1.1-4.6-1.4c-1.6-0.3-3.2-1.1-4.5-2.2c-2.5-2.3-3.9-5.4-5.3-8.3
			c-0.7-1.5-1.4-3-2.2-4.4c-0.8-1.4-1.8-2.7-2.8-3.9c-2.2-2.4-4.7-4.4-7.4-6.3c-2.7-1.9-5.5-3.6-8.2-5.4c-11-7-22.3-13.7-33.7-20
			h0.1l-1-0.2l0.3-0.1c-2.4,1.8-5,3.4-7.6,4.7c-2.7,1.4-5.5,2.5-8.3,3.5s-5.6,2-8.4,2.9l-8.4,2.9c-5.6,1.9-11.3,3.7-16.2,7
			c-1.2,0.8-2.4,1.8-3.4,2.7l-3.2,3.1c-1.1,1-2.2,2-3.5,2.9s-2.7,1.6-4.2,1.9l0.3-0.3c-2.1,5.9-4,11.8-5.4,17.9
			c-0.4,1.5-0.7,3-1,4.6c-0.3,1.5-0.5,3.1-0.8,4.6c-0.6,3.1-1.6,6.1-2.9,9c-0.6,1.4-1.4,2.9-2.2,4.2c-0.8,1.4-1.7,2.7-2.5,4
			c-0.4,0.7-0.7,1.3-1,2c-0.2,0.7-0.3,1.4-0.5,2.2c-0.1,0.8-0.2,1.6-0.4,2.4l-0.1,0.3v0.1v0.1l-0.1,0.1l-0.2,0.5
			c-0.2,0.4-0.4,0.8-0.6,1.1c-0.9,1.4-2.3,2.4-3.7,3.2s-2.9,1.3-4.5,1.7c-3.1,0.7-6.2,0.9-9.2,1.8c-1.5,0.4-2.9,1-4.1,1.9
			c-0.3,0.2-0.6,0.5-0.8,0.7c-0.1,0.1-0.3,0.3-0.4,0.4l-0.4,0.4c-0.5,0.6-0.9,1.2-1.2,1.9c-1.3,2.7-1.5,5.9-1.5,9
			c0,3.1,0,6.2,0.5,9.3c0.4,3,1.4,6,3.3,8.4c1.8,2.4,4.6,4.2,7.6,4.3c3,0.1,5.9-1.3,8.8-2.5l4.3-1.8c1.4-0.6,2.9-1.2,4.3-1.9
			c0.7-0.3,1.3-0.7,1.9-1.2c0.6-0.5,1.1-1,1.7-1.6c0.6-0.5,1.1-1.1,1.9-1.6c0.7-0.5,1.6-0.8,2.4-0.7h0.4v0.4l1.6,27.9
			c0.3,4.7,0.4,9.3,0.7,14l0.6,14l2.4,55.9l-0.3-0.3l89.1,0.1l-0.2,0.2c0.3-0.8,0.5-1.7,0.5-2.6c0.1-0.9,0.1-1.8,0-2.7
			c-0.2-1.8-0.5-3.6-0.9-5.4s-0.7-3.6-0.8-5.4c-0.1-1.8,0-3.7,0-5.5l0.4-11l0.2-5.5l0.1-2.7l0.1-1.4c0-0.5,0.1-1,0.4-1.4
			c0.4-0.4,0.9-0.5,1.4-0.5s0.9,0,1.3-0.1c0.8-0.2,1.6-0.7,2.1-1.4c1.1-1.4,1.5-3.3,1.5-5.1c0-1.8-0.4-3.6-0.9-5.3
			c-0.5-1.7-1.5-3.3-2-5.1c-0.5-1.8,0.1-3.8,1.4-5.2c0.3-0.3,0.9-0.6,1.4-0.3c0.2,0.1,0.4,0.3,0.6,0.4l0.5,0.5l2,1.8l4,3.7
			c1.4,1.2,2.8,2.4,4.4,3.3s3.5,1.3,5.2,0.9c1.8-0.4,3.2-1.7,4.5-2.9c1.3-1.3,2.6-2.6,4.2-3.6c0.8-0.5,1.7-0.7,2.6-0.8
			c0.9-0.1,1.9-0.1,2.5-0.8c0.6-0.7,0.3-1.7,0-2.5s-0.8-1.6-1.1-2.5c-0.3-0.9-0.3-1.9,0.1-2.7c0.4-0.9,0.9-1.6,1.5-2.3l7.5-8
			c5-5.4,9.8-10.8,14.7-16.3c2.4-2.7,4.8-5.5,7.2-8.3c1.2-1.4,2.4-2.8,3.5-4.2c0.5-0.7,1-1.6,1.1-2.5
			C449.8,315.7,449.8,314.7,449.7,313.8z M449.8,313.8c0.1,0.9,0.1,1.8,0,2.7s-0.6,1.8-1.1,2.5c-1.1,1.5-2.3,2.8-3.5,4.2
			c-2.4,2.8-4.8,5.5-7.2,8.3c-4.8,5.5-9.7,10.9-14.6,16.3l-7.5,8c-0.6,0.7-1.2,1.4-1.5,2.2c-0.4,0.8-0.4,1.8-0.1,2.6
			c0.3,0.9,0.7,1.7,1.1,2.5c0.2,0.4,0.3,0.9,0.4,1.3c0.1,0.5-0.1,1-0.4,1.3c-0.3,0.4-0.8,0.6-1.2,0.7c-0.5,0.1-0.9,0.1-1.4,0.2
			c-0.9,0.1-1.8,0.4-2.6,0.8c-1.6,0.9-2.8,2.3-4.1,3.5c-1.3,1.3-2.8,2.5-4.6,3c-1.8,0.5-3.7,0-5.4-0.9c-1.6-0.9-3-2.1-4.4-3.3
			l-4.1-3.7l-2-1.8c-0.3-0.3-0.7-0.7-1-0.9c-0.4-0.2-0.8,0-1.1,0.3c-1.2,1.3-1.9,3.2-1.4,4.9c0.5,1.7,1.5,3.3,2,5.1
			c0.6,1.7,0.9,3.6,1,5.4c0,1.8-0.4,3.7-1.5,5.3c-0.6,0.8-1.4,1.3-2.3,1.6c-0.9,0.2-2-0.2-2.5,0.4c-0.3,0.3-0.3,0.7-0.4,1.2v1.4
			l-0.1,2.7l-0.2,5.5l-0.4,11c-0.1,1.8-0.1,3.6,0,5.5c0.1,1.8,0.4,3.6,0.8,5.4s0.7,3.6,0.9,5.4c0.1,0.9,0.1,1.8,0,2.8
			c-0.1,0.9-0.3,1.8-0.6,2.7v0.2h-0.2l-89.1,0.1h-0.3v-0.3l-2.5-55.9l-0.6-14c-0.2-4.7-0.4-9.3-0.7-14l-1.6-27.9l0.4,0.4
			c-1.4-0.1-2.6,1-3.7,2.1c-0.5,0.5-1.1,1.1-1.7,1.6s-1.3,0.9-2,1.3c-1.4,0.7-2.9,1.3-4.3,1.9l-4.3,1.8c-1.4,0.6-2.9,1.3-4.4,1.8
			c-1.5,0.5-3.1,0.9-4.7,0.8c-3.3-0.1-6.3-2.1-8.2-4.6c-2-2.5-3-5.7-3.5-8.8c-0.5-3.1-0.4-6.3-0.5-9.4c0-3.1,0.2-6.4,1.6-9.4
			c0.3-0.7,0.8-1.4,1.3-2.1l0.4-0.4c0.1-0.2,0.3-0.3,0.4-0.4c0.3-0.3,0.6-0.5,0.9-0.8c1.3-1,2.8-1.6,4.3-2.1
			c3.1-0.9,6.2-1.1,9.2-1.8c1.5-0.4,2.9-0.9,4.3-1.6c1.3-0.7,2.5-1.7,3.3-2.9c0.2-0.3,0.4-0.6,0.5-0.9l0.2-0.5l0.1-0.1
			c0,0,0-0.1,0,0v-0.1l0.1-0.3c0.2-0.7,0.3-1.5,0.4-2.2c0.1-0.8,0.2-1.6,0.5-2.4s0.6-1.5,1.1-2.2c0.8-1.4,1.7-2.6,2.5-3.9
			s1.5-2.7,2.1-4.1c1.3-2.8,2.2-5.8,2.8-8.8c0.3-1.5,0.5-3.1,0.8-4.6c0.3-1.5,0.6-3.1,1-4.6c1.4-6.1,3.4-12.1,5.4-18l0.1-0.2
			l0.2-0.1c2.8-0.7,5.1-2.6,7.2-4.6l3.2-3.1c1.1-1,2.3-2,3.5-2.8c2.5-1.7,5.2-3,8-4.1c2.8-1.1,5.6-2,8.4-3l8.4-2.9
			c2.8-1,5.6-1.9,8.4-2.9s5.5-2.1,8.2-3.4c2.6-1.3,5.2-2.9,7.5-4.6l0.1-0.1h0.2l1,0.2h0.1h0.1c11.4,6.4,22.7,13.1,33.7,20.2
			c2.7,1.8,5.5,3.5,8.2,5.4s5.3,3.9,7.5,6.4c1.1,1.2,2.1,2.6,2.9,4s1.5,2.9,2.2,4.4c1.4,2.9,2.8,6,5.2,8.2c1.2,1.1,2.7,1.8,4.2,2.1
			c1.6,0.4,3.3,0.6,4.7,1.5c1.4,0.9,2.5,2.3,3.4,3.6c0.9,1.4,1.6,2.9,2.4,4.3c1.6,2.8,3.8,5.3,6.1,7.6c2.3,2.3,4.7,4.6,6.8,7
			c1.1,1.2,2.1,2.6,2.9,4c0.9,1.4,1.5,2.9,2,4.5c1,3.2,1,6.5,1.2,9.7L449.8,313.8z"/>
		<path d="M401.5,312.8c-0.9,0.2-1.8,0.8-2.2,1.6c-0.2,0.4-0.4,0.9-0.4,1.3c0,0.2,0,0.5,0,0.7c0,0.2,0.1,0.5,0.1,0.7
			c0,0.3,0,0.5-0.1,0.8c-0.1,0.3-0.3,0.5-0.4,0.7c-0.4,0.4-0.8,0.7-1.1,1c-0.8,0.6-1.5,1.2-2.3,1.8l-0.4,0.3l-0.3-0.4
			c-0.4-0.5-0.3-1.1-0.2-1.6c0.2-0.5,0.5-0.9,0.7-1.2c0.3-0.3,0.5-0.6,0.7-0.9c0.2-0.3,0.3-0.6,0.4-1c0.2-0.7,0.4-1.6,0.6-2.3
			l0.6-2.4c0.8-3.1,1.4-6.3,1.4-9.5l0.4,0.3h-0.2l-0.1-0.7h0.2l-0.3,0.3v-0.6h0.6v0.7l-0.3-0.3c1.2-0.1,2.5,0.1,3.6,0.4
			c0.6,0.2,1.2,0.5,1.6,0.9c0.5,0.5,0.8,1.1,0.8,1.7c0,0.3-0.1,0.7-0.2,0.9c-0.1,0.3-0.3,0.5-0.4,0.8c-0.1,0.3-0.2,0.5-0.3,0.8
			c0,0.3-0.1,0.6-0.1,0.9c0,1.2,0.6,2.3,1.4,3.2l0,0l0,0c-0.5,0.5-1.2,0.7-1.9,0.7C402.9,312.7,402.2,312.7,401.5,312.8z
			 M401.5,312.7c0.7-0.1,1.4-0.1,2-0.1c0.3,0,0.7-0.1,1-0.2s0.6-0.3,0.8-0.5v0.1c-0.8-0.9-1.4-2-1.5-3.2c0-0.3,0-0.6,0-0.9
			c0-0.3,0.1-0.6,0.2-0.9c0.2-0.6,0.6-1.1,0.5-1.6c0-0.3-0.1-0.5-0.2-0.8c-0.1-0.2-0.3-0.4-0.5-0.6c-0.4-0.4-0.9-0.6-1.4-0.8
			c-1.1-0.3-2.3-0.4-3.4-0.3h-0.3v-0.3V302h0.6v0.7v0.3H399h-0.2l-0.1-0.7h0.2h0.4v0.4c0.1,3.3-0.5,6.6-1.2,9.8l-0.6,2.4
			c-0.2,0.8-0.4,1.6-0.6,2.4c-0.1,0.4-0.3,0.8-0.5,1.2s-0.6,0.7-0.8,1c-0.3,0.3-0.5,0.6-0.6,0.9s-0.1,0.6,0,0.8l-0.7-0.1
			c0.8-0.6,1.6-1.1,2.4-1.7c0.4-0.3,0.8-0.5,1.2-0.8c0.2-0.1,0.3-0.3,0.4-0.5c0.1-0.2,0.1-0.4,0.1-0.6v-0.7c0-0.3,0-0.5,0.1-0.8
			c0.1-0.5,0.3-1,0.6-1.4C399.7,313.5,400.6,312.9,401.5,312.7z"/>
	</g>
</g>
<path class="st1" d="M270.3,314.8c-3.4-1.9-6.9-3.6-10.5-4.9c-1.2-0.4-2.3-0.8-3.6-0.9c-3-0.2-6.2,1.6-9,0.5
	c-0.2,3.5,0,7.1,1.2,10.4c1.1,3.3,3.3,6.3,6.3,8.1c1.7,1,4,1.6,5.8,0.5c1.5-0.9,2.1-2.7,3.3-3.9c0.7-0.7,1.6-1.1,2.4-1.7
	c2.8-2.1,4.4-5.8,3.8-9.3"/>
<g>
	<path d="M285.5,345.8c0,0,0.3,0.2,0.8,0.6s1.3,1.1,2.3,1.7c0.5,0.4,1.1,0.8,1.7,1.1c0.7,0.4,1.3,0.8,2.1,1.2
		c0.8,0.4,1.6,0.8,2.5,1.1c0.4,0.2,0.9,0.4,1.4,0.6s1,0.3,1.5,0.5c2,0.7,4.3,1.2,6.6,1.6c2.4,0.4,4.9,0.7,7.6,0.9
		c5.3,0.3,11,0.1,16.6-0.4s11.3-1.2,16.5-2.1c2.6-0.4,5.2-0.9,7.5-1.3c2.4-0.4,4.7-0.9,6.7-1.4c4.2-0.9,7.6-1.7,10-2.3
		c2.4-0.6,3.8-1,3.8-1v0.1c0,0-1.3,0.5-3.7,1.2c-1.2,0.4-2.6,0.8-4.3,1.3c-1.7,0.5-3.6,1-5.6,1.5c-2.1,0.5-4.3,1-6.7,1.5
		c-2.4,0.5-4.9,1-7.6,1.4c-5.3,0.8-10.9,1.4-16.6,1.8s-11.4,0.6-16.7,0.2c-2.7-0.2-5.2-0.5-7.6-1c-2.4-0.5-4.7-1.1-6.7-1.8
		c-0.5-0.2-1-0.4-1.5-0.5c-0.5-0.2-0.9-0.4-1.4-0.6c-0.9-0.4-1.7-0.8-2.5-1.2c-0.8-0.4-1.5-0.8-2.1-1.2c-0.7-0.4-1.2-0.8-1.7-1.1
		c-1-0.7-1.8-1.4-2.3-1.8C285.7,346.1,285.5,345.8,285.5,345.8L285.5,345.8z"/>
</g>
<g>
	<path class="st2" d="M373.5,343.9c-2-1.2-4.6-0.5-6.8,0.2c-1.4,0.4-2.8,0.9-4.1,1.3c-1.1,0.3-2.1,0.7-3,1.3
		c-0.9,0.6-1.7,1.6-1.8,2.7c-0.1,0.7,0.1,1.3,0,2c-0.1,0.7-0.4,1.3-0.6,1.9c-0.8,2.9,0.7,5.9,1.7,8.7c1,2.9,1.3,6.1,0.9,9.1
		c-0.1,0.6-0.2,1.2,0,1.8c0.1,0.6,0.5,1.1,0.8,1.5c1.5,1.8,3.6,3,5.7,4.1c0.8,0.4,1.6,0.9,2.6,1c1.3,0.1,2.7-0.6,3.3-1.8
		s0.5-2.7-0.3-3.7c1.7-0.5,3.3,1.2,5,1.5c0.2,0,0.4,0.1,0.6,0c0.3-0.1,0.5-0.5,0.6-0.9c0.4-1.8-0.1-3.7-1.3-5.1
		c1.7,0.3,3.3,2,4.8,1.2c0.9-0.4,1.2-1.6,1.1-2.5s-0.8-1.8-1.4-2.5c1.5-0.6,2.4-2.2,2.6-3.8c0.2-1.6-0.2-3.2-0.7-4.8
		c-1.8-5.3-5.2-10.1-9.8-13.4"/>
	<path d="M373.5,343.9c-1.1-0.7-2.4-0.7-3.7-0.6c-1.3,0.2-2.5,0.6-3.7,1l-3.7,1.2c-1.2,0.4-2.4,0.8-3.4,1.7c-0.5,0.4-0.8,0.9-1,1.5
		c-0.2,0.6-0.2,1.2-0.1,1.8c0.1,0.7-0.1,1.4-0.3,2c-0.1,0.3-0.2,0.6-0.3,0.9c-0.1,0.3-0.1,0.6-0.2,0.9c-0.1,1.2,0.2,2.5,0.5,3.7
		c0.4,1.2,0.9,2.4,1.3,3.6c0.9,2.5,1.3,5.1,1.2,7.7c0,0.7-0.1,1.3-0.1,1.9c-0.1,0.6-0.1,1.2,0,1.8c0.2,0.5,0.5,1,1,1.5
		c0.4,0.5,0.9,0.9,1.4,1.3c1,0.8,2.1,1.4,3.2,2c1.1,0.6,2.2,1.3,3.4,1.3c1.1,0,2.3-0.7,2.7-1.7c0.5-1,0.3-2.3-0.4-3.2l-0.4-0.5
		l0.6-0.2c0.6-0.2,1.2-0.1,1.8,0c0.6,0.2,1,0.4,1.5,0.6c0.5,0.2,0.9,0.5,1.4,0.6c0.2,0.1,0.5,0.1,0.7,0.2c0.2,0,0.3,0,0.3,0
		c0.1-0.1,0.2-0.3,0.2-0.5l0.1-0.4l0-0.3c0-0.5,0-1-0.1-1.4c-0.2-0.9-0.6-1.8-1.2-2.6l-0.9-1.1l1.4,0.3c1,0.2,1.8,0.7,2.6,1.1
		c0.4,0.2,0.8,0.3,1.1,0.3c0.2,0,0.3,0,0.5-0.1c0.1,0,0.2-0.1,0.2-0.1c0.1-0.1,0.2-0.1,0.2-0.1c0.3-0.2,0.4-0.5,0.5-0.9
		c0-0.2,0.1-0.4,0.1-0.6c0-0.2,0-0.3-0.1-0.6c-0.1-0.4-0.3-0.7-0.5-1.1c-0.2-0.4-0.5-0.7-0.8-1l-0.4-0.5l0.6-0.3
		c0.9-0.4,1.6-1.2,2-2.1c0.4-0.9,0.5-2,0.4-3c-0.1-1.1-0.4-2.1-0.7-3.1c-0.2-0.5-0.4-1-0.6-1.5c-0.2-0.5-0.4-1-0.6-1.5
		c-0.9-2-2.1-3.8-3.5-5.6c-1.4-1.7-2.9-3.3-4.7-4.6l0.1-0.1c1.8,1.3,3.5,2.7,5,4.4c1.5,1.7,2.7,3.5,3.7,5.5c0.3,0.5,0.5,1,0.7,1.5
		c0.2,0.5,0.4,1,0.6,1.6c0.4,1.1,0.7,2.2,0.8,3.3c0.1,1.1,0,2.4-0.4,3.5c-0.5,1.1-1.3,2.1-2.4,2.6l0.2-0.8c0.6,0.7,1.2,1.5,1.5,2.6
		c0.1,0.2,0.1,0.5,0.1,0.8c0,0.3,0,0.5-0.1,0.8c-0.1,0.5-0.4,1-0.9,1.4c-0.1,0.1-0.3,0.2-0.4,0.2c-0.1,0.1-0.3,0.1-0.4,0.2
		c-0.3,0.1-0.6,0.1-0.8,0.1c-0.6,0-1-0.2-1.5-0.4c-0.9-0.4-1.6-0.9-2.4-1l0.5-0.8c0.7,0.9,1.2,1.9,1.4,3c0.1,0.6,0.1,1.1,0.1,1.7
		l-0.1,0.4l-0.1,0.4c-0.1,0.3-0.2,0.6-0.5,0.9c-0.4,0.4-0.8,0.4-1.1,0.3c-0.3-0.1-0.6-0.1-0.8-0.2c-0.5-0.2-1-0.5-1.5-0.7
		c-0.9-0.5-1.8-0.9-2.6-0.6l0.2-0.7c0.9,1.2,1.1,2.8,0.4,4.1c-0.7,1.3-2.1,2.1-3.5,2.1c-0.7,0-1.4-0.3-2-0.5
		c-0.6-0.3-1.2-0.6-1.7-0.9c-1.1-0.6-2.3-1.3-3.3-2.1c-0.5-0.4-1-0.9-1.4-1.4c-0.4-0.5-0.9-1-1.1-1.7c-0.2-0.7-0.1-1.4,0-2
		c0.1-0.6,0.1-1.3,0.2-1.9c0.1-2.5-0.3-5.1-1.1-7.5c-0.4-1.2-0.9-2.4-1.3-3.6c-0.4-1.2-0.6-2.6-0.5-3.9c0-0.3,0.1-0.7,0.2-1
		c0.1-0.3,0.2-0.6,0.3-0.9c0.2-0.6,0.4-1.2,0.3-1.8c0-0.6-0.1-1.3,0.2-2c0.2-0.6,0.7-1.2,1.2-1.6c1-0.9,2.3-1.3,3.5-1.7l3.7-1.1
		c1.2-0.4,2.5-0.8,3.7-0.9C371.1,343,372.4,343.1,373.5,343.9L373.5,343.9z"/>
</g>
<g>
	<path class="st2" d="M260.2,293.9c-2.4-1.8-5.7-1.4-8.6-2c-3-0.7-5.6-2.5-8.3-4c-5.3-2.9-11.1-4.5-17-5.7c-0.8-0.2-1.6-0.3-2.3-0.7
		c-0.8-0.4-1.5-0.9-2.3-1.4c-2.5-1.6-5.5-2.3-8.5-2.2c-0.6,0-1.3,0.1-1.8,0.5c-0.9,0.6-1,2-0.5,2.9c0.5,1,1.4,1.7,2.3,2.2
		c3,1.9,6.5,2.8,9.8,4.1c0.2,0.1,0.5,0.2,0.7,0.4c0.5,0.6-0.2,1.6-1,1.8c-0.8,0.1-1.7-0.2-2.5-0.1c-1.5,0.2-2.6,1.8-2.2,3.3
		c-1.6-1.2-3.2-2.4-5.2-2.5c-1.9-0.1-4.1,1.3-4,3.3c-1.3,0-2.4,1.1-3.2,2.2c-0.3,0.3-0.6,0.7-0.7,1.1c-0.2,0.9,0.4,1.9,1.2,2.3
		c0.8,0.5,1.8,0.5,2.7,0.6c3.2,0.3,6.3,0.9,9.4,1.6c1.1,0.3,2.2,0.6,3.1,1.2c0.4,0.3,0.8,0.7,1.3,1c0.5,0.4,1.2,0.6,1.8,0.8
		c2,0.8,3.9,1.8,5.9,2.6c3.2,1.2,6.8,1.6,10.2,1.1c1.2-0.2,2.4-0.5,3.7-0.3c1.6,0.2,3.1,1,4.8,1.2c1.6,0.2,3.2-0.4,4.8-0.5
		c5.5-0.5,10.2,3.7,15.5,5.2c-1-3.7-2.1-7.4-3.1-11.1c-0.5-1.9-1.1-3.7-2-5.4c-0.9-1.7-2.4-3.2-4.2-3.8"/>
	<path d="M260.2,293.9c-1.3-1-3-1.3-4.6-1.5c-1.6-0.2-3.3-0.3-4.9-0.8c-1.6-0.5-3.1-1.3-4.5-2.1c-1.4-0.8-2.8-1.7-4.3-2.4
		c-3-1.4-6.1-2.5-9.3-3.4c-1.6-0.4-3.2-0.8-4.8-1.2l-2.4-0.5c-0.8-0.2-1.6-0.5-2.3-1c-1.4-0.9-2.8-1.7-4.3-2.2
		c-1.5-0.5-3.2-0.8-4.8-0.7c-0.8,0-1.6,0-2.2,0.5c-0.6,0.4-0.8,1.2-0.6,2c0.1,0.7,0.6,1.4,1.2,1.9c0.6,0.5,1.3,0.9,2,1.3
		c1.4,0.8,3,1.4,4.5,2c1.6,0.6,3.1,1.1,4.7,1.7c0.2,0.1,0.5,0.2,0.6,0.5c0,0,0.2,0.3,0.2,0.4c0,0.1,0,0.3,0,0.4
		c-0.1,0.5-0.5,0.9-0.9,1.2c-0.4,0.3-1,0.3-1.4,0.3c-0.4,0-0.8-0.1-1.2-0.1c-1.5-0.2-2.8,1.5-2.4,2.8l0.3,1l-0.8-0.6
		c-1.5-1.1-3.1-2.3-5-2.4l-0.3,0c-0.1,0-0.2,0-0.3,0c-0.2,0-0.4,0.1-0.6,0.1c-0.4,0.1-0.8,0.3-1.2,0.6c-0.4,0.3-0.7,0.6-0.8,1
		c-0.1,0.2-0.2,0.4-0.2,0.6c0,0.2,0,0.4,0,0.6l0,0.4l-0.4,0c-1.3,0-2.4,1.4-3.2,2.5c-0.4,0.6-0.3,1.2,0,1.7c0.4,0.5,1,0.9,1.7,1
		c0.7,0.2,1.5,0.2,2.2,0.3c0.8,0.1,1.5,0.2,2.3,0.3c1.5,0.2,3.1,0.5,4.6,0.8c0.8,0.2,1.5,0.3,2.3,0.5c0.8,0.2,1.5,0.4,2.3,0.8
		c0.8,0.4,1.3,1.1,1.9,1.4c0.6,0.4,1.3,0.6,2,0.9c1.5,0.6,2.8,1.3,4.2,1.9c1.4,0.6,2.8,1.1,4.3,1.4c1.5,0.3,3,0.4,4.5,0.4
		c1.5,0,3-0.3,4.6-0.5c0.8-0.1,1.7-0.1,2.5,0.1c0.8,0.2,1.5,0.4,2.3,0.7c0.7,0.2,1.4,0.4,2.1,0.4c0.7,0,1.5-0.1,2.2-0.2
		c0.8-0.1,1.5-0.3,2.4-0.3c0.7,0,1.6,0,2.4,0.1c1.6,0.3,3.1,0.8,4.5,1.4c2.9,1.3,5.5,2.9,8.4,3.7l-0.4,0.4l-3.1-11.2
		c-0.5-1.9-1-3.7-1.9-5.4c-0.9-1.7-2.3-3.2-4.1-3.9l0-0.1c1.9,0.6,3.3,2.1,4.3,3.8c1,1.7,1.6,3.6,2.1,5.4l3.2,11.1l0.2,0.5l-0.5-0.2
		c-3-0.8-5.8-2.4-8.6-3.6c-1.4-0.6-2.8-1.1-4.3-1.3c-0.8-0.1-1.4-0.1-2.2-0.1c-0.7,0-1.5,0.2-2.2,0.3c-0.8,0.1-1.6,0.3-2.4,0.3
		c-0.8,0-1.7-0.2-2.4-0.4c-0.8-0.2-1.5-0.5-2.2-0.6c-0.7-0.2-1.4-0.2-2.2-0.1c-1.5,0.2-3.1,0.5-4.7,0.5c-1.6,0-3.2-0.1-4.7-0.4
		c-1.6-0.3-3.1-0.8-4.5-1.4c-1.4-0.6-2.8-1.3-4.2-1.9c-0.7-0.3-1.5-0.5-2.2-1c-0.7-0.5-1.2-1.1-1.8-1.4c-1.2-0.7-2.8-0.9-4.3-1.3
		c-1.5-0.3-3-0.6-4.5-0.8c-0.8-0.1-1.5-0.2-2.3-0.3c-0.8-0.1-1.5-0.1-2.4-0.3c-0.8-0.2-1.7-0.6-2.2-1.4c-0.3-0.4-0.4-0.8-0.5-1.3
		c0-0.1,0-0.3,0-0.4l0-0.1c0-0.1,0-0.1,0.1-0.2c0.1-0.2,0.2-0.4,0.3-0.6c0.5-0.7,1-1.3,1.6-1.8c0.6-0.5,1.4-1,2.3-1l-0.4,0.4
		c0-0.3,0-0.6,0.1-0.8c0.1-0.3,0.2-0.5,0.3-0.8c0.3-0.5,0.6-0.9,1.1-1.2c0.4-0.3,0.9-0.5,1.4-0.7c0.3-0.1,0.5-0.1,0.8-0.2
		c0.3,0,0.5,0,0.8,0c1,0.1,2,0.5,2.9,1c0.9,0.5,1.7,1.1,2.4,1.7l-0.6,0.4c-0.2-0.9,0.1-1.9,0.6-2.6c0.6-0.7,1.5-1.2,2.5-1.1
		c0.9,0,1.7,0.3,2.3-0.1c0.3-0.2,0.5-0.5,0.6-0.7c0-0.3-0.1-0.5-0.4-0.6c-3-1.2-6.2-2.1-9.2-3.7c-0.7-0.4-1.5-0.8-2.1-1.4
		c-0.6-0.6-1.2-1.3-1.4-2.2c-0.2-0.9,0.1-1.9,0.9-2.5c0.8-0.6,1.7-0.5,2.5-0.6c1.7,0,3.4,0.3,5,0.8c1.6,0.5,3.1,1.4,4.4,2.3
		c1.3,0.9,3,1.1,4.6,1.5c1.6,0.4,3.2,0.8,4.8,1.2c3.2,0.9,6.3,2,9.3,3.5c1.5,0.7,2.9,1.6,4.3,2.4c1.4,0.8,2.9,1.6,4.5,2.1
		c1.6,0.5,3.2,0.6,4.9,0.8C257.2,292.5,258.9,292.8,260.2,293.9L260.2,293.9z"/>
</g>
<g>
	<path d="M355.8,215.7c0,0-3.1,8.4-7.6,21.1c-1.2,3.2-2.4,6.6-3.7,10.2c-0.7,1.8-1.3,3.7-2,5.6c-0.7,1.9-1.4,3.9-2.1,5.8
		c-1.4,4-2.9,8-4.4,12.2c-0.7,2.1-1.4,4.2-1.9,6.3c-0.5,2.2-0.7,4.3-0.8,6.6c-0.1,2.2-0.3,4.5-0.9,6.7s-1.3,4.3-2.1,6.4
		c-1.6,4.1-2.8,8.3-3.8,12.3c-2.1,8.1-4.1,15.7-5.7,22.3c-0.8,3.3-1.6,6.2-2.3,8.9c-0.7,2.6-1.3,4.9-1.7,6.9
		c-0.4,1.9-0.5,3.5-0.6,4.5c0,1.1,0,1.6,0,1.6s-0.1-0.6-0.1-1.6c0-1.1,0.1-2.6,0.4-4.5c0.3-1.9,0.9-4.3,1.5-6.9
		c0.6-2.7,1.4-5.7,2.1-8.9c0.8-3.3,1.6-6.8,2.6-10.6c0.9-3.7,1.8-7.7,2.9-11.8c1-4.1,2.2-8.3,3.8-12.4c0.8-2.1,1.5-4.2,2-6.3
		c0.6-2.1,0.8-4.3,0.9-6.6c0.1-2.2,0.3-4.5,0.9-6.7c0.5-2.2,1.2-4.3,1.9-6.4c1.5-4.1,3-8.2,4.4-12.2c0.7-2,1.4-3.9,2.1-5.8
		c0.7-1.9,1.4-3.7,2.1-5.5c1.4-3.6,2.7-7,3.9-10.1C352.5,224,355.8,215.7,355.8,215.7z"/>
</g>
<g>
	<path d="M395.9,227.6c0,0-0.3,0-1-0.1c-0.6-0.1-1.6-0.2-2.7-0.2c-1.2,0-2.6,0.1-4.1,0.6c-0.8,0.3-1.5,0.7-2.2,1.3s-1.3,1.4-1.8,2.2
		c-1.1,1.6-2.2,3.7-3.9,5.3c-1.6,1.7-3.6,3.1-5.1,5.2c-1.4,2-2.5,4.4-3.1,7c-0.7,2.5-0.9,5.2-1.1,7.9c-0.1,2.7-0.1,5.4-0.1,8
		c0,2.7,0,5.3,0.2,7.8c0.1,2.5,0.3,4.9,0.5,7.2c0.2,2.3,0.6,4.4,1.1,6.4c0.3,1,0.5,1.9,0.7,2.8c0.1,0.4,0.3,0.9,0.4,1.3
		c0.1,0.4,0.3,0.8,0.4,1.2c0.3,0.8,0.6,1.5,0.9,2.1c0.1,0.3,0.3,0.6,0.4,0.9s0.3,0.6,0.4,0.8c0.5,1.1,1,1.8,1.3,2.4
		c0.3,0.5,0.5,0.8,0.5,0.8l-0.1,0.1c0,0-0.2-0.3-0.6-0.8s-0.9-1.3-1.5-2.3c-0.2-0.3-0.3-0.5-0.5-0.8c-0.1-0.3-0.3-0.6-0.5-0.9
		c-0.3-0.6-0.7-1.3-1-2.1c-0.2-0.4-0.3-0.8-0.5-1.2c-0.1-0.4-0.3-0.8-0.5-1.3c-0.3-0.9-0.6-1.8-0.9-2.8c-0.5-2-1-4.1-1.3-6.5
		c-0.3-2.3-0.5-4.8-0.6-7.3s-0.1-5.2-0.1-7.8c0-2.7,0.1-5.4,0.3-8.1c0.2-2.7,0.5-5.4,1.2-8s1.8-5.1,3.3-7.1c1.5-2.1,3.6-3.6,5.2-5.2
		c1.7-1.6,2.7-3.5,3.9-5.2c0.6-0.8,1.2-1.6,1.9-2.2c0.7-0.6,1.5-1.1,2.3-1.3c1.6-0.6,3.1-0.6,4.2-0.6c1.2,0,2.1,0.2,2.7,0.2
		C395.6,227.4,396,227.5,395.9,227.6L395.9,227.6z"/>
</g>
<g>
	<path class="st3" d="M377.4,289.5c0,0,0.2,0,0.5,0.1s0.8,0.2,1.3,0.5c1.1,0.5,2.5,1.6,4,2.9c0.8,0.6,1.7,1.3,2.7,1.8s2.1,1,3.3,1.3
		c2.4,0.7,5.1,1.1,7.7,1.1c2.7,0.1,5.3-0.4,7.6-1.4c1.1-0.5,2.3-1,3.4-1.4c1.2-0.3,2.3-0.5,3.3-0.5c2.1-0.1,3.8,0.4,4.9,0.7
		c0.6,0.2,1,0.4,1.3,0.5c0.3,0.1,0.4,0.2,0.4,0.2s-0.6-0.3-1.8-0.6c-1.1-0.3-2.8-0.5-4.8-0.4c-1,0.1-2.1,0.3-3.1,0.7
		c-1.1,0.4-2.1,0.9-3.3,1.5c-1.2,0.5-2.5,1-3.8,1.2c-1.3,0.3-2.7,0.4-4.1,0.4c-2.8-0.1-5.5-0.5-8-1.3c-1.2-0.4-2.4-0.9-3.4-1.5
		c-1-0.6-1.9-1.3-2.7-2c-0.8-0.7-1.4-1.3-2.1-1.9c-0.6-0.5-1.2-1-1.7-1.3s-0.9-0.5-1.2-0.6C377.5,289.6,377.4,289.5,377.4,289.5z"/>
</g>
<g>
	<path d="M379.4,299c0,0,0.4-0.1,1.1-0.2c0.7-0.1,1.7-0.2,2.8-0.1c1.2,0.1,2.5,0.3,4,0.6c1.4,0.3,3,0.6,4.5,0.9s3.1,0.6,4.5,0.9
		c1.4,0.3,2.7,0.7,3.9,1c1.1,0.3,2.1,0.6,2.7,0.8s1,0.4,1,0.4v0.1c0,0-0.4,0-1.1-0.1s-1.6-0.2-2.8-0.4c-1.2-0.2-2.5-0.4-3.9-0.8
		c-1.4-0.3-2.9-0.7-4.4-1.1c-3-0.7-6-1.6-8.3-1.9c-1.1-0.1-2.1-0.1-2.8-0.1C379.8,299.1,379.4,299.1,379.4,299L379.4,299z"/>
</g>
<g>
	<path class="st3" d="M416.9,255c0,0-0.2,0-0.5-0.1s-0.8-0.2-1.3-0.2c-0.6-0.1-1.3-0.1-2.1,0c-0.8,0.1-1.7,0.3-2.6,0.6
		c-1.9,0.6-3.9,1.8-5.7,3.5c-0.9,0.8-1.7,1.8-2.6,2.8c-0.8,1-1.5,2.1-2.2,3.3c-1.4,2.3-2.6,4.7-4,6.8c-1.3,2.2-2.7,4.1-4,5.7
		c-1.3,1.6-2.6,2.7-3.4,3.5c-0.9,0.8-1.4,1.2-1.4,1.2s0.5-0.5,1.3-1.3c0.8-0.9,1.9-2.1,3.1-3.7s2.5-3.6,3.7-5.7
		c1.2-2.2,2.5-4.6,3.9-6.9c0.7-1.2,1.5-2.3,2.3-3.3c0.8-1.1,1.8-2,2.7-2.9c2-1.7,4.2-2.8,6.1-3.4c1-0.3,1.9-0.4,2.8-0.4
		c0.8,0,1.6,0.1,2.1,0.2c0.6,0.1,1,0.2,1.3,0.4C416.7,255,416.9,255,416.9,255z"/>
</g>
<g>
	<path class="st3" d="M404.3,280.9c0,0,0.4,0,1.1-0.1c0.7,0,1.6-0.1,2.8-0.1c1.2,0,2.5,0,4,0c1.4,0,3,0.1,4.5,0.1s3,0,4.4-0.2
		c1.4-0.2,2.7-0.5,3.7-0.9c1.1-0.4,1.9-0.9,2.4-1.3s0.8-0.6,0.8-0.6s-0.1,0.1-0.2,0.2c-0.1,0.1-0.3,0.3-0.5,0.6
		c-0.5,0.5-1.3,1.1-2.3,1.7c-1,0.6-2.4,1-3.8,1.3c-1.5,0.3-3,0.3-4.6,0.3c-3.1-0.1-6.2-0.3-8.5-0.5c-1.2-0.1-2.1-0.2-2.8-0.3
		C404.7,280.9,404.3,280.9,404.3,280.9z"/>
</g>
<g>
	<path class="st3" d="M440.3,275.4c0,0-0.6,0-1.7,0s-2.7,0-4.3,0.9c-0.8,0.4-1.5,1.2-2,2.1s-0.9,2-1.3,3.1c-0.7,2.2-1.2,4.7-2.1,7.1
		c-0.5,1.2-1.1,2.4-1.9,3.4c-0.8,1.1-1.7,1.9-2.5,2.7c-1.8,1.6-3.6,2.9-5,4.1c-0.7,0.6-1.3,1.2-1.9,1.8c-0.5,0.5-1,1.1-1.3,1.5
		s-0.6,0.8-0.7,1.1c-0.2,0.3-0.2,0.4-0.2,0.4s0.1-0.1,0.2-0.4s0.3-0.7,0.6-1.1c0.3-0.5,0.7-1,1.2-1.6s1.1-1.3,1.8-1.9
		c1.4-1.3,3.1-2.8,4.7-4.4c0.8-0.8,1.7-1.7,2.3-2.6c0.7-1,1.3-2,1.7-3.2c0.9-2.3,1.4-4.8,2.2-7c0.4-1.1,0.9-2.2,1.5-3.1
		c0.6-0.9,1.4-1.7,2.3-2.2s1.8-0.6,2.6-0.6c0.8,0,1.5,0,2,0.1C439.7,275.3,440.3,275.4,440.3,275.4z"/>
</g>
<g>
	<path class="st3" d="M433.9,285.5c0,0,0.1-0.1,0.3-0.3c0.2-0.2,0.5-0.5,1-0.7c0.4-0.3,0.9-0.5,1.5-0.8c0.6-0.2,1.2-0.4,1.9-0.5
		c0.7-0.1,1.3-0.2,1.9-0.2s1.2,0.1,1.7,0.2c1,0.2,1.6,0.5,1.6,0.5s-0.6,0-1.6,0.1c-0.9,0-2.2,0.2-3.4,0.4c-1.2,0.2-2.4,0.5-3.3,0.8
		C434.5,285.3,433.9,285.5,433.9,285.5z"/>
</g>
<g>
	<path class="st3" d="M405,309.6c0,0,0.6,0,1.6,0s2.5,0,4.2-0.2c0.9-0.1,1.8-0.2,2.7-0.5c0.9-0.3,1.9-0.6,3-1c1-0.3,2.1-0.7,3.3-0.9
		c1.1-0.3,2.3-0.5,3.4-0.6c2.3-0.4,4.6-0.6,6.7-1c2.1-0.4,4.1-0.8,5.7-1.4c1.6-0.6,2.9-1.2,3.8-1.7s1.3-0.9,1.3-0.9
		s-0.1,0.1-0.3,0.3c-0.2,0.2-0.5,0.4-0.9,0.8c-0.8,0.6-2.1,1.4-3.7,2.1s-3.6,1.3-5.8,1.7c-2.2,0.4-4.5,0.7-6.8,1.1
		c-2.3,0.3-4.5,0.8-6.6,1.4c-1,0.3-2.1,0.6-3.1,0.8s-2,0.3-2.8,0.3c-1.8,0.1-3.2-0.1-4.2-0.2C405.6,309.7,405,309.6,405,309.6z"/>
</g>
<g>
	<path class="st3" d="M419,315.6c0,0,0.5,0,1.3,0c0.8-0.1,1.9-0.3,3.2-0.8c0.6-0.2,1.3-0.6,1.9-1c0.6-0.4,1.3-1,2-1.5
		s1.5-1.1,2.4-1.4c0.9-0.4,1.8-0.7,2.7-1l0.7-0.2l0.6-0.2c0.4-0.1,0.9-0.3,1.3-0.4c0.9-0.3,1.7-0.6,2.5-0.8c0.8-0.3,1.6-0.5,2.4-0.7
		c0.8-0.2,1.5-0.4,2.1-0.7c1.3-0.5,2.2-1.1,2.7-1.8c0.2-0.3,0.4-0.6,0.5-0.8s0.1-0.3,0.1-0.3s0,0.1,0,0.3c-0.1,0.2-0.1,0.5-0.3,0.9
		c-0.4,0.7-1.4,1.6-2.6,2.2c-0.6,0.3-1.4,0.6-2.1,0.9c-0.7,0.3-1.5,0.6-2.3,0.9s-1.7,0.6-2.5,0.9c-0.4,0.2-0.9,0.3-1.3,0.5l-0.7,0.2
		l-0.7,0.2c-0.9,0.3-1.7,0.5-2.6,0.9c-0.8,0.3-1.5,0.8-2.2,1.3s-1.4,1-2.1,1.4s-1.4,0.7-2.1,0.9c-1.4,0.4-2.6,0.4-3.4,0.4
		c-0.4,0-0.7-0.1-0.9-0.1C419.1,315.7,419,315.6,419,315.6z"/>
</g>
<g>
	<path class="st3" d="M424.9,319.6c0,0-0.2,0.6-0.5,1.7c-0.4,1-0.9,2.5-1.7,4.3c-0.8,1.7-1.7,3.7-2.9,5.8c-1.2,2.1-2.6,4.2-4.1,6.2
		c-0.8,1-1.6,2-2.4,2.9c-0.8,1-1.7,1.9-2.5,2.7c-1.6,1.7-3.3,3.2-4.7,4.5c-1.4,1.3-2.6,2.3-3.4,3s-1.3,1.1-1.3,1.1s0.4-0.5,1.2-1.3
		c0.8-0.8,1.9-1.9,3.2-3.3c1.3-1.4,2.8-3,4.4-4.7c0.8-0.9,1.6-1.8,2.4-2.7c0.8-0.9,1.6-1.9,2.3-2.9c1.5-2,2.9-4.1,4.2-6.1
		c1.2-2,2.3-3.9,3.2-5.6c0.9-1.7,1.6-3.1,2-4.1C424.6,320.2,424.9,319.6,424.9,319.6z"/>
</g>
<g>
	<path class="st3" d="M429,327.3c0,0,0.3-0.3,0.8-0.7s1.3-1.1,2.1-1.9c0.9-0.8,1.8-1.8,2.8-2.9s1.9-2.4,3-3.6s2.3-2.3,3.5-3.2
		c1.2-0.9,2.5-1.5,3.6-2.1c1.1-0.6,2-0.9,2.6-1.2s1-0.4,1-0.4s-0.3,0.2-0.9,0.6c-0.6,0.4-1.4,0.9-2.4,1.5s-2.1,1.4-3.3,2.3
		c-1.2,0.9-2.3,2-3.3,3.2s-2,2.4-3.1,3.5c-1,1.1-2.1,2-3.1,2.8c-0.9,0.8-1.8,1.3-2.4,1.7C429.3,327.1,429,327.3,429,327.3z"/>
</g>
<g>
	<path class="st3" d="M322.7,329.3c0,0,1-0.3,2.8-0.9c1.7-0.6,4.1-1.6,7-3c2.8-1.4,6.1-3,9.8-4.6c3.6-1.6,7.5-3.2,11.5-4.7
		s7.9-2.8,11.7-4.1c3.7-1.2,7.3-2.3,10.3-3.2s5.6-1.6,7.3-2.1c1.8-0.5,2.8-0.8,2.8-0.8s-1,0.3-2.7,1c-1.7,0.6-4.2,1.4-7.2,2.5
		c-3,1-6.5,2.2-10.2,3.5c-3.7,1.3-7.7,2.7-11.6,4.2s-7.9,3-11.5,4.5s-7,3.1-9.9,4.3c-2.9,1.3-5.4,2.2-7.2,2.7
		c-0.9,0.3-1.6,0.4-2.1,0.5C323,329.3,322.7,329.3,322.7,329.3z"/>
</g>
<g>
	<path class="st3" d="M332,308.8c0,0,0.5-0.1,1.5-0.2c0.9-0.1,2.3-0.3,3.9-0.5s3.5-0.4,5.5-0.6s4.2-0.4,6.3-0.7
		c2.1-0.3,4.2-0.8,5.8-1.8c1.7-1,3.2-2.2,4.7-2.9s2.8-1.1,3.7-1.4c0.9-0.3,1.4-0.4,1.4-0.4s-0.5,0.2-1.4,0.6
		c-0.9,0.4-2.1,0.9-3.5,1.7c-1.4,0.8-2.8,2.1-4.5,3.2c-0.9,0.6-1.9,1.1-2.9,1.4c-1.1,0.3-2.1,0.5-3.2,0.7c-2.2,0.3-4.3,0.4-6.4,0.5
		c-2,0.1-3.9,0.2-5.5,0.3s-3,0.1-3.9,0.1C332.6,308.8,332,308.8,332,308.8z"/>
</g>
<g>
	<path class="st3" d="M315.8,351.5c0,0,0.8-0.7,2.4-1.9c1.5-1.2,3.8-2.8,6.6-4.6c1.4-0.9,3-1.8,4.6-2.7c1.7-0.9,3.5-1.8,5.4-2.7
		c1.9-0.9,3.8-1.8,5.8-2.8c1.9-1,3.9-2,5.8-3.1s3.8-2.2,5.6-3.4c1.8-1.2,3.6-2.4,5.3-3.6c3.4-2.4,6.4-4.7,9-6.8
		c2.6-2.1,4.8-3.8,6.2-5c1.5-1.2,2.4-1.9,2.4-1.9s-0.8,0.8-2.2,2.1c-1.4,1.3-3.5,3.2-6,5.3c-1.3,1.1-2.7,2.2-4.1,3.4
		c-1.5,1.2-3.1,2.4-4.7,3.7c-1.7,1.2-3.4,2.5-5.3,3.7c-1.8,1.2-3.7,2.4-5.6,3.5s-3.9,2.1-5.9,3.1c-2,0.9-3.9,1.8-5.8,2.7
		c-1.9,0.9-3.7,1.7-5.4,2.5c-1.7,0.9-3.3,1.7-4.7,2.5c-2.9,1.7-5.2,3.2-6.8,4.3C316.7,350.8,315.8,351.5,315.8,351.5z"/>
</g>
<g>
	<path class="st3" d="M342.5,353.1c0,0,0.6-0.7,1.7-1.9c1.1-1.2,2.6-2.9,4.5-4.9s4-4.4,6.4-6.8c2.4-2.5,4.9-5.1,7.4-7.8
		c1.3-1.3,2.6-2.6,3.9-3.9s2.5-2.5,3.7-3.7c2.5-2.4,5.1-4.3,7.3-5.9c2.2-1.6,4.2-2.8,5.6-3.6c1.4-0.8,2.2-1.2,2.2-1.2
		s-0.8,0.5-2.1,1.4c-1.3,0.9-3.2,2.2-5.4,3.8c-2.2,1.6-4.6,3.7-7.1,6c-1.2,1.2-2.4,2.5-3.7,3.8c-1.3,1.3-2.5,2.5-3.8,3.9
		c-2.5,2.6-5.1,5.2-7.5,7.7c-2.4,2.4-4.7,4.7-6.6,6.6s-3.6,3.5-4.7,4.6C343.2,352.5,342.5,353.1,342.5,353.1z"/>
</g>
<g>
	<path class="st3" d="M349.9,349.6c0,0,0.3-0.1,0.8-0.2c0.3-0.1,0.6-0.2,0.9-0.3c0.3-0.1,0.7-0.3,1.1-0.5s0.8-0.4,1.3-0.7
		c0.5-0.2,0.9-0.5,1.4-0.8c1-0.6,2-1.3,3-1.9c1-0.7,2.1-1.3,3.1-1.8s2-1,2.9-1.2c0.4-0.1,0.9-0.2,1.2-0.3c0.4-0.1,0.7-0.1,1-0.1
		c0.5,0,0.8,0,0.8,0s-0.3,0.1-0.8,0.2c-0.3,0.1-0.6,0.2-0.9,0.3c-0.3,0.1-0.7,0.3-1.1,0.5s-0.8,0.4-1.3,0.6s-0.9,0.5-1.4,0.8
		c-1,0.6-2,1.2-3,1.9c-1,0.7-2.1,1.3-3.1,1.9c-1,0.5-2,1-2.9,1.2c-0.4,0.2-0.9,0.2-1.2,0.3c-0.4,0.1-0.7,0.1-1,0.1
		C350.2,349.6,349.9,349.6,349.9,349.6z"/>
</g>
<g>
	<path class="st3" d="M301.3,342.4c0,0,0.3-0.1,0.8-0.2s1.2-0.3,2-0.5c0.4-0.1,0.8-0.3,1.3-0.4c0.4-0.2,0.9-0.4,1.4-0.6
		c0.9-0.4,1.9-1,2.8-1.6s1.8-1.3,2.6-2c0.4-0.4,0.8-0.7,1.1-1s0.6-0.7,0.9-1c0.5-0.6,1-1.2,1.3-1.6c0.3-0.4,0.5-0.6,0.5-0.6
		s-0.1,0.3-0.3,0.7c-0.1,0.2-0.2,0.5-0.4,0.8s-0.3,0.7-0.6,1c-0.2,0.4-0.5,0.8-0.8,1.1c-0.3,0.4-0.7,0.8-1,1.2
		c-0.4,0.4-0.8,0.8-1.2,1.1c-0.4,0.4-0.9,0.7-1.4,1s-1,0.6-1.5,0.9s-1,0.5-1.5,0.7s-1,0.4-1.5,0.5s-0.9,0.2-1.4,0.3
		c-0.4,0.1-0.8,0.1-1.2,0.1c-0.4,0-0.7,0-0.9,0C301.6,342.5,301.3,342.4,301.3,342.4z"/>
</g>
<g>
	<path d="M282.8,263.8c0,0,0.7,3.5,1.7,8.6c1,5.2,2.5,12.1,3.3,19.1c0.2,1.8,0.3,3.5,0.4,5.3c0.1,1.7,0,3.5,0,5.1
		c-0.1,1.7-0.3,3.3-0.6,4.8c-0.1,0.4-0.1,0.7-0.2,1.1c-0.1,0.4-0.2,0.7-0.3,1c-0.2,0.7-0.4,1.4-0.5,2c-0.3,1.3-0.7,2.4-1,3.5
		c-0.3,1-0.6,1.9-0.9,2.6c-0.5,1.5-0.8,2.3-0.8,2.3h-0.1c0,0,0.2-0.9,0.5-2.4c0.2-0.8,0.4-1.7,0.6-2.7c0.2-1,0.5-2.2,0.8-3.5
		c0.1-0.6,0.3-1.3,0.5-2c0.1-0.3,0.2-0.7,0.2-1.1c0.1-0.3,0.1-0.7,0.2-1.1c0.2-1.5,0.4-3,0.5-4.7c0.1-1.6,0.2-3.3,0.1-5
		c0-1.7-0.1-3.5-0.3-5.2c-0.3-3.5-0.8-7-1.3-10.2c-0.5-3.3-1.1-6.3-1.5-8.9C283.3,267.2,282.7,263.8,282.8,263.8L282.8,263.8z"/>
</g>
<g>
	<path d="M251.7,313.2c0,0,0.2,0,0.6-0.1c0.2,0,0.4,0,0.7,0s0.6,0,0.9,0.1c0.3,0,0.7,0.1,1,0.2c0.4,0.1,0.7,0.3,1.1,0.4
		c0.4,0.2,0.7,0.4,1.1,0.7c0.4,0.2,0.7,0.5,1,0.8s0.6,0.6,0.9,1c0.3,0.3,0.5,0.7,0.7,1.1c0.2,0.4,0.4,0.7,0.5,1.1
		c0.1,0.4,0.2,0.7,0.3,1s0.1,0.6,0.1,0.9c0,0.3,0,0.5,0,0.7c0,0.4-0.1,0.6-0.1,0.6s0-0.2-0.1-0.6c0-0.2-0.1-0.4-0.2-0.6
		c-0.1-0.2-0.2-0.5-0.3-0.8s-0.2-0.6-0.4-0.9c-0.1-0.3-0.4-0.6-0.5-0.9c-0.2-0.3-0.4-0.6-0.7-0.9c-0.2-0.3-0.5-0.6-0.8-0.9
		c-0.3-0.3-0.6-0.5-0.9-0.8c-0.3-0.2-0.6-0.5-0.9-0.7c-0.3-0.2-0.6-0.4-0.9-0.5c-0.3-0.1-0.6-0.3-0.9-0.4c-0.3-0.1-0.5-0.2-0.8-0.3
		c-0.2-0.1-0.5-0.1-0.6-0.2C251.9,313.3,251.7,313.2,251.7,313.2z"/>
</g>
<g>
	<path class="st3" d="M285.3,279.8c0,0-0.1,0.1-0.3,0.2c-0.2,0.1-0.4,0.3-0.7,0.4c-0.5,0.4-1.2,0.9-1.9,1.4
		c-0.6,0.5-1.2,1.2-1.6,1.7c-0.4,0.5-0.7,0.9-0.7,0.9s0-0.5,0.2-1.1c0.1-0.3,0.3-0.7,0.6-1.1c0.2-0.4,0.6-0.7,0.9-1
		c0.4-0.3,0.8-0.6,1.2-0.8s0.8-0.3,1.1-0.4C284.8,279.8,285.3,279.8,285.3,279.8z"/>
</g>
<g>
	<path class="st3" d="M276.1,289.2c0,0,0.1-0.1,0.3-0.2c0.2-0.1,0.6-0.3,1-0.4c0.4-0.1,1-0.2,1.5-0.2c0.3,0,0.6,0,0.9,0.1
		c0.3,0,0.6,0.1,0.9,0.2c0.3,0.1,0.6,0.2,0.8,0.4c0.3,0.1,0.5,0.3,0.7,0.5c0.4,0.4,0.8,0.7,1.1,1.1c0.3,0.4,0.4,0.7,0.5,1
		c0.1,0.2,0.1,0.4,0.1,0.4s-0.1-0.1-0.3-0.3c-0.2-0.2-0.4-0.4-0.7-0.7c-0.2-0.1-0.3-0.3-0.5-0.4c-0.2-0.1-0.4-0.3-0.6-0.4
		c-0.4-0.2-0.9-0.5-1.4-0.6c-0.5-0.2-1-0.3-1.5-0.4c-0.2,0-0.5-0.1-0.7-0.1s-0.5,0-0.7,0c-0.4,0-0.7,0-1,0.1
		C276.3,289.2,276.1,289.2,276.1,289.2z"/>
</g>
<g>
	<path class="st3" d="M278.3,292.7c0,0,0.4,0.1,0.9,0.4c0.5,0.3,1.1,0.8,1.6,1.4c0.5,0.6,0.8,1.3,0.9,1.9c0.1,0.6,0.1,1,0.1,1
		s-0.3-0.3-0.6-0.7c-0.4-0.4-0.8-1-1.2-1.6s-0.9-1.1-1.2-1.6C278.5,293,278.3,292.7,278.3,292.7z"/>
</g>
<g>
	<path class="st3" d="M299.9,230c0,0,0,0.1,0.1,0.4c0.1,0.3,0.1,0.7,0.2,1.2c0.1,1-0.1,2.6-0.6,4.3s-1.2,3.7-1.8,5.8
		s-1.3,4.4-1.8,6.7c-0.3,1.1-0.5,2.3-0.8,3.4c-0.2,1.1-0.5,2.3-0.7,3.3c-0.4,2.2-0.8,4.2-1,6c-0.2,1.8-0.4,3.2-0.5,4.3
		c-0.1,1-0.2,1.6-0.2,1.6s0-0.6,0-1.6s0-2.5,0.2-4.3c0.1-0.9,0.2-1.9,0.3-2.9s0.2-2.1,0.4-3.2c0.2-1.1,0.4-2.2,0.6-3.4
		c0.2-1.1,0.5-2.3,0.8-3.5c0.3-1.2,0.6-2.3,0.9-3.4c0.3-1.1,0.7-2.2,1-3.3c0.7-2.1,1.5-4,2.1-5.7c0.6-1.7,0.9-3.1,1-4.1
		c0-0.5,0-0.9,0-1.2C299.9,230.2,299.9,230,299.9,230z"/>
</g>
<g>
	<path class="st3" d="M348.6,262.1c0,0,0.1,0,0.4-0.1c0.2-0.1,0.5-0.2,0.9-0.4s0.8-0.5,1.2-1c0.4-0.4,0.8-1,1.3-1.5
		c0.5-0.6,1-1.2,1.4-1.9c0.5-0.7,1-1.5,1.5-2.2c0.5-0.8,0.9-1.6,1.4-2.5s0.9-1.8,1.3-2.7c0.8-1.8,1.6-3.6,2.3-5.4
		c0.7-1.7,1.3-3.4,1.9-4.8c0.5-1.4,1.1-2.5,1.4-3.4c0.4-0.8,0.6-1.3,0.6-1.3s-0.1,0.5-0.4,1.3s-0.6,2.1-1,3.5
		c-0.5,1.4-1,3.1-1.6,4.9c-0.6,1.8-1.4,3.7-2.2,5.5c-0.4,0.9-0.9,1.8-1.4,2.7s-1,1.7-1.5,2.5c-0.5,0.8-1.1,1.5-1.6,2.2
		c-0.5,0.7-1.1,1.3-1.6,1.9c-0.5,0.5-1,1-1.5,1.4c-0.5,0.4-0.9,0.7-1.4,0.9c-0.4,0.2-0.8,0.2-1,0.3
		C348.8,262.1,348.6,262.1,348.6,262.1z"/>
</g>
<g>
	<path class="st3" d="M373.4,375.7c0,0,0,0.2,0,0.7c0,0.4,0.1,1.1,0,1.8c0,1.6-0.3,3.9-0.8,6.5c-0.5,2.7-1,5.8-1.7,9.1
		c-0.7,3.3-1.5,6.9-2.3,10.4c-0.5,1.8-0.9,3.5-1.4,5.2s-1,3.4-1.6,5c-0.5,1.6-1.1,3.2-1.7,4.6c-0.6,1.5-1.2,2.8-1.7,4.1
		c-0.6,1.2-1.1,2.4-1.6,3.3c-0.5,1-1,1.8-1.4,2.5c-0.8,1.4-1.3,2.1-1.3,2.1s0.4-0.8,1.1-2.2c0.4-0.7,0.7-1.6,1.2-2.6
		s0.9-2.2,1.4-3.4c0.5-1.3,1-2.6,1.5-4.1s1-3,1.6-4.6c0.5-1.6,1-3.3,1.5-5s0.9-3.5,1.4-5.2c0.9-3.5,1.7-7,2.4-10.3
		c0.7-3.3,1.4-6.4,2-9.1c0.6-2.6,1-4.9,1.1-6.4C373.4,376.6,373.4,375.7,373.4,375.7z"/>
</g>
<g>
	<path class="st3" d="M375,400.3c0,0-0.1,0.5-0.2,1.4c-0.1,0.4-0.2,1-0.3,1.6c-0.1,0.6-0.3,1.3-0.5,2.1c-0.4,1.5-0.9,3.3-1.5,5.1
		c-0.6,1.8-1.4,3.8-2.1,5.7c-0.8,1.9-1.6,3.8-2.3,5.7c-0.7,1.8-1.4,3.5-2,4.9c-0.5,1.5-1,2.7-1.3,3.5c-0.3,0.9-0.5,1.4-0.5,1.4
		s0.1-0.5,0.3-1.4c0.1-0.4,0.2-1,0.4-1.6c0.1-0.6,0.3-1.3,0.6-2.1c0.4-1.5,1-3.2,1.7-5.1c0.7-1.8,1.4-3.8,2.2-5.7
		c0.8-1.9,1.5-3.9,2.2-5.7c0.3-0.9,0.7-1.8,1-2.6c0.3-0.8,0.6-1.6,0.8-2.4c0.5-1.5,0.9-2.7,1.2-3.6C374.8,400.8,375,400.3,375,400.3
		z"/>
</g>
<g>
	<path class="st3" d="M361.4,389.3c0,0,0,0.1,0,0.3c0,0.2,0,0.5-0.1,0.9s-0.2,0.9-0.4,1.4c-0.2,0.5-0.5,1.1-0.8,1.7
		c-0.7,1.2-1.7,2.5-2.7,3.8c-0.5,0.7-1.1,1.4-1.6,2.1s-1,1.5-1.5,2.2c-0.5,0.8-1.2,1.5-1.9,2.1c-0.7,0.6-1.6,1-2.3,1.4
		c-1.5,0.8-3,1.5-4.2,2.1s-2.3,1.1-3,1.4s-1.1,0.5-1.1,0.5s0.4-0.2,1.1-0.7c0.7-0.4,1.6-1,2.8-1.7c1.2-0.7,2.5-1.5,4-2.3
		c0.7-0.4,1.5-0.9,2.1-1.4c0.7-0.5,1.2-1.2,1.7-1.9c0.5-0.7,1-1.5,1.6-2.2c0.5-0.7,1.1-1.4,1.7-2c1.1-1.3,2.2-2.5,2.9-3.6
		c0.4-0.6,0.7-1.1,0.9-1.6c0.3-0.5,0.4-0.9,0.6-1.3c0.1-0.4,0.2-0.7,0.3-0.9C361.4,389.4,361.4,389.3,361.4,389.3z"/>
</g>
<g>
	<path class="st3" d="M290.7,380.6c0,0,0.4,0,1,0c0.6,0,1.5,0,2.5-0.1s2.3-0.2,3.6-0.3c1.3-0.1,2.8-0.2,4.2-0.1s2.9,0.4,4.1,1
		c0.6,0.3,1.2,0.6,1.7,1s0.9,0.8,1.3,1.1c0.8,0.7,1.4,1.3,2,1.5c0.3,0.1,0.5,0.2,0.7,0.2c0.2,0,0.2,0,0.2,0s-0.1,0-0.3,0
		c-0.2,0-0.4,0-0.7-0.1c-0.6-0.2-1.4-0.6-2.3-1.3c-0.4-0.3-0.9-0.7-1.4-1s-1-0.6-1.6-0.8c-1.2-0.4-2.5-0.7-3.9-0.8
		c-1.4-0.1-2.7-0.1-4.1-0.1c-1.3,0-2.6,0.1-3.6,0C292,381,290.7,380.6,290.7,380.6z"/>
</g>
<g>
	<path class="st3" d="M302.4,394.8c0,0,0.2,0,0.6,0.1c0.4,0.1,1,0.1,1.8,0.2c0.8,0,1.7-0.1,2.7-0.3c1-0.2,2.2-0.6,3.4-1.1
		s2.5-1.1,3.8-1.8c1.3-0.7,2.7-1.4,4.3-2.1c3.1-1.3,6.5-2.2,9.8-3.2c3.4-0.9,6.7-2,9.7-3.2s5.9-2.4,8.2-3.5c2.4-1.1,4.3-2.1,5.6-2.9
		c1.3-0.7,2.1-1.2,2.1-1.2s-0.7,0.5-2,1.3s-3.2,2-5.5,3.2s-5.1,2.6-8.1,3.8c-3,1.2-6.4,2.4-9.8,3.4c-3.4,0.9-6.8,1.8-9.8,3
		c-3,1.3-5.7,2.7-8.2,3.6c-1.2,0.5-2.4,0.8-3.5,1s-2,0.2-2.8,0.1c-0.8-0.1-1.4-0.2-1.8-0.3C302.6,394.9,302.4,394.8,302.4,394.8z"/>
</g>
<g>
	<path class="st2" d="M311.5,192.1c2.2,6.5,2.8,13.5,1.8,20.2c-0.3,2-0.7,4.1-0.3,6.1c1.1,4.6,6.2,6.8,9.7,10.2
		c1.7,1.7-1.3-3-0.5-0.7c3.4-6.9,11.2-7,17-12.1c2.5-2.2,10.1-7.2,10-10.5c-0.3-8,0.9-20.3-7.2-29.2c-0.4-0.4-6.1,5.8-6.5,5.3
		c-0.8-0.7,0.4,0.7-0.7,0.4c-10.2-2.4-11.6,7.1-21.9,8.3c-0.1,0.8-0.2,1.6-0.5,2.4"/>
	<path d="M311.5,192.1c1.2,3.5,1.9,7.2,2.2,10.9c0.1,1.8,0.2,3.7,0.1,5.6c-0.1,0.9-0.1,1.8-0.2,2.8l-0.4,2.7
		c-0.1,0.9-0.2,1.8-0.2,2.7c0,0.9,0.2,1.8,0.5,2.6c0.7,1.7,2,3,3.4,4.2c1.4,1.2,2.9,2.2,4.4,3.4c0.4,0.3,0.7,0.6,1.1,0.9l0.5,0.5
		l0.2,0.2l0.1,0.1l0,0c0,0,0-0.1-0.2,0.1c-0.1,0.2,0,0.1-0.1,0.1l0,0l-0.1-0.1c0-0.1-0.1-0.2-0.2-0.3c-0.1-0.2-0.2-0.4-0.4-0.6
		c-0.1-0.1-0.1-0.2-0.2-0.3c-0.1-0.1-0.2-0.2-0.1-0.2c0,0,0,0,0.1,0c0.1,0,0.2-0.1,0.2-0.1c0-0.1,0-0.1,0-0.1c0,0,0,0.1,0,0.1
		c0,0.1,0.1,0.2,0.1,0.3l-0.5,0c0.9-1.9,2.4-3.6,4.2-4.8c1.8-1.2,3.7-2.1,5.6-3c1.9-0.9,3.8-1.8,5.5-3c0.9-0.6,1.6-1.3,2.4-2l2.5-2
		c1.6-1.3,3.3-2.6,4.7-4.1c0.7-0.8,1.3-1.6,1.7-2.4c0.1-0.2,0.2-0.4,0.2-0.7c0-0.2,0-0.4,0-0.7l0-1.6c-0.1-4.2-0.1-8.4-0.7-12.5
		c-0.6-4.1-1.9-8.2-4.1-11.6c-0.6-0.9-1.2-1.7-1.9-2.5l-0.3-0.3l-0.1-0.1l0,0c-0.1-0.1,0.2,0.1,0.1,0.1l0,0l0,0c0,0,0,0,0.1,0
		c0.1,0,0.1,0,0.2,0c0.1,0,0,0,0,0c-0.1,0.1-0.4,0.2-0.5,0.4c-0.4,0.3-0.8,0.7-1.2,1l-2.3,2.2c-0.4,0.4-0.8,0.7-1.2,1.1
		c-0.2,0.2-0.4,0.3-0.7,0.5c-0.1,0-0.1,0.1-0.3,0.1c-0.1,0-0.3,0.2-0.7-0.1l-0.1-0.1c0,0,0,0,0,0l0.1,0c0,0,0.1,0,0.2,0
		c0.2,0,0.4-0.3,0.4-0.4c0-0.1,0-0.1,0-0.1c0-0.1,0,0.1,0,0.1c0,0.1,0,0.2,0,0.3c0,0.1,0,0.3-0.2,0.5c-0.2,0.2-0.4,0.2-0.5,0.2
		l-0.8-0.2c-0.5-0.1-1-0.2-1.5-0.2c-1-0.1-2,0-3,0.2c-2,0.4-3.8,1.5-5.5,2.7c-1.7,1.2-3.3,2.6-5.2,3.6c-1.9,1-4,1.6-6.1,1.9l0.1-0.1
		c-0.1,0.8-0.3,1.6-0.5,2.4l-0.1,0c0.2-0.8,0.3-1.6,0.4-2.4l0-0.1l0.1,0c2.1-0.3,4.1-1,5.9-2c1.8-1,3.4-2.4,5.1-3.7
		c1.7-1.3,3.5-2.5,5.7-3c1.1-0.2,2.2-0.3,3.3-0.2c0.5,0,1.1,0.1,1.6,0.2l0.4,0.1l0.2,0c0,0,0.1,0,0.1,0c0,0,0,0-0.1,0.1
		c-0.1,0.1-0.1,0.2-0.1,0.2l0-0.1c0-0.1,0-0.1-0.1-0.3c0-0.1,0-0.1,0-0.2c0-0.1,0.1-0.3,0.4-0.4c0.2,0,0.3,0,0.3,0
		c0.1,0,0.1,0,0.1,0c0.1,0,0.1,0.1,0.1,0.1l0.2,0.2c-0.3-0.2-0.4-0.1-0.3-0.1c0,0,0.1,0,0.1-0.1c0.2-0.1,0.4-0.3,0.6-0.4
		c0.4-0.3,0.8-0.7,1.2-1l2.3-2.2c0.4-0.4,0.8-0.7,1.2-1.1c0.2-0.2,0.4-0.3,0.7-0.5c0.1,0,0.1,0,0.2-0.1c0.1,0,0.2,0,0.3,0
		c0,0,0.1,0,0.1,0l0,0l0,0c0,0,0.3,0.2,0.2,0.1l0,0l0.1,0.1l0.3,0.3c0.7,0.8,1.4,1.7,1.9,2.6c2.4,3.6,3.7,7.8,4.3,12
		c0.6,4.2,0.6,8.5,0.6,12.7l0,1.6c0,0.2,0,0.6,0,0.9c0,0.3-0.1,0.6-0.3,0.9c-0.5,1.1-1.2,1.9-1.9,2.7c-1.5,1.6-3.1,2.9-4.8,4.2
		l-2.5,1.9c-0.8,0.6-1.6,1.4-2.5,2c-1.8,1.2-3.7,2.1-5.6,3c-1.9,0.9-3.8,1.8-5.5,2.9c-1.7,1.2-3.1,2.7-4,4.6l-0.3,0.6l-0.2-0.7
		c0-0.1-0.1-0.2-0.1-0.4c0-0.1,0-0.1,0-0.2c0-0.1,0-0.1,0-0.2c0-0.1,0.1-0.2,0.2-0.2c0.1,0,0.2,0,0.2,0c0.2,0.1,0.3,0.2,0.4,0.3
		c0.1,0.1,0.2,0.2,0.2,0.3c0.1,0.2,0.3,0.4,0.4,0.6c0.1,0.1,0.1,0.2,0.2,0.3c0,0.1,0.1,0.1,0.1,0.2c0,0,0,0.1,0,0.1
		c0,0.1,0.1,0.1-0.1,0.3c-0.3,0.2-0.4,0.1-0.4,0.1c-0.1,0-0.1,0-0.1-0.1c-0.1,0-0.1-0.1-0.2-0.1l-0.3-0.3l-0.5-0.5
		c-0.3-0.3-0.7-0.6-1-0.9c-1.4-1.2-2.9-2.2-4.4-3.4c-1.4-1.2-2.7-2.6-3.4-4.4c-0.7-1.8-0.5-3.7-0.3-5.6l0.4-2.7
		c0.1-0.9,0.2-1.8,0.3-2.7c0.1-1.8,0.1-3.7,0-5.5C313.3,199.3,312.6,195.7,311.5,192.1L311.5,192.1z"/>
</g>
<g>
	<g>
		<path class="st2" d="M313.3,147.7c0.4-0.1,0.8-0.1,1.2-0.1c7.8-0.5,14.3,1.5,20.8,5.5c2.3,1.4,4,3.6,4.8,6.1
			c1.7,5.5,3.1,11.1,2.4,16.7c-0.5,4.2,0.2,8,0.3,12.3c0.1,2.9,0.9,5.7,0.6,8.5c-0.4,3.4-2.5,6.4-4.6,9.3c-1.7,2.3-3.4,4.7-5.1,7
			c-0.7,1-1.5,2-2.3,2.9c-1.6,1.8-3.8,2.9-6.2,3.3l0,0l-3.4,0.5l0,0c-2.4,0.3-4.8-0.2-6.9-1.5c-1.1-0.7-2.1-1.4-3.1-2.2
			c-2.3-1.8-4.6-3.5-6.9-5.3c-2.8-2.1-5.7-4.4-7-7.6c-1.1-2.6-1.1-5.6-1.8-8.3c-1.1-4.1-1.5-8-3.2-11.9c-2.2-5.2-2.5-11-2.4-16.8
			c0-2.7,1.1-5.2,2.9-7.2c5-5.6,10.7-9.3,18.4-11.1c0.4-0.1,0.8-0.2,1.2-0.2"/>
		<path d="M313.3,147.7c0,0,0.2,0,0.6-0.1c0.4-0.1,0.9-0.1,1.7-0.1c1.5,0,3.7-0.1,6.4,0.4c2.7,0.4,6,1.3,9.5,3
			c0.9,0.4,1.7,0.9,2.6,1.4c0.9,0.5,1.8,1,2.6,1.7c1.7,1.4,3,3.4,3.7,5.7c1.4,4.5,2.8,9.5,2.5,15c-0.1,1.4-0.3,2.7-0.3,4.1
			c0,1.4,0.1,2.8,0.2,4.2c0.1,1.4,0.2,2.8,0.3,4.3c0,1.5,0.1,2.9,0.4,4.3c0.2,1.5,0.4,3,0.3,4.5c-0.1,1.5-0.5,3.1-1.1,4.5
			c-1.3,2.8-3.3,5.2-5.1,7.7c-1.8,2.5-3.6,5.1-5.6,7.5c-1,1.3-2.3,2.3-3.8,3c-0.7,0.3-1.5,0.6-2.3,0.8c-0.8,0.2-1.6,0.3-2.4,0.4
			c-0.8,0.1-1.6,0.3-2.4,0.3c-0.8,0-1.6,0-2.4-0.1c-1.6-0.2-3.2-0.8-4.5-1.8l-1.9-1.3l-0.5-0.3l-0.3-0.2l-0.2-0.2l-0.9-0.7
			c-1.2-0.9-2.5-1.9-3.7-2.8c-2.4-1.9-5-3.6-7.1-6c-1-1.2-1.9-2.6-2.4-4c-0.5-1.5-0.7-3-1-4.4c-0.1-0.7-0.2-1.4-0.4-2.1
			c-0.1-0.7-0.3-1.4-0.5-2.1c-0.3-1.4-0.6-2.8-0.9-4.2c-0.3-1.4-0.6-2.7-1-4c-0.4-1.3-0.9-2.5-1.4-3.8c-1.8-5.2-1.9-10.5-1.8-15.2
			c0-2.4,0.7-4.7,2-6.6c0.6-0.9,1.4-1.7,2.1-2.4c0.7-0.7,1.4-1.4,2.2-2.1c2.9-2.6,5.8-4.3,8.3-5.5c2.5-1.1,4.6-1.7,6.1-2.1
			c0.7-0.2,1.3-0.3,1.7-0.3c0.4-0.1,0.6-0.1,0.6-0.1l0,0.1c0,0-0.2,0-0.6,0.1c-0.4,0.1-0.9,0.2-1.6,0.4c-1.4,0.4-3.5,1-6,2.2
			c-2.5,1.2-5.3,3-8.1,5.6c-0.7,0.6-1.4,1.3-2.1,2.1c-0.7,0.8-1.4,1.5-2,2.4c-1.1,1.8-1.8,3.9-1.8,6.2c0,4.7,0.1,9.9,2,14.9
			c0.5,1.2,1.1,2.5,1.5,3.9c0.4,1.3,0.7,2.7,1.1,4.1c0.3,1.4,0.6,2.8,0.9,4.2c0.2,0.7,0.4,1.4,0.5,2.1c0.1,0.7,0.3,1.5,0.4,2.2
			c0.2,1.5,0.4,2.9,0.9,4.3c0.5,1.4,1.2,2.6,2.2,3.7c1.9,2.2,4.5,4,6.9,5.9c1.2,0.9,2.5,1.9,3.7,2.9l0.9,0.7l0.2,0.2l0.2,0.2
			l0.5,0.3l1.9,1.4c1.2,0.9,2.7,1.4,4.1,1.7c0.7,0.1,1.5,0.2,2.3,0.1c0.8,0,1.5-0.2,2.3-0.3c0.8-0.1,1.6-0.2,2.3-0.4
			c0.7-0.2,1.5-0.4,2.1-0.7c1.4-0.6,2.6-1.6,3.5-2.8c2-2.4,3.8-4.9,5.6-7.4c1.8-2.5,3.8-4.9,5-7.6c0.6-1.4,1-2.8,1.1-4.2
			c0.1-1.5-0.1-2.9-0.3-4.4c-0.2-1.5-0.3-3-0.3-4.4c-0.1-1.4-0.2-2.9-0.3-4.3c-0.1-1.4-0.2-2.8-0.1-4.2c0-1.4,0.2-2.8,0.3-4.1
			c0.3-5.4-1-10.4-2.3-14.9c-0.6-2.3-1.9-4.2-3.5-5.6c-0.8-0.7-1.7-1.2-2.6-1.7c-0.9-0.5-1.7-1-2.6-1.4c-3.4-1.7-6.7-2.6-9.4-3
			c-2.7-0.4-4.9-0.4-6.4-0.4c-0.7,0-1.3,0-1.7,0.1C313.5,147.7,313.3,147.8,313.3,147.7L313.3,147.7z"/>
	</g>
</g>
<g>
	<path class="st3" d="M310.9,368.1c0,0,0-0.2,0-0.5s0.2-0.8,0.6-1.3c0.4-0.5,1-1,1.7-1.5c0.7-0.5,1.5-1.1,2.4-1.7
		c1.8-1.2,4-2.5,6.7-3.1s5.6-0.5,8.5-0.5c2.9,0.1,5.7,0.2,8.4,0.2c2.7,0.1,5.2,0.3,7.3,0.1c1.1-0.1,2-0.3,2.8-0.5s1.5-0.6,2-0.9
		s0.9-0.6,1.2-0.8c0.2-0.2,0.4-0.3,0.4-0.3s-0.1,0.1-0.3,0.4c-0.2,0.2-0.6,0.6-1.1,1c-1,0.7-2.7,1.5-4.9,1.7
		c-2.2,0.3-4.7,0.3-7.3,0.2c-2.7,0-5.5-0.1-8.4-0.1c-2.9-0.1-5.7-0.2-8.3,0.3c-1.3,0.3-2.5,0.6-3.6,1.1c-1.1,0.5-2.1,1-3,1.6
		c-0.9,0.6-1.7,1.1-2.5,1.5c-0.7,0.5-1.4,0.9-1.8,1.3s-0.6,0.9-0.7,1.2C310.9,367.9,310.9,368.1,310.9,368.1z"/>
</g>
<g>
	<path class="st3" d="M325,373.5c0,0,0.5-0.1,1.3-0.3c0.9-0.1,2.1-0.4,3.5-0.6c0.7-0.1,1.5-0.2,2.4-0.4c0.8-0.1,1.7-0.2,2.6-0.4
		c0.9-0.2,1.7-0.5,2.5-0.9s1.6-1,2.5-1.4c0.9-0.5,1.8-0.9,2.7-1.2c0.9-0.3,1.9-0.6,2.8-0.8c1.8-0.5,3.5-0.7,5-0.8
		c1.5-0.2,2.7-0.2,3.6-0.3c0.9,0,1.4-0.1,1.4-0.1s-1.9,0.4-4.8,0.9c-1.4,0.3-3.1,0.6-4.9,1.1c-0.9,0.3-1.8,0.6-2.6,0.9
		c-0.9,0.4-1.7,0.7-2.6,1.2c-0.8,0.4-1.7,1-2.6,1.4c-0.9,0.5-1.9,0.8-2.8,0.9c-0.9,0.2-1.8,0.2-2.7,0.3c-0.8,0.1-1.6,0.1-2.4,0.2
		c-1.5,0.1-2.7,0.2-3.6,0.2C325.5,373.4,325,373.5,325,373.5z"/>
</g>
<g>
	<path class="st3" d="M293.4,410.8c0,0,0.4,0.8,1.2,2.2c0.4,0.7,0.9,1.5,1.5,2.5c0.6,0.9,1.4,1.9,2.4,2.7c1,0.8,2.3,1.6,3.8,1.9
		c0.7,0.1,1.5,0.2,2.3,0c0.8-0.1,1.5-0.4,2.3-0.8c0.7-0.3,1.5-0.8,2.3-1.2c0.8-0.4,1.5-0.9,2.3-1.3c0.7-0.5,1.5-1,2.2-1.5
		c0.7-0.5,1.5-1,2.2-1.6c2.9-2.2,5.7-4.5,8.4-6.6c1.3-1.1,2.7-2.1,4-3s2.5-1.7,3.7-2.5c0.6-0.4,1.2-0.7,1.7-1
		c0.6-0.3,1.1-0.6,1.6-0.8c1-0.5,1.9-0.9,2.6-1.2c1.5-0.5,2.4-0.8,2.4-0.8s-0.8,0.4-2.3,1c-0.7,0.4-1.6,0.8-2.5,1.3
		c-0.5,0.3-1,0.6-1.5,0.9s-1.1,0.7-1.6,1.1c-1.1,0.8-2.3,1.6-3.6,2.6c-1.2,0.9-2.5,2-3.9,3.1c-2.7,2.2-5.5,4.5-8.4,6.7
		c-0.7,0.5-1.5,1.1-2.3,1.6c-0.8,0.5-1.5,1-2.3,1.5c-0.8,0.4-1.6,0.9-2.4,1.3c-0.8,0.4-1.5,0.8-2.4,1.2c-0.8,0.4-1.6,0.7-2.5,0.8
		c-0.9,0.1-1.7,0.1-2.5-0.1c-1.6-0.4-3-1.2-4-2.2c-1.1-0.9-1.8-2-2.4-3s-1-1.8-1.3-2.6C293.7,411.7,293.4,410.8,293.4,410.8z"/>
</g>
<g>
	<path class="st3" d="M381.6,234.3c0,0,0.2-0.2,0.6-0.2c0.4-0.1,1.1,0,1.7,0.5s1,1.3,1.3,2.1c0.1,0.4,0.3,0.8,0.4,1.3
		c0.1,0.4,0.3,0.8,0.4,1.3c0.6,1.7,1.4,3.3,2,4.5c0.7,1.2,1.1,2,1.1,2s-0.7-0.6-1.6-1.7c-0.9-1.1-1.8-2.7-2.5-4.5
		c-0.2-0.4-0.3-0.9-0.4-1.3c-0.1-0.4-0.2-0.9-0.3-1.3c-0.2-0.8-0.4-1.5-0.9-2c-0.4-0.5-0.9-0.7-1.3-0.7c-0.2,0-0.3,0-0.4,0
		C381.7,234.3,381.6,234.3,381.6,234.3z"/>
</g>
<g>
	<path class="st3" d="M386,229.8c0,0,0.1,0,0.2-0.1s0.3-0.1,0.6-0.2c0.5-0.1,1.3-0.1,2.1,0.3c0.8,0.4,1.6,1.2,2.2,2.2
		s0.9,2.1,1.4,3.1c0.9,2,2.1,4,3.3,5.1c0.6,0.6,1.1,1.1,1.5,1.3c0.4,0.3,0.7,0.4,0.7,0.4s-0.1,0-0.2-0.1s-0.3-0.1-0.6-0.2
		c-0.5-0.2-1.1-0.5-1.8-1.1c-0.7-0.5-1.4-1.3-2.1-2.2s-1.2-1.9-1.7-3s-0.8-2.2-1.3-3.1c-0.2-0.5-0.5-0.9-0.8-1.2s-0.6-0.6-0.9-0.9
		c-0.7-0.5-1.3-0.6-1.8-0.6C386.3,229.6,386,229.8,386,229.8z"/>
</g>
<g>
	<path d="M382,333.4c0,0,0.3-0.1,0.7-0.4c0.4-0.3,1-0.8,1.5-1.5s1.2-1.5,1.9-2.4c0.7-0.8,1.6-1.7,2.4-2.5c0.9-0.8,1.8-1.6,2.7-2.3
		l0.3-0.2l0.3-0.2c0.2-0.1,0.3-0.3,0.5-0.5c0.3-0.3,0.7-0.7,1-1c0.6-0.7,1.2-1.2,1.7-1.5c0.2-0.1,0.4-0.2,0.6-0.3
		c0.1,0,0.2-0.1,0.2-0.1v0.1c0,0-0.2,0.2-0.6,0.5c-0.2,0.2-0.4,0.4-0.6,0.7c-0.2,0.3-0.4,0.6-0.7,1c-0.2,0.4-0.5,0.8-0.9,1.2
		c-0.2,0.2-0.4,0.4-0.6,0.6l-0.3,0.3l-0.3,0.2c-0.9,0.6-1.9,1.3-2.8,2s-1.8,1.5-2.6,2.3c-0.8,0.8-1.5,1.6-2.1,2.2s-1.2,1.1-1.7,1.4
		C382.3,333.4,382,333.5,382,333.4L382,333.4z"/>
</g>
<g>
	<path class="st0" d="M339.8,152.3c0.1-1.4,1.9-1.9,3.1-2.7c2.1-1.4,2.6-4.2,3-6.7c0.3-2.4,0.6-4.9-0.2-7.1c-0.4-1-1-2-1.3-3.1
		c-0.4-1.3-0.4-2.6-0.5-3.9c0-1.9-0.1-3.8-0.1-5.7c0-1.1-0.1-2.2-0.4-3.2c-0.4-1.1-1.1-2-1.9-2.9c-3-3.5-6.6-6.5-10.6-8.9
		c-1-0.6-2.2-1.2-3.4-1.3c-1.2,0-2.3,0.4-3.4,0.7c-4.1,0.9-8.1-1.4-12.3-2.1c-2.3-0.4-4.6-0.3-7-0.2c-3.2,0.2-6.4,0.5-9.3,2
		c-1.4,0.7-2.6,1.6-3.9,2.5c-5,3.6-10.3,6.8-16,9c-0.6,0.3-1.3,0.5-1.8,1c-0.3,0.3-0.5,0.8-0.7,1.2c-0.4,0.9-0.8,1.8-1.2,2.6
		c-0.8,1.8-1.6,3.6-2.1,5.5c-0.4,1.8-0.5,3.7-0.5,5.6c-0.1,3-0.1,6-0.2,9c0,1.8-0.1,3.7,0.5,5.4c0.4,1.2,0.9,2.2,1.2,3.4
		c0.3,1.3,0.3,2.8,0.9,4c0.8,1.7,2.5,2.8,4.2,3.7c1.4,0.8,2.7,1.5,4.1,2.3c1.7,1,3.6,1.7,5.5,1.1c1.9-0.6,3.5-1.8,5.3-2.9
		c2.1-1.3,4.5-2.3,6.9-3.1c2.2-0.7,4.4-1.1,6.7-1.6c4.6-1.1,9.1-2.9,13.8-3.9c4-0.9,8.1-1.2,12.2-1c1,0,2.1,0.1,3,0.5
		c1.1,0.5,2,1.4,3.1,1.7c1.1,0.3,2.7-0.3,2.6-1.5"/>
	<path d="M339.7,152.2c0,0,0-0.2,0.2-0.6c0.2-0.4,0.7-0.9,1.4-1.3c0.7-0.4,1.7-0.8,2.5-1.7c0.8-0.9,1.3-2.2,1.6-3.7
		c0.3-1.5,0.5-3.2,0.6-5c0-0.9,0-1.9-0.2-2.9s-0.6-1.9-1.1-2.9s-0.9-2-1-3.2c-0.1-1.1-0.1-2.3-0.2-3.5c0-1.2-0.1-2.4-0.1-3.7
		s0-2.6-0.4-3.8c-0.4-1.2-1.3-2.2-2.2-3.3c-0.9-1-1.9-2-2.9-3c-2.1-1.9-4.4-3.7-7-5.3c-1.3-0.8-2.6-1.6-4.1-1.4
		c-0.7,0.1-1.5,0.3-2.2,0.5c-0.8,0.2-1.6,0.3-2.4,0.3c-3.3,0-6.4-1.3-9.5-2c-3.2-0.7-6.6-0.5-9.9-0.2c-1.7,0.2-3.4,0.4-5,0.9
		c-1.6,0.5-3.1,1.3-4.5,2.3c-5.6,4.1-11.6,7.9-18.2,10.5c-0.4,0.2-0.7,0.4-1,0.6c-0.2,0.3-0.4,0.6-0.6,1l-1.1,2.4
		c-0.7,1.6-1.5,3.2-1.9,4.8c-0.5,1.6-0.6,3.3-0.7,5.1c0,1.7-0.1,3.5-0.1,5.2c0,1.7-0.1,3.5-0.1,5.2c0,1.7,0,3.4,0.4,4.9
		c0.2,0.8,0.6,1.5,0.9,2.3c0.3,0.8,0.6,1.7,0.7,2.5c0.1,0.8,0.2,1.6,0.5,2.4c0.3,0.7,0.7,1.3,1.2,1.9c1.1,1.1,2.6,1.8,4,2.6
		c0.7,0.4,1.4,0.8,2.1,1.2c0.7,0.4,1.4,0.8,2.1,1.1c1.4,0.6,2.9,0.8,4.2,0.3c1.4-0.5,2.7-1.3,3.9-2.1c2.6-1.7,5.3-2.9,8.1-3.7
		c2.8-0.8,5.5-1.2,8-1.9c5.1-1.4,9.7-3,13.9-3.7c4.3-0.7,8-0.8,11.1-0.6c0.8,0.1,1.5,0.2,2.2,0.4c0.7,0.2,1.2,0.6,1.7,0.9
		c1,0.7,1.9,1.2,2.7,1c0.8-0.1,1.3-0.5,1.5-0.9s0.1-0.6,0.1-0.6h0.1c0,0,0.1,0.2-0.1,0.7c-0.2,0.4-0.7,0.9-1.6,1
		c-0.9,0.2-1.9-0.3-2.9-1c-0.5-0.3-1-0.7-1.7-0.9c-0.6-0.2-1.3-0.3-2.1-0.3c-3.1-0.1-6.8,0-11,0.8c-4.2,0.7-8.7,2.4-13.8,3.9
		c-2.6,0.7-5.3,1.2-8,2c-2.7,0.8-5.3,2-7.8,3.7c-1.3,0.8-2.6,1.7-4.1,2.3c-0.8,0.3-1.7,0.4-2.5,0.3c-0.9-0.1-1.7-0.3-2.4-0.7
		c-0.8-0.3-1.5-0.8-2.2-1.1c-0.7-0.4-1.4-0.8-2.1-1.2c-1.4-0.8-2.9-1.5-4.2-2.7c-0.6-0.6-1.2-1.4-1.5-2.2c-0.3-0.9-0.4-1.7-0.5-2.5
		s-0.3-1.6-0.6-2.3c-0.3-0.8-0.7-1.6-0.9-2.4c-0.5-1.7-0.4-3.5-0.4-5.2c0-1.7,0.1-3.4,0.1-5.2c0-1.7,0.1-3.5,0.1-5.2
		c0.1-1.7,0.2-3.6,0.7-5.3c0.5-1.7,1.3-3.3,2-4.9l1.1-2.4c0.2-0.4,0.4-0.8,0.8-1.2c0.4-0.4,0.8-0.6,1.2-0.8
		c6.6-2.5,12.5-6.3,18.1-10.3c1.4-1,3-1.9,4.7-2.4s3.4-0.8,5.1-0.9c3.4-0.3,6.8-0.5,10.1,0.3c3.2,0.7,6.3,2.1,9.4,2.1
		c0.7,0,1.6-0.1,2.3-0.3c0.7-0.2,1.5-0.5,2.3-0.5c0.8-0.1,1.7,0.1,2.4,0.4c0.7,0.3,1.4,0.7,2,1.1c2.6,1.6,4.9,3.4,7,5.4
		c1,1,2,2,2.9,3s1.8,2.1,2.3,3.4c0.4,1.3,0.4,2.6,0.4,3.9c0,1.3,0,2.5,0.1,3.7c0,1.2,0,2.4,0.1,3.5s0.5,2.2,0.9,3.1
		c0.5,1,0.9,1.9,1.1,2.9s0.2,2,0.1,2.9c-0.1,1.9-0.4,3.5-0.7,5.1c-0.3,1.5-0.8,2.8-1.7,3.8c-0.8,1-1.8,1.3-2.5,1.7
		c-0.7,0.4-1.2,0.8-1.4,1.2C339.8,152,339.9,152.3,339.7,152.2L339.7,152.2z"/>
</g>
<g>
	<path class="st0" d="M341.9,166.1c-1.8-3-4.8-5.2-8-6.4c-3.3-1.3-6.8-1.6-10.3-1.6c-8.7,0.1-17.4,2.8-24.7,7.6
		c-1,0.7-2,1.4-2.6,2.4c-0.6,0.9-0.9,1.9-1.5,2.8c-0.5,0.8-1.2,1.4-1.7,2.1c-1.3,1.8-1.6,4.1-1.9,6.3c-4-7.5-6-15.9-7.9-24.1
		c-0.2-0.9-0.4-1.8-0.4-2.8c0.2-2.5,2.2-4.4,4.3-5.7c2.7-1.8,5.7-3,8.7-4.3c2.3-1,4.6-1.9,6.8-2.9c0.8-0.4,1.7-0.7,2.6-1
		c1-0.3,1.9-0.4,2.9-0.5c2.6-0.3,5.2-0.6,7.9-0.9c5.8-0.7,12.1-1.3,17.1,1.8c0.5,0.3,1,0.7,1.4,1.2c0.4,0.6,0.6,1.2,0.9,1.9
		c2.5,7.6,5,15.3,6.5,23.2"/>
	<path d="M341.8,166.1c-1.4-2.3-3.4-4-5.7-5.3c-2.3-1.3-4.9-2-7.5-2.3c-1.3-0.2-2.6-0.3-3.9-0.3c-1.3,0-2.6,0-3.9,0.1
		s-2.6,0.3-3.9,0.5c-1.3,0.2-2.6,0.5-3.9,0.8c-2.5,0.7-5,1.5-7.4,2.6c-1.2,0.5-2.4,1.1-3.5,1.8c-1.1,0.6-2.3,1.3-3.3,2.1
		c-1.1,0.7-2.1,1.6-2.6,2.7c-0.3,0.6-0.5,1.2-0.9,1.8c-0.3,0.6-0.8,1.1-1.2,1.6c-0.9,1-1.5,2.1-1.9,3.3c-0.4,1.2-0.5,2.5-0.7,3.8
		l-0.1,1l-0.5-0.9c-2.2-4.1-3.9-8.6-5.2-13c-0.7-2.2-1.3-4.5-1.8-6.8l-0.8-3.4c-0.2-1.1-0.6-2.3-0.6-3.5c0-0.1,0-0.3,0-0.5
		c0-0.1,0-0.3,0.1-0.5c0.1-0.3,0.2-0.6,0.3-0.9c0.2-0.6,0.5-1.1,0.9-1.6c0.7-1,1.7-1.8,2.6-2.5c2-1.4,4.1-2.4,6.2-3.4
		s4.3-1.9,6.4-2.8l3.2-1.4c1.1-0.5,2.2-0.9,3.4-1.2c1.2-0.3,2.4-0.4,3.5-0.5l3.5-0.4c2.3-0.3,4.6-0.6,7-0.8c2.3-0.2,4.7-0.2,7.1,0.1
		c2.4,0.3,4.7,1,6.7,2.3c0.5,0.3,1,0.7,1.4,1.2s0.6,1.1,0.8,1.7l1.1,3.3c0.7,2.2,1.4,4.5,2,6.7c1.3,4.5,2.4,9,3.3,13.6h-0.1
		c-1-4.6-2.3-9-3.7-13.5c-0.7-2.2-1.4-4.4-2.2-6.7l-1.1-3.3c-0.2-0.5-0.4-1-0.7-1.4c-0.3-0.4-0.8-0.7-1.3-1c-2-1.2-4.2-1.8-6.5-2.1
		c-2.3-0.3-4.6-0.2-6.9,0s-4.6,0.5-6.9,0.8l-3.5,0.4c-1.2,0.1-2.3,0.2-3.4,0.5c-1.1,0.2-2.1,0.7-3.2,1.2l-3.2,1.4
		c-2.1,0.9-4.3,1.8-6.4,2.7c-2.1,0.9-4.2,2-6.1,3.3c-0.9,0.6-1.8,1.4-2.5,2.3s-1.1,1.9-1.1,3s0.3,2.2,0.6,3.3l0.8,3.4
		c0.5,2.3,1.1,4.5,1.8,6.8c1.3,4.5,2.9,8.9,5,13l-0.6,0.1c0.2-1.3,0.3-2.6,0.7-3.9c0.4-1.3,1.1-2.5,2-3.5c0.4-0.5,0.9-1,1.2-1.5
		c0.3-0.6,0.6-1.2,0.9-1.8c0.6-1.2,1.7-2.2,2.8-2.9c1.1-0.7,2.2-1.4,3.4-2.1c1.2-0.6,2.3-1.2,3.6-1.8c2.4-1.1,4.9-1.9,7.5-2.6
		c1.3-0.3,2.6-0.6,3.9-0.8c1.3-0.2,2.6-0.4,3.9-0.4c1.3-0.1,2.6-0.1,4-0.1c1.3,0,2.6,0.1,4,0.3c2.6,0.4,5.2,1.1,7.5,2.4
		C338.5,162,340.5,163.8,341.8,166.1L341.8,166.1z"/>
</g>
<g>
	<path class="st3" d="M331.6,111c0,0,0.1,0.4,0.4,1.2c0.3,0.8,0.7,1.8,1.3,3c0.6,1.2,1.5,2.5,2.4,4c0.4,0.7,0.9,1.5,1.2,2.4
		c0.2,0.5,0.3,0.8,0.5,1.3c0.1,0.5,0.3,0.9,0.3,1.4c0.4,1.8,0.4,3.7,0.3,5.4c-0.1,1.7-0.3,3.3-0.3,4.6c-0.1,1.4-0.2,2.5-0.2,3.3
		s0,1.2,0,1.2s-0.1-0.4-0.2-1.2c-0.1-0.8-0.2-1.9-0.2-3.3c0-1.4,0-2.9,0-4.6c0-0.8,0-1.7-0.1-2.6s-0.1-1.8-0.3-2.6
		c-0.1-0.4-0.2-0.8-0.3-1.3c-0.1-0.4-0.3-0.9-0.4-1.3c-0.3-0.8-0.7-1.6-1.1-2.3c-0.8-1.5-1.6-2.9-2.1-4.2c-0.5-1.3-0.8-2.4-1-3.2
		C331.7,111.5,331.6,111,331.6,111z"/>
</g>
<g>
	<path class="st3" d="M338.6,147.6c0,0,0.2-0.2,0.3-0.5c0.2-0.4,0.3-0.9,0.3-1.6c0.1-0.7,0.1-1.5,0.1-2.3c0-0.9,0.1-1.7,0.1-2.7
		c0-0.5,0-1,0.2-1.4c0.1-0.5,0.3-1,0.6-1.4c0.6-0.8,1.2-1.2,1.7-1.7c0.4-0.5,0.7-1,0.7-1.4c0.1-0.4,0-0.6,0-0.6s0,0.1,0.1,0.2
		c0,0.1,0.1,0.3,0.1,0.5c0,0.4-0.1,1.1-0.5,1.7s-1,1.2-1.4,1.9c-0.2,0.3-0.3,0.7-0.4,1.1s-0.1,0.8-0.1,1.3c0,0.9-0.1,1.9-0.2,2.7
		c-0.1,0.9-0.3,1.7-0.5,2.3c-0.2,0.7-0.5,1.2-0.7,1.6c-0.1,0.2-0.3,0.3-0.3,0.3C338.6,147.5,338.6,147.6,338.6,147.6z"/>
</g>
<g>
	<path class="st3" d="M325,112.4c0,0,0,0.4,0,1.1s0,1.6,0,2.8c0,1.1,0.1,2.5,0.4,3.8c0.3,1.4,0.7,2.8,1.4,4.1c0.3,0.7,0.7,1.3,1.1,2
		c0.4,0.6,0.7,1.3,1,2c0.6,1.3,1,2.6,1.3,3.7s0.5,2.1,0.6,2.7c0.1,0.7,0.2,1,0.2,1s-0.6-1.4-1.4-3.6c-0.4-1.1-0.9-2.3-1.6-3.5
		c-0.3-0.6-0.7-1.2-1.1-1.9c-0.4-0.6-0.8-1.3-1.2-2c-0.4-0.7-0.7-1.4-0.9-2.2c-0.2-0.7-0.4-1.5-0.5-2.2c-0.2-1.5-0.2-2.8-0.1-4
		c0.1-1.2,0.2-2.1,0.3-2.8C324.9,112.7,325,112.4,325,112.4z"/>
</g>
<g>
	<path class="st3" d="M319.4,134.2c0,0,0.1,0,0.2-0.1c0.1-0.1,0.2-0.3,0.3-0.6c0.2-0.5,0.1-1.4,0.1-2.4c0-2,0.1-4.7,0.1-7.5
		c0-1.4,0-2.7-0.1-3.9c-0.1-1.2-0.3-2.4-0.6-3.3c-0.3-1-0.7-1.7-1-2.2s-0.5-0.8-0.5-0.8s0.1,0.1,0.2,0.2c0.1,0.1,0.3,0.3,0.5,0.5
		c0.4,0.5,0.9,1.2,1.3,2.1c0.4,1,0.8,2.1,0.9,3.4c0.2,1.3,0.2,2.7,0.2,4c0,2.7-0.2,5.5-0.5,7.5c-0.2,1-0.3,1.9-0.5,2.5
		c-0.1,0.3-0.3,0.5-0.5,0.6C319.4,134.2,319.4,134.2,319.4,134.2z"/>
</g>
<g>
	<path class="st3" d="M310.2,114c0,0,0.4,1.2,0.7,3.2c0.1,1,0.2,2.1,0.2,3.4c0,1.2-0.1,2.6-0.2,3.9c-0.2,1.3-0.4,2.6-0.4,3.7
		c0,1.2,0.2,2.3,0.2,3.3s-0.2,1.9-0.5,2.4c-0.1,0.3-0.3,0.4-0.4,0.5c-0.1,0.1-0.2,0.2-0.2,0.2s0.2-0.3,0.4-0.8s0.3-1.3,0.1-2.2
		c-0.1-0.9-0.5-2-0.5-3.3c-0.1-1.3,0.2-2.6,0.3-3.9c0.3-2.5,0.4-5.1,0.4-7c0-1,0-1.8-0.1-2.3C310.2,114.4,310.2,114,310.2,114z"/>
</g>
<g>
	<path class="st3" d="M299.3,134.1c0,0-0.1-0.1-0.2-0.2c-0.1-0.1-0.4-0.3-0.6-0.6c-0.3-0.3-0.5-0.6-0.8-1c-0.3-0.4-0.6-0.9-0.9-1.5
		c-0.5-1.2-1-2.6-1.2-4.2c-0.3-1.6-0.4-3.2-0.6-4.9c-0.1-0.8-0.1-1.7-0.2-2.5c0-0.4-0.1-0.8-0.1-1.2c0-0.4,0-0.9,0.3-1.4
		s0.7-0.7,1-0.9c0.3-0.2,0.6-0.4,1-0.6c0.6-0.3,1.2-0.7,1.8-1c1.1-0.6,1.9-1.2,2.4-1.7s0.8-0.8,0.8-0.8s-0.1,0.1-0.1,0.3
		c-0.1,0.2-0.2,0.4-0.5,0.7c-0.5,0.6-1.2,1.3-2.3,2c-0.5,0.3-1.1,0.7-1.7,1.1c-0.5,0.4-1.3,0.8-1.6,1.3c-0.3,0.4,0,1.3,0,2.1
		c0.1,0.8,0.1,1.6,0.2,2.5c0.3,3.3,0.5,6.6,1.3,8.9c0.2,0.6,0.4,1.1,0.7,1.5c0.2,0.4,0.5,0.8,0.7,1.1s0.4,0.5,0.5,0.7
		C299.2,134,299.3,134.1,299.3,134.1z"/>
</g>
<g>
	<path class="st3" d="M285.8,117.5c0,0,0,0.4,0,1s0,1.6,0.1,2.7c0.1,1.1,0.3,2.3,1,3.4c0.7,1.1,1.8,2,3,3c0.6,0.5,1.1,1,1.6,1.5
		s1,1.1,1.4,1.7c0.9,1.1,1.6,2.2,2.1,3.2s0.9,1.9,1.1,2.5c0.2,0.6,0.3,1,0.3,1s-0.2-0.3-0.5-0.9c-0.3-0.6-0.8-1.4-1.4-2.3
		c-1.2-1.8-3.1-4.1-5.3-6c-0.6-0.5-1.1-1-1.7-1.5c-0.5-0.5-1-1.1-1.4-1.8c-0.7-1.3-0.8-2.7-0.8-3.9c0-1.1,0.2-2.1,0.3-2.7
		C285.7,117.9,285.8,117.5,285.8,117.5z"/>
</g>
<g>
	<path class="st3" d="M277.5,121.5c0,0,0,0.1,0.1,0.2c0.1,0.1,0.2,0.3,0.3,0.6c0.2,0.2,0.4,0.5,0.6,0.7c0.3,0.3,0.6,0.5,1,0.8
		c0.7,0.5,1.7,1.1,2.7,1.9c0.5,0.4,1,0.8,1.3,1.4c0.4,0.5,0.7,1.1,1,1.7c1.2,2.2,2.4,4.4,3.4,6s1.6,2.7,1.6,2.7s-0.9-0.9-2.1-2.4
		c-0.6-0.7-1.2-1.7-1.9-2.7c-0.7-1-1.3-2.1-1.9-3.2c-0.3-0.6-0.6-1.1-0.9-1.6c-0.3-0.5-0.7-0.9-1.1-1.3c-0.8-0.8-1.8-1.4-2.5-2.1
		c-0.7-0.7-1.2-1.4-1.4-1.9S277.5,121.5,277.5,121.5z"/>
</g>
<g>
	<path class="st3" d="M271.2,130.9c0,0,0.3,0.1,0.9,0.2c0.6,0.1,1.4,0.3,2.3,0.5c0.5,0.1,1,0.2,1.5,0.4c0.5,0.2,1.1,0.2,1.8,0.6
		c0.2,0.1,0.3,0.3,0.4,0.4c0.2,0.2,0.2,0.3,0.3,0.5c0.1,0.4,0.2,0.7,0.2,1.1c0,0.3,0,0.6,0,1c0,0.3,0,0.7,0.1,0.9
		c0.1,1.2,0.6,2.4,1.1,3.4c0.3,0.5,0.6,1,0.9,1.4s0.7,0.8,1,1.1c0.3,0.3,0.7,0.6,1,0.8c0.3,0.2,0.6,0.4,0.9,0.6
		c0.5,0.3,0.8,0.4,0.8,0.4s-0.1,0-0.2-0.1c-0.1,0-0.4-0.1-0.6-0.2c-0.3-0.1-0.6-0.2-1-0.4c-0.4-0.2-0.8-0.4-1.2-0.7
		c-0.4-0.3-0.8-0.7-1.2-1.1c-0.4-0.4-0.8-0.9-1.1-1.5c-0.3-0.5-0.7-1.1-0.9-1.8c-0.2-0.6-0.4-1.3-0.5-2c-0.1-0.4-0.1-0.7-0.1-1
		s0-0.7,0-1s0-0.6-0.1-0.8c0-0.1-0.1-0.2-0.1-0.3c-0.1-0.1-0.1-0.2-0.2-0.2c-0.4-0.3-1-0.4-1.5-0.6s-1-0.4-1.5-0.5
		c-0.9-0.3-1.7-0.7-2.2-0.9C271.5,131,271.2,130.9,271.2,130.9z"/>
</g>
<g>
	<path class="st3" d="M272.2,141.3c0,0,0,0.1,0.1,0.2c0,0.1,0.1,0.4,0.1,0.6c0.1,0.6,0.1,1.4,0.1,2.3c0,0.9,0,2,0.2,3.1
		s0.9,2,1.6,3.1c0.7,1,1.4,2,2.2,2.9c0.8,0.8,1.6,1.5,2.4,2s1.4,0.9,1.9,1.2s0.8,0.4,0.8,0.4s-0.3-0.1-0.8-0.3
		c-0.5-0.2-1.3-0.4-2.1-0.9c-0.9-0.4-1.8-1-2.7-1.9c-0.9-0.8-1.7-1.9-2.4-2.9c-0.4-0.5-0.7-1-1.1-1.6c-0.3-0.6-0.5-1.2-0.6-1.9
		c-0.2-1.3,0-2.4,0.1-3.3s0.2-1.7,0.3-2.3C272.2,141.7,272.2,141.3,272.2,141.3z"/>
</g>
<g>
	<path class="st3" d="M322.3,139.7c0,0,0.5,0.5,1.3,1.4c0.7,0.8,1.7,2,2.6,3.1c0.9,1.1,1.9,2.3,2.6,3.1c0.7,0.9,1.2,1.5,1.2,1.5
		s-0.7-0.4-1.6-1.1s-2-1.7-3-2.9c-1-1.2-1.8-2.4-2.3-3.4C322.6,140.4,322.3,139.7,322.3,139.7z"/>
</g>
<g>
	<path class="st4" d="M345.4,188.1c1.7,0.7,3,2.3,3.3,4.1c0.1,0.5,0.1,0.9,0.3,1.3c0.4,1,1.6,1.6,1.8,2.6c0.1,0.3,0,0.7,0.2,1
		c0.2,0.4,0.5,0.6,0.8,0.8c2.1,1.6,3.2,4.3,2.9,6.9c-0.3,2.9-2.3,5.3-4.1,7.5c-1.4,1.7-2.8,3.3-4.2,5c-0.9,1-1.7,2.1-2.9,2.6
		c-0.9,0.4-1.9,0.5-2.8,0.9c-1.2,0.5-2.1,1.4-3.2,2.1c-1.6,1-3.6,1.4-5.5,1.8c-1.9,0.4-3.9,0.8-5.8,1.3c-0.7,0.2-1.6,0.2-2-0.4
		c-0.6-0.9,0.6-1.8,1.6-2.2c9-4.1,14.8-13,18.9-21.9c1.7-3.6,3.1-7.9,1-11.2c-0.3-0.4-0.6-0.9-0.6-1.3c0-0.5,0.8-0.9,1-0.5"/>
	<path d="M345.4,188c0,0,0.1,0,0.3,0.1c0.2,0.1,0.5,0.2,0.8,0.5c0.6,0.4,1.5,1.3,2.1,2.7c0.1,0.3,0.2,0.7,0.3,1.1
		c0.1,0.4,0.1,0.8,0.3,1.2c0.4,0.8,1.3,1.3,1.7,2.3c0.2,0.5,0,1.1,0.4,1.4c0.4,0.3,0.9,0.6,1.3,1.1c0.8,0.8,1.5,1.9,1.9,3.1
		c0.4,1.2,0.5,2.6,0.3,4c-0.3,1.4-0.9,2.7-1.7,3.9c-0.8,1.2-1.8,2.4-2.7,3.5c-1,1.2-2,2.3-3,3.6c-1,1.2-1.9,2.5-3.4,3.5
		c-0.7,0.5-1.6,0.6-2.4,0.9c-0.8,0.2-1.4,0.6-2.1,1c-0.7,0.5-1.3,1-2.1,1.4c-0.7,0.4-1.5,0.8-2.3,1c-1.6,0.5-3.3,0.8-4.9,1.2
		l-2.4,0.6l-1.2,0.3c-0.4,0.1-0.8,0.2-1.3,0.2s-1.1-0.1-1.5-0.8l-0.1-0.1c0-0.1-0.1-0.2-0.1-0.3c0-0.2,0-0.3,0-0.5
		c0.1-0.3,0.2-0.5,0.3-0.7c0.6-0.8,1.5-1.1,2.2-1.5c1.5-0.7,2.8-1.6,4.1-2.5c1.3-1,2.5-2,3.6-3.1c2.2-2.2,4-4.6,5.6-7s2.9-4.7,4-7
		c1.1-2.2,2.1-4.3,2.6-6.2c0.5-1.9,0.6-3.7,0.2-5.1c-0.2-0.7-0.5-1.3-0.8-1.7c-0.3-0.5-0.5-1-0.3-1.4s0.6-0.5,0.8-0.4
		c0.2,0.1,0.3,0.2,0.3,0.2l-0.1,0.1c0,0,0-0.1-0.2-0.1s-0.5,0.1-0.6,0.4c-0.3,0.7,0.9,1.6,1.3,3c0.5,1.4,0.5,3.3,0.1,5.3
		c-0.5,2-1.4,4.2-2.5,6.4c-1.1,2.3-2.4,4.7-3.9,7.1c-1.6,2.4-3.4,4.9-5.7,7.1c-1.1,1.1-2.4,2.2-3.7,3.2c-1.3,0.9-2.8,1.9-4.3,2.5
		c-0.8,0.4-1.5,0.7-1.9,1.2c-0.1,0.1-0.2,0.3-0.2,0.4c0,0.1,0,0.1,0,0.1l0,0l0.1,0.1c0.1,0.2,0.3,0.3,0.7,0.3c0.7,0,1.6-0.3,2.4-0.4
		l2.5-0.5c1.6-0.4,3.3-0.6,4.8-1.1c0.8-0.2,1.5-0.5,2.2-0.9s1.3-0.9,2-1.4s1.5-0.9,2.3-1.1c0.8-0.2,1.6-0.4,2.2-0.8
		c1.3-0.8,2.3-2.1,3.3-3.3s2-2.4,3-3.5c1-1.2,1.9-2.3,2.7-3.4c0.8-1.2,1.4-2.4,1.7-3.7c0.3-1.3,0.2-2.6-0.2-3.8
		c-0.4-1.2-1-2.2-1.8-3c-0.4-0.4-0.9-0.7-1.3-1.1c-0.2-0.2-0.3-0.5-0.4-0.8c0-0.3,0-0.5-0.1-0.8c-0.3-0.9-1.2-1.5-1.6-2.3
		c-0.2-0.4-0.3-0.9-0.3-1.2c-0.1-0.4-0.1-0.8-0.3-1.1c-0.5-1.4-1.4-2.2-2-2.6c-0.3-0.2-0.6-0.4-0.8-0.5
		C345.5,188.2,345.4,188.1,345.4,188L345.4,188z"/>
</g>
<g>
	<path class="st5" d="M349.5,199.2c0,0,0,0.3,0,0.7s0,1.1-0.2,1.8c-0.1,0.8-0.3,1.6-0.6,2.5c-0.2,0.4-0.3,0.9-0.6,1.4
		c-0.2,0.5-0.4,0.9-0.7,1.4c-0.3,0.4-0.5,0.9-0.8,1.3c-0.3,0.4-0.6,0.8-0.9,1.2c-0.6,0.7-1.2,1.4-1.8,1.9c-0.6,0.5-1.1,0.9-1.5,1.1
		c-0.4,0.2-0.6,0.4-0.6,0.4s0.2-0.2,0.5-0.5s0.7-0.8,1.2-1.4c0.2-0.3,0.5-0.6,0.8-0.9c0.3-0.3,0.5-0.7,0.8-1.1
		c0.5-0.8,1.1-1.6,1.5-2.4c0.5-0.9,0.9-1.7,1.3-2.6c0.2-0.4,0.4-0.8,0.5-1.2s0.3-0.8,0.4-1.1c0.2-0.7,0.4-1.3,0.5-1.7
		C349.4,199.4,349.5,199.2,349.5,199.2z"/>
</g>
<g>
	<path class="st5" d="M351.1,203c0,0,0.1,0.3,0.2,0.9c0.1,0.6,0.2,1.4,0.2,2.3c0,1-0.2,2.2-0.8,3.3c-0.7,1.1-1.7,2-2.5,2.9
		c-0.9,0.9-1.8,1.8-2.7,2.6c-0.9,0.8-1.8,1.5-2.6,2c-1.6,1.1-2.8,1.6-2.8,1.6s0.2-0.2,0.7-0.6c0.4-0.3,1-0.9,1.8-1.5
		c1.4-1.3,3.2-3.1,5-4.9c0.9-0.9,1.9-1.8,2.5-2.7s0.9-2,1-2.9s0.1-1.7,0.1-2.3C351.1,203.3,351.1,203,351.1,203z"/>
</g>
<g>
	<path class="st5" d="M327.9,225.3c0,0,0.1-0.2,0.2-0.4c0.2-0.3,0.4-0.6,0.8-1s0.8-0.8,1.4-1.1c0.5-0.4,1.2-0.7,1.8-0.9
		c0.6-0.2,1.3-0.4,1.9-0.6c0.6-0.1,1.2-0.2,1.7-0.3c1-0.1,1.7-0.1,1.7-0.1s-0.6,0.3-1.5,0.7c-0.5,0.2-1,0.4-1.6,0.6
		c-0.6,0.2-1.2,0.4-1.8,0.7c-1.2,0.4-2.3,1-3.1,1.5C328.4,224.9,327.9,225.3,327.9,225.3z"/>
</g>
<g>
	<path class="st4" d="M312,218.1c1.1,0,1.9,1.1,2.4,2.2s0.7,2.2,1.6,3c0.4,0.3,0.8,0.5,1.1,0.8c0.3,0.4,0.3,1-0.1,1.2
		c-0.3,0.2-0.7,0-1,0c-0.5,0-1,0.4-1.3,0.8c-0.3,0.4-0.6,0.9-0.9,1.3c-0.2,0.2-0.4,0.4-0.6,0.3c-0.1,0-0.2-0.2-0.3-0.3
		c-0.7-1.1-0.8-2.5-0.9-3.8c-0.1-1.1-0.1-2.1-0.2-3.2c-0.1-1-0.1-2,0.5-2.8"/>
	<path d="M312,218.1c0,0,0.4-0.1,1,0.3c0.3,0.2,0.6,0.5,0.9,0.9c0.3,0.4,0.5,0.9,0.8,1.4c0.2,0.5,0.5,1.1,0.8,1.7
		c0.2,0.3,0.4,0.5,0.6,0.7c0.3,0.2,0.6,0.3,0.9,0.6c0.3,0.2,0.6,0.8,0.5,1.3c0,0.3-0.2,0.6-0.5,0.7c-0.3,0.1-0.6,0.1-0.8,0.1
		c-0.4-0.1-0.6-0.1-0.9,0.1c-0.3,0.2-0.5,0.4-0.7,0.7s-0.4,0.7-0.7,1c-0.1,0.2-0.3,0.4-0.6,0.5c-0.2,0.1-0.4,0.1-0.6,0
		s-0.3-0.2-0.4-0.3c-0.5-0.7-0.7-1.5-0.9-2.3c-0.2-1.5-0.2-2.9-0.2-4.1c0-0.6,0-1.1,0-1.6s0.1-0.9,0.2-1.3c0.1-0.3,0.3-0.6,0.4-0.7
		c0.1-0.2,0.2-0.2,0.2-0.2l0.1,0.1c0,0-0.1,0.1-0.1,0.2c-0.1,0.2-0.2,0.4-0.2,0.7s0,0.7,0,1.2s0.1,1,0.2,1.6
		c0.1,0.6,0.1,1.2,0.2,1.9c0.1,0.7,0.1,1.4,0.2,2c0.1,0.7,0.3,1.4,0.6,1.9c0,0.1,0,0,0,0h-0.1c0,0,0.2-0.1,0.3-0.2
		c0.2-0.3,0.4-0.6,0.7-0.9c0.2-0.3,0.5-0.7,1-0.9c0.2-0.1,0.4-0.2,0.7-0.2c0.2,0,0.5,0,0.7,0.1c0.4,0.1,0.5,0,0.5-0.2
		c0-0.1,0-0.3,0-0.4c0-0.1-0.1-0.2-0.2-0.3c-0.2-0.2-0.6-0.4-0.8-0.6c-0.3-0.3-0.5-0.5-0.7-0.9c-0.4-0.6-0.5-1.2-0.7-1.8
		s-0.4-1-0.6-1.4s-0.5-0.7-0.8-0.9C312.4,218.1,312,218.2,312,218.1L312,218.1z"/>
</g>
<g>
	<path class="st4" d="M312.9,235.7c1.3-0.4,2.8,0.2,3.4,1.4c0.4,0.9,0.4,2,1.2,2.6c0.4,0.3,1-0.3,1.4-0.7c1.1-1.1,2.2-2.2,2.9-3.6
		c0.7-1.4,1-3,0.4-4.5c-0.1-0.2-0.2-0.4-0.1-0.6c0.1-0.1,0.2-0.2,0.4-0.3c1-0.5,1.7-1.5,2-2.5c0.3-1.1,0.1-2.5-0.8-3.2
		c-0.5-0.4-1.2-0.5-1.8-0.5c-0.8,0-1.5,0.2-2.2,0.5c-0.5,0.2-0.9,0.5-1.4,0.6c-0.7,0.1-1.5-0.1-2.1,0.2s-0.9,0.9-1.2,1.4
		c-1.3,2.7-2.5,5.6-2.1,8.6"/>
	<path d="M312.8,235.7c0,0,0.2-0.1,0.5-0.1c0.3,0,0.8-0.1,1.4,0.2c0.6,0.2,1.3,0.7,1.6,1.5c0.2,0.4,0.3,0.8,0.5,1.3
		c0.1,0.4,0.4,0.9,0.7,1.1c0.1,0.1,0.3,0,0.5-0.2s0.4-0.3,0.6-0.5c0.4-0.4,0.8-0.8,1.2-1.3c0.8-0.9,1.5-1.9,1.9-3.1
		c0.2-0.6,0.3-1.2,0.3-1.8c0-0.3,0-0.6-0.1-0.9c-0.1-0.3-0.2-0.5-0.3-0.9c-0.1-0.2-0.1-0.6,0.2-0.8c0.2-0.2,0.4-0.2,0.5-0.3
		c0.3-0.2,0.5-0.4,0.7-0.6c0.4-0.5,0.8-1,0.9-1.6c0.3-1.2-0.1-2.6-1.2-3c-0.5-0.2-1.2-0.2-1.8-0.1c-0.6,0.1-1.1,0.3-1.7,0.6
		c-0.3,0.1-0.6,0.3-1,0.4c-0.4,0.1-0.8,0.1-1.1,0.1c-0.6,0-1.1,0-1.4,0.3c-0.3,0.3-0.6,0.8-0.8,1.3c-0.3,0.5-0.5,1-0.7,1.4
		c-0.4,0.9-0.8,1.8-1,2.6s-0.4,1.5-0.5,2.1s-0.1,1.1-0.1,1.4c0,0.3,0,0.5,0,0.5h-0.1c0,0,0-0.2-0.1-0.5c0-0.3-0.1-0.8-0.1-1.4
		c0-1.2,0.4-3,1.1-5c0.2-0.5,0.4-1,0.6-1.5c0.2-0.5,0.4-1.1,1-1.6c0.3-0.3,0.6-0.5,1-0.6s0.7-0.1,1-0.1c0.6,0,1-0.1,1.6-0.4
		c1.2-0.6,2.8-1,4.3-0.4c0.8,0.3,1.4,1,1.6,1.8c0.2,0.8,0.2,1.6,0,2.3c-0.2,0.7-0.6,1.4-1.2,1.9c-0.3,0.3-0.6,0.5-0.9,0.7
		c-0.1,0.1-0.3,0.2-0.4,0.2c0,0,0,0,0,0.1c0.1,0.2,0.3,0.6,0.3,1c0.1,0.4,0.1,0.7,0.1,1.1c0,0.7-0.2,1.4-0.4,2
		c-0.5,1.3-1.3,2.3-2.1,3.2c-0.4,0.4-0.8,0.8-1.2,1.2c-0.2,0.2-0.4,0.4-0.6,0.6c-0.2,0.1-0.5,0.4-0.9,0.2c-0.5-0.3-0.7-0.9-0.9-1.3
		c-0.1-0.5-0.2-0.9-0.4-1.3c-0.3-0.8-0.9-1.2-1.5-1.4c-0.5-0.2-1-0.2-1.3-0.2C313,235.7,312.9,235.8,312.8,235.7L312.8,235.7z"/>
</g>
<g>
	<path class="st4" d="M313,235.2c-0.2,1.2-1.1,2.1-1.9,2.9c-4.2,4.4-7.3,9.8-9,15.6c-0.4,1.4-0.7,3,0,4.3c-0.3-3.7,3.1-7.3,6.8-7.3
		c1.2-4.8,3.6-10.3,7.6-13.1c0-0.2-0.1-0.2-0.2-0.4c-0.2-0.4-0.4-0.9-0.8-1.2c-0.1-0.1-0.2-0.1-0.3-0.2
		C314.6,235.3,313.8,235.1,313,235.2"/>
	<path d="M313,235.2c-0.1,0.5-0.3,1.1-0.6,1.5c-0.3,0.5-0.7,0.9-1.1,1.3c-0.7,0.8-1.5,1.6-2.1,2.5c-1.4,1.7-2.6,3.5-3.6,5.4
		s-1.9,3.9-2.6,5.9c-0.3,1-0.7,2.1-0.9,3.1s-0.2,2.1,0.3,2.9l-0.7,0.2v-0.7l0.1-0.7l0.1-0.7l0.2-0.7l0.3-0.7l0.4-0.6l0.4-0.6
		l0.5-0.6l0.5-0.5l0.6-0.5l0.6-0.4l0.6-0.4l0.7-0.3l0.7-0.2l0.7-0.1h0.8l-0.5,0.4c0.3-1.3,0.7-2.5,1.2-3.7s1-2.4,1.7-3.6
		c0.6-1.1,1.4-2.2,2.2-3.3c0.4-0.5,0.9-1,1.4-1.4s1-0.8,1.6-1.2l-0.1,0.3c0-0.1,0-0.1-0.1-0.2l-0.1-0.3c-0.1-0.2-0.2-0.3-0.3-0.5
		s-0.2-0.3-0.3-0.4c-0.1-0.1-0.1-0.1-0.2-0.2l-0.2-0.2C314.5,235.5,313.8,235.2,313,235.2L313,235.2c0.7-0.2,1.5,0,2.3,0.4l0.3,0.2
		c0.1,0,0.2,0.1,0.3,0.2c0.2,0.1,0.3,0.3,0.4,0.5c0.1,0.2,0.2,0.3,0.3,0.5l0.1,0.2c0.1,0.1,0.1,0.2,0.1,0.4v0.2l-0.1,0.1
		c-0.5,0.4-1,0.8-1.4,1.3s-0.8,0.9-1.2,1.4c-0.8,1-1.4,2.1-2,3.2c-1.1,2.3-2,4.7-2.7,7.1l-0.1,0.4h-0.4h-0.6l-0.6,0.1l-0.6,0.2
		l-0.6,0.2l-0.6,0.3l-0.5,0.4l-0.5,0.4l-0.5,0.5l-0.4,0.5l-0.4,0.5l-0.3,0.6l-0.3,0.6l-0.2,0.6l-0.1,0.6l-0.1,0.6v0.7v1.5l-0.7-1.3
		c-0.3-0.5-0.4-1.1-0.5-1.7c0-0.6,0-1.2,0.2-1.7c0.2-1.1,0.6-2.1,1-3.2c0.7-2.1,1.7-4.1,2.8-6s2.4-3.7,3.8-5.4
		c0.7-0.8,1.5-1.6,2.2-2.4C312,237.1,312.8,236.2,313,235.2L313,235.2z"/>
</g>
<g>
	<path class="st4" d="M317.8,239.3c0.4,4.8,2.3,9.4,2.5,14.3c0.1,2.2-0.2,4.4,0.1,6.6c0.2,1.8,0.8,3.4,1.1,5.2
		c1.4,7.1-0.7,14.4-2.8,21.3c-1.6-2-3.3-4-4.9-6c-0.8-1-1.6-2-2.4-3c-1.5-2.2-2.7-4.6-3.8-7.1c-0.9-1.9-1.8-3.9-2.7-5.8
		c-0.4-0.8-0.8-1.7-0.9-2.6c-0.1-0.9,0.2-1.8,0.4-2.7c0.6-2,1.2-4.1,1.8-6.1c0.5-1.6,0.9-3.2,1.7-4.7
		C310,244.6,313.9,241.9,317.8,239.3"/>
	<path d="M317.8,239.3c0.4,4,1.9,7.7,2.5,11.8c0.2,1,0.3,2,0.3,3s0,2,0,3s0,2,0.1,2.9c0.1,1,0.4,1.9,0.6,2.9c0.2,1,0.5,1.9,0.7,3
		c0.2,1,0.3,2,0.3,3s0,2,0,3.1c-0.1,1-0.2,2-0.3,3c-0.6,4-1.8,7.9-2.9,11.7l-0.2,0.8l-0.5-0.6l-4.5-5.5c-0.8-0.9-1.5-1.9-2.2-2.8
		c-0.7-0.9-1.4-2-2-3c-1.2-2.1-2.1-4.2-3.1-6.4l-1.5-3.2c-0.5-1.1-1.1-2.1-1.3-3.3c-0.3-1.3,0.1-2.5,0.5-3.6l1-3.4l1-3.4
		c0.3-1.1,0.7-2.3,1.2-3.3c1-2.2,2.6-4,4.4-5.6s3.8-2.9,5.7-4.2L317.8,239.3c-2.1,1.3-4,2.7-5.7,4.3c-1.7,1.6-3.3,3.4-4.2,5.5
		c-0.5,1.1-0.8,2.2-1.2,3.3l-1,3.4l-1,3.4c-0.3,1.1-0.7,2.3-0.4,3.4c0.2,1.1,0.9,2.1,1.3,3.2l1.5,3.2c1,2.1,2,4.3,3.2,6.3
		c0.6,1,1.2,2,2,2.9c0.7,0.9,1.5,1.9,2.2,2.8l4.5,5.4l-0.7,0.2c0.6-1.9,1.1-3.8,1.6-5.8c0.5-1.9,0.9-3.9,1.2-5.8
		c0.1-1,0.2-2,0.3-2.9c0-1,0.1-2,0-3s-0.1-1.9-0.3-2.9c-0.1-1-0.4-1.9-0.6-2.9c-0.2-1-0.4-2-0.6-3c-0.1-1-0.1-2.1-0.1-3.1
		c0.1-2,0.2-4-0.1-5.9C319.2,247.2,318,243.4,317.8,239.3L317.8,239.3z"/>
</g>
<g>
	<path class="st5" d="M309.1,262.8c0,0-0.1-0.3-0.2-0.8c-0.1-0.5-0.2-1.2-0.2-2.1s0-1.9,0.2-3c0.2-1.1,0.5-2.2,0.9-3.4
		c0.4-1.1,0.9-2.2,1.4-3.2s1-1.9,1.5-2.6c0.9-1.5,1.6-2.4,1.6-2.4s-0.1,0.3-0.3,0.7c-0.2,0.5-0.5,1.1-0.8,1.9
		c-0.3,0.8-0.7,1.7-1.2,2.7c-0.4,1-0.9,2-1.2,3.1c-0.8,2.1-1.3,4.4-1.5,6.1c-0.1,0.9-0.1,1.6-0.1,2.1
		C309.1,262.6,309.1,262.8,309.1,262.8z"/>
</g>
<g>
	<path class="st5" d="M314.9,265.8c0,0,0,0.2,0,0.6c0,0.4,0,0.9,0.1,1.5c0.1,1.2,0.5,2.8,1,4.4c0.2,0.8,0.5,1.6,0.7,2.3
		c0.2,0.7,0.5,1.5,0.6,2.1c0.3,1.2,0.4,2.1,0.4,2.1s-0.4-0.8-1-1.9c-0.3-0.6-0.6-1.2-0.9-2c-0.3-0.7-0.6-1.5-0.9-2.4
		c-0.2-0.8-0.4-1.7-0.5-2.5c-0.1-0.8-0.1-1.6-0.1-2.2c0.1-0.7,0.2-1.2,0.3-1.5C314.9,266,314.9,265.8,314.9,265.8z"/>
</g>
<g>
	<path class="st4" d="M337.8,238.5c0.8,0,1.6-0.5,1.9-1.2s0-1.7-0.6-2.1c-0.4-0.3-0.9-0.4-1.4-0.5c-0.4,0-0.8,0-1.1,0.2
		c-0.9,0.4-1.3,1.7-0.9,2.6s1.5,1.5,2.5,1.5"/>
	<path class="st5" d="M337.8,238.5c0,0,0.2,0,0.6-0.2c0.3-0.1,0.7-0.5,0.9-1c0.2-0.5,0.1-1.2-0.3-1.6c-0.2-0.2-0.5-0.4-0.8-0.5
		s-0.7-0.1-1.1-0.1c-0.3,0-0.6,0.1-0.8,0.3c-0.2,0.2-0.4,0.5-0.4,0.8c-0.1,0.3,0,0.6,0,0.9c0.1,0.3,0.3,0.5,0.5,0.7
		c0.4,0.4,0.9,0.6,1.2,0.8c0.3,0.1,0.6,0.2,0.6,0.2s-0.2,0.1-0.6,0c-0.4,0-1-0.1-1.5-0.5c-0.3-0.2-0.6-0.5-0.8-0.9
		c-0.2-0.4-0.3-0.9-0.2-1.3c0.1-0.5,0.2-1,0.6-1.4s0.9-0.6,1.4-0.7c0.5,0,1,0,1.4,0.2c0.5,0.1,0.9,0.4,1.2,0.8
		c0.6,0.8,0.5,1.8,0.1,2.5c-0.4,0.6-1,0.8-1.4,0.9c-0.2,0-0.4,0-0.5,0C337.9,238.5,337.8,238.5,337.8,238.5z"/>
</g>
<g>
	<path class="st4" d="M325.8,270.5c0.8,0,1.6-0.5,1.9-1.2c0.3-0.7,0-1.7-0.6-2.1c-0.4-0.3-0.9-0.4-1.4-0.5c-0.4,0-0.8,0-1.1,0.2
		c-0.9,0.4-1.3,1.7-0.9,2.6c0.4,0.9,1.5,1.5,2.5,1.5"/>
	<path class="st5" d="M325.8,270.5c0,0,0.2,0,0.6-0.2c0.3-0.1,0.7-0.5,0.9-1c0.2-0.5,0.1-1.2-0.3-1.6c-0.2-0.2-0.5-0.4-0.8-0.5
		c-0.3-0.1-0.7-0.1-1.1-0.1c-0.3,0-0.6,0.1-0.8,0.3s-0.4,0.5-0.4,0.8c-0.1,0.3,0,0.6,0,0.9c0.1,0.3,0.3,0.5,0.5,0.7
		c0.4,0.4,0.9,0.6,1.2,0.8c0.3,0.1,0.6,0.2,0.6,0.2s-0.2,0.1-0.6,0c-0.4,0-1-0.1-1.5-0.5c-0.3-0.2-0.6-0.5-0.8-0.9s-0.3-0.9-0.2-1.3
		c0.1-0.5,0.2-1,0.6-1.4c0.4-0.4,0.9-0.6,1.4-0.7c0.5,0,1,0,1.4,0.2c0.5,0.1,0.9,0.4,1.2,0.8c0.6,0.8,0.5,1.8,0.1,2.5
		c-0.4,0.6-1,0.8-1.4,0.9c-0.2,0-0.4,0-0.5,0C325.9,270.5,325.8,270.5,325.8,270.5z"/>
</g>
<g>
	<path class="st4" d="M319.8,305.5c0.8,0,1.6-0.5,1.9-1.2c0.3-0.7,0-1.7-0.6-2.1c-0.4-0.3-0.9-0.4-1.4-0.5c-0.4,0-0.8,0-1.1,0.2
		c-0.9,0.4-1.3,1.7-0.9,2.6c0.4,0.9,1.5,1.5,2.5,1.5"/>
	<path class="st5" d="M319.8,305.5c0,0,0.2,0,0.6-0.2c0.3-0.1,0.7-0.5,0.9-1c0.2-0.5,0.1-1.2-0.3-1.6c-0.2-0.2-0.5-0.4-0.8-0.5
		c-0.3-0.1-0.7-0.1-1.1-0.1c-0.3,0-0.6,0.1-0.8,0.3s-0.4,0.5-0.4,0.8c-0.1,0.3,0,0.6,0,0.9c0.1,0.3,0.3,0.5,0.5,0.7
		c0.4,0.4,0.9,0.6,1.2,0.8c0.3,0.1,0.6,0.2,0.6,0.2s-0.2,0.1-0.6,0c-0.4,0-1-0.1-1.5-0.5c-0.3-0.2-0.6-0.5-0.8-0.9s-0.3-0.9-0.2-1.3
		c0.1-0.5,0.2-1,0.6-1.4c0.4-0.4,0.9-0.6,1.4-0.7c0.5,0,1,0,1.4,0.2c0.5,0.1,0.9,0.4,1.2,0.8c0.6,0.8,0.5,1.8,0.1,2.5
		c-0.4,0.6-1,0.8-1.4,0.9c-0.2,0-0.4,0-0.5,0C319.9,305.5,319.8,305.5,319.8,305.5z"/>
</g>
<g>
	<path class="st4" d="M298.8,266.5c0.8,0,1.6-0.5,1.9-1.2c0.3-0.7,0-1.7-0.6-2.1c-0.4-0.3-0.9-0.4-1.4-0.5c-0.4,0-0.8,0-1.1,0.2
		c-0.9,0.4-1.3,1.7-0.9,2.6c0.4,0.9,1.5,1.5,2.5,1.5"/>
	<path class="st5" d="M298.8,266.5c0,0,0.2,0,0.6-0.2c0.3-0.1,0.7-0.5,0.9-1c0.2-0.5,0.1-1.2-0.3-1.6c-0.2-0.2-0.5-0.4-0.8-0.5
		c-0.3-0.1-0.7-0.1-1.1-0.1c-0.3,0-0.6,0.1-0.8,0.3s-0.4,0.5-0.4,0.8c-0.1,0.3,0,0.6,0,0.9c0.1,0.3,0.3,0.5,0.5,0.7
		c0.4,0.4,0.9,0.6,1.2,0.8c0.3,0.1,0.6,0.2,0.6,0.2s-0.2,0.1-0.6,0c-0.4,0-1-0.1-1.5-0.5c-0.3-0.2-0.6-0.5-0.8-0.9s-0.3-0.9-0.2-1.3
		c0.1-0.5,0.2-1,0.6-1.4c0.4-0.4,0.9-0.6,1.4-0.7c0.5,0,1,0,1.4,0.2c0.5,0.1,0.9,0.4,1.2,0.8c0.6,0.8,0.5,1.8,0.1,2.5
		c-0.4,0.6-1,0.8-1.4,0.9c-0.2,0-0.4,0-0.5,0C298.8,266.5,298.8,266.5,298.8,266.5z"/>
</g>
<g>
	<path class="st4" d="M305.8,234.5c0.8,0,1.6-0.5,1.9-1.2s0-1.7-0.6-2.1c-0.4-0.3-0.9-0.4-1.4-0.5c-0.4,0-0.8,0-1.1,0.2
		c-0.9,0.4-1.3,1.7-0.9,2.6c0.4,0.9,1.5,1.5,2.5,1.5"/>
	<path class="st5" d="M305.8,234.5c0,0,0.2,0,0.6-0.2c0.3-0.1,0.7-0.5,0.9-1c0.2-0.5,0.1-1.2-0.3-1.6c-0.2-0.2-0.5-0.4-0.8-0.5
		c-0.3-0.1-0.7-0.1-1.1-0.1c-0.3,0-0.6,0.1-0.8,0.3s-0.4,0.5-0.4,0.8c-0.1,0.3,0,0.6,0,0.9c0.1,0.3,0.3,0.5,0.5,0.7
		c0.4,0.4,0.9,0.6,1.2,0.8c0.3,0.1,0.6,0.2,0.6,0.2s-0.2,0.1-0.6,0c-0.4,0-1-0.1-1.5-0.5c-0.3-0.2-0.6-0.5-0.8-0.9s-0.3-0.9-0.2-1.3
		c0.1-0.5,0.2-1,0.6-1.4c0.4-0.4,0.9-0.6,1.4-0.7c0.5,0,1,0,1.4,0.2c0.5,0.1,0.9,0.4,1.2,0.8c0.6,0.8,0.5,1.8,0.1,2.5
		c-0.4,0.6-1,0.8-1.4,0.9c-0.2,0-0.4,0-0.5,0C305.8,234.5,305.8,234.5,305.8,234.5z"/>
</g>
<g>
	<path class="st4" d="M296.8,298.5c0.8,0,1.6-0.5,1.9-1.2c0.3-0.7,0-1.7-0.6-2.1c-0.4-0.3-0.9-0.4-1.4-0.5c-0.4,0-0.8,0-1.1,0.2
		c-0.9,0.4-1.3,1.7-0.9,2.6c0.4,0.9,1.5,1.5,2.5,1.5"/>
	<path class="st5" d="M296.8,298.5c0,0,0.2,0,0.6-0.2c0.3-0.1,0.7-0.5,0.9-1c0.2-0.5,0.1-1.2-0.3-1.6c-0.2-0.2-0.5-0.4-0.8-0.5
		c-0.3-0.1-0.7-0.1-1.1-0.1c-0.3,0-0.6,0.1-0.8,0.3s-0.4,0.5-0.4,0.8c-0.1,0.3,0,0.6,0,0.9c0.1,0.3,0.3,0.5,0.5,0.7
		c0.4,0.4,0.9,0.6,1.2,0.8c0.3,0.1,0.6,0.2,0.6,0.2s-0.2,0.1-0.6,0c-0.4,0-1-0.1-1.5-0.5c-0.3-0.2-0.6-0.5-0.8-0.9s-0.3-0.9-0.2-1.3
		c0.1-0.5,0.2-1,0.6-1.4c0.4-0.4,0.9-0.6,1.4-0.7c0.5,0,1,0,1.4,0.2c0.5,0.1,0.9,0.4,1.2,0.8c0.6,0.8,0.5,1.8,0.1,2.5
		c-0.4,0.6-1,0.8-1.4,0.9c-0.2,0-0.4,0-0.5,0C296.8,298.5,296.8,298.5,296.8,298.5z"/>
</g>
<g>
	<path d="M364.8,370.6c1,0.1,2,0.8,2.4,1.9l-0.5-0.2c0.2-0.1,0.4-0.2,0.6-0.2s0.4,0,0.5,0.1c0.3,0.1,0.6,0.4,0.7,0.5
		c0.2,0.2,0.4,0.3,0.5,0.3s0.1,0,0.2,0h0.4c0.1,0,0.2,0,0.2,0c0.1,0,0.1,0,0.2,0c0.2,0,0.3,0,0.5,0.1c0.3,0.1,0.6,0.2,0.8,0.4
		c0.5,0.3,0.8,0.9,0.9,1.4h-0.1c-0.4-0.4-0.8-0.6-1.3-0.7c-0.2-0.1-0.4-0.1-0.6-0.2c-0.1,0-0.2,0-0.3,0c0,0-0.1,0-0.2,0
		s-0.1,0-0.2,0s-0.3,0-0.4,0s-0.4,0-0.5-0.1c-0.4-0.2-0.6-0.4-0.8-0.6c-0.2-0.2-0.3-0.4-0.5-0.5s-0.3-0.1-0.4-0.1l-0.4,0.2l-0.1-0.4
		C366.5,371.7,365.8,370.9,364.8,370.6L364.8,370.6z"/>
</g>
<g>
	<path class="st6" d="M364.6,375.7c0,0,0.3-0.1,0.5-0.3c0.1-0.1,0.2-0.3,0.3-0.4c0.1-0.2,0.2-0.3,0.3-0.5c0.1-0.1,0.1-0.2,0.1-0.3
		c0-0.1,0.1-0.2,0.1-0.3c0.1-0.2,0.1-0.4,0.2-0.6c0.1-0.4,0.3-0.6,0.3-0.6s0.2,0.2,0.3,0.6c0.1,0.2,0.1,0.4,0.1,0.7
		c0,0.1,0,0.3,0,0.4s-0.1,0.3-0.1,0.4c-0.2,0.3-0.3,0.6-0.6,0.7c-0.2,0.2-0.5,0.3-0.7,0.3C364.9,376,364.6,375.7,364.6,375.7z"/>
</g>
<g>
	<path class="st6" d="M368.3,376.8c0,0,0-0.2,0-0.5s0-0.6,0.1-0.8c0.1-0.3,0.2-0.6,0.3-0.8c0.1-0.2,0.3-0.4,0.3-0.4s0.2,0.2,0.3,0.4
		c0.1,0.3,0.1,0.7,0.1,1c-0.1,0.4-0.3,0.7-0.6,0.8C368.6,376.8,368.3,376.8,368.3,376.8z"/>
</g>
<g>
	<path class="st6" d="M375,370c0,0,0.2,0.2,0.4,0.5c0.2,0.3,0.2,0.9,0.1,1.3c-0.1,0.5-0.5,0.9-0.8,1.1s-0.6,0.2-0.6,0.2
		s0-0.3,0.1-0.6c0.1-0.3,0.2-0.7,0.3-1c0.1-0.4,0.2-0.7,0.3-1C374.9,370.3,375,370,375,370z"/>
</g>
<g>
	<path class="st4" d="M381.9,331.6c-2.9,4.4-5.7,8.8-8.6,13.1c-0.4,0.6-0.8,1.2-0.8,1.9c0,0.6,0.4,1.2,0.7,1.8
		c4.1,6.5,8.8,12.6,14,18.3c2.2,2.5,4.7,4.9,7.7,6.4s6.7,1.8,9.6,0.1c2.9-1.7,4.8-5.3,8.1-5.7c1.1-0.1,2.4,0.1,3.2-0.8
		c0.7-0.8,0.3-2.1-0.5-2.8c-0.8-0.7-1.9-1-2.9-1.3c-9.1-2.7-16.3-9.5-23.1-16.1c-2.2-2.1-4.4-4.3-5.9-7c-1.4-2.7-2-6-0.7-8.8"/>
	<path d="M381.9,331.6c0,0-1.1,1.7-2.9,4.7c-0.9,1.5-2.1,3.3-3.4,5.4c-0.7,1-1.4,2.1-2.1,3.3c-0.4,0.6-0.7,1.2-0.6,1.7
		c0.1,0.6,0.5,1.2,0.9,1.8c1.6,2.5,3.5,5.2,5.6,8c2.1,2.7,4.4,5.6,6.9,8.4s5.1,5.8,8.5,7.6c1.7,0.9,3.6,1.4,5.6,1.3
		c1,0,1.9-0.2,2.8-0.6c0.9-0.3,1.7-0.9,2.4-1.5c1.5-1.3,2.8-2.9,4.7-3.9c0.5-0.3,1-0.4,1.5-0.6c0.5-0.1,1.1-0.2,1.6-0.2s1,0,1.4-0.2
		c0.4-0.1,0.7-0.4,0.9-0.7c0.3-0.7-0.1-1.7-0.8-2.2c-0.7-0.5-1.7-0.8-2.6-1.1c-1.9-0.6-3.7-1.3-5.4-2.2c-3.4-1.7-6.4-3.9-9.1-6.1
		s-5.1-4.5-7.2-6.6c-2.2-2.1-4.2-4-5.7-6s-2.4-4-2.7-5.7c-0.3-1.8-0.2-3.2,0.1-4.1c0.1-0.5,0.2-0.8,0.3-1c0.1-0.2,0.1-0.3,0.1-0.3
		h0.1c0,0,0,0.1-0.1,0.3c-0.1,0.2-0.2,0.6-0.3,1c-0.2,0.9-0.4,2.3,0,4c0.3,1.7,1.2,3.7,2.8,5.6c1.5,1.9,3.6,3.8,5.7,5.9
		c2.2,2.1,4.6,4.3,7.3,6.5c2.7,2.2,5.7,4.3,9,6c1.7,0.8,3.4,1.6,5.3,2.1c0.9,0.3,1.9,0.5,2.8,1.1s1.5,1.8,1.1,3
		c-0.2,0.6-0.7,1-1.3,1.2c-0.5,0.2-1.1,0.2-1.6,0.2c-1,0-1.9,0.2-2.7,0.7c-1.7,0.9-2.9,2.6-4.5,3.9c-0.8,0.7-1.7,1.3-2.7,1.7
		c-1,0.4-2,0.6-3.1,0.7c-2.1,0.1-4.2-0.4-6-1.3c-3.7-1.9-6.4-5-8.9-7.7c-2.5-2.9-4.8-5.7-6.9-8.5s-3.9-5.5-5.5-8.1
		c-0.4-0.6-0.9-1.3-1-2.2c-0.1-0.9,0.4-1.6,0.8-2.2c0.8-1.1,1.5-2.2,2.2-3.2c1.4-2,2.6-3.8,3.6-5.3
		C380.7,333.2,381.9,331.6,381.9,331.6L381.9,331.6z"/>
</g>
<g>
	<path d="M367.6,372.1c0,0,0.2-0.2,0.6-0.5s1.1-0.6,1.9-0.9s1.8-0.6,2.8-0.9c0.5-0.2,1-0.3,1.6-0.5c0.5-0.2,1.1-0.4,1.6-0.6
		c0.3-0.1,0.5-0.2,0.7-0.3c0.2-0.1,0.5-0.3,0.7-0.4c0.5-0.3,0.9-0.6,1.3-0.9c0.9-0.6,1.7-1.1,2.4-1.6c1.4-1,2.3-1.7,2.3-1.7l0.1,0.1
		c0,0-0.7,0.9-1.9,2.1c-0.6,0.6-1.4,1.3-2.2,1.9c-0.4,0.3-0.9,0.6-1.4,0.9c-0.2,0.1-0.5,0.3-0.8,0.4s-0.6,0.3-0.8,0.3
		c-0.6,0.2-1.1,0.3-1.7,0.4c-0.5,0.1-1.1,0.2-1.6,0.4c-1,0.2-2,0.4-2.8,0.6s-1.5,0.4-1.9,0.7C367.8,372,367.6,372.1,367.6,372.1
		L367.6,372.1z"/>
</g>
<path class="st7" d="M269,304.9c-0.1-1.1-0.2-2.2-0.6-3.3c-0.4-1.1-1.1-2-1.7-2.9c-0.7-0.9-1.3-1.8-2.1-2.6
	c-0.7-0.9-1.6-1.6-2.6-2.2c-1-0.5-2.1-0.8-3.2-1.1c-2.2-0.6-4.4-1.1-6.6-1.2c-1-0.1-2.1-0.3-2.8-0.9c-0.2-0.1-0.3-0.4-0.6-0.6
	c-0.1-0.1-0.3-0.3-0.5-0.3c-0.2-0.1-0.4,0-0.6,0c-0.7,0.2-0.6,0.2-1-0.2c-1.3-1.9-3.3-3.2-5.3-4.2s-4.1-1.6-6.3-2.2l-6.4-1.6
	c-1.1-0.2-2.2-0.5-3.2-0.8s-1.9-0.8-2.9-1.3c-1.9-1.1-4.1-2-6.3-2.4c-1.1-0.2-2.3-0.3-3.5,0.1c-1.2,0.3-2.3,1.2-2.7,2.4
	c-0.5,1.3,0.2,2.7,1,3.5c0.9,0.8,1.8,1.4,2.8,2c2,1.1,4.1,1.9,6.3,2.4c0.6,0.1,1.2,0.2,1.7,0.3c0.6,0,1.1,0.1,1.5,0.3
	c0.3,0.2,0.6,0.6,0.5,0.9c-0.1,0.3-0.6,0.6-1,0.8c-0.9,0.4-2,0.3-3.2,0.6c-0.5,0.2-1.1,0.5-1.5,1c-0.3,0.3-0.5,0.7-0.6,1.2
	c-0.5-0.3-1.1-0.6-1.7-0.9c-0.5-0.1-0.9-0.3-1.3-0.4c-0.4-0.1-0.9-0.2-1.3-0.2c-0.5,0-0.9,0-1.4,0.1c-0.5,0.1-0.9,0.3-1.3,0.5
	c-0.4,0.3-0.8,0.5-1.1,0.9c-0.3,0.4-0.5,0.7-0.7,1.2c-1.5,0.4-2.9,1.3-3.8,2.5c-0.3,0.4-0.5,0.8-0.6,1.2c-0.1,0.5-0.1,1,0.2,1.4
	c0.6,0.8,1.5,1,2.2,1.2c1.6,0.4,3.1,0.5,4.7,0.7c1.6,0.1,3.1,0.3,4.6,0.7c3.1,0.8,5.9,2.1,8.7,3.5c2.9,1.3,5.7,2.8,8.8,3.5
	c0.8,0.2,1.6,0.3,2.4,0.2c0.9-0.2,1.5-0.6,2.3-0.6c0.7,0,1.5,0.1,2.3,0.1l2.4,0.1c1.5,0.1,3.1,0,4.5,0.7c0.7,0.3,1.5,0.5,2.3,0.5
	c0.9,0,1.6-0.2,2.4-0.2c1.5-0.1,3.1,0.1,4.6,0.4c1.6,0.3,3,0.8,4.5,1.4c1.4,0.5,2.9,1.2,4.3,1.8l4.3,1.9l-4.8-2.3
	c-1.4-0.7-2.8-1.3-4.3-1.9c-1.5-0.6-3-1.2-4.5-1.5c-1.5-0.3-3.1-0.5-4.7-0.4c-0.7,0.1-1.5,0.2-2.3,0.2c-0.8,0.1-1.5-0.1-2.2-0.5
	c-1.5-0.8-3.2-0.7-4.7-0.8l-2.3-0.1c-0.8-0.1-1.6-0.2-2.4-0.1c-0.8,0.1-1.6,0.5-2.3,0.6c-0.7,0.1-1.5,0-2.2-0.2
	c-3-0.8-5.8-2.2-8.6-3.6c-2.7-1.4-5.6-2.8-8.7-3.6c-1.6-0.4-3.1-0.6-4.7-0.8c-1.6-0.2-3.1-0.3-4.6-0.7c-0.7-0.2-1.4-0.5-1.8-1
	c-0.4-0.5-0.1-1.2,0.3-1.8c0.9-1.1,2.2-2,3.7-2.3h0.2l0.1-0.2c0.2-0.7,0.7-1.3,1.4-1.7c0.3-0.2,0.7-0.3,1.1-0.4
	c0.4-0.1,0.8-0.1,1.2-0.1c0.4,0,0.8,0.1,1.2,0.2c0.4,0.1,0.8,0.2,1.2,0.4c0.7,0.4,1.5,0.8,2.2,1.2l0.9,0.5L218,293l0.2-0.1
	c-0.1,0-0.1-0.1-0.2-0.1c0-0.7,0.8-1.4,1.6-1.7c1-0.3,2.1-0.2,3.3-0.6c0.3-0.1,0.5-0.3,0.8-0.5c0.2-0.2,0.5-0.5,0.6-0.9
	c0.2-0.8-0.3-1.5-0.9-1.8c-0.6-0.3-1.2-0.3-1.7-0.4c-0.6-0.1-1.1-0.2-1.6-0.3c-2.1-0.5-4.1-1.3-6-2.4c-1-0.6-1.9-1.2-2.6-1.9
	c-0.4-0.4-0.7-0.8-0.8-1.2c-0.1-0.3-0.1-0.4-0.1-0.7c0-0.1,0-0.4,0.1-0.6c0.3-0.8,1.2-1.5,2.1-1.8c0.9-0.3,2-0.2,3,0
	c2.1,0.4,4.1,1.2,6,2.3c1,0.6,2,1.1,3.1,1.4c1,0.3,2.1,0.6,3.2,0.8l6.4,1.6c2.1,0.5,4.2,1.2,6.2,2.1c1.9,0.9,3.7,2.2,5,3.9
	c0.2,0.3,0.4,0.6,0.9,0.7s0.8-0.1,1-0.1s0.2,0,0.4,0.1c0.2,0.1,0.4,0.4,0.6,0.6c1,0.9,2.3,1,3.4,1.1c2.2,0.1,4.4,0.6,6.5,1.1
	c1.1,0.2,2.2,0.5,3.1,1c0.9,0.5,1.8,1.2,2.5,2c0.8,0.7,1.4,1.6,2.1,2.5c0.6,0.8,1.3,1.7,1.7,2.7c0.4,1,0.5,2.1,0.7,3.2l0.5,3.3
	l1,6.5h0.1l-0.8-6.6L269,304.9z"/>
<path d="M209.1,293.7c-0.1,0-0.2,0.1-0.3,0.1c0,0,0,0.1,0,0.1L209.1,293.7z"/>
<path d="M218,293l0.2-0.1c-0.1,0-0.1-0.1-0.2-0.1C218,292.8,218,292.9,218,293L218,293z"/>
<path d="M217.7,293.3l0.3-0.3l0,0c0-0.1,0-0.2,0-0.2c-0.1-0.1-0.2-0.1-0.4-0.2C217.6,292.8,217.6,293,217.7,293.3z"/>
<g>
	<path class="st6" d="M219.4,285.4c0,0,0.3-0.1,0.6-0.4c0.1-0.1,0.3-0.3,0.4-0.5c0.1-0.2,0.3-0.4,0.4-0.6c0.1-0.1,0.1-0.2,0.2-0.4
		c0-0.1,0.1-0.2,0.1-0.4c0.1-0.2,0.2-0.5,0.3-0.7c0.2-0.4,0.3-0.7,0.3-0.7s0.2,0.3,0.2,0.8c0,0.2,0.1,0.5,0,0.8c0,0.2,0,0.3-0.1,0.5
		c0,0.2-0.1,0.3-0.2,0.5c-0.2,0.3-0.4,0.6-0.7,0.8c-0.3,0.2-0.6,0.3-0.8,0.4C219.7,285.7,219.3,285.4,219.4,285.4z"/>
</g>
<g>
	<path class="st6" d="M224.7,287.5c0,0,0.1-0.3,0.3-0.6s0.6-0.7,1.1-1s1-0.4,1.4-0.5s0.7,0,0.7,0s-0.2,0.2-0.5,0.5s-0.7,0.6-1.1,0.8
		c-0.4,0.2-0.9,0.5-1.3,0.6C225.1,287.5,224.7,287.5,224.7,287.5z"/>
</g>
<g>
	<path class="st6" d="M250.3,293c0,0,0,0.3,0.3,0.5c0.3,0.3,0.8,0.6,1.3,1.1s1.1,1.1,1.6,1.9c0.2,0.4,0.5,0.8,0.7,1.2
		c0.2,0.4,0.4,0.9,0.6,1.3c0.3,0.9,0.6,1.8,0.7,2.7c0.1,0.9,0.1,1.7,0.1,2.4c-0.1,0.7-0.3,1.3-0.7,1.6c-0.3,0.3-0.6,0.3-0.6,0.3
		s0,0,0.1-0.1s0.2-0.2,0.3-0.3c0.2-0.3,0.3-0.9,0.2-1.5c-0.1-1.4-0.5-3.1-1.1-4.8c-0.2-0.4-0.3-0.8-0.5-1.2
		c-0.2-0.4-0.4-0.8-0.6-1.2c-0.2-0.4-0.4-0.7-0.6-1c-0.2-0.3-0.4-0.6-0.6-0.9c-0.4-0.6-0.8-1-1-1.4C250.1,293.3,250.3,293,250.3,293
		z"/>
</g>
<g>
	<path class="st6" d="M234.9,295.8c0,0,0.5-0.2,1.3-0.3c0.8-0.2,1.8-0.4,2.8-0.6c1-0.2,2-0.4,2.8-0.6s1.3-0.2,1.3-0.2
		s-0.4,0.4-1.1,0.8c-0.7,0.4-1.7,0.8-2.7,1c-1.1,0.2-2.1,0.3-2.9,0.2C235.4,296,234.9,295.8,234.9,295.8z"/>
</g>
<g>
	<path class="st6" d="M235.1,297c0,0,0.2-0.1,0.5-0.2c0.4-0.1,0.9-0.1,1.6,0.1c0.3,0.1,0.6,0.2,1,0.4c0.3,0.2,0.7,0.3,1,0.5
		c0.7,0.4,1.4,0.9,2,1.4c0.6,0.6,1.2,1.1,1.7,1.8c0.5,0.6,0.9,1.2,1.2,1.8c0.2,0.6,0.2,1.2,0.2,1.6c0,0.4-0.1,0.6-0.1,0.6
		s0-0.2-0.1-0.6c-0.1-0.3-0.2-0.8-0.5-1.3s-0.8-1-1.3-1.5s-1.1-1.1-1.7-1.6c-0.6-0.5-1.2-1-1.8-1.5c-0.6-0.4-1.2-0.8-1.7-1.1
		s-1-0.4-1.3-0.4C235.4,297,235.1,297,235.1,297z"/>
</g>
<g>
	<path class="st4" d="M257.4,292.6c3.7-1.7,7.8-3.5,11.8-2.7c2.8,0.6,5.2,2.3,7.5,4.1c0.9,0.7,1.8,1.5,2.4,2.5
		c1.7,2.8,0.3,6.4-1.1,9.4c-0.7,1.4-1.3,2.8-2,4.2c-0.2,0.5-0.5,1.1-0.5,1.6c0,0.8,0.3,1.5,0.5,2.3c0.6,2.6-1,5.1-2.2,7.5
		c-1.2,2.4-2.1,5.1-4.5,6.4c-3.5,1.9-8.2-0.5-11.6,1.5c3.9-2.5,7.5-5.6,10.5-9.1c0.6-0.7,1.2-1.5,1.5-2.3c1.1-2.7-0.5-5.6-1.5-8.3
		c-1.3-3.5-1.9-7.3-3.4-10.7c-1.6-3.4-4.6-6.5-8.4-6.6c0.8-1,2-1.5,3.3-1.4"/>
	<path d="M257.3,292.6c1.3-0.6,2.7-1.2,4.1-1.7c1.4-0.5,2.8-0.9,4.3-1.1c1.5-0.2,3-0.1,4.4,0.3s2.8,1.1,4,1.9s2.4,1.7,3.5,2.7
		c0.6,0.5,1.1,1,1.5,1.7c0.4,0.6,0.7,1.4,0.8,2.2c0.2,1.5-0.1,3-0.5,4.5c-0.5,1.4-1.1,2.8-1.7,4.1c-0.6,1.3-1.3,2.7-1.8,4
		c-0.2,0.7-0.1,1.3,0.1,2c0.2,0.7,0.4,1.5,0.4,2.3c0,1.6-0.6,3-1.3,4.3c-0.7,1.3-1.3,2.6-1.9,4c-0.6,1.3-1.3,2.7-2.5,3.8
		c-0.6,0.5-1.3,1-2,1.2c-0.8,0.3-1.5,0.4-2.3,0.5c-1.5,0.1-3-0.1-4.5-0.1c-0.7,0-1.4,0-2.1,0.1c-0.7,0.1-1.3,0.3-1.9,0.7l-0.5-0.8
		c3.3-2.1,6.4-4.7,9-7.6c0.7-0.7,1.3-1.5,1.9-2.2c0.3-0.4,0.5-0.8,0.7-1.2l0.1-0.2v-0.1v-0.1l0.1-0.4c0.1-0.2,0.1-0.4,0.1-0.6
		c0.1-0.9,0-1.8-0.3-2.8c-0.2-0.9-0.6-1.8-1-2.8c-0.4-0.9-0.7-1.9-1-2.8c-0.3-1-0.6-1.9-0.8-2.9c-0.5-1.9-1-3.9-1.7-5.7
		c-0.2-0.5-0.4-0.9-0.6-1.3c-0.2-0.4-0.5-0.9-0.7-1.3c-0.5-0.8-1.1-1.6-1.9-2.3c-1.4-1.3-3.2-2.3-5.2-2.4h-0.3l0.2-0.2
		c0.8-1,2.1-1.5,3.4-1.4v0.1c-1.2-0.1-2.5,0.5-3.2,1.4l-0.1-0.2c2.1,0,4,0.9,5.5,2.3c0.8,0.7,1.4,1.5,2,2.3c0.3,0.4,0.6,0.9,0.8,1.3
		c0.2,0.4,0.5,0.9,0.7,1.4c0.8,1.9,1.3,3.8,1.9,5.7c0.3,1,0.5,1.9,0.9,2.8c0.3,0.9,0.7,1.9,1.1,2.8c0.4,0.9,0.8,1.9,1,2.9
		c0.3,1,0.4,2.1,0.3,3.2c0,0.3-0.1,0.6-0.2,0.8l-0.1,0.4v0.1v0.1l-0.1,0.2c-0.2,0.5-0.5,0.9-0.8,1.4c-0.6,0.8-1.3,1.6-2,2.3
		c-2.7,3-5.9,5.6-9.3,7.7l-0.5-0.8c0.7-0.4,1.5-0.6,2.2-0.7c0.8-0.1,1.5-0.1,2.3-0.1c1.5,0,3,0.2,4.4,0.1c0.7,0,1.4-0.2,2-0.4
		c0.7-0.3,1.2-0.6,1.8-1.1c1-0.9,1.7-2.2,2.4-3.5c0.6-1.3,1.3-2.7,2-4c0.6-1.3,1.2-2.7,1.3-4.1c0-0.7-0.1-1.4-0.4-2.1
		c-0.1-0.4-0.2-0.7-0.3-1.1c0-0.4,0-0.8,0.2-1.2c0.6-1.4,1.2-2.7,1.9-4.1c0.6-1.3,1.3-2.7,1.7-4c0.5-1.4,0.8-2.8,0.6-4.2
		c-0.1-0.7-0.3-1.4-0.7-2c-0.4-0.6-0.9-1.1-1.4-1.6c-1.1-1-2.3-1.9-3.5-2.7s-2.5-1.5-3.9-2c-1.4-0.4-2.9-0.5-4.3-0.4
		c-1.5,0.1-2.9,0.5-4.3,1C260.1,291.4,258.7,292,257.3,292.6L257.3,292.6z"/>
</g>
<g>
	<path d="M209.1,294c0,0,0.5,0.3,1.3,0.8s1.7,1.3,2.7,2.1c0.5,0.4,0.9,0.8,1.3,1.3c0.4,0.4,0.7,0.9,0.9,1.3c0.5,0.8,0.6,1.5,0.6,1.5
		l-0.1,0.1c0,0-0.5-0.4-1.2-1c-0.3-0.3-0.7-0.7-1.1-1.1c-0.4-0.4-0.7-0.9-1.1-1.4C210.9,295.7,209,294.1,209.1,294L209.1,294z"/>
</g>
<g>
	<path d="M218.2,293c0,0-0.1,0.2,0,0.5c0,0.3,0.3,0.7,0.5,1.1c0.5,0.9,1.1,2.2,1.8,3.4c0.3,0.6,0.7,1.2,1,1.8
		c0.3,0.6,0.5,1.2,0.6,1.7c0.3,1,0.4,1.7,0.4,1.7h-0.1c0,0-0.5-0.5-1-1.4c-0.3-0.5-0.6-1-0.9-1.6c-0.3-0.6-0.5-1.3-0.7-1.9
		c-0.5-1.3-1-2.6-1.4-3.6c-0.2-0.5-0.4-0.9-0.4-1.2C218,293.2,218.1,293,218.2,293L218.2,293z"/>
</g>
<g>
	<path d="M238.9,300.3l-4-1.5h0.2c-0.1,0.1,0,0.2,0.1,0.3l-0.2,0.3c-1-0.9-1.8-1.9-2.5-3c-0.2-0.3-0.3-0.6-0.5-0.8l-0.5-0.8
		l-0.2-0.4c-0.1-0.1-0.2-0.2-0.3-0.3c-0.2-0.2-0.4-0.4-0.7-0.5c-0.5-0.3-1.1-0.5-1.7-0.4h-0.5l-0.4,0.1c-0.3,0.1-0.5,0.2-0.7,0.3
		c-0.4,0.3-0.5,0.8-0.5,1.4c0.1,0.6,0.3,1.1,0.5,1.7c0.3,0.6,0.6,1.1,1,1.6s0.8,1.1,1.1,1.8c0.2,0.7,0.2,1.4,0.4,1.9s0.5,1,0.9,1.5
		c0.8,0.9,1.9,1.5,3,2.2s2.2,1.5,2.9,2.6l-0.1,0.1c-0.9-1-2-1.6-3.1-2.1c-1.2-0.6-2.4-1.2-3.4-2.2c-0.5-0.5-0.9-1.1-1.1-1.8
		c-0.2-0.7-0.2-1.4-0.4-1.9s-0.5-1-0.9-1.5c-0.4-0.6-0.7-1.1-1-1.8c-0.3-0.6-0.5-1.3-0.5-2c-0.1-0.7,0.2-1.6,0.9-2.1
		c0.3-0.2,0.7-0.3,1-0.4l0.5-0.1h0.5c0.7,0,1.4,0.2,2,0.6c0.3,0.2,0.6,0.4,0.8,0.7c0.1,0.2,0.2,0.2,0.3,0.4l0.2,0.4l0.5,0.9
		c0.1,0.3,0.3,0.6,0.5,0.8c0.6,1.1,1.4,2.1,2.3,3l0.8,0.8l-1-0.5c-0.3-0.2-0.3-0.5-0.1-0.7l0.1-0.1h0.1L238.9,300.3L238.9,300.3z"/>
</g>
<g>
	<path class="st6" d="M239,303.5c0,0-0.1-0.2-0.2-0.4c-0.1-0.2-0.2-0.4-0.3-0.7c-0.1-0.2-0.1-0.5-0.1-0.7s0-0.5,0-0.5s0.2,0,0.5,0.1
		s0.5,0.4,0.6,0.8c0.1,0.4,0.1,0.7-0.1,1C239.2,303.4,239,303.5,239,303.5z"/>
</g>
<g>
	<path class="st6" d="M231.4,302.1c0,0,0.1,0,0.2-0.1c0.1,0,0.2-0.1,0.4-0.1c0.3-0.1,0.6-0.2,0.8-0.4c0.3-0.1,0.6-0.3,0.8-0.4
		c0.3-0.2,0.5-0.3,0.5-0.3s0.1,0.3,0,0.6c0,0.2-0.2,0.4-0.3,0.5c-0.1,0.2-0.4,0.3-0.6,0.4c-0.2,0.1-0.5,0.2-0.7,0.2s-0.4,0-0.6-0.1
		C231.7,302.3,231.6,302.2,231.4,302.1C231.4,302.1,231.4,302.1,231.4,302.1z"/>
</g>
<g>
	<path d="M222.9,290.3c0,0,0.1,0,0.2,0c0.2,0,0.4,0.1,0.6,0.2c0.3,0.1,0.5,0.3,0.8,0.5s0.5,0.5,0.7,0.8c0.2,0.3,0.4,0.6,0.6,0.9
		c0.1,0.3,0.2,0.7,0.2,0.9c0,0.6-0.2,0.9-0.2,0.9h-0.1c0,0-0.3-0.3-0.5-0.8c-0.1-0.2-0.3-0.5-0.4-0.7c-0.1-0.3-0.2-0.6-0.3-0.9
		s-0.3-0.6-0.5-0.8s-0.4-0.5-0.5-0.6C223.2,290.4,222.9,290.4,222.9,290.3L222.9,290.3z"/>
</g>
<path class="st2" d="M347.9,189.5c-0.1,2-0.7,3.9-1.4,5.7c-0.1,0.4-0.3,0.9-0.7,1c-0.4,0.1-0.8,0-1.1-0.3c-0.3-0.3-0.4-0.7-0.5-1.1
	c-0.4-1.6-0.5-3.3-0.3-5c0.1-0.6,0.1-1.2,0.4-1.7c0.2-0.4,0.5-0.7,0.9-0.8c0.4-0.2,0.8-0.1,1.2,0.1c0.6,0.4,0.6,1.4,1.2,1.8"/>
<path class="st8" d="M348.3,188.4c0,3-1.6,7.7-2.5,10.6"/>
<g>
	<path d="M291.5,174.6c-1.2,2.2-1.6,4.9-1.1,7.4c1-1.5,2-3,3-4.4c-0.5,0.4-0.8,1.1-0.7,1.7c1.8-2.5,3.7-4.9,5.9-7.1
		c-0.3,0.7-0.6,1.3-0.9,2c3.1-3.5,6.9-6.3,11.1-8.3c-1.6,1.5-2.6,3.6-2.8,5.7c3.5-2.3,7.2-4.3,11-6c-1.2,0.2-2.6,0.6-2.7,1.8
		c2.1-0.9,4.2-1.9,6.3-3c-0.7,0.9-1.4,1.8-2,2.7c2.1-0.8,4.1-1.6,6.2-2.4c2.2-0.8,4.4-1.7,6.7-1.7c-1,1.6-1.8,3.3-2.1,5.1
		c1.6-0.5,3.2-0.8,4.8-1c1.2,2,2.5,4,3.9,6c0.2-0.3,0.1-0.8-0.2-1c1.7,2,3,4.2,4,6.6c1.5-3,2.1-6.5,1.8-9.8
		c-0.1-0.7-0.2-1.5-0.6-2.1c-0.3-0.4-0.6-0.8-1-1.1c-1.3-1.2-2.5-2.4-3.8-3.6c-1-0.9-1.9-1.8-3.1-2.5c-0.8-0.4-1.6-0.7-2.5-0.9
		c-5.4-1.4-11.2-1.7-16.7-0.9c0.3,0,0.5,0.2,0.6,0.5c-4.3,0.6-8.5,1.7-12.5,3.1c-1.3,1.5-3,2.6-4.9,3.3c-0.9,0.3-1.8,0.5-2.5,1
		c-1.1,0.7-1.8,1.8-2.5,2.9c-1.2,2-2.5,4-2.8,6.3"/>
	<path d="M291.5,174.6c-1.2,2.2-1.5,4.9-1,7.3l-0.1,0l3-4.4l0.2,0.1c-0.5,0.4-0.7,1-0.7,1.6l-0.2-0.1c1.8-2.5,3.7-4.9,5.9-7.2
		l0.6-0.6l-0.3,0.8l-0.8,2l-0.3-0.2c3.1-3.5,6.9-6.4,11.2-8.4l1.2-0.6l-1,0.9c-1.5,1.5-2.5,3.5-2.7,5.6l-0.4-0.2
		c3.5-2.3,7.2-4.3,11-6.1l0.2,0.5c-0.6,0.1-1.1,0.2-1.6,0.5c-0.5,0.2-0.8,0.6-0.9,1.1l-0.4-0.3l6.3-3l1.2-0.6l-0.8,1l-2,2.8
		l-0.4-0.5l6.3-2.5c2.1-0.8,4.3-1.7,6.7-1.7l0.7,0l-0.4,0.6c-1,1.5-1.7,3.2-2.1,5l-0.5-0.5c1.6-0.5,3.2-0.8,4.8-1.1l0.3,0l0.2,0.2
		l3.9,5.9l-0.7,0c0.1-0.1,0-0.4-0.1-0.5l0.6-0.6c1.7,2,3.1,4.3,4.1,6.7l-0.9,0c0.8-1.5,1.3-3.2,1.6-4.9c0.3-1.7,0.3-3.4,0.1-5.1
		c-0.1-0.8-0.4-1.5-1-2.1l-1.9-1.8l-1.9-1.8c-0.6-0.6-1.3-1.2-1.9-1.8c-0.7-0.5-1.4-1-2.1-1.3c-0.8-0.3-1.6-0.5-2.5-0.7
		c-1.7-0.4-3.4-0.7-5.2-0.9c-3.5-0.4-7-0.3-10.5,0.2l0-0.8c0.4,0.1,0.7,0.3,0.9,0.7l0.2,0.5l-0.5,0.1c-4.3,0.6-8.4,1.6-12.5,3
		l0.1-0.1c-1.1,1.2-2.5,2.2-4,2.9c-0.8,0.3-1.6,0.6-2.3,0.8c-0.8,0.2-1.5,0.6-2,1.1c-0.6,0.5-1,1.2-1.5,1.9
		c-0.4,0.7-0.9,1.4-1.3,2.1c-0.8,1.4-1.5,2.9-1.8,4.5l-0.1,0c0.2-1.6,0.9-3.2,1.7-4.6c0.4-0.7,0.8-1.4,1.2-2.1
		c0.4-0.7,0.9-1.4,1.5-2c0.6-0.6,1.4-1,2.1-1.3c0.8-0.3,1.5-0.5,2.3-0.8c1.4-0.7,2.7-1.6,3.8-2.8l0-0.1l0.1,0
		c4.1-1.5,8.3-2.6,12.6-3.2l-0.3,0.5c0-0.1-0.2-0.2-0.3-0.2l-2.7-0.3l2.7-0.4c3.5-0.6,7.1-0.7,10.7-0.3c1.8,0.2,3.5,0.5,5.3,0.9
		c0.9,0.2,1.7,0.4,2.6,0.8c0.9,0.3,1.7,0.8,2.4,1.4c0.7,0.6,1.4,1.2,2,1.8l1.9,1.8l1.9,1.9c0.3,0.3,0.7,0.7,0.9,1.2
		c0.2,0.5,0.3,0.9,0.4,1.4c0.5,3.6-0.2,7.3-1.8,10.6l-0.5,0.9l-0.4-1c-1-2.3-2.3-4.5-3.9-6.5l0.6-0.6c0.5,0.4,0.6,1.1,0.3,1.6
		l-0.4,0.6l-0.4-0.6l-3.9-6l0.4,0.2c-1.6,0.2-3.2,0.6-4.7,1l-0.6,0.2l0.1-0.6c0.4-1.9,1.1-3.7,2.2-5.3l0.3,0.6
		c-2.2,0-4.3,0.8-6.4,1.6l-6.4,2.4l-1.1,0.4l0.7-0.9l2-2.7l0.4,0.5l-6.3,3l-0.5,0.2l0.1-0.5c0-0.3,0.2-0.7,0.4-0.9
		c0.2-0.3,0.5-0.4,0.8-0.6c0.6-0.3,1.2-0.4,1.8-0.5l2.1-0.3l-1.9,0.9c-3.8,1.7-7.4,3.7-10.9,6l-0.4,0.3l0.1-0.5
		c0.2-2.2,1.3-4.3,2.9-5.9l0.2,0.4c-4.2,1.9-8,4.7-11.1,8.2l-0.7,0.8l0.4-0.9l0.9-2l0.2,0.2c-2.1,2.2-4.1,4.6-5.9,7.1l-0.2,0.3
		l0-0.3c0-0.7,0.2-1.4,0.7-1.8l0.6-0.6l-0.5,0.7l-3,4.4l-0.1,0.2l0-0.2C289.8,179.4,290.2,176.8,291.5,174.6L291.5,174.6z"/>
</g>
<path class="st9" d="M316.6,183c0.7-0.7,1.5-1.2,2.5-1.8c0.2-0.2,0.8-0.4,1.1-0.6c0.4-0.2,0.9-0.4,1.3-0.5c1.4-0.4,1.6-0.7,2.9-0.9
	c0.6-0.1,1.3-0.1,1.8-0.2c1.3-0.2,2.4,0.1,3.4,0.2c0.1,0,0.2,0.1,0.2,0.1c0,0,0,0.1-0.1,0.1c-0.8,0.8-1.8,1.6-2.9,2.4
	c-0.4,0.3-0.8,0.5-1.4,0.7c-0.6,0.3-1.3,0.5-1.9,0.7c-3.4,1-5.1,1-7.6,1.4c-0.1,0-0.2,0-0.3,0c0,0,0-0.1,0-0.2
	C315.9,184,316.3,183.5,316.6,183z"/>
<g>
	<path class="st10" d="M316.4,182.9c0,0,0.1-0.1,0.2-0.3c0.1-0.2,0.3-0.4,0.5-0.7c0.2-0.3,0.5-0.6,0.8-0.9c0.3-0.3,0.7-0.7,1.1-0.9
		c0.2-0.2,0.4-0.3,0.6-0.4c0.2-0.1,0.5-0.3,0.7-0.4c0.5-0.2,0.9-0.3,1.3-0.4c0.8-0.2,1.3-0.3,1.3-0.3l0,0c0,0-0.1,0.1-0.3,0.1
		c-0.2,0.1-0.5,0.2-0.9,0.3c-0.2,0.1-0.4,0.1-0.6,0.2c-0.2,0.1-0.4,0.2-0.6,0.3c-0.2,0.1-0.4,0.2-0.7,0.3c-0.2,0.1-0.4,0.2-0.7,0.4
		c-0.8,0.6-1.5,1.2-2,1.7c-0.2,0.3-0.4,0.5-0.5,0.6C316.5,182.8,316.4,182.9,316.4,182.9L316.4,182.9z"/>
</g>
<g>
	<path class="st10" d="M329.9,178.9c0,0,0.1,0.1,0.2,0.4c0.1,0.3,0.2,0.6,0.2,1c0,0.2,0,0.4,0,0.5c0,0.2,0,0.3-0.1,0.5
		c-0.1,0.3-0.2,0.4-0.2,0.4l0,0c0,0,0-0.2,0-0.5c0-0.1,0-0.3,0-0.4c0-0.2,0-0.3,0.1-0.5c0-0.3,0-0.7-0.1-0.9
		C330,179.1,329.9,178.9,329.9,178.9L329.9,178.9z"/>
</g>
<g>
	<path class="st10" d="M306.3,180.3c0,0,0.1,0.1,0.2,0.2c0.1,0.1,0.3,0.3,0.6,0.6c0.2,0.3,0.5,0.6,0.8,1.1c0.3,0.4,0.5,0.9,0.7,1.6
		c0.2,0.6,0.3,1.3,0.4,2c0.1,0.7,0.1,1.5,0.2,2.3s0,1.6,0,2.4s-0.2,1.7-0.3,2.5c-0.3,1.6-0.8,3.3-1.3,4.7c-0.3,0.7-0.5,1.4-0.6,2.1
		c0,0.2,0,0.3,0,0.5c0,0.1,0,0.3,0.1,0.5c0.1,0.3,0.3,0.6,0.4,0.8c0.4,0.5,0.8,0.8,1.3,0.9c0.5,0.1,0.9,0.1,1.2,0s0.6-0.2,0.7-0.3
		c0.1-0.1,0.1-0.1,0.2-0.1c0,0,0.1-0.1,0.1-0.1l0,0c0,0,0,0-0.1,0.1c0,0-0.1,0.1-0.1,0.2c-0.2,0.1-0.4,0.3-0.7,0.4
		c-0.3,0.1-0.8,0.2-1.3,0.1c-0.5-0.1-1.1-0.4-1.5-0.9c-0.2-0.3-0.4-0.6-0.5-0.9c0-0.2-0.1-0.4-0.1-0.5c0-0.2,0-0.4,0-0.6
		c0-0.8,0.3-1.5,0.6-2.2c0.5-1.5,1-3,1.4-4.7c0.2-0.8,0.3-1.6,0.4-2.5c0.1-0.8,0.1-1.6,0.1-2.4c0-0.8-0.1-1.5-0.2-2.2
		c-0.1-0.7-0.2-1.4-0.4-2c-0.2-0.6-0.4-1.1-0.7-1.5c-0.3-0.4-0.5-0.8-0.8-1.1c-0.2-0.3-0.4-0.5-0.5-0.6
		C306.4,180.4,306.3,180.4,306.3,180.3L306.3,180.3z"/>
</g>
<g>
	<path class="st10" d="M312.9,201.7C312.9,201.7,312.8,201.7,312.9,201.7c-0.2,0-0.2,0-0.3,0c-0.1,0-0.2-0.2-0.3-0.3
		c-0.1-0.2,0-0.4,0.2-0.5c0.2-0.2,0.3-0.3,0.6-0.3c0.2,0,0.5,0,0.7,0c0.3,0,0.5,0.1,0.7,0.1c0.2,0,0.5,0,0.7-0.1l0,0l0,0l0,0
		c0,0,0,0,0,0l0,0l0,0l0.1-0.1c0,0,0.1-0.1,0.1-0.1c0.1-0.1,0.1-0.2,0.2-0.3c0.1-0.2,0.1-0.4,0-0.7c0-0.2-0.1-0.4-0.2-0.7
		c-0.1-0.2-0.2-0.4-0.3-0.5c-0.1-0.2-0.2-0.3-0.3-0.4s-0.2-0.2-0.3-0.2c-0.1-0.1-0.2-0.1-0.3-0.1c-0.1,0-0.1,0-0.1,0l0-0.1
		c0,0,0,0,0.1,0s0.1,0,0.3,0c0.2,0.1,0.6,0.2,0.9,0.5c0.1,0.2,0.3,0.3,0.4,0.6c0.1,0.2,0.2,0.5,0.2,0.7c0,0.3,0,0.6-0.1,0.8
		c0,0.1-0.1,0.2-0.2,0.4c-0.1,0-0.1,0.1-0.2,0.1l-0.1,0.1l0,0l0,0l0,0l0,0c-0.3,0.1-0.6,0.1-0.8,0s-0.5-0.1-0.7-0.2
		c-0.2-0.1-0.4-0.1-0.7-0.1c-0.2,0-0.4,0.1-0.5,0.2c-0.1,0.1-0.2,0.3-0.2,0.4c0,0.1,0.1,0.2,0.2,0.3
		C312.7,201.7,312.9,201.6,312.9,201.7L312.9,201.7z"/>
</g>
<g>
	<path class="st6" d="M312.8,212c0,0,0.2,0.1,0.5,0.1c0.1,0,0.4,0.1,0.6,0.1c0.2,0,0.5,0,0.8,0c0.3,0,0.6,0,0.9-0.1
		c0.3,0,0.7-0.1,1-0.2c0.4-0.1,0.7-0.2,1.1-0.4c0.4-0.2,0.7-0.3,1-0.5c0.3-0.2,0.7-0.5,0.9-0.7c0.3-0.3,0.6-0.5,0.8-0.8
		c0.2-0.3,0.5-0.6,0.7-0.9c0.2-0.3,0.4-0.5,0.5-0.8c0.3-0.5,0.6-1,0.7-1.3c0.2-0.3,0.2-0.5,0.2-0.5s0,0-0.1,0.2c0,0.1,0,0.2-0.1,0.4
		c-0.1,0.2-0.1,0.4-0.2,0.6c-0.1,0.2-0.2,0.5-0.4,0.8c-0.3,0.5-0.7,1.2-1.2,1.8c-0.3,0.3-0.5,0.6-0.8,0.9c-0.3,0.3-0.6,0.5-1,0.7
		c-0.3,0.2-0.7,0.4-1.1,0.6c-0.4,0.2-0.7,0.3-1.1,0.3c-0.7,0.2-1.4,0.2-2,0.2c-0.3,0-0.6-0.1-0.8-0.1c-0.2-0.1-0.5-0.1-0.6-0.2
		S313,212.1,312.8,212C312.9,212.1,312.8,212,312.8,212z"/>
</g>
<path d="M313.2,180c-0.3,0.5,1.2,1.8,1.8,1.5c0.5-0.3,8.7-6.5,9-6.7c0.6-0.3,1.2-0.2,1.8-0.1c2.2,0.3,3.9-0.1,6.1,0.1
	c-2.6-0.9-5.3-1.7-8-2.2c-0.2-0.1-1.8,0.7-2,0.7c-0.5,0.1-3.9,1.9-5.4,3.6C315.5,178,313.2,180,313.2,180z"/>
<path class="st11" d="M320.4,180.6c-0.7,0.8-0.5,2,0.4,2.6c0.8,0.4,1.9,0.4,2.9,0.1c0.2-0.1,0.4-0.1,0.5-0.2
	c0.2-0.1,0.5-0.3,0.7-0.5c0.3-0.4,0.4-0.4,0.5-0.9c0.1-0.4,0-0.8-0.1-1.1c-0.1-0.3-0.1-0.5-0.3-0.7c-0.3-0.3-0.9-0.4-1.5-0.4
	c-0.6,0.1-1.1,0.2-1.6,0.4c-0.5,0.2-0.9,0.4-1.4,0.5C320.5,180.4,320.4,180.5,320.4,180.6"/>
<path class="st9" d="M306.4,184.1c-0.7-0.3-1.4-0.7-2.3-0.8c-0.2,0-0.4-0.1-0.7-0.1c-0.3,0-0.8,0-1.1,0.1c-1,0.2-1.5,0.3-2.4,0.6
	c-0.4,0.2-0.9,0.3-1.3,0.5c-0.9,0.4-1.5,1-2.1,1.6c-0.1,0.1,0.2,0.1,0.2,0.2c0,0,0.1,0.1,0.1,0.1c0.9,0.4,1.4,0.7,2.5,0.8
	c0.4,0.1,0.7,0.1,1.2,0.1c0.5,0,1-0.1,1.5-0.2c2.6-0.5,3.7-1.1,5.5-1.8c0.1,0,0.1-0.1,0.2-0.1c0-0.1,0-0.1-0.1-0.1
	C307.1,184.6,306.8,184.4,306.4,184.1z"/>
<g>
	<path class="st10" d="M306.3,183.7c0,0-0.1-0.1-0.2-0.2c-0.1-0.1-0.3-0.3-0.6-0.4c-0.2-0.2-0.5-0.3-0.9-0.5
		c-0.3-0.2-0.7-0.3-1.1-0.5c-0.2-0.1-0.4-0.1-0.6-0.2c-0.2,0-0.4-0.1-0.6-0.1c-0.2,0-0.4,0-0.6,0c-0.2,0-0.4,0-0.5,0
		c-0.7,0.1-1.1,0.1-1.1,0.1l0,0c0,0,0.1,0,0.3-0.1c0.2,0,0.5-0.1,0.8-0.2c0.3-0.1,0.7-0.1,1.1-0.1c0.2,0,0.4,0,0.6,0.1
		c0.2,0,0.4,0.1,0.6,0.2c0.4,0.2,0.7,0.3,1.1,0.5c0.3,0.2,0.6,0.4,0.8,0.6c0.2,0.2,0.4,0.3,0.5,0.5
		C306.3,183.6,306.3,183.7,306.3,183.7L306.3,183.7z"/>
</g>
<path class="st11" d="M302.4,182.9c-1.1,0.3-1.8,1.3-1.6,2.1c0.1,0.7,0.8,1.2,1.6,1.5c0.2,0,0.3,0.1,0.5,0.1s0.5,0,0.8,0
	c0.5-0.1,0.5-0.1,1-0.5c0.4-0.2,0.5-0.6,0.8-0.9c0.2-0.2,0.3-0.5,0.3-0.7c0-0.4-0.2-0.8-0.5-1c-0.4-0.2-0.8-0.3-1.2-0.5
	c-0.4-0.1-0.8-0.2-1.2-0.3C302.7,182.8,302.5,182.8,302.4,182.9"/>
<ellipse transform="matrix(-0.2461 -0.9693 0.9693 -0.2461 228.9868 538.5595)" class="st9" cx="324" cy="180.2" rx="0.6" ry="0.8"/>
<path d="M306.3,179.9c0.4,0.3-1.1,1.4-1.6,1.4c-0.5,0-7.8-0.7-8.1-0.7c-0.5,0-0.9-0.2-1.3,0.2c-1.3,1.3,0.5-0.5-0.8,0.9
	c-0.5-1.4-0.9-0.8,0.6-2.6c0.1-0.2,1.6-0.5,1.8-0.6c0.7-0.2,4,0.4,5.8,0.6C303.7,179.4,306.3,179.9,306.3,179.9z"/>
<ellipse transform="matrix(-0.2461 -0.9693 0.9693 -0.2461 201.2069 524.8195)" class="st9" cx="304.7" cy="184.2" rx="0.6" ry="0.8"/>
<g>
	<g>
		<path class="st10" d="M316.4,184.4c2.5-4,8.2-6.2,13.2-5.1c0.3,0.1,1.2-0.5,0.9-0.5c-5.7-1.2-12.3,1.3-15.1,5.8
			C315.2,184.9,316.2,184.6,316.4,184.4L316.4,184.4z"/>
	</g>
</g>
<g>
	<g>
		<path class="st10" d="M307.6,185.3c-0.7-0.7-1.1-1.6-2.1-2.1c-0.9-0.4-2-0.5-3.1-0.4c-2.9,0.2-4.9,1.6-7,3.3
			c-0.5,0.4,0.1,0.7,0.6,0.4c1.7-1.4,3.3-2.6,5.7-2.9c0.9-0.1,1.9-0.1,2.7,0.1c1.1,0.4,1.6,1.3,2.3,2.1
			C306.9,186.1,307.9,185.6,307.6,185.3L307.6,185.3z"/>
	</g>
</g>
<g>
	<g>
		<path d="M300.4,185.2c0.4,0.5,0.9,1,1.6,1.2c0.6,0.2,1.3,0.2,1.9,0c0.4-0.1,1-0.7,0.3-0.5c-1.3,0.3-2.2-0.4-2.9-1.2
			C301.2,184.5,300.2,185.1,300.4,185.2L300.4,185.2z"/>
	</g>
</g>
<g>
	<g>
		<path d="M319.6,182.7c0.8,0.7,2,0.9,3.3,0.6c0.4-0.1,1-0.6,0.3-0.5c-1,0.2-2-0.1-2.7-0.6C320.4,182.1,319.5,182.6,319.6,182.7
			L319.6,182.7z"/>
	</g>
</g>
<g>
	<path class="st10" d="M311,209.5c0,0,0.2,0,0.6,0c0.4,0,1,0,1.6-0.2c0.3-0.1,0.7-0.2,1-0.4c0.4-0.2,0.8-0.3,1.1-0.5
		c0.8-0.4,1.5-0.8,2.3-1.4c0.7-0.5,1.4-1.1,2-1.7c0.6-0.6,1.2-1.1,1.7-1.5c0.5-0.5,0.9-0.9,1.2-1.1c0.3-0.3,0.5-0.4,0.5-0.4l0.1,0.1
		c0,0-0.1,0.2-0.3,0.6c-0.2,0.4-0.5,0.9-0.9,1.5c-0.4,0.6-1,1.2-1.6,1.8c-0.7,0.6-1.5,1.1-2.3,1.6c-0.8,0.5-1.7,0.9-2.5,1.2
		c-0.5,0.2-0.8,0.3-1.2,0.4c-0.4,0.1-0.8,0.2-1.1,0.3c-0.7,0.1-1.3,0-1.7,0C311.2,209.6,311,209.6,311,209.5L311,209.5z"/>
</g>
<g>
	<path class="st10" d="M330.7,192.6c0,0,0.1,1,0.5,2c0.1,0.2,0.2,0.5,0.3,0.7c0.1,0.2,0.1,0.4,0.2,0.6c0.1,0.4,0.1,0.6,0.1,0.6l0,0
		c0,0-0.2-0.2-0.5-0.5c-0.1-0.2-0.2-0.4-0.3-0.6c-0.1-0.2-0.1-0.5-0.2-0.7C330.6,193.6,330.6,192.6,330.7,192.6L330.7,192.6z"/>
</g>
<g>
	<path d="M347.3,185.6c-0.4,2.9,1.3,5.7,3,8.2c-0.5-0.3-1-0.6-1.5-0.9c0,0.6,0,1.3-0.1,1.9c-0.7,0-1.3,0-2,0.1
		c-0.1,0.4-0.2,0.9-0.3,1.3c-0.8,0.1-1.8,0.2-2.4-0.4c-0.7-0.7-0.3-1.8-0.4-2.7c-0.1-0.8-0.5-1.5-0.7-2.3c-0.3-1.4,0-2.8,0.8-4
		c0.9-1.1,2.3-1.9,3.8-2"/>
	<path d="M347.4,185.6c0,0.4,0,0.7,0,1.1c0,0.4,0.1,0.7,0.2,1.1c0.2,0.7,0.4,1.4,0.7,2.1c0.6,1.3,1.5,2.5,2.3,3.8l0.7,1l-1.1-0.6
		l-1.5-0.9l0.5-0.3l0,1.9l0,0.3l-0.3,0l-2,0.1l0.4-0.3l-0.2,1.3l-0.1,0.3l-0.3,0c-0.7,0.1-1.4,0.3-2.3-0.1c-0.2-0.1-0.4-0.2-0.6-0.4
		l-0.1-0.1l-0.1-0.2c-0.1-0.1-0.1-0.2-0.2-0.3c-0.2-0.4-0.2-0.8-0.2-1.2c0-0.4,0-0.7,0-1c0-0.3-0.1-0.6-0.2-0.9
		c-0.2-0.6-0.5-1.3-0.6-2c-0.1-0.8,0-1.5,0.2-2.2c0.1-0.4,0.3-0.7,0.5-1c0.2-0.3,0.4-0.6,0.7-0.9c1-1.1,2.5-1.6,3.9-1.6l0,0.1
		c-0.7,0.2-1.3,0.4-1.8,0.7c-0.6,0.3-1.1,0.8-1.4,1.3c-0.2,0.3-0.4,0.5-0.5,0.8c-0.1,0.3-0.2,0.6-0.3,0.9c-0.2,0.6-0.2,1.2-0.1,1.8
		c0.1,0.6,0.4,1.2,0.6,1.9c0.1,0.4,0.2,0.8,0.2,1.2c0,0.4,0,0.7-0.1,1c0,0.3,0,0.6,0.1,0.8c0,0,0,0.1,0.1,0.1l0,0l0.1,0.1
		c0,0.1,0.2,0.1,0.2,0.2c0.4,0.2,1.1,0.2,1.7,0.1l-0.4,0.3l0.3-1.3l0.1-0.3l0.3,0l2,0l-0.4,0.3l0.1-1.9l0-0.6l0.5,0.3l1.4,0.9
		l-0.4,0.4c-0.8-1.3-1.6-2.5-2.1-3.9c-0.3-0.7-0.5-1.4-0.6-2.2c-0.1-0.4-0.1-0.7-0.1-1.1c0-0.4,0-0.8,0.1-1.1L347.4,185.6z"/>
</g>
<path class="st12" d="M311.7,203.3c-1.7-0.6-3.7,0.1-5,1.4c-1.3,1.2-2.1,2.9-2.8,4.6c3.6,0,7.1-1.8,9.2-4.7c0.2-0.2,0.3-0.4,0.5-0.6
	c0.3-0.1,0.6-0.1,0.9-0.1c3.4,0.1,6.5-2.6,9.8-2.3c-1.5-0.7-3.1-1.4-4.7-1.5s-3.4,0.1-4.8,1.1c-1,0.7-1.8,1.7-3,2"/>
<g>
	<path class="st2" d="M339.1,176.5c0.5-0.5,1-1,1.6-1.6c1-1,2.2-2.1,3.6-1.9c1.2,0.2,2,1.3,2.5,2.4c1.2,2.7,1.4,5.9,0.5,8.7
		c-1,2.8-3,5.2-5.7,6.6"/>
	<path class="st10" d="M339.1,176.5c0,0,0.3-0.3,0.8-0.9c0.3-0.3,0.6-0.6,0.9-1c0.4-0.4,0.8-0.8,1.3-1.2c0.5-0.4,1.3-0.7,2.1-0.6
		c0.2,0,0.4,0.1,0.6,0.2s0.4,0.2,0.6,0.3c0.4,0.3,0.7,0.6,0.9,0.9c0.3,0.3,0.5,0.7,0.7,1.1c0.1,0.2,0.2,0.4,0.3,0.6
		c0.1,0.2,0.2,0.4,0.2,0.6c0.3,0.8,0.5,1.7,0.6,2.6c0.1,0.9,0.1,1.8,0,2.7s-0.3,1.7-0.6,2.5c-0.2,0.4-0.3,0.8-0.5,1.1
		c-0.2,0.4-0.4,0.7-0.6,1c-0.4,0.6-0.9,1.2-1.3,1.7c-0.5,0.5-0.9,0.9-1.3,1.2s-0.8,0.6-1.1,0.8c-0.3,0.2-0.6,0.3-0.8,0.4
		c-0.2,0.1-0.3,0.1-0.3,0.1s0.1-0.1,0.3-0.2c0.2-0.1,0.4-0.3,0.7-0.5c0.3-0.2,0.7-0.5,1.1-0.9s0.8-0.8,1.2-1.3
		c0.4-0.5,0.8-1.1,1.2-1.7c0.2-0.3,0.3-0.7,0.5-1c0.2-0.4,0.3-0.7,0.4-1.1c0.3-0.7,0.4-1.6,0.5-2.4c0.1-0.8,0.1-1.7,0-2.5
		c-0.1-0.8-0.3-1.7-0.5-2.5c-0.1-0.4-0.3-0.8-0.4-1.1c-0.1-0.4-0.4-0.7-0.6-1c-0.4-0.6-1-1.1-1.7-1.3c-0.7-0.2-1.3,0.1-1.8,0.4
		c-0.6,0.3-1,0.7-1.4,1.1s-0.7,0.7-1,0.9C339.4,176.2,339.1,176.5,339.1,176.5z"/>
</g>
<g>
	<path class="st2" d="M344.3,187.1c0.2-0.8,0.3-1.6,0.8-2.2c0.2-0.2,0.5-0.4,0.6-0.6c0.2-0.3,0.3-0.6,0.3-0.9
		c0.1-0.5,0.2-1.1,0.4-1.7c0.1-0.5,0.2-1.1,0.1-1.7c-0.1-0.4-0.3-0.8-0.5-1.1c-0.4-0.8-0.9-1.6-1.3-2.4c-0.2-0.4-0.5-0.9-0.9-1.1
		c-0.5-0.3-1-0.1-1.5,0.1c-1.5,0.9-2.1,2.9-2.6,4.7c-0.1,0.4-0.2,0.8-0.2,1.2c0,0.4,0.2,0.8,0.3,1.1c0.3,0.8,1.5,0.5,2,1.2
		c0.2,0.3-0.7,3.5-1.2,4.1c0.5,0.5,1.4,1,2.1,0.8c0.7-0.2,1.2-0.7,1.4-1.5"/>
	<path class="st10" d="M344.3,187.1c0.1-0.6,0.2-1.2,0.5-1.8c0.1-0.3,0.4-0.5,0.6-0.7c0.2-0.2,0.4-0.4,0.5-0.7
		c0.1-0.3,0.1-0.6,0.2-0.9l0.2-0.9c0.1-0.6,0.2-1.2,0.2-1.8c0-0.6-0.4-1-0.6-1.6l-0.9-1.6c-0.3-0.5-0.6-1.1-0.9-1.4
		c0,0-0.1-0.1-0.2-0.1c-0.1,0-0.1,0-0.2-0.1c-0.1,0-0.2,0-0.3,0c-0.2,0-0.5,0.1-0.7,0.3c-0.3,0.2-0.5,0.3-0.7,0.5
		c-0.2,0.2-0.4,0.4-0.5,0.7c-0.3,0.5-0.5,1-0.7,1.6c-0.2,0.6-0.3,1.2-0.5,1.7c-0.1,0.3-0.1,0.6-0.1,0.9s0,0.5,0.1,0.8
		c0,0.1,0.1,0.3,0.1,0.4l0,0.1l0,0l0,0c0,0,0,0,0,0l0,0l0.1,0.1c0,0,0,0,0,0.1c0,0,0,0,0,0.1c0.1,0.1,0.4,0.2,0.7,0.3
		c0.3,0.1,0.6,0.2,0.9,0.4c0.1,0,0.2,0.1,0.2,0.2l0,0c0,0,0,0.1,0,0.1l0,0l0,0c0,0,0,0.1,0,0.2c0,0.1,0,0.1,0,0.2
		c0,0.2-0.1,0.3-0.1,0.5c-0.1,0.6-0.3,1.2-0.5,1.8c-0.1,0.3-0.2,0.6-0.3,0.9c-0.1,0.3-0.2,0.6-0.5,0.8l0-0.2
		c0.2,0.2,0.5,0.5,0.8,0.6c0.3,0.2,0.7,0.3,1,0.2l0.1,0c0,0,0.1,0,0.1,0c0.1,0,0.1-0.1,0.2-0.1c0.1-0.1,0.3-0.2,0.4-0.3
		c0.3-0.3,0.5-0.6,0.5-0.9c0,0.4-0.2,0.7-0.5,1c-0.1,0.1-0.3,0.3-0.4,0.4c-0.1,0.1-0.2,0.1-0.3,0.1c-0.1,0-0.1,0-0.1,0.1
		c-0.1,0-0.1,0-0.2,0c-0.4,0.1-0.8,0-1.1-0.2c-0.4-0.2-0.7-0.4-1-0.6l-0.1-0.1l0.1-0.1c0.2-0.2,0.3-0.5,0.4-0.8
		c0.1-0.3,0.2-0.6,0.3-0.8c0.2-0.6,0.3-1.2,0.4-1.7c0-0.1,0-0.3,0-0.4c0,0,0-0.1,0-0.1l0,0c0,0,0,0,0,0l0,0l0,0c0,0,0.1,0.1,0,0l0,0
		c0,0-0.1-0.1-0.1-0.1c-0.2-0.1-0.5-0.2-0.8-0.3c-0.1,0-0.3-0.1-0.5-0.1c-0.1-0.1-0.3-0.2-0.5-0.3c-0.1,0-0.2-0.2-0.2-0.3l-0.1-0.1
		l0-0.1l0,0l0-0.1c-0.1-0.1-0.1-0.3-0.2-0.5c-0.1-0.3-0.2-0.7-0.1-1c0-0.3,0.1-0.6,0.2-1c0.1-0.6,0.3-1.2,0.5-1.8
		c0.2-0.6,0.4-1.2,0.8-1.7c0.2-0.3,0.4-0.5,0.6-0.8c0.2-0.2,0.5-0.5,0.8-0.6c0.3-0.2,0.6-0.3,1-0.3c0.2,0,0.4,0,0.6,0
		c0.1,0,0.2,0.1,0.3,0.1c0.1,0,0.2,0.1,0.2,0.1c0.3,0.2,0.5,0.5,0.6,0.8l0.4,0.8l0.8,1.6c0.1,0.3,0.3,0.5,0.4,0.8
		c0.1,0.3,0.2,0.6,0.2,1c0,0.7-0.1,1.3-0.3,1.9l-0.2,0.9c-0.1,0.3-0.1,0.6-0.2,0.9c-0.1,0.1-0.1,0.3-0.2,0.4
		c-0.1,0.1-0.2,0.2-0.4,0.3c-0.3,0.2-0.4,0.4-0.6,0.6C344.6,186,344.5,186.6,344.3,187.1z"/>
</g>
</svg>
