<?xml version="1.0" encoding="utf-8"?>
<!-- Generator: Adobe Illustrator 19.0.1, SVG Export Plug-In . SVG Version: 6.00 Build 0)  -->
<svg version="1.1" id="Layer_1" xmlns="http://www.w3.org/2000/svg" xmlns:xlink="http://www.w3.org/1999/xlink" x="0px" y="0px"
	 viewBox="0 0 213 360" style="enable-background:new 0 0 213 360;" xml:space="preserve">
<style type="text/css">
	.st0{fill:none;}
	.st1{fill:#727272;}
	.st2{fill:#4F2A09;}
	.st3{fill:#AAF2EC;}
	.st4{fill:#2D4649;}
	.st5{fill:#3E5448;}
	.st6{fill:#233323;}
	.st7{fill:none;stroke:#000000;stroke-miterlimit:10;}
	.st8{fill:#232323;}
	.st9{fill:#4F2A09;stroke:#000000;stroke-miterlimit:10;}
	.st10{fill:#2B2B2B;}
	.st11{fill:#FFFFFF;}
	.st12{fill:#231F20;}
	.st13{fill:#8E703C;}
	.st14{fill:#0B0D11;}
	.st15{fill:#161A33;}
</style>
<path class="st0" d="M115.3,360h8c-1.1-4.7-2.7-9.3-4.9-13.7C117.2,350.8,116,355.4,115.3,360z"/>
<g>
	<path class="st1" d="M157.3,353.8c1.3,2.4,3,4.5,5,6.2h14c-0.2-6.4-1-12.8-2.9-19c-0.8-2.5-1.7-4.9-2.4-7.4
		c-1.4-5.8-0.9-11.9-0.3-17.9c0.9-9.6-5.2-19.6-8.3-28.8c-5.1,0.6-9.8,2.6-14.7,4.1c-11.1,3.4-22.7,4.2-34.3,5
		c-5.4,0.4-10.8,0.7-16.1-0.2s-10.6-3-14.2-7c-1-1.1-2.3-2.5-3.8-2c-0.7,0.2-1.2,0.9-1.5,1.5c-2.7,4.2-3.9,9.1-5,13.9
		c-3.2,13.9-6,28-8.4,42.1l1.1-1.7c1.9,5.1-5,10.5-3.8,15.9c0.1,0.5,0.2,1,0.3,1.6h53.4c0.6-4.6,1.9-9.2,3.1-13.7
		c2.1,4.4,3.8,9,4.9,13.7h39C160.3,358.3,158.5,356.2,157.3,353.8z"/>
	<path d="M157.3,353.8c1.3,2.4,3,4.5,5,6.2l0,0l14,0l-0.1,0.1c-0.2-6.3-1-12.5-2.8-18.5c-0.9-3-2.1-5.9-2.7-9
		c-0.6-3.1-0.7-6.3-0.6-9.4c0.1-1.6,0.2-3.1,0.3-4.7c0.1-1.6,0.3-3.1,0.3-4.7c0-1.5-0.2-3.1-0.5-4.6c-0.3-1.5-0.7-3-1.1-4.5
		c-0.5-1.5-1-3-1.6-4.4c-0.6-1.5-1.2-2.9-1.8-4.4c-1.2-2.9-2.4-5.8-3.5-8.8l0.3,0.2c-3,0.4-5.9,1.2-8.8,2.2c-2.9,1-5.8,2-8.8,2.8
		c-5.9,1.6-12,2.5-18.1,3.1c-3,0.3-6.1,0.6-9.1,0.8c-3.1,0.2-6.1,0.4-9.2,0.6c-3.1,0.1-6.1,0.1-9.2-0.2c-3.1-0.3-6.1-1-9-2.2
		c-2.8-1.2-5.5-3-7.6-5.3c-0.5-0.5-1-1.1-1.6-1.4c-0.6-0.4-1.2-0.5-1.8-0.2c-0.5,0.3-1,0.9-1.3,1.6c-0.4,0.7-0.7,1.3-1.1,2
		c-1.3,2.7-2.2,5.6-2.9,8.6c-0.7,3-1.4,5.9-2,8.9c-2.6,11.9-4.9,23.9-6.9,36L64,344l1.1-1.7l0.6-1l0.3,1.1c0.1,0.4,0.2,0.8,0.3,1.2
		c0,0.4,0.1,0.8,0,1.2c0,0.4-0.1,0.8-0.2,1.2c-0.1,0.4-0.2,0.8-0.3,1.2c-0.2,0.8-0.6,1.5-0.9,2.2c-0.3,0.7-0.7,1.4-1,2.1
		c-0.3,0.7-0.7,1.4-1,2c-0.1,0.3-0.3,0.7-0.4,1l-0.3,1.1c-0.1,0.4-0.1,0.7-0.2,1.1c0,0.4-0.1,0.7,0,1.1c0,0.3,0.1,0.7,0.2,1.1
		l0.2,1.1l-0.5-0.4l26.7,0l26.7,0.1l-0.4,0.3c0.6-4.7,1.9-9.2,3.2-13.7l0.2-0.8l0.4,0.8c2.1,4.4,3.7,9,4.8,13.8l-0.3-0.2l39,0.2
		l-0.1,0.2C160.2,358.3,158.5,356.2,157.3,353.8L157.3,353.8z M157.3,353.8c1.3,2.4,3,4.4,5,6.2l0.2,0.1l-0.2,0l-39,0.2l-0.2,0
		l0-0.2c-1.1-4.7-2.8-9.3-4.9-13.6l0.6-0.1c-1.2,4.5-2.5,9-3.1,13.6l0,0.3l-0.3,0l-26.7,0.1l-26.7,0l-0.4,0l-0.1-0.4l-0.2-1.1
		c-0.1-0.4-0.1-0.8-0.2-1.2c-0.1-0.4,0-0.8,0-1.2c0-0.4,0.1-0.8,0.2-1.2c0.1-0.4,0.2-0.8,0.3-1.2c0.1-0.4,0.3-0.7,0.4-1.1
		c0.3-0.7,0.6-1.4,1-2.1c0.3-0.7,0.7-1.4,1-2c0.3-0.7,0.6-1.4,0.8-2.1c0.1-0.3,0.2-0.7,0.3-1.1c0.1-0.4,0.1-0.7,0.1-1.1
		c0.1-0.4,0-0.7,0-1c0-0.3-0.2-0.7-0.2-1l0.9,0.1l-1.1,1.7l-1.3,2l0.4-2.4c2-12.1,4.4-24.1,7.1-36c0.7-3,1.3-6,2.1-8.9
		c0.8-3,1.7-5.9,3-8.7c0.3-0.7,0.7-1.4,1.1-2c0.4-0.6,0.8-1.4,1.6-1.8c0.4-0.2,0.9-0.3,1.3-0.3c0.5,0.1,0.9,0.2,1.2,0.4
		c0.7,0.4,1.3,1,1.8,1.6c2,2.2,4.6,3.9,7.3,5.1c2.8,1.2,5.8,1.9,8.8,2.2c3,0.3,6.1,0.3,9.1,0.2c3-0.1,6.1-0.4,9.1-0.6
		c3-0.2,6.1-0.4,9.1-0.7c6.1-0.6,12.1-1.5,18-3.1c3-0.8,5.8-1.8,8.7-2.7c2.9-0.9,5.9-1.8,8.9-2.2l0.2,0l0.1,0.2c1,3,2.2,5.8,3.4,8.7
		c0.6,1.5,1.2,2.9,1.7,4.4c0.6,1.5,1.1,3,1.5,4.5c0.5,1.5,0.9,3,1.1,4.6c0.3,1.5,0.4,3.1,0.5,4.7c0,1.6-0.2,3.1-0.3,4.7
		c-0.1,1.6-0.2,3.1-0.3,4.7c-0.1,3.1,0,6.3,0.6,9.3c0.6,3.1,1.8,6,2.7,9c1.8,6,2.6,12.3,2.8,18.6l0,0.1l-0.1,0l-14,0l0,0l0,0
		C160.2,358.3,158.5,356.2,157.3,353.8L157.3,353.8z"/>
</g>
<g>
	<path class="st2" d="M83.5,91.2c2.1,11,2.7,21.3,2,32.5c-0.2,3.4-0.5,6.8,0.2,10.1c1.6,7.7,7.9,11.5,12.3,17.3
		c2.1,3,3.9,6.6,4.9,10.4c3.5-11.4,7.1-23,13.6-31.4c2.8-3.5,9.8-8.6,9.4-14.1c-1-13.4-0.2-32.9-1.2-41.3c-0.1-1,1.1-2.7,0.5-3.4
		c-1-1.2-5.8,3.4-7,2.9C105.9,70,95.5,84.7,83.3,86.5c-0.1,1.4-0.1,2.7-0.4,3.9"/>
	<path d="M83.5,91.2c1.2,6.2,2,12.5,2.3,18.8c0.1,3.2,0.2,6.3,0.1,9.5c0,1.6-0.1,3.2-0.2,4.7c-0.1,1.6-0.2,3.2-0.2,4.7
		c0,1.6,0.1,3.1,0.4,4.7c0.3,1.5,0.9,3,1.6,4.4c1.4,2.8,3.6,5.1,5.8,7.4c1.1,1.1,2.2,2.3,3.3,3.4c1.1,1.2,2.1,2.4,2.9,3.8
		c1.7,2.7,3,5.7,3.8,8.7l-0.6,0c1.7-5.7,3.5-11.4,5.7-16.9c1.1-2.8,2.3-5.5,3.7-8.1c1.4-2.6,3-5.2,5-7.5c2-2.2,4.2-4.2,6-6.6
		c0.9-1.2,1.6-2.4,2.1-3.8c0.2-0.7,0.3-1.4,0.3-2.1c0-0.7-0.1-1.5-0.1-2.2c-0.4-5.9-0.5-11.9-0.5-17.8c-0.1-5.9,0-11.9-0.3-17.8
		l-0.1-2.2l-0.1-1.1c0-0.4-0.1-0.7,0-1.2c0.2-0.8,0.5-1.5,0.6-2.1c0.1-0.3,0-0.5-0.1-0.5c0,0-0.4,0-0.7,0.1
		c-1.3,0.5-2.5,1.5-3.8,2.2c-0.3,0.2-0.7,0.4-1,0.5c-0.2,0.1-0.4,0.1-0.6,0.2c-0.1,0-0.3,0-0.4,0l-0.3-0.1c-0.4-0.1-0.7-0.2-1.1-0.3
		l-1-0.2c-2.9-0.5-5.8,0-8.5,1.1c-2.7,1.1-5.3,2.6-7.8,4.1c-2.5,1.5-5,3.1-7.7,4.5c-2.6,1.4-5.5,2.5-8.4,2.9l0.1-0.1
		c-0.1,1.3-0.2,2.6-0.4,3.9l-0.1,0c0.2-1.3,0.3-2.6,0.3-3.9l0-0.1l0.1,0c2.9-0.5,5.7-1.7,8.3-3.1c2.6-1.4,5.1-3,7.6-4.6
		c2.5-1.6,5.1-3.1,7.9-4.2c2.8-1.1,5.9-1.7,8.9-1.3l1.1,0.2c0.4,0.1,0.7,0.2,1.1,0.3c0.4,0.2,1.1-0.2,1.7-0.6
		c1.3-0.7,2.4-1.7,3.9-2.3c0.4-0.1,0.8-0.4,1.4-0.1c0.4,0.2,0.5,0.4,0.6,0.7c0.1,0.3,0.1,0.5,0,0.7c-0.2,0.8-0.5,1.5-0.6,2.1
		c-0.1,0.2,0,0.6,0,1l0.1,1.1c0.1,0.7,0.1,1.5,0.1,2.2c0.3,6,0.2,11.9,0.3,17.8c0.1,5.9,0.1,11.9,0.4,17.8c0,0.8,0.1,1.4,0.1,2.3
		c0,0.8-0.2,1.6-0.4,2.3c-0.5,1.5-1.3,2.8-2.2,4c-1.8,2.4-4.1,4.4-6.1,6.6c-1.9,2.2-3.5,4.7-4.9,7.3c-1.4,2.6-2.6,5.3-3.8,8
		c-2.2,5.5-4,11.2-5.7,16.8l-0.3,1l-0.3-1c-0.8-3-2.1-5.9-3.7-8.6c-1.6-2.7-3.9-4.9-6.1-7.2c-2.2-2.3-4.4-4.7-5.8-7.5
		c-0.7-1.4-1.3-3-1.6-4.5c-0.3-1.6-0.4-3.2-0.3-4.8c0-1.6,0.1-3.2,0.2-4.7c0.1-1.6,0.2-3.2,0.2-4.7c0.1-3.2,0.1-6.3,0-9.5
		C85.3,103.8,84.6,97.5,83.5,91.2L83.5,91.2z"/>
</g>
<g>
	<path class="st3" d="M105.9,131c0.4,8.6,0,19.2-0.8,27.7c-2-3.2-3.1-6.6-5.5-9.6c-4.5-5.7-8.7-12.8-11.2-27.3
		c-4.6,23.6-2.5,51.4-0.6,75.3s3,48.5-4.2,71.4c-0.8,2.4-1.6,4.9-1,7.3c0.9,3.9,5,6.1,8.7,7.7c3,1.3,6,2.7,9.3,3.2
		c3,0.5,6.1,0.2,9.1-0.1c7.2-0.6,14.3-1.2,21.5-1.9c3.3-0.3,7-0.8,8.9-3.5c1.9-2.7,1.2-6.3,0.3-9.4c-1.7-6-3.7-11.9-5.7-17.9
		c-0.6-1.9-1.3-3.7-1.9-5.6c-3.6-10.8-7.3-21.8-7.4-33.1c0-8,1.7-15.8,2.6-23.7c0.8-7.5,0.8-15,0.8-22.5c0-13.8,0.1-27.8-3-41.3
		c-0.3-1.2-0.7-2.6-1.8-3.3c-0.9-0.5-2.1-0.4-3.1-0.2c-5.4,1-10.6,3.3-15,6.8"/>
	<path d="M105.9,131c0.2,4.6,0.2,9.2,0.1,13.9c-0.1,4.6-0.4,9.2-0.8,13.8l0,0.3l-0.2-0.2c-1.8-2.9-3-6.2-5-8.9l-1.6-2
		c-0.5-0.7-1-1.4-1.5-2.1c-0.5-0.7-0.9-1.4-1.4-2.2c-0.4-0.7-0.9-1.5-1.2-2.2c-0.4-0.8-0.8-1.5-1.1-2.3c-0.3-0.8-0.7-1.6-1-2.4
		c-0.6-1.6-1.2-3.2-1.7-4.8c-0.5-1.6-0.9-3.3-1.3-5c-0.4-1.7-0.7-3.3-1-5l0.3,0c-1.5,8.1-2.3,16.4-2.5,24.7
		c-0.3,8.3-0.1,16.5,0.3,24.8c0.4,8.3,1,16.5,1.7,24.8c0.7,8.3,1.3,16.5,1.5,24.8c0.1,4.1,0.1,8.3,0,12.4c-0.2,4.1-0.4,8.3-0.8,12.4
		c-0.9,8.2-2.5,16.4-5.1,24.3c-0.6,1.9-1.1,4-0.5,5.9c0.5,1.9,1.9,3.5,3.6,4.6c1.7,1.2,3.5,2,5.4,2.9c1.9,0.8,3.8,1.6,5.7,2.2
		c1.9,0.6,4,0.9,6,0.9c2,0,4.1-0.2,6.2-0.3l12.4-1.1l6.2-0.5c2.1-0.2,4.1-0.3,6.1-0.7c2-0.4,3.9-1.2,5-2.7c1.2-1.5,1.3-3.6,1.1-5.6
		c-0.3-2-0.9-4-1.5-5.9c-0.6-2-1.2-4-1.8-5.9c-1.3-3.9-2.6-7.9-3.9-11.8c-2.6-7.8-5.4-15.7-7.1-23.8c-0.8-4.1-1.4-8.2-1.4-12.4
		c0-4.2,0.4-8.3,1-12.4c0.6-4.1,1.3-8.2,1.7-12.3c0.4-4.1,0.6-8.2,0.7-12.4c0.1-4.1,0.1-8.3,0.1-12.4c0-4.1,0-8.3-0.1-12.4
		c-0.2-8.3-0.9-16.5-2.6-24.6c-0.2-1-0.4-2-0.8-3c-0.4-0.9-1.2-1.6-2.2-1.7c-1-0.1-2,0.1-3,0.3c-1,0.2-2,0.5-3,0.8
		c-3.9,1.2-7.7,3.1-10.9,5.7l-0.1-0.1c3.2-2.6,7-4.6,10.9-5.8c1-0.3,2-0.6,3-0.8c1-0.2,2-0.5,3.1-0.4c0.5,0.1,1.1,0.3,1.5,0.6
		c0.4,0.3,0.7,0.8,1,1.3c0.5,1,0.6,2,0.9,3c1.8,8.1,2.5,16.4,2.8,24.7c0.1,4.1,0.2,8.3,0.2,12.4c0,4.1,0,8.3-0.1,12.4
		c-0.1,4.1-0.3,8.3-0.7,12.4c-0.4,4.1-1.1,8.2-1.6,12.3c-0.5,4.1-1,8.2-0.9,12.3c0.1,4.1,0.6,8.2,1.4,12.2
		c1.7,8.1,4.4,15.9,7.1,23.7c1.3,3.9,2.7,7.8,3.9,11.8c0.6,2,1.2,4,1.8,5.9c0.6,2,1.2,4,1.5,6.1c0.1,1.1,0.2,2.1,0,3.2
		c-0.1,0.5-0.2,1.1-0.4,1.6c-0.1,0.3-0.2,0.5-0.4,0.8c-0.2,0.2-0.2,0.4-0.5,0.7c-1.4,1.8-3.6,2.7-5.6,3.1c-2.1,0.4-4.2,0.5-6.2,0.7
		l-6.2,0.5l-12.4,1.1c-2.1,0.2-4.1,0.4-6.2,0.3c-2.1,0-4.2-0.4-6.2-1c-2-0.6-3.9-1.4-5.8-2.3c-1.9-0.8-3.8-1.7-5.5-3
		c-1.7-1.2-3.3-2.9-3.8-5c-0.6-2.2,0-4.3,0.5-6.3c2.6-7.9,4.2-16,5.1-24.2c0.5-4.1,0.7-8.2,0.9-12.4c0.1-4.1,0.2-8.3,0-12.4
		c-0.2-8.3-0.7-16.5-1.4-24.8c-0.6-8.3-1.3-16.5-1.6-24.8c-0.4-8.3-0.5-16.6-0.2-24.9c0.3-8.3,1.1-16.6,2.6-24.7l0.2-0.9l0.1,0.9
		c0.3,1.7,0.6,3.3,1,5c0.4,1.7,0.8,3.3,1.3,4.9c0.5,1.6,1,3.2,1.6,4.8c0.3,0.8,0.6,1.6,1,2.4c0.4,0.8,0.7,1.5,1.1,2.3
		c0.4,0.8,0.8,1.5,1.2,2.2c0.4,0.7,0.9,1.4,1.4,2.2c0.5,0.7,1,1.4,1.5,2.1l1.6,2c2,2.8,3.2,6,5,8.9l-0.2,0c0.4-4.6,0.7-9.2,0.9-13.8
		C106,140.2,106.1,135.6,105.9,131L105.9,131z"/>
</g>
<g>
	<path class="st3" d="M88.5,122.3c1.7,1.1,3.4,2.2,4.8,3.7c1.4,1.5,2.3,3.4,2.3,5.4c-0.1,3.2-2.8,6.3-1.6,9.3c0.2,0.6,0.6,1.1,1,1.7
		c3.4,4.6,8.3,8.5,9.2,14.2c-0.7-1.3-1.4-2.5-2-3.8c-0.7-1.3-1.4-2.6-2.4-3.6c-2.4-2.3-6.3-2.9-7.8-5.9c-0.6-1.2-0.6-2.6-0.7-4
		c0-2.3-0.1-4.7-0.1-7c0-1.5-0.1-3-0.5-4.4c-0.6-2.1-2.2-4.3-1.5-6.4c0.1,0.7,0.4,1.4,0.9,1.9"/>
	<path class="st4" d="M88.5,122.2c1.4,0.9,2.9,1.8,4.1,3c1.3,1.1,2.3,2.6,2.8,4.3c0.2,0.8,0.3,1.7,0.2,2.6c-0.1,0.9-0.4,1.7-0.6,2.5
		c-0.5,1.6-1.2,3.2-1.1,4.8c0,0.8,0.3,1.6,0.8,2.2c0.5,0.7,1,1.3,1.5,2c1.1,1.3,2.2,2.6,3.3,3.9c1.1,1.3,2.2,2.6,3,4.1
		c0.4,0.7,0.8,1.5,1.1,2.3c0.3,0.8,0.5,1.7,0.7,2.5l0.5,2.5l-1.2-2.2l-2.5-4.5c-0.4-0.7-0.8-1.4-1.4-2.1c-0.5-0.6-1.1-1.1-1.8-1.6
		c-1.4-0.9-2.9-1.6-4.4-2.5c-0.7-0.5-1.4-1.1-2-1.9c-0.5-0.8-0.8-1.7-1-2.6c-0.1-0.9-0.1-1.8-0.1-2.6l0-2.5l0-5.1
		c0-0.8,0-1.7-0.2-2.5c-0.1-0.8-0.4-1.6-0.7-2.4c-0.3-0.8-0.7-1.6-0.8-2.4c-0.2-0.8-0.2-1.8,0.1-2.6l0.2-0.4l0.1,0.5
		c0.1,0.7,0.4,1.3,0.8,1.9l-0.1,0.1c-0.5-0.5-0.9-1.2-1-1.9l0.2,0c-0.2,0.8-0.2,1.6,0.1,2.4c0.2,0.8,0.6,1.6,0.9,2.3
		c0.3,0.8,0.7,1.6,0.9,2.5c0.2,0.9,0.3,1.7,0.3,2.6l0.2,5.1l0.1,2.5c0,0.9,0,1.7,0.2,2.5c0.1,0.8,0.4,1.5,0.8,2.2
		c0.4,0.6,1,1.2,1.7,1.6c1.3,0.9,2.9,1.6,4.4,2.6c0.4,0.2,0.8,0.6,1,0.8c0.3,0.3,0.6,0.6,0.9,1c0.6,0.7,1,1.5,1.4,2.2l2.4,4.5
		l-0.7,0.2c-0.2-0.8-0.3-1.6-0.6-2.4c-0.3-0.8-0.7-1.5-1.1-2.2c-0.8-1.4-1.9-2.8-2.9-4.1c-1.1-1.3-2.2-2.6-3.3-3.9
		c-0.5-0.7-1.1-1.3-1.5-2.1c-0.5-0.7-0.8-1.6-0.9-2.5c0-0.9,0.1-1.8,0.4-2.6c0.3-0.8,0.6-1.6,0.9-2.4c0.3-0.8,0.5-1.6,0.7-2.4
		c0.1-0.8,0.1-1.6-0.1-2.5c-0.4-1.6-1.4-3-2.6-4.2C91.3,124.2,89.9,123.2,88.5,122.2L88.5,122.2z"/>
</g>
<g>
	<path class="st4" d="M115.6,169.7c0,0,0,0.5-0.1,1.3c-0.1,0.9-0.2,2.1-0.3,3.5c-0.2,1.5-0.3,3.2-0.5,5c-0.2,1.8-0.5,3.8-0.7,5.7
		c-0.3,1.9-0.6,3.9-0.9,5.7c-0.3,1.8-0.6,3.5-0.9,4.9c-0.2,1.4-0.5,2.6-0.7,3.5c-0.2,0.8-0.3,1.3-0.3,1.3s0-0.5,0.1-1.3
		c0.1-0.9,0.2-2.1,0.3-3.5c0.2-1.5,0.3-3.2,0.5-5c0.2-1.8,0.5-3.8,0.7-5.7c0.3-1.9,0.6-3.9,0.9-5.7c0.3-1.8,0.6-3.5,0.9-4.9
		c0.3-1.4,0.5-2.6,0.7-3.5C115.5,170.1,115.6,169.7,115.6,169.7z"/>
</g>
<g>
	<path class="st4" d="M91.7,185.9c0,0,0.1,0,0.4,0c0.2,0,0.5,0,0.9,0c0.2,0,0.4-0.1,0.6-0.1c0.2,0,0.4-0.1,0.6-0.2
		c0.4-0.1,0.9-0.3,1.3-0.5c0.4-0.2,0.8-0.5,1.2-0.8c0.2-0.2,0.3-0.3,0.5-0.4c0.1-0.2,0.3-0.3,0.4-0.4c0.2-0.3,0.4-0.6,0.5-0.8
		c0.1-0.2,0.2-0.3,0.2-0.3s0,0.1,0,0.4c0,0.1,0,0.3-0.1,0.4c0,0.2-0.1,0.4-0.2,0.5c-0.1,0.4-0.4,0.8-0.8,1.2
		c-0.2,0.2-0.4,0.4-0.6,0.6c-0.2,0.2-0.5,0.3-0.7,0.5c-0.3,0.1-0.5,0.2-0.8,0.3c-0.3,0.1-0.5,0.1-0.8,0.2c-0.5,0.1-1,0.1-1.4,0
		c-0.4-0.1-0.8-0.2-0.9-0.3C91.8,186,91.7,185.9,91.7,185.9z"/>
</g>
<g>
	<path class="st4" d="M93.7,193.1c0,0,0.6-0.3,1.5-0.8c0.4-0.3,0.9-0.6,1.3-1c0.4-0.4,0.9-0.8,1.3-1.4c0.4-0.5,0.8-1.1,1.1-1.6
		c0.4-0.5,0.8-1,1.2-1.3c0.4-0.4,0.8-0.6,1.1-0.7c0.3-0.1,0.4-0.2,0.4-0.2s-0.1,0.1-0.3,0.3c-0.2,0.2-0.5,0.5-0.7,0.9
		c-0.6,0.8-1.1,2-2,3.1c-0.4,0.5-1,1.1-1.5,1.4c-0.6,0.4-1.1,0.6-1.6,0.8c-0.5,0.2-0.9,0.2-1.2,0.2
		C93.9,193.1,93.7,193.1,93.7,193.1z"/>
</g>
<g>
	<path class="st4" d="M111.9,285.5c0,0,1.1-1.2,2.8-3.1c0.8-0.9,1.7-2,2.7-3.2c1-1.2,2-2.5,3-3.8c1-1.3,1.9-2.6,2.8-3.9
		c0.4-0.6,0.9-1.2,1.3-1.8c0.4-0.6,0.8-1.1,1.1-1.7c1.3-2.1,2.2-3.5,2.2-3.5s-0.2,0.4-0.4,1c-0.3,0.7-0.7,1.6-1.3,2.7
		c-0.6,1.1-1.3,2.4-2.1,3.7c-0.4,0.6-0.8,1.3-1.3,2c-0.5,0.7-1,1.3-1.4,2c-1,1.3-2.1,2.6-3.1,3.7c-1.1,1.1-2.1,2.2-3,3
		c-0.9,0.9-1.7,1.5-2.3,2C112.2,285.3,111.9,285.5,111.9,285.5z"/>
</g>
<g>
	<path class="st4" d="M129.9,284.3c0,0,0.4-0.9,1-2.1c0.7-1.2,1.6-2.8,2.6-4.3c0.5-0.8,1-1.5,1.4-2.2c0.4-0.7,0.7-1.4,0.9-2.1
		c0.2-0.6,0.2-1.2,0.2-1.6c0-0.4,0-0.6,0-0.6s0,0.1,0.1,0.2c0,0.1,0.1,0.2,0.2,0.4c0.1,0.4,0.2,1,0.2,1.7c-0.1,0.7-0.3,1.5-0.6,2.4
		c-0.3,0.8-0.8,1.6-1.3,2.4c-1,1.5-2.1,3-3,4.1C130.6,283.6,129.9,284.3,129.9,284.3z"/>
</g>
<g>
	<path class="st4" d="M105.1,157c0,0,0,0.5,0,1.5c0,1,0,2.4-0.1,4.1c-0.1,3.6-0.5,8.6-1.1,14.7c-0.3,3-0.7,6.3-1.1,9.8
		c-0.4,3.5-0.8,7.1-1.2,10.9c-0.4,3.8-0.7,7.7-1,11.7c-0.1,2-0.3,4-0.4,6c-0.1,2-0.2,4-0.3,6.1c-0.1,2-0.1,4.1-0.2,6.1
		c0,2-0.1,4-0.1,6c0,2,0,4,0,5.9c0,2,0,3.9,0,5.8c0,1.9,0.1,3.8,0.1,5.6c0,1.8,0.1,3.6,0.1,5.4c0.1,3.5,0.2,6.8,0.4,9.8
		c0.1,3,0.3,5.8,0.4,8.3c0.2,2.5,0.3,4.6,0.4,6.4c0.3,3.5,0.4,5.6,0.4,5.6l-0.1,0c0,0-0.2-2-0.7-5.5c-0.2-1.8-0.4-3.9-0.7-6.4
		c-0.2-2.5-0.5-5.3-0.7-8.3c-0.2-3-0.4-6.3-0.6-9.8c-0.2-3.5-0.2-7.2-0.3-11c0-1.9,0-3.8,0-5.8c0-2,0.1-3.9,0.1-5.9
		c0.1-2,0.1-4,0.2-6c0.1-2,0.2-4.1,0.3-6.1c0.1-2,0.2-4.1,0.4-6.1c0.1-2,0.3-4,0.4-6c0.3-4,0.7-7.9,1.1-11.7
		c0.4-3.8,0.8-7.4,1.3-10.9c0.4-3.5,0.9-6.7,1.2-9.8c0.7-6,1.1-11.1,1.3-14.7c0.1-1.8,0.1-3.2,0.1-4.1c0-1,0-1.5,0-1.5L105.1,157z"
		/>
</g>
<g>
	<path class="st5" d="M84.6,109c-11.7,10.3-25.2,18.6-39.5,24.7c-1,0.4-2,0.9-2.8,1.7c-0.9,1.1-1.1,2.6-1.3,4
		c-0.4,3.5-0.8,7.1-1.3,10.6c-0.3,2.7-0.6,5.5,0.2,8.1c0.3,1.1,0.8,2.1,0.9,3.2c0,1-0.3,1.9-0.6,2.9c-1.5,4.8-1.8,9.9-0.8,14.9
		c0.6,3.2,1.8,6.2,2.5,9.4c2.3,10.1,0.2,20.8,2.5,30.9c2.6,11.4,10.4,20.9,13.7,32.1c1.6,5.5,2.1,11.3,1.4,17
		c-1.7,13.6-5.2,27-5.9,40.7c-0.2,4.3-0.2,8.6-1.6,12.7c-0.7,2.1-1.7,4.2-1.7,6.5c0,3.9,3.2,7.1,6.1,9.7c2.9,2.6,5.9,5.3,8.8,7.9
		c8-20.8,15.7-42,17.8-64.1c0.3-2.9,0.5-5.8,1-8.6c0.7-4.3,2.2-8.4,3.3-12.6c3-10.9,4.4-22.2,5.7-33.4c0.2-1.9,0.5-3.9,0.4-5.8
		c-0.1-3-0.9-5.9-1.5-8.9c-1.8-9-1.7-18.2-1.6-27.3c0-5.1-0.8-9.7-1.7-14.7c-0.9-4.7-1.8-9.4-2-14.2c-0.4-8.1,1.2-16.2,1.8-24.3
		c0.6-8.1,0-16.6-4.2-23.6"/>
	<path d="M84.6,109c-4.3,3.7-8.7,7.2-13.4,10.4c-4.7,3.2-9.5,6.2-14.5,8.8c-2.5,1.3-5,2.6-7.6,3.8c-1.3,0.6-2.6,1.1-3.9,1.7
		c-1.3,0.5-2.7,1.1-3.3,2.4c-0.6,1.2-0.7,2.7-0.9,4.1l-0.5,4.2c-0.3,2.8-0.7,5.6-0.9,8.4c-0.1,1.4-0.1,2.8,0.2,4.2
		c0.2,1.4,1,2.6,1.1,4.1c0,0.7-0.2,1.5-0.4,2.1c-0.2,0.7-0.4,1.3-0.6,2c-0.4,1.4-0.6,2.7-0.8,4.1c-0.3,2.8-0.3,5.6,0.2,8.4
		c0.5,2.8,1.4,5.5,2.2,8.2c1.6,5.5,1.8,11.3,1.8,16.9c0.1,5.6,0,11.4,1.4,16.8c1.3,5.5,3.9,10.6,6.5,15.6c2.6,5,5.3,10,7,15.5
		c1.7,5.5,2.2,11.2,1.6,16.9c-0.7,5.6-1.6,11.2-2.6,16.8c-1,5.6-1.9,11.2-2.6,16.8c-0.3,2.8-0.6,5.6-0.7,8.4
		c-0.1,2.8-0.2,5.7-0.7,8.5c-0.2,1.4-0.6,2.8-1.1,4.2c-0.5,1.4-1,2.7-1.3,4c-0.3,1.3-0.2,2.7,0.2,4c0.4,1.3,1.2,2.5,2,3.5
		c1.8,2.1,4,3.9,6.1,5.8l6.3,5.7l-0.7,0.2c3.6-9.4,7.1-18.9,10.1-28.5c3-9.6,5.4-19.4,6.8-29.4c0.2-1.2,0.4-2.5,0.5-3.7
		c0.1-1.3,0.3-2.5,0.4-3.8c0.2-2.5,0.4-5.1,0.9-7.6c0.9-5,2.7-9.8,3.9-14.7c2.5-9.8,3.7-19.8,4.9-29.8c0.3-2.5,0.7-5,0.5-7.5
		c-0.1-2.5-0.7-4.9-1.2-7.4c-1-5-1.5-10.1-1.6-15.1c-0.2-5.1,0-10.1-0.1-15.2c-0.2-5-1.2-10-2.1-15c-0.9-5-1.7-10-1.6-15.1
		c0.1-5.1,0.7-10.1,1.3-15.1c0.6-5,1-10.1,0.7-15.1c-0.2-2.5-0.6-5-1.2-7.4c-0.7-2.4-1.6-4.8-2.9-7l0.1-0.1c1.3,2.2,2.3,4.5,3,7
		c0.7,2.4,1.1,5,1.3,7.5c0.4,5.1,0,10.1-0.5,15.2c-0.5,5-1.2,10-1.2,15.1c-0.1,5,0.7,10,1.7,15c0.9,5,2,9.9,2.2,15
		c0.1,5.1-0.1,10.1,0.2,15.2c0.2,5,0.7,10.1,1.7,15c0.5,2.5,1.1,4.9,1.3,7.5c0.2,2.6-0.2,5.1-0.5,7.6c-1.1,10-2.4,20.1-4.9,30
		c-1.2,4.9-3,9.7-3.9,14.6c-0.5,2.5-0.7,5-0.9,7.5c-0.1,1.3-0.3,2.5-0.4,3.8c-0.1,1.3-0.3,2.5-0.5,3.8c-1.4,10-3.9,19.9-6.9,29.6
		c-3,9.7-6.6,19.1-10.2,28.6l-0.2,0.6l-0.5-0.4l-6.3-5.7c-2.1-1.9-4.3-3.7-6.1-5.9c-0.9-1.1-1.7-2.4-2.2-3.8c-0.5-1.4-0.5-3-0.2-4.4
		c0.3-1.4,0.9-2.8,1.3-4.1c0.5-1.3,0.8-2.7,1-4c0.5-2.8,0.6-5.6,0.7-8.4c0.2-2.8,0.4-5.7,0.7-8.5c0.7-5.6,1.7-11.2,2.7-16.8
		c1-5.6,2-11.1,2.7-16.8c0.6-5.6,0.1-11.3-1.5-16.7c-1.6-5.4-4.3-10.4-6.9-15.4c-2.6-5-5.2-10.2-6.5-15.7c-1.4-5.6-1.3-11.3-1.4-17
		c0-5.7-0.2-11.3-1.8-16.8c-0.8-2.7-1.7-5.4-2.1-8.2c-0.5-2.8-0.5-5.7-0.2-8.5c0.2-1.4,0.4-2.8,0.8-4.2c0.3-1.4,1-2.7,1-4.1
		c0-1.4-0.8-2.6-1.1-4.1c-0.3-1.4-0.3-2.9-0.2-4.3c0.2-2.8,0.6-5.6,1-8.4l0.5-4.2c0.2-1.4,0.2-2.9,0.9-4.2c0.3-0.7,0.9-1.2,1.5-1.6
		c0.6-0.4,1.3-0.7,1.9-0.9c1.3-0.6,2.6-1.1,3.9-1.7c2.6-1.2,5.1-2.4,7.6-3.7c5-2.6,9.9-5.6,14.5-8.7C75.8,116.1,80.3,112.7,84.6,109
		L84.6,109z"/>
</g>
<g>
	<path class="st5" d="M77.3,114.7c-2.3,1.7-3.3,4.8-3.2,7.7c0.1,2.9,1.2,5.7,2.4,8.3c2.3-1.5,4.8-2.6,7.4-3.4c0,0.9,0,1.7,0,2.6
		c-1.9,1-3.9,2-5.8,3c3.8,26,7.6,52.1,13.3,77.8"/>
	<path d="M77.4,114.7c-0.3,0.2-0.5,0.5-0.8,0.7c-0.2,0.3-0.5,0.5-0.7,0.8c-0.4,0.6-0.7,1.2-1,1.9c-0.5,1.3-0.6,2.8-0.6,4.2
		c0.2,2.9,1.3,5.5,2.5,8.2l-0.6-0.2c2.3-1.5,4.8-2.7,7.5-3.5l0.6-0.2l0,0.6l0,2.6l0,0.3l-0.3,0.1l-5.8,3l0.3-0.5l2.8,19.5
		c0.9,6.5,1.9,13,3,19.5c1,6.5,2.1,13,3.3,19.4c1.2,6.5,2.4,12.9,3.8,19.4l-0.1,0c-3-12.8-5.4-25.7-7.6-38.7
		c-1.1-6.5-2.1-13-3.2-19.5l-1.5-9.8l-1.4-9.8l-0.1-0.3l0.3-0.2l5.8-3l-0.3,0.4l0-2.6l0.6,0.4c-2.6,0.7-5,1.8-7.3,3.2l-0.4,0.2
		l-0.2-0.4c-0.6-1.3-1.1-2.7-1.6-4.1c-0.2-0.7-0.4-1.4-0.5-2.1c-0.1-0.7-0.2-1.5-0.2-2.2c0-1.5,0.2-3,0.8-4.3
		c0.3-0.7,0.6-1.3,1.1-1.9c0.2-0.3,0.5-0.6,0.7-0.8C76.7,115.1,77,114.8,77.4,114.7L77.4,114.7z"/>
</g>
<g>
	<path class="st5" d="M126.7,91.5c1.9,4.8,6.2,8.3,10.8,10.5c4.7,2.2,9.8,3.2,14.8,4.2c6.2,1.2,12.3,2.4,18.5,3.6
		c3.6,0.7,7.4,1.6,9.8,4.3c1.1,1.3,1.8,3,2.5,4.6c3.3,8.2,6.7,16.5,8.3,25.2c0.9,5,1.2,10.1,2.6,15c1.4,4.9,3.9,9.6,4,14.7
		c0.1,3-0.7,6.1-0.1,9c0.4,2,1.5,3.9,2.1,5.9c2.5,7.2,0.3,15.1,0.2,22.7c-0.1,8.5,2.6,17.2,0.2,25.4c-1.9,6.4-6.8,12.1-6.5,18.8
		c0.3,6-3.5,10.5-6.9,15.5c-3.6,5.4-3.8,6.4-1.7,12.4c2.1,6.1,4.2,12.2,6.3,18.3c0.9,2.7,1.9,5.5,1.3,8.3c-0.6,2.8-3.2,5.3-6,4.7
		c1.5,1.7-0.1,4.7-2.3,5.1c-2.2,0.4-4.4-1-6-2.6c-1.6-1.7-2.8-3.7-4.6-5.1c-1.9-1.5-4.3-2.2-6.4-3.3c-3.9-2-7.1-5.2-10-8.4
		c-5.5-6-10.4-12.5-14.9-19.4c-6.5-10.1-11.8-21-16.5-32c-3-7.2-5.8-14.5-8.2-21.9c-1.4-4.3-2.8-8.8-3.1-13.3
		c-0.2-3.6,0.3-7.3,0.8-10.8c1.8-13,3.7-25.9,5.5-38.9c3.5-24.6,4.4-48.6,5.3-73.4"/>
	<path d="M126.8,91.5c1.1,2.6,2.9,4.9,5,6.8c2.2,1.9,4.7,3.3,7.3,4.4c5.3,2.2,11,3,16.5,4.1l16.8,3.3c2.8,0.6,5.7,1.4,7.8,3.5
		c1.1,1,1.8,2.3,2.4,3.6c0.6,1.3,1.1,2.6,1.6,4c2.1,5.3,4.2,10.6,5.8,16.1c0.8,2.7,1.4,5.5,1.9,8.4c0.5,2.8,0.8,5.7,1.3,8.5
		c0.5,2.8,1.2,5.5,2.2,8.2c0.9,2.7,2,5.4,2.6,8.2c0.3,1.4,0.4,2.9,0.4,4.3c0,1.4-0.2,2.9-0.3,4.3c-0.1,1.4,0,2.8,0.3,4.2
		c0.3,1.3,1,2.6,1.5,4c0.6,1.3,1,2.7,1.3,4.1c0.3,1.4,0.4,2.9,0.4,4.3c0.1,2.9-0.2,5.7-0.5,8.6c-0.3,2.8-0.5,5.7-0.5,8.5
		c0.1,2.8,0.4,5.7,0.7,8.5c0.3,2.8,0.6,5.7,0.5,8.6c0,2.9-0.5,5.8-1.4,8.5c-1,2.7-2.3,5.2-3.5,7.8c-1.2,2.6-2.2,5.2-2.4,8
		c-0.1,1.4,0.1,2.8-0.2,4.3c-0.2,1.4-0.7,2.8-1.3,4.2c-1.2,2.6-2.9,5-4.5,7.3c-0.8,1.2-1.6,2.4-2.3,3.5c-0.7,1.2-1.4,2.4-1.6,3.8
		c-0.2,1.3,0.2,2.7,0.6,4c0.4,1.3,0.9,2.7,1.4,4l5.6,16.1c0.5,1.3,0.9,2.7,1.3,4.1c0.3,1.4,0.4,2.9,0.2,4.4
		c-0.3,1.5-1.1,2.9-2.2,3.9c-1.1,1-2.7,1.6-4.3,1.3l0.4-0.7c0.5,0.6,0.8,1.5,0.7,2.2c-0.1,0.8-0.4,1.5-0.9,2.1
		c-0.5,0.6-1.1,1.1-1.8,1.3c-0.2,0.1-0.4,0.1-0.6,0.2c-0.2,0-0.3,0.1-0.5,0.1c-0.4,0-0.8,0-1.1-0.1c-1.5-0.2-2.7-1-3.8-1.9
		c-1.1-0.9-1.9-2-2.8-3.1c-0.9-1.1-1.7-2.1-2.8-2.9c-1-0.8-2.3-1.4-3.5-1.9c-1.2-0.5-2.5-1.1-3.7-1.8c-1.2-0.7-2.4-1.5-3.4-2.4
		c-2.2-1.7-4.1-3.7-5.9-5.8c-1.8-2-3.6-4.1-5.3-6.2c-3.4-4.3-6.7-8.7-9.6-13.3c-5.9-9.2-10.8-19-15.2-29.1c-2.2-5-4.2-10.1-6.1-15.2
		c-0.9-2.6-1.9-5.1-2.7-7.7c-0.9-2.6-1.8-5.2-2.4-7.9c-0.7-2.7-1.2-5.4-1.2-8.2c-0.1-2.8,0.3-5.5,0.6-8.2l2.3-16.2l2.3-16.2
		c0.8-5.4,1.6-10.8,2.2-16.2c1.3-10.8,2.2-21.7,2.9-32.6c0.7-10.9,1.2-21.8,1.7-32.7l0.1,0c-0.4,10.9-0.7,21.8-1.3,32.7
		c-0.6,10.9-1.5,21.8-2.7,32.7c-0.6,5.4-1.4,10.8-2.2,16.2l-2.3,16.2l-2.2,16.2c-0.4,2.7-0.7,5.4-0.6,8.1c0.1,2.7,0.5,5.4,1.2,8
		c0.7,2.6,1.6,5.2,2.4,7.8c0.9,2.6,1.8,5.1,2.7,7.7c1.9,5.1,3.9,10.2,6.1,15.2c4.3,10,9.2,19.8,15.1,29c2.9,4.6,6.1,9,9.5,13.2
		c1.7,2.1,3.5,4.2,5.3,6.2c1.8,2,3.7,4,5.8,5.7c1,0.9,2.1,1.6,3.3,2.3c1.2,0.7,2.4,1.2,3.6,1.8c1.3,0.6,2.5,1.2,3.7,2
		c1.1,0.9,2,2,2.9,3c0.9,1.1,1.7,2.1,2.7,3c1,0.9,2.1,1.5,3.4,1.7c0.3,0.1,0.6,0.1,0.9,0.1c0.1,0,0.3,0,0.5-0.1
		c0.1,0,0.3-0.1,0.4-0.1c0.6-0.2,1.1-0.6,1.4-1.1c0.4-0.5,0.6-1.1,0.7-1.6c0.1-0.6-0.1-1.2-0.5-1.6l-0.9-1l1.2,0.3
		c1.3,0.3,2.6-0.2,3.6-1.1c1-0.9,1.7-2.1,1.9-3.4c0.5-2.7-0.5-5.5-1.4-8.1l-5.6-16.2c-0.5-1.3-0.9-2.7-1.4-4.1
		c-0.4-1.4-0.8-2.8-0.6-4.3c0.2-1.5,0.9-2.8,1.7-4.1c0.8-1.2,1.6-2.4,2.4-3.6c1.6-2.3,3.3-4.7,4.5-7.2c0.6-1.3,1-2.6,1.3-4
		c0.3-1.4,0.1-2.8,0.2-4.2c0.2-2.9,1.3-5.7,2.5-8.2c1.2-2.6,2.6-5.1,3.5-7.7c1-2.7,1.4-5.5,1.4-8.3c0.1-2.8-0.2-5.7-0.5-8.5
		c-0.3-2.8-0.6-5.7-0.7-8.5c-0.1-2.9,0.2-5.7,0.5-8.6c0.3-2.8,0.6-5.7,0.5-8.5c0-1.4-0.2-2.8-0.4-4.2c-0.3-1.4-0.7-2.7-1.2-4
		c-0.5-1.3-1.1-2.6-1.5-4c-0.4-1.4-0.4-2.9-0.3-4.3c0.1-1.4,0.2-2.8,0.3-4.3c0.1-1.4-0.1-2.8-0.4-4.2c-0.5-2.8-1.6-5.4-2.5-8.1
		c-1-2.7-1.7-5.5-2.2-8.3c-0.5-2.8-0.8-5.7-1.2-8.5c-0.4-2.8-1.1-5.6-1.8-8.3c-1.5-5.5-3.6-10.8-5.7-16.1c-0.5-1.3-1-2.7-1.6-3.9
		c-0.6-1.3-1.3-2.5-2.3-3.5c-2-2-4.9-2.8-7.6-3.4l-16.8-3.3c-5.6-1.1-11.3-2-16.6-4.2c-2.6-1.1-5.1-2.5-7.3-4.4
		C129.6,96.5,127.7,94.1,126.8,91.5L126.8,91.5z"/>
</g>
<g>
	<path class="st5" d="M130.8,97.2c4.5,2,11.1,6.6,13.8,10.7c-3.8,0.7-7.3,3-9.6,6.2c3.3,1.9,6.9,3.1,10.6,3.5
		c-8.7,25.3-15.6,51.2-22.5,77.1c-1.2,4.3-2.3,8.6-3,13.1c-1.3,8.1-1,16.4,0.3,24.5"/>
	<path d="M130.8,97.2c2.7,1.2,5.3,2.7,7.7,4.5c1.2,0.9,2.4,1.8,3.4,2.8c0.5,0.5,1.1,1,1.6,1.6c0.5,0.6,1,1.1,1.4,1.8l0.2,0.3
		l-0.4,0.1c-3.8,0.7-7.2,3-9.3,6.2l-0.1-0.6c3.2,1.8,6.8,3,10.5,3.4l0.6,0.1l-0.2,0.6l-2.3,7l-2.3,7c-1.5,4.7-3,9.4-4.4,14.1
		c-2.9,9.4-5.6,18.9-8.2,28.4l-3.9,14.3l-1.9,7.1c-0.6,2.4-1.3,4.8-1.8,7.2c-1.1,4.8-1.7,9.7-1.8,14.6c-0.1,4.9,0.3,9.9,1.1,14.7
		l-0.1,0c-0.8-4.9-1.3-9.8-1.2-14.7c0-4.9,0.6-9.9,1.7-14.7c1.1-4.8,2.4-9.6,3.6-14.3l3.8-14.3c2.6-9.5,5.2-19,7.9-28.5l2.1-7.1
		c0.7-2.4,1.5-4.7,2.2-7.1c1.5-4.7,3-9.4,4.6-14.1l0.4,0.6c-3.8-0.5-7.5-1.7-10.8-3.7l-0.4-0.2l0.2-0.3c2.3-3.3,5.9-5.6,9.8-6.3
		l-0.2,0.4c-0.4-0.6-0.8-1.2-1.3-1.7c-0.5-0.6-1-1.1-1.5-1.6c-1.1-1-2.2-2-3.3-2.9C135.9,100.2,133.4,98.6,130.8,97.2L130.8,97.2z"
		/>
</g>
<g>
	<path class="st6" d="M174.6,112.1c0,0-0.3,0.5-0.7,1.5c-0.4,0.9-1,2.3-1.7,3.9c-0.3,0.8-0.6,1.7-0.9,2.7c-0.3,1-0.6,2-0.8,3
		c-0.5,2.1-0.9,4.4-1.1,6.8c-0.2,2.3-0.3,4.7-0.3,6.8c0,1.1,0,2.2-0.1,3.2c0,1,0,2,0,2.8c0,1.8,0,3.2-0.1,4.3c0,1-0.1,1.6-0.1,1.6
		l-0.1,0c0,0-0.3-2.3-0.6-5.9c-0.1-1.8-0.2-3.8-0.2-6c0.1-2.2,0.2-4.6,0.5-6.9c0.3-2.3,0.7-4.7,1.3-6.8c0.3-1.1,0.6-2.1,1-3
		c0.3-1,0.7-1.8,1.1-2.7c0.7-1.6,1.4-2.9,1.8-3.8C174.3,112.6,174.5,112.1,174.6,112.1L174.6,112.1z"/>
</g>
<g>
	<path class="st6" d="M42.9,135.4c0,0-0.1,1.1-0.2,3.1c-0.1,2-0.1,4.8,0.3,8.1c0.4,3.3,1.2,7.2,2.4,11.2c1.2,4,2.9,8.2,4.3,12.5
		c1.4,4.3,2.4,8.7,3.1,12.9c0.3,2.1,0.6,4.1,0.9,6c0.3,1.9,0.5,3.7,0.7,5.4c0.4,3.3,0.9,6.1,1.3,8c0.2,1,0.3,1.7,0.5,2.2
		c0.1,0.5,0.2,0.8,0.2,0.8l-0.1,0c0,0-0.1-0.3-0.2-0.8c-0.2-0.5-0.4-1.2-0.6-2.2c-0.3-0.9-0.5-2.1-0.8-3.4c-0.3-1.3-0.6-2.9-0.9-4.5
		c-0.3-1.7-0.6-3.5-0.9-5.4c-0.3-1.9-0.6-3.9-0.9-6c-0.6-4.1-1.5-8.5-2.8-12.8c-1.3-4.3-2.9-8.5-4-12.5c-0.6-2-1.1-4-1.5-5.9
		c-0.4-1.9-0.6-3.7-0.8-5.4c-0.3-3.4-0.2-6.2-0.1-8.1C42.6,136.5,42.8,135.3,42.9,135.4L42.9,135.4z"/>
</g>
<g>
	<path class="st6" d="M133.2,213.7c0,0,0,0.2-0.1,0.6c-0.1,0.4-0.1,0.9-0.2,1.6c0,0.7-0.1,1.6,0,2.5c0.1,1,0.3,2.1,0.5,3.3
		c0.5,2.4,1.5,5,2.7,7.8c1.2,2.8,2.5,5.8,3.8,8.8c1.3,3,2.5,6,3.8,8.8c1.2,2.8,2.4,5.4,3.4,7.6c1,2.2,1.9,4,2.6,5.3c0.6,1.3,1,2,1,2
		s-0.4-0.7-1.2-1.9c-0.7-1.2-1.8-3-2.9-5.2c-1.1-2.2-2.4-4.7-3.7-7.5c-1.3-2.8-2.6-5.8-3.9-8.7c-1.2-3-2.5-6-3.6-8.8
		c-1.1-2.8-2-5.6-2.4-8c-0.2-1.2-0.3-2.3-0.3-3.3c0-1,0.1-1.9,0.1-2.6c0.1-0.7,0.2-1.3,0.3-1.6C133.1,213.9,133.2,213.7,133.2,213.7
		z"/>
</g>
<g>
	<path class="st3" d="M85.8,108c-0.9,3,0.6,6.1,2,8.8c0.9,1.6,1.7,3.3,2.6,4.9c-2.1,0.4-4.1,1.7-5.3,3.4c-0.9-3.9-1.3-8-1.2-12
		c0.1-2.4,0.5-5.1,2.4-6.6"/>
	<path class="st4" d="M85.8,108.1c-0.3,1.2-0.3,2.4,0,3.6c0.3,1.2,0.8,2.3,1.3,3.4c0.5,1.1,1.2,2.2,1.8,3.3l1.8,3.3l0.2,0.4
		l-0.4,0.1c-2,0.4-3.9,1.7-5,3.4l-0.5,0.8l-0.2-0.9c-0.4-1.6-0.7-3.2-0.9-4.8c-0.2-1.6-0.3-3.2-0.3-4.9c0-0.8,0-1.6,0.1-2.4
		c0-0.8,0.1-1.6,0.3-2.4c0.2-0.8,0.4-1.6,0.8-2.3c0.4-0.7,1-1.4,1.6-1.8l0.1,0.1c-1.2,1.1-1.7,2.7-1.8,4.2c-0.1,0.8-0.1,1.6-0.1,2.4
		c0,0.8,0,1.6,0.1,2.4c0.1,1.6,0.2,3.2,0.4,4.8c0.2,1.6,0.4,3.2,0.7,4.7l-0.8-0.1c1.3-1.8,3.4-3.1,5.6-3.5l-0.2,0.5
		c-1.1-2.2-2.3-4.4-3.3-6.7c-0.5-1.1-1-2.3-1.2-3.5C85.3,110.5,85.4,109.2,85.8,108.1L85.8,108.1z"/>
</g>
<g>
	<path class="st3" d="M120.5,88.6c2.3-0.9,5,0.4,6.2,2.4c1.2,1.9,1.4,4.3,1.4,6.6c0.1,9.8-1.3,19.6-4.1,29.1
		c-5.1-2.5-11.5-0.3-16.3,2.7c4.5-4.9,9-9.9,12.3-15.5c3.3-5.6,5.4-12.1,4.7-18.4c-0.1-0.7-0.2-1.5-0.7-2c-0.4-0.5-1.1-0.7-1.6-1.1
		c-1.4-0.9-2.2-2.5-2-4"/>
	<path class="st4" d="M120.5,88.5c0.8-0.3,1.8-0.4,2.7-0.2c0.9,0.2,1.7,0.6,2.4,1.2c0.7,0.6,1.3,1.3,1.7,2.2
		c0.4,0.8,0.6,1.7,0.8,2.6c0.1,0.9,0.2,1.8,0.2,2.7c0,0.9,0,1.8,0,2.7c0,1.8-0.1,3.6-0.2,5.4c-0.4,7.2-1.7,14.4-3.7,21.4l-0.1,0.4
		l-0.4-0.2l-1-0.4l-1-0.3c-0.3-0.1-0.7-0.1-1-0.2c-0.3,0-0.7-0.1-1-0.1c-0.7,0-1.4,0-2.1,0.1c-0.7,0.1-1.4,0.2-2.1,0.3
		c-1.4,0.3-2.7,0.8-4,1.4c-1.3,0.6-2.5,1.3-3.7,2l-2.9,1.9l2.3-2.6c2.7-3,5.3-6,7.7-9.1c1.2-1.6,2.4-3.2,3.5-4.8
		c0.5-0.8,1-1.7,1.5-2.5c0.5-0.9,0.9-1.7,1.4-2.6c1.7-3.6,2.8-7.4,3-11.4c0.1-1,0-2,0-3c-0.1-1-0.2-1.9-1-2.5
		c-0.4-0.3-0.8-0.5-1.3-0.8c-0.4-0.3-0.8-0.7-1.1-1.1c-0.6-0.8-0.9-1.9-0.7-2.9l0.1,0c-0.1,1,0.3,2,0.9,2.7c0.3,0.4,0.7,0.7,1.1,1
		c0.4,0.3,0.9,0.5,1.3,0.7c0.5,0.3,0.9,0.7,1,1.2c0.2,0.5,0.3,1,0.3,1.5c0.1,1,0.2,2,0.2,3c0,2-0.3,4.1-0.8,6c-0.2,1-0.5,2-0.9,2.9
		c-0.3,1-0.7,1.9-1.1,2.8c-0.4,0.9-0.9,1.8-1.3,2.7c-0.5,0.9-1,1.8-1.5,2.6c-1.1,1.7-2.2,3.4-3.5,4.9c-2.5,3.2-5.2,6.1-7.9,9.1
		l-0.6-0.7c1.2-0.8,2.5-1.5,3.9-2c1.3-0.6,2.7-1.1,4.2-1.4c0.7-0.2,1.4-0.3,2.2-0.3c0.7-0.1,1.5-0.1,2.2,0c0.4,0,0.7,0.1,1.1,0.1
		c0.4,0.1,0.7,0.1,1.1,0.2l1.1,0.3l1,0.4l-0.5,0.2c2.1-6.9,3.4-14,4-21.3c0.1-1.8,0.2-3.6,0.3-5.4c0-0.9,0-1.8,0-2.7
		c0-0.9,0-1.8-0.2-2.7c-0.1-0.9-0.3-1.8-0.7-2.6c-0.4-0.8-0.9-1.6-1.6-2.1c-0.7-0.6-1.5-1-2.4-1.2C122.3,88.3,121.4,88.3,120.5,88.5
		L120.5,88.5z"/>
</g>
<g>
	<path class="st6" d="M167.2,156c-0.4,5.5-0.1,11,0.5,16.5c0.6,5.5,1.4,11,2.2,16.4c0.4,2.7,0.8,5.5,1.2,8.2l1.2,8.2l2.4,16.4
		c0.4,2.8-0.2,5.7-0.9,8.3c-0.8,2.7-1.6,5.3-2.4,7.9c-1.7,5.3-3.4,10.5-5.2,15.8c-3.6,10.5-7.5,20.8-11.7,31.1l-0.6-0.7l1.5-0.4
		l1.6-0.3l1.6-0.1l1.6,0l1.6,0.2l1.6,0.3l1.5,0.5l1.5,0.6l1.4,0.7l1.4,0.8l1.3,0.9l1.2,1l1.1,1.1l1,1.2l0.8,1.3l0.7,1.4l-0.6,0
		l5.2-11.3c0.9-1.9,1.9-3.7,3-5.5c1.1-1.7,2.5-3.4,4-4.7l0.1,0.1c-1.5,1.4-2.8,3-3.9,4.8c-1.1,1.8-2,3.6-2.8,5.5l-5,11.4l-0.3,0.6
		l-0.3-0.6l-0.7-1.3l-0.8-1.3l-0.9-1.2l-1.1-1.1l-1.1-1l-1.2-0.9l-1.3-0.8l-1.4-0.6l-1.4-0.5l-1.4-0.4l-1.5-0.3l-1.5-0.2l-1.5,0
		l-1.5,0.1l-1.5,0.3l-1.4,0.4l-1,0.3l0.4-1c2.1-5.1,4.1-10.2,6.1-15.4c2-5.2,3.9-10.3,5.7-15.6c1.8-5.2,3.6-10.4,5.3-15.7
		c0.8-2.6,1.7-5.3,2.5-7.9c0.8-2.6,1.3-5.3,1-8l-2.3-16.4l-1.1-8.2c-0.4-2.7-0.8-5.5-1.1-8.2c-0.7-5.5-1.4-11-2-16.5
		C166.9,167,166.6,161.5,167.2,156L167.2,156z"/>
</g>
<path class="st7" d="M155,284.3c0.1,1.5-0.2,3-1,4.3c5.3-0.4,10.7,1.8,14.1,5.8c1.1,1.2,1.9,2.6,2.8,4c0.2,0.2,0.4,0.5,0.7,0.5
	c0.4,0,0.7-0.4,0.9-0.8c0.7-1.7,1.4-3.3,2.2-5c0.1-0.3,0.2-0.5,0.2-0.8c0-0.3-0.2-0.6-0.4-0.8c-4.4-5.7-12.1-8.7-19.2-7.5"/>
<g>
	<path d="M84,323.4c0,0,0.5-0.1,1.3-0.3c0.9-0.2,2-0.6,3.5-1c1.5-0.4,3.2-0.9,5.1-1.1c1-0.1,2-0.1,3,0.1c1,0.2,2,0.5,3,1
		c1.9,0.9,3.4,2.4,4.7,3.8c1.3,1.4,2.3,2.9,3.1,4.2c0.8,1.3,1.5,2.3,2.1,2.9c0.6,0.6,1.1,0.8,1.1,0.8s-0.1-0.1-0.3-0.1
		c-0.2-0.1-0.5-0.3-0.9-0.5c-0.7-0.5-1.6-1.5-2.5-2.7c-0.9-1.2-2-2.6-3.3-3.9c-1.3-1.3-2.8-2.6-4.5-3.5c-0.9-0.4-1.8-0.7-2.7-0.9
		c-0.9-0.2-1.9-0.2-2.8-0.2c-1.8,0.1-3.5,0.4-5,0.7c-1.5,0.3-2.7,0.5-3.6,0.6c-0.4,0.1-0.8,0.1-1,0.1C84.1,323.4,84,323.4,84,323.4z
		"/>
</g>
<g>
	<path d="M138.7,342.7c0,0,0,0.1,0,0.2c0,0.1,0.2,0.3,0.4,0.4c0.2,0.1,0.5,0.2,0.8,0.3c0.3,0.1,0.7,0.2,1.1,0.3
		c1.6,0.4,3.8,0.8,6,0.9c0.6,0.1,1.1,0.1,1.7,0.1c0.5,0,1.1,0,1.6,0.1c1.1,0,2,0.1,2.9,0.1c0.8,0,1.6,0.1,2,0.1
		c0.5,0,0.8,0.1,0.8,0.1s-1.1,0.2-2.8,0.4c-1.7,0.2-4,0.3-6.2,0.1c-1.1-0.1-2.3-0.3-3.3-0.5c-0.5-0.1-1-0.3-1.5-0.4
		c-0.5-0.2-0.9-0.3-1.3-0.5c-0.4-0.2-0.7-0.3-1.1-0.5c-0.3-0.2-0.6-0.3-0.8-0.5c-0.2-0.2-0.3-0.4-0.3-0.5
		C138.7,342.7,138.7,342.7,138.7,342.7z"/>
</g>
<g>
	<path d="M153.7,338.6c0,0,0.9-0.1,2.2-0.2c1.3-0.1,3-0.1,4.8-0.2c1.7-0.1,3.5-0.2,4.8-0.2c1.3-0.1,2.2,0,2.2,0s-0.8,0.3-2.1,0.6
		c-1.3,0.3-3.1,0.6-4.8,0.6c-1.8,0.1-3.5,0-4.9-0.2C154.5,338.8,153.7,338.6,153.7,338.6z"/>
</g>
<g>
	<path d="M83,354.5c0,0,0.4-0.2,1.2-0.6c0.7-0.4,1.8-1,3-1.8c1.2-0.8,2.5-1.8,3.8-2.9c0.7-0.6,1.3-1.2,2-1.9
		c0.7-0.6,1.3-1.4,1.9-2.1c1.3-1.4,2.5-2.9,3.9-4.1c1.3-1.2,2.8-2.2,4.1-2.8c1.3-0.6,2.6-0.8,3.4-0.8c0.4,0,0.8,0,1,0
		c0.2,0,0.3,0,0.3,0s-0.5,0-1.3,0.1c-0.8,0.1-2,0.5-3.2,1.1c-1.2,0.7-2.5,1.7-3.8,2.9c-1.2,1.2-2.5,2.7-3.7,4.2
		c-0.6,0.7-1.3,1.4-2,2.1c-0.7,0.7-1.4,1.3-2.1,1.9c-1.4,1.1-2.9,2-4.1,2.8c-1.3,0.7-2.4,1.2-3.2,1.5C83.5,354.3,83,354.5,83,354.5z
		"/>
</g>
<path class="st7" d="M142.1,302.9c2.3,3.6,6,6.3,10.1,7.5c3.3,1,6.9,0.9,10.3,0.9c2.3,0,4.8-0.2,6.4-1.8"/>
<g>
	<path d="M145.2,312.1c0,0,0.2,0.1,0.5,0.4c0.3,0.3,0.8,0.6,1.3,1c0.3,0.2,0.6,0.4,0.9,0.6c0.3,0.2,0.7,0.4,1,0.6
		c0.7,0.4,1.5,0.8,2.4,1.2c0.8,0.4,1.7,0.7,2.5,0.9c0.4,0.1,0.8,0.2,1.2,0.3c0.4,0.1,0.7,0.2,1.1,0.3c0.7,0.1,1.2,0.2,1.6,0.3
		c0.4,0.1,0.6,0.1,0.6,0.1s-0.2,0-0.6,0.1c-0.4,0.1-1,0.1-1.7,0.1c-0.7,0-1.5-0.1-2.4-0.3c-0.4-0.1-0.9-0.2-1.3-0.4
		c-0.4-0.1-0.9-0.3-1.3-0.5c-0.4-0.2-0.9-0.4-1.3-0.6c-0.4-0.2-0.8-0.5-1.2-0.7c-0.7-0.5-1.4-1.1-1.8-1.6c-0.5-0.5-0.9-1-1.1-1.3
		C145.3,312.3,145.2,312.1,145.2,312.1z"/>
</g>
<g>
	<path class="st8" d="M83.8,277.9c-0.6,2.8-1.2,5.5-1.9,8.3c-0.1,0.4-0.2,0.8-0.1,1.2c0.1,0.4,0.4,0.8,0.8,1.1
		c2,1.8,4.3,3.2,6.6,4.5c1,0.6,2,1.2,3.1,1.6c1.3,0.5,2.8,0.7,4.2,0.9c10.3,1.4,20.8,1.4,31.1,0c7.8-1.1,15.6-3,23.3-4.8
		c-2.4-3.5-4.1-7.5-5.1-11.6c-2.7,0-4.9,1.9-7.3,3.2c-3.3,1.7-7.1,2-10.7,2.3c-4.4,0.4-8.9,0.8-13.3,1.1c-3.2,0.3-6.4,0.5-9.5,0.1
		c-2.4-0.3-4.7-1.1-7.1-1.8c-1.8-0.6-3.5-1.1-5.3-1.7c-1.5-0.5-3-0.9-4.4-1.7c-1.7-0.9-3.1-2.1-4.8-3"/>
	<path d="M83.9,277.9l-1.1,5l-0.5,2.5c-0.1,0.8-0.6,1.7,0,2.4c1.1,1.2,2.6,2.2,4,3.1c1.4,0.9,2.9,1.8,4.4,2.6
		c1.5,0.8,3.1,1.3,4.8,1.6c1.7,0.3,3.4,0.4,5.1,0.6c3.4,0.3,6.8,0.5,10.2,0.5c6.8,0.1,13.6-0.5,20.3-1.6c6.7-1.1,13.3-2.8,19.9-4.4
		l-0.2,0.6c-2.4-3.6-4.2-7.6-5.2-11.7l0.5,0.4c-1.2,0-2.5,0.5-3.6,1.1c-1.2,0.6-2.3,1.4-3.5,2.1c-1.2,0.6-2.6,1.1-3.9,1.4
		c-1.3,0.3-2.7,0.5-4.1,0.7c-2.7,0.3-5.4,0.5-8.1,0.7l-8.1,0.6c-2.7,0.2-5.4,0.4-8.2,0.2c-2.8-0.2-5.4-1.1-8-1.9l-3.9-1.3
		c-1.3-0.4-2.6-0.8-3.9-1.3c-1.3-0.5-2.5-1.1-3.6-1.9c-1.1-0.8-2.2-1.6-3.4-2.2l0-0.1c1.2,0.6,2.4,1.4,3.5,2.1
		c1.1,0.7,2.4,1.3,3.6,1.7c1.3,0.4,2.6,0.8,3.9,1.2l3.9,1.2c2.6,0.8,5.2,1.5,7.9,1.7c2.7,0.2,5.4,0,8.1-0.3l8.1-0.8
		c2.7-0.2,5.4-0.4,8.1-0.7c1.3-0.1,2.7-0.3,4-0.7c1.3-0.3,2.5-0.7,3.7-1.3c1.2-0.6,2.3-1.4,3.5-2c1.2-0.7,2.6-1.2,4.1-1.2l0.4,0
		l0.1,0.4c1,4.1,2.7,8,5,11.5l0.3,0.5L151,291c-6.6,1.6-13.3,3.2-20,4.3c-6.7,1.1-13.6,1.6-20.4,1.5c-3.4-0.1-6.8-0.3-10.2-0.6
		c-1.7-0.2-3.4-0.4-5.1-0.7c-1.7-0.3-3.4-0.8-4.9-1.7c-1.5-0.8-2.9-1.7-4.4-2.6c-1.4-1-2.8-1.9-4-3.2c-0.3-0.4-0.4-0.9-0.3-1.3
		c0.1-0.4,0.2-0.8,0.3-1.3l0.6-2.5L83.9,277.9L83.9,277.9z"/>
</g>
<g>
	<path class="st1" d="M98.1,296c-0.8-1.5-0.8-3.3-0.8-5c0-2.4,0-5.1,1.5-7c-0.5-0.5-1.3-1-2-0.9c-0.6,0.1-1.1,0.6-1.4,1.2
		c-0.4,0.9-0.6,1.8-0.7,2.8c-0.4,3-0.6,6-0.1,9C95.8,296.3,97,296.3,98.1,296"/>
	<path d="M98.1,296.1c-0.5-0.9-0.7-2-0.8-3c-0.1-1-0.1-2.1-0.2-3.1c0-1,0-2.1,0.2-3.1c0.2-1,0.6-2.1,1.2-3l0,0.4
		c-0.5-0.4-1-0.8-1.6-0.8c-0.5,0-0.9,0.4-1.2,0.9c-0.6,1.1-0.6,2.4-0.7,3.8c-0.1,1.3-0.2,2.6-0.3,4c-0.1,1.3,0,2.6,0.1,4l-0.3-0.3
		C95.8,296.1,97,296.1,98.1,296.1L98.1,296.1c-1.1,0.4-2.3,0.5-3.5,0.4l-0.2,0l-0.1-0.2c-0.3-1.3-0.4-2.7-0.4-4.1
		c0-1.4,0.1-2.7,0.2-4.1c0.1-0.7,0.2-1.3,0.3-2c0.1-0.7,0.3-1.4,0.7-2c0.2-0.3,0.4-0.6,0.8-0.9c0.3-0.2,0.8-0.4,1.2-0.4
		c0.4,0,0.8,0.2,1.1,0.4c0.3,0.2,0.6,0.4,0.9,0.7l0.2,0.2l-0.2,0.2c-0.6,0.8-1,1.7-1.2,2.7c-0.2,1-0.3,2-0.3,3c0,1-0.1,2.1,0,3.1
		C97.6,294.1,97.8,295.1,98.1,296.1L98.1,296.1z"/>
</g>
<g>
	<path class="st1" d="M125.4,283.9c-1.1,3.7-1.2,7.8-0.3,11.6c0.1,0.4,0.2,0.8,0.6,1c0.2,0.1,0.4,0.1,0.7,0.1c1,0,1.9-0.2,2.8-0.5
		c-0.1-0.7-0.4-1.4-0.5-2.1c-0.7-2.7-0.6-5.5-0.5-8.3c0-0.7,0-1.5,0.3-2.2c-1.1-0.3-2.3,0-3.1,0.7"/>
	<path d="M125.5,283.9c-0.7,2.6-0.9,5.4-0.7,8.1c0.1,0.7,0.2,1.3,0.3,2c0.1,0.3,0.1,0.7,0.2,1c0.1,0.3,0.2,0.7,0.3,0.9
		c0.1,0.2,0.3,0.3,0.6,0.3c0.3,0,0.7,0,1,0c0.7-0.1,1.3-0.2,1.9-0.4l-0.3,0.5l-0.4-1.5c-0.1-0.5-0.3-1-0.4-1.6
		c-0.2-1.1-0.3-2.2-0.4-3.2c0-1.1,0-2.2,0.1-3.2c0.1-1.1,0.1-2.2,0.4-3.2l0.2,0.4c-0.9-0.4-2.1-0.2-3,0.5l-0.1-0.1
		c0.7-0.9,2-1.3,3.2-1l0.3,0.1l-0.1,0.3c-0.2,1-0.1,2-0.1,3.1c0,1.1,0,2.1,0.1,3.2c0,1,0.1,2.1,0.3,3.1c0.1,0.5,0.2,1,0.3,1.5
		l0.4,1.6l0.1,0.3l-0.3,0.1c-0.7,0.2-1.4,0.4-2.1,0.4c-0.4,0-0.7,0-1.1,0c-0.2,0-0.4-0.1-0.6-0.2c-0.2-0.1-0.4-0.3-0.5-0.5
		c-0.2-0.4-0.2-0.7-0.3-1.1c-0.1-0.3-0.1-0.7-0.2-1c-0.1-0.7-0.2-1.4-0.2-2.1C124.2,289.3,124.5,286.5,125.5,283.9L125.5,283.9z"/>
</g>
<path class="st9" d="M155.2,288.1c-3.4,2.1-7.7,1.9-11.4,3.3c-5.7,2.1-9.4,7.4-14.4,10.8c-1.2,0.8-2.6,1.6-3.5,2.8
	c-0.9,1.2-1.1,3.1,0,4.1c0.9,0.8,2.3,0.7,3.5,0.4c4.3-1.2,7.4-5.3,11.7-6.3c0.5-0.1,1.1-0.2,1.6,0.1c0.3,0.2,0.5,0.7,0.7,1
	c0.4,0.9,1,1.7,1.8,2.4c0.6,0.5,1.2,0.9,1.9,1.3c4.8,2.8,10.4,3.9,15.9,3.3c0.9-0.1,1.9-0.3,2.7-0.8c1.3-0.8,1.8-2.4,2.3-3.8
	c0.9-2.5,1.7-5.1,2.6-7.6c0.2-0.5,0.3-1,0.1-1.4c-0.1-0.4-0.5-0.6-0.8-0.9c-1.1-1-1.6-2.5-2.5-3.6c-1-1.2-2.4-1.9-3.8-2.6
	c-2.6-1.3-5.4-2.7-8.3-2.4"/>
<path class="st7" d="M145.3,297.9c-0.5,1.8-1.4,3.4-2.6,4.8"/>
<g>
	<path class="st6" d="M191.5,158.6c0,0-0.1,0.8-0.6,2c-0.2,0.6-0.6,1.2-1.1,1.9c-0.2,0.3-0.5,0.6-0.8,0.9c-0.3,0.3-0.6,0.6-0.9,0.9
		c-0.6,0.5-1.3,1-2,1.4c-0.7,0.4-1.4,0.6-2,0.8c-0.6,0.2-1.1,0.3-1.5,0.3c-0.4,0-0.6,0-0.6,0s0.8-0.3,1.8-0.9
		c1.1-0.6,2.4-1.4,3.5-2.5c0.3-0.2,0.6-0.5,0.8-0.8c0.3-0.3,0.5-0.5,0.8-0.8c0.5-0.6,0.9-1.1,1.2-1.6
		C191.1,159.3,191.5,158.6,191.5,158.6z"/>
</g>
<g>
	<path class="st6" d="M172.7,185c0,0,0.2-0.2,0.6-0.5c0.4-0.3,1-0.7,1.7-1.2c1.4-1,3.3-2.2,5.2-3.3c1.9-1.1,3.9-2.2,5.4-3
		c0.7-0.4,1.4-0.7,1.8-1c0.4-0.2,0.7-0.4,0.7-0.4s-0.8,0.8-2.2,1.8c-1.4,1-3.2,2.3-5.2,3.4c-1.9,1.1-3.9,2.2-5.4,2.9
		c-0.8,0.4-1.4,0.7-1.9,0.9C172.9,184.9,172.7,185,172.7,185z"/>
</g>
<g>
	<path class="st6" d="M174.6,217.7c0,0,0.3,0.1,0.7,0c0.5,0,1.1-0.2,1.7-0.6c0.6-0.4,1.3-1,2-1.7c0.4-0.4,0.7-0.7,1.1-1.1
		c0.2-0.2,0.4-0.3,0.7-0.5c0.2-0.2,0.5-0.3,0.7-0.5c2-1.1,4.2-1.4,5.8-1.5c1.6-0.1,2.7,0,2.7,0s-0.3,0.1-0.7,0.2
		c-0.5,0.1-1.1,0.3-1.9,0.4c-1.5,0.4-3.6,0.8-5.4,1.8c-0.2,0.1-0.4,0.3-0.6,0.4c-0.2,0.1-0.4,0.3-0.6,0.4c-0.4,0.3-0.8,0.6-1.1,1
		c-0.7,0.7-1.5,1.3-2.3,1.6c-0.8,0.3-1.5,0.4-2,0.3c-0.2,0-0.4-0.1-0.5-0.1C174.7,217.7,174.6,217.7,174.6,217.7z"/>
</g>
<g>
	<path class="st6" d="M173.9,213.8c0,0,0.2,0,0.4-0.1c0.3-0.1,0.7-0.2,1.1-0.4c0.4-0.2,0.9-0.5,1.3-0.8c0.5-0.3,0.9-0.8,1.3-1.2
		c0.2-0.2,0.4-0.5,0.6-0.7c0.2-0.2,0.4-0.5,0.6-0.7c0.3-0.5,0.7-0.9,1-1.3c0.6-0.8,1-1.3,1-1.3s-0.1,0.7-0.5,1.6
		c-0.2,0.5-0.4,1-0.7,1.5c-0.2,0.3-0.3,0.6-0.5,0.8c-0.2,0.3-0.4,0.5-0.6,0.8c-0.5,0.5-1,0.9-1.6,1.3c-0.6,0.3-1.1,0.5-1.6,0.6
		c-0.5,0.1-0.9,0.1-1.2,0C174.1,213.8,173.9,213.8,173.9,213.8z"/>
</g>
<g>
	<path class="st6" d="M195.7,245.4c0,0-0.3-0.1-0.7,0c-0.2,0.1-0.4,0.2-0.7,0.4c-0.2,0.2-0.5,0.5-0.7,0.7c-0.5,0.6-1.1,1.3-1.7,2
		c-0.6,0.8-1.3,1.6-2,2.4c-0.4,0.4-0.8,0.8-1.2,1.1c-0.4,0.4-0.8,0.7-1.3,0.9c-0.9,0.6-1.8,0.9-2.5,1.1c-0.7,0.3-1.3,0.6-1.6,0.9
		c-0.3,0.3-0.4,0.6-0.4,0.6s0-0.1,0-0.2c0-0.1,0.1-0.3,0.2-0.5c0.2-0.4,0.7-0.9,1.5-1.3c0.7-0.4,1.5-0.8,2.3-1.4
		c0.4-0.3,0.7-0.6,1.1-0.9c0.4-0.3,0.7-0.7,1.1-1.1c0.7-0.7,1.4-1.5,2.1-2.3c0.7-0.7,1.4-1.4,2-1.9c0.3-0.2,0.6-0.5,0.9-0.6
		c0.3-0.2,0.6-0.2,0.8-0.3C195.4,245.2,195.7,245.4,195.7,245.4z"/>
</g>
<g>
	<path class="st6" d="M152.3,163.3c0,0,0,0.7,0,1.8c0,1.1-0.1,2.8-0.1,4.7c-0.1,2-0.1,4.3,0,6.7c0,2.4,0.1,5.1,0.4,7.6
		c0.4,5.2,1.6,10.3,2.9,14c0.7,1.8,1.3,3.3,1.8,4.4c0.5,1,0.8,1.6,0.8,1.6s-0.1-0.1-0.3-0.4c-0.2-0.3-0.4-0.6-0.7-1.1
		c-0.3-0.5-0.6-1.1-1-1.8c-0.4-0.7-0.8-1.5-1.2-2.4c-0.8-1.8-1.6-4-2.1-6.4c-0.6-2.4-1-5-1.3-7.7c-0.2-2.6-0.3-5.3-0.2-7.7
		c0-2.5,0.2-4.8,0.4-6.7c0.1-2,0.3-3.6,0.5-4.7C152.3,164,152.3,163.3,152.3,163.3z"/>
</g>
<g>
	<path class="st6" d="M43,189.7c0,0,0.5-0.5,1.3-1.2c0.7-0.7,1.7-1.7,2.4-2.8c0.2-0.3,0.4-0.5,0.6-0.8c0.1-0.2,0.2-0.3,0.4-0.4
		c0.1-0.1,0.1-0.1,0.3-0.2l0.2-0.1c0.4-0.2,0.7-0.3,1-0.4c0.3-0.1,0.6-0.1,0.8-0.1c0.5-0.1,0.9-0.2,1.1-0.3c0.2-0.2,0.4-0.3,0.4-0.3
		c0,0,0,0.2-0.2,0.5c-0.2,0.3-0.6,0.6-1.1,0.7c-0.2,0.1-0.5,0.2-0.8,0.3c-0.3,0.1-0.5,0.2-0.7,0.4l-0.2,0.2c0,0-0.1,0.1-0.1,0.1
		c-0.1,0.1-0.2,0.2-0.3,0.4c-0.2,0.3-0.4,0.6-0.6,0.9c-0.8,1.2-2,2.1-2.9,2.7C43.7,189.5,43,189.7,43,189.7z"/>
</g>
<g>
	<path class="st10" d="M100.5,248.4l-41.1,5.1c-2.8,0.4-5.7-0.5-7.8-2.4l-43-37.4c-1.2-1.1-0.6-3.1,1-3.3L48,205
		c3.2-0.5,6.4,0.5,8.8,2.6l44.5,38.2C102.4,246.6,101.9,248.3,100.5,248.4z"/>
	<path d="M100.5,248.5c0,0-13.7,1.7-34.4,4.3c-1.3,0.2-2.6,0.3-3.9,0.5c-0.7,0.1-1.3,0.2-2,0.3c-0.7,0.1-1.4,0.2-2.1,0.2
		c-1.4,0-2.9-0.3-4.2-0.9c-0.7-0.3-1.3-0.7-1.9-1.1c-0.6-0.5-1.1-1-1.7-1.4c-4.5-3.9-9.3-8-14.2-12.2c-4.9-4.2-10-8.6-15.1-13.1
		c-2.6-2.2-5.2-4.5-7.8-6.7c-1.3-1.1-2.6-2.3-3.9-3.4c-0.3-0.3-0.6-0.5-1-0.9c-0.1-0.1-0.4-0.4-0.5-0.6c-0.1-0.2-0.2-0.5-0.2-0.7
		c-0.1-1,0.5-2.1,1.6-2.4c0.3-0.1,0.5-0.1,0.7-0.1l0.6-0.1l1.3-0.2l2.6-0.4c1.7-0.2,3.4-0.5,5.1-0.7c3.4-0.5,6.8-1,10.2-1.5
		c3.4-0.5,6.7-1,10-1.4c1.7-0.2,3.3-0.5,4.9-0.7c0.8-0.1,1.6-0.2,2.4-0.3c0.8-0.1,1.6-0.2,2.5-0.2c1.7,0,3.4,0.4,4.9,1.1
		c0.8,0.3,1.5,0.8,2.1,1.3c0.7,0.5,1.2,1,1.8,1.5c2.4,2,4.7,4,6.9,6c4.5,3.9,8.7,7.6,12.6,11c7.8,6.8,14.3,12.6,18.9,16.5
		c1.1,1,2.2,1.9,3.1,2.6c0.4,0.4,0.9,0.7,1.2,1.1c0.4,0.3,0.7,0.7,0.7,1.1c0.1,0.9-0.4,1.4-0.8,1.6
		C100.8,248.5,100.5,248.5,100.5,248.5z M100.5,248.4c0,0,0.2,0,0.6-0.2c0.3-0.2,0.8-0.7,0.7-1.5c-0.1-0.4-0.3-0.8-0.7-1.1
		c-0.4-0.3-0.8-0.7-1.2-1.1c-0.9-0.8-1.9-1.6-3.1-2.6c-4.6-3.9-11.3-9.5-19.2-16.2c-4-3.4-8.3-7-12.8-10.8c-2.3-1.9-4.6-3.9-7-5.9
		c-0.6-0.5-1.2-1-1.8-1.5c-0.6-0.5-1.3-0.8-1.9-1.2c-1.4-0.6-2.9-1-4.5-1c-0.8,0-1.5,0.1-2.4,0.2c-0.8,0.1-1.6,0.2-2.4,0.3
		c-1.6,0.2-3.3,0.5-4.9,0.7c-3.3,0.5-6.7,0.9-10,1.4c-6.7,0.9-13.6,1.9-20.4,2.9c-0.7,0.2-1.1,0.9-1,1.6c0,0.2,0.1,0.3,0.1,0.5
		c0.1,0.2,0.1,0.2,0.3,0.4c0.3,0.3,0.6,0.6,0.9,0.8c1.3,1.1,2.6,2.3,3.9,3.4c2.6,2.3,5.2,4.5,7.7,6.8c5.1,4.5,10.2,8.9,15.1,13.2
		c4.9,4.3,9.6,8.4,14.1,12.3c0.6,0.5,1.1,1,1.7,1.4c0.6,0.4,1.2,0.8,1.8,1.1c1.3,0.6,2.7,0.9,4,0.9c1.4,0,2.7-0.3,4.1-0.4
		c1.3-0.2,2.7-0.3,3.9-0.5C86.8,250,100.5,248.4,100.5,248.4z"/>
</g>
<g>
	<path d="M119,338.8c0,0-0.1,0-0.4-0.1c-0.2-0.1-0.5-0.3-0.8-0.7c-0.5-0.7-1.2-1.8-1.8-3.2c-0.6-1.4-1.3-3.1-1.8-4.9
		c-0.5-1.9-0.8-3.9-1.1-5.9c-0.2-2-0.3-4.1-0.3-6c0-1.9,0.1-3.7,0.1-5.2c0-1.5,0.1-2.8,0.2-3.7c0-0.9,0.1-1.4,0.1-1.4
		s0.1,0.5,0.1,1.4c0.1,0.9,0.2,2.2,0.2,3.7c0.1,1.5,0.1,3.3,0.2,5.2c0.1,1.9,0.2,3.9,0.4,5.9c0.2,2,0.5,4,0.9,5.8
		c0.4,1.8,0.9,3.5,1.5,4.9c0.3,0.7,0.5,1.3,0.8,1.9c0.2,0.6,0.5,1,0.7,1.4c0.2,0.4,0.4,0.6,0.6,0.8C118.9,338.8,119,338.8,119,338.8
		z"/>
</g>
<path class="st2" d="M124.7,88.6c0.1,1.2,0.1,2.4,0.2,3.6c0,0.7,0.1,1.4-0.2,2.1s-0.8,1.3-1.5,1.3c-0.8,0.1-1.4-0.5-1.9-1.1
	c-1.1-1.4-1.7-3.1-1.8-4.8c0-0.6,0-1.2,0.3-1.6c0.6-0.8,1.7-0.8,2.6-0.8c0.3,0,0.7,0,1,0.2C124,87.6,124.3,88.2,124.7,88.6"/>
<path class="st2" d="M85.3,107.3c0.3,0.9,0.4,1.8,0.5,2.7c0.1,0.1,0.3,0,0.4-0.1s0.2-0.2,0.2-0.3c0.6-1.1,0.6-2.5,0.6-3.8
	c-0.8-0.1-1.5,0.5-1.7,1.3"/>
<g>
	<path d="M125.5,86.6c0,0,0.2,0.7,0.2,1.8c0,0.5,0,1.1-0.1,1.8c-0.1,0.6-0.2,1.3-0.4,2c-0.2,1.4-0.4,2.7-0.4,3.7c0,1,0,1.7,0,1.7
		l-0.1,0c0,0-0.2-0.7-0.3-1.7c-0.1-1-0.1-2.4,0-3.8c0-0.7,0-1.4,0.1-2c0.1-0.6,0.2-1.2,0.4-1.7C125.1,87.3,125.4,86.6,125.5,86.6
		L125.5,86.6z"/>
</g>
<g>
	<path class="st2" d="M129.2,78c-1.2,4.7-3.5,10.1-4.1,15c-2.1,4.2-22.5,13.7-25.9,15.5c-3.4,1.8-7.4,3.1-11.2,2.2
		c-1.8-0.5-16.9-16.6-17.2-25.3c0-1.1,0-2.1,0-3.2c0-3,0.1-6,0.1-9l-0.2-1.8c0.1-5.3-1.8-10.4-2.4-15.6c-1-8.6,1.5-17.3,4.1-25.6
		c14.5-11.6,35.4-12.9,51-2.9c3.6,2.3,6.9,5.2,9,8.9c2,3.6,2.7,7.8,3,11.9c0.7,10.4-1.3,20.8-5.5,30.2L129.2,78z"/>
	<path d="M129.3,78c-0.7,2.5-1.5,4.9-2.2,7.4c-0.8,2.5-1.4,5-1.7,7.6l0,0l0,0c-0.4,0.8-1.1,1.4-1.8,2c-0.7,0.6-1.4,1.1-2.1,1.6
		c-1.5,1-3,2-4.5,2.9c-3.1,1.8-6.2,3.5-9.4,5.1l-4.8,2.4c-1.6,0.8-3.2,1.6-4.8,2.4c-1.6,0.7-3.3,1.3-5.1,1.6
		c-0.9,0.1-1.8,0.2-2.7,0.2c-0.5,0-0.9-0.1-1.4-0.2l-0.7-0.2c-0.2-0.1-0.5-0.2-0.6-0.4c-1.4-1.1-2.7-2.4-3.9-3.7
		c-1.2-1.3-2.4-2.7-3.5-4c-2.3-2.8-4.4-5.6-6.2-8.7c-0.9-1.6-1.7-3.2-2.3-4.9c-0.3-0.8-0.6-1.7-0.7-2.6c-0.2-0.9-0.2-1.8-0.2-2.7
		l0.2-10.7l0,0l-0.2-1.8l0,0l0,0c0-3.5-0.8-6.9-1.5-10.3c-0.4-1.7-0.7-3.4-0.9-5.2c-0.1-0.9-0.2-1.7-0.2-2.6c-0.1-0.9,0-1.8,0-2.7
		c0.1-3.5,0.7-7,1.4-10.4C70,36.7,71,33.3,72,30l0-0.1l0.1-0.1c3.6-2.9,7.7-5.3,12.1-6.9c4.4-1.6,9-2.6,13.7-2.8
		c4.7-0.2,9.4,0.3,13.9,1.5c2.3,0.6,4.5,1.4,6.6,2.4c2.1,1,4.2,2.1,6.1,3.4c1.9,1.3,3.8,2.8,5.4,4.5c1.6,1.7,2.9,3.7,3.8,5.9
		c0.9,2.2,1.5,4.5,1.8,6.8c0.3,2.3,0.5,4.6,0.5,6.9c0,4.6-0.4,9.3-1.4,13.8c-1,4.5-2.5,8.9-4.5,13.1l0,0.1l-0.1,0L129.3,78z
		 M129.2,77.9l0.7,0.3l-0.1,0c1.9-4.2,3.3-8.6,4.2-13.1c0.9-4.5,1.3-9.1,1.3-13.7c0-2.3-0.2-4.6-0.5-6.9c-0.3-2.3-0.9-4.5-1.8-6.6
		c-1.8-4.2-5.2-7.5-9-9.9c-3.8-2.5-8-4.4-12.4-5.6c-4.4-1.2-9-1.7-13.6-1.4c-4.6,0.2-9.1,1.2-13.4,2.7c-4.3,1.6-8.3,3.8-11.9,6.7
		l0.1-0.2c-1,3.3-2,6.7-2.8,10.1c-0.8,3.4-1.4,6.8-1.5,10.3c0,0.9,0,1.7,0,2.6c0,0.8,0.1,1.7,0.2,2.6c0.2,1.7,0.5,3.4,0.9,5.1
		c0.7,3.4,1.5,6.9,1.5,10.4l0-0.1l0.2,1.8l0,0l0,0l-0.2,10.7c0,0.9,0,1.8,0.1,2.6c0.1,0.9,0.4,1.7,0.7,2.5c0.6,1.7,1.4,3.2,2.3,4.8
		c1.8,3.1,3.9,5.9,6.1,8.7c1.1,1.4,2.3,2.7,3.5,4c1.2,1.3,2.4,2.6,3.8,3.7c0.2,0.1,0.3,0.2,0.5,0.3l0.6,0.1c0.4,0.1,0.9,0.1,1.3,0.2
		c0.9,0.1,1.7,0,2.6-0.1c1.7-0.3,3.4-0.8,5-1.6c1.6-0.7,3.2-1.6,4.8-2.3l4.8-2.4c3.2-1.6,6.3-3.3,9.4-5c1.5-0.9,3.1-1.8,4.5-2.8
		c0.7-0.5,1.5-1,2.1-1.6c0.7-0.6,1.3-1.2,1.8-1.9l0,0c0.3-2.6,1-5.1,1.8-7.6C127.7,82.9,128.5,80.5,129.2,77.9L129.2,77.9z"/>
</g>
<g>
	<path class="st11" d="M99.8,63.7c0.8-1,1.7-1.4,2.8-2.1c0.3-0.2,0.9-0.4,1.2-0.5c0.4-0.1,1-0.3,1.4-0.4c1.4-0.1,1.7-0.6,3-0.3
		c0.6,0.1,1.3,0.3,1.8,0.5c1.3,0.3,2.2,1.3,3.2,2c0.1,0,0.2,0.2,0.1,0.3c0,0.1-0.1,0.2-0.1,0.2c-1,1.1-2.1,2.1-3.4,2.9
		c-0.5,0.3-0.9,0.6-1.5,0.7c-0.6,0.2-1.4,0.3-2,0.3c-3.4,0.3-5.1-0.5-7.6-0.9c-0.1,0-0.2,0-0.3-0.1c0-0.1,0-0.2,0.1-0.3
		C99,65.2,99.4,64.4,99.8,63.7z"/>
	<path d="M99.8,63.7c0.4-0.5,0.9-0.9,1.4-1.3l0.8-0.5c0.3-0.2,0.5-0.4,0.8-0.5c0.6-0.3,1.2-0.5,1.8-0.7c0.3-0.1,0.7-0.1,1-0.2
		c0.3-0.1,0.6-0.1,0.9-0.2c0.3-0.1,0.6-0.2,1-0.2c0.3,0,0.7,0,1,0.1l1.9,0.5c0.7,0.2,1.2,0.6,1.7,1l0.8,0.6l0.4,0.3
		c0.1,0,0.1,0.1,0.2,0.2c0.1,0.1,0.2,0.2,0.1,0.4l0-0.1c0,0.3-0.2,0.4-0.3,0.5l-0.3,0.4c-0.2,0.2-0.5,0.5-0.7,0.7
		c-0.5,0.5-1,0.9-1.6,1.3c-0.6,0.4-1.1,0.7-1.8,1c-0.7,0.2-1.3,0.3-2,0.4c-1.3,0.1-2.7,0.1-4-0.1c-1.3-0.2-2.6-0.6-3.9-0.9l0,0
		c-0.1,0-0.2,0-0.3-0.2c0-0.1,0-0.2,0.1-0.3l0,0L99.8,63.7z M99.8,63.7l-1.2,2.2l0,0l0,0c-0.1,0.1-0.1,0.2-0.1,0.2
		c0,0.1,0.1,0.1,0.2,0.1l0,0l0,0c1.3,0.2,2.6,0.6,3.9,0.8c1.3,0.2,2.7,0.2,4,0c0.7-0.1,1.3-0.2,1.9-0.4c0.6-0.2,1.2-0.6,1.7-1
		c0.5-0.4,1-0.8,1.5-1.3c0.2-0.2,0.5-0.5,0.7-0.7l0.3-0.4c0.1-0.1,0.2-0.3,0.2-0.3l0-0.1c0,0.1-0.4-0.3-0.6-0.4l-0.8-0.6
		c-0.5-0.4-1-0.7-1.6-0.9l-1.8-0.5c-0.6-0.2-1.2-0.2-1.8,0c-0.3,0.1-0.6,0.1-1,0.2c-0.3,0-0.6,0.1-0.9,0.1c-0.6,0.1-1.2,0.3-1.8,0.6
		c-0.3,0.1-0.5,0.3-0.8,0.5c-0.3,0.2-0.5,0.3-0.8,0.5C100.7,62.9,100.2,63.3,99.8,63.7z"/>
</g>
<g>
	<path class="st12" d="M98.8,63.2c0,0,0.1-0.1,0.3-0.3s0.4-0.5,0.8-0.9c0.4-0.3,0.8-0.7,1.2-1.1c0.5-0.4,1-0.8,1.6-1.1
		c0.3-0.2,0.6-0.3,0.9-0.4s0.6-0.2,0.9-0.3c0.6-0.1,1.2-0.2,1.7-0.2c1,0,1.6,0.1,1.6,0.1v0c0,0-0.2,0-0.4,0c-0.3,0-0.7,0.1-1.1,0.1
		c-0.2,0-0.5,0-0.8,0.1c-0.3,0-0.6,0.1-0.8,0.2c-0.3,0-0.6,0.1-0.9,0.3c-0.3,0.1-0.6,0.2-0.9,0.4c-1.1,0.6-2.2,1.4-2.8,2
		c-0.4,0.3-0.6,0.6-0.8,0.8C99,63.1,98.9,63.2,98.8,63.2L98.8,63.2z"/>
</g>
<g>
	<path class="st12" d="M115.2,63.1c0,0,0,0.2,0.1,0.5c0,0.3,0,0.7,0,1.1c0,0.2-0.1,0.4-0.1,0.6c0,0.2-0.1,0.3-0.2,0.5
		c-0.2,0.3-0.3,0.4-0.3,0.4h0c0,0,0-0.2,0.1-0.5c0-0.1,0.1-0.3,0.1-0.5c0-0.2,0.1-0.3,0.2-0.5c0.1-0.3,0.2-0.7,0.2-1
		C115.2,63.2,115.1,63.1,115.2,63.1L115.2,63.1z"/>
</g>
<g>
	<path class="st12" d="M85.5,57.9c0,0,0.1,0.1,0.2,0.3c0.2,0.2,0.3,0.5,0.6,1c0.2,0.4,0.5,1,0.7,1.6c0.2,0.6,0.4,1.4,0.5,2.2
		c0.1,0.8,0,1.7-0.1,2.6c-0.1,0.9-0.3,1.9-0.5,2.9c-0.2,1-0.5,2-0.9,3c-0.4,1-0.8,2-1.3,3c-1,1.9-2.2,3.8-3.4,5.5
		c-0.6,0.8-1.2,1.6-1.5,2.4c-0.1,0.2-0.2,0.4-0.2,0.6c0,0.2-0.1,0.4-0.1,0.6c0,0.4,0.2,0.8,0.3,1.2c0.3,0.7,0.9,1.3,1.4,1.5
		c0.6,0.3,1.2,0.4,1.7,0.4c0.5,0,0.9-0.1,1.1-0.2c0.1,0,0.2-0.1,0.3-0.1c0.1,0,0.1,0,0.1,0v0c0,0-0.1,0-0.1,0
		c-0.1,0-0.2,0.1-0.3,0.1c-0.3,0.1-0.6,0.2-1.1,0.2c-0.5,0-1.1,0-1.8-0.3s-1.3-0.8-1.7-1.6c-0.2-0.4-0.3-0.8-0.4-1.3
		c0-0.2,0-0.5,0-0.7c0.1-0.2,0.1-0.5,0.2-0.7c0.3-1,1-1.7,1.6-2.6c1.2-1.6,2.4-3.4,3.4-5.4c0.5-1,1-1.9,1.3-2.9c0.4-1,0.7-2,0.9-2.9
		c0.2-1,0.4-1.9,0.6-2.8s0.2-1.8,0.2-2.6c-0.1-0.8-0.2-1.5-0.4-2.1c-0.2-0.6-0.5-1.2-0.7-1.6c-0.2-0.4-0.4-0.8-0.5-1
		C85.5,58.1,85.5,58,85.5,57.9L85.5,57.9z"/>
</g>
<path class="st11" d="M86.9,91.9c0.3,0.9,1.4,1.5,1.4,2.4c0,0.4-0.2,0.9,0.2,1.1c0.1,0.1,0.3,0.1,0.4,0.1c0.8,0.1,1.6,0.2,2.4,0.3
	c0.3,0,0.6,0.1,0.9,0c0.3,0,0.5-0.2,0.8-0.3c0.5-0.2,1.1-0.1,1.7-0.2c0.3-0.1,0.6-0.2,0.9-0.4c2.3-1.4,4.8-3,5.7-5.5
	c-1.2,0.1-2.3,0.8-3.5,1.2c-0.5,0.2-1.1,0.3-1.6,0.4C93.1,91.6,90.1,91.9,86.9,91.9"/>
<g>
	<path class="st12" d="M89.6,81.3"/>
</g>
<g>
	<path class="st12" d="M84.2,90.3c0,0,0.1,0,0.2,0.1c0.1,0.1,0.3,0.2,0.6,0.4c0.3,0.1,0.6,0.3,1,0.4c0.4,0.1,0.8,0.2,1.3,0.2
		c1,0.1,2.1,0,3.4,0c0.6,0,1.3,0,1.9-0.1c0.7,0,1.3-0.1,1.9-0.3l0.3,0c0.1,0,0.2,0,0.2,0l0.5-0.1c0.3-0.1,0.7-0.2,1-0.3
		c0.6-0.2,1.2-0.4,1.8-0.6c1.2-0.4,2.3-0.8,3.2-1.2c0.9-0.3,1.7-0.7,2.2-0.9c0.5-0.2,0.8-0.4,0.8-0.4s-0.1,0-0.2,0.1
		c-0.1,0.1-0.3,0.2-0.6,0.4c-0.5,0.3-1.2,0.8-2.1,1.3c-0.9,0.5-2,1-3.1,1.4c-0.3,0.1-0.6,0.2-0.9,0.3c-0.2,0-0.3,0.1-0.5,0.2
		l-0.3,0.1l-0.3,0.1c-0.3,0.1-0.6,0.2-1,0.3L95,92c-0.1,0-0.2,0-0.3,0.1l-0.3,0c-0.7,0.1-1.4,0.2-2.1,0.3c-0.7,0-1.3,0-2,0
		c-0.7,0-1.2,0-1.8-0.1s-1.2-0.1-1.7-0.2c-0.5-0.1-1-0.2-1.4-0.4c-0.4-0.2-0.7-0.4-0.9-0.6c-0.2-0.2-0.4-0.4-0.5-0.5
		C84.2,90.4,84.2,90.3,84.2,90.3z"/>
</g>
<g>
	<path class="st12" d="M85.9,91.3c0,0,0.1,0,0.2,0.1c0.1,0,0.3,0.1,0.5,0.3s0.4,0.3,0.6,0.5c0.2,0.2,0.4,0.5,0.6,0.7
		c0.1,0.1,0.2,0.3,0.2,0.4c0.1,0.1,0.1,0.3,0.2,0.4c0.1,0.3,0.2,0.5,0.2,0.8s0,0.4,0,0.5c0,0.1-0.1,0.2-0.1,0.2s-0.1,0-0.1-0.2
		c-0.1-0.1-0.1-0.3-0.2-0.5c-0.2-0.4-0.4-0.9-0.7-1.4c-0.2-0.2-0.3-0.5-0.5-0.7c-0.2-0.2-0.3-0.4-0.5-0.6c-0.2-0.1-0.3-0.3-0.4-0.4
		C86,91.4,85.9,91.3,85.9,91.3z"/>
</g>
<g>
	<path class="st12" d="M87.1,95.1c0,0,0.3,0.1,0.7,0.2c0.2,0,0.5,0.1,0.8,0.2c0.3,0,0.7,0.1,1.1,0.1c0.4,0,0.9,0,1.3,0
		c0.5,0,1,0,1.4-0.1c0.5-0.1,1-0.2,1.5-0.3c0.5-0.1,1-0.3,1.5-0.5c0.5-0.2,1-0.5,1.4-0.7c0.5-0.3,0.9-0.6,1.2-0.9
		c0.4-0.3,0.8-0.6,1.1-1c0.3-0.3,0.6-0.6,0.9-0.9c0.5-0.6,0.9-1.2,1.1-1.5c0.3-0.4,0.4-0.6,0.4-0.6s-0.1,0-0.1,0.2
		c-0.1,0.1-0.1,0.3-0.2,0.5c-0.1,0.2-0.3,0.4-0.4,0.7c-0.2,0.3-0.4,0.6-0.6,0.9c-0.5,0.6-1.1,1.4-1.9,2c-0.4,0.3-0.8,0.7-1.3,1
		s-1,0.6-1.4,0.8c-0.5,0.2-1,0.4-1.6,0.6c-0.5,0.1-1.1,0.2-1.6,0.3c-1,0.1-2,0-2.8,0c-0.4,0-0.8-0.1-1.1-0.2
		c-0.3-0.1-0.6-0.2-0.8-0.3c-0.2-0.1-0.4-0.2-0.5-0.2C87.1,95.1,87.1,95.1,87.1,95.1z"/>
</g>
<g>
	<path class="st12" d="M89.5,98c0,0,0.1,0,0.3,0.1c0.2,0,0.5,0.1,0.8,0.2c0.2,0,0.4,0,0.5,0.1c0.2,0,0.4,0,0.6,0c0.4,0,0.8,0,1.3,0
		c0.4,0,0.9-0.1,1.2-0.1c0.2,0,0.4-0.1,0.6-0.1c0.2,0,0.4-0.1,0.5-0.1c0.3-0.1,0.6-0.2,0.7-0.3c0.2-0.1,0.3-0.1,0.3-0.1
		s-0.1,0-0.3,0.2c-0.2,0.1-0.4,0.3-0.7,0.4c-0.3,0.1-0.7,0.3-1.1,0.4c-0.2,0-0.4,0.1-0.7,0.1c-0.2,0-0.5,0-0.7,0.1
		c-0.2,0-0.5,0-0.7,0c-0.2,0-0.5,0-0.7,0c-0.4,0-0.8-0.1-1.1-0.3c-0.3-0.1-0.6-0.2-0.7-0.3C89.6,98.1,89.5,98,89.5,98z"/>
</g>
<path d="M95.1,60.5c-0.5,0.6,2.3,1.2,3,1c0.7-0.3,10.5-3.3,10.9-3.5c0.8-0.3,2-0.1,2.7,0.2c3.1,1,4.5,0.7,6.9,1.7
	c-2.8-2-5.7-2.9-8.8-4.4c-0.3-0.2-0.5-0.3-0.8-0.3c-0.7-0.1-6.6,1.6-9,2.8C98.6,58.6,95.1,60.5,95.1,60.5z"/>
<path class="st13" d="M103.7,61.1c-1.1,1-1.2,2.8-0.3,3.9c0.8,0.9,2.1,1.3,3.4,1.2c0.3,0,0.5,0,0.7-0.1c0.2-0.1,0.7-0.3,1-0.5
	c0.5-0.5,0.5-0.4,0.8-1.2c0.2-0.6,0.2-1.1,0.2-1.7c0-0.4,0-0.8-0.2-1.2c-0.3-0.6-0.9-1-1.6-1.1c-0.7-0.1-1.3,0-2,0
	c-0.6,0.1-1.2,0.2-1.8,0.3C103.9,60.9,103.7,61,103.7,61.1"/>
<g>
	<path class="st11" d="M84.9,63.4c-0.7-0.9-1.4-1.9-2.4-2.6c-0.2-0.2-0.5-0.4-0.7-0.4c-0.3-0.1-0.9-0.3-1.3-0.4
		c-1.2-0.2-1.8-0.2-2.9,0c-0.5,0.1-1.1,0.1-1.6,0.3c-1.1,0.3-2,1.2-2.8,2c-0.1,0.1,0.2,0.3,0.2,0.4c0,0.1,0.1,0.2,0.1,0.3
		c0.8,1.1,1.4,1.9,2.5,2.6c0.4,0.3,0.8,0.5,1.3,0.7c0.6,0.2,1.2,0.3,1.8,0.4c3,0.4,4.5-0.3,6.7-0.8c0.1,0,0.2,0,0.2-0.1
		c0-0.1,0-0.2,0-0.3C85.6,64.8,85.2,64.1,84.9,63.4z"/>
	<path d="M84.9,63.4c-0.7-0.9-1.5-1.9-2.5-2.6c-0.2-0.2-0.5-0.3-0.8-0.4c-0.3-0.1-0.6-0.2-0.9-0.2c-0.3,0-0.6-0.1-0.9-0.1
		c-0.3,0-0.6,0-0.9,0c-0.3,0-0.6,0-0.9,0.1c-0.3,0-0.6,0.1-0.9,0.1c-0.3,0-0.6,0.1-0.9,0.1c-0.3,0.1-0.6,0.1-0.8,0.3
		c-0.5,0.2-1,0.6-1.4,1l-0.7,0.6l-0.1,0.1c0-0.1,0,0,0,0c0,0,0-0.1,0-0.1c0,0,0,0,0,0c0,0,0.1,0.1,0.1,0.2c0,0,0.1,0.1,0.1,0.2
		c0,0,0,0,0,0c0,0.1,0.1,0.1,0.1,0.2l0,0c0.7,0.9,1.4,1.8,2.3,2.5c0.5,0.3,0.9,0.7,1.4,0.8c0.5,0.2,1.1,0.3,1.7,0.3
		c1.1,0.1,2.3,0.2,3.4,0c1.1-0.2,2.2-0.5,3.4-0.7l0,0l0,0c0.1,0,0.2,0,0.2-0.1c0-0.1,0-0.1,0-0.2l0,0L84.9,63.4z M84.9,63.4l1.1,2
		l0,0c0,0.1,0.1,0.2,0,0.3c0,0.1-0.1,0.2-0.2,0.2l0,0c-1.1,0.2-2.2,0.6-3.4,0.8c-1.1,0.2-2.3,0.2-3.5,0.1c-0.6-0.1-1.1-0.2-1.7-0.3
		c-0.6-0.2-1.1-0.5-1.5-0.9c-1-0.7-1.7-1.6-2.4-2.5l0,0l0,0c0-0.1-0.1-0.1-0.1-0.2c0,0,0-0.1,0-0.2c0,0.1,0,0,0,0
		c0-0.1-0.1-0.1-0.1-0.2c0,0,0-0.1,0-0.1c0,0,0-0.1,0-0.1c0-0.1,0,0,0-0.1l0.1-0.1c0.2-0.2,0.4-0.4,0.7-0.6c0.4-0.4,0.9-0.8,1.5-1.1
		c0.3-0.1,0.6-0.2,0.9-0.3c0.3-0.1,0.6-0.1,0.9-0.1c0.6-0.1,1.2-0.2,1.8-0.2c0.3,0,0.6,0,0.9,0.1c0.3,0,0.6,0.1,0.9,0.1
		c0.3,0.1,0.6,0.2,0.9,0.3c0.3,0.1,0.6,0.3,0.8,0.5C83.5,61.4,84.2,62.4,84.9,63.4z"/>
</g>
<g>
	<path class="st12" d="M84.6,62.7c0,0-0.1-0.1-0.2-0.3c-0.1-0.2-0.3-0.4-0.5-0.7c-0.2-0.3-0.5-0.6-0.8-1c-0.3-0.3-0.7-0.7-1.1-1
		c-0.2-0.2-0.4-0.3-0.6-0.4c-0.2-0.1-0.4-0.2-0.6-0.3c-0.2-0.1-0.4-0.1-0.6-0.2c-0.2,0-0.4-0.1-0.6-0.1c-0.8-0.1-1.2-0.2-1.2-0.2v0
		c0,0,0.1,0,0.3,0c0.2,0,0.6,0,0.9,0c0.4,0,0.8,0.1,1.3,0.2c0.2,0.1,0.5,0.2,0.7,0.4c0.2,0.1,0.4,0.3,0.6,0.4
		c0.4,0.3,0.7,0.7,1.1,1.1c0.3,0.4,0.6,0.7,0.8,1s0.3,0.6,0.5,0.8C84.6,62.6,84.6,62.7,84.6,62.7L84.6,62.7z"/>
</g>
<path class="st13" d="M80.8,60c-1.3,0-2.4,1.1-2.4,2.3c0,1,0.6,1.9,1.4,2.6c0.2,0.1,0.3,0.2,0.5,0.3c0.2,0.1,0.6,0.2,0.9,0.2
	c0.6,0,0.6,0,1.2-0.3c0.5-0.2,0.8-0.6,1.1-0.9c0.3-0.2,0.5-0.5,0.6-0.9c0.2-0.5,0-1.1-0.3-1.5c-0.3-0.4-0.8-0.7-1.3-1.1
	c-0.4-0.3-0.8-0.5-1.3-0.8C81.1,59.9,80.9,59.8,80.8,60"/>
<ellipse class="st11" cx="108" cy="62" rx="0.9" ry="0.9"/>
<path d="M85.8,58.7c0.4,0.4-1.7,1.2-2.2,1.1c-0.6-0.2-8.4-2.7-8.7-2.8c-0.6-0.1-1.2,0.2-1.7,0.5c-1.9,1.1,0.7-0.4-1.2,0.7
	c-0.2-1.7-0.1-2,2.2-3.6c0.2-0.1,0.4-0.3,0.6-0.3c0.5-0.1,5.3,1.7,7.2,2.5C83.1,57.4,85.8,58.7,85.8,58.7z"/>
<ellipse class="st11" cx="83" cy="62.5" rx="0.9" ry="0.9"/>
<g>
	<g>
		<path d="M77.8,62.5c0.3,0.9,0.7,1.6,1.4,2.2c0.6,0.4,1.4,0.7,2.2,0.7c0.4,0,1.3-0.6,0.5-0.6c-1.6-0.1-2.4-1.3-2.9-2.6
			C78.9,61.8,77.7,62.1,77.8,62.5L77.8,62.5z"/>
	</g>
</g>
<g>
	<g>
		<path d="M102.1,64c0.8,1.4,2.1,2.1,3.7,2.2c0.4,0,1.4-0.6,0.5-0.6c-1.3,0-2.4-0.9-3-1.9C103.2,63.4,102,63.7,102.1,64L102.1,64z"
			/>
	</g>
</g>
<g>
	<path d="M88.1,93.6c0,0,0.1,0,0.2,0c0.1,0,0.2,0,0.3,0c0.2,0,0.3,0,0.5,0c0.2,0,0.3,0.1,0.5,0.1c0.4,0.1,0.7,0.1,1,0.1
		c0.3,0,0.5,0,0.5,0v0c0,0-0.2,0-0.5,0.1c-0.3,0-0.7,0-1,0c-0.2,0-0.4,0-0.6,0c-0.2,0-0.4-0.1-0.5-0.1c-0.2,0-0.3-0.1-0.3-0.2
		C88.1,93.7,88.1,93.7,88.1,93.6L88.1,93.6z"/>
</g>
<path d="M99.4,90c0.1,0.6,0.1,1.3-0.1,1.8c0.3-0.1,0.5-0.4,0.7-0.6s0.3-0.5,0.5-0.8c0.2-0.2,0.4-0.3,0.5-0.5
	c0.2-0.2,0.3-0.4,0.2-0.7c-0.2,0.1-0.4,0.1-0.6,0.2c-0.4,0.1-0.8,0.3-1.2,0.5"/>
<g>
	<path d="M97.8,88.6c0,0-0.8,0-2-0.2c-0.6,0-1.3,0-1.9,0.2c-0.3,0.1-0.6,0.4-1,0.6c-0.3,0.2-0.8,0.4-1.3,0.4
		c-0.5-0.1-0.8-0.3-1.2-0.4C90,89.1,89.7,89,89.3,89c-0.7-0.1-1.4-0.1-2,0c-0.6,0.1-1,0.3-1.3,0.5c-0.3,0.2-0.5,0.3-0.5,0.3
		s0.1-0.2,0.4-0.4c0.3-0.2,0.7-0.5,1.3-0.7c0.6-0.2,1.3-0.3,2.1-0.2c0.4,0.1,0.8,0.1,1.2,0.2c0.4,0.1,0.8,0.3,1.1,0.3
		c0.7,0.1,1.3-0.6,2-0.9c0.8-0.3,1.5-0.2,2.1-0.1c0.6,0.1,1.1,0.2,1.4,0.3C97.6,88.5,97.8,88.6,97.8,88.6z"/>
</g>
<g>
	<path d="M86.4,86.3c0,0,0.7,0,1.7,0.1c0.3,0,0.6,0.1,0.8,0.1c0.3,0,0.6,0,0.9-0.1c0.3,0,0.6-0.1,0.8-0.3c0.2-0.1,0.4-0.4,0.5-0.7
		c0.1-0.3,0.2-0.6,0.2-0.9c0-0.3,0-0.6-0.1-0.9c-0.1-0.6-0.4-1.1-0.7-1.5c-0.3-0.4-0.6-0.7-0.8-0.9c-0.2-0.2-0.4-0.3-0.4-0.3
		s0.2,0,0.5,0.2c0.3,0.1,0.7,0.4,1,0.8c0.3,0.4,0.7,1,0.9,1.6c0.1,0.3,0.1,0.7,0.1,1.1c0,0.4-0.1,0.7-0.2,1.1
		c-0.1,0.4-0.4,0.7-0.8,0.9c-0.3,0.2-0.7,0.3-1.1,0.3c-0.3,0-0.7,0-1,0c-0.3,0-0.6-0.1-0.8-0.2C87.1,86.4,86.4,86.3,86.4,86.3z"/>
</g>
<g>
	<path d="M96.8,112.6c0,0-0.2,0.3-0.4,0.8c-0.2,0.5-0.5,1.3-0.6,2.3c-0.1,0.5-0.1,1-0.2,1.6c0,0.3,0,0.6,0,0.8c0,0.3,0,0.6,0.1,0.9
		c0.2,1.2,0.5,2.4,1,3.7c0.5,1.2,1.1,2.4,1.6,3.5c0.6,1.1,1.1,2.2,1.5,3.1c0.4,0.9,0.8,1.7,1,2.2c0.2,0.5,0.4,0.9,0.4,0.9
		s-0.2-0.3-0.5-0.8c-0.3-0.5-0.8-1.2-1.3-2c-0.5-0.9-1.1-1.9-1.8-3c-0.6-1.1-1.3-2.3-1.8-3.6c-0.5-1.3-0.9-2.6-1-3.9
		c0-0.3,0-0.6,0-0.9c0-0.3,0-0.6,0.1-0.9c0.1-0.6,0.2-1.1,0.3-1.6c0.3-1,0.7-1.8,1-2.3C96.6,112.8,96.8,112.6,96.8,112.6z"/>
</g>
<g>
	<path class="st2" d="M23.6,233.1c-0.1-0.5,0.1-1.1,0.5-1.5c2.1-2.3,4.1-3.7,6.9-5.4c0.6-0.4,1.2-0.7,1.9-0.8c1.2-0.1,2.2,0.9,2.6,2
		c0.3,1-0.4,2.6-0.8,3.7c0,0.1-0.1,0.2-0.2,0.3c-1.4,1.8-1.7,1.9-3,3c-0.4,0.4-0.1,1.6,0.2,2.2c0.1,0.2,0.3,0.3,0.5,0.4
		c0.8,0.4,1.8,0.5,2.7,0.4c5.7-0.5,9.6-1.3,14.3-1.6c2.2-0.1,3.4-0.5,5.6-0.7c0.4,0,2.1,0.1,2.5,0.2c0.3,0.1,1.3,0.7,1.5,1
		c1.4,2-0.6,4.6-2.9,5.4c0.9,0.2,2.3,0.3,3.5,0.4c1.8,0.1,2.9,2,2.3,3.6c-0.3,0.7-0.8,1.4-1.4,1.8c-1.5,1.1-3.5,1.3-5.3,1.5
		c1.2,1,2.3,1.9,3.5,2.9c0.4,0.3,0.7,0.6,0.9,1.1c0.3,0.9-0.6,1.8-1.6,1.9c-0.9,0.1-1.8-0.4-2.6-0.8l0,0.1c0,1.1-0.8,2.1-1.9,2.3
		c-4.6,1-9.4,0.9-14.1,0.8c-0.9,0-1.8,0-2.7-0.2c-1.9-0.5-3.5-1.8-5-3c-1.4-1.1-2.8-2.3-3.7-3.8c-0.4-0.7-0.8-1.5-1.2-2.2
		c-0.4-0.7-0.9-1.4-1.2-2.2c-0.4-0.9-0.5-1.9-0.6-2.9C24.3,240.1,23.8,235.1,23.6,233.1z"/>
	<g>
		<path d="M23.6,233.1c-0.1-0.7,0.2-1.3,0.7-1.8c0.4-0.5,0.9-0.9,1.4-1.4c0.9-0.9,2-1.7,3-2.4c0.5-0.4,1.1-0.7,1.6-1.1
			c0.5-0.3,1.1-0.7,1.7-1c0.6-0.3,1.3-0.3,1.9-0.1c0.6,0.2,1.1,0.7,1.4,1.3c0.4,0.6,0.4,1.3,0.3,1.9c-0.1,0.6-0.4,1.2-0.6,1.8
			l-0.2,0.4c-0.1,0.2-0.2,0.3-0.2,0.4c-0.2,0.3-0.4,0.5-0.6,0.8c-0.4,0.5-0.9,1-1.4,1.4l-0.7,0.6c-0.1,0.1-0.3,0.2-0.3,0.3
			c0,0.1-0.1,0.2-0.1,0.4c0,0.3,0,0.6,0.1,0.9c0.1,0.3,0.2,0.6,0.4,0.8c0.4,0.3,1.1,0.5,1.7,0.6c0.6,0.1,1.2,0,1.9-0.1
			c2.5-0.3,5.1-0.6,7.6-1c1.3-0.2,2.5-0.3,3.8-0.5c1.3-0.1,2.6-0.2,3.8-0.4c1.2-0.2,2.5-0.4,3.8-0.5c0.7,0,1.3,0,2,0.1
			c0.2,0,0.3,0,0.5,0.1c0.2,0,0.4,0.1,0.5,0.2c0.3,0.2,0.6,0.3,0.9,0.5c0.6,0.4,1,1.1,1.1,1.8c0.1,0.7-0.1,1.4-0.5,2
			c-0.7,1.2-1.8,2.1-3.1,2.6l0-0.7c0.6,0.1,1.3,0.2,2,0.2l1,0.1c0.2,0,0.3,0,0.5,0c0.2,0,0.3,0.1,0.6,0.1c0.8,0.2,1.4,0.8,1.8,1.4
			c0.4,0.7,0.5,1.5,0.3,2.3c-0.1,0.4-0.3,0.7-0.5,1c-0.2,0.3-0.4,0.6-0.7,0.9c-0.3,0.3-0.6,0.5-0.9,0.7c-0.3,0.2-0.6,0.4-1,0.5
			c-1.4,0.5-2.8,0.7-4.1,0.8l0.2-0.8l2.2,1.8l1.1,0.9c0.3,0.3,0.8,0.6,1.1,1.2c0.1,0.1,0.1,0.3,0.1,0.4c0,0.2,0,0.4,0,0.5
			c-0.1,0.3-0.2,0.6-0.4,0.9c-0.4,0.5-0.9,0.8-1.5,0.9c-0.6,0.1-1.1,0-1.6-0.2c-0.5-0.2-0.9-0.4-1.4-0.6l0.7-0.4
			c0,1.2-0.8,2.5-2,2.8c-0.3,0.1-0.6,0.1-0.8,0.2c-0.2,0.1-0.5,0.1-0.8,0.1c-0.5,0.1-1,0.2-1.5,0.2c-2.1,0.3-4.1,0.4-6.2,0.4
			c-1,0-2.1,0-3.1,0c-1,0-2,0-3.1-0.1c-1.1,0-2.2-0.3-3.1-0.7c-1-0.5-1.9-1.1-2.7-1.7c-0.8-0.7-1.6-1.3-2.3-2
			c-0.8-0.7-1.5-1.5-2.1-2.3c-0.3-0.4-0.5-0.9-0.8-1.4l-0.7-1.4c-0.5-0.9-1.1-1.8-1.4-2.8c-0.3-1-0.3-2.1-0.4-3.1l-0.3-3.1
			L23.6,233.1z M23.7,233.1l0.7,6.1l0.3,3.1c0.1,1,0.2,2,0.5,3c0.3,0.9,0.9,1.8,1.5,2.7l0.8,1.3c0.3,0.5,0.5,0.9,0.8,1.3
			c0.6,0.8,1.3,1.5,2.1,2.2c0.8,0.7,1.6,1.3,2.4,1.9c0.8,0.6,1.6,1.2,2.5,1.6c0.9,0.4,1.8,0.6,2.8,0.6c1,0,2,0,3.1,0l3.1,0
			c2,0,4.1-0.1,6.1-0.4c0.5-0.1,1-0.1,1.5-0.2c0.5-0.1,1.1-0.2,1.4-0.3c0.8-0.3,1.3-1,1.3-1.9l0-0.8l0.8,0.4
			c0.4,0.2,0.8,0.4,1.2,0.6c0.4,0.1,0.8,0.2,1.2,0.2c0.3,0,0.7-0.2,0.9-0.5c0.1-0.1,0.2-0.3,0.2-0.4c0-0.1,0-0.1,0-0.2
			c0-0.1,0-0.2-0.1-0.2c-0.1-0.3-0.5-0.6-0.8-0.9l-1.1-0.9l-2.2-1.8l-0.8-0.7l1.1-0.1c1.4-0.1,2.7-0.3,3.9-0.7
			c0.3-0.1,0.6-0.3,0.8-0.4c0.3-0.2,0.5-0.3,0.8-0.6c0.2-0.2,0.4-0.5,0.6-0.7c0.2-0.3,0.3-0.6,0.4-0.8c0.2-0.6,0.1-1.2-0.2-1.7
			c-0.3-0.5-0.8-0.9-1.3-1.1c-0.1,0-0.3-0.1-0.4-0.1c-0.1,0-0.3,0-0.5,0l-1-0.1c-0.7-0.1-1.4-0.1-2.1-0.3l-1.2-0.3l1.2-0.4
			c1.1-0.4,2.1-1.2,2.7-2.2c0.3-0.5,0.5-1.1,0.4-1.6c0-0.3-0.1-0.5-0.2-0.8l-0.1-0.2c-0.1-0.1,0-0.1-0.1-0.1
			c-0.1-0.1-0.2-0.2-0.3-0.3c-0.2-0.2-0.5-0.4-0.8-0.5c-0.1-0.1-0.2-0.1-0.4-0.1c-0.1,0-0.3,0-0.5-0.1c-0.6-0.1-1.3-0.1-1.9-0.1
			c-1.3,0.1-2.5,0.3-3.8,0.5c-1.3,0.2-2.6,0.2-3.8,0.3c-1.3,0.1-2.5,0.3-3.8,0.4c-2.5,0.3-5.1,0.7-7.6,0.9c-1.3,0.2-2.7,0.1-3.9-0.7
			c-0.3-0.3-0.4-0.6-0.5-0.9c-0.1-0.3-0.2-0.7-0.1-1c0-0.2,0-0.4,0.2-0.6c0.1-0.1,0.2-0.2,0.4-0.3l0.7-0.6c0.5-0.4,0.9-0.9,1.3-1.3
			l0.6-0.7c0.1-0.1,0.2-0.3,0.2-0.4l0.2-0.4c0.2-0.6,0.5-1.2,0.6-1.8c0.1-0.6,0.1-1.2-0.2-1.8c-0.3-0.5-0.8-1-1.3-1.2
			c-0.6-0.3-1.2-0.2-1.8,0.1c-1.1,0.6-2.2,1.3-3.3,2c-1.1,0.7-2.1,1.5-3,2.4c-0.5,0.4-0.9,0.9-1.4,1.4
			C23.9,231.8,23.6,232.5,23.7,233.1z"/>
	</g>
</g>
<g>
	<path d="M34.8,241.6c0,0,0.1,0.1,0.2,0.2c0.1,0.1,0.3,0.3,0.5,0.4c0.5,0.3,1.3,0.7,2.3,0.8c1,0.1,2.2,0.1,3.5,0.1
		c0.6,0,1.3-0.1,1.9-0.2c0.6-0.1,1.2-0.4,1.9-0.7c0.6-0.3,1.3-0.6,2-0.8c0.7-0.2,1.4-0.3,2.1-0.3c0.7,0,1.4,0.1,2,0.2
		c0.3,0.1,0.5,0.1,0.8,0.2c0.3,0,0.5,0.1,0.8,0.1c1,0.1,1.9,0.1,2.5,0.1c0.6,0,1,0.1,1,0.1v0.1c0,0-0.3,0.1-0.9,0.2
		c-0.3,0.1-0.7,0.1-1.1,0.2c-0.4,0.1-0.9,0.1-1.4,0.2c-0.3,0-0.6,0-0.9,0c-0.3,0-0.6-0.1-0.9-0.1c-0.6-0.1-1.1-0.2-1.8-0.1
		c-0.6,0-1.2,0-1.9,0.2c-0.6,0.1-1.3,0.3-1.9,0.6c-0.6,0.3-1.3,0.5-2,0.6c-0.7,0.1-1.4,0.1-2.1,0.1c-1.3,0-2.5-0.1-3.6-0.3
		c-1-0.2-1.9-0.6-2.3-1c-0.2-0.2-0.4-0.4-0.5-0.5C34.8,241.7,34.7,241.6,34.8,241.6L34.8,241.6z"/>
</g>
<g>
	<path d="M35.7,247.1c0,0,1.2,0.4,3.1,0.8c0.5,0.1,1,0.2,1.5,0.3c0.5,0.1,1.1,0.3,1.7,0.4c1.1,0.2,2.4,0.3,3.7,0.2
		c1.3-0.1,2.6-0.1,3.8-0.2c1.2,0,2.3,0,3.3,0c1,0,1.8,0,2.3,0.1c0.6,0,0.9,0.1,0.9,0.1l0,0.1c0,0-0.3,0.1-0.9,0.2
		c-0.6,0.1-1.4,0.2-2.3,0.4c-1,0.1-2.1,0.2-3.3,0.3c-1.2,0-2.5,0-3.8-0.1c-1.3,0-2.6-0.1-3.8-0.5c-0.6-0.2-1.1-0.4-1.7-0.5
		c-0.5-0.2-1-0.3-1.5-0.4C36.9,247.7,35.7,247.2,35.7,247.1L35.7,247.1z"/>
</g>
<g>
	<path d="M53.9,252.4c0,0-0.3-0.1-0.7-0.1c-0.5,0-1.1,0.3-1.9,0.6c-0.8,0.3-1.8,0.4-2.9,0.5c-1.1,0.1-2.2,0.2-3.3,0.2
		c-0.6,0-1.1,0.1-1.7,0.1c-0.6,0-1.2-0.1-1.7-0.2c-1.1-0.2-2-0.5-2.8-0.7c-0.8-0.3-1.5-0.5-1.9-0.7c-0.5-0.2-0.7-0.3-0.7-0.3l0-0.1
		c0,0,0.3,0,0.8,0c0.5,0,1.2,0.1,2,0.2c0.8,0.1,1.8,0.3,2.8,0.5c0.5,0.1,1,0.2,1.5,0.2c0.5,0,1.1,0,1.7,0.1c1.1,0,2.2,0,3.3,0
		c1,0,2,0,2.8-0.2c0.8-0.2,1.5-0.4,2-0.4c0.3,0,0.5,0,0.6,0.1C53.9,252.3,53.9,252.3,53.9,252.4L53.9,252.4z"/>
</g>
<path class="st12" d="M128.9,63c0.4-0.6,0.8-1.3,1.4-1.8"/>
<g>
	<path class="st14" d="M68,49.6c0.3-3,2.8-5.4,5.5-6.5c2.8-1.1,5.8-1.1,8.8-1.1c12.8,0,16.6,0.1,29.4,0.9c0.3,0,8.4,0.8,8.6,1
		c0.2,0.2,1,2,1,2.2c0.3,2.3,0.6,2.7,1.1,4.9c1.2,5,4.7,9.3,4.9,14.4c0.1,1.9-0.3,3.9-0.3,5.8c0,2.6,0.8,5.1,2.2,7.3
		c0.1,0.2,0.3,0.4,0.5,0.5c0.5,0.3,1.2,0,1.5-0.5c0.3-0.5,0.3-1.1,0.4-1.7c0.5,0.4,1.3-0.2,1.5-0.8c0.2-0.6,0.2-1.4,0.5-1.9
		c0.2-0.3,0.5-0.6,0.8-0.9c0.3-0.4,0.4-0.8,0.6-1.3c0.7-2.3,1-4.6,0.8-7c0.6-0.5,0.7-1.4,0.7-2.2c0.3-3.5,0.5-6.9,0.8-10.4
		c0.1-0.8,0.1-1.5,0.1-2.3c0-1-0.1-1.9-0.2-2.9c-0.3-2.6-0.6-5.1-0.9-7.7c0-0.3-0.1-0.7-0.3-1c-0.2-0.2-0.5-0.3-0.7-0.6
		c-0.2-0.4,0.1-0.8,0.3-1.1c0.3-0.7,0.2-1.5-0.3-2.1c-0.3-0.4-0.7-0.6-1-0.9c-0.4-0.4-0.7-0.8-1-1.2c-0.6-0.8-1.2-1.6-1.8-2.4
		c-0.2-0.3-0.5-0.7-0.7-0.9c-0.4-0.4-0.8-0.7-1.2-1c-1.2-0.9-2.5-1.7-3.8-2.5c-3.2-1.9-6.6-3.3-10-4.8c-0.6-0.3-1.2-0.5-1.9-0.8
		c-0.8-0.4-1.7-0.7-2.6-0.6c-0.5,0.1-1,0.4-1.5,0.2c-0.4-0.1-0.7-0.5-1.1-0.7c-0.5-0.3-1.2-0.4-1.9-0.4c-2.5,0-5,0-7.5,0
		c-1.3,0-2.6,0-3.9,0.1c-2.2,0.1-5.4,0.3-7.5,0.8c-1.5,0.4-1.8,1.2-3.3,1.4c-4.3,0.7-7.3,2.8-10.5,4.5c-0.3,0.2-0.5,0.4-0.7,0.6
		c-1.2,1.6-2.4,2.4-3.2,3.6c-1,1.4-1,3.3-1.7,4.8c-0.2,0.4-0.3,0.7-0.3,1.1c-0.1,2.3-1.1,4-1.5,6c-0.8,3.5-1.2,7.9,0.9,10.9
		c0-0.9,0.1-1.7,0.1-2.6"/>
	<path class="st15" d="M68,49.5c0.2-2,1.4-3.8,3-5.1c1.6-1.3,3.6-2,5.6-2.3c2-0.3,4-0.3,6-0.3l6,0c4,0,8,0.1,12.1,0.2
		c2,0.1,4,0.2,6,0.3c2,0.1,4,0.2,6,0.4c2,0.2,4,0.4,6,0.6c0.5,0.1,1,0.1,1.5,0.2c0,0,0.2,0,0.3,0.1c0,0,0.1,0.1,0.1,0.2
		c0.1,0.1,0.1,0.2,0.2,0.3c0.1,0.2,0.2,0.5,0.3,0.7c0.1,0.2,0.2,0.5,0.3,0.7c0,0.1,0.1,0.2,0.1,0.4l0.1,0.4c0.1,0.5,0.2,1,0.3,1.5
		c0.2,1,0.6,1.9,0.8,2.9c0.2,1,0.5,1.9,0.9,2.8c0.7,1.9,1.6,3.6,2.4,5.5c0.8,1.9,1.5,3.8,1.6,5.9c0.2,2.1-0.3,4.1-0.3,6
		c0,2,0.5,3.9,1.3,5.7c0.2,0.4,0.5,0.9,0.7,1.3c0.3,0.4,0.5,0.8,0.8,0.7c0.3,0,0.7-0.3,0.9-0.7c0.2-0.4,0.2-0.9,0.2-1.4l0-0.6
		l0.5,0.4c0.1,0.1,0.3,0.1,0.4,0c0.2-0.1,0.4-0.3,0.5-0.5c0.1-0.2,0.2-0.4,0.2-0.7c0-0.3,0.1-0.6,0.2-0.9c0.1-0.3,0.2-0.6,0.4-0.9
		c0.2-0.3,0.4-0.4,0.6-0.6c0.3-0.4,0.5-0.9,0.6-1.4c0.6-2.1,0.9-4.4,0.7-6.6l0-0.2l0.1-0.1c0.4-0.4,0.5-1,0.6-1.6l0.2-2l0.3-4l0.3-4
		c0.1-0.7,0.1-1.3,0.1-2l0-1l-0.1-1l-0.2-2l-0.2-2l-0.5-4c-0.1-0.6-0.1-1.4-0.2-1.9c0-0.1-0.1-0.2-0.1-0.3c0,0-0.1-0.1-0.3-0.2
		c-0.1-0.1-0.4-0.2-0.5-0.5c-0.1-0.3-0.1-0.6-0.1-0.8c0.1-0.4,0.3-0.7,0.4-0.9c0.1-0.2,0.1-0.5,0-0.8c-0.1-0.5-0.5-0.9-1-1.3
		c-0.6-0.4-1-1.1-1.4-1.6l-1.2-1.6l-0.6-0.8l-0.6-0.8c-0.4-0.4-0.9-0.8-1.4-1.2l-3.3-2.2c-1.1-0.7-2.3-1.3-3.5-1.9
		c-2.4-1.2-4.8-2.2-7.3-3.3c-1.2-0.5-2.5-1.2-3.5-1c-0.3,0.1-0.6,0.2-1,0.3c-0.4,0.1-1,0-1.3-0.3c-0.3-0.2-0.5-0.5-0.8-0.6
		c-0.2-0.1-0.5-0.2-0.8-0.2c-2.6-0.1-5.3,0-8-0.1l-4,0c-1.3,0.1-2.7,0.1-4,0.3c-1.3,0.1-2.7,0.3-3.9,0.6c-0.6,0.2-1.1,0.5-1.7,0.9
		c-0.3,0.2-0.7,0.3-1,0.4l-1,0.2c-2.6,0.5-5,1.7-7.3,3l-1.7,1c-0.3,0.2-0.6,0.3-0.8,0.5c-0.2,0.2-0.4,0.4-0.6,0.7
		c-0.8,1.1-1.9,1.9-2.7,2.9c-0.8,1-1.1,2.3-1.4,3.6c-0.1,0.3-0.2,0.7-0.3,1c-0.1,0.3-0.3,0.6-0.3,0.9c-0.1,0.3-0.1,0.6-0.1,0.9
		c0,0.3-0.1,0.7-0.1,1c-0.3,1.4-0.8,2.6-1.2,3.9c-0.4,1.3-0.6,2.6-0.8,3.9c-0.3,2.6-0.2,5.4,1.3,7.7l-0.1,0l0.2-2.6l0.1,0l-0.1,2.6
		l0,0.2l-0.1-0.2c-1.6-2.3-1.7-5.2-1.5-7.8c0.1-1.3,0.4-2.7,0.7-4c0.4-1.3,0.9-2.5,1.1-3.8c0.1-0.3,0.1-0.6,0.1-1c0-0.3,0-0.7,0.1-1
		c0.1-0.4,0.3-0.7,0.4-1c0.1-0.3,0.2-0.6,0.3-0.9c0.3-1.3,0.6-2.7,1.5-3.8c0.9-1.1,1.9-1.9,2.7-3c0.2-0.3,0.4-0.6,0.7-0.8
		c0.3-0.2,0.6-0.4,0.9-0.5l1.7-1c2.3-1.4,4.8-2.6,7.5-3.2l1-0.2c0.3-0.1,0.6-0.2,0.8-0.3c0.5-0.3,1.1-0.7,1.8-1
		c1.4-0.4,2.7-0.5,4-0.7c1.3-0.1,2.7-0.2,4-0.3l4-0.1c2.7,0,5.3,0,8.1,0.1c0.4,0,0.8,0.1,1.2,0.3c0.4,0.2,0.6,0.5,0.9,0.6
		c0.2,0.1,0.3,0.2,0.6,0.1c0.2,0,0.6-0.2,0.9-0.3c0.8-0.2,1.6,0,2.2,0.3c0.7,0.3,1.2,0.5,1.9,0.8c2.5,1.1,4.9,2.1,7.3,3.3
		c1.2,0.6,2.4,1.2,3.6,2l3.3,2.2c0.6,0.4,1.1,0.8,1.6,1.4l0.6,0.8l0.6,0.8l1.2,1.6c0.4,0.6,0.7,1,1.2,1.4c0.2,0.2,0.5,0.4,0.8,0.7
		c0.3,0.3,0.4,0.7,0.5,1.1c0.1,0.4,0.1,0.8,0,1.2c-0.1,0.4-0.3,0.7-0.4,0.9c0,0.2-0.1,0.1,0.2,0.3c0.1,0.1,0.3,0.2,0.5,0.4
		c0.1,0.2,0.2,0.4,0.3,0.6c0.1,0.8,0.2,1.4,0.2,2l0.4,4l0.2,2l0.2,2c0,0.4,0.1,0.6,0.1,1l-0.1,1c0,0.7-0.1,1.4-0.1,2l-0.3,4l-0.3,4
		l-0.2,2c-0.1,0.7-0.2,1.5-0.8,2.1l0.1-0.3c0.1,2.3-0.1,4.7-0.8,6.9c-0.2,0.5-0.3,1.1-0.7,1.7c-0.2,0.3-0.4,0.4-0.6,0.6
		c-0.1,0.2-0.2,0.4-0.3,0.6c-0.1,0.2-0.1,0.5-0.2,0.8c-0.1,0.3-0.1,0.6-0.3,0.9c-0.2,0.3-0.4,0.6-0.7,0.7c-0.3,0.2-0.8,0.2-1.2-0.1
		l0.5-0.3c0,0.5,0,1.1-0.3,1.6c-0.2,0.6-0.8,1-1.4,1.1c-0.2,0-0.3,0-0.5-0.1c-0.1,0-0.3-0.2-0.4-0.3c-0.2-0.2-0.4-0.5-0.5-0.7
		c-0.3-0.4-0.5-0.9-0.7-1.4c-0.9-1.9-1.4-3.9-1.4-6c0-2.1,0.4-4,0.3-6c-0.1-2-0.8-3.9-1.5-5.7c-0.8-1.8-1.7-3.6-2.4-5.5
		c-0.4-0.9-0.7-1.9-0.9-2.9c-0.2-1-0.5-1.9-0.8-2.9c-0.1-0.5-0.2-1-0.3-1.5l0-0.4c0-0.1-0.1-0.2-0.1-0.3c-0.1-0.2-0.2-0.5-0.3-0.7
		c-0.1-0.2-0.2-0.5-0.3-0.7c-0.1-0.2-0.3-0.5-0.3-0.4c-0.5-0.1-1-0.1-1.5-0.2c-2-0.2-4-0.5-6-0.7c-2-0.2-4-0.3-6-0.4
		c-2-0.1-4-0.2-6-0.3c-4-0.2-8-0.3-12-0.3l-6,0c-2,0-4,0-6,0.3c-2,0.3-3.9,1-5.5,2.2C69.5,45.8,68.3,47.6,68,49.5L68,49.5z"/>
</g>
<g>
	<path class="st2" d="M127.2,60.6c0.8-0.5,1.7-1,2.5-1.5c1.6-0.9,3.5-1.9,5.2-1.3c1.5,0.5,2.2,2,2.6,3.4c0.9,3.5,0.2,7.2-1.9,10.2
		c-2.1,3-5.4,5.3-9.3,6.2"/>
	<path d="M127.1,60.5c0,0,0.5-0.3,1.3-0.8c0.8-0.5,1.9-1.3,3.5-1.9c0.8-0.3,1.7-0.5,2.7-0.3c1,0.2,1.9,1,2.4,1.9
		c0.6,0.9,0.8,2,1,3.1c0.2,1.1,0.2,2.2,0.1,3.4c-0.2,2.3-1.1,4.4-2.3,6.2c-0.6,0.8-1.3,1.6-2.1,2.3c-0.7,0.6-1.5,1.2-2.2,1.6
		c-0.7,0.4-1.4,0.7-2.1,1c-0.6,0.3-1.2,0.4-1.7,0.5c-0.9,0.2-1.5,0.3-1.5,0.3l0-0.1c0,0,0.5-0.2,1.4-0.5c0.4-0.2,1-0.4,1.5-0.7
		c0.6-0.3,1.2-0.7,1.9-1.2c0.7-0.5,1.3-1,2-1.6c0.7-0.6,1.3-1.3,1.9-2.2c1.2-1.6,2.1-3.6,2.4-5.7c0.2-1,0.2-2.1,0.1-3.2
		c-0.1-1-0.4-2.1-0.8-2.9c-0.5-0.9-1.2-1.5-2-1.7c-0.8-0.2-1.7-0.1-2.5,0.1c-1.5,0.5-2.7,1.3-3.5,1.7
		C127.7,60.3,127.2,60.6,127.1,60.5L127.1,60.5z"/>
</g>
<g>
	<path class="st9" d="M131.7,73.2c0.3-0.8,0.7-1.6,1.4-2.1c0.3-0.2,0.6-0.3,0.8-0.5c0.2-0.2,0.4-0.6,0.5-0.9
		c0.2-0.5,0.5-1.1,0.8-1.7c0.2-0.5,0.5-1.1,0.5-1.7c0-0.4-0.1-0.9-0.2-1.3c-0.3-0.9-0.5-1.9-0.8-2.8c-0.1-0.5-0.3-1-0.7-1.3
		c-0.4-0.4-1.1-0.4-1.6-0.2c-1.8,0.5-2.9,2.5-3.7,4.3c-0.2,0.4-0.4,0.8-0.4,1.3c-0.1,0.4,0,0.9,0.1,1.3c0.1,0.9,1.5,0.9,1.9,1.7
		c0.1,0.3-1.5,3.5-2.2,4c0.4,0.7,1.3,1.4,2,1.3c0.7,0,1.4-0.5,1.8-1.2"/>
	<path class="st12" d="M131.7,73.2c0.2-0.6,0.4-1.2,0.9-1.8c0.2-0.3,0.5-0.4,0.8-0.6c0.3-0.2,0.5-0.3,0.7-0.6
		c0.1-0.3,0.2-0.6,0.4-0.9l0.4-0.9c0.2-0.6,0.5-1.2,0.6-1.8c0.1-0.6-0.1-1.2-0.3-1.8l-0.5-1.9c-0.2-0.6-0.3-1.3-0.7-1.7
		c0,0-0.1-0.1-0.1-0.1c-0.1-0.1-0.1-0.1-0.2-0.1c-0.1-0.1-0.2-0.1-0.3-0.1c-0.2,0-0.5,0-0.8,0.1c-0.3,0.1-0.5,0.2-0.8,0.4
		c-0.2,0.2-0.5,0.3-0.7,0.6c-0.4,0.4-0.8,1-1.1,1.5c-0.3,0.5-0.6,1.1-0.9,1.7c-0.1,0.3-0.3,0.6-0.3,0.9c-0.1,0.3-0.1,0.5-0.1,0.9
		c0,0.1,0,0.3,0,0.5v0.1v0l0,0c0,0,0,0,0,0l0,0l0,0.1c0,0,0,0,0,0.1c0,0,0,0,0,0.1c0.1,0.2,0.4,0.3,0.7,0.5c0.3,0.1,0.6,0.3,0.9,0.6
		c0.1,0.1,0.1,0.2,0.2,0.2l0,0c0,0,0,0.1,0,0.1l0,0l0,0c0,0,0,0.1,0,0.2s0,0.1,0,0.2c-0.1,0.2-0.1,0.3-0.2,0.5
		c-0.3,0.6-0.6,1.2-1,1.8c-0.2,0.3-0.3,0.5-0.5,0.8c-0.2,0.3-0.4,0.5-0.7,0.8l0-0.2c0.2,0.3,0.4,0.6,0.7,0.9c0.3,0.2,0.6,0.4,1,0.5
		h0.1c0,0,0.1,0,0.1,0c0.1,0,0.2,0,0.3-0.1c0.2,0,0.4-0.1,0.5-0.2c0.3-0.2,0.6-0.5,0.8-0.9c-0.1,0.4-0.4,0.7-0.7,0.9
		c-0.2,0.1-0.3,0.2-0.5,0.3c-0.1,0-0.2,0.1-0.3,0.1c-0.1,0-0.1,0-0.1,0c-0.1,0-0.1,0-0.2,0c-0.4,0-0.8-0.2-1.1-0.4
		c-0.3-0.2-0.6-0.5-0.9-0.9l-0.1-0.1l0.1-0.1c0.2-0.2,0.4-0.4,0.6-0.7c0.2-0.3,0.3-0.5,0.5-0.8c0.3-0.5,0.6-1.1,0.9-1.7
		c0.1-0.1,0.1-0.3,0.1-0.4c0,0,0-0.1,0-0.1v0c0,0,0,0,0,0l0,0l0,0c0,0,0,0.1,0,0v0c0,0-0.1-0.1-0.1-0.1c-0.2-0.2-0.4-0.3-0.7-0.5
		c-0.1-0.1-0.3-0.1-0.4-0.2c-0.1-0.1-0.3-0.2-0.4-0.4c-0.1-0.1-0.1-0.2-0.1-0.3l0-0.1v-0.1v0v-0.1c0-0.2,0-0.3-0.1-0.5
		c0-0.3,0-0.7,0.1-1.1c0.1-0.3,0.2-0.7,0.4-1c0.3-0.6,0.6-1.2,0.9-1.8c0.3-0.6,0.7-1.1,1.2-1.6c0.2-0.2,0.5-0.5,0.8-0.7
		c0.3-0.2,0.7-0.4,1-0.4c0.4-0.1,0.7-0.2,1.1-0.1c0.2,0,0.4,0.1,0.6,0.2c0.1,0,0.2,0.1,0.2,0.2c0.1,0.1,0.2,0.1,0.2,0.2
		c0.2,0.3,0.4,0.7,0.5,1l0.3,1l0.5,1.9c0.1,0.3,0.2,0.6,0.2,1c0.1,0.3,0.1,0.7,0,1.1c-0.1,0.7-0.4,1.3-0.7,1.9l-0.4,0.9
		c-0.1,0.3-0.3,0.6-0.4,0.9c-0.1,0.1-0.2,0.3-0.3,0.4c-0.1,0.1-0.3,0.2-0.4,0.3c-0.3,0.1-0.5,0.3-0.8,0.5
		C132.3,72,132,72.6,131.7,73.2z"/>
</g>
<g>
	<path class="st14" d="M123.7,54.7c-0.1,1.1,0.7,2,1.1,3c0.5,1.1,0.5,2.4,0.5,3.7c0.1,4.4,0.2,8.7,0.2,13.1c0.5,0,0.7-0.6,0.7-1.1
		c0.2-3.3-0.5-6.7,0.3-9.9c0.7-2.5,2.3-4.7,4.5-6.1"/>
	<path d="M123.8,54.7c0,0.8,0.4,1.6,0.8,2.3c0.4,0.7,0.7,1.6,0.8,2.4c0.1,0.8,0.1,1.7,0.2,2.5l0.1,2.5l0.3,10l-0.4-0.4
		c0.1,0,0.2-0.2,0.3-0.5c0-0.3,0-0.8,0-1.1c0-0.8,0-1.6-0.1-2.4c-0.1-1.6-0.2-3.2,0-4.8c0.1-0.8,0.3-1.6,0.6-2.4
		c0.3-0.8,0.6-1.5,1.1-2.2c0.9-1.4,2.1-2.5,3.6-3.3l0.1,0.1c-1.3,1-2.3,2.2-3,3.5c-0.4,0.7-0.7,1.4-0.9,2.1
		c-0.2,0.7-0.3,1.5-0.4,2.3c-0.1,1.5,0,3.1,0,4.7c0,0.8,0,1.6,0,2.4c0,0.4,0,0.8-0.1,1.3c0,0.2-0.1,0.5-0.3,0.7
		c-0.1,0.2-0.5,0.5-0.8,0.5l-0.4,0l0-0.4l0-10l0-2.5c0-0.8,0-1.7-0.1-2.5c-0.1-0.8-0.3-1.6-0.7-2.4c-0.2-0.4-0.4-0.7-0.5-1.1
		C123.7,55.6,123.6,55.2,123.8,54.7L123.8,54.7z"/>
</g>
<g>
	<path class="st15" d="M118.2,27.1c0.4-0.4,1-0.5,1.5-0.3c0.1,0,0.3,0.1,0.4,0.2c0.1,0.1,0.2,0.2,0.3,0.3c0.2,0.2,0.3,0.5,0.3,0.9
		l-0.4-0.3c0.3-0.1,0.6,0,0.8,0.2c0.1,0.1,0.2,0.2,0.3,0.3c0.1,0.1,0.2,0.2,0.2,0.4c0,0.1,0.1,0.3,0.1,0.4c0,0.1,0,0.2,0,0.4
		c0,0.2,0,0.5,0,0.7l-0.5-0.6c0.4-0.1,0.9,0.1,1.1,0.4c0.1,0.1,0.3,0.3,0.3,0.4c0.1,0.2,0.1,0.3,0.2,0.5c0,0.1,0,0.3,0,0.5
		c0,0.2,0,0.3-0.1,0.5c-0.1,0.3-0.2,0.6-0.3,0.8l-0.1,0c-0.1-0.3-0.1-0.6-0.2-0.8c0-0.1-0.1-0.3-0.1-0.4c0-0.1-0.1-0.2-0.1-0.3
		c0-0.1-0.1-0.2-0.2-0.2c-0.1-0.1-0.1-0.1-0.2-0.2c-0.1-0.1-0.3-0.2-0.4-0.2l-0.7,0l0.1-0.5c0-0.2,0.1-0.4,0.1-0.5
		c0-0.1,0-0.2,0-0.2c0-0.1,0-0.1,0-0.2c0,0,0-0.1-0.1-0.2c0-0.1-0.1-0.1-0.1-0.2c-0.1-0.1-0.2-0.1-0.3-0.1l-0.4,0l0-0.3
		c0-0.2,0-0.4-0.1-0.6c0-0.1-0.1-0.2-0.2-0.3c-0.1-0.1-0.1-0.1-0.2-0.2C119.3,26.9,118.7,26.9,118.2,27.1L118.2,27.1z"/>
</g>
<g>
	<path class="st15" d="M102.7,22.7c-0.4-0.4-0.9-0.8-1.4-0.8c-0.2,0-0.5,0-0.7,0.2c-0.1,0.1-0.2,0.1-0.2,0.2
		c-0.1,0.1-0.1,0.2-0.1,0.3c0,0.1-0.1,0.2-0.2,0.3c-0.1,0.1-0.2,0.2-0.4,0.2c-0.3,0-0.4-0.1-0.5-0.2c-0.2-0.1-0.5-0.1-0.6-0.1
		c-0.2,0-0.4,0.1-0.5,0.3c-0.1,0.1-0.1,0.3-0.1,0.4l0.3,1.2L97.1,24c-0.2-0.1-0.4-0.2-0.6-0.2c-0.1,0-0.2,0-0.3,0
		c-0.1,0-0.1,0-0.2,0c0,0-0.1,0-0.1,0l-0.2,0.1l-0.2,0.1c-0.1,0.1-0.2,0.1-0.3,0.2c-0.2,0.2-0.4,0.4-0.4,0.7l-0.1,0
		c-0.1-0.3-0.1-0.7,0.1-1c0.1-0.2,0.2-0.3,0.3-0.5c0.1-0.1,0.1-0.1,0.2-0.2l0.2-0.2c0.1-0.1,0.2-0.1,0.3-0.1c0.1,0,0.2-0.1,0.3-0.1
		c0.2,0,0.4-0.1,0.6,0c0.4,0,0.8,0.2,1.1,0.5l-0.8,0.5c-0.1-0.5,0.2-0.9,0.4-1.1c0.3-0.3,0.7-0.4,1-0.4c0.4,0,0.7,0.1,1,0.2l0.3,0.1
		c0,0,0,0.1,0-0.1c0-0.1,0.1-0.3,0.2-0.4c0.1-0.1,0.3-0.2,0.4-0.3c0.3-0.1,0.6-0.2,1-0.1C102,21.7,102.4,22.2,102.7,22.7L102.7,22.7
		z"/>
</g>
<g>
	<path class="st15" d="M78.1,27.3c-0.5,0.1-1,0.4-1.3,0.7l0,0c-0.3,0.4-0.3,1,0,1.4l0.3,0.4l-0.6,0.1c-0.3,0-0.6,0.3-0.7,0.6
		c-0.1,0.2-0.1,0.3-0.1,0.5c0,0.1,0,0.3,0.1,0.4l0.3,0.7l-0.6,0.1c-0.5,0-1.1,0.4-1.3,1.2l-0.1,0c-0.2-0.4-0.1-0.9,0.1-1.3
		c0.2-0.4,0.6-0.8,1.1-0.9L75,31.8c-0.2-0.3-0.2-0.6-0.2-0.9c0-0.3,0.2-0.6,0.3-0.8c0.3-0.5,0.9-0.9,1.5-0.9l-0.3,0.5
		c-0.4-0.7-0.2-1.5,0.3-2l0,0C77,27.3,77.6,27.2,78.1,27.3L78.1,27.3z"/>
</g>
<g>
	<path class="st15" d="M129.3,43.6c0.1-0.1,0.3-0.1,0.5-0.2c0.2,0,0.4,0,0.5,0.1c0.3,0.1,0.7,0.3,0.8,0.7c0.2,0.3,0.2,0.7,0.2,1.1
		c0,0.2-0.1,0.4-0.2,0.5c-0.1,0.2-0.2,0.4-0.3,0.4c0,0.1,0-0.1,0,0c0.1,0.1,0.2,0.1,0.4,0.2c0,0,0.2,0.1,0.3,0.2
		c0.1,0.1,0.2,0.2,0.2,0.3c0.1,0.2,0.2,0.4,0.2,0.6c0,0.2,0,0.4,0,0.7c0,0.2-0.1,0.4-0.2,0.6c-0.2,0.4-0.5,0.6-0.7,0.9l-0.1-0.9
		c0.4,0.1,0.7,0.4,1,0.8c0.1,0.2,0.2,0.4,0.2,0.6c0,0.1,0,0.2,0.1,0.3c0,0.1,0,0.2,0,0.3c0,0.1,0,0.2-0.1,0.3c0,0.1-0.1,0.2-0.1,0.3
		c-0.1,0.2-0.2,0.3-0.3,0.5c-0.3,0.3-0.6,0.5-0.9,0.5l0-0.1c0.3-0.2,0.4-0.5,0.5-0.7c0.1-0.1,0.1-0.3,0.1-0.4c0-0.1,0-0.1,0-0.2
		l0-0.2c0,0,0-0.1,0-0.2l-0.1-0.2c0-0.1-0.1-0.2-0.2-0.3c-0.1-0.2-0.3-0.3-0.5-0.4l-0.8-0.4l0.7-0.5c0.2-0.2,0.5-0.4,0.6-0.6
		c0.1-0.1,0.1-0.2,0.2-0.3c0-0.1,0.1-0.2,0.1-0.3c0-0.1,0-0.2-0.1-0.3c0,0,0-0.1-0.1-0.1c0,0,0,0-0.1-0.1c-0.1-0.1-0.3-0.1-0.4-0.3
		c-0.1-0.1-0.2-0.2-0.3-0.4c0,0,0-0.1,0-0.2l0,0l0,0l0,0c0-0.1,0.1-0.2,0.1-0.2c0.2-0.2,0.2-0.2,0.3-0.4c0.1-0.1,0.1-0.2,0.2-0.4
		c0.1-0.3,0.1-0.6,0-0.8C130.6,43.9,129.9,43.5,129.3,43.6L129.3,43.6z"/>
</g>
<g>
	<path class="st15" d="M86.6,36.3c0.3-0.2,0.5-0.4,0.7-0.7c0.1-0.1,0.2-0.3,0.3-0.4c0.1-0.1,0.1-0.1,0.2-0.2
		c0.1-0.1,0.2-0.1,0.2-0.2c0.7-0.4,1.5-0.4,2.2,0.2l-0.5,0.1c0.2-0.6,0.6-1.1,1.2-1.4c0.5-0.3,1.2-0.5,1.8-0.4L92.1,34
		c-0.1-0.3-0.1-0.6,0.1-0.8c0.1-0.2,0.3-0.4,0.5-0.5c0.4-0.2,0.7-0.3,1.2-0.3c0.1,0,0.4,0.1,0.5,0.1c0.2,0,0.3,0.1,0.4,0.1
		c0.3,0.1,0.6,0.2,0.9,0.2l0,0.1c-0.3,0.2-0.6,0.3-1,0.3c-0.2,0-0.3,0-0.5,0c-0.2,0-0.3,0-0.4,0c-0.2,0-0.4,0.1-0.6,0.3
		c-0.1,0.1-0.1,0.1-0.1,0.2c0,0,0,0,0,0.1l0,0.8l-0.6-0.2c-0.4-0.1-0.8-0.1-1.2,0.1c-0.4,0.2-0.8,0.5-1,0.9l-0.2,0.4l-0.3-0.3
		c-0.4-0.4-1-0.5-1.6-0.3c-0.1,0-0.1,0.1-0.2,0.1c-0.1,0-0.1,0.1-0.2,0.1c-0.1,0.1-0.2,0.2-0.4,0.3C87.2,36,87,36.2,86.6,36.3
		L86.6,36.3z"/>
</g>
</svg>
