<?xml version="1.0" encoding="utf-8"?>
<!-- Generator: Adobe Illustrator 19.0.1, SVG Export Plug-In . SVG Version: 6.00 Build 0)  -->
<svg version="1.1" id="Layer_1" xmlns="http://www.w3.org/2000/svg" xmlns:xlink="http://www.w3.org/1999/xlink" x="0px" y="0px"
	 viewBox="113 95 176 332" style="enable-background:new 113 95 176 332;" xml:space="preserve">
<style type="text/css">
	.st0{fill:#7C4923;}
	.st1{fill:#494949;}
	.st2{fill:#EFEFEF;}
	.st3{fill:#BCBCBC;}
	.st4{fill:#CC812F;}
	.st5{fill:none;stroke:#000000;stroke-miterlimit:10;}
	.st6{fill:#231F20;}
	.st7{fill:none;}
	.st8{fill:#7F1F05;}
	.st9{fill:#FFFFFF;}
	.st10{fill:#230B02;}
	.st11{fill:#0054E8;}
	.st12{fill:#2D2C2C;}
	.st13{fill:#330E02;}
	.st14{fill:#021026;}
</style>
<g>
	<path class="st0" d="M260,350.1c0,4.2-1.8,8.2-2.7,12.3c-0.8,3.7-0.9,7.6-1.1,11.4c-0.1,4.2-0.2,8.5,1.2,12.4
		c1.2-0.2,2.2-1.2,2.6-2.4c0.5-1.2,0.5-2.4,0.6-3.7c0.2-2.9,0.6-5.8,1.2-8.6c1,1,1.2,2.5,1.4,3.9c0.5,4,0.9,8.2-0.5,12
		c-0.6,0.2-1.3,0.5-1.8,0.9c-0.5,0.5-0.7,1.2-0.4,1.8c0.2,0.3,0.4,0.5,0.4,0.9c0,0.3-0.3,0.5-0.5,0.8c-1.2,1.1-1.8,2.7-1.7,4.3
		c1.4,0.1,2.9-0.5,4.1-1.2c3.8-2.2,6.9-5.2,10.1-8.3c0.6-0.6,1.3-1.3,1.8-2c1.3-1.7,1.9-3.8,2.4-5.9c0.5-2,1-4,0.9-6.1
		c0-2.3-0.6-4.5-1.2-6.7c-0.7-2.8-1.5-5.6-1.9-8.5c-0.5-4-0.4-8.1-0.6-12.2c0-0.2,0-0.4-0.2-0.5c-0.2-0.2-0.4-0.2-0.6-0.2
		c-3.3-0.1-6.5,0.6-9.7,1.3c-1.2,0.3-2.5,0.6-3.4,1.5c-0.8,0.8-1.2,2.2-0.8,3.3"/>
	<path d="M260.1,350.1c0,3.1-0.9,6.1-1.8,9c-0.4,1.5-0.8,2.9-1.1,4.4c-0.3,1.5-0.4,3-0.6,4.5c-0.1,1.5-0.2,3-0.2,4.6
		c0,1.5-0.1,3.1-0.1,4.6c0,3,0.2,6.1,1.3,8.9l-0.3-0.2c0.6-0.1,1.2-0.4,1.6-0.9c0.2-0.2,0.4-0.5,0.6-0.8c0.2-0.3,0.3-0.6,0.4-0.9
		c0.4-1.2,0.4-2.6,0.5-3.9c0.2-2.7,0.6-5.4,1.1-8l0.1-0.5l0.4,0.4c0.5,0.5,0.9,1.2,1.1,1.9c0.2,0.7,0.3,1.4,0.4,2.1
		c0.2,1.3,0.3,2.7,0.4,4.1c0.2,2.7,0.1,5.5-0.9,8.2l-0.1,0.2l-0.2,0.1c-0.8,0.3-1.6,0.6-2,1.3c-0.2,0.3-0.2,0.7,0,1
		c0.1,0.1,0.2,0.3,0.4,0.6c0.1,0.1,0.1,0.3,0.1,0.5c0,0,0,0.2,0,0.3c0,0.1-0.1,0.2-0.1,0.2c-0.2,0.3-0.4,0.4-0.5,0.6
		c-0.2,0.2-0.3,0.3-0.4,0.5c-0.3,0.3-0.5,0.7-0.7,1.1c-0.3,0.8-0.5,1.6-0.5,2.4l-0.4-0.4c1.5,0.1,3-0.6,4.3-1.5
		c1.4-0.8,2.7-1.8,3.9-2.8c1.3-1,2.4-2.1,3.6-3.3c1.2-1.1,2.4-2.3,3.4-3.5c1-1.2,1.6-2.7,2.1-4.2c0.5-1.5,0.9-3.1,1.1-4.7
		c0.3-1.6,0.4-3.2,0.2-4.8c-0.2-1.6-0.6-3.2-1-4.7c-0.8-3.2-1.6-6.4-1.9-9.7c-0.3-3.3-0.2-6.6-0.3-9.9l0-1.2c0-0.5,0-0.5-0.4-0.5
		c-0.8,0-1.6,0-2.4,0c-1.6,0.1-3.2,0.4-4.8,0.7l-2.4,0.5c-0.8,0.2-1.6,0.3-2.3,0.7c-0.7,0.3-1.4,0.9-1.7,1.6
		c-0.4,0.7-0.5,1.6-0.2,2.3l-0.1,0c-0.3-0.8-0.2-1.7,0.2-2.5c0.3-0.8,1-1.4,1.8-1.8c0.8-0.4,1.6-0.6,2.4-0.8l2.4-0.6
		c1.6-0.3,3.2-0.6,4.9-0.8c0.8-0.1,1.7-0.1,2.5-0.1c0.2,0,0.5,0,0.8,0.3c0.2,0.3,0.2,0.6,0.2,0.8l0.1,1.2c0.2,3.3,0.1,6.6,0.5,9.8
		c0.4,3.2,1.2,6.4,2.1,9.5c0.4,1.6,0.8,3.2,1,4.9c0.2,1.7,0.1,3.4-0.2,5c-0.3,1.7-0.7,3.2-1.2,4.8c-0.5,1.6-1.2,3.2-2.3,4.5
		c-1.1,1.3-2.3,2.4-3.5,3.5c-1.2,1.1-2.4,2.2-3.7,3.3c-1.3,1-2.6,2-4.1,2.9c-1.4,0.8-3,1.7-4.9,1.5l-0.3,0l0-0.3
		c0-1,0.2-1.9,0.6-2.8c0.2-0.4,0.5-0.8,0.8-1.2c0.1-0.2,0.3-0.4,0.5-0.5c0.2-0.2,0.3-0.3,0.4-0.4c0,0,0-0.1,0-0.1c0,0,0,0,0-0.1
		c0,0,0-0.1,0-0.1c-0.1-0.1-0.2-0.3-0.4-0.6c-0.3-0.5-0.2-1.2,0-1.6c0.1-0.2,0.3-0.5,0.5-0.6c0.2-0.2,0.4-0.3,0.6-0.5
		c0.4-0.2,0.9-0.4,1.3-0.6l-0.2,0.2c0.9-2.5,1-5.2,0.9-7.9c-0.1-1.3-0.2-2.7-0.4-4c-0.1-1.3-0.4-2.7-1.3-3.6l0.5-0.2
		c-0.5,2.6-0.9,5.3-1.1,8c-0.1,1.3-0.1,2.7-0.6,4.1c-0.2,0.7-0.6,1.3-1.1,1.8c-0.5,0.5-1.1,0.9-1.9,1l-0.2,0l-0.1-0.2
		c-1-2.9-1.2-6.1-1.2-9.1c0-1.5,0.1-3.1,0.1-4.6c0.1-1.5,0.1-3.1,0.3-4.6c0.1-1.5,0.3-3,0.6-4.6c0.3-1.5,0.7-3,1.1-4.4
		C259,356.1,259.9,353.2,260.1,350.1L260.1,350.1z"/>
</g>
<path class="st1" d="M175.5,176.3c-0.5-0.3-1.1-0.3-1.6,0c-0.5,0.2-1,0.6-1.4,1c-0.6,0.6-1.3,1.1-1.9,1.7c-3.6,3.2-7.4,6.6-8.8,11.1
	c-0.4,1.4-0.6,2.9-0.8,4.3c0,0.2,0,0.3,0,0.5c0.1,0.1,0.2,0.2,0.3,0.2c1,0.5,2.2,0.4,3.2,0.1s2-1,2.9-1.6c1.3-0.9,2.7-1.8,4-2.7
	c0.6-0.4,1.2-0.8,1.8-1.1c0.6-0.3,1.3-0.6,2-0.9c1.1-0.6,1.9-1.6,2.7-2.6c0.3-0.4,0.6-0.8,0.6-1.3c0-0.5-0.3-1-0.5-1.4
	c-1.3-2.1-2.1-4.4-2.6-6.8"/>
<g>
	<path class="st1" d="M164.8,359c-1.8,9-1.8,18.5,0,27.5c0.8,3.9,1.8,7.8,2.9,11.6c2.7,9.6,5.6,19.1,8.3,28.7h72.2
		c-0.2-0.4-1,0.9-0.6,1s0.7-0.3,1-0.7c1.4-2.8,2.1-6,2.7-9.1c3.6-18.5,5.4-37.5,5.4-56.5c0-4.8-0.1-9.7-1.3-14.3
		c-2.7-10.5-11.4-18.6-20.9-19.4c-9.8-0.8-18.8,5.3-28.2,8.7c-9.3,3.4-19.3,4.1-28.5,8.1c-6.3,2.8-12.7,8.3-13.3,16.1"/>
	<path d="M164.9,359c-1,5.7-1.4,11.5-1.1,17.3c0.2,2.9,0.5,5.8,1,8.6c0.5,2.8,1.2,5.7,1.9,8.4c1.5,5.6,3.2,11.1,4.9,16.7l4.9,16.7
		l-0.5-0.4l18-0.1h18h36.1l-0.4,0.8c0,0.1,0.1,0.1,0.2,0.1c0.1,0,0.2,0,0.2,0c0.1,0,0.1,0,0.1,0s-0.1,0.1-0.1,0.2s-0.1,0.2-0.1,0.2
		s0,0,0-0.1c0,0-0.1-0.1-0.1-0.2c0,0-0.1,0-0.1-0.1c-0.1,0-0.1,0,0,0c-0.1,0,0,0,0.1-0.1s0.2-0.3,0.3-0.6c0.4-0.9,0.8-1.8,1.1-2.8
		c0.6-1.9,1-3.9,1.4-5.9c0.8-4,1.5-8,2.1-12c1.2-8,2.1-16.1,2.7-24.2c0.3-4.1,0.5-8.1,0.6-12.2s0.2-8.1,0.1-12.2
		c-0.1-4-0.5-8.1-1.7-11.9c-0.6-1.9-1.5-3.7-2.5-5.5c-1-1.7-2.3-3.3-3.6-4.8c-1.4-1.5-2.9-2.7-4.6-3.8c-1.7-1.1-3.5-2-5.4-2.6
		s-3.9-0.9-5.9-0.9s-4,0.3-6,0.8c-3.9,0.9-7.7,2.6-11.4,4.2s-7.4,3.3-11.4,4.5c-3.9,1.2-7.9,2-11.9,2.9s-7.9,1.9-11.7,3.3
		c-3.8,1.4-7.4,3.4-10.3,6.3c-2.9,2.8-5,6.6-5.3,10.6h-0.1c0.3-4.1,2.4-7.9,5.3-10.8s6.5-4.9,10.4-6.4c3.8-1.5,7.8-2.5,11.7-3.4
		c4-0.9,7.9-1.8,11.8-3s7.6-2.9,11.3-4.6s7.5-3.3,11.5-4.3c2-0.5,4-0.8,6.1-0.8c2,0,4.1,0.3,6.1,0.9c2,0.6,3.9,1.5,5.6,2.6
		c1.7,1.1,3.3,2.4,4.8,3.9c1.4,1.5,2.7,3.1,3.7,4.9s1.9,3.7,2.6,5.6c1.3,3.9,1.7,8,1.8,12.1c0.1,4.1,0,8.2,0,12.2
		c-0.1,4.1-0.3,8.1-0.6,12.2c-0.5,8.1-1.4,16.2-2.6,24.3c-0.6,4-1.3,8.1-2,12.1c-0.4,2-0.8,4-1.4,6c-0.3,1-0.7,2-1.1,2.9
		c-0.1,0.2-0.2,0.5-0.4,0.8c-0.1,0.1-0.2,0.3-0.4,0.4c-0.1,0.1-0.2,0.1-0.3,0.1s-0.1,0-0.2,0c-0.1,0-0.2,0-0.2,0s0,0-0.1,0
		s-0.1-0.1-0.2-0.1c-0.1-0.1-0.2-0.2-0.2-0.3c-0.1-0.2,0-0.3,0-0.4c0-0.2,0.1-0.4,0.2-0.5c0.1-0.1,0.2-0.3,0.3-0.4s0.2-0.2,0.4-0.2
		c0.1,0,0.3,0,0.4,0c0.2,0.1,0.2,0.2,0.3,0.3l0.6,0.8h-1.1h-36.1h-18l-18-0.1H176l-0.1-0.4l-4.8-16.7c-1.6-5.6-3.2-11.1-4.7-16.7
		c-0.7-2.8-1.4-5.6-1.9-8.5s-0.8-5.8-0.9-8.7c-0.2-5.8,0.3-11.6,1.4-17.3L164.9,359z"/>
</g>
<path class="st1" d="M270,320c-0.3-2.4-0.5-4.9-0.8-7.4c-0.2-2.4-0.4-4.9-0.7-7.3c-0.5-4.9-1.1-9.8-1.7-14.6
	c-0.6-4.9-1.4-9.7-2.1-14.6c-0.8-4.9-1.6-9.7-2.5-14.5c-0.9-4.8-1.9-9.7-2.8-14.5c-1-4.8-2-9.6-3.1-14.4c-2-9.1-4.2-18.3-6.3-27.4
	c-0.7-3-1.4-5.9-2.1-8.9c-0.3-1.3-0.7-2.7-1.3-4c0,0,0,0,0-0.1c-0.2-0.3-0.4-0.6-0.6-0.9c-0.3-0.4-0.6-0.9-1-1.2
	c-1.8-1.7-4.2-2.5-6.5-3.1c-2.4-0.6-4.8-1.1-7.1-2c-2.3-0.9-4.5-1.9-6.8-2.9c-2.2-1-4.5-1.9-6.9-2.6c-4.7-1.4-9.6-2.3-14.4-2.8
	c-4.9-0.5-9.8-0.6-14.7-0.7h-5.7c-0.1,2.4-0.8,4.6-2.4,6.3c-0.9,0.9-1.9,1.5-3,2.2c-0.6,0.4-1.3,0.8-1.9,1.2
	c-0.7,0.5-1.5,0.9-2.2,1.4l-0.5,73.6l-0.1,18.7c1.2,0.4,2.4,0.9,3.6,1.4c8.7,3.7,17.8,6.4,27.1,8.2h0.2v0.2l0,0.6c0.1,0,0.1,0,0.2,0
	c1,10.2-4.6,19.8-10,28.5c-5.6-0.6-11.1-1.9-16.4-4c-1-0.4-1.9-0.8-2.8-1.4c-0.3-0.2-0.6-0.4-0.9-0.6c-0.5-0.3-0.9-0.7-1.2-1.2
	l0,0.5c0,3.4-1.8,6.5-3.2,9.6c-4.6,10.2-5,21.7-5.3,32.9c0,0,0.1,0,0.1,0c0-0.1,0-0.2,0-0.3l0,0c0,0,0,0,0,0
	c0.1-3.4,0.2-6.9,0.5-10.3c0.3-3.6,0.7-7.3,1.4-10.9c0.2-0.9,0.4-1.8,0.6-2.7c0.2-0.9,0.5-1.8,0.7-2.6c0.1-0.3,0.2-0.7,0.3-1
	c0.2-0.6,0.4-1.3,0.6-1.8l0.5-1.3l0.5-1.3c0.6-1.7,1.5-3.3,2.2-5c0.1-0.3,0.3-0.7,0.4-1.1c0.4-1.4,0.7-2.8,0.8-4.2
	c0,1.4-0.3,2.9-0.8,4.2c-0.1,0.4-0.2,0.8-0.3,1.3c-0.7,1.7-1.6,3.3-2.3,5l-0.5,1.3l-0.5,1.3c-0.3,0.6-0.4,1.1-0.6,1.6
	c-0.1,0.3-0.2,0.5-0.2,0.8c-0.2,0.9-0.5,1.7-0.7,2.6c-0.2,0.9-0.4,1.8-0.6,2.7c-0.4,1.8-0.6,3.6-0.8,5.4c-0.2,1.8-0.4,3.6-0.5,5.4
	c-0.2,3.5-0.3,7.1-0.4,10.6c6.3,0.2,12.7,0.4,19,0.2c1.6,0,3.2-0.1,4.8-0.2c1.6-0.1,3.2-0.2,4.8-0.3s3.2-0.3,4.8-0.5
	c1.6-0.2,3.2-0.4,4.8-0.7c1.6-0.3,3.1-0.6,4.7-1c1.6-0.4,3.1-0.8,4.6-1.3c3-1,6-2.3,8.6-4.1c1.3-0.9,2.5-1.9,3.6-3
	c1.1-1.1,2.1-2.4,2.9-3.7c1.7-2.7,2.7-5.7,3.1-8.8l0.2-1.5l0.8,1.3c2.3,3.9,5.1,7.7,8.4,10.8c0.8,0.8,1.7,1.5,2.6,2.2
	c0.9,0.7,1.9,1.3,2.8,1.9c2,1.2,4,2.1,6.2,2.7c2.2,0.6,4.4,0.9,6.7,0.9c0.6,0,1.1-0.1,1.7-0.1c0.6-0.1,1.2-0.1,1.7-0.2
	c1.1-0.2,2.2-0.4,3.4-0.7c2.2-0.5,4.5-1.1,6.9-1.3c1.2-0.1,2.4-0.1,3.6,0.2c0.8,0.1,1.5,0.4,2.2,0.7
	C273.7,338.6,271.2,329.4,270,320z"/>
<path d="M259.4,247.1c0.9,4.8,1.9,9.7,2.8,14.5c0.9,4.8,1.7,9.6,2.5,14.5c0.7,4.9,1.5,9.7,2.1,14.6c0.6,4.8,1.2,9.7,1.7,14.6
	c0.3,2.4,0.5,4.9,0.7,7.3c0.3,2.5,0.5,5,0.8,7.4c1.2,9.4,3.7,18.6,7.3,27.3c0.1,0.1,0.3,0.1,0.4,0.2c-4.6-10.7-7.3-22.2-8.3-33.8
	c-2.9-36.9-10.9-72.5-19.5-108.4c2.1,9.1,4.3,18.3,6.3,27.4C257.4,237.5,258.4,242.3,259.4,247.1z"/>
<path class="st0" d="M212.6,160.8c-0.3-0.8-0.5-1.7-0.6-2.7c-9.4-0.2-18.7-9.5-27.6-5.6c-0.9,0.5-5-2.3-5.6-1.4
	c-0.4,0.6,0.7,1.6,0.7,2.3c0,5.8,2.4,19.2,2.9,28.5c0.2,3.8,6,6.7,8.4,9c5.7,5.2,9.5,12.9,13.2,20.5c0.5-2.7,8-3.7,9.4-5.9
	c2.8-4.3,0.7-9.1,1.2-14.5c0.2-2.3-0.4-4.7-0.8-7c-1.5-7.7-1.6-15.8-0.3-23.6"/>
<g>
	<path class="st2" d="M178.4,172.1c-2.1,0.8-3.4,3.2-3,5.4c0.2,0.8,0.5,1.5,0.8,2.2c2.5,5.1,5.5,9.9,9,14.3
		c-0.3-1.8-1.1-3.5-1.6-5.3s-0.8-3.7,0-5.4c0.8-1.7,3-2.7,4.6-1.8c-0.7-0.4-1.1-1.2-1.6-1.8c-0.9-1.3-2-2.4-3-3.5
		c-1.6-1.6-3.1-3.3-5.1-4.4"/>
	<path d="M178.4,172.1c-2,0.9-3.2,3.2-2.8,5.2c0.2,1,0.7,2,1.2,2.9c0.5,1,1,1.9,1.6,2.8c1.1,1.9,2.2,3.7,3.4,5.5
		c1.2,1.8,2.5,3.5,3.8,5.2l-0.9,0.4c-0.2-1.3-0.7-2.6-1.1-3.9c-0.2-0.7-0.5-1.3-0.6-2c-0.2-0.7-0.3-1.4-0.3-2.1
		c0-0.7,0.1-1.5,0.3-2.2c0.1-0.2,0.1-0.4,0.2-0.5c0-0.1,0.1-0.2,0.1-0.3l0.1-0.2c0.2-0.3,0.5-0.6,0.7-0.9c0.6-0.5,1.2-0.9,2-1.1
		c0.8-0.2,1.6-0.1,2.3,0.4L188,182c-0.6-0.4-1-0.9-1.3-1.4c-0.3-0.5-0.6-1-1-1.4c-0.7-0.9-1.5-1.8-2.2-2.6c-1.5-1.7-3.1-3.5-5.1-4.7
		c2.1,1,3.8,2.8,5.4,4.4c0.8,0.8,1.6,1.7,2.4,2.6c0.4,0.5,0.7,1,1,1.4c0.3,0.5,0.7,0.9,1.1,1.1l-0.4,0.7c-1-0.6-2.4-0.1-3.3,0.7
		c-0.2,0.2-0.4,0.5-0.6,0.7l-0.1,0.2c0,0-0.1,0.1-0.1,0.2c-0.1,0.1-0.1,0.3-0.2,0.4c-0.2,0.6-0.2,1.2-0.2,1.9
		c0.1,1.3,0.5,2.6,0.9,3.9c0.5,1.3,1,2.6,1.2,4.1l0.3,1.8l-1.1-1.5c-2.6-3.5-5.1-7.1-7.1-11c-0.5-1-1-1.9-1.5-2.9
		c-0.4-1-1-2-1.1-3.1c-0.1-1.1,0.2-2.3,0.7-3.2C176.5,173.3,177.4,172.5,178.4,172.1z"/>
</g>
<g>
	<path class="st2" d="M187.5,180.7c1.6,0.2,3.2,1.2,3.9,2.7c0.8,1.7,0.5,3.6,0.5,5.5s0.4,3.9,1.9,4.9c1.1,0.7,2.6,0.7,3.9,0.8
		c5.6,0.5,10.3,4.5,13.8,8.9c5.9,7.3,9.8,16.2,11.2,25.5c0.4,2.8,0.6,5.6,1.3,8.3c0.4,1.7,1,3.4,1,5.1c0,1.8-0.8,3.7-2.4,4.3
		c-5.6-10.6-12-20.8-19.1-30.5c-1.8-2.5-3.7-5-5.9-7.3c-1.5-1.6-3.1-3-4.7-4.5c-5.3-5.2-9.7-11.7-10.7-19.1
		c-0.2-1.3-0.2-2.8,0.5-3.9c0.8-1.1,2.6-1.5,3.4-0.5"/>
	<path class="st3" d="M187.5,180.7c1.8,0.2,3.4,1.4,4.1,3c0.7,1.7,0.4,3.5,0.4,5.2c0,0.9,0.1,1.7,0.3,2.6c0.2,0.8,0.7,1.6,1.4,2.1
		c0.7,0.5,1.5,0.7,2.4,0.8s1.8,0.1,2.6,0.2c3.5,0.6,6.7,2.5,9.3,4.8c2.6,2.4,4.8,5.2,6.8,8.1c3.9,5.9,6.6,12.5,7.9,19.4
		c0.3,1.7,0.6,3.5,0.8,5.2s0.5,3.5,0.9,5.1c0.4,1.7,1.1,3.4,1.1,5.2c0,0.9-0.2,1.9-0.6,2.7c-0.4,0.8-1.1,1.6-2.1,2l-0.3,0.1
		l-0.2-0.3c-3.2-6-6.7-11.9-10.4-17.7c-1.8-2.9-3.8-5.7-5.7-8.5c-2-2.8-3.9-5.6-6-8.3c-1.1-1.3-2.1-2.6-3.4-3.8l-3.7-3.6
		c-2.4-2.4-4.7-5.1-6.5-8c-1.8-2.9-3.3-6.1-4-9.5c-0.2-0.8-0.3-1.7-0.4-2.6c-0.1-0.9-0.1-1.8,0.1-2.6c0.2-0.8,0.8-1.7,1.6-2
		c0.8-0.4,1.9-0.3,2.4,0.4l-0.1,0.1c-0.6-0.7-1.6-0.7-2.3-0.3c-0.8,0.3-1.3,1.1-1.5,1.9c-0.4,1.6,0.1,3.4,0.4,5
		c0.8,3.3,2.3,6.4,4.1,9.2c1.9,2.8,4.1,5.4,6.6,7.8l3.7,3.5c1.3,1.2,2.4,2.5,3.5,3.8c2.2,2.7,4.1,5.5,6.1,8.3s3.9,5.7,5.7,8.5
		c3.7,5.8,7.1,11.7,10.3,17.8l-0.5-0.2c1.5-0.6,2.2-2.3,2.2-3.9c0-1.7-0.6-3.3-1-5s-0.7-3.5-0.9-5.2s-0.4-3.5-0.7-5.2
		c-1.3-6.8-3.9-13.4-7.7-19.3c-1.9-2.9-4-5.7-6.6-8.1c-1.3-1.2-2.7-2.2-4.2-3.1c-1.5-0.8-3.2-1.5-4.9-1.8c-0.9-0.1-1.7-0.2-2.6-0.3
		c-0.9-0.1-1.8-0.3-2.5-0.9c-0.7-0.6-1.2-1.4-1.4-2.2c-0.2-0.9-0.3-1.8-0.3-2.6c0-1.7,0.3-3.5-0.3-5.2
		C190.8,182.1,189.2,180.9,187.5,180.7L187.5,180.7z"/>
</g>
<g>
	<path class="st3" d="M186,189.5c0,0,0.1,0.1,0.1,0.4c0.1,0.3,0.1,0.7,0.1,1.1c0,0.2,0,0.5,0.1,0.7c0,0.2,0.1,0.5,0.2,0.6
		c0.2,0.3,0.3,0.4,0.5,0.6c0.2,0.2,0.4,0.3,0.7,0.4c0.5,0.3,1.1,0.4,1.6,0.7c0.5,0.2,1.1,0.5,1.5,0.8c0.4,0.3,0.7,0.6,0.8,0.9
		c0.1,0.3,0.1,0.4,0.1,0.4s-0.1-0.1-0.3-0.3c-0.2-0.2-0.5-0.4-0.9-0.5c-0.8-0.3-2-0.5-3.2-1c-0.3-0.2-0.6-0.3-0.9-0.6
		c-0.1-0.1-0.3-0.3-0.4-0.4c-0.1-0.2-0.1-0.3-0.2-0.4c-0.2-0.4-0.2-0.7-0.2-1s0-0.6,0.1-0.8c0.1-0.5,0.2-0.8,0.3-1.1
		C186,189.7,186,189.5,186,189.5z"/>
</g>
<g>
	<path class="st4" d="M275.7,305.3l-99.3,28L160,265c0,0,95.7-28.2,96-28.3c0,0,2.4,8.4,2.5,8.8c0.7,2.5,1.1,7.4,2.8,9.3
		c1.6,1.9,6,2.8,8.4,3.2c0.7,0.1,1.4,0.2,1.9,0.7c0.4,0.3,0.6,0.7,0.8,1.1c2.4,4.7,3.8,9.8,5.1,15c0.2,0.9,0.5,1.9,0.1,2.8
		c-0.3,0.7-0.9,1.1-1.4,1.6c-1.8,1.5-5.8,4.5-6.1,6.9c-0.3,2.5,2.1,7.1,2.8,9.5C273,296.1,275.7,305.3,275.7,305.3z"/>
	<path d="M275.5,305.4l-99.1,28.2l-0.3,0.1l-0.1-0.3l-16.4-68.3l-0.1-0.4l0.4-0.1l48-14.3l48-14.1l0.3,0.9c0.1,0,0.2,0,0.2-0.1
		c0.1-0.1,0.1-0.2,0.1-0.3s0-0.1,0-0.1l0,0v0.2l0.1,0.3l0.2,0.6l0.3,1.2l0.7,2.5c0.5,1.7,1,3.2,1.4,5c0.4,1.7,0.6,3.4,1,5
		c0.2,0.8,0.5,1.6,0.8,2.3c0.4,0.7,0.9,1.3,1.6,1.7c1.4,0.8,3,1.3,4.7,1.7c0.8,0.2,1.7,0.4,2.5,0.5c0.4,0.1,0.9,0.2,1.3,0.3
		c0.4,0.2,0.9,0.5,1.1,0.9c0.9,1.6,1.6,3.1,2.2,4.7c0.6,1.6,1.2,3.2,1.6,4.9c0.5,1.6,0.9,3.3,1.4,4.9c0.2,0.8,0.5,1.6,0.6,2.5
		c0.1,0.4,0,0.9-0.1,1.4c-0.1,0.5-0.4,0.9-0.7,1.2c-1.3,1.2-2.7,2.2-3.9,3.3c-0.6,0.6-1.2,1.2-1.7,1.8s-1,1.3-1.2,2.1
		s-0.1,1.6,0.1,2.4c0.2,0.8,0.4,1.6,0.7,2.4c0.6,1.6,1.2,3.2,1.7,4.8l1.4,4.9l0.7,2.5l0.3,1.2l0.2,0.6l0.1,0.3c0,0.1,0.1,0.2,0,0.3
		L275.5,305.4z M275.6,305.3c-0.1-0.1-0.1-0.2-0.1-0.3l-0.1-0.3l-0.2-0.6l-0.4-1.2l-0.7-2.5l-1.4-4.9c-0.5-1.6-1.2-3.2-1.8-4.8
		c-0.3-0.8-0.6-1.6-0.8-2.5c-0.2-0.8-0.4-1.7-0.2-2.6c0.2-0.9,0.7-1.6,1.3-2.3c0.5-0.7,1.1-1.3,1.8-1.9c1.2-1.2,2.7-2.2,3.9-3.3
		c0.6-0.6,0.8-1.3,0.7-2.1c-0.1-0.8-0.4-1.6-0.6-2.5c-0.4-1.6-0.9-3.3-1.4-4.9c-0.5-1.6-1-3.2-1.7-4.8c-0.6-1.6-1.3-3.2-2.1-4.5
		c-0.4-0.6-1.2-0.8-2-0.9c-0.8-0.1-1.7-0.3-2.5-0.5c-1.7-0.4-3.4-0.9-4.9-1.8c-0.8-0.5-1.5-1.1-1.9-2c-0.4-0.8-0.7-1.6-0.9-2.5
		c-0.5-1.7-0.7-3.4-1.1-5c-0.4-1.6-0.9-3.3-1.4-4.9l-0.7-2.5L256,238l-0.2-0.6l-0.1-0.3v-0.2l0,0c0,0,0,0,0-0.1s0-0.3,0.1-0.4
		c0.1-0.1,0.2-0.2,0.2-0.2l0.3,0.9l-48,14.2l-48,14.1l0.3-0.5l16.2,68.4l-0.3-0.2L275.6,305.3z"/>
</g>
<g>
	<path class="st0" d="M203.6,291.5c3.8,3.4,9.5,3.3,14.6,3.6c3.5,0.2,6.9,0.6,10.2,1.8c5.3,2,9.9,5.9,15.5,6.8
		c0.5,0.1,0.9,0.1,1.3,0.4c0.7,0.5,0.8,1.7,0.3,2.4c-0.5,0.8-1.4,1.1-2.3,1.3c-3.9,0.5-7.2-2.8-11.1-3.6c-0.2,1.2,0.3,2.5,1.1,3.4
		c0.8,1,1.8,1.7,2.8,2.5c1.4,1.2,2.6,2.6,3.6,4.1c0.9,1.4,1.6,3,1.3,4.5s-2,3-3.5,2.4c-1.3-0.5-2.1-2.4-3.5-2.4
		c0.6,1.1,0.1,2.6-0.9,3.5c-1,0.9-2.3,1.2-3.5,1.5c-1,0.3-1.9,0.5-2.9,0.8c-1.3,0.4-2.9,0.7-4-0.1c-0.3-0.2-0.5-0.4-0.8-0.3
		c-0.2,0.1-0.3,0.2-0.4,0.4c-1.3,1.8-4.2,1.6-6.1,0.5c-6.5-3.5-8.4-12.8-15.1-15.8c-0.4-0.2-0.8-0.3-0.9-0.7c-0.1-0.3,0-0.7,0.1-1.1
		c1.9-5,3.2-10.2,3.9-15.5"/>
	<path d="M203.6,291.5c1.9,1.7,4.4,2.5,6.9,2.9c2.5,0.4,5.1,0.4,7.6,0.5c2.6,0.1,5.1,0.4,7.6,1c1.2,0.3,2.5,0.7,3.7,1.2
		c1.2,0.5,2.3,1.1,3.5,1.7c2.3,1.2,4.5,2.5,6.8,3.5c1.2,0.5,2.4,0.9,3.6,1.1c0.6,0.2,1.3,0.1,1.9,0.5c0.7,0.5,0.9,1.3,0.7,2
		c-0.1,0.7-0.6,1.3-1.2,1.7c-0.6,0.4-1.3,0.5-1.9,0.6c-1.3,0.1-2.7-0.2-3.9-0.6c-2.4-0.9-4.6-2.4-7-2.9l0.4-0.3
		c-0.2,1,0.2,2,0.8,2.9c0.6,0.9,1.5,1.5,2.4,2.2c1.8,1.4,3.3,3.2,4.5,5.1c0.6,1,1.1,2.1,1.2,3.3c0,0.6,0,1.2-0.3,1.8
		c-0.3,0.6-0.7,1.1-1.2,1.5c-0.5,0.4-1.1,0.6-1.8,0.6c-0.7,0-1.3-0.4-1.8-0.8c-0.5-0.4-0.8-0.8-1.2-1.2c-0.4-0.4-0.8-0.6-1.2-0.6
		l0.4-0.7c0.4,0.7,0.4,1.6,0.2,2.3c-0.2,0.7-0.7,1.4-1.2,1.9c-1.1,0.9-2.5,1.3-3.8,1.6c-1.3,0.3-2.5,0.7-3.9,1
		c-0.7,0.1-1.4,0.2-2.2,0c-0.7-0.1-1.7-0.9-1.4-0.7c0,0-0.3,0.4-0.5,0.6c-0.3,0.3-0.6,0.5-1,0.7c-0.7,0.3-1.4,0.5-2.2,0.4
		c-1.4,0-2.8-0.5-4-1.3c-0.6-0.3-1.1-0.8-1.7-1.2c-0.5-0.5-1-0.9-1.4-1.4c-0.9-1-1.7-2.1-2.5-3.2c-1.5-2.2-2.9-4.4-4.6-6.4
		c-0.9-1-1.8-1.8-2.9-2.5c-0.6-0.3-1.1-0.6-1.7-0.9c-0.2-0.1-0.3-0.2-0.5-0.4c-0.1-0.2-0.2-0.4-0.3-0.6c0-0.4,0.1-0.8,0.2-1.1
		c1-2.5,1.7-5,2.4-7.5c0.7-2.5,1.3-5.1,1.7-7.7l0.1,0c-0.6,5.3-1.8,10.5-3.7,15.5c-0.1,0.3-0.2,0.6-0.2,0.8c0,0.2,0.2,0.4,0.4,0.5
		c0.5,0.3,1.2,0.6,1.8,0.9c1.2,0.7,2.2,1.6,3.1,2.6c1.8,2,3.3,4.3,4.8,6.4c0.8,1.1,1.6,2.1,2.4,3c0.4,0.5,0.9,0.9,1.4,1.3
		c0.5,0.4,0.9,0.8,1.5,1.1c1,0.7,2.2,1.1,3.5,1.1c0.6,0,1.2-0.1,1.7-0.3c0.3-0.1,0.5-0.3,0.7-0.5c0.1-0.1,0.2-0.3,0.3-0.3
		c0.1-0.1,0.2-0.3,0.5-0.5c0.3-0.2,0.7-0.1,0.9,0c0.2,0.1,0.4,0.2,0.5,0.3c0.2,0.1,0.5,0.3,0.7,0.3c0.5,0.1,1.2,0.1,1.8,0
		c1.2-0.3,2.5-0.7,3.8-1c1.3-0.3,2.5-0.7,3.4-1.4c0.9-0.7,1.4-2,0.9-2.9l-0.4-0.7l0.8,0c0.7,0,1.4,0.4,1.8,0.8
		c0.4,0.4,0.8,0.8,1.2,1.2c0.4,0.3,0.8,0.6,1.2,0.6c0.4,0,0.9-0.2,1.3-0.4c0.4-0.3,0.7-0.7,0.9-1.1c0.1-0.1,0.1-0.2,0.1-0.3l0.1-0.2
		l0-0.1c0,0,0,0,0,0l0,0l0-0.1c0-0.2,0-0.5,0-0.8c0-1-0.5-2-1-3c-1.1-1.9-2.6-3.5-4.3-4.9c-0.9-0.7-1.8-1.4-2.5-2.4
		c-0.7-0.9-1.2-2.2-0.9-3.4l0.1-0.3l0.3,0.1c2.6,0.6,4.8,2.1,7.1,3c1.2,0.5,2.4,0.8,3.6,0.6c1.2-0.1,2.5-0.6,2.7-1.8
		c0.1-0.5,0-1.1-0.5-1.4c-0.4-0.3-1.1-0.3-1.7-0.5c-1.3-0.3-2.5-0.7-3.7-1.2c-2.4-1-4.6-2.3-6.8-3.5c-1.1-0.6-2.3-1.2-3.4-1.7
		c-1.2-0.5-2.4-0.9-3.6-1.2c-2.5-0.6-5-0.9-7.6-1.1c-2.5-0.1-5.1-0.2-7.6-0.6c-1.3-0.2-2.5-0.5-3.7-1
		C205.7,293.1,204.5,292.4,203.6,291.5L203.6,291.5z"/>
</g>
<path class="st1" d="M170.9,188.7c-3.2,2-6.4,3.9-9.6,5.9c0.2-2.5,1-4.8,1.8-7.2c-0.7,0.5-1.5,0.9-2.3,1.2c-2.1,0.9-4.4,1.4-6.6,1.9
	s-4.4,1.1-6.5,2s-4,2.1-5.6,3.7c-1.6,1.6-2.7,3.6-3,5.8c-0.2,1.1-0.2,2.2-0.4,3.4c-0.2,1.2-0.6,2.3-1.1,3.3s-1.1,2-1.4,3
	c-0.3,1.1-0.5,2.2-0.5,3.3c-0.1,1.1,0,2.3-0.1,3.4c0,1.1-0.1,2.3-0.3,3.4c-0.6,4.6-2,9-3.4,13.3c-2.8,8.7-5.8,17.3-8.1,26.1
	c-1.1,4.4-2,8.9-2.5,13.4c-0.1,1.1-0.3,2.3-0.3,3.4c-0.1,1.1-0.2,2.3-0.2,3.4c-0.1,2.3,0,4.5,0.4,6.7s1.3,4.3,2.9,5.7
	c1.6,1.5,3.7,2.1,5.9,2.6c4.5,0.9,8.9,1.9,13.4,2.9c4.4,1,8.9,2.1,13.3,3.3c2.2,0.6,4.4,1.1,6.6,1.8c2.2,0.7,4.4,1.5,6.3,2.9
	c0.9,0.7,1.8,1.5,2.5,2.4c0.1,0.2,0.3,0.4,0.4,0.5l0.2-30.2c-1-0.4-2.1-0.7-3.1-0.9c-2.3-0.4-4.7-0.5-7-1.6c-0.5-0.3-1-0.6-1.5-1.1
	c-0.4-0.4-0.8-1-1.1-1.5s-0.6-1-1-1.4c-0.4-0.4-0.9-0.7-1.4-0.9c-1-0.5-2.2-0.6-3.4-0.7c-1.2,0-2.3,0.1-3.5,0.2h-0.2V272
	c0-2.3,0.6-4.5,1.3-6.6l2.1-6.4l4.1-12.8l0.1-0.2l0.2,0.2l1.7,1.9l1.7,1.9l1.6,2l1.5,2l1.5,2.1l1.4,2.1l1.3,2.2l0.7,1.3c0,0,0,0,0,0
	c0.4-0.1,0.8-0.3,1.1-0.4c0.7-0.2,1.4-0.3,2.1-0.7l0.5-73.6C172.6,187.6,171.7,188.2,170.9,188.7z"/>
<g>
	<path class="st3" d="M194.2,200.7c0,0,0,0.2,0.1,0.5c0.1,0.3,0.4,0.7,0.7,1.1c0.4,0.4,0.9,0.9,1.4,1.4s1,1.1,1.6,1.6
		c1.1,1.1,2.1,2.2,2.9,3.1c0.8,0.8,1.3,1.5,1.3,1.5s-0.7-0.3-1.7-1s-2.2-1.7-3.3-2.8c-0.5-0.6-1.1-1.2-1.5-1.8
		c-0.5-0.6-0.9-1.1-1.2-1.7c-0.3-0.5-0.5-1.1-0.5-1.4c0-0.2,0-0.3,0-0.4C194.2,200.8,194.2,200.7,194.2,200.7z"/>
</g>
<g>
	<path class="st2" d="M225.9,242.3c1.6-5.7,1.4-11.7,1.3-17.7c-0.1-2.6-0.2-5.2-1.1-7.6c-0.5-1.3-1.2-2.5-1.5-3.8
		c-0.4-1.6-0.3-3.4-0.5-5.1c-0.2-1.7-0.9-3.5-2.4-4.3c-0.3-1.9-0.4-4.1-0.7-6c-0.1-0.5-0.2-1.1-0.6-1.3c-0.7-0.4-1.5,0.2-2.1,0.7
		c-1.7,1.7-3.5,3.5-5.2,5.2c-0.4,0.4-0.8,0.8-1,1.4c-0.5,1.3,0.6,2.7,1.5,3.8c1.2,1.5,2.1,3.1,2.9,4.8c1,2.2,1.8,4.4,2.5,6.7
		c0.8,2.4,1.6,4.7,2.4,7.1c1.7,5.1,3.5,10.3,3.9,15.6"/>
	<path class="st3" d="M225.8,242.3c0.9-3.2,1.2-6.5,1.3-9.8c0-1.7,0-3.3,0-5c-0.1-1.7-0.1-3.3-0.2-5c-0.1-1.6-0.3-3.3-0.8-4.8
		s-1.4-3-1.8-4.6c-0.4-1.7-0.3-3.4-0.5-5c-0.1-0.8-0.3-1.6-0.7-2.3s-0.9-1.3-1.6-1.6l-0.2-0.1v-0.2c-0.2-1.2-0.3-2.5-0.4-3.7
		c-0.1-0.6-0.1-1.2-0.2-1.8c-0.1-0.6-0.2-1.3-0.5-1.5s-0.8-0.1-1.2,0.3c-0.4,0.3-0.9,0.8-1.3,1.3l-2.6,2.7l-1.3,1.3
		c-0.4,0.5-0.9,0.9-1.1,1.3c-0.5,0.9,0,2,0.8,2.9s1.6,2,2.2,3.1c0.7,1.1,1.2,2.2,1.7,3.4c1,2.3,1.8,4.7,2.6,7.1l2.3,7.1
		c0.8,2.4,1.5,4.8,2.1,7.2s1,4.9,1.1,7.4h-0.1c-0.3-2.5-0.8-4.9-1.5-7.3c-0.7-2.4-1.5-4.7-2.3-7.1l-2.5-7c-0.8-2.3-1.6-4.7-2.6-7
		c-0.5-1.1-1-2.2-1.7-3.3c-0.6-1.1-1.3-2-2.1-3c-0.4-0.5-0.8-1.1-1-1.8s-0.2-1.5,0.2-2.2c0.4-0.6,0.9-1,1.3-1.5l1.3-1.3l2.7-2.6
		c0.5-0.4,0.8-0.9,1.4-1.3c0.3-0.2,0.6-0.4,1-0.5c0.2-0.1,0.4-0.1,0.6,0c0.1,0,0.2,0,0.3,0.1l0.1,0.1l0,0h0.1h0.1
		c0.4,0.3,0.5,0.7,0.6,1c0.1,0.3,0.1,0.7,0.2,1c0.1,0.6,0.1,1.2,0.2,1.9c0.1,1.2,0.2,2.5,0.4,3.7l-0.2-0.3c0.8,0.4,1.4,1.1,1.8,1.9
		c0.4,0.8,0.6,1.6,0.7,2.5c0.2,1.7,0.1,3.4,0.4,4.9c0.3,1.6,1.3,3,1.8,4.6s0.7,3.3,0.7,5c0.1,1.7,0.1,3.3,0.1,5s0,3.3,0,5
		C227.2,235.8,226.9,239.1,225.8,242.3L225.8,242.3z"/>
</g>
<g>
	<path class="st2" d="M210.4,174.4c2.6,1.7,5.4,3.7,6.1,6.8c0.7,3.1-1,6.7,0.6,9.4c0.9,1.6,2.7,2.5,4.2,3.6c0.3,0.2,0.6,0.5,0.7,0.9
		c0,0.3-0.1,0.6-0.2,0.8c-2.1,3.8-7.2,5-9.4,8.7c-0.3-3.4-0.1-6.9,0.5-10.3c0.6-3.3,1.5-6.7,0.8-10c-0.8-3.5-3.5-6.5-3.3-10.1"/>
	<path d="M210.4,174.4c1.4,0.9,2.8,1.8,4,2.9c0.6,0.6,1.1,1.2,1.6,1.9c0.4,0.7,0.8,1.5,0.9,2.4c0.3,1.7,0,3.4-0.1,5s0.1,3.2,1.1,4.4
		c0.5,0.6,1.1,1.1,1.8,1.5c0.7,0.5,1.4,0.9,2,1.4c0.2,0.1,0.4,0.3,0.5,0.6c0.1,0.2,0.2,0.6,0.2,0.9c-0.1,0.3-0.2,0.5-0.3,0.7
		l-0.3,0.5c-0.5,0.7-1.1,1.4-1.7,1.9c-1.3,1.1-2.7,2-4,3s-2.5,2-3.4,3.3l-0.8,1.3l-0.1-1.5c-0.2-2.6-0.1-5.3,0.2-7.9
		c0.1-1.3,0.4-2.6,0.6-3.9c0.3-1.3,0.5-2.5,0.7-3.8s0.3-2.5,0.1-3.8c0-0.3-0.1-0.6-0.2-0.9c-0.1-0.3-0.2-0.6-0.3-0.9
		c-0.2-0.6-0.4-1.2-0.7-1.8c-0.5-1.2-1.1-2.4-1.5-3.6c-0.5-1.2-0.7-2.5-0.6-3.8c0,1.3,0.3,2.6,0.8,3.8c0.5,1.2,1.1,2.3,1.7,3.5
		c0.3,0.6,0.6,1.2,0.8,1.8c0.1,0.3,0.2,0.6,0.3,0.9s0.2,0.7,0.2,1c0.2,1.3,0.2,2.7,0,4c-0.3,2.6-0.9,5.1-1.2,7.7s-0.3,5.1-0.1,7.7
		l-0.9-0.2c0.9-1.5,2.2-2.6,3.6-3.6c1.4-1,2.7-1.8,3.9-2.9c0.6-0.5,1.1-1.1,1.6-1.7l0.3-0.5c0.1-0.1,0.2-0.3,0.2-0.4
		c0-0.2-0.1-0.4-0.4-0.6c-1.2-1-2.8-1.7-3.9-3.1c-0.6-0.7-0.9-1.5-1.1-2.4c-0.2-0.9-0.1-1.7-0.1-2.5c0.1-1.7,0.4-3.3,0.2-4.8
		c-0.2-1.6-1-3-2.2-4.2C213.1,176.3,211.7,175.3,210.4,174.4z"/>
</g>
<g>
	<path d="M124.7,274.7c0,0,0.2-0.3,0.7-0.8c0.2-0.3,0.5-0.6,0.9-0.9c0.3-0.4,0.7-0.7,1.2-1.1s1-0.8,1.5-1.2c0.6-0.4,1.2-0.8,1.8-1.2
		c0.7-0.3,1.4-0.7,2.1-1c0.7-0.3,1.5-0.6,2.3-0.9c0.8-0.2,1.6-0.5,2.3-0.6c0.8-0.2,1.6-0.3,2.3-0.4c0.8-0.1,1.5-0.1,2.2-0.1
		s1.3,0,2,0.1c0.6,0,1.2,0.1,1.6,0.2c0.5,0.1,0.9,0.2,1.2,0.2c0.7,0.2,1.1,0.3,1.1,0.3s-0.4,0-1.1-0.1c-0.3,0-0.8-0.1-1.2-0.1
		c-0.5,0-1,0-1.6,0s-1.2,0-1.9,0.1c-0.7,0-1.4,0.2-2.1,0.3s-1.5,0.3-2.2,0.4c-0.8,0.2-1.5,0.4-2.2,0.6c-0.7,0.3-1.5,0.5-2.2,0.8
		c-0.7,0.3-1.4,0.6-2.1,0.9c-0.6,0.4-1.3,0.7-1.9,1c-0.6,0.3-1.1,0.7-1.6,1c-0.5,0.3-0.9,0.7-1.3,0.9c-0.4,0.3-0.7,0.5-1,0.8
		C125.1,274.5,124.7,274.7,124.7,274.7z"/>
</g>
<g>
	<path d="M129.9,282.9c0,0,0.2-0.3,0.6-0.7c0.4-0.4,0.9-1.1,1.6-1.9c0.7-0.8,1.5-1.6,2.4-2.6c0.9-0.9,1.8-1.9,2.9-2.8
		c0.5-0.4,1.1-0.9,1.7-1.3c0.6-0.4,1.2-0.7,1.8-0.9c1.2-0.5,2.4-0.7,3.4-0.9c1-0.1,1.9-0.2,2.5-0.2s0.9,0,0.9,0s-0.3,0.1-0.9,0.2
		c-0.6,0.1-1.4,0.3-2.4,0.6c-1,0.3-2.1,0.6-3.2,1.1c-0.5,0.2-1.1,0.6-1.6,0.9c-0.5,0.4-1,0.8-1.5,1.2c-1,0.9-2,1.8-2.9,2.7
		c-0.9,0.9-1.8,1.7-2.6,2.3c-0.8,0.7-1.4,1.2-1.9,1.6C130.2,282.7,129.9,282.9,129.9,282.9z"/>
</g>
<g>
	<path d="M149,274c0,0,0,0.6-0.1,1.3c-0.1,0.8-0.2,1.8-0.4,2.9c-0.2,1-0.4,2.1-0.5,2.8c-0.2,0.8-0.4,1.3-0.4,1.3s-0.2-0.5-0.2-1.3
		c-0.1-0.8,0-1.9,0.1-2.9c0.2-1.1,0.5-2.1,0.8-2.8C148.7,274.5,149,274,149,274z"/>
</g>
<g>
	<path d="M159.3,275.8c0,0-0.2-0.1-0.5-0.1s-0.7,0-1.1,0.2c-0.4,0.2-0.9,0.5-1.4,0.9c-0.2,0.2-0.4,0.4-0.7,0.6
		c-0.2,0.2-0.5,0.5-0.7,0.7c-0.9,1-1.8,2-2.4,2.8c-0.6,0.8-1.1,1.4-1.1,1.4s0.1-0.7,0.6-1.7c0.4-1,1.2-2.2,2.2-3.2
		c0.2-0.2,0.5-0.5,0.8-0.7c0.2-0.2,0.5-0.5,0.8-0.6c0.6-0.4,1.2-0.6,1.7-0.7c0.6-0.1,1,0,1.3,0.2
		C159.2,275.6,159.3,275.8,159.3,275.8z"/>
</g>
<g>
	<path d="M140,209.2c0,0,0.2-0.1,0.6-0.2c0.4-0.1,1-0.2,1.7-0.4c1.4-0.3,3.3-0.6,5.2-0.8c1-0.1,1.9-0.2,2.8-0.3c0.9,0,1.8,0,2.6,0.3
		c0.7,0.2,1.3,0.6,1.6,0.9c0.3,0.3,0.4,0.6,0.4,0.6s-0.2-0.2-0.5-0.4c-0.2-0.1-0.4-0.2-0.6-0.3c-0.3-0.1-0.6-0.2-0.9-0.2
		c-0.7-0.1-1.5,0-2.4,0.1c-0.9,0.1-1.8,0.3-2.8,0.4c-1.9,0.2-3.8,0.3-5.3,0.4c-0.7,0-1.3,0-1.8,0C140.3,209.2,140,209.2,140,209.2z"
		/>
</g>
<g>
	<path d="M161.5,190.5c0,0,0.1,0,0.2,0.1c0.1,0.1,0.4,0.2,0.6,0.4c0.5,0.4,1.3,1,2,1.8s1.5,1.9,2.1,3.2c0.6,1.3,1.2,2.7,1.5,4.1
		c0.3,1.4,0.6,2.9,0.7,4.3c0.1,1.4,0.1,2.7,0.1,3.8c-0.1,2.2-0.2,3.7-0.2,3.7s0-0.4-0.1-1c-0.1-0.6-0.1-1.5-0.2-2.6
		c-0.1-1.1-0.2-2.4-0.4-3.7c-0.2-1.4-0.4-2.8-0.8-4.2c-0.3-1.4-0.8-2.7-1.3-4c-0.5-1.2-1.2-2.3-1.8-3.2c-0.6-0.9-1.2-1.6-1.7-2
		C161.8,190.8,161.5,190.5,161.5,190.5z"/>
</g>
<g>
	<path d="M162.3,186.9c0,0,0.1,0.3,0.3,0.9c0.2,0.6,0.6,1.5,1,2.5c1,2.2,2.5,5.2,4.8,8.5s5.5,6.8,9.1,10.3c3.7,3.5,7.8,7,11.9,10.5
		s8.2,7.1,12,10.4c1.9,1.7,3.7,3.3,5.5,4.9c1.7,1.6,3.3,3,4.9,4.4c6,5.5,9.9,9.2,9.9,9.2l-0.1,0.1c0,0-4.2-3.4-10.4-8.7
		c-1.5-1.3-3.2-2.8-5-4.3c-1.7-1.5-3.6-3.1-5.5-4.8c-3.8-3.4-7.8-7-11.8-10.6s-8.1-7.2-11.7-10.7s-6.8-7.2-9-10.5
		c-2.3-3.4-3.8-6.4-4.7-8.6c-0.5-1.1-0.8-2-1-2.6C162.3,187.2,162.2,186.9,162.3,186.9L162.3,186.9z"/>
</g>
<g>
	<path d="M228.7,184.5c0,0,0.5,0.9,1.3,2.3c0.2,0.4,0.4,0.8,0.7,1.2c0.2,0.5,0.4,1,0.7,1.5c0.2,0.5,0.5,1.1,0.8,1.7s0.5,1.3,0.7,2
		s0.5,1.4,0.8,2.1c0.2,0.8,0.5,1.5,0.7,2.3c0.3,0.8,0.5,1.6,0.6,2.5c0.2,0.9,0.4,1.7,0.6,2.6c0.3,1.8,0.6,3.7,0.8,5.6
		c0.2,1.9,0.2,3.9,0.3,5.8c-0.1,2-0.1,3.9-0.3,5.8c-0.1,1.9-0.5,3.8-0.8,5.6c-0.2,0.9-0.4,1.8-0.6,2.6c-0.1,0.4-0.2,0.9-0.3,1.3
		c-0.1,0.4-0.3,0.8-0.4,1.2c-0.3,0.8-0.5,1.6-0.8,2.3s-0.6,1.4-0.8,2.1c-0.3,0.7-0.5,1.3-0.8,1.9c-0.3,0.6-0.6,1.2-0.8,1.7
		c-0.3,0.5-0.5,1-0.7,1.5s-0.5,0.8-0.7,1.2c-0.9,1.5-1.4,2.3-1.4,2.3l-0.1-0.1c0,0,0.4-0.9,1.2-2.4c0.4-0.7,0.8-1.7,1.3-2.8
		c0.2-0.5,0.5-1.1,0.7-1.7c0.2-0.6,0.5-1.3,0.7-2s0.5-1.4,0.7-2.1c0.2-0.7,0.4-1.5,0.7-2.3c0.2-0.8,0.4-1.6,0.6-2.5
		c0.2-0.8,0.4-1.7,0.6-2.6c0.3-1.8,0.7-3.6,0.9-5.5c0.3-1.9,0.3-3.8,0.4-5.7c0-1.9,0-3.9-0.2-5.7c-0.1-1.9-0.4-3.7-0.6-5.5
		c-0.1-0.9-0.3-1.8-0.5-2.6c-0.2-0.9-0.3-1.7-0.6-2.5c-0.2-0.8-0.4-1.6-0.6-2.3c-0.2-0.8-0.5-1.5-0.7-2.1c-0.2-0.7-0.5-1.3-0.7-2
		c-0.3-0.6-0.5-1.2-0.7-1.7s-0.4-1.1-0.6-1.5c-0.2-0.5-0.4-0.9-0.6-1.3C229,185.4,228.6,184.5,228.7,184.5L228.7,184.5z"/>
</g>
<path class="st5" d="M254.8,311c-0.1,5.8-0.3,11.6-0.4,17.3c-0.1,2.8-0.1,5.7,0.5,8.4c1,4.3,3.6,8.2,4,12.5"/>
<g>
	<path d="M168.7,342.2c0,0,0.2-0.1,0.6-0.1c0.4-0.1,1-0.2,1.7-0.4c0.3-0.1,0.7-0.2,1.1-0.3c0.4-0.1,0.8-0.3,1.2-0.4
		c0.8-0.3,1.7-0.6,2.5-1s1.6-0.8,2.4-1.3c0.4-0.2,0.7-0.4,1.1-0.7c0.3-0.2,0.6-0.4,0.9-0.6c0.6-0.4,1.1-0.7,1.4-1s0.5-0.4,0.5-0.4
		s-0.1,0.2-0.4,0.5c-0.3,0.3-0.6,0.8-1.1,1.3s-1.1,1.1-1.9,1.6c-0.4,0.2-0.8,0.5-1.2,0.7c-0.4,0.2-0.8,0.5-1.3,0.7
		c-0.4,0.2-0.9,0.4-1.3,0.5c-0.4,0.2-0.9,0.3-1.3,0.4c-0.9,0.2-1.7,0.4-2.4,0.4c-0.7,0.1-1.3,0-1.7,0
		C168.9,342.2,168.7,342.2,168.7,342.2z"/>
</g>
<g>
	<path d="M159.1,245.9c0,0,0.3-0.5,0.8-1.3c0.2-0.4,0.5-1,0.8-1.6c0.3-0.6,0.5-1.4,0.8-2.2c0.5-1.6,0.9-3.6,0.9-5.6
		c0-2.1-0.3-4.3-0.8-6.5s-1-4.4-1.6-6.5c-0.6-2.1-1.1-4-1.7-5.6c-0.6-1.6-1-3-1.4-3.9c-0.3-0.9-0.5-1.5-0.5-1.5s0.3,0.5,0.7,1.4
		s1.1,2.2,1.7,3.8s1.4,3.5,2,5.5c0.7,2.1,1.2,4.3,1.7,6.5c0.2,1.1,0.4,2.3,0.6,3.4c0.1,1.1,0.2,2.3,0.1,3.4
		c-0.1,2.2-0.6,4.2-1.3,5.8c-0.6,1.6-1.4,2.9-2,3.7c-0.3,0.4-0.5,0.7-0.7,0.9C159.1,245.8,159.1,245.9,159.1,245.9z"/>
</g>
<g>
	<path d="M144.4,193.5c0,0,0.3,0,0.7,0c0.2,0,0.5,0,0.8,0.1c0.3,0,0.7,0.1,1.1,0.2c0.4,0.1,0.8,0.2,1.2,0.4c0.4,0.2,0.9,0.4,1.3,0.7
		c0.4,0.3,0.9,0.5,1.3,0.9c0.4,0.3,0.8,0.7,1.2,1.1s0.7,0.8,1,1.2c0.3,0.4,0.6,0.9,0.8,1.3c0.2,0.5,0.5,0.9,0.6,1.3
		c0.2,0.4,0.3,0.8,0.4,1.2s0.2,0.7,0.2,1.1c0,0.3,0.1,0.6,0.1,0.8c0,0.5,0,0.7,0,0.7s-0.1-0.3-0.2-0.7c0-0.2-0.1-0.5-0.2-0.8
		c-0.1-0.3-0.2-0.6-0.4-1c-0.1-0.4-0.3-0.7-0.5-1.1c-0.2-0.4-0.5-0.8-0.7-1.2c-0.3-0.4-0.5-0.8-0.9-1.2c-0.3-0.4-0.7-0.8-1-1.1
		c-0.4-0.3-0.7-0.7-1.1-1s-0.8-0.6-1.1-0.9c-0.4-0.2-0.8-0.5-1.2-0.7c-0.4-0.2-0.7-0.4-1.1-0.6c-0.3-0.2-0.7-0.3-1-0.4
		c-0.3-0.1-0.6-0.2-0.8-0.3C144.6,193.6,144.4,193.5,144.4,193.5z"/>
</g>
<g>
	<path d="M215.6,368.2c0,0-0.1,0.2-0.1,0.6c-0.1,0.4-0.2,1-0.4,1.8c-0.1,0.8-0.3,1.8-0.4,2.9c-0.1,1.1-0.2,2.4-0.3,3.7
		c-0.1,2.8-0.1,6,0.1,9.4c0.2,3.4,0.6,7.1,1.1,10.8c0.5,3.7,0.9,7.3,1.2,10.8c0.1,1.7,0.2,3.4,0.2,5s0,3.1-0.1,4.5
		c-0.1,2.8-0.2,5.1-0.3,6.7s-0.2,2.5-0.2,2.5h-0.1c0,0-0.1-0.9-0.1-2.5c0-0.8-0.1-1.8-0.1-2.9s-0.1-2.4-0.1-3.8c0-2.8-0.2-6-0.4-9.4
		s-0.6-7.1-0.9-10.8c-0.4-3.7-0.7-7.4-0.8-10.8c-0.1-3.5-0.1-6.7,0.2-9.5c0.1-1.4,0.3-2.6,0.4-3.8c0.2-1.1,0.4-2.1,0.5-2.9
		c0.2-0.8,0.3-1.4,0.4-1.8C215.5,368.3,215.6,368.1,215.6,368.2L215.6,368.2z"/>
</g>
<g>
	<path d="M188.1,360c0,0,0,0.4,0,1.1s-0.1,1.8-0.3,3c-0.2,1.2-0.6,2.6-1.2,4.1c-0.6,1.5-1.3,2.9-2.2,4.4c-0.8,1.4-1.8,2.8-2.8,4
		c-0.5,0.6-1,1.2-1.5,1.7s-1,1-1.4,1.4c-1.8,1.7-3.2,2.6-3.2,2.6l-0.1-0.1c0,0,0.3-0.3,0.7-0.9c0.5-0.5,1.1-1.3,2-2.2
		c0.8-0.9,1.7-2,2.7-3.2s2-2.4,2.9-3.8c0.9-1.3,1.7-2.8,2.3-4.2c0.6-1.4,1.1-2.8,1.3-3.9c0.3-1.2,0.4-2.2,0.5-2.9
		C188,360.4,188,360,188.1,360L188.1,360z"/>
</g>
<g>
	<path d="M260.6,366.3c0,0,0.3,0.3,0.5,0.9c0.3,0.5,0.5,1.3,0.6,2c0.1,0.8,0.1,1.5-0.1,2.1c-0.1,0.6-0.3,1-0.3,1s-0.2-0.4-0.4-0.9
		c-0.2-0.6-0.3-1.3-0.4-2c-0.1-0.7-0.1-1.5-0.1-2.1C260.4,366.7,260.6,366.3,260.6,366.3z"/>
</g>
<g>
	<path d="M265.4,393.2c0,0,0.2-0.2,0.4-0.5c0.2-0.3,0.6-0.9,0.9-1.5c0.3-0.6,0.6-1.4,0.8-2.3c0.2-0.9,0.5-1.8,0.7-2.8
		c0.5-1.9,1.1-3.8,1.6-5.2c0.4-1.4,0.7-2.4,0.7-2.4s0.1,1-0.1,2.5c-0.2,1.5-0.6,3.4-1.2,5.3c-0.3,1-0.5,1.9-0.8,2.8
		c-0.3,0.9-0.7,1.7-1.1,2.4c-0.4,0.6-0.9,1.1-1.2,1.3C265.6,393.1,265.4,393.2,265.4,393.2z"/>
</g>
<g>
	<path d="M272.3,386.9c0,0-0.1-0.6,0.1-1.4c0.1-0.9,0.4-1.8,0.6-2.8s0.3-1.9,0.4-2.7c0.1-0.8,0.2-1.4,0.2-1.4s0.2,0.5,0.4,1.3
		s0.2,2-0.1,3.1c-0.2,1.1-0.7,2-1,2.7C272.5,386.4,272.3,386.9,272.3,386.9z"/>
</g>
<g>
	<path d="M262.2,387.9c0,0-0.3,0.1-0.7,0.3c-0.2,0.1-0.4,0.2-0.6,0.4c-0.2,0.2-0.3,0.4-0.3,0.5s0,0.1,0.1,0.2
		c0.1,0.1,0.1,0.1,0.2,0.2c0,0,0.1,0.1,0.2,0.2c0.1,0.1,0.1,0.1,0.2,0.2c0.3,0.2,0.7,0.3,0.7,0.3v0.1c0,0-0.2,0.4-0.9,0.5
		c-0.2,0-0.3,0-0.5-0.1c-0.2-0.1-0.4-0.2-0.5-0.3c-0.1-0.2-0.3-0.4-0.3-0.6s0-0.5,0.1-0.7c0.2-0.5,0.5-0.7,0.8-0.9
		c0.3-0.2,0.6-0.2,0.9-0.2c0.5-0.1,0.8-0.1,0.8-0.1H262.2z"/>
</g>
<g>
	<path d="M226.1,318.2c0,0-0.1,0.4,0.1,1c0.1,0.6,0.4,1.3,0.9,1.9c0.1,0.2,0.2,0.3,0.3,0.5c0.1,0.1,0.2,0.3,0.3,0.5
		c0.2,0.3,0.3,0.7,0.4,1c0.2,0.7,0,1.1,0,1.1l-0.1,0c0,0-0.3-0.3-0.7-0.8c-0.2-0.2-0.4-0.5-0.6-0.8c-0.1-0.2-0.2-0.3-0.3-0.5
		c-0.1-0.2-0.2-0.4-0.2-0.6c-0.3-0.8-0.5-1.7-0.4-2.3c0-0.3,0.1-0.6,0.1-0.8c0.1-0.2,0.1-0.3,0.1-0.3L226.1,318.2z"/>
</g>
<g>
	<path d="M220.3,322c0,0,0,0.1,0,0.1c0,0.1,0,0.2,0,0.3c0.1,0.2,0.3,0.5,0.6,0.7c0.1,0.1,0.1,0.1,0.2,0.1c0.1,0,0.2,0.1,0.2,0.1
		c0.1,0.1,0.2,0.3,0.3,0.5c0.1,0.2,0.1,0.3,0,0.5c0,0.1-0.1,0.2-0.1,0.2l-0.1,0c0,0-0.3-0.1-0.5-0.2c-0.1,0-0.3-0.1-0.4-0.2
		c-0.1-0.1-0.1-0.1-0.2-0.2c0-0.1-0.1-0.2-0.2-0.3c-0.1-0.2-0.2-0.4-0.2-0.6c-0.1-0.2-0.1-0.4,0-0.6c0-0.2,0.1-0.3,0.2-0.4
		C220.2,322,220.3,322,220.3,322L220.3,322z"/>
</g>
<g>
	<path d="M230.7,314.9c0,0,0.2,0.2,0.6,0.5c0.3,0.3,0.8,0.8,1.2,1.2c0.2,0.2,0.5,0.4,0.6,0.6c0.2,0.2,0.3,0.5,0.3,0.7
		c0.1,0.5,0.1,0.9,0.1,0.9l-0.1,0.1c0,0-0.4-0.1-0.8-0.4c-0.2-0.1-0.4-0.3-0.6-0.6c-0.2-0.2-0.3-0.5-0.4-0.8
		c-0.3-0.6-0.6-1.1-0.7-1.5c-0.2-0.4-0.3-0.7-0.3-0.7L230.7,314.9z"/>
</g>
<path d="M203.3,176.8c4.8,0.5,9.7,1.4,14.4,2.8c2.4,0.7,4.7,1.6,6.9,2.6c2.3,1,4.5,2,6.8,2.9c2.3,0.9,4.7,1.4,7.1,2
	c2.3,0.6,4.7,1.4,6.5,3.1c0.4,0.4,0.7,0.8,1,1.2c-0.1-0.1-0.1-0.2-0.1-0.2c-2.7-3.8-8-4.3-12.5-5.6c-3.9-1.1-7.6-3.1-11.4-4.7
	c-1.4-0.6-2.9-1.1-4.3-1.5c-0.4-0.1-0.9-0.3-1.3-0.4c-0.3-0.1-0.6-0.2-0.8-0.2c-4-1.1-8.1-1.7-12.3-2.1"/>
<g>
	<path d="M232.7,304.2c0,0-0.2,0.1-0.6,0.2c-0.4,0.1-0.9,0.2-1.4,0.1c-0.3,0-0.5,0-0.8-0.1c-0.2-0.1-0.4-0.3-0.5-0.5
		c-0.2-0.4-0.2-0.8-0.2-0.8l0.1-0.1c0,0,0.4-0.1,0.7-0.1c0.2,0,0.3,0,0.5,0.1c0.1,0.1,0.3,0.3,0.5,0.4c0.3,0.2,0.7,0.4,1.1,0.5
		c0.3,0.1,0.6,0.2,0.6,0.2L232.7,304.2z"/>
</g>
<g>
	<path d="M249.3,238.2c0,0,0.1-0.2,0.3-0.5s0.4-0.8,0.6-1.5c0.4-1.3,0.7-3.2,0.7-5.6c0-2.4,0-5.1,0-8s0.1-6.1-0.2-9.2
		c-0.2-1.5-0.5-3-0.9-4.5s-0.8-2.9-1.2-4.4c-0.4-1.4-0.8-2.8-1.1-4.1c-0.3-1.3-0.6-2.5-0.9-3.7c-0.3-1.1-0.5-2.2-0.7-3.1
		s-0.4-1.7-0.5-2.4c-0.3-1.3-0.4-2.1-0.4-2.1h0.1c0,0,0.3,0.7,0.7,2c0.2,0.7,0.5,1.4,0.8,2.4c0.3,0.9,0.6,1.9,1,3.1
		c0.3,1.1,0.7,2.4,1.1,3.6c0.4,1.3,0.8,2.7,1.2,4.1s0.8,2.9,1.1,4.4c0.4,1.5,0.7,3.1,0.8,4.7c0.2,3.2,0,6.3-0.1,9.3
		c-0.1,2.9-0.2,5.7-0.3,8c-0.1,2.4-0.4,4.3-0.9,5.6c-0.2,0.7-0.5,1.1-0.7,1.5C249.5,238.1,249.4,238.2,249.3,238.2L249.3,238.2z"/>
</g>
<path class="st0" d="M212.3,175.2c0.4,2.8,0.8,5.5,1,8.3c0,0.8,0,1.6-0.6,2c-0.4,0.2-0.9,0.2-1.3,0c-1.1-0.5-1.5-1.9-1.6-3.2
	c-0.3-2.1-0.6-4.2-0.9-6.3c-0.1-0.5-0.1-1-0.1-1.5c0.1-0.5,0.4-1,0.8-1.2c0.6-0.3,1.3,0,1.8,0.4c0.5,0.4,0.7,1.1,1,1.6"/>
<g>
	<path d="M212.5,172.4c0,0,0.1,0.2,0.2,0.7c0.1,0.4,0.2,1,0.3,1.8c0.1,0.7,0.2,1.6,0.3,2.5c0,0.4,0.2,0.9,0.2,1.4
		c0,0.5,0.1,1,0.1,1.5c0.1,1.9,0.3,3.9,0.3,5.4c0,1.5,0,2.4,0,2.4l-0.1,0c0,0-0.1-1-0.3-2.4c-0.2-1.4-0.5-3.4-0.8-5.3
		c-0.1-0.5-0.2-0.9-0.3-1.4c-0.1-0.5-0.1-1-0.2-1.4c0-0.9,0-1.8,0-2.5c0-0.7,0-1.3,0.1-1.8C212.4,172.7,212.4,172.4,212.5,172.4
		L212.5,172.4z"/>
</g>
<g>
	<path class="st6" d="M212.8,172.8c-0.1,0.1-0.3,0.2-0.6,0.3c-0.2,0.1-0.6,0.2-0.9,0.2c-0.2,0-0.4,0-0.5,0s-0.4,0-0.5,0
		c-0.2,0-0.4,0-0.5-0.1c-0.2,0-0.4-0.1-0.5-0.1c-0.3-0.1-0.6-0.2-0.8-0.4c-0.2-0.1-0.4-0.3-0.5-0.4c-0.1-0.1-0.2-0.2-0.2-0.2
		s0.1,0,0.2,0.1c0.1,0.1,0.3,0.2,0.6,0.2c0.1,0,0.3,0.1,0.4,0.1c0.1,0,0.3,0.1,0.4,0.1c0.3,0,0.6,0.1,0.9,0.1c0.4,0,0.7,0,1,0
		c0.2,0,0.3,0,0.4,0c0.1,0,0.3,0,0.4-0.1c0.2-0.1,0.4-0.1,0.6-0.2c0.2,0,0.2-0.1,0.2-0.1S212.9,172.7,212.8,172.8z"/>
</g>
<path class="st7" d="M250,205.3c-0.1-0.5-0.2-0.9-0.3-1.4l-1.7-7.2c-0.3-1.5-0.7-3-1.4-4.3c0.6,1.2,1,2.6,1.3,4
	C248.6,199.4,249.3,202.3,250,205.3z"/>
<g>
	<g>
		<path class="st0" d="M176.8,156.8c-4.1-7.3-6.2-15.6-6-23.8c0.1-3.3,0.5-6.7,2.1-9.6c1.6-3.1,4.4-5.5,7.4-7.4
			c13.1-8.5,31.3-8.3,44.3,0.4c2.5,6.5,5.1,13.3,4.5,20.2c-0.3,4.2-1.7,8.3-1.5,12.5c0.2,2.8,1.2,5.7,0.9,8.5
			c-0.3,3.4-2.3,6.5-4.2,9.4c-1.6,2.4-3.2,4.8-4.8,7.2c-1.6,2.4-3.3,4.9-6,6.2c-4.2,1.9-9.1,0.2-13.4-1.5c-6.2-2.5-12.8-5.2-17-10.3
			c-3.2-3.8-4.7-8.7-6.1-13.4"/>
	</g>
	<path class="st6" d="M179.6,162.2c0.9,2.3,2.2,4.5,3.8,6.3c0.8,0.9,1.7,1.8,2.6,2.6c0.9,0.8,1.9,1.5,3,2.2c1,0.7,2.1,1.3,3.2,1.8
		c1.1,0.6,2.2,1.1,3.4,1.6c1.1,0.5,2.3,0.9,3.4,1.4c1.1,0.5,2.3,0.9,3.4,1.3c2.3,0.8,4.7,1.5,7.1,1.5c1.2,0,2.4-0.2,3.5-0.7
		c1.1-0.4,2.1-1.1,3-2c1.7-1.7,3-3.8,4.4-5.9l4.1-6.2c1.3-2.1,2.7-4.2,3.4-6.5c0.3-1.1,0.5-2.4,0.4-3.6c0-1.2-0.2-2.4-0.5-3.6
		c-0.2-1.2-0.4-2.5-0.5-3.7c0-0.6,0-1.3,0-1.9c0-0.6,0.1-1.2,0.2-1.9c0.3-2.5,0.9-4.9,1.2-7.3c0-0.3,0-0.6,0.1-0.9l0-0.4l0-0.5
		c0-0.3,0-0.6,0-0.9v-0.9c0-1.2-0.1-2.4-0.3-3.6c-0.4-2.5-1-4.8-1.7-7.2c-0.8-2.3-1.6-4.7-2.5-7l0.2,0.2l-2.4-1.5l-2.5-1.3
		c-0.9-0.4-1.7-0.8-2.6-1.1c-0.9-0.4-1.8-0.6-2.7-0.9c-0.9-0.3-1.9-0.5-2.8-0.8c-0.9-0.2-1.9-0.4-2.8-0.6c-0.9-0.2-1.9-0.2-2.8-0.4
		c-0.9-0.1-1.9-0.1-2.8-0.2c-0.2,0-0.5,0-0.7,0h-0.7l-1.4,0c-0.5,0-0.9,0.1-1.4,0.1l-1.4,0.1c-0.5,0-0.9,0.1-1.4,0.2l-1.4,0.2
		c-0.5,0-0.9,0.2-1.4,0.3l-1.4,0.3c-0.5,0.1-0.9,0.2-1.4,0.4l-1.4,0.4c-0.5,0.1-0.9,0.3-1.3,0.5l-1.3,0.5c-0.2,0.1-0.5,0.2-0.7,0.3
		l-0.6,0.3l-1.3,0.6c-0.2,0.1-0.4,0.2-0.6,0.3l-0.6,0.4l-1.2,0.7c-1.6,0.9-3.2,2.1-4.5,3.4c-1.4,1.3-2.6,2.8-3.5,4.5
		c-0.9,1.7-1.4,3.5-1.7,5.4c-0.3,1.9-0.4,3.8-0.4,5.7c0,3.8,0.6,7.6,1.6,11.3c1,3.7,2.5,7.3,4.3,10.7c-1.9-3.3-3.4-6.9-4.5-10.6
		c-1-3.7-1.7-7.5-1.7-11.4c0-1.9,0-3.9,0.3-5.8c0.3-1.9,0.8-3.8,1.7-5.6c0.9-1.7,2.1-3.3,3.5-4.6c1.4-1.3,3-2.5,4.6-3.5l1.2-0.8
		l0.6-0.4c0.2-0.1,0.4-0.2,0.6-0.3l1.3-0.6l0.6-0.3c0.2-0.1,0.4-0.2,0.7-0.3l1.3-0.6c0.4-0.2,0.9-0.4,1.3-0.5l1.4-0.4
		c0.4-0.1,0.9-0.3,1.4-0.4l1.4-0.4c0.5-0.1,0.9-0.2,1.4-0.3l1.4-0.2c0.5-0.1,0.9-0.2,1.4-0.2l1.5-0.1c0.5,0,1-0.1,1.5-0.1l1.5,0h0.7
		c0.2,0,0.5,0,0.7,0c0.9,0.1,1.9,0.1,2.9,0.2c0.9,0.1,1.9,0.2,2.9,0.4c0.9,0.2,1.9,0.4,2.8,0.6c0.9,0.3,1.9,0.5,2.8,0.8
		c0.9,0.3,1.9,0.6,2.8,0.9c0.9,0.4,1.8,0.8,2.7,1.1l2.6,1.3l2.5,1.5l0.1,0l0,0.1c0.9,2.3,1.8,4.6,2.5,7c0.4,1.2,0.7,2.4,1,3.6
		s0.6,2.5,0.8,3.7c0.2,1.3,0.3,2.5,0.3,3.8v0.9c0,0.3,0,0.6,0,0.9l0,0.5l0,0.5c0,0.3-0.1,0.6-0.1,0.9c-0.3,2.5-0.9,4.9-1.2,7.3
		c-0.1,0.6-0.1,1.2-0.2,1.8c0,0.6,0,1.2,0,1.8c0.1,1.2,0.3,2.4,0.5,3.6c0.2,1.2,0.4,2.5,0.5,3.7c0.1,1.3-0.1,2.5-0.5,3.8
		c-0.7,2.5-2.1,4.6-3.4,6.6l-4.1,6.2c-1.4,2.1-2.7,4.2-4.5,6c-0.5,0.4-1,0.8-1.5,1.2c-0.6,0.4-1.1,0.6-1.7,0.9
		c-1.2,0.5-2.5,0.7-3.7,0.7c-2.6,0-5-0.7-7.3-1.6c-1.1-0.4-2.3-0.9-3.4-1.4c-1.1-0.5-2.3-0.9-3.4-1.5c-1.1-0.5-2.3-1.1-3.4-1.6
		c-1.1-0.6-2.2-1.2-3.2-1.9c-1-0.7-2-1.5-3-2.3c-0.9-0.8-1.8-1.7-2.6-2.6c-1.6-1.9-2.8-4.2-3.7-6.4c-0.9-2.3-1.7-4.7-2.4-7
		C177.8,157.7,178.6,160,179.6,162.2z"/>
</g>
<path class="st8" d="M205,167.6c0,0.3,0.1,0.5,0.3,0.8c0.9,1.4,1.9,2.8,3.3,3.7c1.1,0.7,2.3,1,3.5,0.7s2.3-1.2,2.6-2.5
	c-0.8,0.7-1.9,0.7-2.9,0.6c-0.6-0.1-1.1-0.1-1.7-0.2c-0.4,0-0.9-0.1-1.3-0.3c-0.3-0.2-0.9-0.5-1.2-0.7c-0.5-0.4-0.8-0.6-1.3-0.9
	C205.8,168.6,205.3,168.2,205,167.6"/>
<path class="st9" d="M206.8,145.9c0.1,0.1,0.1,0.2,0.1,0.2c0,0.1-0.2,0.1-0.3,0.1c-2.8,0.4-4.6,1-8.4,0.8c-0.7,0-1.5-0.1-2.2-0.3
	c-0.6-0.1-1.1-0.4-1.6-0.6c-1.4-0.7-2.6-1.5-3.7-2.5c0,0-0.1-0.1-0.1-0.2c0-0.1,0.1-0.2,0.2-0.2c1.1-0.6,2.1-1.4,3.5-1.7
	c0.6-0.1,1.3-0.3,2-0.4c1.4-0.2,1.7,0.2,3.3,0.3c0.4,0,1.1,0.2,1.5,0.3c0.3,0.1,1,0.3,1.3,0.4c1.2,0.6,2.2,1,3.1,1.8
	C205.9,144.6,206.4,145.3,206.8,145.9z"/>
<g>
	<path class="st6" d="M205.2,143.6c0,0-0.1-0.1-0.3-0.2c-0.2-0.2-0.4-0.4-0.7-0.8c-0.6-0.6-1.5-1.3-2.5-1.9
		c-0.3-0.2-0.5-0.3-0.8-0.4c-0.3-0.1-0.6-0.2-0.8-0.2c-0.2-0.1-0.5-0.1-0.8-0.2c-0.2,0-0.5,0-0.7-0.1c-0.4,0-0.8-0.1-1-0.1
		c-0.2,0-0.4,0-0.4,0v0c0,0,0.6-0.1,1.5-0.1c0.4,0,0.9,0,1.5,0.2c0.3,0.1,0.6,0.2,0.8,0.3c0.3,0.1,0.6,0.2,0.8,0.4
		c0.5,0.3,1,0.6,1.4,1c0.4,0.4,0.8,0.7,1.1,1c0.3,0.3,0.5,0.6,0.7,0.8C205.1,143.5,205.2,143.6,205.2,143.6L205.2,143.6z"/>
</g>
<g>
	<path class="st6" d="M190.5,143.5c0,0,0,0.2,0,0.4c0,0.3,0,0.6,0.2,0.9c0.1,0.2,0.2,0.3,0.2,0.5c0,0.2,0.1,0.3,0.1,0.4
		c0.1,0.3,0.1,0.5,0.1,0.5h0c0,0-0.1-0.1-0.3-0.4c-0.1-0.1-0.2-0.3-0.2-0.4c0-0.2-0.1-0.3-0.1-0.5c0-0.4,0-0.8,0-1
		C190.5,143.6,190.5,143.5,190.5,143.5L190.5,143.5z"/>
</g>
<g>
	<path class="st6" d="M216,139.7c0,0,0,0.1-0.1,0.4c-0.1,0.2-0.2,0.4-0.4,0.8c-0.2,0.4-0.4,0.8-0.5,1.3c-0.2,0.5-0.3,1.1-0.3,1.7
		c0,0.6,0,1.3,0.1,2.1c0.1,0.8,0.3,1.5,0.4,2.3c0.2,0.8,0.4,1.6,0.7,2.4s0.6,1.6,1,2.4c0.8,1.6,1.7,3,2.7,4.4c0.5,0.7,1,1.3,1.2,2.1
		c0,0.2,0.1,0.4,0.1,0.6c0,0.2,0,0.4,0,0.6c0,0.4-0.1,0.7-0.3,1c-0.3,0.6-0.8,1.1-1.3,1.3c-0.5,0.2-1,0.3-1.4,0.2
		c-0.4,0-0.7-0.1-0.9-0.2c-0.1,0-0.2-0.1-0.2-0.1c0,0-0.1,0-0.1,0v0c0,0,0,0,0.1,0c0,0,0.1,0,0.2,0.1c0.2,0.1,0.5,0.2,0.9,0.2
		s0.8-0.1,1.3-0.3c0.4-0.2,0.9-0.7,1.1-1.3c0.1-0.3,0.2-0.6,0.2-0.9c0-0.2,0-0.4,0-0.5c0-0.2,0-0.4-0.1-0.5c-0.2-0.7-0.7-1.3-1.2-2
		c-0.9-1.3-1.9-2.9-2.6-4.5c-0.4-0.8-0.8-1.6-1-2.5c-0.3-0.8-0.5-1.7-0.7-2.5c-0.2-0.8-0.3-1.6-0.4-2.4c-0.1-0.8-0.1-1.5-0.1-2.1
		c0-0.7,0.2-1.3,0.4-1.8c0.2-0.5,0.4-0.9,0.6-1.3c0.2-0.4,0.3-0.6,0.4-0.8C216,139.8,216,139.7,216,139.7L216,139.7z"/>
</g>
<path class="st9" d="M214.9,167.6c-2.5,0-4.9-0.2-7.2-0.8c-0.4-0.1-0.8-0.2-1.2-0.3c-0.9-0.3-1.8-0.9-2.7-1c0.7,2.1,2.6,3.4,4.5,4.5
	c0.2,0.1,0.4,0.2,0.7,0.3c0.4,0.1,0.9,0,1.3,0.2c0.2,0,0.4,0.2,0.6,0.2c0.2,0.1,0.5,0,0.7,0c0.6-0.1,1.3-0.2,1.9-0.3
	c0.1,0,0.2,0,0.3-0.1c0.3-0.2,0.1-0.6,0.1-0.9C213.8,168.8,214.7,168.3,214.9,167.6"/>
<g>
	<path class="st6" d="M215.5,162.9c0,0,0.2,0,0.2-0.2c0-0.1,0.1-0.3,0-0.4c-0.1-0.2-0.2-0.2-0.4-0.2s-0.4,0-0.6,0.2
		s-0.4,0.3-0.5,0.5c-0.2,0.2-0.3,0.4-0.5,0.6s-0.4,0.4-0.8,0.5h0l0,0h0h0h-0.1c-0.1,0-0.2,0-0.2,0c-0.2,0-0.3-0.1-0.4-0.2
		c-0.3-0.1-0.5-0.4-0.6-0.6c-0.1-0.2-0.2-0.5-0.3-0.8c0-0.3,0-0.5,0-0.7c0-0.4,0.2-0.8,0.4-0.9c0.1-0.1,0.2-0.2,0.2-0.2
		c0,0,0.1,0,0.1,0l0,0c0,0,0,0-0.1,0.1c0,0.1-0.1,0.1-0.2,0.2c-0.1,0.1-0.1,0.2-0.2,0.4c0,0.2,0,0.3,0,0.5c0,0.2,0,0.4,0.1,0.6
		c0.1,0.2,0.2,0.4,0.3,0.6c0.1,0.2,0.3,0.4,0.5,0.5c0.1,0,0.2,0.1,0.3,0.1c0,0,0.1,0,0.2,0h0.1h0l0,0c0,0,0,0,0,0l0,0l0,0h0
		c0.2,0,0.4-0.2,0.6-0.4c0.2-0.2,0.3-0.4,0.5-0.6c0.2-0.2,0.4-0.4,0.6-0.5c0.2-0.1,0.4-0.2,0.7-0.1c0.2,0,0.4,0.1,0.5,0.3
		c0,0.2,0,0.3,0,0.4C215.8,162.8,215.7,162.8,215.5,162.9C215.6,162.9,215.5,162.9,215.5,162.9L215.5,162.9z"/>
</g>
<g>
	<path class="st6" d="M217,166.5c-0.1,0.1-0.2,0.2-0.4,0.4c-0.2,0.2-0.4,0.3-0.7,0.5c-0.3,0.2-0.7,0.3-1.1,0.4
		c-0.4,0.1-0.8,0.2-1.3,0.2c-0.5,0-0.9,0.1-1.4,0.1c-0.5,0-1,0-1.5,0c-0.6,0-1.1-0.1-1.6-0.2l-0.2,0c-0.1,0-0.1,0-0.2-0.1l-0.4-0.1
		c-0.3-0.1-0.5-0.2-0.8-0.3l-0.2-0.1l-0.2-0.1c-0.1-0.1-0.2-0.1-0.4-0.2c-0.2-0.1-0.5-0.2-0.7-0.3c-0.9-0.4-1.7-0.8-2.5-1.2
		c-0.7-0.4-1.3-0.8-1.6-1c-0.2-0.2-0.4-0.3-0.4-0.4c-0.1-0.1-0.2-0.1-0.2-0.1s0.2,0.1,0.6,0.3c0.4,0.2,1,0.5,1.7,0.8
		c0.7,0.3,1.6,0.6,2.5,0.9c0.5,0.2,0.9,0.4,1.4,0.5c0.2,0.1,0.5,0.2,0.8,0.2l0.4,0.1c0,0,0.1,0,0.2,0l0.2,0c0.5,0.1,1,0.2,1.5,0.2
		c0.5,0,1,0.1,1.5,0.1c1,0,1.9,0.1,2.6,0c0.4,0,0.8-0.1,1-0.2c0.3-0.1,0.6-0.2,0.8-0.3S216.9,166.5,217,166.5
		c0.1-0.2,0.1-0.2,0.1-0.2S217.1,166.3,217,166.5z"/>
</g>
<g>
	<path class="st6" d="M199.4,162.9c0,0.2-0.1,0.5-0.2,0.8c-0.1,0.2-0.3,0.5-0.4,0.7c-0.1,0.1-0.2,0.2-0.2,0.2c0,0.1-0.1,0.1-0.1,0.1
		s0,0,0-0.1s0-0.2,0-0.3c0-0.2,0.1-0.5,0.2-0.8c0.1-0.2,0.3-0.5,0.4-0.7c0.1-0.1,0.2-0.2,0.2-0.2c0-0.1,0.1-0.1,0.1-0.1
		S199.5,162.7,199.4,162.9z"/>
</g>
<g>
	<path class="st6" d="M215.6,167.3c-0.1,0.1-0.2,0.2-0.3,0.3c-0.1,0.2-0.2,0.3-0.4,0.5c-0.1,0.2-0.2,0.4-0.4,0.6
		c-0.2,0.4-0.4,0.8-0.5,1.1c0,0.2-0.1,0.3-0.1,0.4c0,0.1,0,0.2,0,0.2s0,0,0-0.2c0-0.1,0-0.2,0-0.4s0-0.4,0.1-0.6
		c0-0.1,0.1-0.2,0.1-0.4c0-0.1,0.1-0.2,0.2-0.4c0.1-0.2,0.3-0.4,0.4-0.6c0.2-0.2,0.3-0.3,0.5-0.4c0.2-0.1,0.3-0.2,0.4-0.2
		c0.1,0,0.2-0.1,0.2-0.1S215.7,167.2,215.6,167.3z"/>
</g>
<g>
	<path class="st6" d="M214.7,170.3c-0.1,0-0.2,0.1-0.4,0.2c-0.2,0.1-0.4,0.2-0.6,0.2c-0.3,0.1-0.6,0.2-0.9,0.2
		c-0.6,0.1-1.4,0.2-2.2,0c-0.4,0-0.8-0.1-1.2-0.2c-0.4-0.1-0.8-0.3-1.2-0.5c-0.4-0.2-0.8-0.4-1.1-0.6c-0.4-0.2-0.7-0.5-1-0.8
		c-0.6-0.6-1.1-1.1-1.5-1.7c-0.2-0.3-0.4-0.5-0.5-0.8c-0.1-0.2-0.2-0.4-0.3-0.6c-0.1-0.2-0.1-0.3-0.2-0.4c0-0.1-0.1-0.2-0.1-0.2
		s0.1,0.2,0.3,0.5c0.2,0.3,0.5,0.8,0.9,1.3c0.2,0.2,0.4,0.5,0.7,0.8c0.2,0.3,0.6,0.5,0.8,0.8c0.3,0.2,0.6,0.5,0.9,0.7
		c0.3,0.2,0.7,0.4,1.1,0.6c0.4,0.2,0.8,0.3,1.1,0.4s0.8,0.2,1.2,0.3c0.4,0.1,0.8,0.1,1.1,0.1c0.4,0,0.7,0,1,0c0.3,0,0.6-0.1,0.9-0.1
		c0.2,0,0.5-0.1,0.6-0.2C214.6,170.3,214.8,170.2,214.7,170.3C214.8,170.2,214.8,170.2,214.7,170.3z"/>
</g>
<path class="st7" d="M246,191.4c0.2,0.3,0.4,0.6,0.6,0.9C246.4,192.1,246.3,191.7,246,191.4z"/>
<path class="st10" d="M204,138.2c-2.1-0.9-7.5-3-8.1-2.9c-0.2,0-0.5,0.1-0.7,0.2c-2.7,1.2-5.3,2.6-7.8,4.2c2.2-0.8,4.4-1.6,6.6-2.4
	c0.7-0.2,1.4-0.5,2.1-0.3c0.4,0.1,9.1,3.8,9.7,4c0.6,0.2,3.1-0.4,2.6-0.8C208.5,140.2,205.4,138.7,204,138.2z"/>
<path class="st11" d="M200.8,141.7c0-0.1-0.1-0.2-0.2-0.2c-0.5-0.1-1-0.2-1.6-0.3c-0.6-0.1-1.2-0.2-1.8,0c-0.6,0.1-1.2,0.5-1.4,1
	c-0.2,0.4-0.2,0.7-0.2,1.1c0,0.5,0,1,0.2,1.5c0.3,0.7,0.3,0.6,0.8,1.1c0.2,0.2,0.7,0.4,0.9,0.4s0.4,0.1,0.6,0.1c1.1,0,2.3-0.3,3-1.1
	C201.9,144.3,201.8,142.6,200.8,141.7"/>
<path class="st9" d="M215.7,145.3c0,0.1-0.1,0.2,0,0.2s0.1,0.1,0.2,0.1c2.1,0.4,3.4,1,6.3,0.7c0.6-0.1,1.1-0.2,1.7-0.3
	c0.4-0.2,0.8-0.4,1.2-0.6c1-0.7,1.6-1.3,2.4-2.3c0-0.1,0.1-0.2,0.1-0.3c0-0.1,0.2-0.3,0.2-0.4c-0.8-0.7-1.6-1.5-2.6-1.7
	c-0.4-0.1-1-0.2-1.5-0.2c-1-0.1-1.6-0.1-2.7,0c-0.4,0-0.9,0.2-1.2,0.3c-0.2,0.1-0.5,0.2-0.7,0.4c-0.9,0.6-1.5,1.5-2.2,2.3
	C216.4,144.1,216.1,144.7,215.7,145.3z"/>
<g>
	<path class="st6" d="M217,143.1c0,0,0-0.1,0.1-0.4c0.1-0.2,0.2-0.4,0.4-0.8c0.2-0.3,0.4-0.6,0.7-1c0.3-0.4,0.6-0.7,1-1
		c0.2-0.2,0.4-0.3,0.6-0.4c0.2-0.2,0.4-0.3,0.6-0.4c0.4-0.2,0.9-0.2,1.2-0.2c0.4,0,0.7,0,0.9,0c0.2,0,0.3,0,0.3,0v0
		c0,0-0.4,0.1-1.1,0.2c-0.2,0-0.4,0.1-0.6,0.1c-0.2,0.1-0.4,0.1-0.6,0.2c-0.2,0.1-0.4,0.2-0.6,0.3c-0.2,0.1-0.4,0.2-0.6,0.4
		c-0.4,0.3-0.7,0.6-1,0.9c-0.3,0.4-0.6,0.7-0.8,0.9s-0.4,0.6-0.5,0.7C217,142.9,217,143.1,217,143.1L217,143.1z"/>
</g>
<path class="st11" d="M220.5,140.4c0-0.1-0.2-0.1-0.3,0c-0.4,0.2-0.8,0.5-1.2,0.8c-0.4,0.3-0.9,0.6-1.2,1s-0.5,0.9-0.3,1.5
	c0.1,0.3,0.3,0.6,0.6,0.8c0.3,0.4,0.6,0.7,1,0.9c0.6,0.3,0.6,0.3,1.1,0.3c0.3,0,0.7-0.1,0.8-0.2c0.2-0.1,0.3-0.2,0.5-0.3
	c0.7-0.6,1.3-1.5,1.3-2.5C222.8,141.5,221.7,140.4,220.5,140.4"/>
<circle class="st9" cx="197" cy="142.5" r="0.8"/>
<path class="st10" d="M219.5,137.2c1.8-0.7,6.2-2.4,6.7-2.3c0.2,0,0.4,0.2,0.6,0.3c2.1,1.4,2.2,0.9,2,2.5c-1.7-1,0.6,0.3-1.1-0.6
	c-0.5-0.3-1.1-0.6-1.6-0.4c-0.3,0.1-7.6,3.1-8.1,3.2c-0.5,0.1-2.5-0.6-2.1-1C215.8,138.9,218.4,137.7,219.5,137.2z"/>
<circle class="st9" cx="218.5" cy="142.8" r="0.8"/>
<path class="st7" d="M169.7,261.7C169.7,261.7,169.7,261.7,169.7,261.7l0.3,0.6l-0.2,0.2l-1-2l-1.4-2.2l-1.4-2.1l-1.5-2.1l-1.5-2
	l-1.6-2l-1.7-1.9l-1.6-1.8l-4,12.6l-2,6.4c-0.4,1.3-0.8,2.7-1.1,4c-0.1,0.7-0.2,1.5-0.2,2.2c1.1-0.2,2.2-0.3,3.3-0.2
	c1.2,0,2.4,0.2,3.5,0.7c0.6,0.3,1.1,0.6,1.5,1c0.4,0.4,0.8,1,1.1,1.4c0.6,1,1.4,1.8,2.4,2.4c2.1,1,4.5,1.1,6.8,1.5
	c1.1,0.2,2.2,0.5,3.2,0.9l0.1-18.7c-0.6,0.4-1.4,0.5-2.1,0.7C170.4,261.4,170,261.6,169.7,261.7z"/>
<path class="st1" d="M216.4,179c0.4,0.1,0.9,0.2,1.3,0.4C217.3,179.2,216.8,179.1,216.4,179z"/>
<path d="M268.7,307.2c1.6,17.7,4.5,29.5,9.1,40.3c0.2,0.1,0.5,0.2,0.7,0.4l-0.7,0.6c-0.1-0.2-0.2-0.4-0.3-0.6
	c-5.3-2.8-12,0.5-18.1,1.1c-6,0.6-12.2-1.5-17.1-5c-4.6-3.2-8.2-7.7-11.2-12.5c0,0.2-0.1,0.4-0.1,0.6c2.2,3.6,4.8,7,7.9,9.9
	c0.9,0.8,1.8,1.6,2.7,2.3c0.9,0.8,1.9,1.4,2.9,2c2.1,1.2,4.2,2.2,6.5,2.8c2.3,0.6,4.6,1,7,0.9c0.6,0,1.2,0,1.8-0.1
	c0.5-0.1,1.1-0.2,1.7-0.3c1.1-0.2,2.3-0.4,3.4-0.7c2.2-0.6,4.5-1.1,6.7-1.3c1.1-0.1,2.2-0.1,3.3,0.1c1.1,0.2,2.1,0.6,3.1,1.1
	l1.2,0.7l-0.5-1.3c-3.8-9-6.5-18.5-7.8-28.2c-0.4-2.4-1.4-10.5-1.6-13"/>
<path d="M259.4,247.4c-1-4.8-1.4-9.9-2.5-14.7c-2.1-9.6-4.4-19.1-6.7-28.7l-1.7-7.2c-0.3-1.2-0.6-2.4-1.1-3.6
	c-0.5-1.2-1.2-2.2-2.1-3.1c-1.9-1.8-4.3-2.6-6.7-3.2c-2.4-0.6-4.8-1.1-7.1-2c-2.3-0.8-4.5-1.9-6.8-2.9c-2.2-1-4.5-1.9-6.9-2.6
	c0,0-0.1,0-0.1,0c1.4,0.5,2.9,1,4.3,1.5c3.8,1.6,7.5,3.6,11.4,4.7c4.5,1.3,9.8,1.8,12.5,5.6c0.1,0.1,0.1,0.2,0.1,0.2
	c0.2,0.3,0.4,0.6,0.6,0.9c0,0,0,0,0,0.1c0.7,1.3,1.1,2.8,1.4,4.3l1.7,7.2c0.1,0.5,0.2,0.9,0.3,1.4"/>
<path d="M230.3,331l0.4-0.1c-0.1-0.2-0.2-0.3-0.3-0.5C230.4,330.6,230.3,330.8,230.3,331z"/>
<path d="M215.6,178.7c0.3,0.1,0.6,0.2,0.8,0.2C216.1,178.9,215.8,178.8,215.6,178.7z"/>
<path d="M224.2,343.4c-4.7,4.8-11.3,7.2-17.9,8.6c-13.8,3-28.1,2.6-42.2,2.1c0,0.1,0,0.2,0,0.3v0.3h0.3c6.4,0.2,12.9,0.4,19.3,0.3
	c1.6,0,3.2,0,4.8-0.1c1.6-0.1,3.2-0.2,4.8-0.3c1.6-0.1,3.2-0.3,4.8-0.5c1.6-0.2,3.2-0.4,4.8-0.7c1.6-0.2,3.2-0.6,4.8-0.9
	c1.6-0.4,3.2-0.8,4.7-1.3c3.1-1,6.1-2.3,8.8-4.1c1.4-0.9,2.6-1.9,3.8-3.1c1.1-1.2,2.2-2.5,3-3.9c1.5-2.4,2.5-5.2,3-8
	c-0.2-0.4-0.5-0.7-0.7-1.1C229.7,335.7,227.5,340,224.2,343.4z"/>
<path d="M230.7,330.9l-0.4,0.1c0,0,0,0,0,0c0.2,0.4,0.5,0.7,0.7,1.1c0-0.2,0.1-0.4,0.1-0.6C231,331.3,230.8,331.1,230.7,330.9z"/>
<path d="M277.5,347.9c0.1,0.2,0.2,0.4,0.3,0.6l0.7-0.6c-0.2-0.1-0.5-0.3-0.7-0.4c0.1,0.2,0.2,0.4,0.2,0.6
	C277.8,348,277.7,347.9,277.5,347.9z"/>
<path d="M277.5,347.9c0.2,0.1,0.3,0.2,0.5,0.2c-0.1-0.2-0.2-0.4-0.2-0.6c-0.1-0.1-0.3-0.1-0.4-0.2
	C277.4,347.5,277.5,347.7,277.5,347.9z"/>
<path d="M164.1,353.8L164.1,353.8C164.1,353.8,164.1,353.8,164.1,353.8C164.1,353.8,164.1,353.8,164.1,353.8z"/>
<path d="M230.7,330.9c0.1,0.2,0.3,0.4,0.4,0.6c0-0.2,0.1-0.5,0.1-0.7L230.7,330.9z"/>
<path d="M206.3,352c6.6-1.4,13.2-3.8,17.9-8.6c3.3-3.4,5.5-7.7,6.1-12.4c0,0,0,0,0,0l0,0c0-0.2,0.1-0.4,0.1-0.6
	c0.1,0.2,0.2,0.3,0.3,0.5l0.5-0.1c0,0.2-0.1,0.5-0.1,0.7c3,4.8,6.6,9.2,11.2,12.5c4.9,3.5,11.1,5.6,17.1,5c6.1-0.7,12.8-4,18.1-1.1
	c-0.1-0.2-0.1-0.4-0.2-0.5c-0.7-0.3-1.4-0.6-2.2-0.7c-1.2-0.3-2.4-0.3-3.6-0.2c-2.4,0.2-4.7,0.8-6.9,1.3c-1.2,0.3-2.3,0.5-3.4,0.7
	c-0.5,0.1-1.1,0.1-1.7,0.2c-0.6,0-1.1,0.1-1.7,0.1c-2.3,0-4.5-0.3-6.7-0.9c-2.2-0.6-4.2-1.5-6.2-2.7c-0.9-0.6-1.9-1.2-2.8-1.9
	c-0.9-0.7-1.8-1.4-2.6-2.2c-3.3-3.1-6.1-6.9-8.4-10.8l-0.8-1.3l-0.2,1.5c-0.4,3.1-1.4,6.1-3.1,8.8c-0.8,1.3-1.8,2.6-2.9,3.7
	c-1.1,1.1-2.3,2.1-3.6,3c-2.6,1.8-5.6,3.1-8.6,4.1c-1.5,0.5-3,0.9-4.6,1.3c-1.6,0.4-3.1,0.7-4.7,1c-1.6,0.3-3.2,0.5-4.8,0.7
	c-1.6,0.2-3.2,0.4-4.8,0.5s-3.2,0.2-4.8,0.3c-1.6,0.1-3.2,0.2-4.8,0.2c-6.3,0.2-12.7,0-19-0.2c0,0.1,0,0.2,0,0.3l-0.3-0.3
	c0,0.1,0,0.2,0,0.3C178.2,354.6,192.5,355,206.3,352z"/>
<path d="M165.3,337.8c0.2-1.8,0.4-3.6,0.8-5.4c0.2-0.9,0.4-1.8,0.6-2.7c0.2-0.9,0.5-1.7,0.7-2.6c0.1-0.3,0.1-0.5,0.2-0.8
	c-0.1,0.3-0.2,0.6-0.3,1c-0.2,0.8-0.5,1.7-0.7,2.6c-0.2,0.9-0.4,1.8-0.6,2.7c-0.7,3.6-1.1,7.3-1.4,10.9c-0.3,3.4-0.4,6.9-0.5,10.3
	c0.1,0,0.2,0,0.3,0c0.1-3.5,0.2-7.1,0.4-10.6C164.9,341.4,165.1,339.6,165.3,337.8z"/>
<path d="M168.7,323.4l0.5-1.3c0.7-1.7,1.6-3.3,2.3-5c0.1-0.4,0.2-0.8,0.3-1.3c-0.1,0.4-0.3,0.7-0.4,1.1c-0.7,1.7-1.6,3.3-2.2,5
	l-0.5,1.3l-0.5,1.3c-0.2,0.6-0.4,1.2-0.6,1.8c0.2-0.5,0.3-1.1,0.6-1.6L168.7,323.4z"/>
<path d="M164.1,353.8l0.3,0.3c0-0.1,0-0.2,0-0.3C164.3,353.8,164.2,353.8,164.1,353.8C164.1,353.8,164.1,353.8,164.1,353.8z"/>
<path d="M171.8,315.8c0.5-1.4,0.8-2.8,0.8-4.2C172.5,313.1,172.1,314.4,171.8,315.8z"/>
<path d="M230.3,331C230.3,331,230.3,331,230.3,331L230.3,331C230.3,331,230.3,331,230.3,331z"/>
<path d="M246.6,192.4C246.6,192.4,246.6,192.4,246.6,192.4C246.6,192.4,246.6,192.4,246.6,192.4z"/>
<path class="st1" d="M156.3,302.8c-4.4-1.1-8.8-2.2-13.3-3.2c-4.4-1-8.9-2-13.4-2.9c-0.9-0.2-1.9-0.4-2.8-0.7
	c1.3,0.5,2.7,0.9,4.1,1.1c10,2,19.9,4.4,29.8,7c2.4,0.7,5,1.4,7.2,2.6c-1.5-0.9-3.2-1.6-5-2.1C160.7,303.9,158.5,303.4,156.3,302.8z
	"/>
<path class="st1" d="M150.9,271.7c0-0.8,0.1-1.5,0.2-2.2C150.9,270.2,150.8,270.9,150.9,271.7C150.8,271.7,150.8,271.7,150.9,271.7z
	"/>
<path class="st1" d="M203.7,293l-0.2,1.9l-0.3,1.9c-0.1,0.6-0.3,1.3-0.4,1.9c-0.2,0.6-0.3,1.3-0.5,1.9c-0.4,1.2-0.8,2.4-1.3,3.6
	s-1,2.4-1.6,3.5c-0.6,1.2-1.2,2.3-1.8,3.4c-1.3,2.3-2.6,4.5-3.9,6.6v0l0,0h0l-0.1,0.2h-0.2l0,0l0,0h0c-4.6-0.4-9.1-1.4-13.4-2.8
	c-1.1-0.4-2.2-0.8-3.2-1.2c-0.8-0.3-1.5-0.6-2.2-1c0.9,0.6,1.8,1,2.8,1.4c5.3,2.1,10.8,3.4,16.4,4c5.4-8.7,11-18.3,10-28.5
	c-0.1,0-0.1,0-0.2,0l0.1,1.3V293z"/>
<path class="st1" d="M174.3,312.2c0.8,0.7,1.9,1.1,2.9,1.5c1.1,0.4,2.1,0.8,3.2,1.2c4.2,1.4,8.6,2.4,13.1,2.8
	c1.3-2.1,2.6-4.3,3.8-6.4c0.6-1.1,1.2-2.2,1.8-3.4c0.6-1.1,1.1-2.3,1.6-3.5s0.9-2.4,1.3-3.6c0.2-0.6,0.3-1.2,0.5-1.8
	c0.2-0.6,0.3-1.2,0.4-1.9l0.3-1.9l0.2-1.9v-1.9l-0.1-1.6c-9.2-1.8-18.3-4.6-27-8.3c-1.2-0.5-2.4-1-3.6-1.4l-0.2,30.2
	C173.1,311,173.6,311.6,174.3,312.2z"/>
<path d="M152,265.5c-0.4,1.3-0.8,2.6-1,3.9c0.2-1.4,0.6-2.7,1.1-4l2-6.4l4-12.6l0,0C156,252.6,154,259.2,152,265.5z"/>
<path d="M158.1,246.4l1.6,1.8l1.7,1.9l1.6,2l1.5,2l1.5,2.1l1.4,2.1l1.4,2.2l1,2l0.2-0.2l-0.3-0.6c-8-11.9-2.5-5-11.5-15.4
	L158.1,246.4z"/>
<path d="M158.1,246.2c0,0,0,0.1,0,0.1l0,0L158.1,246.2C158.2,246.3,158.1,246.3,158.1,246.2z"/>
<path d="M171.5,309.5c-1-1.2-2.2-2.1-3.6-2.8c0.4,0.2,0.7,0.4,1.1,0.7c0.9,0.7,1.7,1.4,2.4,2.3c0.4,0.5,0.7,1,1.1,1.4l0-0.3
	C172.2,310.4,171.8,309.9,171.5,309.5z"/>
<path d="M120.5,282.6c0.3-16.5,6.2-32.3,11.4-48c1.7-5.2,3.3-10.5,3.5-15.9c0-2.4-0.1-4.8,0.6-7c0.6-1.8,1.8-3.4,2.3-5.2
	c0.4-1.6,0.3-3.3,0.7-5c0.7-3.4,3.2-6.2,6.2-7.9s6.4-2.6,9.7-3.4c2.9-0.7,5.8-1.4,8.2-2.9c0.1-0.4,0.3-0.8,0.4-1.2c0,0,0,0,0,0
	c-1,0.7-2,1.2-3,1.6c-2.1,0.8-4.3,1.3-6.5,1.8s-4.5,1.1-6.6,2c-2.1,0.9-4.2,2.1-5.8,3.8c-1.7,1.6-2.9,3.8-3.3,6.1
	c-0.2,1.2-0.2,2.3-0.4,3.4c-0.2,1.1-0.6,2.1-1.1,3.1s-1.1,2-1.5,3.1c-0.4,1.1-0.5,2.3-0.6,3.4c-0.1,1.1-0.1,2.3-0.1,3.4
	c-0.1,1.2-0.1,2.3-0.3,3.4c-0.6,4.5-2.1,8.8-3.5,13.1c-2.9,8.6-6,17.2-8.2,26.1c-1.1,4.4-2,8.9-2.5,13.5c-0.1,1.1-0.2,2.3-0.3,3.4
	c-0.1,1.1-0.2,2.3-0.2,3.4c-0.1,2.3-0.1,4.6,0.4,6.9s1.4,4.6,3.2,6.3c0.8,0.9,1.9,1.5,3,1.9c0.2,0.1,0.4,0.1,0.6,0.2
	c-0.7-0.3-1.3-0.6-1.9-1C121.1,292.4,120.4,287.2,120.5,282.6z"/>
<path d="M162.7,277c-1-0.6-1.8-1.4-2.4-2.4c-0.3-0.4-0.7-1-1.1-1.4c-0.4-0.4-0.9-0.7-1.5-1c-1.1-0.5-2.3-0.7-3.5-0.7
	c-1.1-0.1-2.2,0-3.3,0.2c0,0.1,0,0.2,0,0.4c3.1-0.4,7.1-0.1,9.1,2.3c0.5,0.6,0.9,1.4,1.4,2c2.1,2.5,5.9,2.4,9.1,3
	c0.8,0.2,1.6,0.4,2.3,0.7l0-0.6c-1.1-0.4-2.1-0.7-3.2-0.9C167.2,278.1,164.8,278,162.7,277z"/>
<path d="M177.4,281.8c8.3,3.5,17,6.2,25.9,7.9l0-0.2l0.2,0.2c0.1,0,0.1,0,0.2,0l0-0.6V289h-0.2c-9.3-1.8-18.4-4.5-27.1-8.2
	c-1.2-0.5-2.4-1-3.6-1.4l0,0.6C174.3,280.5,175.9,281.1,177.4,281.8z"/>
<path d="M173.7,312.3c0.3,0.2,0.6,0.4,0.9,0.6c-0.2-0.2-0.4-0.3-0.6-0.5c-0.6-0.5-1-1-1.5-1.6l0,0.3
	C172.8,311.6,173.2,312,173.7,312.3z"/>
<path d="M203.3,289.5l0,0.2c0,0,0.1,0,0.1,0L203.3,289.5z"/>
<path d="M170.4,279.3c-3.2-0.6-7-0.5-9.1-3c-0.5-0.6-0.9-1.4-1.4-2c-2-2.4-6-2.7-9.1-2.3c0-0.1,0-0.2,0-0.4c0,0,0,0,0,0
	c0,0.1,0,0.2,0,0.2l-0.2-0.2c0.1,0,0.1,0,0.2,0c0-0.8,0.1-1.5,0.2-2.3c0.2-1.3,0.5-2.6,1-3.9c2-6.3,4-12.9,6.1-19.1l-0.1-0.1
	l0.2-0.1l0,0.1c9,10.4,3.5,3.5,11.5,15.4l-0.7-1.3l-1.3-2.2l-1.4-2.1l-1.5-2.1l-1.5-2l-1.6-2l-1.7-1.9l-1.7-1.9l-0.2-0.2l-0.1,0.2
	l-4.1,12.8l-2.1,6.4c-0.7,2.1-1.3,4.3-1.3,6.6v0.2h0.2c1.2-0.1,2.3-0.2,3.5-0.2c1.2,0.1,2.4,0.2,3.4,0.7c0.5,0.2,1,0.5,1.4,0.9
	c0.4,0.4,0.7,0.9,1,1.4s0.7,1.1,1.1,1.5c0.5,0.5,1,0.8,1.5,1.1c2.3,1.1,4.7,1.2,7,1.6c1.1,0.2,2.1,0.5,3.1,0.9l0-0.1
	C172,279.7,171.2,279.5,170.4,279.3z"/>
<path d="M158.2,246.3L158.2,246.3l-0.2,0L158.2,246.3C158.1,246.3,158.1,246.3,158.2,246.3C158.1,246.3,158.2,246.3,158.2,246.3z"/>
<path d="M172.5,310.8l0-0.6c-0.1-0.2-0.3-0.4-0.4-0.5c-0.7-0.9-1.6-1.7-2.5-2.4c-1.9-1.4-4.1-2.2-6.3-2.9c-2.2-0.7-4.4-1.2-6.6-1.8
	c-4.4-1.2-8.9-2.3-13.3-3.3c-4.5-1-8.9-2-13.4-2.9c-2.2-0.5-4.3-1.1-5.9-2.6c-1.6-1.4-2.5-3.5-2.9-5.7s-0.5-4.4-0.4-6.7
	c0-1.1,0.1-2.3,0.2-3.4c0-1.1,0.2-2.3,0.3-3.4c0.5-4.5,1.4-9,2.5-13.4c2.3-8.8,5.3-17.4,8.1-26.1c1.4-4.3,2.8-8.7,3.4-13.3
	c0.2-1.1,0.3-2.3,0.3-3.4c0.1-1.1,0-2.3,0.1-3.4c0-1.1,0.2-2.2,0.5-3.3c0.3-1,0.9-2,1.4-3s0.9-2.1,1.1-3.3c0.2-1.2,0.2-2.3,0.4-3.4
	c0.3-2.2,1.4-4.2,3-5.8c1.6-1.6,3.5-2.8,5.6-3.7s4.3-1.5,6.5-2s4.5-1,6.6-1.9c0.7-0.3,1.5-0.7,2.3-1.2c0,0,0-0.1,0.1-0.1
	c-2.4,1.5-5.4,2.2-8.2,2.9c-3.3,0.8-6.7,1.7-9.7,3.4s-5.5,4.5-6.2,7.9c-0.4,1.7-0.3,3.4-0.7,5c-0.5,1.8-1.7,3.4-2.3,5.2
	c-0.7,2.2-0.6,4.6-0.6,7c-0.2,5.4-1.8,10.7-3.5,15.9c-5.2,15.7-11.1,31.5-11.4,48c-0.1,4.6,0.6,9.8,4.4,12.4c0.6,0.4,1.2,0.7,1.9,1
	c0.9,0.3,1.9,0.6,2.8,0.7c4.5,0.9,9,1.9,13.4,2.9c4.5,1,8.9,2.1,13.3,3.2c2.2,0.6,4.4,1.1,6.6,1.8c1.8,0.6,3.5,1.2,5,2.1
	c1.3,0.7,2.6,1.6,3.6,2.8C171.8,309.9,172.2,310.4,172.5,310.8z"/>
<path d="M150.8,271.9c0-0.1,0-0.2,0-0.2c-0.1,0-0.1,0-0.2,0L150.8,271.9z"/>
<polygon points="193.7,317.7 193.7,317.7 193.7,317.7 "/>
<polygon points="193.4,317.9 193.4,317.9 193.4,317.9 "/>
<path d="M193.4,317.9l0.3-0.2h0c-0.1,0-0.1,0-0.2,0C193.5,317.8,193.4,317.8,193.4,317.9L193.4,317.9z"/>
<path d="M203.3,289.8L203.3,289.8c-8.9-1.8-17.6-4.4-25.9-8c-1.5-0.7-3.1-1.3-4.7-1.8l0,0.1c1.2,0.4,2.4,0.9,3.6,1.4
	C185,285.2,194.1,288,203.3,289.8z"/>
<polygon points="193.6,317.9 193.7,317.7 193.4,317.9 "/>
<path d="M203.5,289.8L203.5,289.8c-0.1-0.1-0.1-0.1-0.2-0.1l0,0.1C203.4,289.8,203.4,289.8,203.5,289.8z"/>
<path d="M203.5,289.8c-0.1,0-0.1,0-0.2,0l0.1,1.6v1.9l-0.2,1.9l-0.3,1.9c-0.1,0.7-0.2,1.3-0.4,1.9c-0.2,0.6-0.3,1.2-0.5,1.8
	c-0.4,1.2-0.8,2.4-1.3,3.6s-1,2.4-1.6,3.5c-0.6,1.2-1.2,2.3-1.8,3.4c-1.2,2.1-2.4,4.3-3.8,6.4c0.1,0,0.1,0,0.2,0v0
	c1.3-2.1,2.6-4.3,3.9-6.6c0.6-1.1,1.2-2.2,1.8-3.4c0.6-1.1,1.1-2.3,1.6-3.5s0.9-2.4,1.3-3.6c0.2-0.6,0.3-1.3,0.5-1.9
	c0.1-0.6,0.3-1.3,0.4-1.9l0.3-1.9l0.2-1.9v-1.9l-0.1-1.3C203.6,289.8,203.5,289.7,203.5,289.8L203.5,289.8z"/>
<path d="M180,315.1c4.3,1.4,8.8,2.4,13.4,2.8h0c0-0.1,0.1-0.1,0.1-0.2c-4.5-0.4-8.9-1.4-13.1-2.8c-1.1-0.4-2.1-0.8-3.2-1.2
	c-1-0.4-2.1-0.8-2.9-1.5c-0.7-0.6-1.2-1.2-1.8-2l0,0.6c0.5,0.6,0.9,1.1,1.5,1.6c0.2,0.2,0.4,0.3,0.6,0.5c0.7,0.4,1.4,0.7,2.2,1
	C177.8,314.3,178.9,314.7,180,315.1z"/>
<path class="st12" d="M176,175c-0.6,0.4-1.2,0.9-1.8,1.3C174.8,175.9,175.4,175.4,176,175z"/>
<g>
	<path class="st10" d="M165.9,183.8c1.5-1.7,2.9-3.5,4.6-5.1c1-0.6,2-1.3,3-2l0,0c0,0,0,0,0,0c0.8-0.6,1.6-1.2,2.5-1.7l0,1.2
		c1.8-0.3,3.6-0.3,5.3-0.3c0.5,0,1.1,0,1.6,0c0.1-1.7-0.1-3.5-0.5-5.2c-0.5-2.3-1.2-4.5-2.1-6.7c-0.8-1.9-1.7-3.7-2.4-5.6
		c-1.7-5.4-0.7-11.3,0.3-17c5.9,0.7,12.1-2.2,15.5-7.3c0.9-1.4,1.7-2.9,2.5-4.3c1-1.7,2.3-3.2,3.5-4.7c3.1-3.8,6.2-7.6,9.3-11.4
		c1.2-1.4,2.6-3,4.4-3l0.4-0.2c-7.5-4.3-16.3-6.3-24.9-5.5c-2.1,0.2-4.3,0.5-6.4,0.9c-1.8,0.3-3.6,0.7-5.3,1.5
		c-3.5,1.7-5.9,5.2-8.2,8.5c-1.5,2.3-3.1,4.6-4.1,7.2c-0.9,2.5-1.3,5.2-1.5,7.9c-0.2,3.2-0.2,6.4-0.1,9.6c0.2,10,0.7,20.1,1.4,30.1
		c0.3,3.7,0.6,7.4-0.1,11c-0.3,1.5-0.7,3-1.2,4.4C164.4,185.4,165.2,184.6,165.9,183.8z"/>
	<path class="st13" d="M165.9,183.8c1.5-1.7,2.9-3.5,4.6-5.1l0,0l0,0l3-2l0,0.1l0,0l0-0.1l0,0l0,0l0,0l2.5-1.7l0.1-0.1l0,0.2l0,1.2
		l-0.1-0.1c2.3-0.3,4.6-0.2,7-0.3l-0.1,0.1c0.1-2.9-0.6-5.9-1.5-8.7c-0.5-1.4-1-2.8-1.6-4.1c-0.6-1.3-1.3-2.7-1.8-4.1
		c-0.2-0.7-0.5-1.4-0.6-2.1c-0.2-0.7-0.3-1.5-0.4-2.2c-0.2-1.5-0.2-3-0.1-4.5c0.1-3,0.6-5.9,1.1-8.8l0-0.2l0.2,0
		c4,0.4,8.1-0.8,11.4-3.2c0.8-0.6,1.6-1.3,2.2-2c0.7-0.7,1.3-1.5,1.9-2.4c1.1-1.7,2-3.6,3.2-5.3c1.2-1.7,2.5-3.2,3.8-4.8l3.9-4.8
		l3.9-4.8c0.6-0.8,1.3-1.6,2.1-2.3c0.8-0.7,1.8-1.3,3-1.3l-0.2,0.1l0.4-0.2l0,0.7c-4.4-2.5-9.2-4.2-14.1-5c-2.5-0.4-5-0.6-7.5-0.6
		c-2.5,0-5,0.3-7.5,0.7c-2.5,0.5-5,0.8-7.2,1.9c-2.2,1.1-3.9,2.9-5.5,4.9c-1.5,2-2.9,4.1-4.3,6.2c-1.3,2.1-2.4,4.4-2.9,6.8
		c-0.6,2.4-0.7,4.9-0.8,7.4c-0.1,2.5-0.1,5,0,7.6c0.1,5.1,0.2,10.1,0.4,15.2c0.2,5.1,0.4,10.1,0.7,15.1c0.1,2.5,0.3,5.1,0.1,7.6
		c-0.1,2.5-0.8,5-1.6,7.4l-0.1-0.1C164.3,185.4,165.1,184.6,165.9,183.8z M165.9,183.8c-0.7,0.8-1.5,1.6-2.4,2.3l-0.2,0.1l0.1-0.2
		c0.8-2.4,1.4-4.9,1.5-7.4c0.1-2.5,0-5-0.3-7.6c-0.4-5-0.8-10.1-1.1-15.1c-0.3-5.1-0.5-10.1-0.6-15.2c-0.1-2.5-0.1-5.1,0-7.6
		c0.1-2.5,0.3-5.1,0.8-7.6c0.6-2.5,1.7-4.9,3.1-7.1c1.4-2.2,2.8-4.2,4.3-6.3c1.6-2,3.4-3.9,5.8-5.1c2.4-1.2,5-1.5,7.5-1.9
		c2.5-0.4,5.1-0.7,7.6-0.7c2.6,0,5.1,0.2,7.6,0.6c5,0.9,9.9,2.6,14.3,5.2l0.6,0.3l-0.6,0.3l-0.4,0.2l-0.1,0.1l-0.1,0
		c-0.9,0-1.8,0.5-2.5,1.1c-0.7,0.6-1.4,1.4-2,2.2l-3.9,4.7l-3.9,4.7c-1.3,1.6-2.6,3.1-3.8,4.8c-1.2,1.6-2.1,3.5-3.2,5.2
		c-0.6,0.9-1.2,1.7-1.9,2.4c-0.7,0.8-1.5,1.4-2.3,2.1c-3.4,2.4-7.6,3.7-11.7,3.2l0.3-0.2c-0.5,2.9-1,5.8-1.2,8.8
		c-0.1,1.5-0.1,2.9,0.1,4.4c0.1,0.7,0.2,1.5,0.4,2.2c0.1,0.7,0.4,1.4,0.6,2.1c0.5,1.4,1.1,2.7,1.7,4.1c0.6,1.4,1.1,2.7,1.6,4.2
		c0.9,2.8,1.6,5.8,1.4,8.7l0,0.1l-0.1,0c-2.3,0-4.6-0.1-6.9,0.3l-0.1,0l0-0.1l0-1.2l0.1,0.1l-2.5,1.7l0,0l0,0l0,0l0-0.1l0,0l0,0l0,0
		l-3,2l0,0C168.9,180.3,167.5,182.1,165.9,183.8z"/>
</g>
<path class="st12" d="M176,176.2l0,0.2c1.8-0.3,3.5-0.3,5.2-0.3h1.7c0,0,0-0.1,0-0.1c-0.5,0-1.1,0-1.6,0
	C179.5,175.9,177.7,175.9,176,176.2z"/>
<path class="st12" d="M173.5,176.7L173.5,176.7C173.5,176.7,173.5,176.7,173.5,176.7C173.5,176.7,173.5,176.7,173.5,176.7z"/>
<path class="st12" d="M181.2,176c-1.7,0-3.5,0.1-5.2,0.3l0,0.1C177.7,176.2,179.4,176.1,181.2,176l1.7,0.1c0,0,0-0.1,0-0.1H181.2z"
	/>
<path class="st12" d="M173.9,176.6c0.7-0.2,1.4-0.3,2.1-0.4l0-1.2c-0.6,0.4-1.2,0.9-1.8,1.3C174.1,176.4,174,176.5,173.9,176.6z"/>
<path class="st12" d="M173.9,176.9c0.7-0.2,1.4-0.3,2-0.5l0-0.1c-0.7,0.1-1.4,0.3-2.1,0.5V176.9z"/>
<path class="st12" d="M174.2,176.3c0.6-0.5,1.2-0.9,1.8-1.3c-0.8,0.5-1.6,1.1-2.5,1.7c0.1,0,0.2-0.1,0.3-0.1
	C174,176.5,174.1,176.4,174.2,176.3z"/>
<path class="st12" d="M164.2,186.5c1.4-1.2,2.4-2.6,3.6-4c1.7-2.1,3.6-3.9,5.7-5.6l0-0.2c-1,0.7-2,1.4-3,2c-1.7,1.6-3.1,3.4-4.6,5.1
	c-0.7,0.8-1.5,1.6-2.4,2.3c-0.1,0.4-0.3,0.8-0.4,1.2C163.5,187,163.9,186.8,164.2,186.5z"/>
<path class="st12" d="M173.5,176.7C173.5,176.7,173.5,176.7,173.5,176.7l0,0.2c0.1-0.1,0.2-0.2,0.4-0.3
	C173.8,176.6,173.6,176.7,173.5,176.7z"/>
<path class="st12" d="M173.9,176.6C173.9,176.6,173.9,176.6,173.9,176.6c0.1-0.1,0.3-0.2,0.4-0.3C174.1,176.4,174,176.5,173.9,176.6
	z"/>
<path class="st12" d="M166.3,184.5c1.4-1.8,2.9-3.5,4.5-5.1c0.9-0.9,1.8-1.7,2.7-2.5l0,0c-2.1,1.7-4,3.5-5.7,5.6
	c-1.2,1.4-2.2,2.8-3.6,4c-0.3,0.3-0.7,0.5-1.1,0.8c0,0-0.8,0.3-0.9,0.4c0.3-0.2,1.3-0.6,1.5-0.8
	C164.8,186.2,165.6,185.4,166.3,184.5z"/>
<path class="st12" d="M173.9,176.6C173.9,176.6,173.9,176.6,173.9,176.6c-0.2,0.1-0.3,0.2-0.4,0.3l0,0
	C173.6,176.8,173.8,176.7,173.9,176.6z"/>
<path class="st5" d="M182.9,175.8c-2-0.2-4.1,0.1-6.2,0.1c-1.2,0-2.6,0.2-3.7,0.8c-0.6,0.3-0.8,0.2-1.2,0.7
	c-0.7,0.8-1.4,1.6-2.1,2.4c-0.4,0.5-0.8,1-1.2,1.5c-0.4,0.4-1.6,1.7-1.9,2.1c-1.5,1.8-2,2.5-3.7,3.8"/>
<g>
	<g>
		<g>
			<path class="st6" d="M206.6,146.1c0.2,0.3,1.3,0.4,1.1,0c-4.2-5.4-11.7-6.7-17.4-2.9c-0.3,0.2,0.8,0.6,1.1,0.4
				C196.4,140.3,202.9,141.3,206.6,146.1L206.6,146.1z"/>
			<path class="st14" d="M206.6,146.1c0,0,0.1,0.1,0.4,0.2c0.1,0,0.3,0.1,0.5,0c0.1,0,0.2,0,0.1-0.1c0-0.1-0.2-0.2-0.2-0.3
				c-0.2-0.2-0.4-0.4-0.6-0.7c-0.2-0.2-0.5-0.5-0.8-0.7c-0.6-0.5-1.2-1-2-1.4c-0.4-0.2-0.8-0.4-1.3-0.6c-0.5-0.2-0.9-0.4-1.4-0.5
				c-1-0.3-2.1-0.5-3.2-0.6c-1.1-0.1-2.3,0.1-3.4,0.3c-1.1,0.3-2.3,0.7-3.3,1.3l-0.8,0.5l-0.2,0.1l0,0c-0.1,0.1,0.1-0.1,0.1-0.1l0,0
				c-0.1,0.1,0.1-0.1,0.1-0.2c0-0.1,0-0.1,0-0.2c0,0,0,0,0,0c0,0,0.1,0.1,0.2,0.1c0.1,0,0.2,0.1,0.3,0.1c0,0,0,0,0,0l0.2-0.1
				l0.8-0.5c1.1-0.6,2.3-1.1,3.5-1.3c1.2-0.2,2.4-0.3,3.4-0.1c1.1,0.1,2.1,0.5,2.9,0.9c0.4,0.2,0.8,0.4,1.2,0.7
				c0.4,0.2,0.7,0.5,1,0.7c0.6,0.5,1.1,0.9,1.4,1.3c0.4,0.4,0.6,0.7,0.8,0.9C206.5,146,206.6,146.1,206.6,146.1z M206.6,146.2
				c0,0-0.1-0.1-0.3-0.3c-0.2-0.2-0.4-0.5-0.9-0.9c-0.4-0.4-0.9-0.8-1.5-1.1c-0.6-0.4-1.4-0.8-2.2-1c-0.8-0.3-1.8-0.5-2.8-0.5
				c-1-0.1-2.1-0.1-3.1,0.2c-1.1,0.2-2.2,0.6-3.2,1.1l-0.8,0.5l-0.2,0.1c-0.2,0.1-0.3,0.1-0.5,0.1c-0.2,0-0.4-0.1-0.6-0.1
				c-0.2-0.1-0.3-0.1-0.6-0.3c0,0-0.1-0.1-0.1-0.1c0-0.1-0.1-0.1-0.1-0.3c0-0.2,0.2-0.3,0.1-0.3l0,0c0,0,0.2-0.1,0.1-0.1l0,0
				l0.2-0.1l0.8-0.5c1.1-0.6,2.3-1,3.5-1.3c1.2-0.2,2.4-0.3,3.6-0.2c1.2,0.1,2.3,0.3,3.3,0.7c0.5,0.2,1,0.4,1.4,0.6
				c0.4,0.2,0.9,0.5,1.3,0.7c0.8,0.5,1.4,1.1,2,1.6c0.5,0.5,1,1,1.3,1.4c0.1,0.1,0.2,0.2,0.2,0.3c0,0.1,0,0.2,0,0.2
				c-0.1,0-0.1,0.1-0.2,0.1c-0.2,0-0.4,0-0.5,0C206.7,146.3,206.5,146.2,206.6,146.2z"/>
		</g>
	</g>
</g>
<g>
	<g>
		<g>
			<path class="st6" d="M215.7,145.3c-0.2,0.5,0.9,0.8,1.1,0.3c0.5-1.2,0.8-2.6,1.8-3.5c0.8-0.6,1.8-0.9,2.8-1.1
				c2.6-0.4,4.6,0.7,6.8,1.9c0.6,0.3,1.2-0.3,0.5-0.7c-2.6-1.5-5.1-2.6-8.2-2c-1.1,0.2-2.3,0.7-3.1,1.5
				C216.5,142.7,216.2,144.1,215.7,145.3L215.7,145.3z"/>
			<path class="st14" d="M215.8,145.3c0,0.1,0,0.2,0.1,0.3c0.1,0.1,0.2,0.1,0.3,0.2c0.2,0.1,0.5,0,0.6-0.2l0,0l0,0
				c0.3-0.6,0.4-1.2,0.7-1.9c0.2-0.6,0.6-1.2,1.1-1.7c0.5-0.5,1.2-0.7,1.8-0.9c0.7-0.2,1.3-0.3,2-0.4c1.4-0.1,2.7,0.3,4,0.9
				c0.6,0.3,1.2,0.6,1.8,0.9c0.1,0.1,0.3,0.2,0.3,0.2c0.1,0,0.1,0,0.1,0c0,0,0,0.1,0,0.1c0,0-0.1-0.1-0.3-0.2
				c-1.1-0.6-2.3-1.2-3.5-1.6c-1.2-0.3-2.5-0.5-3.7-0.3c-1.2,0.2-2.5,0.4-3.5,1.2c-0.5,0.4-0.8,0.9-1.1,1.5
				C216.3,144,216.1,144.7,215.8,145.3z M215.7,145.2c0.2-0.6,0.4-1.2,0.6-1.9c0.2-0.6,0.5-1.3,1-1.8c0.5-0.5,1.1-0.9,1.7-1.2
				c0.6-0.3,1.3-0.5,2-0.6c1.4-0.2,2.8-0.1,4.1,0.3c1.3,0.4,2.5,1.1,3.6,1.8c0.1,0.1,0.3,0.2,0.5,0.4c0.1,0.1,0.1,0.3,0.1,0.5
				c0,0.2-0.2,0.3-0.3,0.4c-0.2,0.2-0.5,0.2-0.8,0.2c-0.3-0.1-0.4-0.2-0.5-0.3c-0.6-0.3-1.1-0.7-1.7-1c-1.2-0.6-2.4-1-3.7-1
				c-0.6,0-1.3,0.1-1.9,0.3c-0.6,0.2-1.2,0.4-1.7,0.8c-0.5,0.4-0.9,0.9-1.1,1.5c-0.3,0.6-0.5,1.2-0.7,1.8l0,0c0,0.1-0.2,0.3-0.3,0.3
				c-0.1,0-0.3,0-0.4,0c-0.1,0-0.3-0.1-0.4-0.2c-0.1,0-0.1-0.1-0.1-0.2C215.6,145.4,215.7,145.3,215.7,145.2L215.7,145.2z"/>
		</g>
	</g>
</g>
<g>
	<g>
		<path class="st6" d="M226.4,141.2c-0.2,0-0.2,0.1,0,0.3c0.2,0.1,0.5,0.2,0.8,0.2c0.2,0,0.4,0,0.5,0c0.2,0.1,0.5,0.2,0.8,0.2
			c0.2,0,0.3-0.1,0.1-0.2C227.9,141.4,227.2,141.2,226.4,141.2L226.4,141.2z"/>
	</g>
</g>
<g>
	<g>
		<path class="st6" d="M225.8,140.6c-0.2,0-0.5,0.1-0.3,0.3c0.2,0.2,0.5,0.3,0.8,0.3c0.3,0,0.6,0,0.9,0c0.2,0,0.5-0.1,0.3-0.3
			c-0.2-0.2-0.5-0.3-0.8-0.3C226.4,140.6,226.1,140.6,225.8,140.6L225.8,140.6z"/>
	</g>
</g>
<g>
	<g>
		<path class="st6" d="M192.8,142.6c0.2,0,0.4-0.1,0.3-0.4c-0.2-0.2-0.5-0.3-0.8-0.3c-0.3,0-0.6,0-0.9,0c-0.2,0-0.5,0.1-0.3,0.4
			c0.2,0.2,0.5,0.3,0.8,0.3C192.2,142.6,192.5,142.6,192.8,142.6L192.8,142.6z"/>
	</g>
</g>
<g>
	<g>
		<path class="st6" d="M190.9,143.4c0.2,0,0.6,0.2,0.8,0c0.2-0.2-0.2-0.4-0.3-0.4c-0.1,0-0.3-0.1-0.4-0.1c-0.2,0-0.6-0.2-0.8,0
			c-0.2,0.2,0.2,0.4,0.3,0.4C190.6,143.3,190.8,143.4,190.9,143.4L190.9,143.4z"/>
	</g>
</g>
<g>
	<g>
		<path class="st6" d="M190.2,143.6c0.2,0.2,0.5,0.2,0.8,0.3c0.1,0,0.5,0,0.3-0.2c-0.2-0.1-0.4-0.3-0.5-0.4
			c-0.2-0.2-0.5-0.2-0.8-0.3c-0.1,0-0.5,0-0.3,0.2C189.8,143.3,190,143.5,190.2,143.6L190.2,143.6z"/>
	</g>
</g>
<g>
	<g>
		<path class="st6" d="M191.6,143c0.1,0,0.5,0.1,0.5-0.2c0-0.1-0.2-0.2-0.2-0.2c-0.1-0.1-0.3-0.1-0.4-0.2c0.1,0,0.2,0,0.3,0.1l0,0
			c0,0,0-0.1-0.1-0.1c-0.1-0.2-0.5-0.3-0.7-0.3c-0.1,0-0.6,0-0.5,0.2C190.6,142.7,191.1,142.9,191.6,143L191.6,143z"/>
	</g>
</g>
<g>
	<g>
		<path class="st0" d="M178.9,157.2c-3.6-0.9-6.7-3.3-8.6-6.4c-1.9-3.2-2.5-7-1.7-10.6c0.4-1.5,1-3,2.4-3.6c1.6-0.6,3.4,0.4,4.8,1.3
			c0.8,0.5,1.5,1,2.3,1.5"/>
	</g>
	<path class="st6" d="M176.9,138.6c-0.4-0.2-0.9-0.6-1.5-0.9c-0.6-0.3-1.2-0.7-1.9-0.9c-0.7-0.2-1.6-0.4-2.3,0
		c-0.8,0.4-1.3,1.1-1.7,2c-0.2,0.4-0.4,0.9-0.4,1.4c-0.1,0.5-0.2,1-0.2,1.5c-0.1,1-0.1,2.1,0,3.1c0.1,1,0.4,2.1,0.7,3
		c0.4,0.9,0.8,1.9,1.3,2.7c0.2,0.4,0.5,0.8,0.8,1.2c0.3,0.4,0.6,0.8,0.9,1.1c0.6,0.7,1.2,1.3,1.9,1.7c0.6,0.5,1.2,0.9,1.8,1.2
		s1.1,0.6,1.5,0.8c0.4,0.2,0.8,0.3,1,0.4c0.2,0.1,0.4,0.1,0.4,0.1s-0.2,0-0.4-0.1c-0.3-0.1-0.6-0.2-1.1-0.3c-0.4-0.2-1-0.4-1.6-0.6
		c-0.6-0.3-1.3-0.6-1.9-1.1s-1.3-1-2-1.7c-0.3-0.3-0.6-0.7-0.9-1.1s-0.6-0.8-0.9-1.2c-0.6-0.9-1-1.8-1.4-2.8c-0.4-1-0.6-2.1-0.8-3.2
		c-0.1-1.1-0.1-2.2,0-3.3c0-0.2,0.1-0.5,0.1-0.8c0-0.2,0.1-0.5,0.2-0.8c0.2-0.6,0.3-1.1,0.5-1.5c0.2-0.5,0.5-0.9,0.8-1.3
		c0.2-0.2,0.4-0.4,0.6-0.5c0.2-0.2,0.5-0.3,0.7-0.4c1-0.4,2-0.2,2.7,0.1c0.8,0.3,1.4,0.8,1.9,1.1C176.1,138,176.6,138.3,176.9,138.6
		c0.8,0.5,1.2,0.8,1.2,0.8S177.7,139.2,176.9,138.6z"/>
</g>
<g>
	<path class="st0" d="M174.8,153.8c0.4,0.8,1.2,1.4,2,1.4c0.8,0,1.9-0.8,2.3-1.5c-0.8-0.6-2.7-4.2-2.6-4.6c0.4-0.9,2-0.9,2.1-2
		c0.1-0.5,0.2-1,0.1-1.5c-0.1-0.5-0.3-1-0.5-1.5c-1-2.1-2.2-4.3-4.3-4.9c-0.6-0.2-1.3-0.2-1.8,0.2c-0.4,0.4-0.6,1-0.8,1.5
		c-0.3,1.1-0.6,2.2-0.9,3.2c-0.2,0.5-0.3,0.9-0.3,1.5c0,0.7,0.3,1.3,0.6,2c0.3,0.6,0.6,1.3,0.9,1.9c0.2,0.4,0.4,0.8,0.6,1
		c0.3,0.2,0.6,0.4,0.9,0.6c0.8,0.6,1.2,1.5,1.6,2.4"/>
	<path class="st6" d="M173.4,151.7c-0.3-0.2-0.6-0.4-0.9-0.6c-0.2-0.1-0.4-0.2-0.5-0.3c-0.2-0.2-0.3-0.3-0.4-0.5
		c-0.2-0.4-0.4-0.7-0.5-1l-0.5-1c-0.3-0.7-0.7-1.3-0.8-2.2c-0.1-0.4,0-0.8,0-1.2s0.2-0.8,0.3-1.1l0.6-2.2l0.3-1.1
		c0.1-0.4,0.3-0.8,0.6-1.1c0-0.1,0.1-0.2,0.2-0.2c0,0,0.2-0.2,0.3-0.2c0.2-0.1,0.4-0.2,0.7-0.2c0.5-0.1,0.9,0,1.3,0.1
		c0.4,0.1,0.8,0.3,1.1,0.5c0.4,0.2,0.7,0.5,0.9,0.8c0.6,0.6,1,1.2,1.4,1.9c0.4,0.7,0.7,1.4,1,2.1c0.2,0.4,0.3,0.7,0.4,1.1
		s0.1,0.8,0.1,1.2c0,0.2,0,0.4-0.1,0.6v0.1v0v0.1l0,0.1c0,0.1-0.1,0.3-0.2,0.4c-0.2,0.2-0.4,0.4-0.5,0.5s-0.4,0.2-0.5,0.3
		c-0.3,0.2-0.6,0.4-0.8,0.6c0,0-0.1,0.1-0.1,0.2v0c0,0.1,0,0,0,0l0,0l0,0c0,0,0,0,0,0v0c0,0,0,0,0,0.1c0,0.1,0.1,0.3,0.2,0.5
		c0.3,0.7,0.6,1.3,1,2c0.2,0.3,0.4,0.6,0.6,0.9s0.4,0.6,0.7,0.8l0.2,0.1l-0.1,0.2c-0.3,0.4-0.6,0.8-1,1c-0.4,0.3-0.8,0.5-1.3,0.5
		c-0.1,0-0.1,0-0.2,0c0,0-0.1,0-0.2,0c-0.1,0-0.2,0-0.4-0.1c-0.2-0.1-0.4-0.2-0.6-0.3c-0.4-0.3-0.7-0.6-0.8-1.1
		c0.2,0.4,0.5,0.8,0.9,1c0.2,0.1,0.4,0.2,0.6,0.3c0.1,0,0.2,0.1,0.3,0.1c0,0,0.1,0,0.2,0h0.2c0.4,0,0.8-0.3,1.1-0.6
		c0.4-0.3,0.6-0.6,0.8-1l0,0.3c-0.4-0.2-0.6-0.6-0.8-0.9s-0.4-0.6-0.6-0.9c-0.4-0.6-0.8-1.3-1.1-2c-0.1-0.2-0.2-0.4-0.2-0.6
		c0-0.1,0-0.1,0-0.2c0-0.1,0-0.2,0-0.2l0,0l0,0c0,0,0-0.1,0-0.1l0,0c0-0.1,0.1-0.2,0.2-0.3c0.3-0.4,0.7-0.6,1-0.7
		c0.3-0.2,0.6-0.4,0.8-0.6c0,0,0-0.1,0-0.1c0,0,0,0,0-0.1l0-0.1l0,0c0,0,0,0.1,0,0l0,0v0v-0.1c0-0.2,0-0.4,0-0.6c0-0.4,0-0.7-0.1-1
		c-0.1-0.3-0.2-0.7-0.4-1c-0.3-0.7-0.7-1.3-1-2c-0.4-0.6-0.8-1.2-1.3-1.7c-0.2-0.3-0.5-0.5-0.8-0.7c-0.3-0.2-0.6-0.3-0.9-0.4
		c-0.3-0.1-0.7-0.2-0.9-0.1c-0.1,0-0.3,0-0.4,0.1c-0.1,0-0.1,0-0.2,0.1c0,0-0.1,0.1-0.2,0.2c-0.4,0.4-0.5,1.2-0.8,1.9l-0.6,2.2
		c-0.2,0.8-0.5,1.4-0.4,2.1c0.1,0.7,0.4,1.3,0.7,2.1l0.4,1c0.2,0.4,0.3,0.7,0.4,1c0.2,0.3,0.4,0.5,0.8,0.7s0.7,0.4,0.9,0.7
		c0.5,0.6,0.8,1.3,1,2C174.3,153,174,152.3,173.4,151.7z"/>
</g>
<g>
	<g>
		<path d="M223.3,142.8c0.1-0.3-1-0.7-1.1-0.3c-0.4,1.3-1.2,2.4-2.7,2.5c-0.8,0,0.1,0.6,0.5,0.6c0.7,0,1.4-0.2,2-0.7
			C222.7,144.4,223,143.6,223.3,142.8L223.3,142.8z"/>
	</g>
</g>
<g>
	<g>
		<path d="M202.2,144.4c0.1-0.3-1-0.6-1.1-0.3c-0.5,1-1.5,1.7-2.6,1.8c-0.8,0,0.1,0.6,0.5,0.6C200.3,146.4,201.5,145.7,202.2,144.4
			L202.2,144.4z"/>
	</g>
</g>
<g>
	<path d="M214,169c0,0,0,0.1,0,0.2c0,0.1-0.1,0.2-0.2,0.2c-0.1,0-0.2,0.1-0.4,0.1c-0.2,0-0.3,0-0.4,0c-0.3,0-0.6,0-0.8,0
		s-0.4-0.1-0.4-0.1v0c0,0,0.2,0,0.4,0s0.5,0,0.8-0.1c0.2,0,0.3-0.1,0.4-0.1c0.1,0,0.2,0,0.4,0c0.1,0,0.2,0,0.2,0
		C213.9,169,214,169,214,169L214,169z"/>
</g>
<path d="M205.2,166c-0.3-0.2-0.6-0.3-0.9-0.4c-0.2-0.1-0.3-0.1-0.5-0.2c0,0.2,0,0.4,0.2,0.6c0.1,0.2,0.2,0.3,0.4,0.4
	c0.1,0.2,0.2,0.4,0.4,0.6c0.1,0.2,0.3,0.4,0.5,0.5C205,167.1,205,166.6,205.2,166"/>
<g>
	<path class="st10" d="M218.8,126c-4,4.6-8.4,9.5-14.2,10.2c1-0.3,1.9-0.9,2.5-1.8c-2.1,0.4-4.2,0.4-6.3,0.1
		c0.9-0.4,1.9-0.9,2.8-1.3c-2.7,0.1-5.3,0.3-8,0.4c1.9-0.5,3.5-2.2,4-4.2c-2.3,2.2-5.2,3.8-8.2,4.6c2.9-3.5,2.8-8.7,4.5-13.1
		c1-2.6,2.6-4.8,4.4-6.8c2.2-2.4,4.7-4.6,7.7-5.5c3.9-1,8,0.4,11.7,2.1c1.1,0.5,2.2,1.1,3.1,1.9c1.1,1,1.8,2.3,2.4,3.7
		c2.8,5.8,4.3,12.2,4.5,18.7c-1.4-2.3-3-4.5-4.7-6.6c0,1.2,0,2.5,0,3.7c-0.7-2.5-2.4-4.8-4.5-6.1c-0.7-0.5-1.9-0.6-2.2,0.3"/>
	<path class="st13" d="M218.9,126c-1.9,2.3-3.9,4.5-6.2,6.4c-1.1,1-2.4,1.8-3.7,2.5c-0.7,0.3-1.4,0.6-2.1,0.9
		c-0.4,0.1-0.7,0.2-1.1,0.3l-1.1,0.2l-0.1-0.3c1-0.3,1.8-0.9,2.4-1.7l0.2,0.3c-2.1,0.4-4.3,0.4-6.4,0.2l-0.7-0.1l0.6-0.3l2.8-1.3
		l0.1,0.4l-8,0.5l-2.4,0.1l2.3-0.6c1.9-0.5,3.3-2.2,3.8-4l0.5,0.3c-2.3,2.2-5.2,3.9-8.3,4.7l-0.9,0.2l0.6-0.7c0.9-1.1,1.5-2.4,2-3.8
		c0.5-1.4,0.8-2.8,1.1-4.3c0.3-1.5,0.6-2.9,1.1-4.4c0.5-1.4,1.2-2.8,2-4.1c0.8-1.3,1.8-2.4,2.8-3.6c1-1.1,2.1-2.2,3.3-3.1
		c1.2-0.9,2.5-1.7,4-2.2c1.5-0.5,3.1-0.6,4.6-0.5c3.1,0.3,5.9,1.5,8.6,2.7c1.4,0.6,2.7,1.6,3.6,2.9c0.9,1.3,1.5,2.7,2.1,4
		c2.4,5.5,3.7,11.5,3.8,17.5l0,1.5l-0.8-1.3c-1.4-2.3-2.9-4.5-4.6-6.6l0.5-0.2l-0.1,3.7l0,1.6l-0.4-1.6c-0.5-1.6-1.3-3.1-2.4-4.4
		c-0.6-0.6-1.2-1.2-1.9-1.7c-0.3-0.2-0.7-0.4-1.2-0.4c-0.4,0-0.9,0.1-0.9,0.6l-0.1,0c0-0.2,0.2-0.4,0.4-0.5c0.2-0.1,0.4-0.2,0.7-0.1
		c0.4,0,0.9,0.2,1.3,0.4c0.7,0.5,1.4,1,2,1.6c1.2,1.2,2.1,2.8,2.6,4.5l-0.5,0.1l0-3.7l0-0.8l0.5,0.6c1.7,2.1,3.3,4.3,4.8,6.6
		l-0.7,0.2c-0.1-2.9-0.5-5.9-1.2-8.7c-0.7-2.9-1.6-5.7-2.8-8.4c-0.6-1.4-1.2-2.7-2-3.8c-0.8-1.2-2-2-3.3-2.6
		c-2.6-1.3-5.4-2.4-8.3-2.7c-1.4-0.1-2.8,0-4.2,0.4c-1.4,0.4-2.6,1.2-3.8,2c-1.2,0.9-2.2,1.9-3.2,3c-1,1.1-1.9,2.2-2.7,3.4
		c-0.8,1.2-1.5,2.5-2,3.9c-0.5,1.4-0.8,2.8-1.1,4.3c-0.3,1.4-0.6,2.9-1.1,4.3c-0.5,1.4-1.2,2.8-2.1,4l-0.3-0.5
		c3-0.7,5.8-2.3,8.1-4.4l0.7-0.7l-0.2,1c-0.5,2-2.1,3.8-4.2,4.4l-0.1-0.5l8-0.4l1.1-0.1l-1,0.5l-2.8,1.3l-0.1-0.4
		c2.1,0.3,4.2,0.3,6.3-0.1l0.4-0.1l-0.2,0.3c-0.6,0.9-1.6,1.5-2.6,1.8l-0.1-0.3l1.1-0.2c0.4-0.1,0.7-0.2,1.1-0.3
		c0.7-0.2,1.4-0.5,2-0.8c1.3-0.7,2.6-1.5,3.7-2.4C214.8,130.5,216.8,128.2,218.9,126L218.9,126z"/>
</g>
<g>
	<path class="st10" d="M177.8,139.2c0.4,3.3,0.8,6.7-0.4,9.8c0.8-1.7,2.2-3,3.4-4.5s2.5-3,2.7-4.8"/>
	<path class="st13" d="M177.8,139.2c0.3,1.6,0.6,3.3,0.6,4.9c0.1,1.7-0.1,3.4-0.7,5l-0.8-0.3c0.8-1.8,2.1-3.3,3.4-4.6
		c0.6-0.7,1.3-1.3,1.8-2.1c0.5-0.7,1-1.5,1.3-2.4l0.1,0c0.1,1-0.3,1.9-0.7,2.8c-0.4,0.9-1,1.7-1.6,2.4c-1.2,1.4-2.7,2.6-3.5,4.2
		l-0.8-0.3c0.6-1.5,0.9-3.1,0.9-4.7c0.1-1.6-0.1-3.3-0.2-4.9L177.8,139.2z"/>
</g>
<g>
	<path class="st13" d="M205.6,188.2c0,0-0.1,0.4-0.1,1.1c0,0.6,0.1,1.5,0.5,2.2c0.2,0.4,0.5,0.6,0.8,0.9c0.3,0.2,0.6,0.4,0.8,0.6
		c0.1,0.1,0.3,0.1,0.4,0.2c0.1,0,0.2,0.1,0.3,0.1c0.2,0,0.3,0.1,0.3,0.1l0,0c0,0-0.1,0-0.3,0.1c-0.2,0-0.5,0-0.8,0
		c-0.3-0.1-0.7-0.3-1.1-0.6c-0.3-0.3-0.6-0.7-0.8-1.1c-0.4-0.8-0.4-1.8-0.3-2.4C205.4,188.6,205.6,188.2,205.6,188.2L205.6,188.2z"
		/>
</g>
<path class="st8" d="M216.8,166.6c-0.9-0.1-1.7-0.4-2.6-0.7c-1-0.3-2.1-0.5-3.1-0.6c-1.1-0.2-2.3-0.3-3.4-0.4c-2,0-4.2,0.3-5.8-0.8
	c3.2,2,6.8,3.2,10.6,3.6c1.7,0.2,3.5,0,4.6-1.2"/>
<g>
	<path d="M263,387.1c0,0,0.1,0.1,0.2,0.2c0.1,0.2,0.2,0.4,0.1,0.8c0,0.3-0.1,0.7-0.2,1c-0.2,0.3-0.4,0.6-0.6,0.9
		c-0.4,0.6-0.8,1.3-1.2,1.7c-0.4,0.4-0.7,0.6-0.7,0.6l-0.1-0.1c0,0,0.2-0.3,0.5-0.8c0.2-0.5,0.5-1.1,0.8-1.8c0.1-0.3,0.2-0.7,0.4-1
		c0.1-0.3,0.3-0.5,0.4-0.8c0.1-0.2,0.2-0.4,0.3-0.6C262.9,387.2,262.9,387.1,263,387.1L263,387.1z"/>
</g>
</svg>
