<?xml version="1.0" encoding="utf-8"?>
<!-- Generator: Adobe Illustrator 19.0.1, SVG Export Plug-In . SVG Version: 6.00 Build 0)  -->
<svg version="1.1" id="Layer_1" xmlns="http://www.w3.org/2000/svg" xmlns:xlink="http://www.w3.org/1999/xlink" x="0px" y="0px"
	 viewBox="0 0 261 293.8" style="enable-background:new 0 0 261 293.8;" xml:space="preserve">
<style type="text/css">
	.st0{stroke:#FFFFFF;}
	.st1{fill:#FFFFFF;stroke:#000000;}
	.st2{stroke:#FFFFFF;stroke-width:1.0909;}
	.st3{fill:#FFFFFF;}
	.st4{fill:#FFFFFF;stroke:#FFFFFF;}
	.st5{stroke:#FFFFFF;stroke-width:0.9463;}
</style>
<path class="st0" d="M199.7,67.7c-1.5-13.7-3.8-19.5-7-25.4c-3.2-5.9-9-8.8-17.4-8.8H97.5v103.4H155c9.8,0,16.7-2.3,20.7-6.8
	c4-4.5,6-12.5,6-23.8h14.2v79.3l-14.2-2c0-13.8-2.5-15.3-7.4-18.6s-13.1-5-24.7-5H97.5v82.4c0,8.3,0.8,14,2.3,17.2
	c1.6,3.2,5.2,4.8,10.8,4.8h59.2c14.4,0,24.3-3.9,29.5-11.6c5.2-7.7,9-21.2,11.3-34.6l13.5,1l2.4,61.3L8.8,281.9l-0.5-14.3l12.3,0.4
	c9.7,0,16.8,0.7,21.2-3.9c4.4-4.6,6.6-12.4,6.6-23.4V57.9c0-12.4-2.3-20.7-6.9-24.8c-4.6-4.1-12.6-6.2-24.2-6.2l-1.4-0.1l-1-14.8
	l179.7,0.4l18.7,56.3L199.7,67.7z"/>
<path class="st1" d="M217.8,69.7c-1.5-13.7-3.8-21.5-7-27.4c-3.2-5.9-9-8.8-17.4-8.8h-77.8v103.4h57.5c9.8,0,16.7-2.3,20.7-6.8
	c4-4.5,6-12.5,6-23.8H214v81.3h-14.2c0-10.8-2.5-19.3-7.4-22.6s-13.1-5-24.7-5h-52.1v82.4c0,8.3,0.8,14,2.3,17.2
	c1.6,3.2,5.2,4.8,10.8,4.8h59.2c14.4,0,24.3-3.9,29.5-11.6c5.2-7.7,3.3-21.1,5.6-34.5l19.8,1.6l3.2,61.8l-202.6,2.8L24.1,271h14.6
	c9.7,0,16.8-2.3,21.2-6.9c4.4-4.6,6.6-12.4,6.6-23.4V57.9c0-12.4-2.3-20.7-6.9-24.8C55.1,29,47,26.9,35.4,26.9H32l0-12.2L226.9,17
	l4.5,54.8L217.8,69.7z"/>
<path class="st2" d="M230.2,73.9c-1.5-13.4-0.8-23-3.9-28.7c-3.1-5.8-8.8-8.6-17-8.6h-76.1v101.4h56.3c9.6,0,16.4-2.2,20.2-6.7
	c3.9-4.4,5.8-12.2,5.8-23.2h13.9v82.4h-13.9c0-13.5-2.4-21.8-7.2-25.1c-4.8-3.2-12.8-4.8-24.1-4.8h-51v80.7c0,8.1,0.8,13.7,2.3,16.8
	c1.5,3.1,5,4.7,10.6,4.7h57.9c14.1,0,23.7-3.8,28.9-11.3c5.1-7.5,4.8-17.8,7.1-30.9h13.2l-0.1,64.9H43.7v-16.2h14.3
	c9.5,0,16.4-2.3,20.7-6.8c4.3-4.5,6.5-12.2,6.5-22.9V60.4c0-12.1-2.2-20.2-6.7-24.2c-4.5-4-12.4-6.1-23.7-6.1h-3.4V13.9h191.5
	l0.6,60H230.2z"/>
<g>
	<path d="M7.9,282.7l-0.2-15.5c3.8,0.3,24.7,2.1,35,2.1c0.3,0,0.6,0,0.9,0l0.1,16.1L7.9,282.7z"/>
	<path class="st3" d="M8.3,267.7c5,0.4,24.6,2,34.5,2c0.1,0,0.2,0,0.3,0l0.1,15l-34.8-2.5L8.3,267.7 M7.2,266.5l0.2,16.6l37,2.7
		l-0.1-17.2c-0.4,0-0.9,0-1.4,0C31.4,268.6,7.2,266.5,7.2,266.5L7.2,266.5z"/>
</g>
<g>
	<path d="M15.1,27.4l-0.2-15.5c3.8,0.3,24.7,2.1,35,2.1c0.3,0,0.6,0,0.9,0L50.9,30L15.1,27.4z"/>
	<path class="st3" d="M15.5,12.5c5,0.4,24.6,2,34.5,2c0.1,0,0.2,0,0.3,0l0.1,15l-34.8-2.5L15.5,12.5 M14.4,11.3l0.2,16.6l37,2.7
		l-0.1-17.2c-0.4,0-0.9,0-1.4,0C38.6,13.4,14.4,11.3,14.4,11.3L14.4,11.3z"/>
</g>
<polygon class="st4" points="242.8,13.9 196.6,12.4 14.9,12 51.4,13.4 "/>
<g>
	<path class="st3" d="M199.4,67.9c-0.5-2.6-4-19.2-15-30.5c3.1-0.2,4.2-0.3,5.1-0.4c1.7-0.2,2-0.2,16.8-0.3
		c9.8,0.6,15.7,0.9,21,12.6c1.1,2.5,1.7,5.2,1.8,8.1l0.5,16.4L199.4,67.9z"/>
	<path class="st3" d="M206.3,37.1c9.6,0.6,15.4,0.9,20.5,12.3c1.1,2.5,1.7,5.1,1.8,7.9l0.5,15.8l-29.2-5.7
		c-0.7-3.4-4.1-18.6-14.3-29.6c2.3-0.2,3.3-0.3,4-0.4C191.3,37.3,191.6,37.2,206.3,37.1 M206.3,36.1c-22.5,0.2-11.5,0.2-23,0.8
		C195.8,49.1,199,68.3,199,68.3l31.1,6l-0.5-17c-0.1-2.8-0.7-5.7-1.9-8.3C222.5,37.3,216.5,36.7,206.3,36.1L206.3,36.1z"/>
</g>
<g>
	<path class="st3" d="M181.3,184.2c-0.3-2.3-2.5-14.5-14.9-23.2c2.7-0.2,3.9-0.3,4.8-0.4c2.1-0.2,2.5-0.3,17.7-0.4
		c11.4,0.7,19.6,1.2,25.2,16.8l1.1,13.3L181.3,184.2z"/>
	<path class="st3" d="M188.8,160.8L188.8,160.8c11.2,0.7,19.3,1.1,24.7,16.4l1,12.6l-32.8-6c-0.4-3-2.8-14-14-22.3
		c1.7-0.1,2.7-0.2,3.4-0.3C173.3,161,173.7,160.9,188.8,160.8 M188.8,159.8c-22.5,0.2-12.5,0.2-24,0.8c14.8,9.5,16,24,16,24
		l34.8,6.4l-1.1-14C208.8,161,200.2,160.5,188.8,159.8L188.8,159.8z"/>
</g>
<g>
	<path d="M188.8,138c-6.8-0.1-13.5-0.1-19.9-0.1c-14.4,0-27-0.1-35-0.5c0.1-0.7-0.1-1.5-0.4-2.1c1.6,0,3.8,0,6.2,0c4,0,8.7,0,13.2,0
		c15.6,0,15.8-0.2,16.1-0.5c10.1-10.3,12-26.6,12.2-29.7l33.8,2.6l-1.1,13.5C208.4,136.8,200.2,137.3,188.8,138L188.8,138z"/>
	<path class="st3" d="M181.7,105.7l32.8,2.5l-1,12.9c-5.4,15.2-13.5,15.7-24.7,16.4c-6.8-0.1-13.4-0.1-19.8-0.1
		c-14.2,0-26.5-0.1-34.5-0.5c0-0.4-0.1-0.8-0.2-1.2c1.5,0,3.4,0,5.6,0c4,0,8.7,0,13.2,0c15.8,0,16-0.2,16.4-0.7
		C179.3,125.1,181.4,109.8,181.7,105.7 M180.8,104.7c0,0-1,18.5-12.1,29.8c-0.3,0.3-7.6,0.4-15.7,0.4c-7.7,0-16.1-0.1-20.1-0.1
		c0,0,1.1,2.6,0.3,3.1c11.5,0.7,33.2,0.4,55.7,0.6c11.3-0.7,20-1.2,25.7-17.2l1.1-14L180.8,104.7L180.8,104.7z"/>
</g>
<polygon class="st0" points="229.4,108 193.4,104.1 180.8,104.7 215.5,108 "/>
<polygon class="st5" points="253.7,220 221.5,217.1 210.2,217.7 241.2,220 "/>
<g>
	<path class="st3" d="M195.8,262.4c-2.4,0-5-0.1-7.6-0.3c7-2.3,13-9.7,17.6-21.8c3.6-9.6,5.3-19.3,5.7-21.7l26.9,2.4l-3.7,22.5
		c-1.5,3.7-4.2,8.4-7.4,10.7C219.8,259.7,209.5,262.4,195.8,262.4z"/>
	<path class="st3" d="M211.9,219.3l25.6,2.3l-3.6,21.7c-1.4,3.4-4.1,8.1-7.1,10.4c-7.3,5.5-17.4,8.1-31,8.1c-1.6,0-3.3,0-5-0.1
		c6.1-3.2,11.4-10.3,15.5-21.1C209.7,231.6,211.4,222.4,211.9,219.3 M210.9,218c0,0-6.1,44.3-27.6,44.3c0,0-0.1,0-0.1,0
		c4.3,0.4,8.5,0.7,12.7,0.7c12.2,0,23.5-2.2,31.8-8.3c3.2-2.4,6-7.2,7.6-11l3.8-23.2L210.9,218L210.9,218z"/>
</g>
</svg>
