<?xml version="1.0" encoding="utf-8"?>
<!-- Generator: Adobe Illustrator 19.0.1, SVG Export Plug-In . SVG Version: 6.00 Build 0)  -->
<svg version="1.1" id="Layer_1" xmlns="http://www.w3.org/2000/svg" xmlns:xlink="http://www.w3.org/1999/xlink" x="0px" y="0px"
	 viewBox="0 0 216 342" style="enable-background:new 0 0 216 342;" xml:space="preserve">
<style type="text/css">
	.st0{fill:#F4F4F4;}
	.st1{fill:#42413F;}
	.st2{fill:#C99C73;}
	.st3{fill:#604F3E;}
	.st4{fill:#C99C73;stroke:#000000;stroke-miterlimit:10;}
	.st5{fill:#BFBFBF;}
	.st6{fill:none;stroke:#000000;stroke-miterlimit:10;}
	.st7{fill:#68635D;}
	.st8{fill:#3D3C3C;}
	.st9{fill:#422F1D;}
	.st10{fill:#442749;stroke:#000000;stroke-miterlimit:10;}
	.st11{fill:#E8E8E8;}
	.st12{fill:#231F20;}
	.st13{fill:#FFFFFF;}
	.st14{fill:#B23808;}
	.st15{fill:#00B1E8;}
	.st16{fill:#B23808;stroke:#7C340F;stroke-miterlimit:10;}
	.st17{fill:#7C340F;}
</style>
<path class="st0" d="M85.3,282c-4.2,0.1-8.4,0.1-12.6-0.2c-0.5-4.2,1.6-8.2,4.1-11.7c1.7-2.5,4.1-5.1,7.1-5.1c0.3,0,0.7,0,0.9,0.2
	c0.3,0.3,0.4,0.7,0.4,1.1c0.7,5.5,0.9,11.1,0.7,16.7"/>
<g>
	<path class="st1" d="M169.4,300.8c-0.7,1.6,0.7,3.3,1.1,5c0.4,1.7-0.2,3.5-0.1,5.3c0.1,3.3,2.5,6.2,2.8,9.5
		c0.2,2.4-0.8,4.9-0.1,7.3c0.4,1.3,1.3,2.4,2,3.7c1.6,3.2,1.4,7,1.1,10.5H45c-1.3-4.8,0.8-9.9,2.9-14.4c2.1-4.5,4.5-9.2,4.2-14.2
		c2.9-1,3.3-4.9,3.4-8c0.2-8.1,1.8-16.3,5.3-23.6h105.1c-0.4,3.8-0.7,7.9,0.9,11.4c0.4,0.8,0.9,1.7,1.2,2.5c0.3,0.7,0.4,1.5,0.7,2.2
		c0.5,1.3,1.6,2.6,1.1,3.9"/>
	<path d="M169.4,300.8c-0.3,0.8-0.1,1.7,0.2,2.6c0.3,0.8,0.7,1.6,0.9,2.5c0.4,1.8-0.2,3.6-0.1,5.3c0.1,1.8,0.9,3.4,1.6,5
		c0.4,0.8,0.7,1.6,1,2.5c0.3,0.9,0.4,1.8,0.4,2.7c0,1.8-0.5,3.6-0.3,5.3c0.1,0.9,0.4,1.7,0.8,2.4c0.4,0.8,0.9,1.5,1.4,2.3
		c0.4,0.8,0.7,1.7,0.9,2.6c0.2,0.9,0.3,1.8,0.4,2.7c0.1,1.8,0,3.6-0.2,5.4l0,0.3l-0.3,0l-32.8,0.1c-10.9,0.1-21.8,0.1-32.8,0.1
		L45,342.4l-0.3,0l-0.1-0.3l-0.2-0.9l-0.1-1c-0.1-0.6-0.1-1.3,0-1.9c0.1-1.3,0.3-2.5,0.6-3.8c0.7-2.5,1.7-4.8,2.7-7
		c1.1-2.3,2.1-4.5,3-6.8c0.4-1.2,0.7-2.4,1-3.6c0.1-0.6,0.2-1.2,0.2-1.8c0-0.6,0-1.2,0-1.8l0-0.3L52,313c0.6-0.2,1.1-0.6,1.5-1.1
		c0.4-0.5,0.7-1.1,0.9-1.7c0.4-1.3,0.6-2.7,0.6-4c0.1-1.4,0.1-2.8,0.2-4.2c0.1-1.4,0.3-2.8,0.5-4.2c0.4-2.8,1-5.6,1.8-8.3
		c0.8-2.7,1.8-5.4,3-7.9l0.1-0.2l0.2,0l105.1,0.2l0.1,0l0,0.1c-0.2,1.7-0.3,3.4-0.3,5.2c0,1.7,0.2,3.5,0.8,5.1
		c0.3,0.8,0.6,1.6,1,2.4c0.4,0.8,0.7,1.6,0.9,2.4c0.1,0.4,0.2,0.8,0.4,1.2c0.2,0.4,0.4,0.8,0.6,1.2c0.2,0.4,0.4,0.8,0.5,1.2
		c0.1,0.4,0.1,0.9-0.1,1.3l-0.1,0c0.2-0.4,0.2-0.8,0.1-1.2c-0.1-0.4-0.3-0.8-0.5-1.2c-0.2-0.4-0.4-0.8-0.6-1.2
		c-0.2-0.4-0.3-0.8-0.4-1.2c-0.2-0.8-0.5-1.7-0.9-2.4c-0.4-0.8-0.8-1.6-1.1-2.4c-0.6-1.7-0.8-3.4-0.8-5.1c0-1.7,0.1-3.5,0.3-5.2
		l0.1,0.1l-105.1,0.2l0.3-0.2c-1.2,2.5-2.2,5.1-3,7.8c-0.8,2.7-1.3,5.4-1.7,8.2c-0.2,1.4-0.3,2.8-0.4,4.2c-0.1,1.4-0.1,2.8-0.2,4.2
		c-0.1,1.4-0.2,2.8-0.7,4.2c-0.2,0.7-0.6,1.4-1,2c-0.5,0.6-1.1,1.1-1.9,1.3l0.2-0.4c0,0.6,0,1.3,0,1.9c0,0.6-0.1,1.3-0.2,1.9
		c-0.2,1.3-0.6,2.5-1,3.7c-0.8,2.4-1.9,4.7-3,6.9c-1,2.3-2,4.5-2.7,6.9c-0.3,1.2-0.5,2.4-0.6,3.6c0,0.6,0,1.2,0,1.8l0.1,0.9l0.2,0.9
		l-0.4-0.3l65.5-0.1c10.9,0,21.8,0,32.8,0.1l32.8,0.1l-0.3,0.3c0.2-1.8,0.3-3.5,0.2-5.3c0-0.9-0.2-1.7-0.3-2.6
		c-0.2-0.9-0.5-1.7-0.9-2.5c-0.4-0.8-0.9-1.5-1.3-2.3c-0.4-0.8-0.8-1.7-0.9-2.6c-0.2-1.8,0.3-3.6,0.3-5.3c0.1-1.7-0.6-3.4-1.2-5.1
		c-0.3-0.8-0.7-1.6-1-2.5c-0.3-0.8-0.5-1.8-0.5-2.6c-0.1-1.8,0.5-3.6,0.2-5.3c-0.2-0.9-0.6-1.7-0.9-2.5
		C169.2,302.6,169,301.6,169.4,300.8L169.4,300.8z"/>
</g>
<g>
	<path class="st2" d="M56.1,247.7c-2,1.1-3.6,2.6-5.3,4.1c-2.3,2.2-4.7,4.5-5.9,7.5c-0.4,1-0.7,2-0.6,3c0.2,2.9,3,5,4.5,7.5
		c1.2,2,1.7,4.7,3.8,5.7c1.9-4.1,3.4-8.3,4.8-12.5c1.8-5.2,3.7-10.6,3.5-16.1c0-0.7-0.1-1.4-0.6-1.8c-0.6-0.6-1.7-0.5-2.3,0
		c-0.7,0.5-1.1,1.3-1.5,2.1"/>
	<path d="M56.2,247.8c-1.3,0.7-2.4,1.6-3.5,2.6c-1.1,1-2.2,2-3.2,3c-1,1-2,2.1-2.8,3.4c-0.8,1.2-1.5,2.5-1.8,3.9
		c-0.2,0.7-0.2,1.4-0.1,2.1c0.1,0.7,0.4,1.3,0.7,2c0.7,1.2,1.7,2.3,2.6,3.5c0.5,0.6,0.9,1.2,1.3,1.9c0.4,0.7,0.7,1.3,1,2
		c0.6,1.3,1.3,2.6,2.6,3.2l-0.5,0.2c1.3-2.8,2.3-5.7,3.4-8.6l1.5-4.4c0.5-1.5,1-2.9,1.5-4.4c0.9-2.9,1.7-5.9,1.9-9
		c0.1-0.8,0.1-1.5,0.1-2.3c0-0.7-0.1-1.5-0.8-1.8c-0.6-0.3-1.4-0.1-2,0.3c-0.6,0.5-1,1.2-1.3,1.8l-0.1,0c0.3-0.7,0.6-1.4,1.2-2
		c0.6-0.6,1.5-0.9,2.3-0.5c0.4,0.2,0.7,0.5,0.9,1c0.2,0.4,0.2,0.8,0.2,1.2c0,0.8,0.1,1.6,0,2.4c0,1.6-0.3,3.1-0.6,4.7
		c-0.3,1.5-0.7,3.1-1.1,4.5c-0.9,3-2,5.9-3,8.8c-1.1,2.9-2.2,5.8-3.6,8.6l-0.2,0.4l-0.4-0.2c-0.7-0.4-1.3-0.9-1.8-1.6
		c-0.4-0.6-0.8-1.3-1.1-2c-0.3-0.7-0.6-1.4-0.9-2c-0.3-0.6-0.7-1.2-1.2-1.8c-0.9-1.2-1.9-2.3-2.6-3.6c-0.4-0.7-0.7-1.4-0.8-2.2
		c-0.1-0.8,0-1.5,0.2-2.3c0.4-1.5,1.1-2.8,2-4c0.9-1.2,1.9-2.3,2.9-3.3c1.1-1,2.1-2,3.3-3C53.6,249.3,54.8,248.4,56.2,247.8
		L56.2,247.8z"/>
</g>
<g>
	<path class="st3" d="M147.8,105.1c5,9.5,13,17.4,22.6,22.4c7.8,4.1,17.1,6.8,21.4,14.4c1.5,2.8,2.2,5.9,2.8,9
		c1.7,8.6,2.7,17.3,3.8,26.1c2.4,19.9,4.9,39.9,7.3,59.8c0.8,6.9,1.7,13.8,1.1,20.7c-0.6,6.8-3.3,14.3-9.6,16.9
		c-3.6,1.4-7.7,1-11.5,0.5c-6.2-0.8-12.4-1.6-18.6-2.4c1.7,9.3,3.5,18.6,5.2,28c-19.1,6.4-39.3,9.9-59.5,10.2
		c-5,0.1-10.2-0.1-14.9-2.1c-7.1-3.1-11.8-10.2-13.8-17.7c-2-7.5-1.8-15.4-1.5-23.1c-8,7.2-9.1,19.1-12.7,29.3
		c-1.3,3.7-3.6,7.8-7.5,8.3c-3.6,0.5-6.7-2.3-9.3-4.9c-1.7-1.7-3.5-3.6-3.8-5.9c-0.2-1.3,0-2.7,0.3-4c2.4-12.6,4.7-25.3,7.1-37.9
		c2.7-14.5,5.4-29.2,3.5-43.8c-1.4-10.6-5.1-21.6-1.6-31.7c-8.3,1.8-15.3,8.3-17.8,16.4c-3.6,0-6.5,4.5-4.8,7.8
		c0.7,1.5,2.1,2.5,3,3.9c3,4.3,1.2,10.5,3.6,15.1c1.9,3.6,6.2,5.6,7.6,9.4c1.6,4.2-0.2,10.4,3.9,12.4c1.5,0.7,3.7,0.7,4.4,2.3
		c0.8,1.8-1.3,3.4-2.9,4.4c-6.2,3.9-10.6,10.3-12.2,17.5C26.7,245.6,14.5,221.6,8.1,196c-0.8-3.1-1.4-6.2-0.8-9.3
		c0.6-3.1,2.9-6.1,6-6.6c0.1-1.6,0.1-3.3,0.2-4.9c3.5-2.5,6.9-5.1,10.4-7.6c2.8-2,5.9-4.9,5-8.2c9.2-2.4,13.5-12.7,20.4-19.1
		c2.3-2.1,5-3.9,6.9-6.4c3.1-4.2,3.7-10.1,7.5-13.7c2.8-2.7,6.9-3.6,10.7-4.3c23.8-4.7,47.7-9.5,72-9.9"/>
	<path d="M147.9,105c2.2,4.1,5,8,8.2,11.4c3.2,3.4,6.9,6.4,10.9,8.8c4,2.5,8.4,4.2,12.6,6.3c4.2,2,8.5,4.5,11.4,8.4
		c1.5,1.9,2.4,4.2,3,6.5c0.6,2.3,1,4.6,1.5,7c0.8,4.6,1.5,9.3,2.2,14c1.2,9.3,2.4,18.7,3.5,28l3.5,28l1.8,14
		c0.6,4.7,1.1,9.4,1.2,14.2c0,2.4,0,4.8-0.3,7.1c-0.3,2.4-0.8,4.8-1.7,7.1c-0.9,2.3-2.1,4.4-3.9,6.3c-0.9,0.9-1.9,1.7-3,2.3
		c-1.1,0.6-2.3,1.1-3.5,1.3c-2.5,0.5-4.9,0.4-7.3,0.2c-2.4-0.3-4.7-0.6-7-0.9l-14-1.8l1.1-1.1l5.2,27.9l0.2,0.9l-0.8,0.3l-3.7,1.2
		l-3.7,1.1l-3.7,1l-3.7,1c-2.5,0.6-5,1.2-7.5,1.7c-2.5,0.5-5,1-7.5,1.4c-2.5,0.4-5.1,0.8-7.6,1.1c-2.5,0.3-5.1,0.6-7.6,0.8
		c-2.5,0.2-5.1,0.4-7.7,0.6c-2.6,0.1-5.1,0.2-7.7,0.3c-2.6,0-5.2,0-7.8-0.3c-2.6-0.3-5.2-1-7.6-2.1c-2.4-1.1-4.6-2.8-6.4-4.7
		c-1.8-1.9-3.3-4.1-4.6-6.4c-1.2-2.3-2.2-4.8-2.8-7.3c-0.6-2.5-1.1-5.1-1.3-7.7c-0.5-5.2-0.3-10.3-0.1-15.4l1.6,0.7
		c-1.3,1.2-2.5,2.6-3.5,4.1c-1,1.5-1.9,3.1-2.6,4.8c-1.5,3.4-2.5,7-3.5,10.6c-1,3.6-2,7.3-3.4,10.9c-0.8,1.8-1.7,3.6-3.2,5
		c-0.7,0.7-1.6,1.4-2.6,1.8c-1,0.4-2.1,0.6-3.1,0.6c-2.2-0.1-4.1-1.2-5.6-2.4c-1.6-1.2-2.9-2.6-4.2-4c-1.3-1.4-2.6-3.1-3-5.3
		c-0.2-1.1-0.1-2.1,0.1-3.1c0.2-1,0.3-1.9,0.5-2.8l4.2-22.2c1.4-7.4,2.8-14.8,4.1-22.2c1.3-7.4,2.4-14.9,2.6-22.4
		c0.1-3.7,0-7.5-0.3-11.2c-0.4-3.7-1.1-7.4-1.7-11.1c-0.7-3.7-1.3-7.5-1.4-11.3c-0.1-1.9,0-3.8,0.2-5.8c0.2-1.9,0.7-3.8,1.3-5.7
		l0.8,0.9l-1.5,0.4l-1.5,0.5l-1.4,0.6l-1.4,0.7l-1.3,0.8l-1.3,0.8l-1.2,0.9l-1.2,1l-1.1,1.1l-1,1.1l-1,1.2l-0.9,1.3l-0.8,1.3
		l-0.7,1.4l-0.6,1.4l-0.5,1.5l-0.2,0.5l-0.5,0c-1.6,0-3.1,1.1-4,2.5c-0.8,1.5-1,3.3-0.1,4.7c0.4,0.7,1.1,1.4,1.7,2.1
		c0.3,0.4,0.6,0.7,0.9,1.1c0.3,0.5,0.5,0.8,0.8,1.3c0.9,1.9,1.2,3.8,1.4,5.7c0.2,1.9,0.3,3.7,0.6,5.5c0.2,0.9,0.4,1.7,0.8,2.5
		l0.1,0.3l0.1,0.1l0.1,0.2c0.1,0.2,0.2,0.4,0.4,0.6c0.2,0.3,0.5,0.7,0.8,1c1.2,1.4,2.6,2.6,3.9,4c0.7,0.7,1.3,1.5,1.8,2.3
		c0.5,0.9,0.9,1.8,1.1,2.8c0.4,1.9,0.4,3.8,0.6,5.6c0.2,1.8,0.6,3.7,1.9,4.7c0.1,0.1,0.3,0.2,0.5,0.3c0.1,0,0.2,0.1,0.3,0.1
		c0.1,0,0.2,0.1,0.3,0.1c0.4,0.1,0.8,0.3,1.3,0.4c0.5,0.1,0.9,0.3,1.4,0.5c0.5,0.2,1,0.5,1.3,1c0.1,0.1,0.2,0.3,0.2,0.4l0.1,0.1
		l0,0.1l0.1,0.2c0,0.1,0.1,0.3,0.1,0.5c0,0.2,0,0.3,0,0.5c0,0.6-0.3,1.1-0.6,1.6c-0.6,0.9-1.4,1.5-2.2,2c-1.6,1-3,2.1-4.4,3.3
		c-1.3,1.2-2.6,2.6-3.6,4.1c-2.1,3-3.7,6.4-4.5,10l-0.2,1.1l-0.7-0.9c-1.3-1.6-2.6-3.2-3.8-4.8c-1.2-1.6-2.5-3.3-3.6-4.9
		c-1.2-1.7-2.3-3.4-3.5-5.1c-1.2-1.7-2.2-3.4-3.3-5.2c-1-1.8-2.1-3.5-3.1-5.3c-1-1.8-2-3.6-2.9-5.4l-1.4-2.7l-1.3-2.8
		c-0.9-1.8-1.7-3.7-2.6-5.6c-0.8-1.9-1.6-3.8-2.4-5.7c-0.7-1.9-1.5-3.8-2.2-5.7l-1-2.9l-0.9-2.9c-0.7-1.9-1.2-3.9-1.8-5.9
		c-0.6-2-1.1-3.9-1.6-5.9c-0.5-2-0.9-4-0.9-6.1c0-2.1,0.4-4.3,1.5-6.1c1.1-1.8,2.9-3.3,5.1-3.7l-0.3,0.4l0.2-4.9l0-0.2l0.1-0.1
		l9.3-6.8c1.6-1.1,3.1-2.2,4.3-3.7c0.3-0.4,0.6-0.7,0.8-1.1c0.2-0.4,0.5-0.8,0.6-1.2c0.1-0.4,0.3-0.9,0.3-1.3c0-0.4,0-0.9-0.1-1.3
		l-0.1-0.3l0.3-0.1c2.7-0.7,5.2-2.2,7.3-4.1c2.1-1.9,3.9-4.1,5.7-6.4c1.8-2.3,3.5-4.5,5.5-6.7c1-1.1,2-2.1,3.1-3
		c1.1-0.9,2.2-1.8,3.3-2.8c1.1-1,2-2,2.8-3.2c0.8-1.2,1.4-2.5,1.9-3.8c1.1-2.6,2.1-5.4,3.9-7.7c0.9-1.2,2-2.2,3.3-2.9
		c1.3-0.8,2.6-1.3,4-1.7c2.8-0.8,5.6-1.3,8.4-1.8c11.3-2.2,22.6-4.4,34-6c5.7-0.8,11.4-1.5,17.1-2.1c2.9-0.3,5.7-0.5,8.6-0.6
		l4.3-0.2l4.3-0.1l0,0.2l-4.3,0.1l-4.3,0.2c-2.9,0.2-5.7,0.4-8.6,0.7c-5.7,0.5-11.4,1.3-17.1,2.1c-11.4,1.7-22.7,3.9-33.9,6.2
		c-2.8,0.6-5.7,1-8.4,1.9c-2.7,0.8-5.3,2.2-7,4.5c-1.7,2.2-2.6,5-3.8,7.7c-0.6,1.3-1.2,2.6-2,3.9c-0.8,1.2-1.8,2.3-2.8,3.3
		c-1.1,1-2.2,1.9-3.3,2.8c-1.1,0.9-2.1,1.9-3.1,3c-1.9,2.1-3.7,4.4-5.5,6.6c-1.8,2.3-3.6,4.5-5.7,6.5c-2.2,1.9-4.7,3.5-7.6,4.3
		l0.2-0.4c0.1,0.5,0.2,1,0.2,1.5c0,0.5-0.1,1-0.3,1.5c-0.2,0.5-0.4,0.9-0.7,1.4c-0.3,0.4-0.6,0.8-0.9,1.2c-1.3,1.5-2.9,2.7-4.4,3.8
		l-9.3,6.8l0.2-0.3l-0.2,4.9l0,0.3l-0.3,0.1c-1.9,0.3-3.5,1.6-4.5,3.3c-1,1.7-1.4,3.7-1.4,5.6c0,2,0.5,4,0.9,5.9
		c0.5,2,1,3.9,1.6,5.9c0.6,1.9,1.1,3.9,1.8,5.8l1,2.9l1,2.9c0.7,1.9,1.4,3.8,2.2,5.7c0.8,1.9,1.6,3.8,2.4,5.6
		c0.9,1.8,1.7,3.7,2.6,5.5l1.3,2.7l1.4,2.7c0.9,1.8,1.9,3.6,2.9,5.3c1,1.8,2.1,3.5,3.1,5.2c1.1,1.7,2.1,3.5,3.3,5.1
		c1.1,1.7,2.3,3.4,3.5,5c1.2,1.7,2.4,3.3,3.6,4.9c1.2,1.6,2.5,3.2,3.8,4.8l-0.9,0.2c0.8-3.7,2.4-7.3,4.6-10.4c1.1-1.6,2.4-3,3.8-4.3
		c1.4-1.3,3-2.5,4.5-3.5c0.7-0.5,1.4-1.1,1.9-1.7c0.2-0.3,0.4-0.7,0.4-1c0-0.2,0-0.3,0-0.5l-0.1-0.2c0,0,0-0.1,0,0l0-0.1
		c0-0.1-0.1-0.2-0.1-0.2c-0.8-1.2-3.2-0.9-4.9-2.3c-0.8-0.7-1.4-1.6-1.7-2.6c-0.3-1-0.5-1.9-0.6-2.9c-0.2-1.9-0.2-3.8-0.6-5.5
		c-0.3-1.8-1.3-3.2-2.6-4.5c-1.2-1.3-2.7-2.5-4-4c-0.3-0.4-0.6-0.8-0.9-1.2c-0.1-0.2-0.2-0.4-0.4-0.6l-0.1-0.2l-0.1-0.2l-0.2-0.3
		c-0.4-0.9-0.7-1.8-0.9-2.8c-0.4-1.9-0.5-3.8-0.7-5.6c-0.2-1.8-0.5-3.7-1.3-5.2c-0.7-1.6-2.3-2.7-3.4-4.4c-0.5-0.9-0.8-2-0.8-3
		c0-1.1,0.4-2.1,0.9-3c1-1.8,2.9-3.2,5.1-3.2l-0.6,0.5l0.5-1.5l0.6-1.5l0.7-1.5l0.8-1.4l0.9-1.3l1-1.3l1.1-1.2l1.2-1.1l1.2-1.1
		l1.3-1l1.4-0.9l1.4-0.8l1.5-0.7l1.5-0.6l1.5-0.5l1.6-0.4l1.2-0.3l-0.4,1.2c-0.6,1.7-1,3.5-1.2,5.4c-0.2,1.8-0.3,3.7-0.2,5.5
		c0.2,3.7,0.8,7.4,1.5,11.1c0.7,3.7,1.4,7.4,1.8,11.2c0.4,3.8,0.5,7.6,0.4,11.4c-0.2,7.6-1.3,15.1-2.6,22.6
		c-1.3,7.4-2.7,14.8-4.1,22.3l-4.1,22.3c-0.3,1.9-0.8,3.7-0.6,5.3c0.2,1.6,1.3,3.1,2.5,4.4c1.3,1.3,2.6,2.7,4,3.8
		c1.4,1.1,3,1.9,4.6,2c1.7,0.1,3.2-0.6,4.4-1.9c1.2-1.2,2.1-2.8,2.8-4.5c1.3-3.4,2.3-7.1,3.3-10.7c1-3.6,2-7.3,3.6-10.9
		c0.7-1.8,1.7-3.5,2.8-5.1c1.1-1.6,2.4-3.1,3.8-4.5l1.7-1.6l-0.1,2.3c-0.2,5.1-0.3,10.1,0.2,15.1c0.2,2.5,0.6,4.9,1.3,7.4
		c0.6,2.4,1.5,4.7,2.7,6.9c1.2,2.2,2.6,4.2,4.3,6c1.7,1.8,3.6,3.2,5.9,4.3c2.2,1.1,4.6,1.6,7,1.9c2.5,0.3,5,0.3,7.5,0.3
		c2.5,0,5.1-0.1,7.6-0.3c2.5-0.1,5.1-0.3,7.6-0.5c2.5-0.2,5-0.5,7.5-0.8c2.5-0.3,5-0.7,7.5-1.1c2.5-0.4,5-0.9,7.5-1.4
		c2.5-0.5,4.9-1.1,7.4-1.7l3.7-1l3.7-1l3.6-1.1l3.6-1.2l-0.7,1.1l-5.2-28l-0.2-1.3l1.3,0.2l14,1.9c2.3,0.3,4.7,0.6,7,0.9
		c2.3,0.2,4.6,0.3,6.8-0.1c2.2-0.4,4.1-1.5,5.7-3.1c1.5-1.6,2.7-3.5,3.5-5.7c0.8-2.1,1.4-4.4,1.7-6.6c0.3-2.3,0.4-4.6,0.3-7
		c0-4.7-0.6-9.3-1.1-14l-1.7-14l-3.3-28.1c-1.1-9.3-2.2-18.7-3.4-28c-0.6-4.7-1.3-9.3-2.1-13.9c-0.8-4.6-1.5-9.4-4.3-13.1
		c-2.7-3.8-6.8-6.2-11-8.3c-4.2-2.1-8.6-3.9-12.6-6.4c-4-2.5-7.7-5.6-10.9-9.1c-3.2-3.5-6-7.4-8.2-11.5L147.9,105z"/>
</g>
<path class="st4" d="M109.3,88.8c1.6,6.7,1.5,13.8-0.3,20.4c-0.5,2-3.9,3.5-3.6,5.5c0.6,4.7-8.8,10.5-5.5,14.2
	c1.6,1.9,3.7,19.2,4.2,21.5c4.3-6.5,21-12.8,32-28.2c2.8-1.9,9.1-11.4,9.3-14.7c0.5-8,3.4-19.6,3.4-24.6c0-0.6,1.3-1.5,0.8-2
	c-0.7-0.8-5.5,1.6-6.5,1.2c-10.4-3.4-21.2,4.6-32.1,4.8c-0.2,0.8-0.4,1.6-0.7,2.3"/>
<path class="st0" d="M94.3,127.2c-3.4,3.1-6,6.9-7.7,11.1c-1.2,3-1.9,6.1-2.6,9.2c-2.5,11.2-4.8,22.4-7,33.6c-0.5,2.8-1,5.5-1.1,8.3
	c-0.2,6.9,2.2,13.9,6.7,19.2c1.6-4.8,4.7-9,7.7-13.1c2-2.7,4-5.4,5.9-8c1.3-1.8,2.6-3.6,4.2-5.1c1.9-1.9,4.1-3.6,6-5.5
	c2.3-2.4,4.1-5.2,6.1-7.7c1.6-2,3.4-3.8,4.7-6c1-1.6,1.8-3.4,2.6-5.2c3-6.8,5.8-13.7,8.4-20.6c0.3-0.9,0.7-1.9,0.6-2.9
	c-0.1-1-0.7-2-1.7-2.1c-1.7-0.2-2.6,2-4,3c-0.8,0.5-1.7,1.1-2.6,1.2c-3.7,0.4-8.1,0.4-10,3.6c-0.8,1.3-1,2.9-2,4.1
	c-1.2,1.3-2.5,3.1-3.5,3.8c-0.5-3.5-1-7-1.6-10.5c-0.1-0.7-0.2-1.5-0.7-2c-0.6-0.7-1.7-0.9-2.6-1.2c-2.6-0.9-4.5-3.5-4.6-6.3"/>
<g>
	<path class="st5" d="M100.8,159c0.1-2,0.5-3.9,1-5.8c0.3-1,0.6-1.9,1-2.8c0.2-0.5,0.5-0.9,0.8-1.3c0.3-0.4,0.8-0.7,1.4-0.9
		l-0.1,0.1c1.6-1.6,2.9-3.3,4.1-5.2c0.6-0.9,1.2-1.9,1.6-2.9c0.2-0.5,0.5-1,0.8-1.5c0.1-0.1,0.2-0.3,0.3-0.4l0.1-0.1l0.1-0.1
		l0.2-0.1c0.3-0.2,0.6-0.4,0.8-0.5c1.2-0.5,2.4-0.4,3.5-0.4c0.6,0,1.1,0.1,1.6,0.1c0.5,0,1.1,0,1.6-0.1c0.5-0.1,1.1-0.1,1.6-0.2
		c0.5-0.1,1.1-0.2,1.5-0.4c0.5-0.2,1-0.5,1.3-0.9c0.4-0.4,0.6-0.9,0.6-1.4l0.1,0c0.1,0.6,0,1.2-0.4,1.7c-0.4,0.5-0.8,0.8-1.4,1.1
		c-0.5,0.3-1.1,0.5-1.6,0.6c-0.5,0.2-1.1,0.3-1.7,0.4c-1.1,0.2-2.3,0.2-3.4,0.2c-1.1,0-2.2,0-3.1,0.3c-0.2,0.1-0.4,0.2-0.6,0.3
		l-0.2,0.1c0,0-0.1,0.1-0.1,0l-0.1,0.1c-0.1,0.1-0.2,0.2-0.2,0.3c-0.3,0.4-0.5,0.9-0.8,1.4c-0.5,1-1.2,2-1.8,2.9
		c-1.3,1.9-2.7,3.6-4.4,5.2l-0.1,0.1l-0.1,0c-0.9,0.2-1.5,1-1.9,1.8c-0.4,0.9-0.7,1.8-1,2.7C101.5,155.1,101.1,157,100.8,159
		L100.8,159z"/>
</g>
<path class="st6" d="M104.8,111.2c-6.7,8.5-12.3,17.9-16.4,27.9c-4.4,10.7-7.1,22-9.7,33.3c-2.8,12.7-4.9,27.5,3.6,37.4
	c2.2-5.6,6-10.5,9.8-15.2c6-7.5,11.9-15,17.9-22.5c3.3-4.1,6.6-8.3,9-13c1.5-2.9,2.6-5.9,4-8.8c7.6-15.7,23-28.3,24.4-45.7"/>
<g>
	<path class="st7" d="M105.6,108.4c-3.7,2.2-7.4,4.4-11.1,6.6c-3.7,2.2-7.5,4.5-10,8c1.5,1,3.1,2.1,4.6,3.1
		c-1.5,0.9-2.9,1.7-4.4,2.6c-1,0.6-1.9,1.2-2.6,2c-0.9,1.1-1.2,2.5-1.6,3.9c-2.3,9.9-3.4,20.1-3.3,30.3c0,4-0.1,8-0.7,11.9
		c-0.7,4.7-1.9,9.3-1.5,14c0.4,5.8,3.2,11,5.9,16.1c-3.4-4.5-4.2-10.5-4.2-16.2c0.1-10.1,2.7-20.1,5.3-29.9c0.6-2.4,1.3-4.9,1.9-7.3
		c0.5-2.1,1.1-4.2,1.7-6.3c2.4-8.2,6.1-16.1,10.7-23.3c2.8-4.3,5.9-9.2,8.9-13.4c0.4-0.5,0.7-1,0.8-1.6c0.1-0.6,1.1-0.8,0.5-1"/>
	<path class="st8" d="M105.6,108.5l-11,6.7c-1.8,1.1-3.7,2.2-5.4,3.5c-1.7,1.3-3.3,2.7-4.5,4.5l-0.1-0.4l4.7,3.1l0.4,0.3l-0.5,0.3
		l-4.6,2.8c-0.8,0.5-1.5,0.9-2.1,1.6c-0.6,0.6-0.9,1.4-1.2,2.2c-0.3,0.8-0.4,1.7-0.6,2.6l-0.5,2.6c-0.3,1.8-0.6,3.5-0.9,5.3
		c-0.5,3.6-1,7.1-1.2,10.7c-0.3,3.6-0.4,7.2-0.3,10.8c0,3.6-0.1,7.3-0.5,10.9c-0.4,3.6-1.3,7.1-1.6,10.7c-0.2,1.8-0.2,3.5,0,5.3
		c0.2,1.7,0.6,3.5,1.2,5.2c1.1,3.4,2.8,6.6,4.5,9.8l-0.6,0.4c-1.4-1.8-2.3-3.9-3-6.1c-0.6-2.2-1-4.4-1.1-6.6c-0.2-2.2-0.1-4.5,0-6.7
		c0.1-2.2,0.4-4.4,0.7-6.7c0.6-4.4,1.6-8.8,2.7-13.1c1.1-4.3,2.2-8.6,3.4-12.9c0.6-2.2,1.2-4.3,1.8-6.4c0.6-2.2,1.3-4.3,2-6.4
		c1.5-4.2,3.4-8.3,5.5-12.2c2.1-3.9,4.6-7.6,7-11.3c1.2-1.9,2.4-3.7,3.7-5.5l1.9-2.7c0.3-0.5,0.7-0.9,0.8-1.4c0-0.1,0-0.3,0.1-0.4
		c0.1-0.1,0.2-0.3,0.3-0.4c0.1-0.1,0.2-0.2,0.3-0.3c0.1-0.1,0.1-0.1-0.1-0.2l0-0.1c0.1,0,0.1,0,0.2,0.1c0,0.1-0.1,0.2-0.1,0.2
		c-0.1,0.1-0.2,0.2-0.3,0.3c-0.2,0.2-0.3,0.4-0.3,0.7c-0.2,0.6-0.5,1-0.8,1.5l-1.9,2.7c-1.2,1.8-2.5,3.7-3.7,5.6
		c-2.4,3.7-4.9,7.4-6.9,11.4c-2.1,3.9-3.9,8-5.4,12.2c-0.7,2.1-1.4,4.2-2,6.3c-0.6,2.2-1.2,4.3-1.7,6.4c-2.2,8.6-4.6,17.2-5.9,26
		c-0.3,2.2-0.5,4.4-0.6,6.6c-0.1,2.2-0.2,4.4,0,6.6c0.2,2.2,0.5,4.4,1.1,6.5c0.6,2.1,1.6,4.1,2.9,5.8l-0.6,0.4
		c-1.7-3.2-3.4-6.4-4.6-9.9c-0.6-1.7-1-3.5-1.3-5.3c-0.2-1.8-0.2-3.7-0.1-5.5c0.3-3.6,1.2-7.2,1.6-10.7c0.4-3.6,0.5-7.1,0.5-10.7
		c0-3.6,0.1-7.2,0.3-10.9c0.3-3.6,0.7-7.2,1.3-10.8c0.3-1.8,0.6-3.6,1-5.3l0.6-2.7c0.2-0.9,0.4-1.8,0.7-2.7c0.3-0.9,0.7-1.8,1.4-2.5
		c0.7-0.7,1.5-1.2,2.3-1.7l4.7-2.7l0,0.6l-4.6-3.2l-0.3-0.2l0.2-0.3c1.3-1.8,2.9-3.3,4.7-4.5c1.8-1.3,3.6-2.4,5.5-3.5L105.6,108.5
		L105.6,108.5z"/>
</g>
<g>
	<path class="st9" d="M65.4,123.8c0,0-0.2,0.8-0.6,2.3c-0.5,1.4-1.2,3.4-1.8,5.9c-0.7,2.5-1.4,5.4-2,8.5c-0.3,1.6-0.5,3.2-0.8,4.9
		c-0.2,1.7-0.4,3.3-0.5,5.1c-0.2,3.4-0.5,6.8-0.6,10c-0.1,1.6-0.2,3.1-0.3,4.6c-0.1,1.5-0.1,2.8-0.1,4.1c0,1.3,0,2.4,0,3.5
		c0,1,0.1,1.9,0.1,2.7c0,0.7,0.1,1.3,0.1,1.7c0,0.4,0,0.6,0,0.6l-0.1,0c0,0,0-0.2-0.1-0.6c-0.1-0.4-0.2-1-0.3-1.7
		c-0.2-1.5-0.4-3.6-0.5-6.2c0-1.3,0-2.7,0-4.2c0-1.5,0.1-3,0.2-4.6c0.2-3.2,0.5-6.6,0.9-10c0.1-1.7,0.3-3.4,0.6-5.1
		c0.3-1.7,0.6-3.3,0.9-4.9c0.7-3.1,1.4-6,2.2-8.5c0.8-2.5,1.5-4.5,2-5.9C65.1,124.6,65.3,123.8,65.4,123.8L65.4,123.8z"/>
</g>
<g>
	<path class="st7" d="M146.3,103.3c3.8,2.9,7.3,7.7,10.3,11.5c2.3,2.8,4.5,6,4.8,9.6c0.3,3.6-2.1,7.7-5.7,7.8
		c-1.4,0.1-2.7-0.4-4.1-0.3c-1.4,0.1-2.8,1.3-2.4,2.6c0.3,1,1.5,1.5,2.2,2.3c1.3,1.6,0.1,3.9-1.1,5.6c-4.2,5.9-8.4,11.9-12.6,17.8
		c-1,1.5-2.1,2.9-3.2,4.4c-3.3,4.3-7,8.2-10.7,12.2c-10.6,11.1-22.1,22.6-36.8,27c3.4-6.2,6.9-12.3,10.3-18.5c1-1.8,2-3.5,3.3-5
		c0.9-1,1.9-1.8,2.8-2.7c7-6.2,12.6-14,16.4-22.5c0.9-2.1,1.8-4.2,2.8-6.3c3.2-6.6,7.9-12.3,11.9-18.4
		C139.5,122.4,145.5,108.5,146.3,103.3"/>
	<path class="st8" d="M146.3,103.2c2.4,1.8,4.4,4.1,6.4,6.4c1,1.2,1.9,2.3,2.8,3.5c0.9,1.2,1.9,2.3,2.8,3.5c1.8,2.4,3.3,5.2,3.4,8.4
		c0,1.6-0.5,3.1-1.3,4.4c-0.8,1.3-2.1,2.4-3.6,2.9c-1.6,0.5-3.2-0.1-4.6-0.1c-0.7,0-1.4,0.1-1.9,0.5c-0.5,0.4-0.9,1-0.8,1.5
		c0.1,0.6,0.7,1,1.3,1.5c0.3,0.2,0.6,0.5,0.9,0.9c0.2,0.3,0.4,0.7,0.5,1.2c0.2,0.9,0,1.7-0.3,2.4c-0.3,0.7-0.7,1.4-1.1,2.1l-5.2,7.4
		l-5.2,7.4c-1.7,2.5-3.5,4.9-5.3,7.3c-1.8,2.4-3.8,4.7-5.8,7c-2,2.2-4.1,4.4-6.2,6.6c-2.1,2.2-4.2,4.3-6.3,6.4
		c-2.2,2.1-4.4,4.2-6.6,6.1c-2.3,2-4.6,3.9-7.1,5.6c-2.5,1.7-5,3.3-7.8,4.7c-2.7,1.4-5.5,2.5-8.4,3.4l-0.9,0.3l0.5-0.8l7.2-12.8
		l3.6-6.4c0.6-1.1,1.2-2.1,2-3.1c0.7-1,1.6-1.9,2.5-2.7c1.8-1.6,3.6-3.3,5.3-5.1c1.7-1.8,3.3-3.6,4.7-5.6c2.9-3.9,5.5-8.1,7.5-12.5
		c1-2.2,1.9-4.5,3-6.7c1.1-2.2,2.3-4.3,3.7-6.4c2.7-4.1,5.7-8,8.4-12.1c2.7-4.1,4.9-8.5,6.9-12.9c1-2.2,2-4.5,2.9-6.8
		c0.9-2.3,1.7-4.6,2.2-7l0.1,0c-0.5,2.4-1.3,4.7-2.1,7c-0.9,2.3-1.8,4.6-2.8,6.8c-2,4.5-4.2,8.9-6.9,13c-2.7,4.1-5.6,8-8.3,12.1
		c-1.3,2.1-2.5,4.2-3.6,6.4c-1.1,2.2-1.9,4.5-2.9,6.7c-2,4.5-4.6,8.7-7.5,12.7c-1.5,2-3.1,3.9-4.7,5.6c-1.7,1.8-3.5,3.5-5.3,5.1
		c-1.8,1.6-3.2,3.6-4.3,5.8l-3.6,6.4l-7.1,12.9l-0.4-0.5c2.8-0.9,5.6-2,8.3-3.4c2.7-1.3,5.2-3,7.6-4.7c2.4-1.7,4.8-3.6,7-5.6
		c2.3-2,4.4-4,6.6-6.1c2.1-2.1,4.2-4.3,6.3-6.4c2.1-2.2,4.1-4.3,6.1-6.6c2-2.2,3.9-4.5,5.7-6.9c1.8-2.4,3.5-4.9,5.3-7.3l10.5-14.7
		c0.8-1.2,1.5-2.6,1.3-3.9c-0.1-0.3-0.2-0.5-0.4-0.9c-0.2-0.2-0.4-0.5-0.7-0.7c-0.3-0.2-0.6-0.5-0.9-0.8c-0.3-0.3-0.6-0.7-0.6-1.2
		c-0.1-0.5,0-1,0.2-1.3c0.2-0.4,0.5-0.7,0.9-0.9c0.7-0.5,1.6-0.7,2.4-0.6c1.6,0.1,3,0.6,4.4,0.2c1.4-0.3,2.5-1.3,3.3-2.6
		c0.8-1.2,1.2-2.7,1.2-4.1c0-2.9-1.5-5.7-3.2-8.1c-0.9-1.2-1.8-2.4-2.7-3.6c-0.9-1.2-1.8-2.4-2.8-3.6
		C150.6,107.4,148.6,105.2,146.3,103.2L146.3,103.2z"/>
</g>
<g>
	<path class="st9" d="M29.5,159.2c0,0,0.1,0.3,0.5,0.4c0.4,0.1,1,0.1,1.7,0.3c1.4,0.3,3.3,0.9,5,1.6c0.4,0.2,0.9,0.4,1.3,0.6
		c0.4,0.2,0.9,0.4,1.3,0.6c0.5,0.2,0.8,0.4,1.2,0.6c0.4,0.2,0.7,0.4,1,0.6c0.6,0.4,1.1,0.7,1.5,1c0.3,0.2,0.5,0.4,0.5,0.4
		s-0.2-0.1-0.6-0.2c-0.4-0.2-1-0.3-1.6-0.6c-0.3-0.1-0.7-0.3-1.1-0.5c-0.4-0.1-0.8-0.4-1.2-0.5c-0.4-0.2-0.9-0.3-1.3-0.5
		c-0.4-0.2-0.9-0.3-1.3-0.5c-1.8-0.7-3.5-1.5-4.8-2c-0.7-0.3-1.2-0.4-1.6-0.6C29.5,159.5,29.5,159.2,29.5,159.2z"/>
</g>
<g>
	<path class="st9" d="M39,151.2c0,0,0,0.2,0.1,0.5c0.1,0.3,0.3,0.8,0.7,1.2c0.2,0.2,0.4,0.5,0.6,0.7c0.2,0.2,0.5,0.5,0.7,0.7
		c0.3,0.2,0.6,0.5,0.9,0.7c0.3,0.2,0.6,0.5,1,0.7c0.6,0.5,1.3,0.9,1.9,1.4c0.6,0.5,1.2,0.9,1.6,1.4c0.4,0.4,0.8,0.9,1,1.2
		c0.2,0.3,0.3,0.5,0.3,0.5s-0.2-0.1-0.4-0.3c-0.3-0.2-0.7-0.5-1.2-0.8c-1-0.7-2.4-1.5-3.7-2.4c-0.7-0.5-1.3-1-1.9-1.6
		c-0.3-0.3-0.5-0.6-0.7-0.9c-0.2-0.3-0.4-0.6-0.5-0.9c-0.3-0.6-0.4-1.1-0.4-1.5C38.9,151.4,39,151.2,39,151.2z"/>
</g>
<g>
	<path class="st9" d="M45.3,143.8c0,0,0,0.2,0.2,0.6c0.2,0.3,0.5,0.7,0.9,1.2c0.9,0.9,2.2,2,3.4,3.3c0.3,0.3,0.6,0.7,0.9,1
		c0.3,0.3,0.5,0.7,0.7,1c0.5,0.7,0.8,1.4,1,2c0.2,0.6,0.3,1.2,0.4,1.6c0,0.4,0,0.6,0,0.6s-0.1-0.2-0.2-0.6c-0.1-0.3-0.4-0.8-0.7-1.4
		c-0.6-1.1-1.7-2.4-2.8-3.7c-1.1-1.3-2.3-2.5-3.1-3.6c-0.4-0.5-0.6-1.1-0.7-1.5C45.2,144,45.3,143.8,45.3,143.8z"/>
</g>
<g>
	<path class="st9" d="M11.5,180.4c0,0,0.4-0.1,1-0.3c0.7-0.1,1.7-0.2,2.9,0c0.6,0.1,1.2,0.4,1.8,0.7c0.6,0.4,1.2,0.8,1.7,1.4
		c0.5,0.5,1,1.1,1.5,1.6c0.5,0.5,1.1,1.1,1.6,1.6c2.3,2,5,3.5,7.1,4.5c1,0.5,1.9,1,2.5,1.3c0.6,0.3,0.9,0.5,0.9,0.5s-0.4-0.1-1-0.3
		c-0.6-0.2-1.6-0.5-2.7-1c-1.1-0.4-2.3-1-3.6-1.7c-1.3-0.7-2.6-1.6-3.8-2.6c-0.6-0.5-1.2-1.1-1.7-1.7c-0.5-0.6-1-1.2-1.5-1.7
		c-0.5-0.5-1-1-1.5-1.4c-0.5-0.4-1-0.6-1.6-0.8c-1.1-0.3-2-0.4-2.7-0.4C11.9,180.4,11.5,180.4,11.5,180.4z"/>
</g>
<g>
	<path class="st9" d="M34.5,197.8c0,0-0.4,0.1-1,0.1c-0.7,0.1-1.6,0.2-2.7,0.2c-0.6,0-1.2,0.1-1.8,0.1c-0.6,0-1.3,0.1-2,0.1
		c-0.7,0-1.6-0.2-2.2-0.6c-0.7-0.3-1.3-0.7-2-1c-2.6-1.3-5.3-2.6-7.4-3.5c-1-0.4-1.9-0.8-2.5-1.1c-0.6-0.3-0.9-0.4-0.9-0.4
		s1.5,0.3,3.6,0.9c2.2,0.7,4.9,1.8,7.6,3.1c0.7,0.3,1.3,0.7,2,1c0.6,0.3,1.2,0.5,1.9,0.6c0.7,0,1.3,0,2,0.1c0.6,0,1.2,0,1.8,0.1
		c1.1,0,2.1,0.1,2.7,0.1C34.1,197.8,34.5,197.8,34.5,197.8z"/>
</g>
<g>
	<path class="st9" d="M20.9,198.5c0,0,0.2,0.1,0.5,0.2c0.3,0.1,0.7,0.3,1.2,0.5c0.5,0.2,1.1,0.4,1.7,0.6c0.6,0.2,1.3,0.4,1.9,0.5
		c1.3,0.3,2.7,0.4,3.7,0.5c0.5,0,1,0,1.3,0c0.3,0,0.5,0,0.5,0s-0.2,0.1-0.5,0.2c-0.3,0.1-0.7,0.2-1.3,0.3c-0.5,0.1-1.2,0.2-1.9,0.2
		c-0.3,0-0.7,0-1.1-0.1c-0.4,0-0.7-0.1-1.1-0.2c-0.7-0.2-1.4-0.4-2-0.7c-0.6-0.3-1.2-0.6-1.6-0.9c-0.5-0.3-0.8-0.6-1-0.8
		C21,198.6,20.9,198.5,20.9,198.5z"/>
</g>
<polygon class="st10" points="73.8,269 88.8,159 89.6,159 186.3,148.5 193.3,157.2 174.6,265 74.1,269 "/>
<g>
	<path class="st9" d="M19.9,217.7c0,0,0.3,0.1,0.7,0.3c0.4,0.2,1.1,0.4,1.9,0.6c0.8,0.2,1.7,0.4,2.7,0.6c1,0.1,2.1,0.2,3.1,0.1
		c1.1,0,2.2,0,3.3,0.2c0.5,0.1,1,0.2,1.5,0.4c0.5,0.2,0.9,0.4,1.2,0.7c0.7,0.5,1.1,1.2,1.3,1.6c0.2,0.4,0.3,0.7,0.3,0.7
		s-0.1-0.2-0.5-0.6c-0.3-0.4-0.8-0.8-1.5-1.2c-0.3-0.2-0.7-0.4-1.2-0.5c-0.4-0.1-0.9-0.2-1.4-0.3c-1-0.1-2.1-0.1-3.2,0
		c-1.1,0-2.3-0.1-3.3-0.3c-1-0.2-2-0.5-2.7-0.9c-0.8-0.3-1.4-0.7-1.8-1C20.1,217.9,19.9,217.7,19.9,217.7z"/>
</g>
<g>
	<path class="st3" d="M180.5,236.2c-4.6-1-9.3-2-14-2.2c-4.3-0.2-8.6,0.2-12.8-0.8c-1.9-0.4-3.6-1.1-5.4-1.8
		c-6.6-2.6-13.2-5.3-19.9-7.9c-4.5-1.8-9-3.6-13.1-6.2c0.1,12.9-1.6,25.3-4.5,37.9c-0.3,1.5-0.6,3.3,0.7,4.2
		c0.4,0.3,0.9,0.4,1.5,0.5c17.9,3.7,45.3,9.1,63.1,12.8"/>
	<path d="M180.5,236.3c-2.8-0.6-5.6-1.1-8.4-1.5c-1.4-0.2-2.8-0.4-4.3-0.4c-1.4-0.1-2.8-0.1-4.3-0.1c-2.9,0-5.7,0.1-8.6-0.4
		c-1.4-0.2-2.8-0.6-4.2-1.1c-1.4-0.5-2.7-1-4-1.5l-16-6.2c-5.3-2.1-10.8-4-15.7-7.1l1.1-0.6c0.1,9.1-0.6,18.2-2.1,27.2
		c-0.4,2.2-0.8,4.5-1.2,6.7c-0.2,1.1-0.5,2.2-0.7,3.3c-0.1,0.6-0.3,1.1-0.3,1.6c-0.1,0.5-0.1,1-0.1,1.4c0.1,0.4,0.2,0.7,0.4,0.9
		c0.1,0.1,0.2,0.2,0.4,0.2c0.2,0.1,0.4,0.1,0.7,0.2l3.3,0.7l6.6,1.4c4.4,0.9,8.9,1.9,13.3,2.8l13.3,2.8c8.9,2,17.7,3.9,26.5,6.1
		l0,0.2l-13.4-2.4l-13.4-2.4l-13.4-2.5l-6.7-1.3c-2.2-0.4-4.4-0.9-6.7-1.3l-6.7-1.3l-3.3-0.7c-0.3-0.1-0.6-0.1-1-0.3
		c-0.4-0.1-0.7-0.4-1.1-0.7c-0.6-0.6-0.9-1.4-1-2.1c-0.1-1.4,0.2-2.6,0.5-3.7l0.7-3.3c0.5-2.2,0.9-4.4,1.3-6.6
		c1.6-8.9,2.5-17.9,2.5-26.9l0-1.3l1.1,0.7c4.7,3.1,10.1,5.1,15.4,7.2l15.9,6.5c2.7,1.1,5.3,2.3,8,2.7c2.8,0.5,5.6,0.5,8.5,0.5
		c1.4,0,2.9,0.1,4.3,0.2c1.4,0.1,2.9,0.3,4.3,0.5c2.8,0.5,5.6,1.1,8.4,1.7L180.5,236.3z"/>
</g>
<g>
	<path class="st9" d="M29,216.7c0,0,0.3-0.1,0.8-0.2c0.5-0.1,1.3-0.1,2.2,0c0.4,0.1,0.9,0.2,1.4,0.4c0.3,0.1,0.5,0.2,0.7,0.3
		c0.3,0.1,0.5,0.3,0.7,0.4c1,0.6,1.9,1.4,2.7,2.2c0.9,0.8,1.7,1.5,2.6,2.2c0.9,0.6,1.8,1.1,2.5,1.5c0.8,0.4,1.4,0.7,1.9,0.9
		c0.5,0.2,0.7,0.4,0.7,0.4s-0.3-0.1-0.8-0.2c-0.5-0.1-1.2-0.3-2.1-0.6c-0.8-0.3-1.8-0.7-2.8-1.3c-1-0.6-1.9-1.4-2.8-2.2
		c-0.9-0.8-1.7-1.6-2.5-2.2c-0.2-0.2-0.4-0.3-0.6-0.4c-0.2-0.1-0.4-0.3-0.7-0.4c-0.4-0.2-0.9-0.4-1.3-0.5c-0.8-0.2-1.5-0.4-2-0.4
		C29.3,216.7,29,216.7,29,216.7z"/>
</g>
<g>
	<path class="st9" d="M50.1,229.5c0,0-0.3,0.2-0.8,0.4c-0.5,0.3-1.2,0.7-2.1,1.3c-0.4,0.3-0.8,0.6-1.3,0.9c-0.4,0.4-0.8,0.7-1,1.2
		c-0.2,0.5-0.2,1.1-0.2,1.7c0,0.7,0,1.3,0,1.9c0.1,0.6,0.2,1.2,0.4,1.8c0.3,0.5,0.6,1.2,0.8,1.8c0.4,1.3,0.6,2.4,0.8,3.4
		c0.2,1,0.4,1.8,0.7,2.3c0.3,0.5,0.5,0.8,0.5,0.8s-0.1-0.1-0.2-0.2c-0.1-0.1-0.3-0.3-0.5-0.5c-0.4-0.5-0.8-1.2-1.1-2.2
		c-0.3-1-0.6-2.1-1-3.2c-0.1-0.1-0.1-0.3-0.2-0.4c-0.1-0.1-0.1-0.3-0.2-0.4c-0.2-0.3-0.3-0.6-0.5-0.9c-0.3-0.6-0.5-1.4-0.6-2.1
		c-0.1-0.7,0-1.4,0-2.1c0-0.7,0.1-1.4,0.4-2.1c0.3-0.7,0.9-1.1,1.3-1.5c0.5-0.3,1-0.6,1.4-0.8C48.8,229.8,50.1,229.5,50.1,229.5z"/>
</g>
<g>
	<path class="st11" d="M109.4,105.2c-1.6,0.2-2.5,1.8-3.3,3.3c-0.8,1.4-1.3,3-1.9,4.5c-0.9,2.2-2.3,4.2-3.6,6.1
		c-2.5,3.5-5.1,7-7,10.9c-0.6,1.1-1.1,2.4-1.2,3.6c-0.1,1.3,0.3,2.7,1.3,3.5c1.7,1.4,4.3,0.6,6.5,0.2c0.9-0.1,1.9-0.2,2.6,0.4
		c0.6,0.4,0.8,1.2,1,1.8c0.9,2.8,1.2,5.8,0.9,8.7c0.1-2.1,0.2-4.2,0.3-6.3c0.1-2.5,0.2-4.9-0.2-7.4c-0.7-3.2-2.4-6.2-2.8-9.5
		c-0.1-0.4-0.1-0.8,0.1-1.2c0.1-0.3,0.3-0.5,0.5-0.7c1.8-2.2,3.1-4.9,3.5-7.7c0.1-0.6,0.1-1.1,0.4-1.6c0.3-0.5,0.7-0.9,1.1-1.3
		c1.8-1.9,2.4-4.8,2.8-7.4C109.8,105.3,109.6,105.3,109.4,105.2"/>
	<path class="st5" d="M109.4,105.3c-1.2,0.1-2,1.2-2.6,2.2c-0.3,0.5-0.6,1.1-0.8,1.6c-0.3,0.5-0.5,1.1-0.7,1.7
		c-0.4,1.1-0.8,2.3-1.3,3.4c-0.5,1.1-1.1,2.2-1.8,3.2c-1.3,2-2.7,4-4.1,6c-1.3,2-2.6,4-3.8,6.1c-0.6,1.1-1.1,2.1-1.4,3.2
		c-0.3,1.1-0.3,2.2,0.2,3.2c0.1,0.2,0.3,0.4,0.4,0.6c0.1,0.1,0.2,0.2,0.3,0.2c0.1,0.1,0.3,0.2,0.4,0.2c0.4,0.2,0.9,0.4,1.5,0.4
		c1.1,0.1,2.3-0.2,3.5-0.4c0.6-0.1,1.2-0.2,1.9-0.2c0.6,0,1.4,0.2,1.9,0.7c0.6,0.5,0.8,1.2,1,1.8c0.2,0.6,0.3,1.2,0.5,1.8
		c0.5,2.4,0.7,4.9,0.4,7.3l-0.7-0.1l0.3-5.7c0.1-1.9,0.2-3.8,0.1-5.7c-0.1-0.9-0.2-1.9-0.4-2.8c-0.2-0.9-0.5-1.8-0.8-2.7
		c-0.6-1.8-1.3-3.6-1.7-5.5c-0.1-0.5-0.2-0.9-0.2-1.5c0-0.3,0.1-0.5,0.2-0.8c0.1-0.2,0.3-0.4,0.5-0.6c0.6-0.7,1.2-1.5,1.6-2.3
		c0.9-1.6,1.6-3.4,1.9-5.3c0.1-0.5,0.1-1,0.3-1.4c0.2-0.5,0.5-0.8,0.9-1.2c0.7-0.6,1.3-1.4,1.7-2.2c0.8-1.7,1.2-3.6,1.5-5.4l0.1,0.1
		L109.4,105.3L109.4,105.3l0.7-0.1l0.1,0l0,0.1c-0.3,1.9-0.6,3.8-1.4,5.5c-0.4,0.9-1,1.7-1.7,2.3c-0.3,0.3-0.6,0.7-0.8,1.1
		c-0.2,0.4-0.2,0.9-0.3,1.4c-0.3,1.9-0.9,3.7-1.8,5.4c-0.5,0.8-1,1.6-1.6,2.4c-0.3,0.4-0.5,0.7-0.5,1.1c0,0.4,0.1,0.9,0.2,1.4
		c0.4,1.8,1.1,3.6,1.8,5.4c0.3,0.9,0.6,1.8,0.9,2.7c0.2,0.9,0.4,1.9,0.4,2.9c0.1,1.9,0,3.8,0,5.7l-0.2,5.7l-0.7-0.1
		c0.2-2.4,0-4.8-0.5-7.1c-0.3-1.1-0.6-2.4-1.2-3.1c-0.7-0.7-1.9-0.5-3.1-0.2c-1.2,0.2-2.4,0.5-3.7,0.4c-0.7,0-1.3-0.2-2-0.6
		c-0.2-0.1-0.3-0.2-0.4-0.3c-0.2-0.1-0.3-0.2-0.4-0.4c-0.2-0.3-0.4-0.5-0.6-0.8c-0.6-1.2-0.6-2.6-0.3-3.9c0.3-1.3,0.9-2.3,1.5-3.4
		c2.3-4.3,5.4-8.1,8.1-12c0.7-1,1.3-2,1.9-3c0.6-1,1-2.2,1.4-3.3c0.4-1.1,1.1-2.2,1.7-3.2c0.3-0.5,0.7-1,1.2-1.4
		C108.2,105.5,108.8,105.2,109.4,105.3L109.4,105.3z"/>
</g>
<g>
	<path class="st1" d="M113,146.7c1.1,0,2.3,0,2.9-0.9c0.5-0.8,0.3-1.9-0.4-2.5s-1.6-0.8-2.6-0.8c-0.2,0-0.4,0-0.6,0.1
		c-0.5,0.2-0.6,0.9-0.5,1.4c0.1,1,0.7,2,1.5,2.6"/>
	<path d="M113,146.6c0,0,0.2,0,0.6,0c0.4,0,0.9-0.1,1.5-0.3c0.3-0.1,0.5-0.4,0.7-0.6c0.2-0.3,0.2-0.6,0.2-1c-0.1-0.3-0.2-0.7-0.5-1
		c-0.2-0.3-0.6-0.5-0.9-0.6c-0.4-0.1-0.8-0.2-1.1-0.2c-0.2,0-0.4,0-0.5,0c-0.1,0-0.1,0-0.2,0.1c0,0-0.1,0.1-0.1,0c0,0,0,0,0,0
		c-0.1,0.1-0.2,0.4-0.2,0.7c0,0.3,0.1,0.6,0.1,0.9c0.2,0.6,0.4,1,0.6,1.4c0.2,0.3,0.4,0.5,0.4,0.5l-0.1,0.1c0,0-0.2-0.1-0.5-0.3
		c-0.3-0.2-0.8-0.7-1.1-1.3c-0.2-0.3-0.3-0.7-0.4-1.1c-0.1-0.4-0.1-1,0.4-1.5c0.1-0.1,0.1-0.1,0.2-0.2c0.1-0.1,0.1,0,0.2-0.1
		c0.2-0.1,0.3-0.1,0.4-0.1c0.3,0,0.5,0,0.7,0c0.5,0,1,0.2,1.4,0.4c0.5,0.2,0.9,0.5,1.2,0.9c0.3,0.4,0.5,0.9,0.5,1.3
		c0,0.5-0.1,1-0.3,1.3c-0.3,0.4-0.6,0.6-0.9,0.7c-0.7,0.2-1.2,0.2-1.6,0.2C113.2,146.7,113,146.7,113,146.6L113,146.6z"/>
</g>
<g>
	<path class="st5" d="M113.3,138.1c0,0,0.5,0.1,1.4,0.2c0.9,0.1,2.2,0.4,3.7,0.5c0.8,0.1,1.6,0.1,2.5,0c0.9-0.1,1.8-0.2,2.6-0.6
		c0.9-0.4,1.7-0.9,2.3-1.6c0.3-0.4,0.6-0.8,0.8-1.2c0.2-0.4,0.4-1,0.3-1.1c0-0.1-0.2-0.2-0.4-0.3l-0.6-0.4c-0.2-0.1-0.5-0.3-0.4-0.3
		c0.1,0,0.1,0,0.1,0c0,0-0.1,0.2-0.2,0.3c-0.5,0.9-1.2,1.8-2,2.5c-0.2,0.2-0.4,0.3-0.7,0.5c-0.2,0.1-0.4,0.2-0.6,0.3
		c-0.5,0.2-0.9,0.4-1.4,0.5c-0.9,0.2-1.8,0.3-2.5,0.3c-0.8,0-1.5,0.1-2.1,0.1c-0.6,0.1-1.2,0.1-1.6,0.2
		C113.9,137.9,113.6,138,113.3,138.1c-0.2,0-0.3,0.1-0.3,0.1l0-0.1c0,0,0.1-0.1,0.3-0.2c0.2-0.1,0.6-0.3,1-0.4
		c0.9-0.3,2.2-0.5,3.7-0.7c0.8-0.1,1.6-0.2,2.4-0.5c0.4-0.1,0.8-0.3,1.2-0.4c0.2-0.1,0.4-0.2,0.6-0.3c0.1-0.1,0.4-0.2,0.5-0.4
		c0.7-0.5,1.3-1.3,1.8-2.1c0.1-0.1,0.1-0.2,0.2-0.4c0.1-0.2,0.4-0.4,0.7-0.4c0.3,0,0.5,0.1,0.6,0.2l0.3,0.2l0.6,0.5
		c0.2,0.1,0.5,0.3,0.7,0.7c0.2,0.4,0.1,0.8,0,1c-0.1,0.3-0.2,0.5-0.3,0.8c-0.3,0.5-0.6,0.9-1,1.3c-0.8,0.8-1.7,1.3-2.6,1.7
		c-0.9,0.4-1.9,0.5-2.8,0.5c-0.9,0-1.8,0-2.5-0.1c-1.5-0.2-2.8-0.5-3.7-0.7C113.8,138.3,113.3,138.2,113.3,138.1L113.3,138.1z"/>
</g>
<g>
	<path d="M96.3,146c0,0-0.2,0.3-0.5,0.9c-0.3,0.5-0.7,1.3-1.3,2.3c-1.1,1.9-2.6,4.3-4.2,6.6c-0.8,1.2-1.6,2.4-2.4,3.5
		c-0.8,1.1-1.5,2.1-2.1,3c-0.6,0.9-1.1,1.6-1.4,2.2c-0.3,0.5-0.5,0.9-0.5,0.9s0.4-1.4,1.4-3.3c1-1.9,2.6-4.3,4.2-6.7
		c1.6-2.4,3.3-4.7,4.6-6.4c0.6-0.9,1.2-1.5,1.6-2C96.1,146.3,96.3,146,96.3,146z"/>
</g>
<g>
	<path class="st9" d="M187.2,189.9c0,0,0.3,0.4,1,1c0.6,0.6,1.5,1.5,2.5,2.6c1,1.1,2.2,2.4,3.4,3.8c1.2,1.4,2.5,2.9,3.8,4.5
		c1.2,1.6,2.2,3.4,3,5.1c0.8,1.7,1.3,3.4,1.8,4.8c0.5,1.4,0.8,2.6,1,3.5c0.2,0.8,0.3,1.3,0.3,1.3s-0.7-1.8-1.8-4.6
		c-0.5-1.4-1.3-3-2.1-4.6c-0.8-1.6-1.8-3.3-3-4.9c-1.2-1.6-2.5-3.1-3.6-4.5c-1.2-1.4-2.2-2.8-3.2-4c-0.9-1.2-1.6-2.2-2.2-2.9
		C187.5,190.3,187.2,189.9,187.2,189.9z"/>
</g>
<g>
	<path class="st9" d="M184.4,207.7c0,0,0.5,0.4,1.3,1.1c0.8,0.7,1.9,1.7,3.3,2.9c1.3,1.2,2.9,2.6,4.5,4.1c1.6,1.5,3.3,3.3,4.6,5.4
		c1.3,2.1,2.2,4.4,3,6.5c0.8,2.1,1.5,4.1,2.1,5.8c0.6,1.7,1,3.1,1.3,4.2c0.3,1,0.4,1.6,0.4,1.6s-0.9-2.2-2.2-5.5
		c-0.7-1.7-1.5-3.6-2.3-5.7c-0.9-2.1-1.8-4.3-3-6.3c-1.2-2-2.8-3.7-4.4-5.3c-1.6-1.6-3.1-3.1-4.3-4.3c-1.3-1.3-2.3-2.4-3-3.1
		C184.8,208.1,184.4,207.7,184.4,207.7z"/>
</g>
<g>
	<path class="st9" d="M183.8,222.4c0,0,0.1,0,0.2,0c0.1,0,0.4,0,0.6,0c0.6,0.1,1.4,0.2,2.3,0.6c0.9,0.4,1.9,0.9,2.9,1.6
		c1,0.6,2.1,1.3,3.1,2.1c0.5,0.4,1,0.8,1.5,1.2c0.5,0.4,0.9,0.8,1.4,1.2c0.9,0.8,1.6,1.7,2.1,2.5c0.6,0.8,0.9,1.5,1.1,2
		c0.2,0.5,0.3,0.8,0.3,0.8s-0.2-0.3-0.5-0.7c-0.3-0.5-0.8-1.1-1.4-1.8c-1.2-1.4-3.1-3-5.1-4.5c-1-0.8-2-1.5-3-2.2
		c-1-0.7-1.8-1.3-2.6-1.8c-0.8-0.5-1.5-0.8-2-0.9C184.2,222.5,183.8,222.4,183.8,222.4z"/>
</g>
<g>
	<path class="st9" d="M183.3,236c0,0,0.4,0.1,1.2,0c0.8,0,1.8-0.3,3.1-0.5c0.7-0.1,1.4-0.1,2.2,0.2c0.8,0.2,1.5,0.6,2.2,1
		c0.7,0.5,1.4,0.9,2,1.5c0.7,0.6,1.3,1.2,1.9,1.8c0.6,0.6,1.2,1.3,1.7,2c0.5,0.7,1,1.4,1.5,2c0.9,1.4,1.6,2.7,2.3,3.8
		c0.6,1.1,1.1,2.1,1.4,2.8c0.3,0.7,0.5,1.1,0.5,1.1s-0.2-0.4-0.7-1c-0.4-0.6-1-1.5-1.7-2.6c-0.7-1.1-1.6-2.3-2.5-3.6
		c-0.5-0.7-1-1.3-1.5-1.9c-0.5-0.7-1.1-1.3-1.7-1.9c-0.6-0.6-1.2-1.2-1.8-1.7c-0.6-0.5-1.3-1.1-1.9-1.5c-0.6-0.4-1.3-0.8-1.9-1.1
		c-0.6-0.2-1.3-0.3-1.9-0.3c-1.3,0-2.4,0.1-3.1,0.1c-0.4,0-0.7-0.1-0.9-0.1C183.4,236,183.3,236,183.3,236z"/>
</g>
<g>
	<path class="st9" d="M171.9,239.5c0,0,0.1-0.1,0.4-0.1c0.3-0.1,0.7-0.2,1.2-0.3c0.5-0.1,1.2-0.2,1.9-0.2c0.7,0,1.6,0.1,2.5,0.4
		c1.8,0.5,3.8,1.4,5.7,2.7c0.9,0.7,1.9,1.4,2.8,2.2c0.9,0.8,1.8,1.7,2.6,2.6c0.8,0.9,1.6,1.8,2.3,2.8c0.7,0.9,1.4,1.9,2,2.9
		c0.6,1,1.2,1.9,1.6,2.9c0.5,0.9,0.9,1.8,1.3,2.7c0.4,0.8,0.7,1.6,0.9,2.3c0.3,0.7,0.4,1.3,0.6,1.8c0.3,1,0.4,1.6,0.4,1.6
		s-0.2-0.6-0.6-1.6c-0.2-0.5-0.4-1.1-0.8-1.8c-0.3-0.7-0.7-1.4-1.1-2.2c-0.4-0.8-0.9-1.7-1.4-2.6c-0.5-0.9-1.1-1.8-1.7-2.7
		c-1.3-1.9-2.7-3.8-4.4-5.5c-0.8-0.9-1.6-1.7-2.5-2.5c-0.9-0.8-1.7-1.6-2.6-2.2c-1.8-1.3-3.6-2.4-5.3-2.9c-0.8-0.3-1.7-0.4-2.4-0.5
		c-0.7-0.1-1.4-0.1-1.9,0c-0.5,0.1-0.9,0.1-1.2,0.2C172.1,239.4,171.9,239.5,171.9,239.5z"/>
</g>
<g>
	<path class="st9" d="M158.6,236.7c0,0,0.4,0.4,1.1,1.2c0.7,0.8,1.7,1.9,2.9,3.3c1.2,1.4,2.6,3,4,4.7c1.5,1.7,3,3.6,4.5,5.5
		c1.5,1.9,3,3.8,4.4,5.6c1.4,1.8,2.6,3.5,3.8,4.9c1.2,1.4,2.2,2.4,3.1,3.1c0.8,0.6,1.4,0.9,1.4,0.9s-0.1-0.1-0.4-0.2
		c-0.3-0.1-0.6-0.3-1.1-0.6c-0.9-0.6-2.2-1.5-3.4-2.8c-1.2-1.4-2.6-3-4.1-4.7c-1.5-1.7-3-3.6-4.5-5.5c-1.5-1.9-3-3.8-4.4-5.6
		c-1.4-1.8-2.7-3.5-3.8-4.9c-1.1-1.4-2-2.7-2.6-3.5C159,237.2,158.6,236.7,158.6,236.7z"/>
</g>
<g>
	<path class="st9" d="M130.7,227.5c0,0,0,0.2,0,0.5c0,0.3,0.1,0.7,0.2,1.3c0.2,1.1,0.7,2.6,1.6,4.2c0.5,0.8,1.1,1.6,1.8,2.4
		c0.7,0.8,1.7,1.4,2.6,2.2c0.2,0.2,0.5,0.5,0.7,0.7c0.2,0.3,0.4,0.5,0.6,0.8c0.3,0.6,0.6,1.2,0.8,1.8c0.2,0.6,0.4,1.2,0.5,1.8
		l0.3,0.9l0.3,0.9c0.4,1.2,0.9,2.3,1.4,3.4c0.6,1.1,1.2,2.2,1.8,3.1c1.3,2,2.7,3.7,3.9,5.2c1.2,1.5,2.3,2.7,3,3.5
		c0.7,0.8,1.1,1.3,1.1,1.3s-0.5-0.4-1.3-1.2c-0.8-0.8-2-1.9-3.3-3.3c-1.3-1.4-2.8-3.1-4.2-5.1c-0.7-1-1.4-2-2-3.2
		c-0.6-1.1-1.1-2.3-1.5-3.6l-0.3-0.9l-0.3-0.9c-0.2-0.6-0.3-1.2-0.5-1.8c-0.4-1.2-0.8-2.2-1.7-3c-0.8-0.8-1.8-1.5-2.5-2.3
		c-0.7-0.8-1.3-1.7-1.8-2.6c-0.9-1.7-1.2-3.4-1.3-4.5c-0.1-0.6,0-1,0-1.3C130.7,227.7,130.7,227.5,130.7,227.5z"/>
</g>
<g>
	<path class="st9" d="M148.8,238.2c0,0,0.2,0.4,0.6,1c0.4,0.7,0.9,1.6,1.5,2.7c0.6,1.1,1.3,2.4,2.1,3.8c0.8,1.4,1.6,2.9,2.5,4.4
		c0.8,1.5,1.7,2.9,2.5,4.3c0.8,1.4,1.6,2.7,2.2,3.7c0.7,1.1,1.2,2,1.6,2.6c0.4,0.6,0.6,1,0.6,1s-0.3-0.3-0.8-0.9
		c-0.5-0.6-1.2-1.4-1.9-2.4c-0.8-1-1.6-2.3-2.5-3.6c-0.9-1.3-1.8-2.8-2.6-4.3c-0.8-1.5-1.7-3-2.4-4.5c-0.7-1.4-1.3-2.8-1.8-4
		c-0.5-1.2-0.9-2.2-1.1-2.9C149,238.6,148.8,238.2,148.8,238.2z"/>
</g>
<g>
	<path class="st9" d="M182.1,141.2c0,0-0.8,0-1.8,0.6c-0.5,0.3-1.1,0.6-1.7,1c-0.6,0.4-1.3,0.7-1.9,1.2c-0.3,0.2-0.6,0.4-0.9,0.6
		c-0.3,0.2-0.6,0.5-0.8,0.7c-0.5,0.5-0.9,1-1.2,1.4c-0.3,0.5-0.5,0.9-0.6,1.2c-0.1,0.3-0.2,0.5-0.2,0.5s0-0.2,0-0.6
		c0-0.4,0.1-0.9,0.3-1.4c0.2-0.6,0.6-1.2,1.1-1.8c0.3-0.3,0.5-0.6,0.9-0.8c0.3-0.3,0.6-0.5,1-0.7c0.7-0.4,1.4-0.8,2.1-1.1
		c0.7-0.3,1.3-0.6,1.9-0.8c0.6-0.2,1.1-0.2,1.5-0.2C181.9,141.2,182.1,141.2,182.1,141.2z"/>
</g>
<g>
	<path class="st2" d="M114.7,217.9c-1.6,0.1-2.7-1.3-3.9-2.3c-3-2.6-7.1-3.5-11-4.4c-2.8-0.6-5.5-1.2-8.3-1.8
		c-0.8-0.2-1.6-0.3-2.5-0.4c-0.9,0-1.8,0.1-2.7,0.3c-2.4,0.4-4.8,0.9-7.1,1.3c-0.3,0.1-0.6,0.1-0.8,0.3c-0.3,0.2-0.5,0.7-0.8,0.9
		c-0.3,0.2-0.6,0.2-0.9,0.3c-1.4,0.2-2.6,1.1-3.2,2.3s-0.6,2.8,0,4c-1.5,0.6-2.4,2.3-2.2,3.9c0.2,1.6,1.3,3,2.7,3.8
		c-1.7,0-2.9,1.9-2.7,3.6s1.6,3,3.1,3.7c-0.7,1.6-1.3,3.6-0.1,4.9c0.4,0.4,0.9,0.6,1.4,0.9c1.4,0.6,2.8,1.3,4.2,1.9
		c1.9,0.9,3.8,1.7,5.9,2.2c1.2,0.2,2.4,0.3,3.6,0.4c5.8,0.4,11.5,0.9,17.3,1.3c1.9,0.1,3.8,0.3,5.7,0.4c0.3,0,0.8,0,1-0.2
		c0.2-0.2,0.2-0.4,0.2-0.7c0.6-7.5,1.3-14.9,1.9-22.4c0.1-1.6,0.3-3.2,0.1-4.8"/>
	<path d="M114.7,218c-1.1,0-2-0.6-2.8-1.2c-0.8-0.7-1.5-1.4-2.4-1.9c-1.7-1.1-3.6-1.9-5.6-2.4c-2-0.5-4-0.9-6-1.3l-6-1.2
		c-1-0.2-2-0.4-3-0.5c-1,0-2,0.2-3,0.4l-6,1.2c-0.5,0.1-1.1,0.2-1.4,0.3c-0.4,0.1-0.5,0.7-1,1.1c-0.6,0.3-1.1,0.2-1.5,0.4
		c-0.5,0.1-0.9,0.4-1.3,0.7c-0.8,0.6-1.3,1.4-1.5,2.3c-0.2,0.9-0.1,1.9,0.3,2.8l0.2,0.3l-0.3,0.1c-0.7,0.2-1.2,0.8-1.6,1.4
		c-0.2,0.3-0.3,0.7-0.4,1c0,0.2-0.1,0.4-0.1,0.6c0,0.2,0,0.4,0,0.5c0.1,0.4,0.2,0.7,0.3,1.1c0.1,0.3,0.3,0.7,0.6,1
		c0.5,0.6,1,1.1,1.7,1.5l1,0.6l-1.2,0.1c-0.2,0-0.4,0-0.5,0.1c-0.2,0.1-0.3,0.1-0.5,0.2c-0.3,0.2-0.6,0.5-0.8,0.8
		c-0.2,0.3-0.4,0.7-0.5,1c0,0.2-0.1,0.4-0.1,0.6c0,0.2,0,0.4,0,0.5c0,0.2,0.1,0.4,0.1,0.6c0.1,0.2,0.1,0.4,0.2,0.5
		c0.2,0.3,0.4,0.7,0.6,1c0.5,0.6,1.2,1.1,1.9,1.4l0.3,0.2l-0.1,0.3c-0.3,0.7-0.5,1.4-0.7,2.1c-0.1,0.7-0.1,1.4,0.2,2
		c0.3,0.6,0.9,0.9,1.6,1.2l2.1,0.9c1.4,0.6,2.8,1.3,4.2,1.9c1.4,0.6,2.8,1.1,4.3,1.3c1.5,0.2,3,0.3,4.5,0.4l4.6,0.3l9.2,0.7l4.6,0.4
		l2.3,0.2c0.4,0,0.8,0.1,1.1,0.1c0.1,0,0.2,0,0.3-0.1l0,0c0,0,0,0,0,0l0,0c0,0,0,0,0,0c0,0,0-0.1,0-0.2l0.9-9.1l0.9-9.1l0.5-4.6
		c0.2-1.5,0.3-3,0.2-4.6l0.1,0c0.2,1.5,0.1,3.1,0,4.6l-0.3,4.6l-0.7,9.2l-0.7,9.2c0,0.1-0.1,0.2-0.1,0.4c0,0.1-0.1,0.1-0.1,0.2
		l-0.1,0.1c0,0-0.1,0.1-0.1,0.1c-0.3,0.2-0.6,0.3-0.8,0.3c-0.5,0-0.8,0-1.2-0.1l-2.3-0.2l-4.6-0.3l-9.2-0.7l-4.6-0.3
		c-1.5-0.1-3.1-0.2-4.6-0.4c-1.6-0.3-3.1-0.8-4.5-1.4c-1.4-0.6-2.8-1.3-4.2-1.9l-2.1-1c-0.7-0.3-1.5-0.7-2-1.5
		c-0.4-0.8-0.4-1.7-0.3-2.5c0.1-0.8,0.4-1.6,0.7-2.3l0.2,0.5c-0.8-0.4-1.5-0.9-2.1-1.6c-0.3-0.3-0.5-0.7-0.7-1.1
		c-0.1-0.2-0.2-0.4-0.3-0.6c-0.1-0.2-0.1-0.5-0.1-0.7c0-0.3,0-0.5,0-0.7c0-0.2,0.1-0.5,0.1-0.7c0.1-0.4,0.3-0.9,0.6-1.2
		c0.3-0.4,0.6-0.7,1-1c0.2-0.1,0.4-0.2,0.7-0.3c0.2-0.1,0.5-0.1,0.7-0.1l-0.2,0.6c-0.7-0.4-1.4-1-1.9-1.7c-0.3-0.3-0.5-0.7-0.6-1.1
		c-0.1-0.2-0.2-0.4-0.2-0.6c-0.1-0.2-0.1-0.4-0.1-0.6c-0.1-0.5,0-0.9,0-1.3c0.1-0.4,0.2-0.8,0.4-1.2c0.4-0.8,1.1-1.4,1.9-1.7
		l-0.2,0.4c-0.5-1-0.6-2.1-0.4-3.2c0.2-1.1,0.9-2,1.8-2.7c0.4-0.3,0.9-0.6,1.4-0.7c0.5-0.2,1.1-0.2,1.4-0.3c0.3-0.2,0.5-0.8,1.1-1.1
		c0.6-0.2,1-0.2,1.6-0.3l6-1.1c1-0.2,2-0.4,3.1-0.3c1.1,0,2.1,0.3,3,0.5l6,1.3c2,0.4,4,0.8,6,1.4c2,0.6,3.9,1.3,5.6,2.5
		c0.9,0.6,1.6,1.3,2.3,2C112.8,217.3,113.7,217.9,114.7,218L114.7,218z"/>
</g>
<g>
	<path d="M77.7,212.1c0,0-0.1,0.1-0.2,0.3c-0.1,0.2-0.1,0.5-0.1,0.9c0.1,0.4,0.3,0.8,0.7,1.1c0.4,0.4,0.9,0.6,1.6,0.9
		c1.2,0.6,2.7,1.1,4.4,1.4c0.8,0.2,1.7,0.3,2.6,0.4c0.9,0.1,1.8,0,2.7,0c0.9,0,1.8,0,2.7,0c0.9,0.1,1.8,0.2,2.7,0.4
		c1.7,0.4,3.2,0.9,4.5,1.5c0.6,0.3,1.2,0.6,1.7,0.8c0.5,0.2,0.9,0.5,1.3,0.7c0.7,0.4,1.1,0.6,1.1,0.6l0,0.1c0,0-0.4-0.2-1.2-0.4
		c-0.8-0.3-1.8-0.7-3.1-1.1c-0.6-0.2-1.3-0.4-2.1-0.6c-0.7-0.2-1.5-0.4-2.3-0.6c-0.8-0.2-1.7-0.3-2.5-0.4c-0.9-0.1-1.8-0.1-2.7-0.2
		c-0.9-0.1-1.8,0-2.7-0.2c-0.9-0.1-1.8-0.3-2.6-0.5c-1.7-0.4-3.2-1-4.4-1.7c-0.6-0.3-1.2-0.6-1.6-1.1c-0.4-0.4-0.6-0.9-0.7-1.3
		c-0.1-0.4,0-0.7,0.1-0.9C77.5,212.1,77.6,212,77.7,212.1L77.7,212.1z"/>
</g>
<g>
	<path d="M73.4,218.2c0,0,0.6,0.5,1.6,1.3c0.5,0.4,1,0.9,1.6,1.4c0.6,0.5,1.2,1,1.9,1.5c0.7,0.5,1.4,0.9,2,1.3
		c0.6,0.4,1.2,0.9,1.7,1.2c1,0.8,1.5,1.4,1.5,1.4l-0.1,0.1c0,0-0.8-0.2-1.9-0.8c-0.6-0.3-1.2-0.6-1.8-1c-0.6-0.4-1.3-1-1.9-1.5
		c-0.6-0.5-1.2-1.1-1.8-1.7c-0.5-0.6-1-1.1-1.4-1.5C73.9,218.9,73.3,218.3,73.4,218.2L73.4,218.2z"/>
</g>
<g>
	<path d="M74.3,226c0,0,0.1,0.3,0.4,0.8c0.3,0.5,0.7,1.2,1.4,1.9c1.2,1.5,3.2,3.2,5.3,4.7c1.1,0.8,2.1,1.5,3.2,2.1
		c1,0.6,2,1.2,2.8,1.5c0.9,0.4,1.6,0.5,2.2,0.6c0.3,0.1,0.5,0.1,0.7,0.1c0.2,0,0.2,0,0.2,0l0,0.1c0,0-0.1,0-0.2,0
		c-0.2,0-0.4,0.1-0.7,0.1c-0.3,0-0.7,0-1.1,0c-0.4,0-0.9-0.1-1.4-0.2c-0.5-0.1-1-0.3-1.5-0.6c-0.5-0.2-1.1-0.5-1.6-0.9
		c-1.1-0.7-2.1-1.5-3.1-2.4c-1-0.8-2-1.7-2.9-2.6c-0.9-0.9-1.6-1.8-2.2-2.6c-0.6-0.8-1-1.5-1.2-2C74.3,226.4,74.2,226.1,74.3,226
		L74.3,226z"/>
</g>
<g>
	<path d="M75.1,233.5c0,0,0,0.3,0.2,0.7c0.2,0.4,0.7,0.9,1.4,1.4c0.7,0.4,1.6,0.8,2.4,1.5c0.8,0.7,1.5,1.7,2.2,2.4
		c0.4,0.4,0.8,0.7,1.2,1c0.4,0.3,0.9,0.5,1.3,0.7c0.9,0.4,1.8,0.7,2.6,0.8c0.4,0.1,0.8,0.1,1.1,0.2c0.3,0,0.6,0,0.9,0
		c0.5,0,0.8,0,0.8,0l0,0.1c0,0-0.3,0.1-0.7,0.3c-0.5,0.2-1.2,0.3-2.1,0.3c-0.4,0-0.9-0.1-1.4-0.2c-0.5-0.1-1-0.3-1.5-0.5
		c-0.5-0.2-1-0.5-1.4-0.9c-0.4-0.3-0.9-0.8-1.3-1.2c-0.4-0.5-0.7-0.9-1.1-1.3c-0.3-0.4-0.6-0.8-1-1.2c-0.7-0.7-1.6-1.2-2.2-1.7
		c-0.7-0.5-1.1-1.1-1.3-1.6c-0.1-0.2-0.1-0.4-0.2-0.6C75,233.6,75,233.5,75.1,233.5L75.1,233.5z"/>
</g>
<g>
	<path d="M86.2,227.1c0,0,0.1,0.2,0.2,0.4c0.2,0.2,0.5,0.4,0.8,0.5c0.2,0.1,0.4,0.1,0.7,0.2c0.2,0,0.5,0.1,0.8,0.2
		c0.5,0.1,1.1,0.2,1.7,0.2c0.3,0,0.5,0,0.8-0.1c0.2-0.1,0.5-0.2,0.6-0.3c0.1-0.1,0.2-0.2,0.3-0.2c0.1-0.1,0.2-0.2,0.2-0.3
		c0.1-0.2,0.3-0.4,0.4-0.6c0.2-0.4,0.4-0.7,0.5-1c0.1-0.2,0.2-0.4,0.2-0.4s0,0.2,0,0.4c0,0.3,0,0.7-0.1,1.1
		c-0.1,0.2-0.1,0.5-0.3,0.8c-0.1,0.1-0.2,0.3-0.2,0.4c-0.1,0.1-0.2,0.3-0.3,0.4c-0.3,0.2-0.6,0.4-0.9,0.5c-0.3,0.1-0.7,0.2-1,0.2
		c-0.7,0-1.3-0.2-1.9-0.3c-0.3-0.1-0.5-0.2-0.8-0.3c-0.3-0.1-0.5-0.2-0.7-0.4c-0.4-0.3-0.7-0.7-0.8-0.9
		C86.2,227.3,86.2,227.1,86.2,227.1z"/>
</g>
<g>
	<path d="M55,311.2c0,0,0.3,0.3,1,0.9c0.6,0.6,1.6,1.3,2.8,2c1.2,0.8,2.6,1.6,4.2,2.4c1.6,0.9,3.2,1.8,5,2.3
		c1.8,0.6,3.6,0.9,5.4,1.3c1.7,0.4,3.4,0.7,4.8,1c2.8,0.6,4.7,0.9,4.7,0.9s-0.5,0-1.3-0.1c-0.8-0.1-2-0.1-3.4-0.3
		c-1.4-0.2-3.1-0.4-4.8-0.7c-1.8-0.3-3.7-0.6-5.5-1.2c-1.9-0.6-3.6-1.6-5.1-2.5c-1.5-0.9-2.9-1.9-4.1-2.7c-1.2-0.9-2-1.7-2.6-2.3
		C55.2,311.6,55,311.2,55,311.2z"/>
</g>
<g>
	<path d="M53.3,317.2c0,0,0.4,0.2,1.1,0.7c0.7,0.4,1.7,1,2.9,1.8c1.2,0.8,2.6,1.7,4,2.7c1.5,1,3,2.1,4.6,3c0.8,0.5,1.6,1,2.4,1.4
		c0.8,0.5,1.6,0.9,2.4,1.3c0.8,0.4,1.5,0.7,2.3,1c0.7,0.3,1.5,0.6,2.1,0.8c1.3,0.4,2.5,0.6,3.3,0.8c0.8,0.1,1.3,0.2,1.3,0.2
		s-0.5,0-1.3,0c-0.4,0-0.9,0-1.5-0.1c-0.6-0.1-1.2-0.1-1.9-0.3c-0.7-0.2-1.5-0.3-2.2-0.6c-0.8-0.2-1.6-0.6-2.4-0.9
		c-0.8-0.4-1.7-0.8-2.5-1.2c-0.8-0.5-1.6-0.9-2.4-1.4c-1.6-1-3.1-2.1-4.6-3.2c-1.4-1-2.7-2.1-3.9-2.9c-1.1-0.9-2-1.6-2.7-2.1
		C53.6,317.5,53.3,317.2,53.3,317.2z"/>
</g>
<g>
	<path d="M83.3,295.8c0,0,0,0.7,0,2c0,1.3,0,3.1,0.1,5.3c0.1,2.2,0.3,4.7,0.6,7.4c0.2,1.3,0.4,2.7,0.7,4.1c0.3,1.4,0.6,2.8,0.9,4.2
		c0.7,2.8,1.5,5.6,2.3,8.2c0.3,1.3,0.7,2.6,0.9,3.8c0.3,1.2,0.5,2.4,0.7,3.5c0.2,1.1,0.3,2.1,0.4,3c0.1,0.9,0.1,1.7,0.2,2.3
		c0,1.3,0,2,0,2l-0.1,0c0,0,0-0.2-0.1-0.5c-0.1-0.3-0.1-0.8-0.2-1.5c-0.1-0.6-0.2-1.4-0.4-2.3c-0.1-0.9-0.4-1.8-0.6-2.9
		c-0.5-2.1-1.1-4.6-1.8-7.2c-0.7-2.6-1.4-5.5-2-8.3c-0.3-1.4-0.6-2.8-0.8-4.3c-0.2-1.4-0.4-2.8-0.6-4.2c-0.3-2.7-0.4-5.3-0.4-7.5
		c0-2.2,0-4,0.1-5.3C83.1,296.6,83.2,295.8,83.3,295.8L83.3,295.8z"/>
</g>
<g>
	<path d="M138.2,309.4c0,0,0.5,0,1.3,0c0.8,0,2,0,3.5,0c1.4,0,3.1,0,4.9,0.1c1.8,0.1,3.7,0.2,5.6,0.3c1,0.1,1.9,0.2,2.9,0.2
		c0.9,0.1,1.9,0.2,2.8,0.3c0.9,0.1,1.8,0.3,2.6,0.5c0.8,0.2,1.6,0.4,2.2,0.7c1.4,0.5,2.5,1,3.2,1.4c0.7,0.4,1.2,0.6,1.2,0.6
		s-0.4-0.2-1.2-0.5c-0.8-0.3-1.9-0.7-3.3-1c-0.7-0.2-1.4-0.4-2.2-0.5c-0.8-0.1-1.7-0.3-2.5-0.4c-0.9-0.1-1.8-0.1-2.8-0.2
		c-0.9-0.1-1.9-0.2-2.8-0.2c-1.9-0.1-3.8-0.2-5.6-0.4c-1.8-0.1-3.5-0.3-4.9-0.4c-1.4-0.1-2.6-0.3-3.5-0.4
		C138.7,309.5,138.2,309.4,138.2,309.4z"/>
</g>
<g>
	<path d="M100.2,321.3c0,0,0.8-0.2,2.2-0.7c1.4-0.4,3.4-1,5.8-1.5c2.4-0.5,5.3-1.1,8.5-1.1c3.1-0.1,6.6,0.4,9.8,1.5
		c3.2,1.2,6.1,2.8,8.9,4.1c2.8,1.3,5.5,2.5,7.8,3.5c2.3,0.9,4.2,1.7,5.6,2.2c1.4,0.5,2.1,0.8,2.1,0.8s-0.8-0.2-2.2-0.6
		c-1.4-0.4-3.4-1-5.7-1.9c-2.3-0.9-5.1-1.9-7.9-3.2c-2.9-1.3-5.8-2.9-8.9-4c-3.1-1.2-6.3-1.6-9.4-1.6c-3.1,0-6,0.4-8.4,0.8
		c-2.4,0.4-4.5,0.9-5.9,1.2C101,321.2,100.2,321.3,100.2,321.3z"/>
</g>
<g>
	<path d="M79.7,300.1c0,0-0.7,0-1.7-0.1c-1-0.1-2.3-0.3-3.7-0.5c-1.3-0.3-2.6-0.6-3.5-0.7c-0.5,0-0.9,0.1-1.1,0.1
		c-0.3,0.1-0.4,0.2-0.4,0.2c0,0,0.1-0.1,0.3-0.3c0.2-0.2,0.6-0.4,1.2-0.5c0.5-0.1,1.2-0.1,1.8-0.1c0.7,0.1,1.3,0.2,2,0.3
		c1.3,0.3,2.6,0.6,3.6,0.9C79.1,299.9,79.7,300.1,79.7,300.1z"/>
</g>
<g>
	<path class="st9" d="M60.1,208.8c0,0,0.5,0.8,1.3,1.9c0.8,1.1,1.8,2.6,2.9,4.1c1.1,1.4,2.3,2.9,3.1,3.9c0.9,1,1.5,1.8,1.5,1.8
		s-0.8-0.5-1.9-1.4c-0.5-0.4-1.1-1-1.7-1.6c-0.6-0.6-1.2-1.3-1.8-2.1c-0.6-0.8-1.1-1.5-1.5-2.3c-0.4-0.8-0.8-1.5-1.1-2.1
		C60.3,209.7,60.1,208.8,60.1,208.8z"/>
</g>
<g>
	<path class="st9" d="M70.4,205c0,0,0,0.1,0,0.4c0,0.2,0.1,0.6,0.2,0.9c0.3,0.7,0.8,1.5,1.5,2.3c0.3,0.4,0.7,0.8,1,1.2
		c0.3,0.4,0.6,0.8,0.8,1.2c0.4,0.8,0.5,1.3,0.5,1.3s-0.4-0.4-0.9-1c-0.3-0.3-0.6-0.6-1-0.9c-0.4-0.3-0.8-0.7-1.1-1.1
		c-0.4-0.4-0.7-0.9-0.9-1.4c-0.2-0.5-0.4-1-0.4-1.4c0-0.4,0-0.8,0.1-1C70.3,205.1,70.4,205,70.4,205z"/>
</g>
<line class="st6" x1="89.1" y1="159.6" x2="193.1" y2="157.1"/>
<g>
	<path d="M146.1,102.1c0,0,0.2,0.3,0.2,0.7c0,0.2,0,0.4,0,0.7c-0.1,0.2-0.2,0.5-0.2,0.7c-0.3,1-0.5,2-0.5,2l-0.1,0
		c0,0-0.2-1.1-0.2-2.1c0-0.3,0-0.5,0-0.8c0-0.2,0.1-0.5,0.2-0.7C145.7,102.2,146,102,146.1,102.1L146.1,102.1z"/>
</g>
<path class="st2" d="M145.4,102.7c0.1,0.5,0,1-0.1,1.5c0,0,0,0.1-0.1,0.1c0,0-0.1,0-0.1,0c-0.4,0-0.7-0.2-0.9-0.4
	c-0.1-0.1-0.1-0.1-0.1-0.2c0-0.1,0-0.2,0-0.2c0-0.3,0-0.6,0-1c0-0.1,0-0.2,0-0.3c0.1-0.2,0.4-0.2,0.7-0.2c0.2,0,0.4,0.1,0.4,0.2"/>
<g>
	<path class="st2" d="M158.9,74c-1.9,6-3.8,12.1-7.8,16.9c-5.3,6.5-13.6,9.9-21.5,13.1c-5.4,2.2-11.7,4.3-16.9,1.9
		c-3.4-1.6-5.6-4.8-7.6-7.8C103,95,101,92,99,89c-2.5-3.7-5-7.6-5.4-12c-0.3-3.6,1-7.2,1.2-10.8c0.4-5.3-1.5-10.6-1.9-15.9
		c-0.7-8.8,2.6-17.4,5.8-25.6c16.5-11.1,39.5-11.4,56.1-0.6c3.8,2.5,7.3,5.5,9.4,9.4c2,3.7,2.6,8,2.7,12.2c0.3,10.5-2.5,21-7.6,30.2
		"/>
	<path class="st12" d="M158.9,74c-0.9,3-1.8,6-3,8.9c-1.2,2.9-2.7,5.7-4.7,8.2c-1,1.2-2.1,2.4-3.3,3.4c-1.2,1-2.5,2-3.8,2.9
		c-1.3,0.9-2.7,1.7-4.1,2.4c-1.4,0.7-2.8,1.4-4.3,2.1s-2.9,1.3-4.3,1.9c-1.5,0.6-2.9,1.2-4.4,1.8c-3,1.1-6,2-9.3,2
		c-1.6,0-3.2-0.3-4.7-0.9c-0.8-0.3-1.5-0.7-2.2-1.1c-0.7-0.5-1.3-1-1.9-1.5c-2.3-2.3-4-5-5.7-7.6l-5.2-7.8c-1.7-2.6-3.5-5.3-4.4-8.4
		c-0.5-1.6-0.7-3.2-0.6-4.8c0.1-1.6,0.4-3.2,0.6-4.7s0.6-3.1,0.7-4.6c0.1-0.8,0.1-1.6,0-2.3c-0.1-0.8-0.1-1.6-0.2-2.3
		c-0.4-3.1-1.1-6.1-1.5-9.3c-0.1-0.4-0.1-0.8-0.2-1.2l-0.1-0.6l-0.1-0.6c0-0.4-0.1-0.8-0.1-1.2v-1.2c0.1-1.6,0.2-3.2,0.4-4.8
		c0.3-1.6,0.6-3.1,1-4.7c0.4-1.6,0.8-3.1,1.3-4.6c1-3,2.1-5.9,3.2-8.9l0.1-0.2l0.1-0.1l3.2-2l3.3-1.7c1.1-0.5,2.3-1,3.4-1.5
		c1.2-0.4,2.3-0.8,3.5-1.2c1.2-0.4,2.4-0.6,3.6-1c1.2-0.3,2.4-0.5,3.6-0.7c1.2-0.2,2.5-0.3,3.7-0.5c1.2-0.1,2.5-0.1,3.7-0.2
		c0.3,0,0.6,0,0.9,0h0.9l1.9,0.1c0.6,0,1.2,0.1,1.9,0.2l1.9,0.2c0.6,0.1,1.2,0.2,1.8,0.3l1.8,0.3c0.6,0.1,1.2,0.3,1.8,0.4l1.8,0.5
		c0.6,0.2,1.2,0.4,1.8,0.5l1.8,0.6c0.6,0.2,1.2,0.4,1.7,0.7l1.7,0.7c0.3,0.1,0.6,0.2,0.9,0.4l0.8,0.4l1.7,0.8
		c0.3,0.2,0.6,0.3,0.8,0.4l0.8,0.5l1.6,1c2.1,1.3,4.1,2.8,5.9,4.5s3.4,3.7,4.5,5.9c1.1,2.2,1.8,4.6,2.1,7.1c0.4,2.4,0.4,4.9,0.4,7.3
		c-0.1,4.9-0.9,9.8-2.2,14.4c-1.3,4.7-3.2,9.2-5.7,13.4c2.4-4.3,4.2-8.8,5.5-13.5s2-9.6,2-14.4c0-2.5-0.1-4.9-0.5-7.3
		c-0.4-2.4-1-4.7-2.1-6.9c-1.1-2.2-2.7-4-4.4-5.7c-1.8-1.7-3.7-3.1-5.8-4.3l-1.6-0.9l-0.8-0.5c-0.3-0.2-0.6-0.3-0.8-0.4l-1.6-0.8
		l-0.8-0.4c-0.3-0.2-0.6-0.3-0.9-0.4l-1.7-0.7c-0.6-0.2-1.1-0.5-1.7-0.6l-1.8-0.6c-0.6-0.2-1.2-0.4-1.8-0.5l-1.8-0.4
		c-0.6-0.2-1.2-0.3-1.8-0.4l-1.8-0.3c-0.6-0.1-1.2-0.2-1.8-0.3l-1.8-0.2c-0.6-0.1-1.2-0.2-1.8-0.2l-1.8-0.1h-0.9c-0.3,0-0.6,0-0.9,0
		c-1.2,0.1-2.4,0.1-3.6,0.2c-1.2,0.2-2.4,0.3-3.6,0.5c-1.2,0.3-2.4,0.5-3.6,0.7c-1.2,0.3-2.4,0.6-3.5,1c-1.2,0.4-2.3,0.8-3.4,1.2
		c-1.1,0.5-2.2,1-3.3,1.4l-3.2,1.7L99,25l0.2-0.3c-1.1,2.9-2.2,5.9-3.2,8.8c-1,3-1.8,6-2.2,9.1c-0.3,1.6-0.4,3.1-0.4,4.6v1.2
		c0,0.4,0.1,0.8,0.1,1.2l0.1,0.6l0.1,0.6c0.1,0.4,0.1,0.8,0.1,1.2c0.4,3.1,1.1,6.1,1.5,9.3c0.1,0.8,0.2,1.6,0.2,2.4
		c0.1,0.8,0.1,1.6,0,2.4c-0.1,1.6-0.4,3.2-0.7,4.7c-0.3,1.6-0.6,3.1-0.6,4.6c-0.1,1.5,0.2,3.1,0.6,4.5c0.9,3,2.6,5.6,4.3,8.2
		l5.2,7.8c1.8,2.6,3.4,5.3,5.6,7.5c1.1,1.1,2.4,2,3.8,2.5c1.4,0.6,2.9,0.9,4.5,0.9c3.1,0,6.1-0.9,9-1.9c1.5-0.6,2.9-1.1,4.4-1.7
		c1.5-0.6,2.9-1.2,4.3-1.8c1.5-0.6,2.9-1.3,4.3-2c1.4-0.7,2.8-1.5,4.1-2.3c1.3-0.9,2.6-1.8,3.8-2.8c1.2-1,2.3-2.1,3.3-3.3
		c2-2.4,3.6-5.2,4.8-8C157,80,157.9,77,158.9,74z"/>
</g>
<path class="st13" d="M122.9,59.8c1.2-1.1,2.4-1.6,3.9-2.3c0.4-0.2,1.3-0.5,1.7-0.6c0.6-0.2,1.4-0.4,2-0.4c2-0.2,2.4-0.6,4.2-0.4
	c0.8,0.1,1.8,0.4,2.5,0.5c1.8,0.3,3.1,1.4,4.5,2.1c0.1,0.1,0.3,0.2,0.2,0.3c0,0.1-0.1,0.2-0.2,0.3c-1.4,1.2-3,2.3-4.7,3.2
	c-0.7,0.3-1.3,0.6-2.1,0.8c-0.9,0.2-1.9,0.3-2.8,0.4c-4.8,0.3-7.1-0.5-10.6-1c-0.2,0-0.3-0.1-0.4-0.2c-0.1-0.1,0-0.2,0.1-0.3
	C121.7,61.3,122.3,60.5,122.9,59.8z"/>
<g>
	<path class="st12" d="M123.3,59.2c0,0,0.1-0.2,0.3-0.4c0.2-0.3,0.5-0.6,0.9-1c0.4-0.4,0.9-0.9,1.4-1.3c0.6-0.5,1.2-0.9,1.8-1.3
		c0.3-0.2,0.7-0.4,1-0.5s0.7-0.3,1.1-0.4c0.7-0.2,1.4-0.2,1.9-0.2c1.1,0,1.9,0.1,1.9,0.1v0.1c0,0-0.2,0.1-0.5,0.1
		c-0.3,0.1-0.8,0.1-1.3,0.2c-0.3,0.1-0.6,0.1-0.9,0.1c-0.3,0.1-0.7,0.1-1,0.2c-0.3,0.1-0.7,0.2-1,0.3c-0.4,0.1-0.7,0.3-1,0.5
		c-1.3,0.7-2.5,1.6-3.2,2.4c-0.4,0.4-0.7,0.7-0.9,1C123.4,59.1,123.3,59.3,123.3,59.2L123.3,59.2z"/>
</g>
<g>
	<path class="st12" d="M141.8,59.1c0,0,0.1,0.2,0.1,0.6s0.1,0.8,0,1.3c-0.1,0.3-0.1,0.5-0.2,0.7c-0.1,0.2-0.2,0.4-0.3,0.6
		c-0.2,0.3-0.4,0.5-0.4,0.5h-0.1c0,0,0-0.3,0.1-0.6c0.1-0.2,0.1-0.4,0.2-0.6c0.1-0.2,0.2-0.4,0.3-0.6c0.2-0.4,0.2-0.9,0.2-1.2
		C141.8,59.3,141.8,59.1,141.8,59.1L141.8,59.1z"/>
</g>
<g>
	<path class="st12" d="M109.5,55.7c0,0,0.1,0.1,0.2,0.3c0.2,0.2,0.3,0.5,0.6,0.9c0.2,0.4,0.5,0.9,0.7,1.5c0.2,0.6,0.4,1.3,0.5,2.1
		c0.1,0.8,0,1.6-0.1,2.5s-0.3,1.8-0.5,2.8s-0.5,1.9-0.9,2.9c-0.4,1-0.8,1.9-1.3,2.9c-1,1.8-2.2,3.6-3.4,5.2
		c-0.6,0.8-1.2,1.5-1.5,2.3c-0.1,0.2-0.2,0.4-0.2,0.6c0,0.2-0.1,0.4-0.1,0.6c0,0.4,0.2,0.8,0.3,1.1c0.3,0.7,0.9,1.2,1.4,1.5
		c0.6,0.3,1.2,0.4,1.7,0.4s0.9-0.1,1.1-0.2c0.1,0,0.2-0.1,0.3-0.1c0.1,0,0.1,0,0.1,0v0c0,0-0.1,0-0.1,0c-0.1,0-0.2,0.1-0.3,0.1
		c-0.3,0.1-0.6,0.2-1.1,0.2c-0.5,0-1.1,0-1.8-0.3s-1.3-0.8-1.7-1.5c-0.2-0.4-0.3-0.8-0.4-1.2c0-0.2,0-0.5,0-0.7
		c0.1-0.2,0.1-0.5,0.2-0.7c0.3-0.9,1-1.7,1.6-2.4c1.2-1.6,2.4-3.3,3.4-5.1c0.5-0.9,1-1.8,1.3-2.8c0.4-1,0.7-1.9,0.9-2.8
		c0.2-0.9,0.4-1.8,0.6-2.7s0.2-1.7,0.2-2.4c-0.1-0.8-0.2-1.5-0.4-2c-0.2-0.6-0.5-1.1-0.7-1.5c-0.2-0.4-0.4-0.7-0.5-0.9
		C109.5,55.8,109.5,55.7,109.5,55.7L109.5,55.7z"/>
</g>
<g>
	<path class="st11" d="M145,102.8c1.4,1,2.3,2.6,2.8,4.2c0.2,0.8,0.3,1.7,0.2,2.5c-0.2,1.7-1.3,3.1-2.3,4.4
		c-6.5,8.3-13.3,16.5-17.7,26.1c0.7-1.8,0.6-3.8-0.2-5.5c-0.6-1.1-1.7-2.1-2.9-1.8c3.3-5.7,7.3-10.9,12-15.5
		c0.9-0.9,1.9-1.8,2.8-2.7c1.5-1.5,2.9-3.1,4.2-4.8c0.8-1,1.6-2.2,1.8-3.5s-0.2-2.8-1.4-3.4"/>
	<path class="st5" d="M145,102.8c1.6,1,2.6,2.8,3,4.6c0.2,0.9,0.3,1.9,0.1,2.9c-0.2,1-0.7,1.8-1.2,2.6c-0.5,0.8-1.1,1.5-1.7,2.3
		l-1.7,2.2l-3.4,4.4c-2.2,3-4.4,5.9-6.5,9c-2,3.1-3.9,6.3-5.5,9.6l-0.8-0.3c0.6-1.3,0.6-2.9,0.2-4.3c-0.2-0.7-0.6-1.4-1.1-1.9
		c-0.5-0.5-1.1-0.8-1.8-0.7l-0.8,0.2l0.4-0.7c3.2-5.5,7.1-10.5,11.6-15l3.4-3.3c1.1-1.1,2.2-2.3,3.2-3.5c1-1.2,2.1-2.4,2.6-3.9
		c0.3-0.7,0.4-1.5,0.2-2.3c-0.2-0.8-0.6-1.5-1.3-1.9l0-0.1c0.7,0.4,1.2,1.1,1.4,1.9c0.2,0.8,0.1,1.6-0.2,2.4
		c-0.3,0.8-0.7,1.4-1.1,2.1c-0.5,0.6-0.9,1.3-1.4,1.9c-1,1.2-2,2.4-3.2,3.6l-3.4,3.3c-4.4,4.5-8.2,9.6-11.4,15l-0.4-0.5
		c0.5-0.1,0.9,0,1.4,0.1c0.4,0.2,0.8,0.4,1.1,0.7c0.6,0.6,1,1.4,1.3,2.1c0.5,1.6,0.5,3.3-0.1,4.8l-0.8-0.3c1.6-3.4,3.4-6.7,5.4-9.8
		c2-3.1,4.2-6.1,6.5-9l3.5-4.3l1.7-2.2c0.6-0.7,1.2-1.4,1.7-2.2c0.5-0.7,1-1.5,1.2-2.4c0.2-0.8,0.2-1.7,0.1-2.6
		C147.3,105.7,146.4,104,145,102.8L145,102.8z"/>
</g>
<path class="st13" d="M110.9,89.6c0.3,1,1.4,1.6,1.4,2.5c0,0.4-0.2,0.9,0.2,1.2c0.1,0.1,0.3,0.1,0.4,0.1c0.8,0.1,1.6,0.3,2.4,0.4
	c0.3,0.1,0.6,0.1,0.9,0c0.3-0.1,0.5-0.3,0.8-0.3c0.5-0.2,1.1-0.1,1.7-0.3c0.3-0.1,0.6-0.3,0.9-0.4c2.3-1.5,4.8-3.2,5.7-5.8
	c-1.2,0.1-2.3,0.9-3.5,1.3c-0.5,0.2-1.1,0.3-1.6,0.4C117.1,89.3,114,89.6,110.9,89.6"/>
<g>
	<path class="st12" d="M111.5,82.8c0,0,0,0-0.1,0c-0.1,0-0.2,0.1-0.4,0c-0.2,0-0.3-0.2-0.4-0.4c-0.1-0.3,0-0.5,0.2-0.7
		c0.2-0.2,0.4-0.4,0.7-0.5c0.3-0.1,0.6-0.1,1-0.1c0.4,0,0.7,0.1,1,0.1c0.3,0,0.6-0.1,0.9-0.2l0,0l0,0l0,0c0,0,0,0,0,0l0,0l0,0
		l0.1-0.1c0,0,0.1-0.1,0.1-0.1c0.1-0.1,0.1-0.2,0.2-0.4c0.1-0.3,0.1-0.6,0-0.9c-0.1-0.3-0.2-0.5-0.3-0.8c-0.1-0.3-0.3-0.4-0.4-0.7
		c-0.2-0.2-0.3-0.3-0.5-0.4c-0.2-0.1-0.3-0.2-0.5-0.2c-0.1-0.1-0.2,0-0.4-0.1c-0.1,0-0.1,0-0.1,0l0-0.1c0,0,0,0,0.1,0
		c0.1,0,0.2,0,0.4,0c0.3,0,0.8,0.2,1.2,0.5c0.2,0.2,0.4,0.4,0.6,0.7c0.2,0.3,0.3,0.6,0.4,0.9c0.1,0.4,0.1,0.7-0.1,1.1
		c0,0.2-0.2,0.3-0.3,0.5c-0.1,0.1-0.1,0.1-0.2,0.2l-0.1,0.1l0,0l0,0l0,0l0,0c-0.4,0.2-0.8,0.2-1.1,0.2c-0.4,0-0.7-0.1-1-0.1
		c-0.3,0-0.6-0.1-0.9,0c-0.3,0.1-0.5,0.2-0.7,0.4c-0.2,0.2-0.3,0.4-0.2,0.6c0,0.2,0.2,0.3,0.3,0.4C111.4,82.9,111.5,82.7,111.5,82.8
		L111.5,82.8z"/>
</g>
<g>
	<path class="st12" d="M108.1,87.2c0,0,0,0.1,0.2,0.2c0.1,0.1,0.3,0.3,0.5,0.5c0.2,0.2,0.5,0.4,0.9,0.5c0.3,0.1,0.8,0.3,1.3,0.3
		c0.9,0.2,2.1,0.1,3.4,0.1c0.6,0,1.3,0,1.9-0.1c0.7,0,1.3-0.1,1.9-0.3l0.3-0.1c0.1,0,0.2-0.1,0.2-0.1l0.5-0.2c0.3-0.1,0.7-0.2,1-0.3
		c0.6-0.2,1.2-0.5,1.8-0.7c1.2-0.5,2.3-0.9,3.2-1.4c0.9-0.4,1.7-0.8,2.2-1.1c0.5-0.3,0.8-0.5,0.8-0.5s-0.1,0.1-0.2,0.2
		c-0.1,0.1-0.3,0.3-0.6,0.5c-0.5,0.4-1.2,1-2.1,1.5c-0.9,0.6-2,1.2-3.2,1.7c-0.3,0.1-0.6,0.3-0.9,0.4c-0.2,0.1-0.3,0.1-0.5,0.2
		l-0.3,0.1l-0.3,0.1c-0.3,0.1-0.6,0.2-1,0.4l-0.5,0.2c-0.1,0.1-0.2,0.1-0.3,0.1l-0.3,0.1c-0.7,0.2-1.4,0.3-2.1,0.3
		c-0.7,0-1.3,0-2-0.1c-0.7,0-1.2-0.1-1.8-0.2c-0.6-0.1-1.1-0.2-1.6-0.4c-0.5-0.1-0.9-0.3-1.3-0.6c-0.4-0.3-0.7-0.5-0.9-0.8
		c-0.2-0.2-0.3-0.5-0.4-0.6C108.2,87.2,108.1,87.2,108.1,87.2z"/>
</g>
<g>
	<path class="st12" d="M130.5,83.2c0,0,0.1,0,0.1,0.1c0.1,0.1,0.2,0.2,0.3,0.3c0.2,0.2,0.4,0.6,0.5,0.9c0.2,0.4,0.3,0.7,0.3,1
		c0.1,0.2,0.1,0.3,0.1,0.4s0,0.2,0,0.2s-0.1,0-0.1-0.1c-0.1-0.1-0.2-0.2-0.3-0.3c-0.2-0.2-0.4-0.6-0.5-0.9c-0.2-0.4-0.3-0.7-0.3-1
		C130.5,83.4,130.5,83.2,130.5,83.2z"/>
</g>
<g>
	<path class="st12" d="M109.9,89c0,0,0.1,0.1,0.2,0.1c0.1,0.1,0.3,0.2,0.5,0.3s0.4,0.3,0.6,0.6c0.2,0.2,0.4,0.5,0.6,0.8
		c0.1,0.2,0.2,0.3,0.2,0.5c0.1,0.2,0.1,0.3,0.2,0.5c0.1,0.3,0.2,0.6,0.2,0.8s0,0.5,0,0.6c0,0.2-0.1,0.2-0.1,0.2s-0.1-0.1-0.1-0.2
		c-0.1-0.2-0.1-0.3-0.2-0.5c-0.2-0.4-0.4-1-0.7-1.5c-0.2-0.3-0.3-0.5-0.5-0.7c-0.2-0.2-0.3-0.4-0.5-0.6c-0.2-0.2-0.3-0.3-0.4-0.4
		C110,89.1,109.9,89,109.9,89z"/>
</g>
<g>
	<path class="st12" d="M111.1,92.9c0,0,0.3,0.1,0.7,0.3c0.2,0.1,0.5,0.2,0.8,0.2c0.3,0.1,0.7,0.1,1.1,0.2s0.9,0.1,1.3,0.1
		c0.5,0,1-0.1,1.4-0.2c0.5-0.1,1-0.2,1.5-0.4s1-0.4,1.5-0.6c0.5-0.3,1-0.5,1.4-0.8c0.5-0.3,0.9-0.6,1.2-0.9c0.4-0.4,0.8-0.7,1.1-1
		c0.3-0.3,0.6-0.7,0.9-1c0.5-0.7,0.9-1.2,1.1-1.6c0.3-0.4,0.4-0.7,0.4-0.7s-0.1,0.1-0.1,0.2c-0.1,0.1-0.1,0.3-0.2,0.5
		c-0.1,0.2-0.3,0.5-0.4,0.8s-0.4,0.6-0.6,1c-0.5,0.7-1.1,1.4-1.9,2.1c-0.4,0.4-0.8,0.7-1.3,1s-1,0.6-1.4,0.8c-0.5,0.3-1,0.5-1.6,0.6
		c-0.5,0.2-1.1,0.3-1.6,0.3c-1,0.2-2,0.1-2.8-0.1c-0.4-0.1-0.8-0.2-1.1-0.3c-0.3-0.1-0.6-0.2-0.8-0.3c-0.2-0.1-0.4-0.2-0.5-0.3
		C111.1,92.9,111.1,92.9,111.1,92.9z"/>
</g>
<g>
	<path class="st12" d="M113.4,96c0,0,0.1,0.1,0.3,0.1c0.2,0.1,0.5,0.1,0.8,0.2c0.2,0.1,0.4,0.1,0.5,0.1c0.2,0.1,0.4,0.1,0.6,0.1
		c0.4,0.1,0.8,0.1,1.3,0c0.4-0.1,0.9-0.1,1.2-0.2c0.2-0.1,0.4-0.1,0.6-0.2s0.4-0.1,0.5-0.2c0.3-0.1,0.6-0.2,0.7-0.3
		c0.2-0.1,0.3-0.1,0.3-0.1s-0.1,0.1-0.3,0.2c-0.2,0.1-0.4,0.3-0.7,0.5c-0.3,0.2-0.7,0.3-1.1,0.5c-0.2,0.1-0.4,0.1-0.7,0.2
		c-0.2,0.1-0.5,0.1-0.7,0.1c-0.2,0-0.5,0-0.7,0s-0.5-0.1-0.7-0.1c-0.4-0.1-0.8-0.2-1.1-0.3c-0.3-0.1-0.6-0.3-0.7-0.4
		C113.5,96,113.4,96,113.4,96z"/>
</g>
<path class="st14" d="M119.1,54.9c-0.6,0.6,2.6,1.2,3.4,1c0.8-0.3,11.8-4.9,12.3-5c0.9-0.3,1.8,0.1,2.6,0.4c2.8,1,5.6,2.1,8.4,3.1
	c-3.2-2-6.5-3.8-9.9-5.3c-0.3-0.2-0.6-0.3-0.9-0.3c-0.8-0.1-7.5,2.5-10.2,3.7C123,53,119.1,54.9,119.1,54.9z"/>
<path class="st15" d="M128.8,56.8c-1.3,1.2-1.4,3.3-0.3,4.6c0.9,1.1,2.4,1.5,3.8,1.5c0.3,0,0.6-0.1,0.8-0.2c0.3-0.1,0.8-0.3,1.1-0.6
	c0.6-0.6,0.6-0.5,1-1.4c0.3-0.7,0.3-1.3,0.3-2c0-0.5,0-1-0.2-1.4c-0.3-0.7-1.1-1.2-1.8-1.3c-0.8-0.2-1.5-0.1-2.3,0.1
	c-0.7,0.1-1.4,0.2-2,0.4C129,56.5,128.8,56.6,128.8,56.8"/>
<path class="st13" d="M108.6,59c-0.9-1.1-1.7-2.1-2.8-2.9c-0.3-0.2-0.6-0.4-0.9-0.5c-0.4-0.2-1.1-0.4-1.6-0.4
	c-1.5-0.2-2.2-0.2-3.5-0.1c-0.6,0.1-1.4,0.2-1.9,0.3c-1.3,0.3-2.4,1.3-3.3,2.2C94.7,57.8,95,58,95,58.1c0,0.1,0.1,0.3,0.2,0.4
	c1,1.3,1.7,2.1,3,3c0.5,0.3,1,0.6,1.5,0.8c0.7,0.2,1.4,0.3,2.1,0.4c3.6,0.4,5.3-0.4,8-0.9c0.1,0,0.2-0.1,0.3-0.2
	c0.1-0.1,0-0.2-0.1-0.3C109.5,60.6,109.1,59.8,108.6,59z"/>
<g>
	<path class="st12" d="M108.3,58.5c0,0-0.1-0.2-0.2-0.4c-0.2-0.2-0.4-0.6-0.6-0.9c-0.3-0.4-0.6-0.8-1-1.2c-0.4-0.4-0.8-0.8-1.3-1.2
		c-0.3-0.2-0.5-0.4-0.7-0.5s-0.5-0.3-0.8-0.4c-0.3-0.1-0.5-0.2-0.8-0.3c-0.3-0.1-0.5-0.1-0.7-0.2c-0.9-0.2-1.5-0.3-1.5-0.3v-0.1
		c0,0,0.2,0,0.4-0.1c0.3,0,0.7-0.1,1.1,0s1,0.1,1.6,0.3c0.3,0.1,0.6,0.3,0.8,0.5c0.3,0.2,0.5,0.4,0.7,0.6c0.5,0.4,0.9,0.9,1.3,1.3
		c0.4,0.5,0.7,0.9,0.9,1.3c0.3,0.4,0.4,0.7,0.6,1C108.3,58.4,108.3,58.5,108.3,58.5L108.3,58.5z"/>
</g>
<path class="st15" d="M103.8,55.1c-1.5,0-2.8,1.4-2.9,2.8c-0.1,1.2,0.7,2.4,1.6,3.2c0.2,0.2,0.4,0.3,0.6,0.4
	c0.2,0.1,0.7,0.3,1.1,0.3c0.8,0,0.7,0.1,1.5-0.4c0.6-0.3,0.9-0.7,1.3-1.2c0.3-0.3,0.6-0.7,0.7-1.1c0.2-0.7,0-1.4-0.4-1.9
	c-0.4-0.5-1-0.9-1.5-1.3c-0.5-0.4-1-0.7-1.5-1c-0.1-0.1-0.4-0.1-0.4,0.1"/>
<circle class="st13" cx="133.6" cy="57.8" r="1.1"/>
<path class="st14" d="M109.8,53.2c0.5,0.5-2,1.4-2.7,1.3c-0.7-0.2-9.9-4-10.3-4.1c-0.7-0.2-1.4,0.2-2.1,0.6
	c-2.2,1.2,0.8-0.5-1.4,0.8c-0.3-1.9-0.2-1.4,2.6-3.1c0.3-0.2,0.5-0.3,0.8-0.4c0.6-0.2,6.3,2,8.5,2.9
	C106.5,51.7,109.8,53.2,109.8,53.2z"/>
<circle class="st13" cx="106.4" cy="58.2" r="1.1"/>
<g>
	<g>
		<path class="st12" d="M121.5,62.4c4.7-6.2,12.9-7.4,19.3-3.1c0.4,0.3,1.7-0.3,1.4-0.6c-7.2-4.8-16.8-3.2-22,3.7
			C119.8,62.9,121.2,62.8,121.5,62.4L121.5,62.4z"/>
	</g>
</g>
<g>
	<g>
		<path class="st12" d="M109.9,61.3c-0.7-1.5-1-3.2-2.1-4.4c-1.1-1.1-2.5-1.6-4-1.9c-3.9-0.9-7.1,0.6-10.4,2.5
			c-0.9,0.5-0.1,1.3,0.7,0.9c2.7-1.6,5.3-3,8.6-2.5c1.2,0.2,2.6,0.6,3.5,1.4c1.4,1.1,1.7,2.9,2.3,4.4
			C108.7,62.4,110.2,61.9,109.9,61.3L109.9,61.3z"/>
	</g>
</g>
<g>
	<g>
		<path class="st12" d="M96.3,56.2c-1-0.1-1.9,0.2-2.7,0.6c-0.3,0.2-0.2,0.3,0.1,0.3c0.4,0,0.7-0.1,1-0.3c0.2-0.1,0.5-0.1,0.7-0.1
			c0.4,0.1,0.8-0.1,1-0.3C96.6,56.3,96.6,56.2,96.3,56.2L96.3,56.2z"/>
	</g>
</g>
<g>
	<g>
		<path class="st12" d="M97.1,55.4c-0.4,0-0.8,0-1.2,0c-0.3,0-0.8,0.1-1,0.4c-0.2,0.3,0.2,0.4,0.4,0.4c0.4,0,0.8,0,1.2,0
			c0.3,0,0.8-0.1,1-0.4C97.7,55.5,97.3,55.4,97.1,55.4L97.1,55.4z"/>
	</g>
</g>
<g>
	<g>
		<path class="st12" d="M139,57.9c0.4,0,0.8,0,1.2,0c0.3,0,0.8-0.1,1-0.4s-0.2-0.5-0.4-0.5c-0.4,0-0.8,0-1.2,0c-0.3,0-0.8,0.1-1,0.4
			C138.4,57.8,138.8,57.9,139,57.9L139,57.9z"/>
	</g>
</g>
<g>
	<g>
		<path class="st12" d="M141.4,59c0.2-0.1,0.4-0.1,0.5-0.2c0.2-0.1,0.6-0.3,0.4-0.5s-0.8-0.1-1,0c-0.2,0.1-0.4,0.1-0.5,0.2
			c-0.2,0.1-0.6,0.3-0.4,0.5C140.7,59.2,141.2,59,141.4,59L141.4,59z"/>
	</g>
</g>
<g>
	<g>
		<path class="st12" d="M142.3,59.2c0.2-0.2,0.5-0.4,0.7-0.5c0.3-0.2-0.3-0.3-0.4-0.3c-0.4,0.1-0.7,0.2-1,0.4
			c-0.2,0.2-0.5,0.4-0.7,0.5c-0.3,0.2,0.3,0.3,0.4,0.3C141.7,59.5,142,59.4,142.3,59.2L142.3,59.2z"/>
	</g>
</g>
<g>
	<g>
		<path class="st12" d="M140.5,58.5c0.6-0.1,1.3-0.4,1.5-1c0.1-0.3-0.5-0.2-0.6-0.2c-0.3,0.1-0.7,0.2-0.9,0.4
			c-0.1,0.1-0.1,0.1-0.1,0.2l-0.1,0.1c0.1-0.1,0.2-0.1,0.4-0.1c-0.2,0.1-0.4,0.1-0.6,0.2c-0.1,0.1-0.3,0.2-0.3,0.3
			C139.8,58.6,140.4,58.5,140.5,58.5L140.5,58.5z"/>
	</g>
</g>
<path class="st16" d="M159.4,24.7c3.1,2,6,4.2,8.8,6.7c1.6,1.5,3.4,3.4,3,5.6c-0.1,0.9-0.7,1.9-0.4,2.8c0.2,0.9,1,1.5,1.7,2.1
	c1.5,1.6,2.2,3.9,1.6,6c-0.3,1.1-0.9,2.3-0.4,3.4c0.2,0.5,0.7,0.9,1.1,1.4c1.6,1.7,2.6,4.2,1.8,6.3c-0.4,1.1-1.3,2-1.7,3.1
	c-1.3,3.3,1.7,7.2,0.3,10.5c-0.5,1.2-1.6,2.3-1.6,3.6c0,0.9,0.5,1.8,0.8,2.6c0.9,2.4,0.2,5.4-1.6,7.2c-1.5,1.4-3.7,2.4-4,4.5
	c-0.2,1.8,1.3,3.7,0.5,5.3c-0.7,1.3-2.5,1.6-3.3,2.9c-1.8,2.6,2,6.9-0.4,8.9c-0.7,0.6-1.6,0.7-2.2,1.4c-0.5,0.6-0.4,1.5-0.3,2.3
	c0.2,1.6,0.4,3.2,0,4.8s-1.6,3-3.2,3.1c-1.7,0.2-3.2-1.2-4.4-2.5c-2.5-2.6-4.9-5.1-7.4-7.7c-1.6-1.7-3.3-3.5-3.8-5.8
	c-0.6-2.8,0.6-5.7,2.1-8.1c3.5-5.8,8.2-10.8,11.4-16.8c6-11.1,0.9-23.7,0.7-36.3c0-2.2-0.6-7.2-1.2-9.3c-0.7-2.6,3.4-2.9,1.7-4.9"/>
<g>
	<path class="st2" d="M157.4,55.6c0.8-0.6,1.7-1.1,2.6-1.7c1.6-1.1,3.6-2.2,5.4-1.5c1.6,0.6,2.3,2.4,2.7,4c0.9,4,0.2,8.3-2,11.9
		c-2.1,3.5-5.6,6.2-9.6,7.2"/>
	<path class="st12" d="M157.4,55.6c0,0,0.5-0.4,1.3-1c0.4-0.3,0.9-0.7,1.6-1.1c0.6-0.4,1.3-0.9,2.2-1.2c0.8-0.4,2-0.6,3.1-0.1
		c0.2,0.1,0.5,0.2,0.8,0.4s0.4,0.4,0.7,0.6c0.4,0.4,0.7,1,0.9,1.5c0.3,0.5,0.4,1.1,0.6,1.7c0,0.3,0.1,0.6,0.2,0.8
		c0,0.3,0.1,0.6,0.1,0.9c0.1,1.2,0.1,2.4,0,3.7c-0.1,1.2-0.4,2.4-0.8,3.6s-0.9,2.2-1.6,3.2c-0.3,0.4-0.6,0.9-1,1.4
		c-0.4,0.4-0.7,0.8-1.1,1.2c-0.8,0.8-1.5,1.4-2.3,1.9c-0.8,0.5-1.5,0.9-2.2,1.2c-0.7,0.3-1.3,0.5-1.8,0.7c-0.5,0.2-0.9,0.3-1.2,0.4
		c-0.3,0-0.4,0.1-0.4,0.1s0.1,0,0.4-0.1c0.3-0.1,0.7-0.3,1.2-0.4c0.5-0.2,1.1-0.5,1.7-0.8c0.6-0.4,1.3-0.8,2-1.4
		c0.7-0.5,1.4-1.2,2.1-2c0.4-0.4,0.7-0.8,1-1.2c0.3-0.4,0.6-0.8,0.9-1.3c0.6-0.9,1-2,1.4-3.1c0.4-1.1,0.6-2.3,0.8-3.4s0.1-2.4,0-3.5
		c0-0.6-0.1-1.1-0.3-1.7c-0.1-0.5-0.3-1.1-0.5-1.6c-0.4-1-1-1.8-1.9-2.2c-0.8-0.4-1.8-0.3-2.6,0c-0.8,0.3-1.6,0.7-2.2,1
		c-0.6,0.4-1.2,0.7-1.6,1C157.9,55.4,157.4,55.6,157.4,55.6z"/>
</g>
<g>
	<path class="st2" d="M161.3,71.6c0.4-1,0.9-2,1.8-2.7c0.4-0.2,0.8-0.4,1.1-0.7c0.3-0.3,0.5-0.8,0.7-1.2c0.3-0.7,0.6-1.5,1-2.2
		c0.3-0.7,0.6-1.5,0.6-2.2c0-0.6-0.1-1.1-0.3-1.6c-0.4-1.2-0.7-2.4-1.1-3.6c-0.2-0.6-0.4-1.3-0.9-1.7c-0.6-0.5-1.4-0.5-2-0.3
		c-2.4,0.7-3.7,3.2-4.8,5.5c-0.2,0.5-0.5,1.1-0.6,1.6c-0.1,0.5,0,1.1,0.1,1.6c0.2,1.2,1.9,1.2,2.4,2.2c0.2,0.4-2,4.5-2.9,5.1
		c0.5,0.8,1.6,1.8,2.6,1.7c0.9,0,1.8-0.7,2.3-1.6"/>
	<path class="st12" d="M161.3,71.6c0.3-0.8,0.6-1.6,1.2-2.3c0.3-0.4,0.7-0.6,1-0.8c0.4-0.2,0.7-0.4,0.8-0.8s0.3-0.8,0.5-1.2l0.5-1.2
		c0.3-0.8,0.7-1.6,0.8-2.3c0.1-0.8-0.2-1.5-0.4-2.4l-0.7-2.4c-0.3-0.8-0.4-1.7-0.8-2.2c0,0-0.1-0.1-0.2-0.2
		c-0.1-0.1-0.1-0.1-0.2-0.1c-0.1-0.1-0.3-0.1-0.4-0.1c-0.3,0-0.7,0-1.1,0.1c-0.4,0.1-0.7,0.3-1.1,0.5c-0.3,0.2-0.6,0.4-0.9,0.8
		c-0.6,0.6-1,1.2-1.5,1.9c-0.4,0.7-0.8,1.5-1.2,2.2c-0.2,0.4-0.4,0.8-0.4,1.1s-0.1,0.7-0.1,1.1c0,0.2,0,0.4,0,0.6v0.1v0l0,0
		c0,0,0,0,0,0l0,0l0,0.1c0,0,0,0,0,0.1c0,0,0,0,0,0.1c0.1,0.2,0.5,0.4,0.8,0.6c0.4,0.2,0.8,0.4,1.2,0.8c0.1,0.1,0.2,0.2,0.2,0.3l0,0
		c0,0,0,0.1,0,0.1l0,0l0,0c0,0,0,0.1,0,0.2s0,0.1,0,0.2c-0.1,0.2-0.2,0.4-0.3,0.6c-0.4,0.8-0.8,1.6-1.2,2.3
		c-0.2,0.4-0.4,0.7-0.7,1.1c-0.3,0.4-0.5,0.7-0.9,1l0-0.3c0.2,0.4,0.5,0.8,0.9,1.1c0.4,0.3,0.8,0.6,1.3,0.6h0.2c0,0,0.1,0,0.2,0
		c0.1,0,0.2,0,0.4-0.1c0.2,0,0.5-0.2,0.7-0.3c0.4-0.3,0.8-0.6,1-1.1c-0.2,0.5-0.5,0.9-0.9,1.2c-0.2,0.1-0.4,0.3-0.7,0.4
		c-0.1,0-0.3,0.1-0.4,0.1c-0.1,0-0.1,0-0.2,0c-0.1,0-0.1,0-0.2,0c-0.6,0-1.1-0.3-1.5-0.6c-0.4-0.3-0.8-0.7-1.1-1.2l-0.1-0.2l0.2-0.1
		c0.3-0.2,0.5-0.6,0.8-0.9c0.2-0.4,0.4-0.7,0.6-1.1c0.4-0.7,0.8-1.5,1.1-2.2c0.1-0.2,0.1-0.4,0.2-0.5c0,0,0-0.1,0-0.1v0c0,0,0,0,0,0
		l0,0l0,0c0,0,0,0.1,0,0v0c0,0-0.1-0.1-0.1-0.2c-0.2-0.2-0.6-0.4-0.9-0.6c-0.2-0.1-0.4-0.2-0.6-0.3c-0.2-0.1-0.4-0.3-0.6-0.5
		c-0.1-0.1-0.2-0.3-0.2-0.4l0-0.1v-0.1v0v-0.1c0-0.2,0-0.4-0.1-0.7c0-0.4,0-0.9,0.1-1.4c0.1-0.4,0.3-0.8,0.5-1.2
		c0.4-0.8,0.8-1.6,1.2-2.3c0.4-0.8,0.9-1.5,1.6-2.1c0.3-0.3,0.7-0.6,1.1-0.8c0.4-0.2,0.8-0.5,1.2-0.6c0.5-0.2,0.9-0.2,1.5-0.1
		c0.3,0,0.5,0.1,0.8,0.2c0.1,0,0.3,0.2,0.3,0.2c0.1,0.1,0.2,0.2,0.3,0.3c0.3,0.4,0.5,0.8,0.6,1.3l0.4,1.2l0.7,2.4
		c0.1,0.4,0.2,0.8,0.3,1.2c0.1,0.4,0.1,0.9,0,1.4c-0.2,0.9-0.6,1.7-0.9,2.4l-0.5,1.2c-0.2,0.4-0.4,0.8-0.6,1.2
		c-0.1,0.2-0.3,0.4-0.4,0.5c-0.2,0.1-0.4,0.3-0.6,0.4c-0.4,0.2-0.7,0.4-1,0.7C162,70.1,161.6,70.8,161.3,71.6z"/>
</g>
<g>
	<g>
		<path d="M100.3,58.2c0.4,1.1,0.8,2,1.7,2.7c0.8,0.6,1.7,0.8,2.6,0.9c0.5,0.1,1.6-0.7,0.6-0.8c-1.9-0.1-2.9-1.6-3.4-3.2
			C101.5,57.3,100.1,57.8,100.3,58.2L100.3,58.2z"/>
	</g>
</g>
<g>
	<g>
		<path d="M127,60.2c0.9,1.6,2.4,2.5,4.2,2.6c0.5,0,1.6-0.7,0.6-0.7c-1.5-0.1-2.7-1-3.4-2.3C128.3,59.4,126.9,59.9,127,60.2
			L127,60.2z"/>
	</g>
</g>
<g>
	<path d="M112.1,91.4c0,0,0.1,0,0.2,0s0.2,0,0.3,0c0.2,0,0.3,0,0.5,0.1c0.2,0.1,0.3,0.1,0.5,0.2c0.4,0.1,0.7,0.1,1,0.2
		s0.5,0.1,0.5,0.1v0.1c0,0-0.2,0.1-0.5,0.1c-0.3,0.1-0.7,0.1-1,0.1c-0.2,0-0.4,0-0.6,0c-0.2-0.1-0.4-0.1-0.5-0.2
		c-0.2-0.1-0.3-0.2-0.3-0.3C112.1,91.5,112.1,91.4,112.1,91.4L112.1,91.4z"/>
</g>
<path d="M123.4,87.3c0.1,0.8,0.1,1.5-0.1,2.2c0.3-0.2,0.5-0.5,0.7-0.8s0.3-0.6,0.5-0.9c0.2-0.2,0.4-0.4,0.5-0.6
	c0.2-0.2,0.3-0.5,0.2-0.8c-0.2,0.1-0.4,0.2-0.6,0.3c-0.4,0.2-0.8,0.3-1.2,0.6"/>
<g>
	<path d="M114,122.4c0,0,0.2,0.1,0.5,0.2c0.3,0.1,0.8,0.2,1.3,0.1c0.3-0.1,0.4-0.1,0.4-0.3c0.1-0.2,0.2-0.6,0.3-0.9
		c0.2-0.7,0.4-1.4,0.5-2.2c0.3-1.6,0.3-3.2,0.3-4.4c0-1.2,0-2,0-2l0.1,0c0,0,0.1,0.8,0.2,2c0.1,1.2,0.2,2.8,0.1,4.5
		c-0.1,0.8-0.1,1.6-0.3,2.4c-0.1,0.4-0.2,0.7-0.4,1.1c-0.1,0.2-0.4,0.4-0.6,0.5c-0.2,0.1-0.4,0.1-0.6,0.1c-0.7,0-1.2-0.3-1.5-0.5
		C114,122.7,113.9,122.5,114,122.4L114,122.4z"/>
</g>
<g>
	<path class="st14" d="M160.7,51.7c-0.4,1.3-1.2,2.4-2.4,3c2.2,1.8,2,5.8-0.5,7.3c1.5,0.7,1.6,2.8,0.9,4.3c-0.7,1.5-1.9,2.7-2.4,4.3
		c-0.4,1.6,0,3.2-0.1,4.9s-1.3,3.5-2.9,3.3c1.6-1.4,1.3-3.9,1-6c-0.3-2.1-0.2-4.7,1.7-5.7c-1.6-2.1,0.5-5,0.5-7.6
		c0-0.9-0.3-1.7-0.3-2.5c-0.1-2.8,2-5.9,0.2-8c-1,0.3-1.8,1-2.3,1.8c1.3,0.7,2.2,2.2,2.1,3.7c-0.1,1.5-1.2,2.9-2.7,3.3
		c1.3,0.6,1.9,2.3,1.3,3.6c-0.7,1.4-2.5,2.4-2,3.9c0.2,0.5,0.6,0.8,0.9,1.3c1.1,1.6,0,4.1-1.9,4.4c2.5,2.4,1.4,7.2-1.9,8.5
		c0.2,1.4,0.3,2.8,0,4.1c-0.3,1.3-1.3,2.6-2.6,3c1.2-0.5,1.3-2.2,0.9-3.5c-0.4-1.3-1-2.6-0.5-3.8c0.5-1.3,2.2-1.9,2.5-3.3
		c0.5-2.1-2.4-4.4-0.9-6c0.3-0.3,0.8-0.5,1.1-0.9c0.5-0.9-0.4-1.9-0.6-2.9c-0.6-2.3,2.3-4.6,1.3-6.8c-0.4-0.7-1.2-1.4-1-2.2
		c0.1-0.4,0.5-0.7,0.7-1c1.1-1.4,0.5-3.4-0.1-5c-0.3,0-0.6,0.1-1,0.1c-0.4,1,0.4,2,0.7,3c1,2.5-0.7,5.6-3.3,6.2
		c2.6,2.2,1.9,7.1-1.2,8.4c2,0.9,3.2,3.1,2.9,5.2c-0.3,2.1-2.3,3.9-4.4,4.1c1.4,1.8,2.6,4.4,1.2,6.3c-0.5,0.7-1.3,1.1-2,1.7
		c-1,1-1.6,2.3-2.5,3.4c-0.9,1.1-2.2,2.1-3.6,1.7c2.6-2.4,5.5-5.6,4.4-8.9c-0.6-1.8-2.2-3.7-1.1-5.3c0.9-1.3,3.3-1.2,3.8-2.7
		c0.6-1.6-1.6-2.8-2.3-4.3c-0.6-1.3,0-3,1.3-3.6c0.5-0.2,1.1-0.4,1.5-0.7c1.1-0.9,0.3-2.7-0.6-3.8c-0.9-1.1-1.8-2.7-0.9-3.9
		c0.5-0.6,1.3-0.8,1.8-1.3c1.1-1,0.7-2.9,0.1-4.2c-0.6-1.4-1.4-2.9-0.8-4.3c0.2-0.5,0.6-1,0.9-1.5c1-2-0.8-4.2-2.4-5.8
		c0.9,1.1-0.9,2.3-1.3,3.6c-0.2,0.7-0.1,1.4-0.1,2.1c-0.1,2.4-2.8,4.2-5.1,3.6c-0.6-0.5-0.5-1.4-0.2-2.1c0.4-0.7,1-1.2,1.3-1.9
		c0.8-1.8-0.7-3.8-2.2-5.1c0.5,4.1-4.8,6.7-5.5,10.7c-0.4-1.6-0.2-3.3,0.6-4.7c0.3-0.6,0.8-1.3,1-2c0.4-1.5-0.6-2.9-1.5-4.1
		c-2.3,2-3.5,5.2-2.8,8.2c-0.3-0.2-0.7-0.4-1-0.7c0.4-2.7-1.1-5.5-3.6-6.7c1.4,1.3,1.1,3.5,0.6,5.3c-0.6,1.8-1.3,3.7-0.7,5.5
		c-0.3-1-0.6-2-0.9-3.1c-0.5,0-1,0-1.4-0.1c0.2-1.8,0.4-3.8-0.3-5.5c-0.7-1.7-2.5-3.2-4.3-2.8c-0.3,1.2,0,2.6,0.8,3.6
		c0.4,0.5,0.9,1,1,1.7c0.1,0.7-0.8,1.3-1.2,0.9c0.6,0.9,1.2,1.7,1.9,2.6c-1.2-0.4-2-1.6-2.6-2.8c-0.6-1.2-1.1-2.4-2.1-3.2
		c-1-0.8-2.7-1-3.5,0c-0.4,1,0.3,2,0.4,3s-1.3,2.2-1.9,1.3c0.9,1.3,1.3,3,1.1,4.6c-1.2-3.2-2.7-6.6-5.6-8.5c-2.9-1.9-7.7-1.3-9,1.9
		c1.6,2.1,1.4,5.4-0.6,7.3c-1,0.9-2.4,1.7-2.3,3c0,2,3.1,2.4,3.9,4.2c0.8,1.7-0.5,3.5-1.8,4.9c-1.3,1.3-2.7,3.2-1.8,4.9
		c0.6,1.1,2,1.8,2,3c0,1.4-1.8,2-2.8,2.9c-1.2,1.1-1.4,2.9-0.9,4.3c0.5,1.5,1.8,2.6,3.1,3.4c-2.9,0.3-5.6-2.5-5.1-5.3
		c0.3-1.7,1.6-3.2,1.7-4.9c0.1-0.9-0.2-1.8-0.4-2.7c-0.4-2.4-0.1-4.9,0.8-7.1c0.3-0.6,0.6-1.2,0.4-1.9c-0.1-0.5-0.5-0.9-0.7-1.3
		c-0.7-1.3,0-2.8,0.2-4.2c0.6-3.1-0.9-6.3-0.3-9.4c0.5-2.7,2.6-5.3,1.7-7.9c-0.2-0.6-0.5-1.1-0.8-1.7c-1.5-3.2-0.3-7.3,2.7-9.2
		c-1-3.6,2.3-7.6,6-7.4c-0.3-3.1,3.3-5.8,6.2-4.7c2.1-4.8,7.8-7.8,13-6.8c2.1,0.4,3.6,1.5,5.7,1.9c2.8,0.6,5.6-1.8,8.3-0.9
		c1.1,0.4,2,1.4,3.1,1.8c2.4,0.8,5-1.2,7.5-0.5c2.2,0.6,3.3,3.1,5.5,3.9c2.1,0.8,5-0.1,6.2,1.7c0.6,0.9,0.5,2.1,1,3.1
		c0.8,1.7,3.2,2.3,4.2,3.9c1.4,2.3-0.4,5.2,0.3,7.8c0.3,1,1,1.9,1.5,2.8c1.4,2.6,1.6,5.7,0.4,8.4c-0.3,0.8-0.8,1.5-0.9,2.4
		c-0.1,1,0.2,1.9,0.2,2.9c0,1-0.4,2.1-1.3,2.3"/>
	<path class="st17" d="M160.8,51.7c-0.4,1.3-1.3,2.4-2.4,3.1l0-0.1l0.4,0.4l0.3,0.4l0.3,0.5l0.2,0.5c0.1,0.3,0.2,0.7,0.3,1
		c0,0.4,0.1,0.7,0,1.1c0,0.4-0.1,0.7-0.2,1.1c-0.1,0.3-0.2,0.7-0.4,1l-0.3,0.5l-0.3,0.4l-0.4,0.4l-0.4,0.3l0-0.2
		c0.8,0.3,1.3,1.2,1.4,2c0.1,0.8,0,1.7-0.4,2.4c-0.7,1.5-1.9,2.7-2.3,4.2c-0.4,1.5,0,3.2-0.1,4.8c0,0.4-0.1,0.8-0.3,1.2
		c-0.1,0.4-0.3,0.8-0.6,1.1c-0.3,0.3-0.6,0.6-1,0.9c-0.4,0.2-0.8,0.3-1.3,0.3l-0.4,0l0.3-0.3c0.2-0.2,0.3-0.4,0.5-0.6
		c0.1-0.2,0.3-0.4,0.3-0.7c0.2-0.5,0.3-1,0.3-1.5c0.1-1-0.1-2.1-0.2-3.1c-0.1-1.1-0.2-2.1,0-3.2c0.1-0.5,0.3-1.1,0.6-1.5
		c0.1-0.2,0.3-0.5,0.5-0.7c0.2-0.2,0.4-0.4,0.7-0.5l-0.1,0.4c-0.2-0.3-0.5-0.7-0.5-1.1c-0.1-0.4-0.1-0.8-0.1-1.2
		c0.1-0.8,0.3-1.6,0.5-2.3c0.2-0.8,0.4-1.5,0.5-2.2c0.1-0.7,0-1.5-0.1-2.2c-0.1-0.4-0.1-0.8-0.1-1.2c0-0.4,0-0.8,0.1-1.2
		c0.1-0.8,0.3-1.6,0.5-2.3c0.2-0.8,0.3-1.5,0.3-2.2c0-0.4,0-0.7-0.2-1.1c-0.1-0.3-0.3-0.6-0.5-0.9l0.3,0.1c-0.9,0.3-1.7,0.9-2.2,1.7
		l-0.1-0.4c0.7,0.4,1.3,1,1.7,1.7c0.2,0.4,0.3,0.7,0.4,1.1c0,0.2,0.1,0.4,0.1,0.6c0,0.2,0,0.4,0,0.6c0,0.2,0,0.4-0.1,0.6
		c-0.1,0.2-0.1,0.4-0.2,0.6c-0.2,0.4-0.4,0.7-0.6,1c-0.5,0.6-1.2,1.1-2,1.4l0-0.6c1.4,0.7,2,2.3,1.6,3.8l-0.1,0.3l-0.1,0.2
		c-0.1,0.2-0.2,0.3-0.3,0.5c-0.2,0.3-0.4,0.5-0.6,0.8c-0.4,0.5-0.8,1-0.9,1.5c-0.1,0.5,0.2,1,0.7,1.5l0.2,0.2l0,0.1l0,0.1l0.1,0.1
		c0.1,0.1,0.2,0.3,0.2,0.5c0.1,0.4,0.2,0.7,0.2,1.1c0,0.7-0.3,1.5-0.8,2c-0.4,0.6-1.1,1-1.9,1.2l0.2-0.6l0.5,0.5l0.4,0.6l0.3,0.6
		l0.2,0.6l0.1,0.7l0,0.7l0,0.7l-0.1,0.7l-0.2,0.6l-0.2,0.6l-0.3,0.6l-0.4,0.6l-0.5,0.5l-0.5,0.4l-0.6,0.4l-0.6,0.3l0.2-0.4
		c0.1,0.7,0.2,1.4,0.2,2.1c0,0.4,0,0.7,0,1.1c0,0.4-0.1,0.7-0.2,1.1c-0.1,0.3-0.2,0.7-0.4,1c-0.2,0.3-0.4,0.7-0.6,1
		c-0.5,0.6-1.1,1.1-1.9,1.3l-0.3-0.7c0.6-0.2,0.9-0.9,0.9-1.7c0-0.7-0.2-1.4-0.5-2.2c-0.2-0.8-0.5-1.6-0.4-2.6
		c0.1-1,0.8-1.7,1.4-2.2c0.6-0.5,1.2-1.1,1.3-1.7c0.1-0.7-0.1-1.4-0.5-2.1c-0.3-0.7-0.7-1.4-0.9-2.4c-0.1-0.5,0.1-1.1,0.4-1.5
		c0.3-0.4,0.8-0.6,1-0.8c0.1-0.1,0.1-0.1,0.1-0.2l0,0c0,0,0,0,0,0c0,0,0.1-0.1,0.1-0.1c0-0.1,0-0.2,0-0.4c0-0.3-0.2-0.6-0.4-1
		c-0.2-0.4-0.4-0.8-0.5-1.2c0-0.2-0.1-0.4-0.1-0.7c0-0.2,0-0.5,0.1-0.7c0.2-0.9,0.6-1.6,0.9-2.4c0.3-0.7,0.6-1.5,0.5-2.1
		c0-0.3-0.1-0.6-0.3-0.9c-0.2-0.3-0.5-0.6-0.7-1.1c-0.2-0.4-0.2-1.2,0.1-1.6c0.1-0.2,0.3-0.4,0.4-0.5c0.1-0.1,0.1-0.2,0.2-0.2
		l0.2-0.2c0.3-0.5,0.4-1.3,0.3-2c-0.1-0.7-0.4-1.5-0.7-2.2l0.5,0.3l-1,0.1l0.4-0.3c-0.2,0.6,0.2,1.4,0.6,2.2l0.1,0.3
		c0.1,0.2,0.1,0.2,0.1,0.4c0.1,0.2,0.1,0.5,0.2,0.8c0,0.3,0.1,0.5,0,0.8c0,0.3,0,0.5-0.1,0.8c-0.2,1-0.6,1.9-1.3,2.7
		c-0.7,0.8-1.6,1.3-2.6,1.6l0.2-0.9l0.5,0.5l0.4,0.6l0.3,0.6l0.3,0.6l0.2,0.7l0.1,0.7l0,0.7l-0.1,0.7l-0.1,0.7l-0.2,0.6l-0.3,0.6
		l-0.4,0.6l-0.4,0.5l-0.5,0.5l-0.6,0.4l-0.6,0.3l0-0.9c1.1,0.5,2,1.3,2.6,2.4c0.3,0.5,0.5,1.1,0.6,1.7c0.1,0.3,0.1,0.6,0.1,0.9
		c0,0.3,0,0.6-0.1,0.9l-0.1,0.4l-0.1,0.4c-0.1,0.3-0.2,0.5-0.4,0.8c-0.3,0.5-0.7,1-1.1,1.4c-0.9,0.8-2,1.3-3.2,1.4l0.3-0.8
		c1,1.2,1.8,2.6,1.9,4.3c0.1,0.8-0.1,1.7-0.6,2.5c-0.2,0.3-0.6,0.7-0.9,0.9l-0.9,0.7c-0.1,0.1-0.3,0.2-0.4,0.3
		c-0.1,0.1-0.3,0.2-0.4,0.4c-0.2,0.3-0.4,0.5-0.6,0.8c-0.4,0.6-0.8,1.3-1.3,1.9c-0.1,0.2-0.2,0.3-0.4,0.5c-0.1,0.2-0.3,0.3-0.4,0.4
		c-0.3,0.3-0.6,0.5-1,0.8c-0.7,0.4-1.6,0.7-2.5,0.5l-0.9-0.2l0.7-0.6c0.9-0.8,1.8-1.7,2.5-2.7c0.8-0.9,1.4-2,1.7-3.1
		c0.3-1.1,0.2-2.3-0.3-3.3l-0.8-1.7c-0.2-0.6-0.5-1.3-0.5-2c0-0.4,0.1-0.8,0.3-1.1l0.1-0.1l0,0l0-0.1l0,0l0.2-0.2
		c0.1-0.2,0.3-0.3,0.5-0.4c0.6-0.4,1.2-0.6,1.8-0.9c0.5-0.2,1-0.5,1.2-0.9c0,0,0.1-0.1,0.1-0.1l0.1-0.2c0-0.1,0-0.2,0-0.3
		c0-0.2-0.1-0.4-0.3-0.7c-0.6-0.9-1.7-1.7-2.2-3.1c-0.4-1.5,0.2-3.1,1.5-3.8c0.7-0.4,1.3-0.5,1.6-0.8c0.3-0.3,0.4-0.8,0.3-1.3
		c-0.1-0.5-0.4-1-0.7-1.5c-0.3-0.5-0.8-1-1.1-1.6c-0.3-0.6-0.6-1.3-0.5-2.1c0-0.4,0.2-0.8,0.5-1.1c0.2-0.3,0.6-0.5,0.9-0.7
		c0.3-0.2,0.6-0.3,0.8-0.5c0.1-0.1,0.2-0.2,0.3-0.2c0.1-0.1,0.2-0.2,0.2-0.3c0.2-0.4,0.3-1,0.2-1.5c-0.1-1.1-0.8-2.2-1.2-3.4
		c-0.2-0.6-0.4-1.3-0.4-2c0-0.7,0.4-1.5,0.8-2c0.7-0.9,0.8-2,0.2-3.1c-0.5-1-1.3-2-2.2-2.8l0.7-0.6c0.2,0.3,0.4,0.7,0.3,1.1
		c-0.1,0.4-0.2,0.7-0.4,0.9c-0.3,0.5-0.7,0.9-0.9,1.4c-0.3,0.4-0.4,0.8-0.4,1.3l0,0.8c0,0.2,0,0.3,0,0.5l-0.1,0.4
		c-0.1,0.3-0.2,0.6-0.3,0.9c-0.1,0.3-0.3,0.5-0.5,0.8c-0.4,0.5-0.8,0.9-1.3,1.2c-0.3,0.2-0.5,0.3-0.8,0.4c-0.3,0.1-0.6,0.2-0.9,0.2
		c-0.3,0.1-0.6,0.1-0.9,0.1c-0.3,0-0.6-0.1-0.9-0.1l-0.1,0l-0.1-0.1c-0.3-0.2-0.4-0.5-0.5-0.7c-0.1-0.3-0.1-0.6-0.1-0.8
		c0-0.3,0.1-0.5,0.2-0.8c0.1-0.1,0.1-0.2,0.2-0.4c0.1-0.1,0.1-0.2,0.2-0.3c0.3-0.4,0.6-0.7,0.8-1c0.1-0.2,0.2-0.4,0.3-0.5l0.1-0.3
		l0-0.2c0.1-0.7-0.2-1.5-0.6-2.2c-0.4-0.7-1-1.3-1.7-1.9l0.7-0.4c0,0.3,0,0.6,0,0.8c0,0.3-0.1,0.6-0.1,0.8c-0.1,0.3-0.1,0.5-0.2,0.8
		c-0.1,0.2-0.2,0.5-0.3,0.7c-0.5,1-1.2,1.8-1.8,2.6c-0.6,0.8-1.3,1.6-1.9,2.4c-0.3,0.4-0.5,0.8-0.7,1.3l-0.3,0.7l-0.2,0.7l-0.4,1.7
		l-0.4-1.7c-0.2-1-0.2-2.1,0-3.1c0.1-0.5,0.3-1,0.5-1.5c0.2-0.5,0.5-0.9,0.7-1.3c0.2-0.4,0.4-0.8,0.5-1.2c0-0.2,0-0.4,0-0.6
		c0-0.2-0.1-0.4-0.1-0.6c-0.3-0.8-0.8-1.6-1.3-2.4l0.6,0.1c-1.1,0.9-1.9,2.2-2.4,3.5c-0.5,1.4-0.6,2.8-0.3,4.3l0.2,0.9l-0.8-0.5
		l-1-0.7l-0.2-0.1l0-0.3c0.2-1.3-0.1-2.6-0.7-3.7c-0.6-1.1-1.5-2.1-2.7-2.6l0.4-0.6c0.2,0.2,0.4,0.4,0.5,0.6
		c0.1,0.2,0.3,0.5,0.3,0.7c0.2,0.5,0.3,1,0.3,1.5c0,1-0.2,2-0.5,2.9c-0.3,0.9-0.6,1.8-0.8,2.7c-0.2,0.9-0.2,1.8,0.1,2.6l-0.7,0.2
		l-0.9-3.1l0.3,0.3l-1.4-0.1l-0.4,0l0-0.4c0.1-0.9,0.2-1.8,0.2-2.7c0-0.4,0-0.9-0.1-1.3c0-0.2-0.1-0.4-0.1-0.6
		c-0.1-0.2-0.1-0.4-0.2-0.6c-0.1-0.2-0.2-0.4-0.3-0.6c-0.1-0.2-0.2-0.4-0.4-0.5c-0.3-0.3-0.6-0.6-0.9-0.9c-0.3-0.2-0.7-0.4-1.1-0.5
		c-0.2-0.1-0.4-0.1-0.6-0.1c-0.2,0-0.4,0-0.6,0l0.3-0.3c-0.3,1.1,0,2.4,0.7,3.3c0.2,0.2,0.4,0.5,0.6,0.8c0.2,0.3,0.4,0.6,0.5,1
		c0,0.2,0,0.5-0.1,0.7c-0.1,0.2-0.2,0.4-0.4,0.5c-0.2,0.1-0.4,0.3-0.6,0.3c-0.2,0-0.6-0.1-0.7-0.2l0.5-0.5l1.9,2.6l0.6,0.9l-1-0.4
		c-1.1-0.4-1.8-1.2-2.3-2.1c-0.5-0.9-0.9-1.8-1.4-2.6c-0.2-0.4-0.5-0.8-0.8-1.1c-0.2-0.2-0.3-0.3-0.5-0.4c-0.2-0.1-0.4-0.2-0.6-0.3
		c-0.8-0.3-1.8-0.3-2.3,0.4l0.1-0.1c-0.2,0.4-0.1,0.8,0,1.3c0.1,0.5,0.3,1,0.4,1.5c0,0.2,0,0.2,0,0.5c0,0.2-0.1,0.3-0.1,0.5
		c-0.1,0.3-0.3,0.5-0.5,0.7c-0.2,0.2-0.5,0.4-0.8,0.4c-0.2,0-0.4,0-0.6-0.1c-0.2-0.1-0.3-0.2-0.4-0.4l0.6-0.4c1,1.4,1.4,3.2,1.2,4.9
		l-0.2,1.3l-0.5-1.3c-0.6-1.6-1.2-3.2-2.1-4.7c-0.4-0.7-0.9-1.4-1.5-2c-0.3-0.3-0.6-0.6-0.9-0.9c-0.3-0.3-0.6-0.5-1-0.7l-0.5-0.3
		l-0.5-0.2c-0.4-0.1-0.8-0.3-1.2-0.3c-0.8-0.2-1.6-0.2-2.5-0.1c-0.8,0.1-1.6,0.4-2.3,0.8c-0.3,0.2-0.6,0.5-0.9,0.8
		c-0.1,0.2-0.2,0.3-0.3,0.5l-0.3,0.5l0-0.3c0.6,0.8,1,1.8,1.1,2.8c0.1,1,0,2-0.4,3c-0.4,0.9-1.1,1.8-1.8,2.4c-0.7,0.6-1.5,1.2-1.7,2
		c0,0.1,0,0.2,0,0.3c0,0.1,0,0.2,0,0.4c0.1,0.2,0.1,0.3,0.2,0.5c0.2,0.3,0.6,0.6,1,0.9c0.8,0.5,1.7,1,2.3,1.8
		c0.3,0.4,0.5,0.9,0.6,1.5c0,0.5-0.1,1.1-0.3,1.5c-0.4,0.9-1,1.7-1.7,2.4c-0.7,0.7-1.3,1.4-1.7,2.2c-0.4,0.8-0.7,1.7-0.3,2.5
		c0.4,0.8,1.2,1.3,1.8,2.2c0.3,0.5,0.4,1.1,0.2,1.6c-0.2,0.5-0.6,0.9-1,1.2c-0.8,0.6-1.7,1-2.2,1.7c-0.5,0.7-0.7,1.7-0.6,2.6
		c0.1,0.9,0.5,1.8,1.1,2.5c0.6,0.7,1.3,1.3,2.1,1.8l0.7,0.4l-0.8,0.1c-1.4,0.1-2.7-0.4-3.7-1.3c-1-0.9-1.7-2.2-1.7-3.5
		c0-1.4,0.7-2.6,1.2-3.7c0.3-0.6,0.5-1.2,0.6-1.7c0.1-0.6,0-1.2-0.1-1.8c-0.3-1.2-0.5-2.6-0.4-3.9c0.1-1.3,0.3-2.6,0.8-3.8
		c0.2-0.6,0.5-1.2,0.7-1.8c0.1-0.6-0.2-1-0.6-1.6c-0.4-0.6-0.5-1.3-0.4-2c0.1-0.7,0.2-1.3,0.4-1.9c0.3-1.2,0.3-2.5,0.2-3.7
		c-0.1-1.3-0.4-2.5-0.4-3.8c-0.1-1.3,0.1-2.6,0.5-3.9c0.4-1.2,1-2.4,1.3-3.6c0.4-1.2,0.3-2.5-0.3-3.6c-0.6-1.1-1.1-2.4-1.1-3.7
		c0-1.3,0.3-2.6,0.8-3.8c0.6-1.2,1.5-2.2,2.6-2.9l-0.1,0.2l-0.1-0.7l0-0.7l0-0.7l0.1-0.7c0.1-0.5,0.3-0.9,0.5-1.3
		c0.2-0.4,0.5-0.8,0.8-1.2l0.5-0.5l0.5-0.5l0.6-0.4l0.6-0.3l0.7-0.3l0.7-0.2l0.7-0.1l0.7,0l-0.2,0.2l0-0.6l0.1-0.6l0.2-0.6L100,19
		c0.2-0.3,0.4-0.7,0.7-1c0.3-0.3,0.5-0.6,0.9-0.8c0.3-0.2,0.7-0.4,1-0.6l0.5-0.2l0.6-0.2l0.6-0.1l0.6,0l0.6,0.1l0.6,0.2l-0.2,0.1
		c0.4-0.9,0.9-1.7,1.5-2.5c0.6-0.7,1.3-1.4,2.1-2c1.6-1.2,3.4-2,5.3-2.3c1.9-0.4,3.9-0.3,5.8,0.4c0.9,0.3,1.8,0.7,2.7,1.1
		c0.9,0.3,1.8,0.6,2.7,0.5c1.9-0.1,3.6-1.1,5.6-1.2c0.5,0,1,0.1,1.5,0.3c0.5,0.2,0.9,0.4,1.3,0.7c0.8,0.6,1.5,1.1,2.5,1.2
		c1.9,0.2,3.7-0.8,5.7-0.8c1,0,2,0.4,2.7,1c0.8,0.6,1.4,1.3,2.1,2c0.7,0.6,1.5,1.2,2.4,1.3c0.9,0.2,1.9,0.2,2.8,0.3
		c0.9,0.1,2,0.3,2.6,1.1c0.7,0.8,0.6,1.9,0.9,2.7c0.3,0.9,1,1.6,1.8,2.1c0.8,0.6,1.6,1,2.3,1.8c0.7,0.7,0.9,1.8,0.9,2.7
		c0,1-0.2,1.9-0.3,2.9c-0.1,0.9-0.2,1.9,0.1,2.8c0.3,0.9,0.9,1.7,1.4,2.5c1,1.7,1.4,3.6,1.3,5.6c-0.1,1-0.3,1.9-0.6,2.8
		c-0.3,0.9-0.9,1.7-1,2.7c-0.1,0.9,0.2,1.9,0.2,2.9c0,0.5-0.1,1-0.3,1.4c-0.2,0.4-0.6,0.8-1.1,1l0-0.1c0.9-0.3,1.3-1.4,1.3-2.3
		c0-0.9-0.3-1.9-0.2-2.9c0.1-1,0.7-1.8,1-2.7c0.4-0.9,0.6-1.8,0.6-2.8c0.1-1.9-0.3-3.8-1.3-5.5c-0.5-0.8-1.1-1.6-1.4-2.5
		c-0.3-0.9-0.2-1.9-0.1-2.9c0.1-1,0.3-1.9,0.3-2.8c0-0.9-0.2-1.9-0.9-2.6c-0.6-0.7-1.5-1.2-2.2-1.8c-0.8-0.5-1.6-1.3-1.8-2.2
		c-0.3-0.9-0.3-1.9-0.9-2.7c-0.6-0.7-1.6-1-2.5-1.1c-0.9-0.1-1.9-0.1-2.9-0.3c-1-0.2-1.8-0.7-2.5-1.4c-0.7-0.6-1.4-1.4-2.1-1.9
		c-0.7-0.6-1.6-1-2.6-0.9c-1.9,0-3.7,1-5.7,0.8c-0.3,0-0.5-0.1-0.7-0.2c-0.2-0.1-0.5-0.2-0.7-0.3c-0.4-0.2-0.8-0.5-1.2-0.8
		c-0.4-0.3-0.8-0.5-1.2-0.7c-0.4-0.1-0.9-0.3-1.4-0.2c-1.9,0-3.6,1-5.6,1.2c-1,0.1-2-0.2-2.9-0.5c-0.9-0.3-1.8-0.7-2.7-1
		c-1.8-0.6-3.7-0.7-5.6-0.4c-1.9,0.4-3.6,1.2-5.1,2.3c-0.8,0.6-1.4,1.2-2,2c-0.6,0.7-1.1,1.6-1.5,2.4l-0.1,0.1l-0.2,0l-0.5-0.1
		l-0.5-0.1l-0.5,0l-0.5,0.1l-0.5,0.1l-0.5,0.2c-0.3,0.2-0.6,0.3-0.9,0.6c-0.3,0.2-0.6,0.5-0.8,0.8c-0.2,0.3-0.4,0.6-0.6,0.9
		l-0.2,0.5l-0.1,0.5l-0.1,0.5l0,0.5l0,0.2l-0.2,0l-0.7,0l-0.7,0.1l-0.6,0.2L97.1,22l-0.6,0.3L96,22.7l-0.5,0.4L95,23.7
		c-0.3,0.4-0.5,0.7-0.7,1.1c-0.2,0.4-0.4,0.8-0.5,1.2l-0.1,0.7l0,0.7l0,0.7l0.1,0.6l0,0.1l-0.1,0.1c-1,0.7-1.9,1.6-2.4,2.8
		c-0.6,1.1-0.8,2.4-0.8,3.6c0,1.3,0.5,2.4,1.1,3.5c0.3,0.6,0.5,1.2,0.5,1.9c0,0.7-0.1,1.3-0.2,2c-0.3,1.3-0.9,2.4-1.3,3.6
		c-0.4,1.2-0.6,2.4-0.5,3.7c0.1,1.3,0.3,2.5,0.4,3.8c0.1,1.3,0.1,2.6-0.2,3.9c-0.3,1.2-0.7,2.5,0,3.5c0.2,0.3,0.4,0.5,0.5,0.8
		c0.2,0.3,0.2,0.7,0.1,1.1c-0.1,0.7-0.5,1.2-0.7,1.8c-0.4,1.2-0.7,2.4-0.7,3.7c-0.1,1.3,0.1,2.5,0.4,3.7c0.1,0.6,0.2,1.3,0.1,2
		c-0.1,0.7-0.3,1.3-0.6,1.9c-0.5,1.2-1.2,2.3-1.1,3.5c0.1,2.4,2.5,4.6,4.9,4.3l-0.1,0.5c-0.9-0.5-1.7-1.1-2.3-1.9
		c-0.6-0.8-1.1-1.7-1.2-2.7c-0.1-1,0.1-2.1,0.7-2.9c0.6-0.9,1.6-1.3,2.3-1.9c0.4-0.3,0.7-0.6,0.8-1c0.1-0.4,0.1-0.8-0.1-1.1
		c-0.4-0.7-1.3-1.3-1.8-2.2c-0.5-1-0.2-2.2,0.3-3c0.5-0.9,1.2-1.6,1.8-2.3c0.6-0.7,1.2-1.4,1.6-2.3c0.4-0.8,0.3-1.7-0.2-2.4
		c-0.5-0.7-1.4-1.1-2.2-1.7c-0.4-0.3-0.8-0.6-1.1-1c-0.2-0.2-0.3-0.5-0.3-0.8c0-0.1,0-0.2,0-0.4c0-0.2,0-0.3,0-0.4
		c0.1-0.6,0.4-1,0.8-1.4c0.3-0.4,0.7-0.7,1.1-1c0.7-0.6,1.3-1.3,1.7-2.1c0.4-0.8,0.5-1.8,0.4-2.7c-0.1-0.9-0.4-1.8-1-2.5L94,46.4
		l0.1-0.2l0.3-0.6c0.1-0.2,0.3-0.4,0.4-0.6c0.3-0.3,0.6-0.7,1-0.9c0.8-0.5,1.6-0.8,2.5-0.9c0.9-0.1,1.8-0.1,2.7,0.1
		c0.4,0.1,0.9,0.2,1.3,0.4L103,44l0.6,0.3c0.4,0.2,0.7,0.5,1.1,0.8c0.3,0.3,0.7,0.6,0.9,0.9c0.6,0.7,1.1,1.4,1.6,2.1
		c0.9,1.5,1.5,3.1,2.1,4.8l-0.6,0.1c0.2-1.5-0.2-3.1-1-4.4l0.6-0.4c0,0.1,0.1,0.1,0.1,0.1c0,0,0.1,0,0.2,0c0.1,0,0.3-0.1,0.5-0.3
		c0.2-0.1,0.3-0.3,0.4-0.5c0-0.1,0.1-0.2,0.1-0.3c0,0,0-0.3,0-0.3c-0.1-0.4-0.2-0.9-0.3-1.4c-0.1-0.5-0.2-1.1,0-1.7l0,0l0,0
		c0.4-0.5,0.9-0.7,1.5-0.8c0.6-0.1,1.1,0,1.6,0.2c0.3,0.1,0.5,0.2,0.7,0.4c0.2,0.1,0.4,0.3,0.6,0.5c0.4,0.4,0.7,0.8,0.9,1.2
		c0.5,0.9,0.9,1.8,1.4,2.6c0.5,0.8,1.1,1.5,1.9,1.8l-0.4,0.5l-1.9-2.6l-1.9-2.7l2.4,2.2c0,0,0.1,0,0.1,0c0.1,0,0.2-0.1,0.2-0.1
		c0.1-0.1,0.2-0.2,0.2-0.3c0-0.1,0.1-0.1,0-0.3c-0.1-0.5-0.5-0.9-0.9-1.4c-0.8-1.1-1.2-2.6-0.8-4l0.1-0.2l0.2,0
		c0.3,0,0.5-0.1,0.8-0.1c0.3,0,0.5,0.1,0.8,0.1c0.5,0.1,1,0.4,1.4,0.7c0.4,0.3,0.8,0.6,1.1,1c0.2,0.2,0.3,0.4,0.4,0.6
		c0.1,0.2,0.2,0.5,0.3,0.7c0.1,0.3,0.2,0.5,0.2,0.7c0.1,0.2,0.1,0.5,0.2,0.7c0.1,0.5,0.1,1,0.1,1.4c0,1-0.1,1.9-0.2,2.8l-0.4-0.4
		l1.4,0.1l0.3,0l0.1,0.3l0.9,3.1l-0.7,0.2c-0.3-1-0.3-2-0.1-3c0.2-1,0.5-1.9,0.8-2.7c0.3-0.9,0.4-1.8,0.4-2.6c0-0.4-0.1-0.9-0.2-1.3
		c-0.1-0.2-0.2-0.4-0.3-0.6c-0.1-0.2-0.2-0.3-0.4-0.5l-1.6-1.7l2.1,1c2.6,1.3,4.2,4.2,3.8,7.1l-0.2-0.4l1,0.7l-0.6,0.4
		c-0.7-3.1,0.5-6.5,3-8.6l0.3-0.3l0.3,0.4c0.6,0.8,1.2,1.6,1.5,2.6c0.1,0.3,0.1,0.5,0.2,0.8c0,0.3,0,0.6,0,0.8
		c-0.1,0.5-0.3,1-0.6,1.5c-0.3,0.4-0.5,0.8-0.7,1.2c-0.2,0.4-0.3,0.9-0.4,1.3c-0.2,0.9-0.2,1.8,0,2.7l-0.8,0l0.2-0.8l0.3-0.8
		c0.2-0.5,0.5-0.9,0.8-1.4c0.6-0.9,1.3-1.7,1.9-2.5c0.6-0.8,1.3-1.6,1.7-2.4c0.1-0.2,0.2-0.4,0.3-0.7c0.1-0.2,0.1-0.4,0.2-0.7
		c0-0.2,0.1-0.5,0.1-0.7l0-0.7l0-1l0.8,0.7c0.7,0.6,1.3,1.3,1.8,2.1c0.5,0.8,0.9,1.8,0.7,2.8c0,0.1-0.1,0.3-0.1,0.4l-0.1,0.3
		c-0.1,0.3-0.2,0.5-0.4,0.7c-0.3,0.4-0.6,0.7-0.8,1.1c-0.1,0.1-0.1,0.2-0.2,0.3c0,0.1-0.1,0.2-0.1,0.2c-0.1,0.2-0.1,0.3-0.1,0.5
		c0,0.3,0.1,0.6,0.3,0.8l-0.1-0.1c0.2,0.1,0.5,0.1,0.7,0.1c0.2,0,0.5,0,0.7-0.1c0.2,0,0.5-0.1,0.7-0.2c0.2-0.1,0.5-0.2,0.7-0.3
		c0.4-0.3,0.8-0.6,1.1-1c0.1-0.2,0.3-0.4,0.4-0.6c0.1-0.2,0.2-0.4,0.2-0.7l0.1-0.4l0-0.4l0-0.8c0-0.3,0-0.6,0.1-1
		c0.1-0.3,0.2-0.6,0.4-0.8c0.3-0.5,0.7-0.9,0.9-1.4c0.1-0.2,0.2-0.4,0.2-0.6c0-0.2,0-0.3-0.1-0.4l0.7-0.6c0.9,0.9,1.8,1.9,2.4,3.1
		c0.3,0.6,0.5,1.3,0.4,2c0,0.3-0.1,0.8-0.2,1.1c-0.1,0.4-0.3,0.6-0.5,0.9c-0.4,0.5-0.6,0.9-0.6,1.5c0,0.5,0.1,1.1,0.3,1.6
		c0.2,0.6,0.5,1.1,0.7,1.7c0.3,0.6,0.5,1.2,0.6,1.9c0.1,0.7,0,1.5-0.4,2.1c-0.1,0.2-0.3,0.4-0.3,0.4c-0.1,0.2-0.3,0.3-0.4,0.4
		c-0.3,0.2-0.6,0.4-0.8,0.5c-0.5,0.3-0.8,0.6-0.8,1.1c-0.1,0.5,0.1,1,0.4,1.5c0.3,0.5,0.6,1,1,1.5c0.4,0.6,0.7,1.2,0.9,1.9
		c0.1,0.4,0.1,0.7,0,1.1c0,0.2-0.1,0.4-0.2,0.6c-0.1,0.2-0.3,0.4-0.4,0.5c-0.6,0.6-1.4,0.7-1.8,0.9c-0.9,0.5-1.4,1.7-1.1,2.6
		c0.3,1,1.4,1.8,2.1,2.9c0.2,0.3,0.3,0.7,0.4,1.1c0,0.2,0,0.5,0,0.6l-0.1,0.2c-0.1,0.2-0.1,0.2-0.1,0.3c-0.4,0.8-1.1,1.1-1.7,1.4
		c-0.6,0.3-1.2,0.5-1.6,0.8c-0.1,0.1-0.2,0.2-0.3,0.2l-0.1,0.2l0,0l0,0c0-0.1,0,0,0,0l0,0l0,0.1c-0.1,0.2-0.2,0.4-0.2,0.7
		c0,1,0.7,2.1,1.2,3.3c0.3,0.6,0.5,1.3,0.5,2c0,0.7,0,1.4-0.2,2c-0.4,1.3-1.1,2.4-1.9,3.4c-0.8,1-1.7,1.9-2.6,2.8l-0.2-0.9
		c0.6,0.1,1.2,0,1.8-0.4c0.3-0.2,0.6-0.4,0.8-0.6c0.1-0.1,0.2-0.2,0.3-0.4c0.1-0.1,0.2-0.3,0.3-0.4c0.4-0.6,0.8-1.2,1.2-1.9
		c0.2-0.3,0.5-0.6,0.7-0.9c0.1-0.2,0.3-0.3,0.4-0.4c0.2-0.2,0.3-0.3,0.5-0.4l0.9-0.7c0.3-0.2,0.5-0.4,0.7-0.7
		c0.4-0.5,0.5-1.2,0.5-1.8c-0.1-1.3-0.8-2.6-1.7-3.8l-0.6-0.7l0.9-0.1c0.9-0.1,1.9-0.5,2.6-1.2c0.4-0.3,0.7-0.7,0.9-1.1
		c0.1-0.2,0.2-0.4,0.3-0.7l0.1-0.3l0.1-0.4c0-0.2,0.1-0.5,0-0.7c0-0.2,0-0.5-0.1-0.7c-0.1-0.5-0.3-0.9-0.5-1.4
		c-0.5-0.8-1.2-1.5-2.1-1.9l-1-0.4l1-0.5l0.5-0.3l0.4-0.3l0.4-0.4l0.3-0.4l0.3-0.5l0.2-0.5l0.2-0.5l0.1-0.6l0.1-0.6l0-0.6l-0.1-0.6
		l-0.1-0.5l-0.2-0.5l-0.3-0.5l-0.3-0.4l-0.4-0.4l-0.7-0.7l0.9-0.2c0.8-0.2,1.5-0.6,2.1-1.3c0.6-0.6,0.9-1.4,1.1-2.2
		c0-0.2,0.1-0.4,0.1-0.6c0-0.2,0-0.4,0-0.6c0-0.2,0-0.3-0.1-0.6c0-0.1-0.1-0.3-0.1-0.3l-0.1-0.3c-0.2-0.4-0.4-0.8-0.6-1.3
		c-0.2-0.5-0.2-1.1,0-1.7l0.1-0.3l0.3,0l1-0.1l0.4,0l0.1,0.3c0.3,0.8,0.6,1.6,0.7,2.4c0.1,0.9,0.1,1.8-0.4,2.7l-0.2,0.3
		c-0.1,0.1-0.2,0.2-0.2,0.3c-0.1,0.2-0.3,0.3-0.4,0.4c-0.2,0.2-0.2,0.4,0,0.7c0.1,0.3,0.4,0.6,0.6,1c0.3,0.4,0.4,0.9,0.5,1.3
		c0.1,1-0.3,1.8-0.6,2.6c-0.3,0.8-0.7,1.5-0.9,2.2c-0.2,0.7,0,1.3,0.3,2.1c0.2,0.4,0.4,0.8,0.4,1.3c0,0.3,0,0.5-0.1,0.8
		c0,0.1,0,0.1-0.1,0.2l-0.1,0.1l-0.1,0.1c-0.1,0.1-0.2,0.2-0.3,0.3c-0.4,0.3-0.7,0.5-0.9,0.7c-0.2,0.2-0.3,0.5-0.2,0.8
		c0.1,0.7,0.5,1.4,0.8,2.1c0.2,0.4,0.3,0.8,0.4,1.2c0.1,0.2,0.1,0.4,0.1,0.7l0,0.4l0,0.3c-0.2,1.1-1,1.6-1.5,2.2
		c-0.3,0.3-0.6,0.5-0.8,0.8c-0.1,0.1-0.2,0.3-0.3,0.5c0,0.1-0.1,0.3-0.1,0.5c-0.1,0.7,0.1,1.4,0.4,2.2c0.3,0.7,0.5,1.6,0.5,2.5
		c0,0.4-0.1,0.9-0.3,1.3c-0.2,0.4-0.6,0.8-1.1,1l-0.3-0.7c0.6-0.2,1.1-0.5,1.5-1c0.2-0.2,0.4-0.5,0.5-0.8c0.1-0.3,0.2-0.6,0.3-0.9
		c0.1-0.3,0.1-0.6,0.2-1c0-0.3,0-0.7,0-1c0-0.7-0.1-1.4-0.2-2l0-0.3l0.3-0.1l0.5-0.2l0.5-0.3l0.4-0.4l0.4-0.4l0.3-0.5l0.3-0.5
		l0.2-0.5l0.2-0.6l0.1-0.6l0-0.6l0-0.6l-0.1-0.6l-0.2-0.6l-0.2-0.5l-0.3-0.5l-0.4-0.4l-0.4-0.5l0.6-0.1c1.1-0.2,2-1.4,2.1-2.5
		c0-0.3,0-0.6-0.1-0.9c-0.1-0.1-0.1-0.2-0.2-0.4l-0.1-0.1l0,0l0,0c0,0,0,0,0,0l0,0l0,0l-0.1-0.2c-0.2-0.2-0.4-0.5-0.6-0.9
		c-0.2-0.4-0.3-0.8-0.2-1.2c0.2-0.8,0.7-1.3,1.1-1.8c0.2-0.3,0.4-0.5,0.6-0.8c0.1-0.1,0.2-0.2,0.3-0.4l0.1-0.2l0.1-0.2
		c0.4-1.1-0.2-2.5-1.2-3l-0.7-0.3l0.7-0.2c0.7-0.2,1.2-0.6,1.7-1.2c0.2-0.3,0.4-0.6,0.5-0.9c0.1-0.3,0.2-0.6,0.3-1
		c0-0.1,0-0.3,0-0.5c0-0.2,0-0.3-0.1-0.5c-0.1-0.3-0.2-0.7-0.4-1c-0.3-0.6-0.8-1.1-1.5-1.5l-0.3-0.2l0.2-0.3
		c0.6-0.9,1.5-1.6,2.5-1.9l0.2-0.1l0.1,0.2c0.3,0.3,0.5,0.7,0.6,1.1c0.1,0.4,0.2,0.8,0.2,1.2c0,0.8-0.2,1.6-0.4,2.4
		c-0.2,0.8-0.4,1.5-0.5,2.3c-0.1,0.4-0.1,0.7-0.1,1.1c0,0.4,0.1,0.7,0.1,1.1c0.1,0.4,0.1,0.8,0.2,1.2c0,0.4,0,0.8,0,1.2
		c-0.1,0.8-0.3,1.6-0.5,2.3c-0.2,0.7-0.4,1.5-0.5,2.2c0,0.4,0,0.7,0.1,1.1c0.1,0.4,0.3,0.7,0.5,1l0.2,0.2l-0.2,0.1
		c-0.2,0.1-0.4,0.3-0.6,0.4c-0.2,0.2-0.3,0.4-0.5,0.6c-0.3,0.4-0.4,0.9-0.5,1.4c-0.2,1-0.1,2,0,3.1c0.1,1,0.3,2.1,0.2,3.2
		c0,0.5-0.1,1.1-0.4,1.6c-0.1,0.3-0.2,0.5-0.4,0.7c-0.2,0.2-0.3,0.4-0.6,0.6l-0.1-0.3c0.7,0.1,1.5-0.3,1.9-1c0.2-0.3,0.4-0.7,0.6-1
		c0.1-0.4,0.2-0.7,0.3-1.1c0.1-0.8,0-1.6,0-2.4c0-0.4,0-0.8,0-1.2c0-0.4,0.1-0.8,0.2-1.2c0.5-1.6,1.7-2.8,2.4-4.3
		c0.3-0.7,0.5-1.5,0.4-2.3c-0.1-0.8-0.5-1.5-1.2-1.9l-0.2-0.1l0.2-0.1l0.4-0.3l0.4-0.4l0.3-0.4l0.3-0.4c0.2-0.3,0.3-0.6,0.4-1
		c0.1-0.3,0.1-0.7,0.2-1c0-0.3,0-0.7,0-1c-0.1-0.3-0.1-0.7-0.3-1l-0.2-0.5l-0.3-0.4l-0.3-0.4l-0.4-0.4l-0.1-0.1l0.1,0
		C159.4,54,160.3,52.9,160.8,51.7L160.8,51.7z"/>
</g>
<g>
	<path class="st17" d="M164,35.9c0,0,0.1,0,0.2-0.1c0.2,0,0.4-0.1,0.7-0.1c0.6,0,1.6,0.3,2.5,1.3c0.4,0.5,0.7,1.1,0.8,1.9
		c0,0.8-0.3,1.5-0.5,2.3c-0.3,0.8-0.3,1.7,0.2,2.5c0.4,0.8,1.2,1.4,1.9,2.3c0.3,0.4,0.6,0.9,0.8,1.4c0.2,0.5,0.2,1.2-0.1,1.7
		c-0.3,0.6-0.9,0.9-0.9,1.3c0,0.3,0.7,0.7,1.1,1.1c1.8,1.7,2.6,4.5,2,7.1c-0.3,1.3-1.1,2.4-1.8,3.5c-0.7,1.1-1.3,2.3-1.2,3.6
		c0,1.3,0.4,2.6,0.6,4c0.1,0.7,0.1,1.4-0.1,2.2c-0.2,0.7-0.4,1.4-0.7,2c-0.6,1.3-1.2,2.4-1.4,3.7c-0.1,0.6-0.1,1.3,0.1,1.8
		c0.1,0.3,0.2,0.5,0.4,0.8c0.2,0.2,0.5,0.5,0.6,0.9l0,0.1l0,0.1l0,0l0,0.1c0,0.1,0,0.3,0,0.4c0,0.2,0,0.4-0.1,0.7
		c-0.1,0.4-0.4,0.7-0.6,1c-0.5,0.6-1,1-1.4,1.5c-0.9,0.9-1.7,1.9-2.4,2.9c-1.3,2.1-1.9,4.5-1.4,6.7c0.1,0.5,0.4,1,0.5,1.7
		c0.1,0.3,0.1,0.7,0,1c-0.1,0.4-0.3,0.7-0.5,0.9c-0.4,0.5-0.9,0.8-1.3,1.1c-0.2,0.1-0.4,0.4-0.5,0.5c-0.2,0.2-0.3,0.4-0.5,0.6
		c-1.1,1.6-1.5,3.5-1.7,5.1c-0.1,0.8-0.1,1.6-0.1,2.3c0,0.7-0.2,1.5-0.6,2c-0.4,0.5-0.8,0.8-1.2,1.1c-0.4,0.3-0.7,0.6-0.9,0.8
		c-0.5,0.4-0.8,0.6-0.8,0.6l-0.1-0.1c0,0,0.2-0.2,0.7-0.7c0.2-0.2,0.5-0.5,0.9-0.8c0.3-0.3,0.7-0.7,1.1-1.1c0.7-0.9,0.2-2.5,0.3-4.1
		c0.1-1.7,0.4-3.7,1.6-5.5c0.2-0.2,0.3-0.4,0.5-0.7c0.2-0.2,0.4-0.4,0.6-0.6c0.4-0.4,0.8-0.7,1.1-1.1c0.1-0.2,0.2-0.4,0.3-0.5
		c0.1-0.2,0-0.4,0-0.7c-0.1-0.5-0.4-1-0.6-1.6c-0.7-2.5,0-5.2,1.4-7.5c0.7-1.1,1.6-2.1,2.6-3.1c0.5-0.5,1-0.9,1.4-1.3
		c0.4-0.5,0.6-1,0.4-1.4c-0.1-0.2-0.3-0.4-0.5-0.7c-0.2-0.3-0.4-0.7-0.5-1c-0.2-0.7-0.2-1.5-0.1-2.2c0.2-1.5,1-2.7,1.6-3.9
		c0.6-1.2,1-2.4,0.8-3.7c-0.1-1.3-0.5-2.6-0.5-4.1c0-1.5,0.7-2.8,1.4-3.9c0.7-1.1,1.5-2.2,1.8-3.4c0.7-2.4-0.1-5-1.7-6.6
		c-0.2-0.2-0.4-0.4-0.6-0.6c-0.2-0.2-0.5-0.4-0.6-0.9c0-0.4,0.3-0.7,0.5-0.9c0.2-0.2,0.4-0.4,0.5-0.6c0.2-0.4,0.2-1,0.1-1.4
		c-0.1-0.5-0.4-0.9-0.7-1.3c-0.6-0.8-1.4-1.5-1.8-2.3c-0.2-0.4-0.4-0.9-0.4-1.4c0-0.5,0.1-0.9,0.2-1.3c0.3-0.8,0.6-1.5,0.5-2.2
		c0-0.7-0.3-1.3-0.7-1.8c-0.8-0.9-1.7-1.2-2.3-1.3c-0.3,0-0.5,0-0.7,0C164.1,36,164.1,36,164,35.9L164,35.9z"/>
</g>
<g>
	<path class="st17" d="M151.4,107.4c0,0,0.1-0.1,0.3-0.3c0.2-0.2,0.5-0.5,0.8-0.9c0.5-0.9,0.8-2.5,0.3-4.2c-0.1-0.4-0.3-0.9-0.5-1.3
		c-0.2-0.4-0.5-0.9-0.5-1.6c0-0.6,0.5-1.2,1-1.5c0.5-0.3,1-0.5,1.5-0.8c1-0.4,1.9-1.1,2.4-2.1c0.5-1,0.8-2.1,0.6-3.2
		c-0.1-0.6-0.3-1-0.6-1.6c-0.3-0.5-0.6-1.1-0.7-1.8c0-0.1,0-0.2,0-0.3c0-0.1,0-0.1,0-0.2c0-0.2,0.1-0.4,0.1-0.6
		c0.1-0.3,0.3-0.7,0.5-0.9c0.4-0.5,0.9-0.9,1.4-1.3c1-0.6,2-1,2.7-1.6c0.1-0.1,0.2-0.2,0.2-0.2l0.2-0.3c0.1-0.2,0.2-0.4,0.3-0.6
		c0.2-0.4,0.3-0.8,0.3-1.3c0.1-0.9,0.2-1.7,0.4-2.4c0.1-0.7,0.3-1.4,0.6-1.9c0.3-0.5,0.6-0.8,0.8-1c0.2-0.2,0.4-0.2,0.4-0.2l0.1,0.1
		c0,0-0.1,0.1-0.3,0.3c-0.2,0.2-0.4,0.5-0.6,1c-0.2,0.5-0.3,1.1-0.3,1.8c-0.1,0.7,0,1.6-0.1,2.5c-0.1,0.5-0.1,1-0.3,1.5
		c-0.1,0.2-0.2,0.6-0.3,0.8l-0.2,0.3c-0.1,0.2-0.2,0.2-0.3,0.4c-0.8,0.9-1.9,1.3-2.8,1.9c-0.9,0.5-1.7,1.3-1.6,2.3
		c0,0.5,0.3,1,0.6,1.5c0.3,0.5,0.5,1.2,0.6,1.9c0.2,1.3-0.2,2.6-0.8,3.7c-0.6,1.1-1.7,1.9-2.8,2.3c-1,0.4-2.2,0.8-2.3,1.8
		c-0.1,0.4,0.2,0.9,0.4,1.3c0.2,0.5,0.3,0.9,0.4,1.4c0.4,1.8,0.1,3.4-0.5,4.3c-0.3,0.5-0.6,0.7-0.8,0.9
		C151.6,107.4,151.4,107.5,151.4,107.4L151.4,107.4z"/>
</g>
<g>
	<path class="st17" d="M149.5,20.7c0,0,0.1,0,0.4,0c0.3,0,0.6,0,1.1,0c0.9,0.1,2.3,0.4,3.7,1.3c0.3,0.2,0.7,0.4,1,0.8
		c0.3,0.4,0.3,1,0.2,1.5c-0.2,1-0.8,1.8-1.3,2.6c-0.2,0.4-0.4,0.9-0.5,1.3c0,0.1,0,0.2,0,0.3c0,0,0,0.1,0,0.1l0,0.2
		c0,0.3,0.1,0.4,0.2,0.7c0.4,0.9,1.1,1.6,1.9,2.4c0.4,0.4,0.7,0.8,1.1,1.3c0.3,0.5,0.5,1.1,0.5,1.7c0,0.7-0.2,1.2-0.5,1.7
		c-0.3,0.5-0.5,0.9-0.7,1.3c-0.2,0.4-0.3,0.7-0.3,1.1c0,0.3,0.2,0.7,0.4,1.1c0.4,0.7,1.1,1.4,1.4,2.2c0.3,0.8,0.3,1.6,0.2,2.3
		c-0.1,0.7-0.3,1.2-0.5,1.7c-0.3,0.9-0.6,1.3-0.6,1.3l-0.1,0c0,0,0.1-0.5,0.4-1.4c0.1-0.4,0.2-1,0.2-1.6c0-0.6-0.1-1.3-0.4-1.9
		c-0.3-0.6-0.9-1.2-1.5-2c-0.3-0.4-0.5-0.9-0.6-1.5c-0.1-0.6,0.1-1.2,0.4-1.7c0.5-1,1.2-1.7,1.2-2.5c0.1-0.8-0.6-1.7-1.2-2.5
		c-0.7-0.8-1.5-1.6-1.9-2.7c-0.1-0.3-0.2-0.6-0.2-0.8l0-0.2c0-0.1,0-0.2,0-0.2c0-0.1,0-0.3,0.1-0.4c0.1-0.6,0.4-1,0.6-1.5
		c0.5-0.9,1.1-1.6,1.3-2.4c0.1-0.4,0.1-0.8-0.1-1.1c-0.2-0.3-0.6-0.6-0.9-0.8c-1.3-0.9-2.6-1.3-3.5-1.4c-0.5-0.1-0.8-0.1-1.1-0.1
		c-0.2,0-0.4,0-0.4,0L149.5,20.7z"/>
</g>
<g>
	<path class="st17" d="M139.6,16.7c0,0,0.3,0.2,0.7,0.8c0.4,0.5,1,1.3,1.4,2.5c0.2,0.6,0.4,1.2,0.5,1.9c0,0.3,0.1,0.7,0,1.1
		c0,0.4-0.1,0.8-0.4,1.2c-0.5,0.6-0.9,1.1-1.1,1.8c-0.2,0.7-0.1,1.4,0.2,2c0.3,0.6,0.8,1.1,1.4,1.6c0.6,0.5,1.3,1,1.6,1.9
		c0.3,0.8,0.1,1.7-0.1,2.4c-0.2,0.7-0.5,1.2-0.6,1.8c-0.2,0.5-0.2,1-0.2,1.5c0,0.4,0.1,0.8,0.1,1.2c0.2,0.6,0.4,1,0.4,1l-0.1,0.1
		c0,0-0.1-0.1-0.2-0.2c-0.1-0.1-0.3-0.4-0.4-0.7c-0.2-0.3-0.3-0.7-0.4-1.2c-0.1-0.5-0.1-1.1,0-1.7c0.1-0.6,0.3-1.2,0.5-1.8
		c0.1-0.6,0.3-1.2,0-1.8c-0.1-0.5-0.6-1-1.2-1.5c-0.6-0.5-1.2-1.1-1.5-2c-0.3-0.8-0.4-1.7-0.1-2.5c0.1-0.4,0.3-0.8,0.5-1.1
		c0.2-0.3,0.5-0.6,0.7-0.8c0.4-0.5,0.3-1.2,0.3-1.8c0-0.6-0.1-1.3-0.3-1.8c-0.3-1.1-0.8-1.9-1.2-2.5
		C139.8,17.1,139.6,16.8,139.6,16.7L139.6,16.7z"/>
</g>
<g>
	<path class="st17" d="M150.8,47.6c0,0,0.2-0.2,0.4-0.5c0.2-0.3,0.4-0.9,0.3-1.6c-0.1-0.7-0.6-1.3-1.1-2c-0.3-0.3-0.6-0.7-0.9-1.2
		c-0.1-0.2-0.3-0.5-0.3-0.7c0-0.1-0.1-0.3-0.1-0.4c0-0.1,0-0.2,0-0.4c0-1.1,0.4-2,0.4-2.8c0-0.1,0-0.2,0-0.3c0-0.1,0-0.2,0-0.3
		c0-0.1-0.1-0.3-0.1-0.5c-0.1-0.3-0.3-0.7-0.4-1c-0.3-0.6-0.7-1-1-1.4c-0.3-0.3-0.4-0.5-0.4-0.5l0.1-0.1c0,0,0.2,0.1,0.6,0.3
		c0.2,0.1,0.4,0.3,0.6,0.5c0.2,0.2,0.5,0.4,0.8,0.7c0.3,0.3,0.5,0.7,0.7,1.1c0.1,0.2,0.2,0.4,0.2,0.7c0,0.1,0,0.2,0,0.3
		c0,0.2,0,0.3,0,0.4c-0.1,1-0.6,1.9-0.7,2.7c0,0.1,0,0.2,0,0.3c0,0.1,0,0.2,0,0.3c0,0.2,0.1,0.4,0.2,0.6c0.2,0.4,0.5,0.8,0.7,1.1
		c0.3,0.4,0.5,0.7,0.7,1.1c0.2,0.4,0.3,0.8,0.3,1.2c0,0.8-0.3,1.4-0.5,1.7C151.1,47.6,150.9,47.7,150.8,47.6L150.8,47.6z"/>
</g>
<g>
	<path class="st17" d="M135.3,39.2c0,0-0.2-0.3-0.6-0.9c-0.4-0.6-1-1.4-1.7-2.5c-0.3-0.5-0.7-1.2-0.6-2c0.1-0.8,0.8-1.4,1.2-2
		c0.2-0.3,0.4-0.6,0.4-1c0-0.3,0-0.7-0.1-1c-0.3-0.7-0.7-1.3-1.3-1.9c-0.5-0.6-1.1-1.3-1.3-2.3c-0.1-0.5-0.1-1,0-1.4
		c0.1-0.4,0.3-0.8,0.4-1.2c0.3-0.7,0.4-1.4,0.6-2c0.1-0.7,0.2-1.3,0.2-1.9c0-1.2-0.2-2.2-0.4-2.8c-0.1-0.3-0.3-0.5-0.5-0.6
		c-0.1-0.1-0.2-0.1-0.2-0.1l0-0.1c0,0,0.1,0,0.3,0.1c0.2,0.1,0.5,0.3,0.7,0.6c0.2,0.3,0.4,0.7,0.6,1.2c0.1,0.5,0.3,1.1,0.4,1.7
		c0.1,0.6,0.1,1.3,0,2.1c-0.1,0.7-0.3,1.5-0.5,2.3c-0.3,0.8-0.6,1.4-0.5,2c0.1,0.7,0.6,1.3,1,2c0.5,0.6,1,1.4,1.3,2.2
		c0.1,0.4,0.2,0.9,0.1,1.4c-0.1,0.4-0.3,0.8-0.6,1.2c-0.5,0.6-1,1.1-1.2,1.7c-0.2,0.6,0.1,1.2,0.4,1.8c0.6,1.1,1.2,2,1.5,2.6
		C135.2,38.8,135.4,39.2,135.3,39.2L135.3,39.2z"/>
</g>
<g>
	<path class="st17" d="M128.7,39.2c0,0-0.1,0-0.3-0.1c-0.2-0.1-0.5-0.2-0.8-0.4c-0.6-0.4-1.4-1.2-1.8-2.4c-0.2-0.6-0.2-1.4,0-2.1
		c0.2-0.7,0.5-1.4,0.7-2.1c0.2-0.7,0.5-1.5,0.3-2.2c-0.1-0.7-0.6-1.3-1.2-1.9c-0.5-0.6-1.2-1.3-1.3-2.3c-0.1-0.5,0.1-1,0.2-1.4
		c0.1-0.3,0.2-0.8,0.3-1.1c0.1-0.7,0.1-1.4,0.1-2c-0.1-0.7-0.2-1.3-0.4-1.8c-0.2-0.5-0.4-1-0.7-1.4c-0.3-0.4-0.5-0.7-0.8-1
		c-0.2-0.3-0.4-0.5-0.6-0.6c-0.1-0.1-0.2-0.2-0.2-0.2l0.1-0.1c0,0,0.1,0,0.3,0.1c0.2,0.1,0.4,0.2,0.7,0.5c0.3,0.2,0.6,0.5,1,0.9
		c0.3,0.4,0.7,0.9,1,1.5c0.3,0.6,0.5,1.3,0.7,2c0.1,0.7,0.1,1.5,0,2.4c-0.1,0.5-0.2,0.8-0.3,1.2c-0.1,0.4-0.2,0.7-0.2,1
		c0,0.6,0.5,1.3,1,1.9c0.3,0.3,0.5,0.7,0.8,1c0.1,0.2,0.2,0.4,0.3,0.6c0.1,0.2,0.1,0.4,0.2,0.7c0.1,0.9-0.2,1.8-0.4,2.5
		c-0.3,0.7-0.6,1.4-0.8,2c-0.2,0.7-0.2,1.3-0.1,1.9c0.3,1.2,1,2,1.5,2.4c0.3,0.2,0.5,0.3,0.7,0.4C128.6,39.1,128.7,39.1,128.7,39.2
		L128.7,39.2z"/>
</g>
<g>
	<path class="st17" d="M120.7,38.8c0,0,0-0.1,0.1-0.2c0-0.2,0.1-0.4,0-0.7c0-0.3-0.2-0.6-0.4-1c-0.2-0.4-0.5-0.7-0.8-1.2
		c-0.3-0.4-0.7-0.9-1-1.5c-0.3-0.6-0.4-1.4-0.2-2c0.1-0.7,0.4-1.3,0.6-2c0.2-0.6,0.3-1.3,0.1-1.8c-0.2-0.6-0.7-0.9-1.2-1.3
		c-0.6-0.4-1.2-0.7-1.8-1.2c-0.5-0.6-0.9-1.3-0.9-2c0-0.4,0-0.7,0.1-1c0-0.2,0.1-0.3,0.1-0.5c0.1-0.1,0.1-0.3,0.2-0.4
		c0.3-0.5,0.6-0.9,0.9-1.2c0.3-0.3,0.5-0.6,0.6-0.9c0.2-0.3,0.2-0.5,0.3-0.6c0-0.2,0.1-0.2,0.1-0.2l0.1,0c0,0,0,0.1,0,0.3
		c0,0.2,0,0.4-0.1,0.7c-0.2,0.6-0.7,1.4-1.1,2.3c0,0.1-0.1,0.2-0.1,0.4c0,0.1,0,0.2-0.1,0.3c0,0.2,0,0.5,0,0.7
		c0.1,0.5,0.3,1,0.7,1.4c0.4,0.4,0.9,0.8,1.5,1.2c0.3,0.2,0.6,0.4,0.9,0.7c0.1,0.2,0.3,0.3,0.4,0.5c0.1,0.1,0.1,0.2,0.1,0.3l0.1,0.1
		l0,0.2c0.3,0.8,0,1.6-0.2,2.3c-0.3,0.7-0.5,1.3-0.7,1.9c-0.2,0.6-0.1,1.2,0.1,1.7c0.2,0.5,0.5,1,0.8,1.4c0.3,0.4,0.6,0.8,0.8,1.3
		c0.2,0.4,0.3,0.8,0.3,1.1C121,38.5,120.8,38.8,120.7,38.8L120.7,38.8z"/>
</g>
<g>
	<path class="st17" d="M96.2,42.7c0.3-1,0.6-2,0.5-3c0-0.5-0.2-0.9-0.4-1.4c-0.2-0.5-0.4-1-0.2-1.7l0-0.1l0.1-0.1
		c0.5-0.3,1.1-0.6,1.6-0.9c0.3-0.1,0.6-0.2,0.9-0.3c0.3-0.1,0.6-0.2,0.9-0.2c0.3-0.1,0.4-0.2,0.5-0.3c0.1-0.2,0.1-0.4,0.1-0.7
		c0-0.3,0-0.5,0-0.8c0-0.3,0-0.6,0-0.9c0-0.3,0-0.7,0.1-1c0.1-0.3,0.3-0.7,0.5-0.9c0.4-0.5,0.9-0.9,1.3-1.3c0.9-0.8,1.8-1.6,2.7-2.4
		l0.1,0.1c-0.7,1-1.4,1.9-2.2,2.9c-0.4,0.5-0.8,0.9-1.1,1.3c-0.3,0.4-0.4,0.8-0.4,1.4c0,0.3,0,0.6,0,0.9c0,0.3,0,0.6,0,0.9
		c0,0.3-0.1,0.7-0.3,1.1c-0.2,0.4-0.7,0.6-1,0.6C99.3,35.9,99,36,98.8,36c-0.3,0.1-0.6,0.1-0.8,0.2c-0.5,0.2-1.1,0.4-1.6,0.7
		l0.1-0.1c-0.2,0.4,0,0.8,0.1,1.3c0.2,0.5,0.4,1,0.4,1.6C97,40.8,96.6,41.8,96.2,42.7L96.2,42.7z"/>
</g>
<g>
	<path class="st17" d="M111,42c0,0-0.3-0.2-0.9-0.5c-0.6-0.3-1.4-0.8-2.1-1.8c-0.3-0.5-0.5-1.1-0.5-1.9c0-0.7,0.5-1.4,1-1.9
		c0.5-0.5,1.1-1,1.3-1.5c0.1-0.3,0.2-0.5,0.1-0.9c-0.1-0.2-0.3-0.5-0.5-0.7c-0.5-0.5-1.2-0.9-1.7-1.5c-0.5-0.7-0.7-1.6-0.6-2.4
		c0.1-0.8,0.3-1.5,0.5-2.1c0.3-0.6,0.5-1.2,0.8-1.7c0.5-1,0.9-1.9,1.2-2.4c0.3-0.6,0.5-0.9,0.5-0.9l0.1,0c0,0-0.1,0.4-0.3,1
		c-0.2,0.6-0.5,1.5-0.8,2.6c-0.2,0.5-0.4,1.1-0.6,1.7c-0.2,0.6-0.4,1.2-0.4,1.8c-0.1,0.6,0,1.2,0.3,1.7c0.3,0.5,1,0.9,1.5,1.5
		c0.3,0.3,0.5,0.7,0.7,1.2c0.1,0.4,0,0.9-0.2,1.3c-0.4,0.8-1.1,1.2-1.5,1.7c-0.2,0.2-0.5,0.5-0.6,0.7c-0.2,0.3-0.3,0.5-0.3,0.8
		c-0.1,0.6,0.1,1.2,0.3,1.6c0.2,0.5,0.6,0.9,0.9,1.1c0.3,0.3,0.7,0.5,0.9,0.7C110.7,41.7,111,41.9,111,42L111,42z"/>
</g>
<g>
	<path class="st17" d="M116.2,37.1c0,0-0.1-0.1-0.4-0.3c-0.2-0.2-0.6-0.4-0.9-0.9c-0.2-0.2-0.3-0.5-0.4-0.8c-0.1-0.3-0.1-0.7,0-1
		c0.1-0.7,0.5-1.3,0.6-1.9c0.1-0.3,0.1-0.6,0-0.8c-0.1-0.3-0.2-0.4-0.3-0.7c-0.3-0.4-0.7-0.8-1.1-1.2c-0.4-0.4-0.6-0.8-0.7-1.1
		c-0.1-0.3-0.1-0.5-0.1-0.5l0.1,0c0,0,0,0,0.1,0.1c0.1,0.1,0.1,0.1,0.2,0.2c0.2,0.2,0.5,0.4,1,0.7c0.4,0.3,1,0.6,1.4,1.2
		c0.2,0.3,0.4,0.8,0.4,1.2c0,0.4-0.1,0.8-0.2,1.2c-0.3,0.7-0.7,1.2-0.8,1.8c-0.1,0.3-0.1,0.5-0.1,0.8c0,0.3,0.1,0.5,0.2,0.7
		c0.2,0.4,0.6,0.7,0.8,0.9C116.1,37,116.2,37.1,116.2,37.1L116.2,37.1z"/>
</g>
<g>
	<path class="st17" d="M112.7,12.7c0,0-0.2,0-0.4,0.1c-0.2,0.1-0.4,0.4-0.5,0.8c0,0.2,0,0.4,0,0.6c0.1,0.2,0.1,0.5,0.3,0.7
		c0.2,0.5,0.5,1.1,0.7,1.7c0.2,0.6,0.3,1.2,0.3,1.8c0,0.6-0.1,1.1-0.2,1.6c-0.3,0.9-0.7,1.4-0.7,1.4l-0.1,0c0,0,0-0.6,0-1.5
		c0-0.4,0-0.9,0-1.5c0-0.5,0-1.1-0.1-1.7c-0.1-0.6-0.2-1.1-0.4-1.7c-0.1-0.3-0.2-0.6-0.2-0.8c0-0.3,0-0.6,0.1-0.8
		c0.2-0.5,0.5-0.8,0.8-0.9c0.3-0.1,0.4-0.1,0.4-0.1L112.7,12.7z"/>
</g>
</svg>
