<?xml version="1.0" encoding="utf-8"?>
<!-- Generator: Adobe Illustrator 19.0.1, SVG Export Plug-In . SVG Version: 6.00 Build 0)  -->
<svg version="1.1" id="Layer_1" xmlns="http://www.w3.org/2000/svg" xmlns:xlink="http://www.w3.org/1999/xlink" x="0px" y="0px"
	 viewBox="0 0 329.8 293.8" style="enable-background:new 0 0 329.8 293.8;" xml:space="preserve">
<style type="text/css">
	.st0{stroke:#FFFFFF;stroke-width:1.0909;}
	.st1{fill:#FFFFFF;stroke:#000000;stroke-width:1.0909;}
	.st2{fill:#FFFFFF;}
</style>
<path class="st0" d="M94.8,167.6V232c0,11,2.2,24.9,6.6,29.7c4.4,4.7,11.6,7.1,21.5,7.1h10.6v14.5L9.1,280.6v-15.3h5.7
	c12,0,20.2,1.3,24.5-3.3c4.3-4.6,6.4-18.6,6.4-29.9V64.9c0-12.8-2.3-27.4-6.8-31.7s-11.7-6.5-21.5-6.5l-7.5-0.4l0.3-14.6l103.8-1.9
	c45.9,0,76.6,7.5,92.2,22.4c15.5,14.9,23.3,33.3,23.3,55c0,15.8-4.5,29.8-13.6,41.8c-9.1,12.1-22.1,20.8-39,26.3
	c8,7.6,19.3,23.4,33.9,47.4c14.6,24,26.7,40.4,36.3,49.2c9.5,8.7,22.2,13.8,37.9,15.2v16.3c-4.4,0.4-11.8,0.6-22.1,0.6
	c-21.2,0-37.4-2-48.5-5.9c-11.2-3.9-20.2-9.9-27.2-17.9c-6.9-8-17.4-23.5-31.3-46.4c-13.9-22.9-24.9-38.4-33-46.4H94.8z M94.8,28
	v121.9h13.9c23.5,0,40.7-4.9,51.5-14.8c10.8-9.8,16.2-25.2,16.2-46.2c0-19.8-5.5-34.9-16.5-45.3c-11-10.4-26.5-15.6-46.5-15.6H94.8z
	"/>
<path class="st1" d="M112.9,167.6V232c0,11,2.2,24.9,6.6,29.7c4.4,4.7,11.6,7.1,21.5,7.1h10.6v14.5H27.2v-14.5h5.7
	c12,0,20.2-2.3,24.5-6.9c4.3-4.6,6.4-18.6,6.4-29.9V64.9c0-12.8-2.3-27.4-6.8-31.7s-11.7-6.5-21.5-6.5H28V10.2l104.1-0.4
	c45.9,0,76.6,7.5,92.2,22.4c15.5,14.9,23.3,33.3,23.3,55c0,15.8-4.5,29.8-13.6,41.8c-9.1,12.1-22.1,20.8-39,26.3
	c8,7.6,19.3,23.4,33.9,47.4c14.6,24,26.7,40.4,36.3,49.2c9.5,8.7,22.2,13.8,37.9,15.2v16.3c-4.4,0.4-11.8,0.6-22.1,0.6
	c-21.2,0-37.4-2-48.5-5.9c-11.2-3.9-20.2-9.9-27.2-17.9c-6.9-8-17.4-23.5-31.3-46.4c-13.9-22.9-24.9-38.4-33-46.4H112.9z M112.9,28
	v121.9h13.9c23.5,0,40.7-4.9,51.5-14.8c10.8-9.8,16.2-25.2,16.2-46.2c0-19.8-5.5-34.9-16.5-45.3c-11-10.4-26.5-15.6-46.5-15.6H112.9
	z"/>
<path class="st0" d="M129.9,167.8v63c0,10.8,2.1,24.5,6.5,29.1c4.3,4.6,11.3,7,21.1,7h10.4v16.2H46V267h5.6
	c11.8,0,19.8-2.3,23.9-6.8c4.2-4.5,6.3-18.3,6.3-29.3V67.4c0-12.5-2.2-26.9-6.6-31.2c-4.4-4.2-11.4-6.4-21.1-6.4h-7.3V13.7
	l101.9-0.3c44.9,0,75,7.3,90.2,21.9C254.1,50,261.7,68,261.7,89.2c0,15.5-4.4,29.1-13.3,40.9c-8.9,11.8-21.6,20.4-38.1,25.8
	c7.8,7.4,18.9,22.9,33.2,46.4c14.3,23.5,26.1,39.5,35.5,48.1c9.3,8.6,21.7,13.5,37.1,14.9v16c-4.3,0.4-11.5,0.6-21.6,0.6
	c-20.7,0-36.6-1.9-47.5-5.7c-10.9-3.8-19.8-9.6-26.6-17.5c-6.8-7.8-17-23-30.6-45.4c-13.6-22.5-24.4-37.6-32.3-45.4H129.9z
	 M129.9,31.2v119.2h13.6c23,0,39.8-4.8,50.4-14.4c10.6-9.6,15.8-24.7,15.8-45.2c0-19.4-5.4-34.2-16.2-44.4
	c-10.8-10.2-26-15.3-45.5-15.3H129.9z"/>
<g>
	<path d="M9.3,280.2l-0.2-15.5c3.8,0.3,25.1,2.1,35.4,2.1c0.3,0,0.5,0,0.8,0l0.1,15.7L9.3,280.2z"/>
	<path class="st2" d="M9.7,265.3c5.1,0.4,25,2.1,34.9,2.1c0.1,0,0.2,0,0.3,0l0.1,14.6l-35.1-2.3L9.7,265.3 M8.6,264.1l0.2,16.6
		l37.3,2.4l-0.1-16.9c-0.4,0-0.9,0-1.4,0C33.1,266.3,8.6,264.1,8.6,264.1L8.6,264.1z"/>
</g>
<g>
	<polygon points="10.5,26.2 10.5,12 46.3,14.2 46.3,29.9 	"/>
	<path class="st2" d="M11,12.5l34.8,2.2l0,14.6L11,25.7V12.5 M9.9,11.4v15.3l36.9,3.8l0-16.8L9.9,11.4L9.9,11.4z"/>
</g>
</svg>
