<?xml version="1.0" encoding="utf-8"?>
<!-- Generator: Adobe Illustrator 19.0.1, SVG Export Plug-In . SVG Version: 6.00 Build 0)  -->
<svg version="1.1" id="Layer_1" xmlns="http://www.w3.org/2000/svg" xmlns:xlink="http://www.w3.org/1999/xlink" x="0px" y="0px"
	 viewBox="0 0 360 504" style="enable-background:new 0 0 360 504;" xml:space="preserve">
<style type="text/css">
	.st0{fill:#064C77;}
	.st1{fill:#231F20;}
	.st2{fill:none;stroke:#231F20;stroke-miterlimit:10;}
	.st3{fill:#064C77;stroke:#231F20;stroke-miterlimit:10;}
	.st4{fill:#FFFFFF;stroke:#231F20;stroke-miterlimit:10;}
	.st5{fill:#FFFFFF;}
	.st6{fill:#075F9B;}
	.st7{fill:#DDDDDD;}
	.st8{fill:#A7A9AC;}
	.st9{fill:#3A1B01;}
	.st10{fill:#D6D6D6;}
	.st11{fill:#EDEDED;}
	.st12{fill:#723900;}
	.st13{fill:#EABE03;}
	.st14{fill:#918300;}
	.st15{fill:#823D2C;}
	.st16{fill:#5B2616;}
	.st17{fill:#00E9D2;}
	.st18{fill:#BA08AE;}
	.st19{fill:#93031C;}
	.st20{fill:#BA08AE;stroke:#93031C;stroke-width:0.3132;stroke-miterlimit:10;}
	.st21{fill:none;stroke:#231F20;stroke-width:1.3583;stroke-miterlimit:10;}
</style>
<g>
	<path class="st0" d="M-212.8,453.8c-1.9-0.3-3.9-0.7-5.8-0.4c-1.9,0.3-3.8,1.5-4.5,3.3c-0.5,1.4-0.3,2.9-0.3,4.4
		c0.1,2.5-0.4,5.1,0.4,7.6c1.2,3.7,4.9,6,8.6,7c2.1,0.5,4.4,0.8,6.3-0.1c1.9-0.9,3.1-2.7,3.8-4.6c0.6-2,0.7-4,0.7-6.1
		c0-1.3-0.1-2.6-0.7-3.7c-0.8-1.6-2.5-2.6-4.1-3.2c-1.7-0.7-3.4-1.1-5-2.1"/>
	<g>
		<path class="st0" d="M-230.3,436.8c2.9,5.3,5.8,10.5,8.7,15.8c0.7,1.2,1.4,2.5,2.4,3.4c1.1,1,2.6,1.6,3.9,2.4
			c4,2.7,5.2,8.1,6,12.9c1.6,9.4,3.2,18.8,4.8,28.2c0.5,2.9,0.1,3.1,2.7,3.5c1.4,0.2,3,0,4.4,0c3.4,0,6.7,0,10.1,0
			c7,0,14.1,0,21.1,0c8.1,0,16.2,0,24.4,0c-2.2-17.1,8.1-33.3,12.7-50c0.9-3.3,1.6-6.6,1.4-10c-0.3-5.9-3.3-11.5-4-17.4
			c-0.4-3.5,0-7-0.5-10.4c-0.5-3.4-2-7-5.1-8.6c-1.8-0.9-3.9-1.1-5.9-1.2c-22.3-1.3-44.6-1.4-66.8-0.2c-5.8,0.3-11.5,0.7-17.2,1.5
			c-3.4,0.5-6.8,1.1-10.2,1.8c-3.3,0.6-6.6,1.3-9.9,1.9c-6.6,1.3-13.2,2.5-19.4,5.2c1.5,1.4,1.9,3.8,1.1,5.7
			c-5.6,12.6-5.4,27-4.1,40.7c1.3,13.7,4,27.4,1.8,41h76.9"/>
		<path class="st1" d="M-230.3,436.8l8.2,14.8c0.7,1.2,1.3,2.5,2.2,3.6c0.9,1.1,2.1,1.7,3.4,2.4c1.3,0.6,2.4,1.5,3.3,2.7
			c0.9,1.1,1.6,2.4,2.1,3.7c1.1,2.7,1.5,5.5,2,8.2l1.4,8.3l2.9,16.6c0.2,1.4,0.5,2.8,0.7,4.2c0.1,0.3,0.1,0.7,0.3,0.8
			c0.1,0.2,0.4,0.3,0.7,0.4c0.6,0.1,1.4,0.3,2,0.3c1.4,0.1,2.8-0.1,4.2-0.1l4.2,0l16.9,0l33.8-0.1l-0.5,0.6
			c-0.6-4.9-0.2-9.8,0.8-14.6c1-4.8,2.5-9.4,4.2-13.9c1.7-4.5,3.5-9,5.1-13.5c0.4-1.1,0.8-2.3,1.2-3.4c0.4-1.1,0.7-2.3,1.1-3.4
			c0.7-2.3,1.3-4.6,1.6-7c0.3-2.3,0.3-4.7-0.2-7.1c-0.4-2.3-1.1-4.6-1.8-6.9c-0.7-2.3-1.4-4.7-1.7-7.1c-0.3-2.4-0.2-4.9-0.3-7.3
			c0-2.4-0.2-4.8-1.1-7c-0.8-2.2-2.3-4.2-4.4-5.1c-2.1-0.9-4.6-0.9-6.9-1.1l-7.2-0.4c-19.3-0.9-38.6-0.8-57.9,0.2
			c-4.8,0.2-9.6,0.5-14.4,1.1c-2.4,0.3-4.7,0.7-7.1,1.1c-2.4,0.4-4.8,0.8-7.1,1.3c-4.7,0.9-9.5,1.8-14.2,2.7
			c-4.7,1-9.4,2.2-13.8,4.1l0.1-0.5c1.4,1.4,1.9,3.5,1.4,5.4c-0.3,0.9-0.7,1.7-1,2.6c-0.3,0.9-0.6,1.7-0.9,2.6l-0.8,2.6
			c-0.2,0.9-0.5,1.8-0.7,2.7c-0.4,1.8-0.7,3.6-0.9,5.4c-0.2,1.8-0.4,3.7-0.5,5.5c-0.1,1.8-0.2,3.7-0.2,5.5c0,1.8,0,3.7,0.1,5.5
			c0.1,1.8,0.2,3.7,0.3,5.5c0.5,7.4,1.6,14.7,2.3,22c0.2,1.8,0.3,3.7,0.4,5.5c0.1,1.8,0.2,3.7,0.2,5.6c0,1.9-0.1,3.7-0.2,5.6
			c-0.1,0.9-0.2,1.8-0.3,2.8l-0.4,2.8l-0.2-0.2l76.9,0.1v0.1l-76.9,0.1l-0.2,0l0-0.2l0.4-2.7c0.1-0.9,0.2-1.8,0.2-2.8
			c0.1-1.8,0.2-3.7,0.2-5.5c0-1.8-0.1-3.7-0.2-5.5c-0.1-1.8-0.3-3.7-0.4-5.5c-0.7-7.3-1.8-14.7-2.4-22c-0.1-1.8-0.3-3.7-0.4-5.5
			c-0.1-1.8-0.1-3.7-0.1-5.6c0-1.9,0-3.7,0.2-5.6c0.1-1.9,0.3-3.7,0.5-5.5c0.2-1.8,0.6-3.7,0.9-5.5c0.2-0.9,0.4-1.8,0.7-2.7l0.8-2.7
			c0.3-0.9,0.6-1.8,0.9-2.6c0.3-0.8,0.7-1.7,1-2.5c0.5-1.7,0-3.6-1.2-4.8l-0.3-0.3l0.4-0.2c4.5-2,9.2-3.2,13.9-4.2
			c4.7-1,9.5-1.8,14.2-2.8c2.4-0.5,4.8-0.9,7.1-1.3c2.4-0.4,4.8-0.9,7.2-1.1c4.8-0.6,9.6-0.9,14.5-1.1c19.3-1,38.6-1.1,57.9-0.3
			l7.2,0.4c2.4,0.2,4.9,0.1,7.3,1.1c1.2,0.5,2.2,1.3,3,2.3c0.8,1,1.4,2.1,1.9,3.3c0.9,2.3,1.1,4.8,1.1,7.3c0.1,2.4,0,4.8,0.3,7.2
			c0.3,2.3,1,4.6,1.7,7c0.7,2.3,1.4,4.6,1.9,7c0.5,2.4,0.5,4.9,0.2,7.4c-0.3,2.4-0.9,4.8-1.6,7.1c-0.3,1.2-0.7,2.3-1.1,3.5
			c-0.4,1.2-0.8,2.3-1.2,3.4c-1.6,4.6-3.5,9-5.1,13.5c-1.7,4.5-3.2,9.1-4.1,13.8c-1,4.7-1.3,9.5-0.8,14.2l0.1,0.6l-0.6,0l-33.8-0.1
			l-16.9,0l-4.2,0c-1.4,0-2.8,0.1-4.2,0.1c-0.8,0-1.4-0.2-2.2-0.3c-0.3-0.1-0.8-0.2-1.1-0.6c-0.3-0.4-0.3-0.8-0.4-1.1
			c-0.2-1.4-0.4-2.8-0.7-4.2l-2.8-16.7l-1.4-8.3c-0.5-2.8-0.9-5.6-1.9-8.2c-0.5-1.3-1.2-2.5-2-3.6c-0.9-1.1-2-1.9-3.2-2.6
			c-1.2-0.7-2.5-1.3-3.4-2.5c-0.9-1.1-1.5-2.4-2.2-3.6L-230.3,436.8L-230.3,436.8z"/>
	</g>
	<path class="st2" d="M-191.4,153.9c-3.3,3.9-6.1,8.1-8.5,12.6c-1.3,2.5-2.5,5.1-2.8,7.8"/>
	<path class="st2" d="M-205.4,179.6c1.3-1,2.1-2.6,2.2-4.2c0-0.4,0-0.9-0.3-1.3c-0.2-0.4-0.7-0.6-1.1-0.5"/>
	<path class="st3" d="M-198.9,161.1c-10.2,3.9-20.4,7.8-30.7,11.7c-3.4,1.3-6.9,2.7-9.5,5.3c-1.9,2-3.2,4.5-4.3,7
		c-5.6,13-7.1,27.3-9.8,41.2c-1.8,9.5-4.2,19-6.5,28.4c-8.9,35.9-17.9,71.8-26.8,107.7c-4,16-7.6,32.6-10.1,48.9
		c10.1,0.4,20.8,1,28.9,7c2.5,1.9,4.7,4.3,7.5,5.8c6.9,3.6,16.6-0.1,19.2-7.4c6.5,7,15.9,11.1,25.4,11.1c17.9,0,33.4-13.7,51.2-15.1
		c-2.8,2.3,0,6.6,2.7,9c8.2,7.1,16.3,14.2,24.5,21.3c7.4-5.5,9.6-15.2,13.1-23.7c1.7-4.3,3.9-8.3,6-12.4c7.7-14.6,15.3-29.2,23-43.8
		c2.7-5.2,5.5-10.4,9.4-14.7c4.1-4.4,9.6-8.3,10.4-14.3c0.2-2-0.1-4-0.4-5.9c-1.6-11.9,0.2-24,1.9-35.9c1.4-9.5,0.2-19.3,0-28.9
		c-0.1-3-0.1-6,0.1-9c0.3-2.9,0.8-5.7,0.9-8.6c0.4-8.6-2.9-16.9-4-25.5c-0.9-7.7,0-15.4-0.9-23.1c-0.5-5.1-2.2-10.6-6.6-13.2
		c-2.6-1.5-5.6-1.7-8.5-2.4c-5.7-1.4-10.8-4.6-15.7-7.7c-5.1-3.2-10.2-6.5-15.3-9.7c-5.8-3.7-12-7.9-14.2-14.4
		c-0.4-1.3-0.8-2.8-2-3.5c-1.4-0.8-3.1,0-4.5,0.8c-8.8,4.8-18.4,8.5-28.2,10.7c-8.7,2-17.7,2.9-26.6,3.8"/>
	<path class="st4" d="M-209.5,179.2c1.9,0.1,3.7-0.8,5.6-0.9c3-0.1,5.7,1.7,7.5,4.2c1.7,2.4,2.5,5.4,3.4,8.2
		c0.3,0.9,0.5,1.9,0.5,2.9c-0.1,1-0.5,2-0.8,3c-2.7,7.2-2.9,15.1-5.4,22.3c-0.9,2.6-2.1,5.1-2.7,7.8c-1.4,5.9,0.1,12.2-0.9,18.2
		c-0.4,2.4-1.2,4.7-1.9,7c-1,3.1-2,6.1-3.1,9.2c0.1-0.4,0.1-0.9,0.2-1.3c-0.2,3.2-7.2,25.6-7.8,25.4c-1.5-0.6-6-17.5-6.3-19
		c-0.9-4.8,0.2-9.8-0.7-14.5c-0.4-2.3-1.3-4.6-1.7-6.9c-0.4-2.3-0.3-4.7-0.3-7c0.1-4.6,0.2-9.1,0.2-13.7c0-3.1,0-6.1-0.4-9.1
		c-0.2-1.1-0.4-2.3-0.4-3.4c0.1-1.3,0.5-2.5,1-3.8c3.9-10.4,8.6-20.4,14-30.1"/>
	<path class="st4" d="M-211,274.7c0.4-9,1.4-18.2,2.5-27.1c0.8-7.6,2.8-14.9,4.8-22.3c1.7-6.2,3.3-12.3,5.4-18.4
		c1.2-3.6,2.6-7.1,4.1-10.6c0.9-2.2,1.9-4.5,2.9-6.7c0.4-0.9,0.8-1.9,1.2-2.8c0.7-1.5,1.3-3.1,2.1-4.6c2.8-5.1,7.1-9.3,12.2-12
		c5.6,1.3,11.5,3.6,14.3,8.6c1.5,2.6,2,5.6,2.3,8.6c0.3,2.4,0.5,4.8-0.3,7c-1,2.9-3.5,5-5.5,7.3c-6.2,7.4-7.3,17.8-11.9,26.3
		c-1.6,2.9-3.6,5.6-5.6,8.3c-4.4,5.9-8.9,11.8-13.3,17.8c-2,2.7-4.2,5.6-7.4,6.8"/>
	<g>
		<path class="st5" d="M-142.9,142.2c1.9,1.3,2.5,4,2,6.3c-0.5,2.3-1.9,4.3-3.2,6.2c-7,10.2-13.7,20.6-19.7,31.4
			c-0.3,0.6-0.9,1.3-1.6,1.2c-0.4-0.1-0.7-0.5-1-0.9c-3.2-5.4-6.1-10.9-8.8-16.5c1.7-1.7,3.5-3.3,5.4-4.7c6.2-4.8,13.4-8.2,19-13.6
			c2.9-2.8,5.3-6,7.7-9.2"/>
		<path class="st1" d="M-142.9,142.1c1.3,0.9,2,2.4,2.2,3.9c0.2,1.5-0.1,3.1-0.8,4.5c-0.6,1.4-1.5,2.7-2.3,4l-2.5,3.8
			c-3.4,5.1-6.7,10.2-9.9,15.4c-1.6,2.6-3.2,5.2-4.7,7.9l-2.3,4c-0.4,0.6-0.6,1.5-1.6,1.9c-0.5,0.2-1.1,0-1.5-0.3
			c-0.3-0.3-0.5-0.7-0.7-1c-3.2-5.2-6.1-10.6-8.7-16.2l-0.1-0.3l0.3-0.2c2.5-2.5,5.3-4.8,8.2-6.8c2.9-2.1,6-3.8,8.9-5.8
			c2.9-2,5.8-4,8.3-6.5c2.5-2.5,4.7-5.3,6.9-8.1l0.1,0.1c-2.1,2.9-4.1,5.8-6.6,8.4c-0.6,0.7-1.3,1.3-1.9,1.9c-0.7,0.6-1.3,1.2-2,1.8
			c-1.4,1.1-2.8,2.2-4.3,3.2c-2.9,2-5.9,3.9-8.8,5.9c-2.9,2-5.6,4.3-8.1,6.7l0.1-0.6c2.5,5.5,5.3,11,8.4,16.2
			c0.2,0.3,0.4,0.7,0.6,0.9c0.2,0.2,0.4,0.3,0.6,0.2c0.5-0.2,0.8-0.9,1.2-1.6l2.3-4c1.6-2.6,3.1-5.3,4.8-7.8
			c3.2-5.2,6.6-10.3,10.1-15.3l2.6-3.8c0.9-1.3,1.7-2.5,2.3-3.9c0.6-1.4,1-2.9,0.8-4.4C-141,144.6-141.7,143.1-142.9,142.1
			L-142.9,142.1z"/>
	</g>
	<g>
		<path class="st6" d="M-127,162.8c-0.3,5.2-1.2,10.4-2.8,15.3c-4.5-0.6-9.3,0.8-12.8,3.7c2.7,2.8,5.8,5.3,9.3,7.3
			c-5,4.2-9.3,9.1-13.6,14.1c-14.1,16.2-28.2,32.4-42.3,48.5c-4.8,5.5-9.6,11-13.8,17.1c-4.7,6.9-8.5,14.4-14.1,20.5
			c6.4-17.8,14-35.2,23-51.9c2.7-5.1,5.6-10.2,8.4-15.3c6.6-11.7,13.1-23.3,19.7-35c1.4-2.6,2.9-5.2,4.9-7.4
			c1.8-2.1,4.1-3.8,5.9-5.8c2.1-2.4,3.5-5.2,5-7.9c3.2-6.2,6.5-12.4,9.7-18.5c0.2-0.4,0.5-0.9,0.9-1.2c1-0.7,2.4,0.2,2.9,1.3
			s0.5,2.4,0.9,3.5c1.5,4.7,8.7,6.1,9.3,11"/>
		<path class="st7" d="M-127,162.8c-0.3,5.2-1.2,10.4-2.7,15.4l0,0.1l-0.1,0c-1.1-0.1-2.3-0.1-3.4,0c-1.1,0.1-2.2,0.3-3.3,0.6
			c-0.5,0.2-1.1,0.3-1.6,0.6c-0.5,0.2-1,0.4-1.5,0.7c-1,0.5-1.9,1.1-2.8,1.9l0-0.4c2.7,2.8,5.8,5.2,9.2,7.2l0.4,0.2l-0.3,0.3
			c-4.1,3.5-7.8,7.5-11.4,11.6l-10.7,12.4c-7.1,8.3-14.3,16.5-21.5,24.7l-10.8,12.3c-3.6,4.1-7.2,8.2-10.6,12.5
			c-1.7,2.1-3.3,4.3-4.8,6.5c-1.5,2.3-3,4.6-4.4,6.9c-2.9,4.6-5.8,9.3-9.6,13.3l-1.4,1.5l0.7-1.9c5.2-14.6,11.3-28.8,18.2-42.6
			c1.7-3.5,3.5-6.9,5.4-10.3l5.6-10.1c3.7-6.8,7.6-13.5,11.4-20.2l11.4-20.2c1-1.7,2-3.3,3.2-4.9c1.2-1.6,2.6-2.9,4-4.2
			c1.4-1.3,2.8-2.6,3.9-4.2c1.1-1.5,2.1-3.2,3-4.9l10.8-20.5c0.2-0.4,0.6-0.9,1-1.1c0.5-0.2,1-0.1,1.5,0.1c0.4,0.2,0.8,0.6,1.1,1
			c0.3,0.4,0.4,0.9,0.6,1.4c0.2,0.9,0.3,1.9,0.6,2.8c0.3,0.9,0.9,1.7,1.5,2.4c1.3,1.4,3,2.4,4.5,3.7c1.5,1.2,2.9,2.7,3.2,4.7l-0.1,0
			c-0.3-1.9-1.7-3.4-3.2-4.6c-1.5-1.2-3.2-2.2-4.5-3.7c-0.7-0.7-1.3-1.5-1.6-2.4c-0.4-0.9-0.4-1.9-0.7-2.8c-0.1-0.5-0.3-0.9-0.5-1.3
			c-0.3-0.4-0.6-0.7-1-0.9c-0.4-0.2-0.9-0.3-1.3-0.1c-0.4,0.2-0.7,0.6-0.9,1l-10.7,20.5c-0.9,1.7-1.9,3.4-3,5
			c-1.1,1.6-2.6,2.9-4,4.2c-1.4,1.3-2.8,2.6-4,4.2c-1.2,1.5-2.2,3.2-3.1,4.9l-11.3,20.2c-3.8,6.7-7.6,13.5-11.3,20.2l-5.6,10.2
			c-1.8,3.4-3.6,6.8-5.3,10.3c-6.9,13.8-12.9,28.1-18,42.6l-0.7-0.4c3.6-4,6.5-8.6,9.4-13.3c1.4-2.3,2.9-4.6,4.4-6.9
			c1.5-2.3,3.2-4.5,4.9-6.6c3.4-4.3,7-8.4,10.6-12.5l10.7-12.3c7.2-8.2,14.3-16.4,21.5-24.6l10.8-12.3c3.6-4.1,7.4-8.1,11.6-11.6
			l0,0.5c-3.4-2-6.6-4.5-9.3-7.4l-0.2-0.2l0.2-0.2c1.8-1.5,3.9-2.5,6.1-3.2c1.1-0.3,2.3-0.5,3.4-0.6c1.1-0.1,2.3-0.1,3.4,0.1
			l-0.2,0.1C-128.4,173.2-127.4,168-127,162.8L-127,162.8z"/>
	</g>
	<g>
		<path class="st5" d="M-190.3,150.7c-3.1,2.6-5.8,5.6-8,9c-0.7,1.1-1.4,2.3-2,3.4c-1.5,2.8-2.7,5.7-3.9,8.7
			c-0.3,0.6-0.5,1.2-0.8,1.8c-2,4.7-4,9.4-5.9,14c1.5-2.5,3.1-4.9,4.9-7.2c0.4,2,0.7,4,1.1,5.9c0.1,0.4,0.2,0.8,0.4,1.1
			c0.3,0.4,0.7,0.6,1.1,0.7c2.7,0.8,6.2-1.1,8.2,0.9c1.3,1.3,0.2,3.6,1.6,4.7c0.9-0.7,1.5-2,1.1-3.1c-1.3-3.3-2.5-6.6-3.8-10
			c-0.4-1-0.7-2-0.9-3c-0.2-1.4,0-2.9,0.4-4.3c0.5-1.7,1.4-3.3,2.2-5c0.2-0.3,0.3-0.6,0.5-0.9c0.4-0.7,0.7-1.4,1.1-2.1
			c2.1-4.3,3.8-9,3.3-13.7c-0.1-0.6-0.2-1.3-0.7-1.7"/>
		<path class="st1" d="M-190.2,150.8c-2.7,2.4-5,5.1-7,8c-2,2.9-3.5,6.2-4.9,9.4l-4.1,9.9l-4.2,9.9l-0.9-0.4c1.5-2.5,3.2-4.9,5-7.2
			l0.6-0.8l0.2,1l1,5.5c0.1,0.5,0.1,0.9,0.3,1.3c0.1,0.3,0.4,0.5,0.8,0.7c0.1,0,0.2,0.1,0.3,0.1c0.1,0,0.2,0.1,0.3,0.1
			c0.2,0,0.4,0.1,0.6,0.1c0.4,0,0.9,0,1.3,0c0.9-0.1,1.8-0.2,2.8-0.2c0.9,0,2,0.1,2.9,0.7c0.1,0.1,0.2,0.2,0.3,0.3l0.1,0.1
			c0.1,0.1,0,0.1,0.1,0.1l0.1,0.1c0.2,0.2,0.3,0.5,0.4,0.7c0.2,0.5,0.2,1,0.3,1.5c0.1,0.9,0.1,1.8,0.8,2.3l-0.4,0
			c0.7-0.5,1.2-1.4,1.1-2.3c0-0.4-0.3-0.8-0.4-1.3l-0.5-1.4l-2.1-5.5l-1-2.7c-0.3-0.9-0.7-1.9-0.8-2.9c-0.2-2,0.3-4,1.1-5.8
			c0.8-1.8,1.8-3.5,2.6-5.2c0.9-1.7,1.8-3.5,2.5-5.3c0.7-1.8,1.2-3.7,1.5-5.6c0.1-1,0.2-1.9,0.1-2.9c0-0.5,0-1-0.1-1.4
			c-0.1-0.5-0.3-0.9-0.6-1.2l0.1-0.1c0.4,0.3,0.6,0.8,0.7,1.3c0.1,0.5,0.1,1,0.1,1.5c0.1,1,0,2-0.1,2.9c-0.2,1.9-0.8,3.9-1.4,5.7
			c-0.7,1.8-1.5,3.6-2.4,5.3c-0.9,1.8-1.8,3.5-2.6,5.2c-0.7,1.8-1.2,3.7-1,5.6c0.1,0.9,0.4,1.8,0.8,2.8l1.1,2.7l2.1,5.5l0.5,1.4
			l0.3,0.7c0.1,0.2,0.2,0.5,0.2,0.8c0.1,1.1-0.5,2.1-1.3,2.8l-0.2,0.2l-0.2-0.2c-0.4-0.3-0.7-0.8-0.8-1.3c-0.1-0.5-0.2-1-0.2-1.4
			c0-0.5-0.1-0.9-0.2-1.3c-0.1-0.2-0.1-0.3-0.3-0.5l-0.1-0.1c0,0-0.1-0.1,0,0l-0.1-0.1c-0.1-0.1-0.2-0.1-0.2-0.2
			c-0.7-0.5-1.5-0.6-2.4-0.6c-0.9,0-1.8,0.2-2.7,0.2c-0.5,0-1,0-1.4,0c-0.2,0-0.5,0-0.7-0.1c-0.1,0-0.2-0.1-0.4-0.1
			c-0.1,0-0.3-0.1-0.4-0.1c-0.5-0.2-1-0.6-1.2-1.1c-0.2-0.5-0.3-1-0.4-1.4l-1-5.5l0.8,0.2c-1.8,2.3-3.3,4.7-4.8,7.2l-0.9-0.4
			l4.2-9.9l2.1-4.9l2.1-4.9c1.5-3.3,3.1-6.5,5.2-9.4C-195.6,155.5-193.1,152.9-190.2,150.8L-190.2,150.8z"/>
	</g>
	<g>
		<path class="st6" d="M-221.2,169.5c0.1,1.8,0.3,3.6,0.4,5.4c1.8-0.2,3.6-0.3,5.3,0.2c1.7,0.6,3.2,2.2,3.1,4
			c-2.7,0.8-6.2-1.1-8.3,0.9c-0.6,0.6-0.9,1.3-1.3,2.1c-8.6,20-14.1,42.1-10.9,63.7c2.4,16.3,10.9,33.3,14.2,49.5
			c1.8-3.2,3.1-7.7,2.9-11.4c-0.2-3.7-1.5-7.2-2.2-10.8c-0.7-3.3-0.9-6.7-1.1-10c-0.5-7.5-1-15.1-1.5-22.6c-0.3-4.5-0.6-9-0.4-13.6
			c0.6-13.1,5.5-25.5,10.3-37.7c3.5-8.9,7-17.7,10.5-26.6"/>
		<path class="st7" d="M-221.2,169.5l0.5,5.4l-0.1-0.1c1.8-0.2,3.6-0.4,5.4,0.2c0.9,0.3,1.7,0.8,2.3,1.5c0.6,0.7,1,1.6,0.9,2.6
			l0,0.1l-0.1,0c-1.4,0.4-2.7,0.2-4.1,0.1c-1.3-0.1-2.7-0.2-3.7,0.4c-1.1,0.7-1.5,2-2,3.2c-0.5,1.2-1,2.5-1.5,3.7
			c-1,2.5-1.9,5-2.7,7.5c-0.9,2.5-1.6,5.1-2.4,7.6l-1,3.9l-0.9,3.9l-0.8,3.9l-0.7,3.9l-0.5,3.9l-0.4,4l-0.2,4l-0.1,4l0.1,4
			c0.1,1.3,0.2,2.6,0.3,4c0.1,1.3,0.3,2.6,0.5,3.9c0.2,1.3,0.4,2.6,0.7,3.9c0.5,2.6,1.1,5.2,1.8,7.7c0.7,2.6,1.5,5.1,2.3,7.6
			c3.3,10.1,7.1,20.1,9.3,30.6l-0.7-0.1c1.3-2.5,2.2-5.2,2.7-8c0.5-2.8,0.1-5.6-0.6-8.4c-0.7-2.8-1.5-5.5-1.8-8.4
			c-0.4-2.9-0.6-5.7-0.7-8.6l-1.1-17.1c-0.3-5.7-0.9-11.4-0.7-17.2c0.2-5.7,1.2-11.4,2.8-16.9c1.5-5.5,3.5-10.9,5.6-16.2l12.7-31.9
			l0.1,0l-12.5,31.9c-2,5.3-4,10.7-5.5,16.2c-1.5,5.5-2.5,11.1-2.7,16.8c-0.2,5.7,0.4,11.4,0.8,17.1l1.2,17.1
			c0.2,2.9,0.4,5.7,0.8,8.5c0.4,2.8,1.2,5.5,1.9,8.3c0.7,2.8,1.1,5.7,0.6,8.6c-0.4,2.9-1.4,5.7-2.7,8.2l-0.5,1l-0.2-1.1
			c-2.2-10.4-6.2-20.4-9.5-30.5c-0.8-2.5-1.6-5.1-2.3-7.7c-0.7-2.6-1.3-5.2-1.9-7.8c-0.2-1.3-0.5-2.6-0.7-4c-0.2-1.3-0.3-2.7-0.5-4
			c-0.1-1.3-0.2-2.7-0.3-4l-0.1-4l0.1-4l0.2-4l0.4-4l0.6-4l0.7-4l0.8-3.9l1-3.9l1.1-3.9c0.8-2.6,1.6-5.1,2.5-7.6
			c0.9-2.5,1.8-5,2.8-7.5c0.5-1.2,1-2.5,1.5-3.7c0.3-0.6,0.5-1.2,0.8-1.8c0.3-0.6,0.8-1.2,1.4-1.6c1.3-0.8,2.8-0.6,4.1-0.5
			c1.3,0.1,2.7,0.3,3.9,0l-0.2,0.2c0.1-0.8-0.3-1.7-0.8-2.3c-0.5-0.7-1.3-1.2-2.1-1.5c-1.7-0.6-3.5-0.4-5.3-0.3l-0.1,0l0-0.1
			L-221.2,169.5L-221.2,169.5z"/>
	</g>
	<g>
		<path class="st7" d="M-240.9,416.7c0,0,0-0.1-0.1-0.4c-0.1-0.2-0.2-0.6-0.4-1.1c-0.3-1-0.5-2.4-0.7-4.2c-0.2-1.8-0.2-4.1-0.6-6.6
			c-0.3-2.6-0.4-5.5-0.1-8.7c0.3-3.2,0.9-6.6,1.6-10.1c0.7-3.6,1.5-7.3,2.2-11.2c1.4-7.8,3-16.1,4.8-24.4c1.8-8.3,3.8-16.5,5.9-24.2
			c2.1-7.7,4.3-14.7,6.2-20.8c2-6,3.8-11,5.1-14.5c1.3-3.5,2.1-5.4,2.1-5.4s-0.7,2-1.9,5.5c-1.2,3.5-2.8,8.5-4.7,14.6
			c-1.9,6.1-3.9,13.2-5.9,20.8c-2,7.7-4,15.9-5.8,24.1c-1.8,8.3-3.5,16.5-4.9,24.3c-0.7,3.9-1.6,7.7-2.3,11.2
			c-0.8,3.5-1.4,6.9-1.7,10.1c-0.3,3.1-0.4,6-0.1,8.6c0.3,2.6,0.3,4.8,0.4,6.7c0.1,1.8,0.3,3.3,0.6,4.2c0.1,0.5,0.2,0.8,0.3,1.1
			C-241,416.6-240.9,416.7-240.9,416.7z"/>
	</g>
	<g>
		<path class="st1" d="M-149.8,379.5c-1.2,0-2.5,0.1-3.7,0c-1.2,0-2.5-0.1-3.7-0.1c-1.2-0.1-2.5-0.1-3.7-0.2
			c-1.2-0.1-2.5-0.2-3.7-0.4c-4.9-0.6-9.8-1.6-14.6-2.9c-1.2-0.3-2.4-0.7-3.6-1.1c-1.2-0.4-2.4-0.8-3.5-1.2c-1.2-0.4-2.4-1-3.4-1.9
			c-1-1-1.4-2.3-1.7-3.5c-0.3-1.3-0.4-2.5-0.5-3.8c-0.1-1.3-0.1-2.5,0-3.8c0.1-2.5,0.6-5,1.3-7.4l0.1-0.4l0.4,0
			c4.2,0.3,8.3,0.6,12.5,0.9l12.5,0.7l25,1.1c-8.3,0-16.7-0.1-25-0.4c-4.2-0.1-8.3-0.3-12.5-0.5c-4.2-0.2-8.3-0.5-12.5-0.8l0.5-0.3
			c-0.7,2.3-1.1,4.8-1.3,7.2c-0.1,1.2-0.1,2.4,0,3.7c0.1,1.2,0.2,2.5,0.4,3.6c0.3,1.2,0.7,2.3,1.5,3.1c0.8,0.9,1.9,1.3,3,1.8
			c1.2,0.4,2.3,0.8,3.5,1.2c1.2,0.4,2.4,0.7,3.5,1.1c4.7,1.4,9.6,2.4,14.5,3.1c2.4,0.4,4.9,0.7,7.4,0.8c1.2,0.1,2.5,0.2,3.7,0.2
			C-152.3,379.5-151.1,379.5-149.8,379.5z"/>
	</g>
	<g>
		<path class="st1" d="M-228.8,355.5c0,0,0.2-0.1,0.5-0.2c0.3-0.1,0.8-0.2,1.3-0.2c0.6,0,1.2,0.1,1.9,0.3c0.7,0.2,1.4,0.5,2,0.8
			c1.3,0.7,2.5,1.5,3.3,2.2c0.9,0.7,1.4,1.2,1.4,1.2s-0.7-0.2-1.7-0.7c-1-0.5-2.2-1.2-3.5-1.8c-1.2-0.7-2.5-1.2-3.5-1.4
			c-0.5-0.1-0.9-0.2-1.3-0.2C-228.6,355.5-228.8,355.5-228.8,355.5z"/>
	</g>
	<g>
		<path class="st1" d="M-236.9,178.3c0,0-0.2,0.2-0.5,0.5c-0.3,0.3-0.8,0.8-1.3,1.6c-1,1.5-2,3.9-2.7,7.2
			c-1.4,6.5-3.2,15.9-4.5,27.2c-1.4,11.3-2.2,24.6-1.9,38.9c0.1,7.1,0.6,14.5,1.1,22c0.5,7.5,0.9,15.1,0.6,22.8
			c-0.2,3.8-0.5,7.6-1.1,11.4c-0.6,3.8-1.5,7.5-2.5,11.1c-0.5,1.8-0.9,3.6-1.3,5.4c-0.3,1.8-0.7,3.6-1,5.4
			c-0.7,3.6-1.3,7.2-1.9,10.7c-1.2,7-2.4,13.8-3.5,20.3c-1.2,6.5-2.8,12.5-4.1,18c-1.4,5.5-2.6,10.6-3.3,15.2
			c-0.7,4.6-1.2,8.6-1.6,11.9c-0.9,6.6-1.6,10.3-1.6,10.3s0.7-3.7,1.5-10.4c0.4-3.3,0.8-7.3,1.4-11.9c0.6-4.6,1.8-9.7,3.1-15.3
			c1.3-5.6,2.9-11.5,4-18c1.1-6.5,2.2-13.3,3.4-20.3c0.6-3.5,1.2-7.1,1.9-10.7c0.3-1.8,0.7-3.6,1-5.5c0.4-1.9,0.8-3.7,1.3-5.5
			c0.9-3.6,1.8-7.3,2.4-11c0.6-3.7,0.9-7.5,1.1-11.3c0.3-7.6-0.1-15.2-0.5-22.7c-0.5-7.5-0.9-14.9-1-22c-0.1-7.2,0.1-14.1,0.5-20.6
			c0.4-6.5,1-12.7,1.7-18.4c0.7-5.7,1.6-10.8,2.4-15.4c0.9-4.6,1.7-8.5,2.5-11.8c0.8-3.3,1.8-5.7,2.8-7.2c0.5-0.7,1-1.2,1.3-1.6
			C-237.1,178.5-236.9,178.3-236.9,178.3z"/>
	</g>
	<g>
		<path class="st1" d="M-86.5,185.8c0,0-0.3,0-0.7,0.1c-0.5,0-1.2,0.2-2.2,0.4c-1.9,0.4-4.6,1.3-7.7,3.1c-3.1,1.8-6.5,4.6-9.6,8.5
			c-3.1,3.9-5.8,8.9-8.1,14.5c-1.2,2.8-2.2,5.8-3.3,9c-1.1,3.1-2.1,6.4-3.1,9.7c-1,3.4-1.9,6.9-2.5,10.5c-0.7,3.6-1.1,7.4-1.4,11.2
			c-0.2,3.8-0.3,7.7-0.2,11.6c0.1,3.9,0.3,7.9,0.6,11.9c0.5,8,1.3,16.2,1.3,24.4c0,2,0,4.1-0.1,6.1c-0.1,2-0.1,4.1,0,6.1
			c0.1,2,0.4,4,1.1,5.8c0.3,0.9,0.8,1.8,1.3,2.6c0.5,0.8,1.2,1.7,1.5,2.8c0.1,0.6,0,1.2-0.3,1.7c-0.3,0.5-0.7,0.9-1.1,1.2
			c-0.4,0.3-0.6,0.7-0.8,1c-0.1,0.3-0.1,0.8,0,1.3c0.1,0.5,0.2,0.9,0.2,1.6c0,0.3,0,0.5,0,0.8c-0.1,0.3-0.1,0.6-0.2,0.8
			c-0.3,1-1,1.9-1.7,2.6c-1.4,1.5-3,2.6-4.1,4.1c-1.2,1.5-1.4,3.4-1.7,5.3c-0.2,0.9-0.3,1.9-0.7,2.8c-0.3,0.9-0.9,1.8-1.6,2.5
			c-0.8,0.7-1.6,1.1-2.1,1.8c-0.5,0.7-0.8,1.5-1,2.4c-0.5,3.6-1.6,7.2-3.3,10.3c-0.8,1.6-1.8,3-2.9,4.4c-0.6,0.7-1.1,1.3-1.4,2
			c-0.4,0.7-0.7,1.5-1,2.3c-0.6,1.5-1.1,3.1-2.3,4.4c-1.2,1.2-2.5,2-3.3,3.2c-0.8,1.2-1.2,2.7-1.5,4.1c-0.3,1.4-0.5,2.9-0.9,4.2
			c-0.7,2.7-1.6,5.2-2.5,7.6c-1.8,4.7-3.2,8.7-4.6,12.1c-0.7,1.6-1.5,3.1-2.5,4.1c-1,1-1.9,1.7-2.6,2.4c-0.7,0.7-1.1,1.3-1.3,1.8
			c-0.1,0.2-0.2,0.4-0.2,0.5c0,0.1,0,0.2,0,0.2s0-0.1,0-0.2c0-0.1,0.1-0.3,0.2-0.5c0.2-0.5,0.6-1.1,1.3-1.8c0.7-0.7,1.6-1.4,2.6-2.4
			c0.9-1,1.7-2.4,2.4-4.1c1.3-3.3,2.7-7.4,4.4-12.1c0.8-2.3,1.7-4.9,2.4-7.6c0.3-1.4,0.6-2.7,0.9-4.2c0.3-1.4,0.6-3,1.5-4.3
			c0.9-1.3,2.3-2.2,3.4-3.3c1-1.1,1.6-2.7,2.1-4.2c0.3-0.8,0.6-1.6,1-2.3c0.4-0.8,1-1.5,1.5-2.1c1.1-1.3,2-2.7,2.8-4.3
			c1.7-3.1,2.7-6.5,3.2-10.2c0.2-0.9,0.4-1.9,1.1-2.7c0.7-0.8,1.5-1.3,2.2-1.9c1.3-1.2,1.7-3.1,2-4.9c0.2-0.9,0.3-1.9,0.6-2.9
			c0.3-1,0.7-1.9,1.3-2.7c1.2-1.6,2.8-2.8,4.1-4.2c0.6-0.7,1.2-1.5,1.5-2.3c0.1-0.2,0.1-0.4,0.1-0.6c0-0.2,0-0.5,0-0.7
			c0-0.4-0.1-0.9-0.2-1.4c-0.1-0.5-0.1-1.1,0.1-1.7c0.2-0.6,0.6-1,1-1.4c0.4-0.4,0.7-0.7,0.9-1c0.2-0.4,0.3-0.7,0.2-1.2
			c-0.2-0.8-0.8-1.7-1.3-2.5c-0.6-0.9-1-1.8-1.4-2.8c-0.7-2-1-4-1.2-6.1c-0.1-2.1-0.1-4.1,0-6.2c0-2,0.1-4.1,0.1-6.1
			c0-8.2-0.7-16.3-1.2-24.3c-0.2-4-0.5-8-0.5-12c-0.1-4,0-7.9,0.2-11.7c0.3-3.8,0.8-7.6,1.5-11.2c0.7-3.6,1.6-7.1,2.6-10.5
			c1-3.4,2.1-6.6,3.2-9.8c1.1-3.1,2.2-6.1,3.4-9c2.3-5.7,5.1-10.7,8.3-14.6c3.2-3.9,6.6-6.7,9.8-8.4c3.1-1.8,5.9-2.6,7.7-3
			c0.9-0.2,1.7-0.3,2.2-0.3C-86.8,185.8-86.5,185.8-86.5,185.8z"/>
	</g>
	<g>
		<path class="st1" d="M-136.6,368.9c0,0-0.1,0.4-0.2,1c0,0.3-0.1,0.7,0,1.2c0,0.5,0.1,1,0.2,1.5c0.2,1.1,0.7,2.3,1.4,3.5
			c0.4,0.6,0.8,1.2,1.3,1.7c0.5,0.6,1,1.1,1.6,1.6c1.1,1,2.4,1.9,3.6,2.6c1.2,0.8,2.4,1.5,3.3,2.2c0.9,0.7,1.5,1.5,1.9,2.2
			c0.2,0.3,0.2,0.6,0.3,0.7c0.1,0.2,0.1,0.3,0.1,0.3s-0.2-0.4-0.5-0.9c-0.4-0.5-1.1-1.2-2-1.8c-0.9-0.6-2.1-1.2-3.4-1.9
			c-1.3-0.7-2.6-1.6-3.8-2.6c-0.6-0.5-1.1-1.1-1.7-1.7c-0.5-0.6-0.9-1.2-1.3-1.9c-0.7-1.3-1.1-2.7-1.2-3.9c-0.1-1.2,0-2.2,0.2-2.8
			c0.1-0.3,0.2-0.6,0.3-0.7C-136.7,369-136.6,368.9-136.6,368.9z"/>
	</g>
	<g>
		<path class="st1" d="M-119.8,317c1.4,0,2.8,0.1,4.2,0.3c1.4,0.2,2.8,0.5,4.1,0.8c1.4,0.4,2.7,0.8,4,1.3c1.3,0.5,2.6,1.1,3.8,1.8
			l-0.3-0.1c0.6,0,1.1-0.1,1.7-0.1c0.6,0,1.1,0,1.7,0.1c1.1,0.1,2.2,0.3,3.3,0.6c2.2,0.6,4.3,1.4,6.2,2.4c2,1,3.9,2.1,5.8,3.3
			c0.9,0.6,1.9,1.2,2.8,1.7c0.9,0.6,1.9,1.2,2.8,1.8c-1-0.5-2-1-3-1.5c-1-0.5-2-1-2.9-1.5c-1.9-1-3.9-2.1-5.9-3
			c-2-0.9-4-1.7-6.1-2.3c-0.5-0.1-1.1-0.2-1.6-0.4c-0.5-0.1-1.1-0.2-1.6-0.2c-0.5-0.1-1.1-0.1-1.6-0.1c-0.5,0-1.1,0-1.6,0l-0.2,0
			l-0.1-0.1c-1.2-0.7-2.4-1.3-3.7-1.9c-1.3-0.6-2.5-1.1-3.9-1.5c-0.7-0.2-1.3-0.4-2-0.6c-0.7-0.2-1.3-0.3-2-0.5
			c-0.7-0.1-1.4-0.3-2-0.4C-118.4,317.2-119.1,317.1-119.8,317z"/>
	</g>
	<g>
		<path class="st1" d="M-120,320.9c0,0,0.7,0.3,1.8,0.8c1,0.5,2.4,1.3,3.7,2.1c0.7,0.4,1.3,0.9,1.9,1.2c0.6,0.4,1.2,0.6,1.7,0.8
			c0.5,0.2,1,0.3,1.3,0.3c0.3,0,0.5,0,0.5,0s0,0-0.1,0.1c-0.1,0-0.2,0.1-0.4,0.1c-0.3,0.1-0.9,0.2-1.5,0.1c-0.6-0.1-1.3-0.3-2-0.6
			c-0.7-0.3-1.4-0.8-2-1.2c-1.3-0.8-2.5-1.7-3.4-2.5C-119.4,321.4-120,320.9-120,320.9z"/>
	</g>
	<g>
		<path class="st1" d="M-120.3,329.5c0,0,0.4,0.4,1.2,0.9c0.7,0.5,1.7,1.1,2.7,1.8c0.5,0.4,0.9,0.8,1.3,1.3c0.4,0.5,0.6,1,0.8,1.4
			c0.2,0.5,0.2,0.9,0.2,1.1c0,0.3,0,0.4,0,0.4s0-0.1-0.2-0.4c-0.1-0.2-0.3-0.6-0.5-0.9c-0.2-0.3-0.6-0.7-0.9-1.1
			c-0.4-0.4-0.8-0.7-1.3-1.1c-0.9-0.7-1.9-1.5-2.5-2.2c-0.3-0.4-0.5-0.7-0.6-1C-120.3,329.7-120.3,329.5-120.3,329.5z"/>
	</g>
	<g>
		<path class="st1" d="M-118.1,326.4c0,0,0.5-0.1,1.2-0.1c0.7,0,1.6,0,2.5,0.1c0.9,0.1,1.8,0.3,2.5,0.4c0.7,0.2,1.1,0.3,1.1,0.3
			s-0.5,0.2-1.2,0.2c-0.7,0.1-1.6,0.1-2.6,0c-0.9-0.1-1.8-0.3-2.5-0.6C-117.7,326.6-118.1,326.4-118.1,326.4z"/>
	</g>
	<g>
		<path class="st1" d="M-148.8,382.2c0,0,0.2-0.1,0.5-0.2c0.4-0.1,0.9-0.2,1.6,0c0.7,0.1,1.4,0.4,2.1,0.8c0.3,0.2,0.7,0.4,1.1,0.6
			c0.4,0.2,0.7,0.4,1.1,0.6c0.7,0.3,1.5,0.6,2.2,0.8c0.7,0.2,1.4,0.3,2,0.3c0.6,0,1.1,0,1.5,0c0.4,0,0.6,0,0.6,0s-0.2,0.1-0.5,0.2
			c-0.3,0.1-0.9,0.3-1.5,0.4c-0.6,0.1-1.4,0.1-2.2,0c-0.8-0.1-1.7-0.4-2.5-0.7c-0.4-0.2-0.8-0.4-1.1-0.6c-0.4-0.2-0.7-0.5-1-0.7
			c-0.6-0.4-1.2-0.8-1.8-1c-0.5-0.2-1-0.3-1.4-0.3c-0.2,0-0.3,0-0.4,0C-148.8,382.2-148.8,382.2-148.8,382.2z"/>
	</g>
	<g>
		<path class="st1" d="M-150.6,390.3c0,0,0.5,0.5,1.2,1.3c0.7,0.8,1.6,1.9,2.6,2.9c0.9,1.1,1.9,2.1,2.6,2.9c0.7,0.8,1.1,1.4,1.1,1.4
			s-0.7-0.3-1.5-1c-0.9-0.6-2-1.6-2.9-2.7c-0.9-1.1-1.8-2.3-2.3-3.2C-150.4,391-150.6,390.3-150.6,390.3z"/>
	</g>
	<g>
		<path class="st1" d="M-268.8,378.5c0,0,0-0.3,0-0.9c0-0.6-0.1-1.4-0.3-2.3c-0.1-1-0.3-2.1,0-3.5c0.2-0.6,0.5-1.3,0.9-1.8
			c0.5-0.5,1-1,1.5-1.4c2.1-1.5,4.3-3,5.9-4.1c0.8-0.5,1.5-0.9,2-1.2c0.5-0.3,0.8-0.4,0.8-0.4s-0.2,0.2-0.7,0.6
			c-0.4,0.4-1,0.9-1.8,1.5c-1.5,1.3-3.6,2.9-5.7,4.4c-0.5,0.4-1,0.8-1.4,1.2c-0.4,0.4-0.7,0.9-0.8,1.4c-0.3,1.1-0.3,2.2-0.3,3.2
			c0,1,0,1.8-0.1,2.4c0,0.3-0.1,0.5-0.1,0.7C-268.8,378.4-268.8,378.5-268.8,378.5z"/>
	</g>
	<g>
		<path class="st1" d="M-78.2,253.2c0,0,0-0.6-0.1-1.7c0-1.1-0.1-2.7-0.2-4.6c-0.1-1.9-0.1-4.1-0.2-6.5c0-2.4-0.1-4.9-0.1-7.4
			c0-2.5,0-5.1,0-7.4c0-2.4,0.1-4.6,0.1-6.5c0-0.9,0-1.8-0.1-2.5c-0.1-0.8-0.3-1.4-0.5-1.9c-0.2-0.5-0.5-0.9-0.7-1.1
			c-0.2-0.2-0.3-0.3-0.3-0.3s0.1,0.1,0.3,0.3c0.2,0.2,0.5,0.5,0.8,1c0.6,1,0.9,2.6,0.9,4.5c0,1.9,0.1,4.1,0.2,6.5
			c0.1,2.4,0.1,4.9,0.1,7.4c0,2.5,0,5.1,0,7.4c0,2.4-0.1,4.6-0.1,6.5c0,1.9-0.1,3.5-0.2,4.6C-78.1,252.5-78.2,253.2-78.2,253.2z"/>
	</g>
	<g>
		<path class="st1" d="M-212.8,400.9c0,0,0.6-0.1,1.7-0.3c1.1-0.2,2.6-0.5,4.4-1c1.8-0.5,3.8-1.3,5.9-2.2c1.1-0.5,2.1-1,3.2-1.6
			c1-0.6,2.1-1.3,3.1-2c1-0.7,2-1.5,3-2.2c0.9-0.7,1.9-1.5,2.8-2.2c1.8-1.5,3.5-2.9,4.9-4.1c2.8-2.5,4.7-4.1,4.7-4.1
			s-0.4,0.5-1.2,1.3c-0.8,0.8-1.8,1.9-3.2,3.2c-1.3,1.3-2.9,2.8-4.7,4.3c-0.9,0.8-1.8,1.6-2.8,2.3c-1,0.7-2,1.5-2.9,2.3
			c-1,0.8-2.1,1.4-3.2,2c-1.1,0.6-2.2,1.1-3.3,1.6c-2.2,0.9-4.3,1.5-6.1,2c-0.9,0.2-1.8,0.4-2.5,0.5c-0.8,0.1-1.4,0.2-2,0.2
			c-0.5,0.1-1,0.1-1.3,0.1C-212.7,400.9-212.8,400.9-212.8,400.9z"/>
	</g>
	<g>
		<path class="st1" d="M-210.8,411.9c0,0,0.2-0.1,0.7-0.2c0.4-0.1,1.1-0.4,1.9-0.7c1.6-0.7,3.7-1.9,6.1-3.7c1.2-0.9,2.5-1.8,3.8-2.9
			c0.7-0.5,1.4-1,2.1-1.6c0.7-0.5,1.5-1,2.3-1.5c1.6-1,3.2-2,4.9-3c1.7-1,3.5-1.9,5.2-2.8c3.6-1.7,7.1-3.5,10.4-5.1
			c1.6-0.8,3.2-1.7,4.8-2.4c1.5-0.8,2.9-1.6,4.2-2.3c1.3-0.7,2.4-1.5,3.5-2.1c1-0.7,1.9-1.3,2.6-1.7c1.4-1,2.2-1.6,2.2-1.6
			s-0.8,0.6-2.1,1.8c-0.7,0.5-1.5,1.2-2.5,1.9c-1,0.7-2.1,1.5-3.4,2.3c-1.3,0.8-2.6,1.6-4.1,2.5c-1.5,0.8-3.1,1.7-4.7,2.6
			c-3.3,1.7-6.8,3.5-10.4,5.3c-1.8,0.9-3.5,1.8-5.2,2.7c-1.7,0.9-3.3,1.9-4.9,2.9c-1.6,1-3.1,2-4.4,3c-1.4,1-2.7,1.9-4,2.7
			c-2.5,1.7-4.7,2.8-6.4,3.4c-0.8,0.3-1.5,0.5-1.9,0.6C-210.5,411.9-210.8,411.9-210.8,411.9z"/>
	</g>
	<g>
		<path class="st1" d="M-145.5,333.5c0,0,0.4-0.1,1.1-0.2c0.4-0.1,0.8-0.2,1.3-0.3c0.5-0.1,1-0.3,1.6-0.5c0.6-0.2,1.2-0.5,1.9-0.8
			c0.7-0.3,1.3-0.7,2-1c0.7-0.4,1.3-0.8,2-1.3c0.7-0.4,1.3-1,1.9-1.5c0.6-0.6,1.2-1.1,1.8-1.7c0.6-0.6,1.1-1.2,1.6-1.8
			c0.4-0.6,0.9-1.2,1.3-1.8c0.4-0.6,0.7-1.2,1-1.7c0.3-0.6,0.5-1.1,0.7-1.5c0.2-0.5,0.4-0.9,0.5-1.2c0.2-0.7,0.4-1.1,0.4-1.1
			s-0.1,0.4-0.2,1.1c-0.1,0.4-0.2,0.8-0.3,1.3c-0.1,0.3-0.1,0.5-0.2,0.8c-0.1,0.3-0.2,0.6-0.3,0.9c-0.2,0.6-0.5,1.2-0.9,1.9
			c-0.3,0.7-0.8,1.3-1.2,2c-0.5,0.6-1,1.3-1.6,1.9c-0.5,0.6-1.2,1.2-1.8,1.8c-0.7,0.5-1.3,1.1-2,1.6c-0.7,0.5-1.4,0.9-2.1,1.3
			c-0.7,0.3-1.4,0.7-2.1,0.9c-0.7,0.3-1.4,0.5-2,0.6c-0.3,0.1-0.6,0.2-0.9,0.2c-0.3,0-0.6,0.1-0.8,0.1c-0.5,0.1-1,0.1-1.3,0.1
			C-145.1,333.5-145.5,333.5-145.5,333.5z"/>
	</g>
	<g>
		<path class="st1" d="M-211.5,312.4c0,0,0.8,0.1,2.1,0.2c0.7,0.1,1.5,0.1,2.4,0.1c0.9,0,2,0,3.1-0.1c1.1-0.1,2.3-0.2,3.6-0.4
			c1.3-0.2,2.6-0.5,4-0.7c2.7-0.6,5.6-1.5,8.4-2.7c2.8-1.1,5.5-2.5,8-3.9c2.5-1.4,4.7-2.8,6.6-4.1c1.9-1.3,3.5-2.3,4.5-3.1
			c1.1-0.8,1.7-1.2,1.7-1.2s-0.6,0.5-1.6,1.4c-1,0.8-2.5,2.1-4.3,3.4c-1.8,1.3-4,2.9-6.5,4.4c-2.5,1.5-5.2,2.9-8,4.1
			c-2.9,1.1-5.8,2-8.6,2.6c-2.8,0.6-5.5,0.8-7.8,0.8c-1.1,0-2.2-0.1-3.1-0.1c-0.9-0.1-1.7-0.2-2.4-0.3c-0.7-0.1-1.2-0.2-1.5-0.3
			C-211.3,312.5-211.5,312.4-211.5,312.4z"/>
	</g>
	<g>
		<path class="st1" d="M-165.2,319.8c0,0,0.3,0,0.7-0.1c0.2,0,0.5,0,0.8-0.1c0.3-0.1,0.6-0.1,1-0.2c0.7-0.2,1.5-0.5,2.3-1
			c0.4-0.2,0.8-0.5,1.2-0.7c0.4-0.3,0.8-0.5,1.3-0.8c0.8-0.5,1.7-1.1,2.4-1.7c0.8-0.5,1.5-1,2.2-1.4c0.6-0.4,1.2-0.7,1.6-0.9
			c0.4-0.2,0.6-0.3,0.6-0.3s-0.2,0.2-0.5,0.5c-0.3,0.3-0.8,0.7-1.4,1.2c-1.2,1-2.7,2.3-4.4,3.5c-0.9,0.6-1.8,1.1-2.7,1.5
			c-0.9,0.4-1.8,0.6-2.6,0.7c-0.8,0.1-1.4,0-1.9,0C-164.9,319.9-165.2,319.8-165.2,319.8z"/>
	</g>
	<g>
		<path class="st8" d="M-175.1,181.1c0,0-0.1,0-0.2,0c-0.1,0-0.3,0.1-0.5,0.2c-0.4,0.2-1,0.5-1.6,1.1c-0.6,0.6-1.2,1.4-1.7,2.5
			c-0.5,1-1.1,2.2-1.8,3.5c-0.6,1.3-1.3,2.7-2,4.2c-0.7,1.5-1.4,3.1-2.1,4.7c-0.7,1.7-1.5,3.4-2.2,5.1c-0.7,1.8-1.4,3.6-2,5.4
			c-0.7,1.8-1.3,3.6-1.9,5.4c-0.6,1.8-1.2,3.6-1.7,5.3c-1,3.5-1.9,6.7-2.6,9.5c-0.3,1.4-0.7,2.7-0.9,3.8c-0.3,1.1-0.5,2.1-0.6,3
			c-0.3,1.7-0.5,2.6-0.5,2.6s0.1-1,0.3-2.6c0.1-0.8,0.3-1.8,0.5-3c0.2-1.2,0.4-2.5,0.7-3.9c0.3-1.4,0.6-3,1-4.6
			c0.4-1.6,0.8-3.3,1.3-5.1c0.5-1.7,1-3.5,1.6-5.4c0.6-1.8,1.2-3.6,1.9-5.5c0.7-1.8,1.4-3.6,2.1-5.4c0.7-1.8,1.5-3.5,2.2-5.1
			c0.7-1.7,1.5-3.2,2.3-4.7c0.7-1.5,1.5-2.9,2.2-4.1c0.7-1.3,1.4-2.4,2-3.4c0.6-1,1.3-1.8,1.9-2.4c0.6-0.6,1.3-0.9,1.7-1
			c0.2-0.1,0.4-0.1,0.5-0.1C-175.2,181.1-175.1,181.1-175.1,181.1z"/>
	</g>
	<g>
		<path class="st8" d="M-206.6,191.8c0,0,0,0.3,0.1,0.9c0,0.6,0.2,1.4,0.3,2.3c0.1,1,0.3,2.1,0.5,3.2c0.2,1.2,0.5,2.4,0.7,3.7
			c0.6,2.5,1.3,4.9,1.9,6.8c0.3,0.9,0.5,1.7,0.7,2.2c0.2,0.5,0.3,0.8,0.3,0.8s-0.2-0.3-0.5-0.8c-0.3-0.5-0.7-1.2-1.1-2.1
			c-0.4-0.9-0.9-1.9-1.3-3.1c-0.2-0.6-0.4-1.2-0.6-1.8c-0.2-0.6-0.3-1.3-0.5-1.9c-0.3-1.3-0.5-2.6-0.6-3.8c-0.1-1.2-0.2-2.4-0.2-3.3
			c0-1,0.1-1.8,0.1-2.4C-206.7,192.2-206.6,191.8-206.6,191.8z"/>
	</g>
	<g>
		<path class="st8" d="M-218.2,219.2c0,0,0.7,0.4,1.8,1c1,0.6,2.4,1.5,3.7,2.4c1.3,0.9,2.7,1.8,3.6,2.5c1,0.7,1.6,1.2,1.6,1.2
			s-0.8-0.2-1.9-0.7c-1.1-0.5-2.6-1.3-3.9-2.2c-1.4-0.9-2.6-2-3.5-2.8C-217.7,219.9-218.2,219.2-218.2,219.2z"/>
	</g>
	<g>
		<path class="st8" d="M-219.4,255.2c0,0,0.1,0.3,0.4,0.7c0.3,0.4,0.7,1,1.2,1.7c0.3,0.3,0.6,0.7,0.8,1.1c0.3,0.4,0.6,0.9,0.8,1.4
			c0.5,1,0.9,2.1,1.2,3.3c0.5,2.3,0.5,4.7,0.4,6.4c-0.1,1.7-0.3,2.9-0.3,2.9s0-0.3-0.1-0.8c0-0.5-0.1-1.2-0.2-2.1
			c-0.1-1.7-0.3-4-0.8-6.2c-0.2-1.1-0.6-2.2-1-3.1c-0.2-0.5-0.4-1-0.7-1.4c-0.2-0.4-0.5-0.8-0.7-1.2c-0.4-0.8-0.7-1.4-0.9-1.9
			C-219.4,255.5-219.4,255.2-219.4,255.2z"/>
	</g>
	<g>
		<path class="st1" d="M-259.7,434.9c0,0,0.1,0,0.4,0c0.2,0,0.6,0,1,0.1c0.9,0.1,2.1,0.2,3.6,0.5c1.5,0.3,3.2,0.7,5,1.3
			c1.8,0.6,3.7,1.5,5.4,2.5c1.8,1,3.4,2.2,5,3.1c0.8,0.4,1.6,0.8,2.4,1c0.8,0.2,1.6,0.4,2.3,0.5c1.5,0.2,2.7,0.2,3.6,0.2
			c0.9,0,1.4,0,1.4,0s-0.5,0.1-1.4,0.2c-0.9,0.1-2.1,0.2-3.7,0.2c-0.8,0-1.6-0.1-2.5-0.3c-0.9-0.2-1.8-0.5-2.6-0.9
			c-0.9-0.4-1.7-0.9-2.6-1.5c-0.8-0.5-1.7-1-2.5-1.5c-1.7-1-3.5-1.8-5.3-2.5c-1.7-0.7-3.4-1.2-4.8-1.6c-1.4-0.4-2.7-0.7-3.5-0.8
			C-259.2,435-259.7,434.9-259.7,434.9z"/>
	</g>
	<g>
		<path class="st1" d="M-256.7,448.2c0,0,0.5,0,1.3,0c0.8,0,2-0.2,3.4-0.3c1.4-0.1,3.1-0.2,4.9,0.4c0.9,0.3,1.7,0.6,2.6,0.9
			c0.9,0.3,1.7,0.6,2.6,0.8c0.9,0.2,1.8,0.4,2.7,0.5c0.9,0.1,1.8,0.2,2.7,0.2c1.7,0.1,3.4,0,4.7-0.2c1.4-0.2,2.5-0.4,3.3-0.6
			c0.8-0.2,1.2-0.3,1.2-0.3s-0.4,0.2-1.2,0.5c-0.8,0.3-1.9,0.7-3.3,1c-1.4,0.3-3.1,0.5-4.8,0.5c-1.8,0-3.7-0.2-5.6-0.6
			c-0.9-0.2-1.9-0.5-2.7-0.8c-0.9-0.3-1.7-0.7-2.5-1c-1.6-0.6-3.2-0.6-4.6-0.6c-1.4,0-2.6,0-3.4-0.1
			C-256.3,448.3-256.7,448.2-256.7,448.2z"/>
	</g>
	<g>
		<path class="st1" d="M-254.7,459.7c0,0,0.5,0.2,1.4,0.5c0.9,0.3,2.2,0.6,3.8,0.9c3.2,0.5,7.6,0.5,11.8-0.7
			c2.1-0.6,4.2-1.3,6.3-1.6c2.1-0.4,4-0.4,5.7-0.4c1.7,0,3,0.2,4,0.3c1,0.1,1.5,0.2,1.5,0.2s-0.5,0-1.5,0c-1,0-2.3,0-4,0.1
			c-1.6,0.1-3.5,0.3-5.5,0.7c-2,0.4-4,1.2-6.2,1.7c-2.1,0.6-4.4,0.9-6.5,0.9c-2.1,0-4-0.3-5.7-0.6c-1.6-0.4-2.9-0.9-3.8-1.2
			c-0.4-0.2-0.8-0.4-1-0.5C-254.6,459.8-254.7,459.7-254.7,459.7z"/>
	</g>
	<g>
		<path class="st1" d="M-251,476.1c0,0,2.2,0,5.5,0c1.6,0,3.6-0.1,5.6-0.2c1-0.1,2.1-0.2,3.1-0.3c1.1-0.1,2.1-0.3,3.2-0.5
			c1.1-0.2,2.1-0.5,3.1-0.8c1-0.3,2-0.7,2.9-1.1c1.8-0.8,3.7-1.7,5.4-1.9c1.7-0.2,3.1,0.4,3.9,1c0.4,0.3,0.6,0.6,0.8,0.8
			c0.1,0.2,0.2,0.3,0.2,0.3s-0.1-0.1-0.3-0.3c-0.2-0.2-0.5-0.4-0.9-0.7c-0.8-0.5-2.2-0.8-3.7-0.6c-0.8,0.1-1.6,0.4-2.5,0.8
			c-0.8,0.4-1.7,0.9-2.7,1.3c-0.9,0.4-1.9,0.9-3,1.2c-1,0.3-2.1,0.6-3.2,0.9c-1.1,0.2-2.2,0.4-3.3,0.5c-1.1,0.1-2.2,0.2-3.2,0.2
			c-1,0-2,0-3,0c-1,0-1.8-0.1-2.7-0.1c-1.7-0.1-3-0.3-4-0.4C-250.4,476.2-251,476.1-251,476.1z"/>
	</g>
	<g>
		<path class="st1" d="M-164.9,415.2c0,0,0.5,0.5,1.3,1.5c0.8,1,2,2.3,3.3,4c1.4,1.7,2.9,3.6,4.6,5.7c1.7,2.1,3.5,4.3,5.4,6.4
			c0.9,1.1,1.9,2.1,2.9,3.1c1,1,2,2,2.9,2.9c0.5,0.5,1,0.9,1.5,1.3c0.5,0.4,0.9,0.8,1.4,1.2c0.9,0.8,1.8,1.5,2.7,2.1
			c0.9,0.6,1.7,1.2,2.4,1.7c0.7,0.5,1.4,0.9,1.9,1.2c1.1,0.6,1.7,1,1.7,1s-0.7-0.3-1.8-0.8c-0.6-0.3-1.2-0.6-2-1
			c-0.8-0.4-1.6-0.9-2.5-1.5c-0.9-0.6-1.9-1.3-2.8-2c-1-0.7-2-1.6-3-2.5c-1-0.9-2-1.9-3-2.9c-1-1-2-2-2.9-3.1
			c-1.9-2.2-3.7-4.4-5.4-6.5c-1.7-2.1-3.1-4.1-4.4-5.9c-1.3-1.7-2.3-3.2-3-4.2C-164.5,415.8-164.9,415.2-164.9,415.2z"/>
	</g>
	<path class="st2" d="M-291.6,412.8c1.2,4.3-1.1,8.6-2.6,12.8c-3.1,9-2.4,19.2,2,27.6c4.4,8.4,12.4,14.9,21.5,17.4
		c0.3-4,0.3-8-0.2-12c-0.1-1.3-0.3-2.6-0.1-3.9c0.2-1.2,0.8-2.3,1.2-3.5c0.9-2.9,0.5-6,0.4-9.1c0-7.7,2.8-15.1,3.2-22.8
		c0-0.8,0-1.7-0.3-2.5c-0.5-1-1.6-1.5-2.6-2c-7.2-3.3-15.5-4.2-23.2-2.6"/>
	<path class="st2" d="M-279.9,425.9c2,1.7,0.9,5,1.7,7.5c0.2,0.7,0.6,1.4,0.8,2.1c0.3,0.9,0.3,1.9,0,2.9c-0.2,0.8-0.7,1.6-0.9,2.4
		c-0.2,0.8-0.2,1.6-0.2,2.4c0,1.8,0,3.7,0.2,5.5c0.2,1.5,0.6,3,1.5,4.2c0.9,1.2,2.6,1.9,4,1.3"/>
	<path class="st2" d="M-275.8,440.4c1.1-0.7,2.7-0.6,3.8,0.1"/>
	<path class="st2" d="M-275.7,449.3c1-0.2,2.1-0.3,3.1-0.3c0.4,0,0.8,0,1.1,0.3c0.3,0.3,0.3,0.7,0.3,1.1c0,1.4-0.1,2.8-0.5,4.2"/>
	<path class="st2" d="M-278.9,435.1c-1.2,0.7-2.6,1.4-3.2,2.7c-0.5,1-0.5,2.2-0.4,3.4c0.2,3.9,0.3,7.9,0.5,11.8c0,0.4,0,0.8,0.2,1.2
		c0.3,0.4,0.7,0.7,1.2,1c1.3,0.9,2.1,2.6,1.9,4.2c3.1,0.6,5.7,3,6.6,6c0.2,0.8,0.4,1.6,0,2.4c-0.3,0.7-1.2,1.3-1.9,1"/>
	<path class="st2" d="M-293.6,433.6c-0.7,1.9-0.3,4,0.3,5.9c0.6,1.9,1.5,3.7,1.7,5.7c0.2,1.6,0,3.2,0.2,4.9
		c0.6,5.1,4.8,8.9,8.1,12.9"/>
	<path class="st2" d="M-286.2,435.2c0.8,0.8,1.9,1.3,3,1.3"/>
	<path class="st2" d="M-287.5,442.7c0.7,0.2,1.3,0.4,2,0.6"/>
	<path class="st2" d="M-281.4,438.5c0.4,1.6,1.5,3,2.9,3.9"/>
	<path class="st2" d="M-281.8,448c1.3,1.7,2.7,3.5,4.4,4.9c1.7,1.4,3.7,2.5,5.9,2.7c0.2,0,0.5,0.3,0.3,0.4"/>
	<path class="st2" d="M-274.3,461.3c1.3,0.5,2.6,1,3.9,1.5"/>
</g>
<g>
	<path class="st9" d="M236.8,124.1c-2.6,9.2,5.4,18.2,5.8,27.8c0.1,3.3-0.7,6.5-1.5,9.7c-2.8,11.3-5.5,22.5-8.3,33.8
		c-1.2,4.8-2.4,9.6-2.4,14.5c0,7.3,2.6,14.7,0.8,21.8c-1.4,5.8-5.9,10.7-11.5,12.8c-5.6,2-12.2,1.1-17-2.3c-4.6-3.3-7.4-8.6-10-13.6
		c-2.4-4.7-4.8-9.4-6.3-14.5c-4.2-14.8,0.4-31.4,10.3-43.1c4.7-5.6,10.4-10.1,15.2-15.7c7.3-8.5,11.8-19,16.2-29.3"/>
	<path class="st9" d="M131.9,94.5c-8.2,0.1-14.7,6.8-20.1,13.1c-1.9,2.1-3.7,4.3-4.6,7c-1.4,4.3,0,9.1-1.4,13.3
		c-2.4,7.1-11.4,9.8-14.9,16.4c-4.4,8.3,1.6,19.5-3.1,27.6c-2.2,3.8-6.4,6.3-7.6,10.5c-2.3,7.5,6,13.9,7.9,21.4
		c2,8-3.5,17.3,0.6,24.5c2.4,4.3,7.5,6.3,10.8,9.9c2,2.2,3.3,4.9,5.3,7.2c5.4,6.4,15.4,8.4,22.8,4.4c3.6-1.9,6.4-5,9.9-7.2
		c4.8-3.1,10.7-4.4,15.3-7.8c10.1-7.5,10.9-22.1,10.7-34.6c-0.2-20.3-0.7-41.4-10.1-59.4c-2.2-4.2-4.8-8.1-6.6-12.4
		c-1.3-3.1-2.2-6.4-3.3-9.7c-2.8-8.2-7.1-15.9-11.4-23.5"/>
	<g>
		<path class="st10" d="M200.3,217.5L200.3,217.5c1.5-0.9,2-2.8,1.1-4.3v0c-0.9-1.5-2.8-2-4.3-1.1h0c-1.5,0.9-2,2.8-1.1,4.3l0,0
			C196.9,217.9,198.8,218.4,200.3,217.5z"/>
		<path class="st11" d="M200.3,217.5C200.2,217.4,200.3,217.5,200.3,217.5L200.3,217.5L200.3,217.5L200.3,217.5L200.3,217.5l0-0.1
			l0,0l0.1,0l0.1-0.1l0.2-0.2c0.1-0.1,0.3-0.3,0.4-0.5c0.2-0.3,0.4-0.7,0.5-1.1c0.1-0.8,0-1.6-0.5-2.2l0.4-0.3l-0.4,0.3
			c-0.4-0.6-1.1-1.1-1.8-1.2c-0.7-0.2-1.5,0-2.1,0.4l-0.4-0.7l0.4,0.7c-0.6,0.4-1,1-1.1,1.7c-0.1,0.3-0.1,0.7,0,1
			c0,0.3,0.2,0.7,0.3,1l-0.9,0.5l0.9-0.5c0.3,0.6,0.9,1.1,1.6,1.4c0.4,0.1,0.7,0.2,1.1,0.2C199.5,217.8,199.9,217.6,200.3,217.5
			L200.3,217.5z M200.3,217.5c-0.3,0.2-0.7,0.4-1.2,0.5c-0.4,0.1-0.9,0.1-1.3,0.1c-0.4-0.1-0.9-0.2-1.3-0.4c-0.4-0.2-0.7-0.6-1-1
			l0.9-0.5l-0.9,0.5c-0.2-0.4-0.4-0.9-0.5-1.3c-0.1-0.5,0-1,0.1-1.4c0.3-0.9,0.9-1.7,1.7-2.1l0.4,0.7l-0.4-0.7
			c0.8-0.5,1.8-0.6,2.6-0.3c0.9,0.2,1.6,0.8,2.1,1.6l-0.4,0.3l0.4-0.3c0.4,0.8,0.5,1.7,0.2,2.5c-0.1,0.4-0.3,0.8-0.6,1.1
			c-0.1,0.2-0.3,0.3-0.4,0.5l-0.2,0.2l-0.1,0.1L200.3,217.5L200.3,217.5L200.3,217.5L200.3,217.5L200.3,217.5L200.3,217.5
			L200.3,217.5C200.3,217.5,200.3,217.6,200.3,217.5L200.3,217.5z"/>
	</g>
	<g>
		<path class="st12" d="M197.7,213.6c0,1.5,0.1,3,0.6,4.4c0.9,2.1,2.7,3.6,4.5,5.1c15.4,12.8,27,29.4,38.5,45.8
			c0.5,0.7,1,1.5,1.2,2.4c0.6,3.5-4.3,5-7.8,4.6c-15.8-1.6-30.1-10.7-45.9-12.1c-9.5-0.9-19.1,1.2-28.3,3.8c-4.7,1.3-9.7,3.1-12.7,7
			c-2.2,3-2.9,6.8-3.5,10.5c-5.4,30.5-7.8,29.9-17.1,59.5c-1.4,4.5-4.2,19.6-5,24.3c-3.5,21.4-3.2,63.1-3.5,84.8
			c-0.2,17-24.6,28.7-26.2,22.2c-4.4-18.4-9.4-55.4-9.9-74.3c-0.2-6.8-1-13.6-1.5-20.3c-3.8-47.2-5.6-61.7-1.4-105.4
			c1.5-15.7,14.6-44.9,27.8-47.9c4.7-1.1,25.5-18.3,30.3-19c4.8-0.6,9.9-2.7,11.9-7.1c2.4-5.3,0.2-12.9,5-16.2
			c1.5-1,3.4-1.3,5.3-1.5c15.9-1.7,28.7-1,43.6,4.7C203.6,188.9,197.7,207.3,197.7,213.6z"/>
		<path d="M197.8,213.6c0,2,0.2,4.1,1.4,5.7c1.1,1.7,2.8,2.9,4.3,4.2c3.1,2.6,6,5.4,8.9,8.3c5.7,5.8,10.8,12,15.7,18.4
			c4.9,6.4,9.6,13,14.1,19.7c0.5,0.9,0.8,2,0.4,3c-0.4,1-1.3,1.7-2.2,2.2c-1.9,0.9-4,1.2-6,0.9c-4-0.4-8-1.3-11.9-2.5
			c-7.8-2.3-15.2-5.4-23-7.5c-3.9-1-7.8-1.8-11.9-2.1c-4-0.3-8,0-12,0.5c-4,0.6-7.9,1.4-11.8,2.5c-3.9,1.1-7.8,2-11.3,4
			c-1.7,1-3.3,2.3-4.4,3.8c-1.2,1.6-1.9,3.5-2.4,5.4c-0.5,1.9-0.8,3.9-1.2,5.9c-0.4,2-0.7,4-1.1,6c-1.5,7.9-3.2,15.9-5.8,23.5
			c-1.3,3.8-2.7,7.6-4,11.4c-1.3,3.8-2.7,7.6-3.9,11.4l-1.9,5.8c-0.6,1.9-1,3.8-1.5,5.8c-0.9,3.9-1.6,7.9-2.4,11.9l-1.1,5.9
			c-0.3,2-0.6,4-0.9,6c-0.5,4-0.8,8-1.1,12c-1.1,16.1-1.3,32.2-1.5,48.4l-0.1,12.1l-0.1,6.1l0,1.5c0,0.5,0,1-0.1,1.6
			c-0.1,1-0.3,2.1-0.6,3.1c-1.1,4-3.4,7.6-6.2,10.7c-2.8,3-6.2,5.5-9.9,7.3c-1.9,0.9-3.8,1.7-6,1.9c-1.1,0.1-2.2,0.2-3.4-0.4
			c-0.6-0.3-1.1-0.9-1.3-1.5c-0.1-0.2-0.1-0.3-0.1-0.5l-0.1-0.4l-0.2-0.7c-0.9-3.9-1.7-7.9-2.4-11.9c-1.4-8-2.7-15.9-3.8-23.9
			c-1.1-8-2-16-2.8-24.1c-0.3-4-0.7-8.1-0.8-12.1c-0.1-4-0.4-8-0.8-12c-0.7-8-1.4-16.1-2.1-24.1c-0.7-8-1.3-16.1-1.8-24.2
			c-0.5-8.1-0.8-16.2-0.8-24.3c0-8.1,0.3-16.2,0.9-24.3c0.3-4,0.6-8.1,1-12.1l0.6-6c0.2-2,0.6-4.1,1-6.1c1.8-8,4.8-15.6,8.6-22.8
			c1.9-3.6,4.1-7.1,6.6-10.3c2.5-3.2,5.4-6.3,9.1-8.3c0.9-0.5,1.9-0.9,3-1.2l0.3-0.1l0.4-0.1c0.2-0.1,0.4-0.2,0.6-0.2
			c0.4-0.2,0.9-0.4,1.3-0.7c1.7-1,3.4-2.1,5.1-3.2c3.3-2.3,6.6-4.6,9.9-6.9c3.3-2.3,6.6-4.6,10.2-6.6c0.9-0.5,1.9-1,3-1.1
			c1-0.1,1.9-0.3,2.9-0.6c1.9-0.5,3.7-1.3,5.3-2.4c1.6-1.1,2.9-2.7,3.5-4.5c0.7-1.8,0.9-3.8,1.1-5.8c0.2-2,0.3-4.1,1-6
			c0.3-1,0.8-1.9,1.6-2.7c0.7-0.8,1.6-1.4,2.6-1.8c2-0.8,4-0.8,6-1c2-0.2,4-0.3,6.1-0.4c4-0.2,8.1-0.2,12.1,0.1
			c8.1,0.6,16,2.4,23.6,5.4l0.1,0.1l0,0.2c-1.3,4-2.5,8.1-3.6,12.2c-0.5,2.1-1.1,4.1-1.5,6.2c-0.2,1-0.4,2.1-0.6,3.1
			c-0.1,0.5-0.1,1.1-0.2,1.6C197.8,212.6,197.8,213.1,197.8,213.6z M197.6,213.6c0-0.5,0-1.1,0.1-1.6c0.1-0.5,0.1-1.1,0.2-1.6
			c0.2-1.1,0.4-2.1,0.6-3.1c0.4-2.1,0.9-4.2,1.5-6.2c1.1-4.1,2.3-8.2,3.5-12.3l0.1,0.2c-7.5-2.9-15.4-4.7-23.5-5.2
			c-4-0.3-8-0.3-12.1,0c-2,0.1-4,0.3-6,0.5c-2,0.2-4,0.3-5.8,1c-1.8,0.7-3.1,2.3-3.7,4.1c-0.6,1.9-0.7,3.9-0.9,5.9
			c-0.2,2-0.4,4.1-1.1,6.1c-0.7,2-2.1,3.7-3.8,4.9c-1.7,1.2-3.6,2.1-5.6,2.6c-1,0.3-2,0.5-3,0.6c-0.9,0.1-1.8,0.6-2.6,1
			c-3.5,1.9-6.8,4.3-10.1,6.6c-3.3,2.3-6.5,4.7-9.9,7c-1.7,1.1-3.3,2.3-5.1,3.3c-0.5,0.3-0.9,0.5-1.4,0.7c-0.2,0.1-0.5,0.2-0.8,0.3
			l-0.4,0.1l-0.4,0.1c-0.9,0.2-1.8,0.6-2.7,1.1c-3.4,1.9-6.2,4.8-8.6,7.9c-2.4,3.2-4.5,6.6-6.4,10.1c-3.7,7.1-6.6,14.7-8.3,22.4
			c-0.4,1.9-0.8,3.9-0.9,5.9l-0.5,6c-0.3,4-0.6,8-0.9,12.1c-0.5,8-0.9,16.1-0.9,24.1c0,8,0.3,16.1,0.8,24.1c0.5,8,1.2,16.1,1.8,24.1
			c0.6,8.1,1.2,16.1,1.9,24.1c0.3,4,0.6,8.1,0.7,12.1c0.1,4,0.4,8,0.8,12c0.7,8,1.6,16,2.7,24c1.1,8,2.3,16,3.7,23.9
			c0.7,4,1.5,7.9,2.4,11.8l0.2,0.7l0.1,0.4l0.1,0.3c0.1,0.3,0.3,0.5,0.6,0.7c0.6,0.3,1.6,0.4,2.5,0.3c1.9-0.2,3.7-0.9,5.5-1.8
			c3.5-1.7,6.8-4.1,9.5-7c2.7-2.9,4.9-6.3,5.9-10c0.5-1.9,0.7-3.8,0.7-5.8l0.1-6l0.1-12.1c0.2-16.1,0.4-32.3,1.6-48.4
			c0.3-4,0.7-8.1,1.1-12.1c0.3-2,0.5-4,0.9-6l1.1-6c0.8-4,1.5-7.9,2.4-11.9c0.5-2,0.9-4,1.5-5.9l1.9-5.8c1.3-3.8,2.6-7.7,3.9-11.5
			c1.4-3.8,2.8-7.6,4-11.4c2.6-7.6,4.4-15.5,5.9-23.4c0.4-2,0.7-4,1.1-5.9c0.4-2,0.7-4,1.2-6c0.5-2,1.3-3.9,2.5-5.6
			c1.3-1.7,2.9-3,4.7-4c3.6-2,7.6-3,11.5-4c3.9-1,7.9-1.9,11.9-2.4c4-0.5,8.1-0.8,12.1-0.5c4,0.3,8,1.1,11.9,2.2
			c7.8,2.1,15.3,5.3,23,7.6c3.9,1.1,7.8,2,11.8,2.5c2,0.2,4,0,5.8-0.9c0.9-0.4,1.7-1.1,2-2c0.3-0.9,0.1-1.9-0.4-2.8
			c-4.5-6.6-9.2-13.2-14.1-19.7c-4.9-6.4-10-12.7-15.6-18.4c-2.8-2.9-5.7-5.7-8.8-8.3c-1.5-1.3-3.2-2.5-4.3-4.2
			c-0.6-0.8-1-1.8-1.2-2.8C197.6,215.7,197.6,214.7,197.6,213.6z"/>
	</g>
	<g>
		<path class="st13" d="M150.1,201c-3.3,0.9-4.4,6.1-7.8,7c7.6,9.5,11.8,19,11.4,31.1c-0.5,12.1-12.7,24-16,35.7
			c-1.5,5.3-20.9,61.2-16.2,86.2c-0.2,4.9-0.1,8.2,0.2,12.2c0.5,7.1,4.8,13.2,7.5,19.8c5.6,13.6,3.8,29.9-4.4,42.1
			c-1.6,2.4-3.9,9.3-6.1,11.2c-6.8,6-23.4,16.2-24.8,26.3c-1.1,7.9-11.7,24.7-14,32.3c-1,3.2,33-2.7,32,0.5h174.7
			c-4.8-18.7-10.2-36.6-14.9-55.3c-2.6-10-5.1-20.1-9-29.7c-3.6-9-8.5-17.8-8.7-27.5c-0.1-4.7,0.9-9.3,1.6-13.9
			c1.3-8.9,1.4-18.1,0.4-27c15-12.4,24.5-31.2,25.7-50.6c0.1-1.4,0.1-2.9-0.4-4.3c-0.9-2.1-3-3.3-4.9-4.4
			c-12.1-6.9-23.7-14.8-34.6-23.5c-1,3.9-5.7,6-9.7,5.6c-4.1-0.4-7.7-2.5-11.3-4.3c-14.8-7.3-31.7-10.2-48-8.3
			C168.4,241.1,158.2,221,150.1,201"/>
		<path d="M150.2,201.1c-0.8,0.2-1.6,0.8-2.2,1.4c-0.6,0.6-1.1,1.4-1.6,2.1c-0.5,0.7-1,1.4-1.7,2.1c-0.6,0.6-1.4,1.2-2.3,1.5
			l0.1-0.2c2.1,2.6,4.1,5.4,5.7,8.3c1.7,2.9,3.1,6,4,9.3c1,3.2,1.5,6.6,1.7,10c0,0.8,0.1,1.7,0,2.5c0,0.8,0,1.7-0.1,2.5
			c-0.2,1.7-0.6,3.3-1.1,5c-1.1,3.2-2.6,6.2-4.3,9.2c-1.7,2.9-3.5,5.8-5.1,8.7c-1.7,2.9-3.3,5.9-4.5,9c-0.6,1.6-1,3.2-1.5,4.8
			l-1.5,4.8c-4,12.8-7.7,25.8-10.5,39c-1.4,6.6-2.6,13.2-3.3,19.9c-0.4,3.3-0.6,6.7-0.7,10c0,3.3,0.1,6.7,0.7,10l0,0l0,0
			c-0.2,4.1-0.1,8.1,0.2,12.2c0.3,4,1.8,7.8,3.6,11.4l2.7,5.5c0.4,0.9,0.8,1.9,1.3,2.8c0.3,1,0.7,1.9,1,2.9c1.3,3.9,2,8,2.2,12.1
			c0.4,8.2-1.5,16.6-5.5,23.8c-0.9,1.9-2.3,3.5-3.1,5.2c-0.9,1.8-1.7,3.7-2.6,5.5c-0.5,0.9-0.9,1.8-1.5,2.7c-0.3,0.4-0.6,0.9-1,1.3
			c-0.4,0.4-0.8,0.7-1.2,1c-1.6,1.3-3.2,2.6-4.8,3.8c-3.2,2.5-6.4,5-9.4,7.7c-3,2.7-5.8,5.7-7.8,9.1c-0.5,0.9-0.9,1.8-1.2,2.7
			c-0.3,0.9-0.4,1.9-0.6,2.9c-0.5,2.1-1.2,4-2,5.9c-1.6,3.8-3.4,7.4-5.2,11.1c-1.8,3.6-3.7,7.3-5.3,11c-0.4,0.9-0.8,1.9-1.1,2.8
			l-0.2,0.6c0-0.1-0.1-0.2,0-0.2c0,0,0.1,0,0.1,0.1c0.3,0.1,0.8,0.2,1.3,0.2c2,0.1,4,0,6-0.1c4-0.2,8.1-0.6,12.2-1
			c2-0.2,4.1-0.3,6.1-0.4c1,0,2.1-0.1,3.1,0c0.5,0,1.1,0.1,1.6,0.2c0.3,0.1,0.6,0.1,0.9,0.3c0.2,0.1,0.3,0.2,0.5,0.4
			c0.2,0.2,0.2,0.7,0.2,0.9l-0.6-0.8l174.7-0.2l-0.8,1.1c-3.3-12.8-6.9-25.5-10.5-38.2c-1.8-6.4-3.5-12.8-5.1-19.2
			c-1.7-6.4-3.3-12.8-5.4-19c-1-3.1-2.1-6.2-3.4-9.2l-3.9-9.1c-1.3-3.1-2.5-6.2-3.3-9.5c-0.4-1.6-0.7-3.3-1-5
			c-0.2-1.7-0.3-3.4-0.3-5.1c0.1-3.4,0.6-6.7,1.2-10c0.5-3.2,0.9-6.5,1.2-9.7c0.5-6.5,0.4-13.1-0.4-19.6l-0.1-0.5l0.4-0.4l2.6-2.3
			l2.5-2.4c0.8-0.8,1.6-1.7,2.3-2.5c0.8-0.8,1.5-1.7,2.2-2.6c1.4-1.8,2.8-3.6,4-5.5c1.3-1.9,2.4-3.9,3.5-5.9c0.6-1,1.1-2,1.5-3.1
			c0.5-1,1-2.1,1.4-3.1l0.7-1.6l0.6-1.6l0.6-1.6l0.5-1.6c0.3-1.1,0.7-2.2,0.9-3.3c0.3-1.1,0.6-2.2,0.8-3.3c0.5-2.2,0.8-4.5,1-6.8
			c0.2-2.3,0.6-4.7-0.1-6.5c-0.7-1.8-2.7-3-4.7-4.1c-4-2.3-8-4.8-11.9-7.3c-7.8-5.1-15.3-10.5-22.6-16.3l1.1-0.4
			c-0.2,0.8-0.6,1.6-1.1,2.3c-0.5,0.7-1.1,1.3-1.8,1.8c-1.3,1-2.9,1.6-4.5,1.9c-1.6,0.3-3.3,0.2-4.8-0.1c-1.6-0.3-3.1-0.9-4.5-1.5
			c-1.4-0.6-2.8-1.3-4.2-2c-1.4-0.7-2.7-1.3-4.1-2c-1.4-0.6-2.8-1.2-4.2-1.8c-1.4-0.6-2.9-1-4.3-1.5c-1.5-0.4-2.9-0.9-4.4-1.3
			c-1.5-0.4-3-0.7-4.4-1.1c-1.5-0.3-3-0.6-4.5-0.8c-1.5-0.3-3-0.4-4.5-0.6c-1.5-0.1-3-0.3-4.6-0.3c-1.5-0.1-3.1-0.1-4.6-0.1
			c-1.5,0-3.1,0-4.6,0.2c-1.5,0.1-3,0.2-4.6,0.4l-0.4,0l-0.1-0.4l-0.8-4l-1-4l-1.1-3.9l-1.2-3.9l-1.3-3.9l-1.3-3.9
			c-0.9-2.6-1.9-5.1-2.9-7.6c-4-10.1-8.4-20.1-12.5-30.2l0.2-0.1c4.2,10.1,8.7,20,12.9,30.1c1,2.5,2,5.1,3,7.6l1.4,3.8l1.3,3.9
			l1.2,3.9l1.1,3.9l1,4l0.9,4l-0.5-0.4c1.5-0.2,3.1-0.3,4.6-0.4c1.5-0.1,3.1-0.1,4.6-0.2c1.5,0,3.1,0,4.6,0.1c1.5,0,3.1,0.2,4.6,0.3
			c1.5,0.2,3.1,0.3,4.6,0.6c1.5,0.2,3,0.5,4.6,0.8c1.5,0.3,3,0.6,4.5,1.1c1.5,0.4,3,0.8,4.5,1.3c1.5,0.5,2.9,1,4.4,1.5
			c1.5,0.5,2.9,1.2,4.3,1.8c1.4,0.6,2.8,1.3,4.2,2c1.4,0.7,2.7,1.4,4.1,2c1.4,0.6,2.8,1.1,4.2,1.4c1.4,0.3,2.9,0.4,4.3,0.1
			c1.4-0.3,2.8-0.8,3.9-1.7c1.1-0.8,2-2,2.3-3.3l0.3-1.1l0.9,0.7c7.2,5.7,14.8,11.1,22.6,16.1c3.9,2.5,7.8,4.9,11.9,7.2
			c1,0.6,2.1,1.2,3,1.9c1,0.8,1.9,1.8,2.4,3c0.5,1.3,0.6,2.6,0.5,3.8c0,1.2-0.2,2.3-0.3,3.5c-0.2,2.3-0.6,4.7-1,7
			c-0.2,1.2-0.5,2.3-0.8,3.4c-0.3,1.1-0.6,2.3-0.9,3.4l-0.5,1.7l-0.6,1.7l-0.6,1.7l-0.7,1.6c-0.4,1.1-0.9,2.2-1.4,3.2
			c-0.5,1.1-1,2.1-1.6,3.2c-1.1,2.1-2.3,4.1-3.6,6.1c-1.3,2-2.7,3.9-4.2,5.7c-0.8,0.9-1.5,1.8-2.3,2.7c-0.8,0.9-1.6,1.7-2.4,2.6
			l-2.5,2.5l-2.7,2.3l0.4-0.9c0.8,6.6,0.9,13.3,0.4,20c-0.2,3.3-0.7,6.6-1.2,9.9c-0.5,3.3-1.1,6.5-1.1,9.7c0,1.6,0.1,3.2,0.3,4.8
			c0.2,1.6,0.5,3.2,0.9,4.7c0.8,3.1,2,6.2,3.2,9.2l3.9,9.1c1.3,3.1,2.4,6.2,3.4,9.4c2.1,6.3,3.8,12.7,5.4,19.1
			c1.6,6.4,3.3,12.8,5,19.1c3.5,12.7,7.1,25.4,10.3,38.3l0.3,1.1l-1.1,0l-174.7-0.2l-0.6-0.8c0,0,0,0.2,0,0.2c0,0,0,0-0.1,0
			c-0.1-0.1-0.4-0.1-0.6-0.2c-0.4-0.1-0.9-0.1-1.4-0.1c-1,0-2,0-3,0c-2,0.1-4,0.2-6.1,0.4c-4.1,0.3-8.1,0.7-12.2,0.9
			c-2,0.1-4.1,0.2-6.2,0.1c-0.5-0.1-1.1-0.1-1.7-0.3c-0.2-0.1-0.3-0.1-0.5-0.3c-0.2-0.2-0.4-0.5-0.3-0.9c0-0.1,0-0.1,0-0.2l0-0.1
			l0.1-0.2l0.1-0.4c0.3-1,0.7-1.9,1.1-2.9c1.6-3.8,3.5-7.4,5.4-11c1.8-3.6,3.7-7.3,5.2-11c0.8-1.9,1.5-3.8,1.9-5.7
			c0.2-0.9,0.3-2,0.7-3.1c0.3-1,0.8-2,1.3-2.9c2.1-3.7,5-6.6,8-9.4c3-2.7,6.3-5.3,9.5-7.7c1.6-1.2,3.2-2.5,4.8-3.8
			c0.4-0.3,0.8-0.7,1.1-1c0.3-0.3,0.6-0.7,0.9-1.1c0.5-0.8,1-1.7,1.4-2.6c0.9-1.8,1.7-3.7,2.6-5.5c0.9-1.9,2.2-3.4,3.1-5.3
			c1.9-3.5,3.4-7.3,4.3-11.3c0.9-3.9,1.3-8,1.1-12c-0.1-4-0.8-8-2.1-11.9c-0.3-1-0.7-1.9-1-2.9c-0.4-0.9-0.8-1.9-1.2-2.8l-2.7-5.5
			c-1.8-3.7-3.3-7.6-3.6-11.8c-0.3-4.1-0.4-8.2-0.2-12.3l0,0.1c-0.6-3.4-0.8-6.8-0.7-10.1c0.1-3.4,0.3-6.8,0.7-10.1
			c0.8-6.7,2-13.4,3.4-19.9c2.9-13.2,6.6-26.1,10.7-39l1.5-4.8c0.5-1.6,0.9-3.2,1.6-4.8c1.2-3.2,2.9-6.1,4.6-9
			c1.7-2.9,3.5-5.8,5.2-8.7c1.7-2.9,3.2-5.9,4.3-9.1c0.5-1.6,0.9-3.2,1.1-4.9c0.1-0.8,0.1-1.7,0.1-2.5c0-0.8,0-1.7,0-2.5
			c-0.1-3.4-0.6-6.7-1.6-9.9c-0.9-3.2-2.3-6.3-4-9.2c-1.7-2.9-3.6-5.7-5.7-8.3l-0.1-0.1l0.2,0c0.8-0.2,1.6-0.8,2.2-1.4
			c0.6-0.6,1.1-1.3,1.7-2.1c0.5-0.7,1-1.4,1.7-2.1c0.3-0.3,0.7-0.6,1-0.9c0.4-0.2,0.8-0.5,1.2-0.6L150.2,201.1z"/>
	</g>
	<g>
		<path class="st14" d="M236.3,287.6c0,0,0.2,0.5,0.5,1.3c0.3,0.9,0.8,2.1,1.4,3.7c1.1,3.2,2.6,7.9,3.4,13.7
			c0.4,2.9,0.6,6.1,0.4,9.5c-0.2,3.4-0.8,6.9-2,10.4c-1.2,3.5-3,7-5.4,10c-2.5,3-5.6,5.5-8.8,7.7c-3.2,2.2-6.6,4.3-10.2,5.8
			c-3.6,1.5-7.5,2.1-11.2,1.8c-3.7-0.3-7.2-1.3-10.3-2.5c-3.1-1.2-6-2.7-8.5-4.1c-5.1-2.8-9.1-5.7-11.9-7.7c-1.4-1-2.4-1.9-3.1-2.4
			c-0.7-0.6-1.1-0.9-1.1-0.9s1.5,1.2,4.3,3.2c2.8,2,6.9,4.6,12,7.4c2.6,1.4,5.4,2.8,8.5,3.9c3.1,1.1,6.5,2.1,10.1,2.3
			c3.6,0.2,7.3-0.4,10.8-1.8c3.5-1.5,6.8-3.6,10-5.7c3.2-2.2,6.3-4.6,8.7-7.5c2.4-2.9,4.2-6.3,5.3-9.7c1.2-3.4,1.8-6.9,2.1-10.2
			c0.2-3.3,0.1-6.5-0.3-9.4c-0.7-5.8-2.1-10.5-3.1-13.7c-0.5-1.6-0.9-2.9-1.2-3.8C236.4,288,236.3,287.6,236.3,287.6z"/>
	</g>
	<g>
		<path class="st14" d="M195.2,365.1c0,0,0.2,0.5,0.7,1.4c0.4,1,1.1,2.3,1.8,4.2c1.4,3.6,3.2,9,4.3,15.6c0.5,3.3,0.8,7,1,10.8
			c0.2,3.8,0.2,7.9,0.4,12.1c0.2,4.2,0.7,8.5,1.4,12.8c0.7,4.3,1.6,8.7,2.4,13.1c0.8,4.4,1.6,8.8,2.2,13.2c0.6,4.4,0.9,8.7,1.1,12.9
			c0.2,4.2,0.2,8.3,0.1,12.1c-0.1,3.8-0.4,7.5-0.7,10.8c-0.3,3.3-0.7,6.4-1.1,9.1c-0.2,1.3-0.4,2.6-0.6,3.8
			c-0.2,1.2-0.4,2.2-0.6,3.2c-0.4,1.9-0.7,3.4-1,4.4c-0.2,1-0.4,1.6-0.4,1.6s0.1-0.5,0.3-1.6c0.2-1,0.5-2.5,0.8-4.5
			c0.2-1,0.4-2,0.5-3.2c0.2-1.2,0.4-2.4,0.5-3.8c0.2-1.3,0.4-2.8,0.5-4.3c0.2-1.5,0.3-3.1,0.5-4.8c0.3-3.3,0.5-7,0.5-10.8
			c0-3.8,0-7.9-0.3-12c-0.2-4.2-0.6-8.5-1.2-12.8c-0.6-4.4-1.4-8.7-2.2-13.1c-0.8-4.4-1.7-8.8-2.4-13.1c-0.7-4.4-1.2-8.7-1.4-12.9
			c-0.2-4.2-0.2-8.3-0.2-12.1c-0.1-3.8-0.3-7.4-0.8-10.8c-0.9-6.6-2.5-12-3.9-15.7c-0.7-1.8-1.3-3.3-1.7-4.2
			C195.4,365.6,195.2,365.1,195.2,365.1z"/>
	</g>
	<g>
		<path class="st14" d="M196.4,421.5c0,0,0.1,0.4,0.2,1.1c0.1,0.4,0.1,0.8,0.2,1.3c0,0.3,0,0.6,0.1,0.9c0,0.3,0,0.6,0,1
			c0,1.4-0.2,3-0.6,4.9c-0.4,1.9-1,3.9-2,6.1c-1.8,4.4-4.6,9.1-7.5,14.1c-3,5-6.1,10.4-9.3,15.8c-3.2,5.4-6.4,10.7-9.4,15.7
			c-3,5-5.8,9.7-8.3,13.7c-2.4,4-4.5,7.3-5.9,9.6c-1.4,2.3-2.3,3.6-2.3,3.6s0.8-1.4,2.1-3.7c1.3-2.4,3.3-5.8,5.6-9.8
			c2.3-4,5.1-8.8,8-13.8c3-5,6.1-10.4,9.3-15.8c3.2-5.4,6.4-10.7,9.4-15.7c1.5-2.5,3-4.9,4.3-7.2c1.3-2.3,2.5-4.5,3.5-6.7
			c0.9-2.1,1.7-4.1,2.1-6c0.5-1.8,0.7-3.5,0.7-4.8c0-0.3,0-0.7,0-1c0-0.3,0-0.6,0-0.8c0-0.5,0-1-0.1-1.3
			C196.5,421.9,196.4,421.5,196.4,421.5z"/>
	</g>
	<g>
		<path class="st14" d="M193.6,448.7c0,0-1.7,3.6-4.2,9c-1.3,2.7-2.7,5.8-4.2,9.2c-1.5,3.4-3,7-4.4,10.7c-0.7,1.8-1.4,3.7-2,5.5
			c-0.6,1.8-1.2,3.7-1.8,5.4c-1.2,3.5-2.5,6.8-3.8,9.4c-0.7,1.3-1.4,2.5-2.1,3.5c-0.3,0.5-0.7,1-1,1.4c-0.3,0.4-0.6,0.8-0.9,1.1
			c-0.5,0.7-1,1.2-1.4,1.5c-0.3,0.3-0.5,0.5-0.5,0.5s0.2-0.2,0.5-0.5c0.3-0.3,0.7-0.9,1.3-1.6c0.3-0.3,0.5-0.7,0.8-1.2
			c0.3-0.4,0.6-0.9,0.9-1.4c0.6-1,1.2-2.2,1.9-3.6c0.6-1.3,1.2-2.8,1.8-4.4c0.6-1.6,1.1-3.3,1.7-5c1.1-3.5,2.3-7.3,3.7-11
			c1.4-3.7,3-7.3,4.5-10.7c1.5-3.4,3.1-6.5,4.5-9.1c1.3-2.6,2.5-4.8,3.4-6.3C193.2,449.6,193.6,448.7,193.6,448.7z"/>
	</g>
	<g>
		<path class="st14" d="M165.9,416.1c0,0-0.1,0.4-0.2,1.1c-0.1,0.7-0.3,1.7-0.6,3c-0.6,2.6-1.8,6.2-3.7,10.3
			c-1.9,4.1-4.3,8.8-6.3,14.1c-2,5.3-3.2,11.2-4.4,17.1c-0.6,2.9-1.4,5.9-2.2,8.8c-0.8,2.9-1.8,5.6-2.9,8.3c-1,2.7-2.2,5.2-3.3,7.5
			c-1.2,2.3-2.3,4.5-3.5,6.4c-1.1,2-2.3,3.7-3.3,5.2c-1,1.5-2,2.8-2.8,3.9c-0.8,1.1-1.5,1.9-1.9,2.4c-0.4,0.5-0.7,0.8-0.7,0.8
			s0.2-0.3,0.6-0.9c0.4-0.6,1-1.4,1.8-2.5c0.8-1.1,1.7-2.4,2.6-4c1-1.6,2.1-3.3,3.2-5.3c1.1-2,2.2-4.1,3.3-6.5
			c1.1-2.3,2.2-4.9,3.2-7.5c1-2.6,2-5.4,2.8-8.2c0.8-2.9,1.5-5.8,2.1-8.7c0.7-2.9,1.3-5.9,2-8.8c0.7-2.9,1.6-5.7,2.6-8.4
			c1-2.7,2.2-5.1,3.4-7.5c1.2-2.3,2.3-4.5,3.2-6.5c1-2,1.8-3.9,2.5-5.6c0.7-1.7,1.2-3.2,1.6-4.5c0.3-1.3,0.6-2.3,0.7-3
			C165.8,416.5,165.9,416.1,165.9,416.1z"/>
	</g>
	<g>
		<path class="st14" d="M148.3,446.6c0,0-0.2,0.7-0.6,1.8c-0.4,1.1-0.9,2.8-1.5,4.8c-0.7,2-1.4,4.2-2.3,6.7c-0.8,2.4-1.8,5-2.7,7.6
			c-1,2.6-1.9,5.2-2.8,7.6c-0.9,2.4-1.8,4.7-2.6,6.6c-0.8,1.9-1.4,3.5-1.9,4.6c-0.5,1.1-0.7,1.7-0.7,1.7s0.2-0.7,0.6-1.8
			c0.4-1.1,0.9-2.8,1.5-4.8c0.7-2,1.4-4.2,2.3-6.7c0.8-2.4,1.8-5,2.7-7.6c1-2.6,1.9-5.2,2.8-7.6c0.9-2.4,1.8-4.7,2.6-6.6
			c0.8-1.9,1.4-3.5,1.9-4.6C148,447.2,148.3,446.6,148.3,446.6z"/>
	</g>
	<g>
		<path class="st14" d="M125.3,471.8c1.3-0.8,2.6-1.6,3.8-2.4c1.2-0.8,2.5-1.7,3.7-2.6l0.3-0.2l0.1,0.4c0.3,0.9,0.4,1.9,0.3,2.9
			c-0.1,1-0.4,1.9-0.7,2.8c-0.3,0.9-0.8,1.8-1.2,2.6c-0.4,0.8-1,1.6-1.5,2.4l-3,4.8l-1.5,2.4c-0.5,0.8-1,1.6-1.5,2.4
			c-2.1,3.1-4.2,6.2-6.3,9.3c-2.1,3.1-4.3,6.2-6.5,9.2c1.9-3.2,3.9-6.4,5.9-9.6c2-3.2,4-6.3,6.1-9.4c0.5-0.8,1-1.6,1.5-2.4l1.5-2.4
			l3-4.7c0.5-0.8,1-1.6,1.5-2.4c0.5-0.8,0.9-1.6,1.2-2.5c0.7-1.7,1.1-3.5,0.6-5.2l0.4,0.2c-1.3,0.8-2.5,1.6-3.9,2.4
			C128,470.4,126.7,471.1,125.3,471.8z"/>
	</g>
	<g>
		<path class="st14" d="M121.1,454c0,0,0.4-0.3,1.2-0.8c0.4-0.3,0.8-0.6,1.3-1c0.5-0.4,1-0.9,1.5-1.5c2.1-2.2,4.2-5.8,5.6-9.6
			c0.7-1.9,1.3-3.9,1.9-5.7c0.6-1.9,1.1-3.6,1.5-5.1c0.9-3,1.7-4.9,1.7-4.9s-0.1,0.5-0.3,1.4c-0.2,0.9-0.5,2.1-0.8,3.6
			c-0.4,1.5-0.7,3.3-1.2,5.2c-0.5,1.9-1.1,3.9-1.8,5.8c-0.8,2-1.7,3.8-2.8,5.5c-1.1,1.7-2.3,3-3.4,4.1c-0.6,0.5-1.1,1-1.7,1.4
			c-0.5,0.4-1,0.7-1.4,0.9c-0.4,0.2-0.7,0.4-0.9,0.5C121.2,453.9,121.1,454,121.1,454z"/>
	</g>
	<g>
		<path class="st14" d="M120.3,441.5c0,0,0.2,0.1,0.4,0c0.3,0,0.7-0.2,1.1-0.5c0.9-0.5,2-1.6,3.3-2.9c0.6-0.7,1.3-1.4,1.8-2.3
			c0.6-0.9,1.2-1.8,1.8-2.7c0.6-1,1.2-2,1.8-3c0.6-1,1.2-2.1,1.8-3.2c1.2-2.1,2.3-4.3,3.4-6.3c1.1-2,2.2-3.8,3.2-5.4
			c0.5-0.8,1-1.5,1.4-2.1c0.5-0.6,0.8-1.1,1.2-1.5c0.7-0.8,1.1-1.3,1.1-1.3s-0.3,0.5-0.9,1.4c-0.3,0.4-0.6,1-1,1.6
			c-0.4,0.6-0.8,1.4-1.3,2.1c-1.8,3.2-3.9,7.6-6.3,11.9c-0.6,1.1-1.2,2.1-1.8,3.2c-0.6,1-1.3,2-1.9,3c-0.7,1-1.3,1.9-2,2.7
			c-0.6,0.9-1.4,1.6-2,2.2c-1.3,1.3-2.6,2.2-3.6,2.7c-0.5,0.2-0.9,0.4-1.2,0.3C120.4,441.6,120.3,441.5,120.3,441.5z"/>
	</g>
	<g>
		<path class="st14" d="M132.2,403.8c0,0,0.8-0.8,2-1.9c1.2-1.1,2.9-2.6,4.6-4c1.7-1.4,3.5-2.7,4.8-3.7c1.4-0.9,2.3-1.5,2.3-1.5
			s-0.8,0.8-2,1.9c-1.2,1.1-2.9,2.6-4.6,4c-1.7,1.4-3.5,2.7-4.8,3.7C133.1,403.2,132.2,403.8,132.2,403.8z"/>
	</g>
	<g>
		<path class="st14" d="M128.4,390.5c0,0,0.3-0.1,0.7-0.3c0.5-0.2,1.1-0.5,1.8-0.9c0.4-0.2,0.8-0.4,1.2-0.7c0.4-0.2,0.8-0.5,1.3-0.8
			c0.9-0.6,1.8-1.2,2.7-1.9c0.9-0.7,1.7-1.4,2.5-2.2c0.4-0.4,0.7-0.7,1.1-1.1c0.3-0.4,0.6-0.7,0.9-1c0.6-0.6,1-1.2,1.3-1.6
			c0.3-0.4,0.5-0.6,0.5-0.6s-0.1,0.3-0.3,0.7c-0.2,0.4-0.5,1.1-1,1.8c-0.5,0.7-1.1,1.5-1.8,2.4c-0.4,0.4-0.7,0.8-1.2,1.2
			c-0.4,0.4-0.9,0.8-1.3,1.1c-0.5,0.3-0.9,0.7-1.4,1c-0.5,0.3-1,0.6-1.4,0.9c-1,0.5-1.9,0.9-2.7,1.2c-0.8,0.3-1.5,0.5-2,0.6
			C128.7,390.4,128.4,390.5,128.4,390.5z"/>
	</g>
	<g>
		<path class="st14" d="M220.5,360.2c0,0,0.3-0.2,0.8-0.3c0.5-0.1,1.2-0.2,1.8-0.2c0.7,0,1.3,0.1,1.8,0.2c0.5,0.1,0.8,0.3,0.8,0.3
			s-0.3,0.2-0.8,0.3c-0.5,0.1-1.2,0.2-1.8,0.2c-0.7,0-1.3-0.1-1.8-0.2C220.9,360.3,220.5,360.2,220.5,360.2z"/>
	</g>
	<g>
		<path class="st14" d="M136.4,354.5c0,0-0.2,0-0.6-0.1c-0.4-0.1-0.9-0.1-1.5-0.2c-0.3,0-0.6,0-1,0c-0.3,0-0.7,0.1-1.1,0.1
			c-0.4,0.1-0.7,0.1-1.1,0.2c-0.4,0.1-0.7,0.2-1.1,0.4c-0.4,0.2-0.7,0.3-1.1,0.5c-0.4,0.2-0.7,0.4-1,0.6c-0.3,0.2-0.6,0.4-0.9,0.6
			c-0.3,0.2-0.5,0.4-0.7,0.6c-0.4,0.4-0.8,0.8-1,1.1c-0.2,0.3-0.4,0.5-0.4,0.5s0.1-0.2,0.2-0.6c0.1-0.2,0.2-0.4,0.3-0.6
			c0.1-0.2,0.3-0.5,0.5-0.8c0.2-0.3,0.4-0.5,0.7-0.8c0.2-0.3,0.6-0.5,0.9-0.8c0.3-0.2,0.7-0.5,1.1-0.7c0.4-0.2,0.8-0.4,1.2-0.6
			c0.4-0.1,0.8-0.3,1.3-0.4c0.4-0.1,0.8-0.1,1.2-0.2c0.4,0,0.8,0,1.2,0c0.4,0,0.7,0.1,1,0.2c0.3,0.1,0.6,0.2,0.8,0.3
			c0.3,0.1,0.5,0.2,0.6,0.3C136.2,354.3,136.4,354.5,136.4,354.5z"/>
	</g>
	<g>
		<path class="st14" d="M268.7,293.6c0,0,0.2,0.1,0.5,0.2c0.3,0.2,0.8,0.4,1.4,0.7c0.6,0.3,1.2,0.8,1.8,1.3c0.6,0.5,1.2,1.1,1.8,1.8
			c0.3,0.3,0.6,0.7,0.8,1c0.3,0.3,0.5,0.7,0.7,1c0.4,0.7,0.8,1.4,1,2c0.3,0.6,0.4,1.1,0.5,1.5c0.1,0.4,0.1,0.6,0.1,0.6
			s-0.5-0.7-1.2-1.8c-0.7-1.1-1.7-2.4-2.8-3.7c-0.5-0.6-1.1-1.2-1.7-1.8c-0.6-0.6-1.1-1.1-1.6-1.5
			C269.3,294.1,268.7,293.6,268.7,293.6z"/>
	</g>
	<g>
		<path class="st14" d="M260.7,345.9c0,0,0.2-0.3,0.5-0.9c0.3-0.6,0.8-1.5,1.2-2.5c0.2-0.5,0.5-1.1,0.7-1.7c0.3-0.6,0.4-1.3,0.7-2
			c0.2-0.7,0.4-1.4,0.6-2.1c0.2-0.7,0.3-1.5,0.5-2.2c0.1-0.8,0.3-1.5,0.3-2.3c0.1-0.7,0.1-1.5,0.2-2.2c0-0.7,0.1-1.4,0-2.1
			c0-0.7,0-1.3-0.1-1.9c-0.1-1.2-0.2-2.1-0.3-2.8c-0.1-0.7-0.1-1.1-0.1-1.1s0.1,0.4,0.3,1c0.1,0.3,0.2,0.7,0.3,1.2
			c0.1,0.5,0.2,1,0.3,1.6c0.1,0.6,0.2,1.2,0.2,1.9c0.1,0.7,0.1,1.4,0.1,2.1c0,0.7,0,1.5-0.1,2.3c-0.1,0.8-0.2,1.6-0.3,2.3
			c-0.2,0.8-0.3,1.5-0.5,2.3c-0.2,0.8-0.5,1.5-0.7,2.2c-0.3,0.7-0.5,1.4-0.8,2c-0.3,0.6-0.6,1.2-0.9,1.7c-0.3,0.5-0.6,1-0.9,1.4
			c-0.3,0.4-0.5,0.7-0.7,1C261,345.6,260.7,345.9,260.7,345.9z"/>
	</g>
	<g>
		<path class="st14" d="M253.8,413.9c0,0,0.2,0.3,0.7,0.9c0.4,0.6,1.1,1.4,1.9,2.5c0.7,1.1,1.7,2.4,2.6,4c1,1.6,2,3.4,3,5.4
			c0.5,1,1,2.1,1.5,3.2c0.5,1.1,1,2.3,1.5,3.5c0.9,2.4,1.9,5,2.7,7.8c0.4,1.4,0.8,2.8,1.2,4.2c0.4,1.4,0.7,2.9,1.1,4.3
			c0.7,2.9,1.3,5.9,1.8,8.9c1,6,1.8,12,2.5,17.7c0.7,5.7,1.2,10.9,1.6,15.5c0.4,4.5,0.6,8.3,0.8,11c0.1,2.7,0.2,4.2,0.2,4.2
			s-0.2-1.5-0.4-4.2c-0.3-2.6-0.7-6.4-1.2-10.9c-0.5-4.5-1.2-9.8-1.9-15.4c-0.7-5.6-1.6-11.6-2.6-17.6c-0.5-3-1.1-6-1.7-8.9
			c-0.3-1.5-0.7-2.9-1-4.3c-0.3-1.4-0.7-2.8-1.1-4.2c-0.8-2.7-1.6-5.3-2.5-7.8c-0.5-1.2-0.9-2.4-1.4-3.5c-0.5-1.1-1-2.2-1.4-3.2
			c-1-2-1.9-3.9-2.8-5.5c-0.9-1.6-1.8-2.9-2.5-4.1c-0.7-1.1-1.4-1.9-1.8-2.5C254.1,414.2,253.8,413.9,253.8,413.9z"/>
	</g>
	<g>
		<path d="M231.3,275.5c0,0-0.2-0.3-0.6-0.8c-0.3-0.5-0.9-1.3-1.5-2.2c-0.3-0.4-0.7-0.9-1-1.4c-0.4-0.5-0.8-1-1.2-1.6
			c-0.8-1.1-1.7-2.2-2.6-3.3c-0.9-1.1-1.9-2.2-2.8-3.2c-0.5-0.5-0.9-1-1.4-1.4c-0.4-0.4-0.9-0.9-1.2-1.2c-0.8-0.8-1.4-1.4-1.9-1.8
			c-0.5-0.4-0.7-0.7-0.7-0.7s0.3,0.2,0.9,0.5c0.5,0.4,1.3,0.9,2.2,1.6c0.9,0.7,1.8,1.5,2.9,2.5c0.5,0.5,1,1,1.5,1.5
			c0.5,0.5,1,1.1,1.5,1.6c0.9,1.1,1.8,2.3,2.6,3.5c0.8,1.2,1.4,2.3,1.9,3.2c0.5,1,0.9,1.8,1.2,2.4
			C231.1,275.1,231.3,275.5,231.3,275.5z"/>
	</g>
	<g>
		<path class="st10" d="M149.4,208.2L149.4,208.2c1.7,0,3.1-1.4,3.1-3.1v0c0-1.7-1.4-3.1-3.1-3.1h0c-1.7,0-3.1,1.4-3.1,3.1v0
			C146.3,206.8,147.7,208.2,149.4,208.2z"/>
		<path class="st11" d="M149.4,208.3c0-0.2,0-0.1,0-0.1l0,0l0,0l0,0l0,0l0,0l0,0l0.1,0l0.2,0l0.3,0c0.2,0,0.4-0.1,0.6-0.2
			c0.4-0.2,0.7-0.4,1-0.7c0.5-0.6,0.8-1.4,0.7-2.1l0.5,0l-0.5,0c0-0.8-0.4-1.5-0.9-2c-0.5-0.5-1.3-0.8-2-0.7l0-0.8l0,0.8
			c-0.7,0-1.4,0.4-1.9,0.9c-0.2,0.3-0.4,0.5-0.5,0.9c-0.1,0.3-0.2,0.7-0.2,1l-1,0l1,0c0,0.7,0.1,1.4,0.6,2c0.2,0.3,0.5,0.6,0.9,0.8
			c0.3,0.2,0.7,0.3,1.1,0.3V208.3z M149.4,208.3c-0.4,0-0.8,0-1.2-0.2c-0.4-0.1-0.8-0.3-1.2-0.6c-0.3-0.3-0.7-0.6-0.9-1
			c-0.2-0.4-0.3-0.9-0.4-1.4v0c0-0.5,0.1-1,0.3-1.4c0.2-0.4,0.5-0.8,0.8-1.2c0.7-0.6,1.6-1,2.6-1h0c0.9,0,1.8,0.4,2.4,1.1
			c0.6,0.7,1,1.6,0.9,2.4v0c0,0.9-0.5,1.7-1.1,2.3c-0.3,0.3-0.7,0.5-1.1,0.6c-0.2,0.1-0.4,0.1-0.6,0.2l-0.3,0l-0.2,0L149.4,208.3
			L149.4,208.3L149.4,208.3L149.4,208.3L149.4,208.3L149.4,208.3L149.4,208.3c0,0,0,0.1,0-0.1V208.3z"/>
	</g>
	<g>
		<path class="st10" d="M152.8,213.2L152.8,213.2c1.7,0,3.1-1.4,3.1-3.1v0c0-1.7-1.4-3.1-3.1-3.1h0c-1.7,0-3.1,1.4-3.1,3.1v0
			C149.6,211.8,151,213.2,152.8,213.2z"/>
		<path class="st11" d="M152.8,213.3c0-0.2,0-0.1,0-0.1l0,0l0,0l0,0l0,0l0,0l0,0l0.1,0l0.2,0l0.3,0c0.2,0,0.4-0.1,0.6-0.2
			c0.4-0.2,0.7-0.4,1-0.7c0.5-0.6,0.8-1.4,0.7-2.1l0.5,0l-0.5,0c0-0.8-0.4-1.5-0.9-2c-0.5-0.5-1.3-0.8-2-0.7l0-0.8l0,0.8
			c-0.7,0-1.4,0.4-1.9,0.9c-0.2,0.3-0.4,0.5-0.5,0.9c-0.1,0.3-0.2,0.7-0.2,1l-1,0l1,0c0,0.7,0.1,1.4,0.6,2c0.2,0.3,0.5,0.6,0.9,0.8
			c0.3,0.2,0.7,0.3,1.1,0.3V213.3z M152.8,213.3c-0.4,0-0.8,0-1.2-0.2c-0.4-0.1-0.8-0.3-1.2-0.6c-0.3-0.3-0.7-0.6-0.9-1
			c-0.2-0.4-0.3-0.9-0.4-1.4l1,0l-1,0c0-0.5,0.1-1,0.3-1.4c0.2-0.4,0.5-0.8,0.8-1.2c0.7-0.6,1.6-1,2.6-1l0,0.8l0-0.8
			c0.9,0,1.8,0.4,2.4,1.1c0.6,0.7,1,1.6,0.9,2.4l-0.5,0l0.5,0c0,0.9-0.5,1.7-1.1,2.3c-0.3,0.3-0.7,0.5-1.1,0.6
			c-0.2,0.1-0.4,0.1-0.6,0.2l-0.3,0l-0.2,0L152.8,213.3L152.8,213.3L152.8,213.3L152.8,213.3L152.8,213.3L152.8,213.3L152.8,213.3
			c0,0,0,0.1,0-0.1V213.3z"/>
	</g>
	<g>
		<path class="st10" d="M157.4,218.4L157.4,218.4c1.7-0.3,2.8-2,2.5-3.7v0c-0.3-1.7-2-2.8-3.7-2.5l0,0c-1.7,0.3-2.8,2-2.5,3.7v0
			C154.1,217.7,155.7,218.8,157.4,218.4z"/>
		<path class="st11" d="M157.4,218.5C157.4,218.3,157.4,218.4,157.4,218.5L157.4,218.5L157.4,218.5l0-0.1l0,0l0,0l0,0l0.1,0l0.1,0
			l0.3-0.1c0.2-0.1,0.4-0.2,0.5-0.3c0.3-0.2,0.6-0.5,0.8-0.9c0.4-0.7,0.5-1.5,0.3-2.2l0.5-0.1l-0.5,0.1c-0.2-0.7-0.6-1.4-1.3-1.8
			c-0.6-0.4-1.4-0.5-2.1-0.3l-0.2-0.8l0.2,0.8c-0.7,0.2-1.3,0.6-1.7,1.2c-0.2,0.3-0.3,0.6-0.4,1c-0.1,0.3-0.1,0.7,0,1l-1,0.2l1-0.2
			c0.1,0.7,0.4,1.4,1,1.9c0.3,0.2,0.6,0.4,1,0.6C156.6,218.4,157,218.5,157.4,218.5L157.4,218.5z M157.4,218.5
			c-0.4,0.1-0.8,0.1-1.3,0.1c-0.4,0-0.9-0.2-1.2-0.4c-0.4-0.2-0.8-0.5-1.1-0.9c-0.3-0.4-0.5-0.8-0.6-1.3l1-0.2l-1,0.2
			c-0.1-0.5-0.1-0.9,0-1.4c0.1-0.5,0.3-0.9,0.6-1.3c0.5-0.8,1.4-1.3,2.3-1.5l0.2,0.8l-0.2-0.8c0.9-0.2,1.9,0.1,2.6,0.6
			c0.7,0.5,1.3,1.3,1.4,2.2l-0.5,0.1l0.5-0.1c0.1,0.9-0.1,1.8-0.6,2.5c-0.3,0.3-0.6,0.6-0.9,0.8c-0.2,0.1-0.4,0.2-0.6,0.3l-0.3,0.1
			l-0.2,0L157.4,218.5L157.4,218.5L157.4,218.5L157.4,218.5L157.4,218.5L157.4,218.5L157.4,218.5
			C157.4,218.4,157.5,218.6,157.4,218.5L157.4,218.5z"/>
	</g>
	<g>
		<path class="st10" d="M161.7,222.7L161.7,222.7c1.7-0.3,2.8-2,2.5-3.7v0c-0.3-1.7-2-2.8-3.7-2.5l0,0c-1.7,0.3-2.8,2-2.5,3.7v0
			C158.4,221.9,160,223,161.7,222.7z"/>
		<path class="st11" d="M161.7,222.7C161.7,222.5,161.7,222.7,161.7,222.7L161.7,222.7L161.7,222.7l0-0.1l0,0l0,0l0,0l0.1,0l0.1,0
			l0.3-0.1c0.2-0.1,0.4-0.2,0.5-0.3c0.3-0.2,0.6-0.5,0.8-0.9c0.4-0.7,0.5-1.5,0.3-2.2l0.5-0.1l-0.5,0.1c-0.2-0.7-0.6-1.4-1.3-1.8
			c-0.6-0.4-1.4-0.5-2.1-0.3l-0.2-0.8l0.2,0.8c-0.7,0.2-1.3,0.6-1.7,1.2c-0.2,0.3-0.3,0.6-0.4,1c-0.1,0.3-0.1,0.7,0,1l-1,0.2l1-0.2
			c0.1,0.7,0.4,1.4,1,1.9c0.3,0.2,0.6,0.4,1,0.6C160.9,222.7,161.3,222.7,161.7,222.7L161.7,222.7z M161.7,222.7
			c-0.4,0.1-0.8,0.1-1.3,0.1c-0.4,0-0.9-0.2-1.2-0.4c-0.4-0.2-0.8-0.5-1.1-0.9c-0.3-0.4-0.5-0.8-0.6-1.3l1-0.2l-1,0.2
			c-0.1-0.5-0.1-0.9,0-1.4c0.1-0.5,0.3-0.9,0.6-1.3c0.5-0.8,1.4-1.3,2.3-1.5l0.2,0.8l-0.2-0.8c0.9-0.2,1.9,0.1,2.6,0.6
			c0.7,0.5,1.3,1.3,1.4,2.2l-0.5,0.1l0.5-0.1c0.1,0.9-0.1,1.8-0.6,2.5c-0.3,0.3-0.6,0.6-0.9,0.8c-0.2,0.1-0.4,0.2-0.6,0.3l-0.3,0.1
			l-0.2,0L161.7,222.7L161.7,222.7L161.7,222.7L161.7,222.7L161.7,222.7L161.7,222.7L161.7,222.7
			C161.7,222.7,161.7,222.8,161.7,222.7L161.7,222.7z"/>
	</g>
	<g>
		<path class="st10" d="M166.9,226.7L166.9,226.7c1.5-0.9,2-2.8,1.1-4.3l0,0c-0.9-1.5-2.8-2-4.3-1.1l0,0c-1.5,0.9-2,2.8-1.1,4.3l0,0
			C163.5,227.1,165.4,227.6,166.9,226.7z"/>
		<path class="st11" d="M166.9,226.7C166.8,226.6,166.9,226.7,166.9,226.7L166.9,226.7L166.9,226.7L166.9,226.7L166.9,226.7l0-0.1
			l0,0l0.1,0l0.1-0.1l0.2-0.2c0.1-0.1,0.3-0.3,0.4-0.5c0.2-0.3,0.4-0.7,0.5-1.1c0.1-0.8,0-1.6-0.5-2.2l0.4-0.3l-0.4,0.3
			c-0.4-0.6-1.1-1.1-1.8-1.2c-0.7-0.2-1.5,0-2.1,0.4l-0.4-0.7l0.4,0.7c-0.6,0.4-1,1-1.1,1.7c-0.1,0.3-0.1,0.7,0,1
			c0,0.3,0.2,0.7,0.3,1l-0.9,0.5l0.9-0.5c0.3,0.6,0.9,1.1,1.6,1.4c0.4,0.1,0.7,0.2,1.1,0.2C166.1,226.9,166.5,226.8,166.9,226.7
			L166.9,226.7z M166.9,226.7c-0.3,0.2-0.7,0.4-1.2,0.5c-0.4,0.1-0.9,0.1-1.3,0.1c-0.4-0.1-0.9-0.2-1.3-0.4c-0.4-0.2-0.7-0.6-1-1
			l0.9-0.5l-0.9,0.5c-0.2-0.4-0.4-0.9-0.5-1.3c-0.1-0.5,0-1,0.1-1.4c0.3-0.9,0.9-1.7,1.7-2.1l0.4,0.7l-0.4-0.7
			c0.8-0.5,1.8-0.6,2.6-0.3c0.9,0.2,1.6,0.8,2.1,1.6l-0.4,0.3l0.4-0.3c0.4,0.8,0.5,1.7,0.2,2.5c-0.1,0.4-0.3,0.8-0.6,1.1
			c-0.1,0.2-0.3,0.3-0.4,0.5l-0.2,0.2l-0.1,0.1L166.9,226.7L166.9,226.7L166.9,226.7L166.9,226.7L166.9,226.7L166.9,226.7
			L166.9,226.7C166.9,226.7,167,226.8,166.9,226.7L166.9,226.7z"/>
	</g>
	<g>
		<path class="st10" d="M172.3,229.2L172.3,229.2c1.5-0.9,2-2.8,1.1-4.3v0c-0.9-1.5-2.8-2-4.3-1.1l0,0c-1.5,0.9-2,2.8-1.1,4.3h0
			C168.9,229.6,170.9,230.1,172.3,229.2z"/>
		<path class="st11" d="M172.4,229.3C172.3,229.1,172.3,229.2,172.4,229.3L172.4,229.3L172.4,229.3L172.4,229.3L172.4,229.3l0-0.1
			l0,0l0.1,0l0.1-0.1l0.2-0.2c0.1-0.1,0.3-0.3,0.4-0.5c0.2-0.3,0.4-0.7,0.5-1.1c0.1-0.8,0-1.6-0.5-2.2l0.4-0.3l-0.4,0.3
			c-0.4-0.6-1.1-1.1-1.8-1.2c-0.7-0.2-1.5,0-2.1,0.4l-0.4-0.7l0.4,0.7c-0.6,0.4-1,1-1.1,1.7c-0.1,0.3-0.1,0.7,0,1
			c0,0.3,0.2,0.7,0.3,1l-0.9,0.5l0.9-0.5c0.3,0.6,0.9,1.1,1.6,1.4c0.4,0.1,0.7,0.2,1.1,0.2C171.6,229.5,172,229.4,172.4,229.3
			L172.4,229.3z M172.4,229.3c-0.3,0.2-0.7,0.4-1.2,0.5c-0.4,0.1-0.9,0.1-1.3,0.1c-0.4-0.1-0.9-0.2-1.3-0.4c-0.4-0.2-0.7-0.6-1-1
			l0.9-0.5l-0.9,0.5c-0.2-0.4-0.4-0.9-0.5-1.3c-0.1-0.5,0-1,0.1-1.4c0.3-0.9,0.9-1.7,1.7-2.1l0.4,0.7l-0.4-0.7
			c0.8-0.5,1.8-0.6,2.6-0.3c0.9,0.2,1.6,0.8,2.1,1.6l-0.4,0.3l0.4-0.3c0.4,0.8,0.5,1.7,0.2,2.5c-0.1,0.4-0.3,0.8-0.6,1.1
			c-0.1,0.2-0.3,0.3-0.4,0.5l-0.2,0.2l-0.1,0.1L172.4,229.3L172.4,229.3L172.4,229.3L172.4,229.3L172.4,229.3L172.4,229.3
			L172.4,229.3C172.3,229.2,172.4,229.4,172.4,229.3L172.4,229.3z"/>
	</g>
	<g>
		<path class="st10" d="M178.3,231.2L178.3,231.2c1.5-0.9,2-2.8,1.1-4.3l0,0c-0.9-1.5-2.8-2-4.3-1.1l0,0c-1.5,0.9-2,2.8-1.1,4.3l0,0
			C174.8,231.6,176.8,232.1,178.3,231.2z"/>
		<path class="st11" d="M178.3,231.2C178.2,231.1,178.2,231.2,178.3,231.2L178.3,231.2L178.3,231.2L178.3,231.2L178.3,231.2l0-0.1
			l0,0l0.1,0l0.1-0.1l0.2-0.2c0.1-0.1,0.3-0.3,0.4-0.5c0.2-0.3,0.4-0.7,0.5-1.1c0.1-0.8,0-1.6-0.5-2.2l0.4-0.3l-0.4,0.3
			c-0.4-0.6-1.1-1.1-1.8-1.2c-0.7-0.2-1.5,0-2.1,0.4l-0.4-0.7l0.4,0.7c-0.6,0.4-1,1-1.1,1.7c-0.1,0.3-0.1,0.7,0,1
			c0,0.3,0.2,0.7,0.3,1l-0.9,0.5l0.9-0.5c0.3,0.6,0.9,1.1,1.6,1.4c0.4,0.1,0.7,0.2,1.1,0.2C177.5,231.4,177.9,231.3,178.3,231.2
			L178.3,231.2z M178.3,231.2c-0.3,0.2-0.7,0.4-1.2,0.5c-0.4,0.1-0.9,0.1-1.3,0.1c-0.4-0.1-0.9-0.2-1.3-0.4c-0.4-0.2-0.7-0.6-1-1
			l0.9-0.5l-0.9,0.5c-0.2-0.4-0.4-0.9-0.5-1.3c-0.1-0.5,0-1,0.1-1.4c0.3-0.9,0.9-1.7,1.7-2.1l0.4,0.7l-0.4-0.7
			c0.8-0.5,1.8-0.6,2.6-0.3c0.9,0.2,1.6,0.8,2.1,1.6l-0.4,0.3l0.4-0.3c0.4,0.8,0.5,1.7,0.2,2.5c-0.1,0.4-0.3,0.8-0.6,1.1
			c-0.1,0.2-0.3,0.3-0.4,0.5l-0.2,0.2l-0.1,0.1L178.3,231.2L178.3,231.2L178.3,231.2L178.3,231.2L178.3,231.2L178.3,231.2
			L178.3,231.2C178.3,231.2,178.3,231.3,178.3,231.2L178.3,231.2z"/>
	</g>
	<g>
		<path class="st10" d="M201.8,222.5L201.8,222.5c1.5-0.9,2-2.8,1.1-4.3v0c-0.9-1.5-2.8-2-4.3-1.1l0,0c-1.5,0.9-2,2.8-1.1,4.3h0
			C198.4,222.9,200.4,223.4,201.8,222.5z"/>
		<path class="st11" d="M201.9,222.5C201.8,222.4,201.8,222.5,201.9,222.5L201.9,222.5L201.9,222.5L201.9,222.5L201.9,222.5l0-0.1
			l0,0l0.1,0l0.1-0.1l0.2-0.2c0.1-0.1,0.3-0.3,0.4-0.5c0.2-0.3,0.4-0.7,0.5-1.1c0.1-0.8,0-1.6-0.5-2.2l0.4-0.3l-0.4,0.3
			c-0.4-0.6-1.1-1.1-1.8-1.2c-0.7-0.2-1.5,0-2.1,0.4l-0.4-0.7l0.4,0.7c-0.6,0.4-1,1-1.1,1.7c-0.1,0.3-0.1,0.7,0,1
			c0,0.3,0.2,0.7,0.3,1l-0.9,0.5l0.9-0.5c0.3,0.6,0.9,1.1,1.6,1.4c0.4,0.1,0.7,0.2,1.1,0.2C201.1,222.7,201.5,222.6,201.9,222.5
			L201.9,222.5z M201.9,222.5c-0.3,0.2-0.7,0.4-1.2,0.5c-0.4,0.1-0.9,0.1-1.3,0.1c-0.4-0.1-0.9-0.2-1.3-0.4c-0.4-0.2-0.7-0.6-1-1
			l0.9-0.5l-0.9,0.5c-0.2-0.4-0.4-0.9-0.5-1.3c-0.1-0.5,0-1,0.1-1.4c0.3-0.9,0.9-1.7,1.7-2.1l0.4,0.7l-0.4-0.7
			c0.8-0.5,1.8-0.6,2.6-0.3c0.9,0.2,1.6,0.8,2.1,1.6l-0.4,0.3l0.4-0.3c0.4,0.8,0.5,1.7,0.2,2.5c-0.1,0.4-0.3,0.8-0.6,1.1
			c-0.1,0.2-0.3,0.3-0.4,0.5l-0.2,0.2l-0.1,0.1L201.9,222.5L201.9,222.5L201.9,222.5L201.9,222.5L201.9,222.5L201.9,222.5
			L201.9,222.5C201.8,222.5,201.9,222.6,201.9,222.5L201.9,222.5z"/>
	</g>
	<g>
		<path class="st10" d="M200,227.2L200,227.2c1.5-0.9,2-2.8,1.1-4.3v0c-0.9-1.5-2.8-2-4.3-1.1l0,0c-1.5,0.9-2,2.8-1.1,4.3h0
			C196.6,227.6,198.5,228.1,200,227.2z"/>
		<path class="st11" d="M200,227.3C199.9,227.1,200,227.2,200,227.3L200,227.3L200,227.3L200,227.3L200,227.3l0-0.1l0,0l0.1,0
			l0.1-0.1l0.2-0.2c0.1-0.1,0.3-0.3,0.4-0.5c0.2-0.3,0.4-0.7,0.5-1.1c0.1-0.8,0-1.6-0.5-2.2l0.4-0.3l-0.4,0.3
			c-0.4-0.6-1.1-1.1-1.8-1.2c-0.7-0.2-1.5,0-2.1,0.4l-0.4-0.7l0.4,0.7c-0.6,0.4-1,1-1.1,1.7c-0.1,0.3-0.1,0.7,0,1
			c0,0.3,0.2,0.7,0.3,1l-0.9,0.5l0.9-0.5c0.3,0.6,0.9,1.1,1.6,1.4c0.4,0.1,0.7,0.2,1.1,0.2C199.2,227.5,199.6,227.4,200,227.3
			L200,227.3z M200,227.3c-0.3,0.2-0.7,0.4-1.2,0.5c-0.4,0.1-0.9,0.1-1.3,0.1c-0.4-0.1-0.9-0.2-1.3-0.4c-0.4-0.2-0.7-0.6-1-1
			l0.9-0.5l-0.9,0.5c-0.2-0.4-0.4-0.9-0.5-1.3c-0.1-0.5,0-1,0.1-1.4c0.3-0.9,0.9-1.7,1.7-2.1l0.4,0.7l-0.4-0.7
			c0.8-0.5,1.8-0.6,2.6-0.3c0.9,0.2,1.6,0.8,2.1,1.6l-0.4,0.3l0.4-0.3c0.4,0.8,0.5,1.7,0.2,2.5c-0.1,0.4-0.3,0.8-0.6,1.1
			c-0.1,0.2-0.3,0.3-0.4,0.5l-0.2,0.2l-0.1,0.1L200,227.3L200,227.3L200,227.3L200,227.3L200,227.3L200,227.3L200,227.3
			C200,227.2,200,227.4,200,227.3L200,227.3z"/>
	</g>
	<g>
		<path class="st10" d="M196.3,231.1L196.3,231.1c1.5-0.9,2-2.8,1.1-4.3v0c-0.9-1.5-2.8-2-4.3-1.1l0,0c-1.5,0.9-2,2.8-1.1,4.3h0
			C192.9,231.5,194.9,232,196.3,231.1z"/>
		<path class="st11" d="M196.4,231.1C196.3,231,196.3,231.1,196.4,231.1L196.4,231.1L196.4,231.1L196.4,231.1L196.4,231.1l0-0.1l0,0
			l0.1,0l0.1-0.1l0.2-0.2c0.1-0.1,0.3-0.3,0.4-0.5c0.2-0.3,0.4-0.7,0.5-1.1c0.1-0.8,0-1.6-0.5-2.2l0.4-0.3l-0.4,0.3
			c-0.4-0.6-1.1-1.1-1.8-1.2c-0.7-0.2-1.5,0-2.1,0.4l-0.4-0.7l0.4,0.7c-0.6,0.4-1,1-1.1,1.7c-0.1,0.3-0.1,0.7,0,1
			c0,0.3,0.2,0.7,0.3,1l-0.9,0.5l0.9-0.5c0.3,0.6,0.9,1.1,1.6,1.4c0.4,0.1,0.7,0.2,1.1,0.2C195.6,231.4,196,231.3,196.4,231.1
			L196.4,231.1z M196.4,231.1c-0.3,0.2-0.7,0.4-1.2,0.5c-0.4,0.1-0.9,0.1-1.3,0.1c-0.4-0.1-0.9-0.2-1.3-0.4c-0.4-0.2-0.7-0.6-1-1
			l0.9-0.5l-0.9,0.5c-0.2-0.4-0.4-0.9-0.5-1.3c-0.1-0.5,0-1,0.1-1.4c0.3-0.9,0.9-1.7,1.7-2.1l0.4,0.7l-0.4-0.7
			c0.8-0.5,1.8-0.6,2.6-0.3c0.9,0.2,1.6,0.8,2.1,1.6l-0.4,0.3l0.4-0.3c0.4,0.8,0.5,1.7,0.2,2.5c-0.1,0.4-0.3,0.8-0.6,1.1
			c-0.1,0.2-0.3,0.3-0.4,0.5l-0.2,0.2l-0.1,0.1L196.4,231.1L196.4,231.1L196.4,231.1L196.4,231.1L196.4,231.1L196.4,231.1
			L196.4,231.1C196.3,231.1,196.4,231.2,196.4,231.1L196.4,231.1z"/>
	</g>
	<g>
		<path class="st10" d="M190.7,232L190.7,232c1.5-0.9,2-2.8,1.1-4.3v0c-0.9-1.5-2.8-2-4.3-1.1l0,0c-1.5,0.9-2,2.8-1.1,4.3h0
			C187.3,232.4,189.2,232.9,190.7,232z"/>
		<path class="st11" d="M190.7,232C190.6,231.9,190.7,232,190.7,232L190.7,232L190.7,232L190.7,232L190.7,232l0-0.1l0,0l0.1,0
			l0.1-0.1l0.2-0.2c0.1-0.1,0.3-0.3,0.4-0.5c0.2-0.3,0.4-0.7,0.5-1.1c0.1-0.8,0-1.6-0.5-2.2l0.4-0.3l-0.4,0.3
			c-0.4-0.6-1.1-1.1-1.8-1.2c-0.7-0.2-1.5,0-2.1,0.4l-0.4-0.7l0.4,0.7c-0.6,0.4-1,1-1.1,1.7c-0.1,0.3-0.1,0.7,0,1
			c0,0.3,0.2,0.7,0.3,1l-0.9,0.5l0.9-0.5c0.3,0.6,0.9,1.1,1.6,1.4c0.4,0.1,0.7,0.2,1.1,0.2C189.9,232.2,190.3,232.1,190.7,232
			L190.7,232z M190.7,232c-0.3,0.2-0.7,0.4-1.2,0.5c-0.4,0.1-0.9,0.1-1.3,0.1c-0.4-0.1-0.9-0.2-1.3-0.4c-0.4-0.2-0.7-0.6-1-1
			l0.9-0.5l-0.9,0.5c-0.2-0.4-0.4-0.9-0.5-1.3c-0.1-0.5,0-1,0.1-1.4c0.3-0.9,0.9-1.7,1.7-2.1l0.4,0.7l-0.4-0.7
			c0.8-0.5,1.8-0.6,2.6-0.3c0.9,0.2,1.6,0.8,2.1,1.6l-0.4,0.3l0.4-0.3c0.4,0.8,0.5,1.7,0.2,2.5c-0.1,0.4-0.3,0.8-0.6,1.1
			c-0.1,0.2-0.3,0.3-0.4,0.5l-0.2,0.2l-0.1,0.1L190.7,232L190.7,232L190.7,232L190.7,232L190.7,232L190.7,232L190.7,232
			C190.7,232,190.8,232.1,190.7,232L190.7,232z"/>
	</g>
	<g>
		<path class="st15" d="M238,147.1c0,0,0.1,0.3,0.3,0.9c0.1,0.3,0.2,0.7,0.4,1.1c0.1,0.4,0.3,0.9,0.4,1.5c0.3,1.1,0.5,2.6,0.6,4.2
			c0.1,0.8,0,1.7,0,2.6c-0.1,0.9-0.1,1.9-0.3,2.9c-0.2,2-0.7,4.2-1.4,6.4c-0.6,2.2-1.5,4.5-2.5,6.8c-2,4.6-4.6,9.3-6.9,14.1
			c-2.4,4.8-4.4,9.7-5.3,14.6c-0.5,2.4-0.7,4.8-0.6,7.1c0.1,2.3,0.5,4.4,0.8,6.4c0.3,2,0.4,3.9,0.1,5.5c-0.3,1.6-1,3-1.7,3.9
			c-0.7,0.9-1.5,1.5-2.1,1.7c-0.6,0.3-0.9,0.3-0.9,0.3c0,0,0.3-0.1,0.9-0.4c0.5-0.3,1.3-0.9,2-1.8c0.7-0.9,1.2-2.3,1.5-3.8
			c0.2-1.6,0-3.4-0.3-5.4c-0.4-2-0.9-4.1-1-6.4c-0.1-2.3,0-4.8,0.5-7.3c0.9-5,3-10.1,5.3-14.9c2.4-4.8,5-9.5,7-14
			c2-4.6,3.5-9,4.1-12.9c0.3-2,0.4-3.8,0.4-5.4c0-1.6-0.2-3-0.4-4.2c-0.1-0.6-0.2-1.1-0.3-1.5c-0.1-0.4-0.2-0.8-0.3-1.1
			C238.1,147.4,238,147.1,238,147.1z"/>
	</g>
	<g>
		<path class="st15" d="M209.3,225.9c0,0,0.1-0.3,0.2-0.8c0.2-0.5,0.4-1.2,0.6-2.1c0.2-0.9,0.4-1.9,0.6-3c0.2-1.1,0.3-2.3,0.4-3.5
			c0.1-1.2,0.1-2.4,0.1-3.5c0-1.1-0.1-2.2-0.3-3c-0.2-0.9-0.5-1.5-0.8-2c-0.3-0.4-0.5-0.6-0.5-0.6s0.1,0,0.2,0.1
			c0.1,0.1,0.3,0.2,0.5,0.4c0.4,0.4,0.9,1,1.2,1.9c0.3,0.9,0.5,2,0.6,3.1c0.1,1.2,0.1,2.4,0.1,3.6c-0.1,1.2-0.3,2.5-0.5,3.6
			c-0.3,1.1-0.6,2.2-0.9,3c-0.3,0.9-0.7,1.5-0.9,2C209.5,225.6,209.3,225.9,209.3,225.9z"/>
	</g>
	<g>
		<path class="st10" d="M184.2,232.4L184.2,232.4c1.5-0.9,2-2.8,1.1-4.3v0c-0.9-1.5-2.8-2-4.3-1.1l0,0c-1.5,0.9-2,2.8-1.1,4.3h0
			C180.8,232.8,182.7,233.2,184.2,232.4z"/>
		<path class="st11" d="M184.2,232.4C184.1,232.2,184.2,232.3,184.2,232.4L184.2,232.4L184.2,232.4L184.2,232.4L184.2,232.4l0-0.1
			l0,0l0.1,0l0.1-0.1l0.2-0.2c0.1-0.1,0.3-0.3,0.4-0.5c0.2-0.3,0.4-0.7,0.5-1.1c0.1-0.8,0-1.6-0.5-2.2l0.4-0.3l-0.4,0.3
			c-0.4-0.6-1.1-1.1-1.8-1.2c-0.7-0.2-1.5,0-2.1,0.4l-0.4-0.7l0.4,0.7c-0.6,0.4-1,1-1.1,1.7c-0.1,0.3-0.1,0.7,0,1
			c0,0.3,0.2,0.7,0.3,1l-0.9,0.5l0.9-0.5c0.3,0.6,0.9,1.1,1.6,1.4c0.4,0.1,0.7,0.2,1.1,0.2C183.4,232.6,183.8,232.5,184.2,232.4
			L184.2,232.4z M184.2,232.4c-0.3,0.2-0.7,0.4-1.2,0.5c-0.4,0.1-0.9,0.1-1.3,0.1c-0.4-0.1-0.9-0.2-1.3-0.4c-0.4-0.2-0.7-0.6-1-1
			l0.9-0.5l-0.9,0.5c-0.2-0.4-0.4-0.9-0.5-1.3c-0.1-0.5,0-1,0.1-1.4c0.3-0.9,0.9-1.7,1.7-2.1l0.4,0.7l-0.4-0.7
			c0.8-0.5,1.8-0.6,2.6-0.3c0.9,0.2,1.6,0.8,2.1,1.6l-0.4,0.3l0.4-0.3c0.4,0.8,0.5,1.7,0.2,2.5c-0.1,0.4-0.3,0.8-0.6,1.1
			c-0.1,0.2-0.3,0.3-0.4,0.5l-0.2,0.2l-0.1,0.1L184.2,232.4L184.2,232.4L184.2,232.4L184.2,232.4L184.2,232.4L184.2,232.4
			L184.2,232.4C184.2,232.4,184.3,232.5,184.2,232.4L184.2,232.4z"/>
	</g>
	<g>
		<g>
			<path class="st12" d="M140.8,166c-7.7-13.5-11.5-28.9-11.2-44.1c0.1-6.2,1.1-12.4,3.9-17.8c3-5.7,8.1-10.1,13.6-13.8
				c24.3-15.8,57.9-15.4,82,0.8c4.6,12,9.3,24.6,8.4,37.4c-0.5,7.8-3.2,15.4-2.7,23.2c0.3,5.3,2.2,10.4,1.8,15.7
				c-0.5,6.3-4.2,12-7.8,17.4c-3,4.5-5.9,8.9-8.9,13.4c-3,4.5-6.1,9-11.1,11.3c-7.7,3.6-16.9,0.4-24.7-2.7
				c-11.6-4.6-23.6-9.6-31.5-19c-5.8-7.2-8.6-16.1-11.3-24.7"/>
			<path d="M140.7,166c-3.5-6.2-6.3-12.8-8.2-19.7c-1.9-6.9-3-14-3.1-21.1c-0.1-3.6,0-7.1,0.6-10.7c0.5-3.5,1.5-7,3.1-10.2
				c1.6-3.2,3.9-6,6.5-8.5c2.6-2.4,5.5-4.6,8.5-6.5c3-1.9,6.2-3.5,9.5-5l2.5-1c0.8-0.3,1.6-0.7,2.5-0.9l2.5-0.8
				c0.9-0.3,1.7-0.6,2.6-0.7l2.6-0.6c0.9-0.2,1.7-0.4,2.6-0.6c1.8-0.3,3.5-0.6,5.3-0.8c1.8-0.1,3.5-0.4,5.3-0.5
				c1.8,0,3.6-0.1,5.4-0.1c1.8,0.1,3.6,0.1,5.3,0.3c1.8,0.2,3.6,0.4,5.3,0.6c1.8,0.3,3.5,0.6,5.3,1c1.7,0.5,3.5,0.9,5.2,1.4
				c1.7,0.6,3.4,1.1,5.1,1.7l4.9,2.1l4.8,2.5l4.6,2.8l0.1,0.1l0,0.1c1.6,4.3,3.3,8.5,4.7,12.9c1.4,4.4,2.6,8.8,3.3,13.4
				c0.7,4.5,0.8,9.2,0.3,13.8c-0.5,4.6-1.6,9-2.2,13.5c-0.3,2.2-0.4,4.5-0.3,6.7c0.1,2.3,0.5,4.5,0.9,6.7c0.4,2.2,0.8,4.5,0.9,6.9
				c0.1,2.3-0.2,4.7-0.9,6.9c-1.4,4.5-3.9,8.4-6.4,12.2l-7.6,11.4c-2.6,3.7-4.9,7.8-8.3,11c-1.7,1.6-3.7,2.9-5.9,3.8
				c-2.2,0.9-4.6,1.3-6.9,1.2c-4.7,0-9.2-1.4-13.5-3c-4.3-1.6-8.5-3.3-12.7-5.2c-4.2-1.9-8.3-3.9-12.2-6.4c-1.9-1.3-3.8-2.6-5.5-4.1
				c-1.7-1.5-3.4-3.1-4.8-4.9c-2.9-3.6-5.1-7.7-6.8-11.9c-1.8-4.2-3.1-8.6-4.4-13l0.1,0c1.4,4.3,2.8,8.7,4.6,12.9
				c1.8,4.2,4,8.2,6.9,11.7c1.5,1.7,3.1,3.3,4.8,4.8c1.7,1.5,3.6,2.8,5.5,4c3.8,2.4,7.9,4.5,12.1,6.3c4.2,1.8,8.4,3.5,12.7,5.1
				c4.3,1.5,8.7,2.8,13.2,2.8c2.2,0,4.5-0.4,6.5-1.2c2.1-0.8,3.9-2.1,5.5-3.6c3.2-3.1,5.6-7.1,8.1-10.8l7.6-11.4
				c2.5-3.8,5-7.7,6.3-12c0.6-2.1,1-4.3,0.9-6.6c-0.1-2.2-0.5-4.5-0.9-6.7c-0.4-2.2-0.8-4.6-0.9-6.9c-0.1-2.3,0-4.6,0.3-6.9
				c0.6-4.6,1.7-9,2.2-13.5c0.6-4.5,0.5-9.1-0.2-13.5c-0.7-4.5-1.8-8.9-3.2-13.2c-1.4-4.3-3-8.6-4.6-12.9l0.1,0.2l-4.5-2.8l-4.7-2.4
				l-4.9-2.1c-1.7-0.6-3.3-1.2-5-1.7c-1.7-0.5-3.4-0.9-5.1-1.4c-1.7-0.4-3.5-0.7-5.2-1c-1.7-0.3-3.5-0.4-5.3-0.6
				c-1.8-0.2-3.5-0.2-5.3-0.3c-1.8,0-3.5,0.1-5.3,0.1c-1.8,0.1-3.5,0.3-5.3,0.4c-1.8,0.2-3.5,0.5-5.2,0.8c-0.9,0.1-1.7,0.4-2.6,0.6
				l-2.6,0.6c-0.9,0.2-1.7,0.5-2.6,0.7l-2.5,0.8c-0.9,0.2-1.7,0.6-2.5,0.9l-2.5,1c-3.3,1.4-6.4,3-9.4,4.9c-3,1.8-5.9,4-8.5,6.4
				c-2.6,2.4-4.8,5.2-6.4,8.4c-1.6,3.2-2.6,6.6-3.1,10.1c-0.6,3.5-0.7,7.1-0.6,10.6c0.1,7.1,1.2,14.2,3,21
				C134.6,153.1,137.3,159.8,140.7,166L140.7,166z"/>
		</g>
	</g>
	<path class="st5" d="M196.5,145.4c0.1,0.1,0.3,0.3,0.1,0.4c-0.1,0.1-0.4,0.3-0.5,0.3c-5.1,0.8-8.5,1.8-15.5,1.5
		c-1.5-0.1-2.8-0.3-4.2-0.5c-1.1-0.3-2-0.7-3-1.1c-2.6-1.2-4.9-2.8-6.9-4.5c-0.1-0.1-0.3-0.3-0.3-0.4c0-0.1,0.1-0.3,0.3-0.4
		c1.9-1.2,3.9-2.5,6.5-3c1.1-0.1,2.6-0.5,3.6-0.7c2.6-0.3,3.2,0.3,6.1,0.5c0.8,0.1,2,0.5,2.8,0.7c0.7,0.1,1.9,0.5,2.4,0.8
		c2.2,1.1,3.9,1.8,5.7,3.3C194.6,143.4,195.5,144.5,196.5,145.4z"/>
	<g>
		<path class="st16" d="M193.2,141.4c0,0-0.7-0.9-1.9-2c-1.2-1.1-2.8-2.4-4.7-3.4c-0.9-0.5-1.9-0.9-2.8-1.1
			c-0.9-0.1-1.9-0.3-2.7-0.4c-0.8-0.1-1.5-0.3-1.9-0.3c-0.4-0.1-0.7-0.1-0.7-0.1l0,0c0,0,1.1-0.1,2.7-0.1c0.8,0,1.9,0,2.8,0.3
			c1.1,0.3,2,0.7,3,1.2c1.9,1.1,3.5,2.6,4.6,3.8C192.6,140.5,193.2,141.4,193.2,141.4L193.2,141.4z"/>
	</g>
	<g>
		<path class="st16" d="M166.2,141c0,0.1,0,0.4,0,0.8c0,0.5,0,1.1,0.3,1.8c0.1,0.4,0.3,0.7,0.4,0.9c0.1,0.3,0.3,0.5,0.3,0.8
			c0.1,0.4,0.1,0.8,0.1,0.8l0,0c0,0-0.3-0.3-0.5-0.7c-0.1-0.3-0.3-0.5-0.4-0.8c-0.1-0.3-0.3-0.5-0.3-0.9c-0.1-0.7-0.1-1.3,0-1.9
			C166.2,141.3,166.2,141,166.2,141L166.2,141z"/>
	</g>
	<g>
		<path class="st16" d="M213.3,134.1c0.1,0.1,0,0.3,0,0.9c-0.3,0.4-0.5,0.8-0.8,1.5c-0.7,1.3-1.4,3.2-1.5,5.7
			c-0.1,2.4,0.4,5.3,1.1,8.2c0.4,1.5,0.8,3,1.4,4.5c0.5,1.5,1.2,2.8,1.9,4.3c1.5,3,3.2,5.7,5,8.1c0.8,1.2,1.9,2.4,2.3,3.9
			c0.1,0.3,0.3,0.8,0.3,1.1c0,0.4,0,0.7,0,1.1c0,0.7-0.3,1.5-0.5,2c-0.5,1.1-1.6,2-2.6,2.4c-1.1,0.4-2,0.5-2.7,0.4
			c-0.7,0-1.2-0.3-1.6-0.4c-0.4-0.1-0.5-0.3-0.5-0.3v-0.1c0,0,0.1,0,0.5,0.1c0.4,0,0.9,0.1,1.6,0.1s1.5-0.3,2.3-0.7
			c0.8-0.5,1.5-1.2,1.9-2.3c0.3-0.4,0.4-1.1,0.4-1.6c0-0.3,0-0.5,0-0.8c-0.1-0.4-0.1-0.7-0.3-0.9c-0.4-1.2-1.2-2.4-2.2-3.6
			c-1.8-2.6-3.5-5.4-4.9-8.4c-0.7-1.5-1.4-3.1-1.9-4.6c-0.5-1.5-0.9-3.1-1.2-4.6c-0.5-3-1.1-5.9-0.8-8.4c0.3-2.4,1.1-4.5,1.8-5.7
			c0.3-0.7,0.7-1.2,0.8-1.5C213.1,134.3,213.3,134.1,213.3,134.1L213.3,134.1z"/>
	</g>
	<path class="st5" d="M216.5,188.2c-5.5,0-11.1-0.4-16.6-1.5c-1-0.1-2-0.3-2.9-0.6c-2-0.7-4.1-2.4-6.3-2.5c1.7,4.1,6.1,7.2,10.3,9.5
		c0.5,0.3,1,0.6,1.5,0.7c1,0.3,2,0.1,3,0.4c0.5,0.1,0.8,0.3,1.3,0.4c0.5,0.1,1.2,0,1.7,0c1.5-0.1,2.9-0.4,4.4-0.6
		c0.2,0,0.5,0,0.7-0.1c0.7-0.4,0.3-1.3,0.3-1.9C214,190.6,216,189.6,216.5,188.2"/>
	<g>
		<path class="st16" d="M212.3,177c0-0.1,0.3-0.1,0.4-0.1c0.1-0.3,0.1-0.4,0-0.7c-0.1-0.3-0.4-0.4-0.7-0.4c-0.7-0.1-1.3,0.4-1.9,1.1
			c-0.5,0.7-1.2,1.8-2.4,2.2h-0.1l0,0l0,0l0,0h-0.1c-0.1,0-0.4,0-0.5,0c-0.4,0-0.7-0.1-0.9-0.3c-0.7-0.3-1.1-0.8-1.3-1.2
			c-0.7-0.9-0.8-2-0.7-2.8c0-0.9,0.4-1.6,0.8-1.9c0.4-0.3,0.7-0.4,0.7-0.4l0.1,0.1c0,0-0.1,0.1-0.3,0.5s-0.3,0.9-0.1,1.6
			c0,0.5,0.3,1.3,0.7,2c0.1,0.3,0.4,0.5,0.7,0.8c0.1,0.1,0.3,0.3,0.4,0.3c0.1,0,0.1,0,0.3,0h0.1l0,0l0,0c0,0,0.1,0,0,0l0,0l0,0h0.1
			c0.7-0.1,1.3-0.9,2-1.6c0.4-0.4,0.8-0.8,1.2-0.9c0.4-0.3,0.9-0.3,1.3-0.3s0.8,0.3,0.9,0.7c0.1,0.4,0,0.7-0.1,0.9
			c-0.1,0.3-0.3,0.4-0.4,0.4S212.3,177,212.3,177L212.3,177z"/>
	</g>
	<path d="M193.3,183.8c-0.7-0.3-0.8-0.5-1.5-0.8c-0.5-0.1-1.2-0.6-1.6-0.7c-0.2,0.3,0.6,2.6,0.9,2.9c0.2,0.3,0.5,0.6,0.8,0.9
		c0.3,0.3,0.5,0.7,0.8,1.2c0.3,0.4,0.7,0.7,1.2,1c-0.3-1-1.3-2.7-1.1-3.7"/>
	<g>
		<path class="st16" d="M183.8,176.5c-0.1,0.1-0.1,0.4-0.1,0.5c0,0.4-0.1,0.8-0.4,1.3c-0.3,0.4-0.5,0.9-0.8,1.2
			c0,0.1-0.1,0.3-0.3,0.4c0,0.1-0.1,0.1-0.1,0.1s0.1-1.1,0.5-2c0.3-0.4,0.5-0.9,0.8-1.2c0.3-0.4,0.5-0.5,0.5-0.5
			S183.9,176.4,183.8,176.5z"/>
	</g>
	<g>
		<path class="st1" d="M218.2,187.6c-0.2,0.1-0.3,0.3-0.7,0.6c-0.3,0.1-0.5,0.6-0.8,0.9c-0.3,0.4-0.5,0.7-0.8,1.2
			c-0.5,0.9-0.8,1.6-1.2,2.3c-0.3,0.7-0.5,1.2-0.5,1.2s0-0.4,0-1.2c0-0.7,0.3-1.8,0.8-2.6c0.7-0.9,1.5-1.6,2.2-2
			c0.7-0.4,1.2-0.6,1.2-0.6S218.2,187.4,218.2,187.6z"/>
	</g>
	<g>
		<path class="st16" d="M211.7,198.7c-0.3,0.1-0.8,0.4-1.3,0.6c-0.5,0.1-1.3,0.3-2,0.4c-0.7,0.1-1.5,0.1-2.3,0.1
			c-1.5-0.1-3.2-0.4-4.2-1c-1.2-0.6-1.7-1-1.7-1s0.2,0,0.5,0.1s0.8,0.3,1.3,0.4c0.5,0.1,1.2,0.3,1.8,0.4c0.7,0.1,1.3,0.3,2.2,0.3
			c0.7,0,1.5,0,2.2,0c0.8-0.1,1.5-0.1,2-0.3c0.5-0.1,1-0.1,1.3-0.3c0.3-0.1,0.5-0.1,0.5-0.1S211.8,198.4,211.7,198.7z"/>
	</g>
	<path class="st9" d="M191.3,131.4c-3.9-1.6-13.8-5.4-14.9-5.3c-0.5,0-0.9,0.3-1.4,0.4c-5,2.2-9.9,4.7-14.4,7.7
		c4.1-1.5,8.1-3,12.2-4.5c1.2-0.4,2.6-0.8,3.8-0.5c0.7,0.1,16.9,7,18,7.3c1.1,0.3,5.7-0.7,4.9-1.5
		C199.4,135.1,193.7,132.4,191.3,131.4z"/>
	<path class="st17" d="M185.2,138.1c0-0.4-0.3-0.5-0.5-0.4c-0.9-0.3-2-0.4-3-0.5c-1.2-0.1-2.3-0.3-3.4,0c-1.1,0.3-2.2,0.8-2.6,1.8
		c-0.3,0.5-0.3,1.3-0.3,2c0,0.9,0,1.8,0.4,2.8c0.5,1.3,0.4,1.2,1.4,2c0.4,0.4,1.2,0.7,1.6,0.8c0.4,0.3,0.8,0.3,1.2,0.3
		c2,0,4.2-0.5,5.5-2.1C187.2,142.9,187,139.7,185.2,138.1"/>
	<path class="st5" d="M212.7,145.2c-0.1,0.1-0.3,0.2-0.1,0.3c0.1,0.1,0.3,0.2,0.4,0.2c3.8,0.6,6.3,1.5,11.6,1
		c1.1-0.1,2.2-0.2,3.1-0.4c0.8-0.2,1.5-0.7,2.2-1c1.9-1,3-2.1,4.5-3.6c0.1-0.1,0.3-0.3,0.3-0.4s0.4-0.4,0.3-0.6
		c-1.5-1.1-3-2.4-4.9-2.7c-0.8-0.1-2-0.2-2.8-0.3c-1.9-0.2-2.8-0.2-5,0c-0.7,0-1.8,0.2-2.3,0.4c-0.4,0.1-0.8,0.3-1.2,0.6
		c-1.6,0.9-2.8,2.2-4.1,3.5C214,143.1,213.4,144,212.7,145.2z"/>
	<g>
		<path class="st16" d="M215,140.4c0,0,0.3-0.8,1.2-1.9c0.7-1.1,1.8-2.4,3.1-3.6c0.7-0.7,1.4-1.2,2.2-1.5c0.8-0.3,1.6-0.4,2.3-0.4
			c1.4-0.1,2.2,0,2.2,0l0,0c0,0-0.8,0.1-2.2,0.3c-0.7,0.1-1.5,0.3-2.2,0.5c-0.8,0.3-1.5,0.7-2.2,1.2c-1.4,1.1-2.4,2.4-3.2,3.5
			C215.4,139.5,215,140.4,215,140.4L215,140.4z"/>
	</g>
	<path class="st17" d="M221.7,137.4c-0.1-0.1-0.4-0.1-0.8,0c-0.7,0.3-1.5,0.7-2.2,1.1c-0.8,0.4-1.6,0.9-2.2,1.6
		c-0.5,0.7-0.8,1.5-0.5,2.2c0.1,0.4,0.5,0.9,0.9,1.2c0.5,0.6,1.1,1,1.9,1.3c1.2,0.4,1.1,0.4,2.2,0.4c0.4,0,1.2-0.2,1.5-0.3
		c0.4-0.1,0.7-0.2,0.9-0.4c1.5-1,2.4-2.4,2.4-3.8C225.8,139,223.8,137.4,221.7,137.4"/>
	<ellipse class="st5" cx="178.2" cy="139.4" rx="1.5" ry="1.5"/>
	<path class="st9" d="M219.8,129.4c3.2-1.3,11.6-4.5,12.4-4.2c0.4,0.1,0.7,0.3,1.1,0.5c3.9,2.6,4.1,1.9,3.6,4.6
		c-3.2-1.8,1.2,0.7-2-1.1c-0.9-0.5-1.9-1.1-3-0.8c-0.7,0.1-14.2,5.7-15.1,5.9s-4.6-0.9-3.9-1.8C212.9,132.7,217.7,130.4,219.8,129.4
		z"/>
	<ellipse class="st5" cx="217.9" cy="141.1" rx="1.5" ry="1.2"/>
	<g>
		<g>
			<path class="st1" d="M195.9,146.2c0.4,0.5,2.4,0.7,1.9,0c-8-10.1-21.3-12.3-32.1-5.4c-0.4,0.4,1.5,1.2,2,0.8
				C177.1,135.6,188.7,137.4,195.9,146.2L195.9,146.2z"/>
		</g>
	</g>
	<g>
		<g>
			<path class="st1" d="M212.7,144.9c-0.4,0.8,1.8,1.2,2.2,0.4c1.8-3.6,3.2-6.3,8.5-7c4.6-0.6,8.5,1,12.4,2.9c1.1,0.6,2.2-0.4,0.9-1
				c-5-2.5-9.7-4.1-15.5-3C215.8,138.4,214.6,141,212.7,144.9L212.7,144.9z"/>
		</g>
	</g>
	<g>
		<g>
			<path class="st1" d="M232.7,138.6c-0.4,0-0.5,0.1,0,0.5c0.4,0.3,0.9,0.4,1.5,0.4c0.4-0.1,0.7-0.1,1.1,0.1
				c0.3,0.1,1.1,0.4,1.5,0.3c0.4-0.3,0-0.4-0.3-0.5C235.3,138.7,233.9,138.5,232.7,138.6L232.7,138.6z"/>
		</g>
	</g>
	<g>
		<g>
			<path class="st1" d="M231.5,137.5c-0.4,0-0.8,0.1-0.5,0.5c0.1,0.4,0.9,0.5,1.4,0.5c0.7,0,1.2,0,1.8,0c0.3,0,0.8-0.1,0.5-0.5
				c-0.1-0.4-0.9-0.5-1.4-0.5C232.6,137.5,232,137.5,231.5,137.5L231.5,137.5z"/>
		</g>
	</g>
	<g>
		<g>
			<path class="st1" d="M170.3,139.4c0.4,0,0.8-0.1,0.5-0.7c-0.1-0.4-0.9-0.5-1.4-0.5c-0.7,0-1.2,0-1.8,0c-0.3,0-0.8,0.3-0.5,0.7
				c0.1,0.4,0.9,0.5,1.4,0.5C169.3,139.4,169.8,139.4,170.3,139.4L170.3,139.4z"/>
		</g>
	</g>
	<g>
		<g>
			<path class="st1" d="M166.8,141c0.3,0,1.1,0.3,1.4,0c0.3-0.4-0.3-0.7-0.5-0.8c-0.1-0.1-0.4-0.1-0.7-0.3s-1.1-0.4-1.4,0
				c-0.3,0.4,0.3,0.7,0.5,0.8C166.3,140.9,166.6,140.9,166.8,141L166.8,141z"/>
		</g>
	</g>
	<g>
		<g>
			<path class="st1" d="M165.5,141.3c0.4,0.3,0.9,0.4,1.4,0.5c0.1,0,0.9-0.1,0.5-0.4c-0.3-0.3-0.7-0.5-0.9-0.8
				c-0.3-0.4-0.8-0.5-1.4-0.5c-0.1,0-0.9,0.1-0.5,0.4C164.8,140.8,165.2,141,165.5,141.3L165.5,141.3z"/>
		</g>
	</g>
	<g>
		<g>
			<path class="st1" d="M168.2,140.2c0.1,0.1,0.8,0.1,0.8-0.1c0-0.4-0.9-0.7-1.2-0.7c0.4,0.1,0.4,0.1,0.3-0.1
				c-0.1-0.4-0.8-0.7-1.2-0.7c-0.1,0-0.9-0.1-0.8,0.3C166.4,139.7,167.2,140.1,168.2,140.2L168.2,140.2z"/>
		</g>
	</g>
	<g>
		<path class="st9" d="M149.5,182.3c-6.6-15.4-9.3-32.5-7.6-49.1c3.1,1.3,6.8,0.5,9.6-1.3c2.8-1.9,4.9-4.7,6.3-7.7
			c1.1-2,2-4.2,2.4-6.5c1.2-5.8-0.7-11.7-3.9-16.7c-3.2-5-8.2-8.6-12.6-12.7c-9.3,1.5-16.9,9-20.5,17.7c-3.6,8.6-4.1,18.3-3.6,27.8
			c0.3,7.6,1.4,15.5,5.9,21.6c1.4,1.6,2.8,3.1,4.3,4.6c6.8,6.7,13.1,14.2,18.6,22"/>
	</g>
	<g>
		<g>
			<path class="st12" d="M144.7,166.4c-6.5-1.8-12.3-6.1-15.8-11.9c-3.5-5.8-4.7-13-3.2-19.6c0.7-2.7,1.9-5.7,4.5-6.6
				c3-1.2,6.2,0.7,8.9,2.4c1.4,0.9,2.8,1.9,4.2,2.8"/>
			<path d="M144.7,166.4c0,0-0.2-0.1-0.7-0.2c-0.5-0.1-1.1-0.3-1.9-0.6c-0.8-0.3-1.8-0.7-2.9-1.2c-1.1-0.5-2.3-1.2-3.5-2.1
				c-2.4-1.7-5.1-4.2-7.1-7.4c-1-1.6-1.9-3.4-2.5-5.3c-0.7-1.9-1.1-3.9-1.4-5.9c-0.2-2-0.2-4,0-6c0.1-1,0.3-1.9,0.5-2.9
				c0.2-0.9,0.5-1.9,0.9-2.8c0.7-1.8,2-3.4,3.8-4.1c0.2-0.1,0.4-0.1,0.6-0.2c0.2-0.1,0.5-0.1,0.7-0.1c0.4-0.1,0.9-0.1,1.3,0
				c0.8,0.1,1.6,0.3,2.3,0.6c1.4,0.6,2.6,1.3,3.6,2c1,0.7,1.8,1.3,2.6,1.8c1.4,1,2.2,1.6,2.2,1.6s-0.8-0.5-2.3-1.4
				c-0.7-0.5-1.6-1.1-2.7-1.7c-1-0.6-2.2-1.3-3.6-1.7c-1.4-0.5-3-0.7-4.4,0c-1.5,0.6-2.5,2-3.2,3.7c-0.4,0.8-0.6,1.7-0.8,2.6
				c-0.2,0.9-0.3,1.8-0.4,2.8c-0.2,1.9-0.2,3.9,0.1,5.8c0.2,1.9,0.6,3.8,1.3,5.7c0.6,1.8,1.4,3.5,2.4,5.1c1.9,3.1,4.3,5.7,6.6,7.4
				c1.2,0.9,2.3,1.6,3.3,2.2c1,0.6,2,1,2.8,1.4c0.8,0.3,1.4,0.6,1.9,0.7C144.5,166.3,144.7,166.4,144.7,166.4z"/>
		</g>
	</g>
	<g>
		<g>
			<path class="st12" d="M136.9,160.3c0.8,1.5,2.3,2.4,3.8,2.6s3.4-1.3,4.2-2.8c-1.5-1.1-5-7.8-4.7-8.5c0.8-1.8,3.6-1.8,3.9-3.6
				c0.1-0.9,0.3-1.8,0.1-2.7c-0.1-0.9-0.5-1.9-0.9-2.7c-1.8-3.9-4.1-8-8-9.2c-1.1-0.4-2.4-0.4-3.4,0.4c-0.8,0.7-1.2,1.8-1.5,2.8
				c-0.5,2-1.2,4-1.8,6.1c-0.3,0.9-0.5,1.8-0.5,2.7c0,1.2,0.5,2.4,1.1,3.6c0.5,1.2,1.1,2.4,1.6,3.6c0.4,0.7,0.7,1.3,1.2,1.9
				c0.5,0.4,1.2,0.7,1.8,1.1c1.5,0.9,2.3,2.7,3,4.3"/>
			<path d="M136.9,160.3c0.4,0.7,1,1.3,1.7,1.7c0.4,0.2,0.7,0.4,1.1,0.5c0.2,0.1,0.4,0.1,0.6,0.1c0.2,0,0.4,0,0.6,0
				c0.8-0.1,1.5-0.5,2.1-1c0.6-0.5,1.2-1.1,1.5-1.8l0.1,0.4c-0.5-0.4-0.9-0.9-1.2-1.4c-0.4-0.5-0.7-1-1-1.5c-0.6-1-1.2-2.1-1.8-3.1
				c-0.3-0.5-0.5-1.1-0.8-1.7c-0.1-0.2-0.1-0.3-0.2-0.5l-0.1-0.3c0-0.1,0-0.3,0-0.4c0.1-0.2,0.1-0.3,0.3-0.5
				c0.1-0.2,0.2-0.3,0.4-0.4c1-1,2.3-1.2,2.9-2c0.1-0.2,0.3-0.4,0.3-0.6c0.1-0.2,0.1-0.6,0.1-0.8c0.1-0.6,0.1-1.1,0-1.7
				c-0.1-1.1-0.6-2.1-1.2-3.2c-1-2.1-2.1-4.2-3.7-5.9c-0.8-0.8-1.6-1.6-2.6-2.1c-0.3-0.1-0.5-0.2-0.8-0.3c-0.2-0.1-0.6-0.2-0.8-0.3
				c-0.5-0.1-1-0.2-1.5,0c-1,0.2-1.7,1.1-2,2.2l-1,3.4l-1,3.4c-0.4,1.2-0.7,2.2-0.6,3.3c0.1,1.1,0.7,2.2,1.1,3.3l1.4,3.3l0,0
				c0.4,0.7,0.6,1.4,1.1,1.9l0,0c0.5,0.4,1.2,0.7,1.7,1.1l0,0c0.8,0.5,1.3,1.2,1.8,2c0.4,0.8,0.8,1.6,1.1,2.4
				c-0.4-0.8-0.8-1.6-1.2-2.3c-0.5-0.7-1.1-1.4-1.8-1.8l0,0l0,0c-0.5-0.4-1.2-0.6-1.8-1l0,0l0,0c-0.6-0.6-0.9-1.3-1.3-1.9l0,0l0,0
				l-1.5-3.2c-0.5-1.1-1.1-2.2-1.3-3.4c-0.2-1.3,0.2-2.6,0.5-3.7l1-3.4l1-3.5c0.2-0.6,0.5-1.2,0.9-1.7c0.4-0.5,1.1-0.9,1.7-1.1
				c0.7-0.2,1.4-0.1,2,0c0.4,0.1,0.6,0.2,0.9,0.3c0.3,0.1,0.6,0.2,0.9,0.4c1.1,0.6,2.1,1.4,3,2.3c1.7,1.8,2.8,4,3.8,6.2
				c0.5,1,1.1,2.2,1.2,3.5c0.1,0.6,0,1.3-0.1,1.9c-0.1,0.3-0.1,0.6-0.2,0.9c-0.1,0.4-0.3,0.7-0.5,1c-0.5,0.5-1.1,0.8-1.6,1.1
				c-0.5,0.3-1,0.5-1.4,0.9c-0.1,0.1-0.2,0.2-0.2,0.3c-0.1,0-0.2,0.3-0.2,0.3c0,0,0,0,0,0l0,0.2c0,0.1,0.1,0.3,0.1,0.4
				c0.2,0.5,0.4,1.1,0.7,1.6c0.5,1.1,1,2.1,1.6,3.1c0.3,0.5,0.6,1,0.9,1.5c0.3,0.5,0.7,1,1.1,1.3l0.2,0.2l-0.1,0.2
				c-0.4,0.8-1.1,1.4-1.8,1.9c-0.7,0.5-1.5,0.9-2.4,0.9c-0.2,0-0.4,0-0.6-0.1c-0.2,0-0.4-0.1-0.6-0.2c-0.4-0.1-0.8-0.3-1.1-0.6
				C137.8,161.7,137.2,161.1,136.9,160.3z"/>
		</g>
	</g>
	<g>
		<path class="st9" d="M158.9,108.5c-2.3-1.6-4.6-3.1-6.9-4.7c-3.4-2.3-7.2-5-8.4-9c-1.2-3.6,0-7.8,2.2-10.9
			c2.2-3.1,5.3-5.5,8.4-7.8c4.7-3.5,9.6-6.9,15.3-8.2c3.8-0.8,7.7-0.8,11.5-0.7c8.5,0.3,17,0.8,25.2,3c8.2,2.2,16.2,6.2,21.7,12.7
			c6.1,6.9,9,16.1,9,25.2c0,2-0.1,4.2,0.1,6.2c0.5,3.6,2,6.3,1.3,10.7c-1.9-0.9-10,1.3-18.5-2.8c-1.1-0.5-2.4-0.4-3.5,0.3
			c-4.9,3.5-6.4,0.6-13.6,2.8c-16.3,0.7-33.3-4.1-43.2-17.1L158.9,108.5z"/>
	</g>
	<g>
		<g>
			<path d="M226.8,141.1c0.3-0.4-1.9-1-2.2-0.4c-0.8,1.9-2.3,3.7-5,3.8c-1.5,0.1,0.1,0.9,0.8,0.9c1.4,0,2.7-0.3,3.8-1
				C225.6,143.6,226.2,142.4,226.8,141.1L226.8,141.1z"/>
		</g>
	</g>
	<g>
		<g>
			<path d="M187.8,142.9c0.1-0.4-1.9-1.2-2.2-0.5c-0.9,1.7-2.8,3-4.9,3.2c-1.5,0.1,0.1,1.1,0.8,1.1
				C184.3,146.4,186.5,145.3,187.8,142.9L187.8,142.9z"/>
		</g>
	</g>
	<g>
		<path d="M214.4,191.1c0.2,0.1,0,0.1,0,0.3c0,0-0.3,0.1-0.5,0.3c-0.2,0.1-0.5,0.3-0.8,0.3c-0.3,0-0.7,0-1,0c-0.7,0-1.3,0-1.8-0.1
			c-0.5,0-0.8-0.1-0.8-0.1v-0.1c0,0,0.3,0,0.8,0c0.3-0.1,1-0.1,1.7-0.3c0.2,0,0.5-0.1,0.8-0.1c0.3,0,0.7,0,0.8,0c0.2,0,0.3,0,0.5,0
			C214.2,191.1,214.4,191.1,214.4,191.1L214.4,191.1z"/>
	</g>
	<g>
		<path class="st15" d="M206,116.9c-0.9-0.4-1.9-0.8-2.4-1.1c-0.8-0.4-1.8-0.9-2.7-1.5c-1.8-1.1-3.5-2.2-5.3-3.4
			c-0.9-0.7-1.8-1.2-2.6-1.9c-0.8-0.7-1.6-1.3-2.4-2c-1.6-1.3-3.1-2.8-4.6-4.3c-0.8-0.7-1.5-1.5-2.2-2.3c-0.7-0.8-1.4-1.6-2-2.4
			c-1.4-1.6-2.6-3.4-3.6-5.1c-0.5-0.8-1.2-1.8-1.6-2.7c-0.4-0.9-0.7-2-0.8-3.1c-0.1-2.2,0-4.3,0.3-6.3l0.1-1.3l0.4,1.3l0.7,2.2
			c0.1,0.8,0.5,1.5,0.8,2.2c0.7,1.3,1.4,2.8,2.2,4c0.3,0.7,0.8,1.2,1.2,1.9c0.4,0.5,0.8,1.2,1.4,1.8c0.9,1.2,1.9,2.3,3,3.4
			c1.1,1.1,2.3,2,3.4,3.1c1.1,0.9,2.3,1.9,3.5,2.8c1.2,0.9,2.4,1.9,3.6,2.7c1.2,0.8,2.4,1.6,3.8,2.4c1.2,0.8,2.6,1.5,3.9,2.3
			l4.1,2.3c2.7,1.5,5.4,2.8,8.2,4c2.8,1.2,5.7,2.3,8.6,3c1.5,0.4,3,0.7,4.5,0.9c1.5,0.3,3.1,0.3,4.6,0.4v0.1c-1.5,0-3.1-0.1-4.6-0.3
			c-1.6-0.3-3.1-0.4-4.6-0.8c-3-0.7-5.9-1.8-8.8-2.8c-2.8-1.2-5.7-2.6-8.4-3.9c-2.7-1.5-5.4-3-8-4.6c-1.4-0.8-2.7-1.6-3.9-2.6
			c-1.4-0.8-2.6-1.8-3.8-2.7c-1.2-0.9-2.3-2-3.5-3c-1.2-1.1-2.3-2.2-3.4-3.2c-0.9-1.1-2-2.3-3-3.5c-0.4-0.7-0.9-1.2-1.4-1.9
			c-0.4-0.5-0.8-1.2-1.2-1.9c-0.8-1.2-1.5-2.7-2.2-4c-0.3-0.7-0.5-1.5-0.8-2.2l-0.7-2.2h0.5c-0.3,2-0.5,4.2-0.3,6.2
			c0,1.1,0.3,2,0.7,3c0.4,0.9,0.9,1.8,1.5,2.7c1.1,1.8,2.3,3.5,3.5,5.1c0.7,0.8,1.4,1.6,2,2.4c0.5,0.8,1.4,1.5,2,2.3
			c1.4,1.5,2.8,3,4.5,4.3c0.8,0.7,1.6,1.3,2.4,2c0.8,0.7,1.6,1.2,2.4,1.9c1.8,1.2,3.5,2.3,5.3,3.4c0.8,0.5,1.8,0.9,2.7,1.5
			C204.1,115.9,205,116.5,206,116.9L206,116.9z"/>
	</g>
	<g>
		<path class="st15" d="M191,124.7c0,0.1-0.1,0-0.7-0.3c-0.3-0.1-0.8-0.4-1.5-0.7c-1.2-0.7-3-1.8-4.7-3.5c-0.9-0.9-1.8-1.9-2.7-3
			c-0.4-0.5-0.9-1.2-1.4-1.8c-0.5-0.7-0.9-1.2-1.4-1.9c-1.6-2.7-3.2-5.5-4.5-8.6c-0.7-1.5-1.2-3.1-1.8-4.6c-0.5-1.5-0.9-3.1-1.4-4.6
			c-0.4-1.5-0.7-3-0.9-4.3c-0.3-1.3-0.5-2.7-0.7-3.9c-0.1-1.2-0.3-2.4-0.4-3.4c-0.1-0.9-0.3-1.9-0.3-2.6c-0.1-1.5-0.1-2.3-0.1-2.3
			h0.1c0,0,0.1,0.8,0.4,2.3c0.3,1.3,0.7,3.4,1.1,5.8c0.3,1.2,0.5,2.6,0.8,3.9c0.3,1.3,0.5,2.8,0.9,4.3c0.3,1.5,0.8,3.1,1.2,4.6
			c0.5,1.5,1.1,3.1,1.6,4.6c1.2,3,2.7,5.9,4.3,8.5c0.4,0.7,0.8,1.2,1.2,1.9c0.5,0.5,0.9,1.2,1.4,1.8c0.8,1.1,1.8,2.2,2.6,3
			c1.6,1.8,3.4,3,4.6,3.6c0.7,0.4,1.1,0.7,1.5,0.8C190.9,124.6,191,124.7,191,124.7L191,124.7z"/>
	</g>
	<g>
		<path class="st15" d="M192.5,116.9c0,0.1-0.1,0.1-0.4-0.1c-0.3,0-0.7,0-1.2-0.1c-0.9-0.3-2.4-0.8-3.9-1.9c-1.5-1.1-3-2.6-4.5-4.3
			c-1.5-1.8-3.1-3.6-4.5-5.7c-1.4-2-2.6-4.3-3.2-6.5s-1.1-4.3-1.4-6.1c-0.1-1.8-0.4-3.2-0.4-4.3c-0.1-1.1-0.1-1.6-0.1-1.6h0.1
			c0,0,0.4,2.4,1.1,5.9c0.3,1.8,0.8,3.8,1.5,5.9s1.6,4.3,3,6.3c1.2,2,2.8,3.9,4.2,5.7c1.5,1.8,2.8,3.4,4.3,4.5
			c1.4,1.1,2.8,1.8,3.8,2c0.5,0.1,0.9,0.3,1.2,0.3S192.5,116.9,192.5,116.9L192.5,116.9z"/>
	</g>
	<g>
		<path class="st15" d="M175.2,117.5c0,0-1.9-2-5-5c-0.7-0.7-1.5-1.5-2.2-2.4c-0.7-0.8-1.4-1.9-1.9-3.1c-1.1-2.3-1.8-5-2.4-7.6
			c-0.7-2.6-1.4-5.1-1.8-7.7c-0.1-1.2-0.3-2.4-0.4-3.6c-0.1-1.1-0.1-2.2-0.1-3.2s0.1-2,0.3-2.8c0.1-0.8,0.3-1.6,0.4-2.2
			c0.1-0.5,0.3-1.1,0.4-1.3c0.1-0.3,0.1-0.4,0.1-0.4h0.1c0,0-0.1,0.3-0.1,0.5c0,0.3-0.1,0.8-0.1,1.3c-0.1,1.2-0.3,2.8-0.3,4.9
			c0.1,1.1,0.1,2.2,0.3,3.2c0.1,1.1,0.3,2.3,0.5,3.5c0.4,2.4,0.9,5.1,1.6,7.7c0.7,2.6,1.2,5.3,2.2,7.6c0.9,2.3,2.6,4,3.9,5.5
			C173.4,115.5,175.2,117.5,175.2,117.5L175.2,117.5z"/>
	</g>
	<g>
		<path class="st15" d="M226.6,105.4c-2-0.5-3.9-1.8-5.5-2.8c-1.8-1.1-3.5-2.2-5.3-3.4c-1.8-1.2-3.4-2.6-4.9-4l-4.5-4.5
			c-1.5-1.5-3.1-2.8-4.9-3.9c-0.9-0.5-1.9-0.9-2.8-1.3c-0.9-0.4-2-0.7-3-1.1c-3.9-1.3-8.1-2.3-12-3.8l0.4-0.5
			c2.8,4,6.2,7.7,9.9,10.9c1.8,1.6,3.6,3.1,5.7,4.6l6.1,4.2l6.2,4c2,1.3,4.2,2.7,6.2,4c4.1,2.6,8.5,5,13.4,5.9v0.1
			c-2.4-0.3-4.9-1.1-7.2-2c-2.3-1.1-4.5-2.2-6.6-3.5c-2.2-1.2-4.3-2.6-6.3-3.9c-2-1.3-4.2-2.7-6.2-4l-6.1-4.2c-2-1.5-3.9-3-5.8-4.7
			c-3.6-3.2-6.9-7-9.9-11.1l-0.7-0.9l1.1,0.4c3.9,1.6,8,2.6,12,3.9c1.1,0.4,2,0.8,3,1.2c0.9,0.4,1.9,0.9,2.8,1.5
			c1.8,1.1,3.4,2.6,4.9,4l4.5,4.5c1.5,1.5,3,2.8,4.7,4c1.6,1.2,3.5,2.3,5.3,3.4C222.9,103.5,224.6,104.7,226.6,105.4L226.6,105.4z"
			/>
	</g>
	<g>
		<path class="st15" d="M227.9,96.9c-0.1,0.1-0.9-0.5-2.4-1.8c-1.4-1.1-3.2-2.7-5.4-4.7c-1.1-0.9-2.3-2-3.6-3.1
			c-1.2-1.1-2.7-2.2-4.2-3.2c-0.7-0.5-1.5-0.9-2.3-1.5c-0.7-0.5-1.6-0.9-2.4-1.5c-0.8-0.5-1.8-0.9-2.6-1.3c-0.9-0.4-1.8-0.8-2.7-1.2
			c-0.8-0.4-1.8-0.8-2.7-1.1c-0.9-0.3-1.9-0.5-2.8-0.8c-0.9-0.3-1.9-0.4-2.8-0.7c-0.9-0.1-1.8-0.4-2.7-0.5c-0.9-0.1-1.9-0.3-2.7-0.4
			c-0.8-0.1-1.8-0.1-2.6-0.3c-1.6,0-3.2-0.1-4.7-0.1c-1.5,0-2.8,0.1-4.1,0.1c-1.2,0.1-2.3,0.1-3.1,0.3c-1.8,0.3-2.7,0.4-2.7,0.4
			v-0.1c0,0,0.9-0.1,2.7-0.5c0.8-0.3,1.9-0.4,3.1-0.5c1.2,0,2.6-0.3,4.1-0.3c1.5-0.1,3.1-0.1,4.9,0c0.8,0.1,1.6,0.1,2.6,0.3
			c0.8,0.1,1.8,0.3,2.7,0.4c0.9,0.1,1.9,0.4,2.8,0.5c0.9,0.3,1.9,0.5,2.8,0.8c0.9,0.3,1.9,0.7,2.8,0.9c0.9,0.4,1.9,0.7,2.8,1.1
			s1.8,0.8,2.7,1.2c0.8,0.4,1.8,0.8,2.6,1.3c0.9,0.5,1.8,0.9,2.6,1.5c0.7,0.5,1.5,1.1,2.3,1.6c1.5,1.1,3,2.3,4.2,3.4
			c1.2,1.1,2.4,2.3,3.5,3.2c2.2,2,3.9,3.8,5.3,4.9C227.1,96.4,227.9,96.9,227.9,96.9L227.9,96.9z"/>
	</g>
	<g>
		<path class="st15" d="M152.5,100.1c-0.1,0-0.1-0.1,0-0.4c0-0.4-0.1-0.8-0.1-1.3c-0.1-1.1,0.1-2.6,0.5-3.9c0.1-0.7,0.4-1.3,0.8-1.9
			c0.1-0.3,0.3-0.5,0.5-0.8c0.3-0.3,0.4-0.5,0.7-0.7c0.8-0.7,1.5-0.9,1.5-0.9l0,0c0,0-0.1,0.1-0.3,0.4c-0.3,0.1-0.5,0.5-0.8,0.9
			c-0.3,0.4-0.5,0.9-0.9,1.5c-0.3,0.5-0.7,1.1-0.9,1.8c-0.5,1.2-0.9,2.6-0.9,3.6c0,0.5,0,0.9,0,1.2
			C152.5,100,152.5,100.1,152.5,100.1L152.5,100.1z"/>
	</g>
	<g>
		<path class="st15" d="M142.7,99.3c0,0.1-0.1,0.4-0.7,0.9c-0.5,0.5-1.4,1.2-2.3,2.2c-0.4,0.5-0.8,1.1-1.4,1.6
			c-0.4,0.5-0.9,1.2-1.4,1.9c-0.5,0.7-0.9,1.5-1.4,2.2c-0.4,0.7-0.8,1.5-1.1,2.3c-0.3,0.8-0.5,1.6-0.8,2.4c-0.3,0.8-0.5,1.6-0.7,2.4
			c-0.1,0.8-0.3,1.6-0.4,2.3c-0.1,0.7-0.3,1.3-0.3,2s-0.1,1.2-0.1,1.8c0,0.5,0,0.9,0,1.3c0,0.8,0,1.2,0,1.2h-0.1
			c0,0-0.1-0.4-0.3-1.2c0-0.4-0.1-0.8-0.1-1.3c-0.1-0.5-0.1-1.1-0.1-1.8s0-1.3,0.1-2.2c0.1-0.8,0.3-1.6,0.4-2.4
			c0.1-0.8,0.4-1.6,0.7-2.4c0.3-0.8,0.5-1.6,0.9-2.4c0.4-0.8,0.8-1.5,1.2-2.3c0.5-0.8,0.9-1.5,1.5-2.2c0.4-0.7,0.9-1.3,1.5-1.9
			c0.5-0.5,0.9-1.1,1.5-1.5c0.9-0.9,1.9-1.6,2.4-2.2C142.4,99.7,142.7,99.3,142.7,99.3L142.7,99.3z"/>
	</g>
	<g>
		<path class="st15" d="M146,104.1c0.1,0.1-0.3,0.4-0.8,0.7c-0.5,0.5-1.1,1.3-1.8,2.3c-1.4,1.9-2.4,4.9-2.8,8
			c-0.1,1.6-0.3,3.1-0.3,4.6c0,1.5,0,2.8,0,4s0,2.2,0,2.8s0,1.1,0,1.1h-0.1c0,0-0.3-1.6-0.5-3.9c0-1.2-0.1-2.6-0.1-4
			c0.1-1.5,0.3-3.1,0.5-4.6c0.5-3.2,1.9-6.2,3.2-8.1c0.7-0.9,1.4-1.6,1.9-2.2C145.8,104.3,146,104.1,146,104.1L146,104.1z"/>
	</g>
	<g>
		<path class="st15" d="M149.1,111.5c0-0.1,0.1,0.1,0.3,0.8c0,0.1,0.1,0.5,0.1,0.8c0,0.3,0,0.7,0,1.1c0,0.8-0.1,1.8-0.3,2.7
			c-0.3,1.1-0.5,2-0.8,3.1c-0.3,0.9-0.5,2-0.8,3c-0.3,0.9-0.5,1.8-0.7,2.6c-0.1,0.8-0.3,1.5-0.3,1.9c0,0.4,0,0.7,0,0.7h-0.1
			c0,0,0-0.3-0.1-0.7c-0.1-0.1-0.1-0.5-0.1-0.8c0-0.3,0-0.7,0-1.1c0-0.4,0.1-0.9,0.1-1.3c0-0.5,0.1-0.9,0.3-1.5c0.4-0.9,0.7-2,1.1-3
			c0.8-2,1.4-4,1.5-5.7c0-0.4,0-0.8,0-1.1c0-0.3,0-0.5,0-0.8C149.1,111.7,149.1,111.5,149.1,111.5L149.1,111.5z"/>
	</g>
	<g>
		<path class="st15" d="M154.8,110.9c0,0,0.3,1.2,0.4,2.8c0.3,1.8,0.4,4,0.3,6.5c0,0.5,0,1.2-0.1,1.8c-0.1,0.7-0.3,1.2-0.4,1.8
			c-0.1,0.5-0.3,1.1-0.5,1.5c-0.3,0.5-0.4,0.9-0.7,1.3c-0.1,0.4-0.4,0.7-0.7,0.9c-0.3,0.3-0.4,0.5-0.7,0.7c-0.3,0.4-0.5,0.5-0.5,0.5
			l0,0c0,0,0.1-0.3,0.4-0.7c0.1-0.3,0.3-0.5,0.4-0.8c0.1-0.3,0.4-0.7,0.5-1.1c0.3-0.3,0.4-0.8,0.5-1.2c0.1-0.5,0.3-0.9,0.4-1.5
			c0.3-0.9,0.5-2.2,0.7-3.2c0.3-2.3,0.3-4.6,0.1-6.3C155,112.2,154.8,110.9,154.8,110.9L154.8,110.9z"/>
	</g>
	<g>
		<path class="st18" d="M190.5,184.3c0.2,1,0.6,2,1.2,2.9c1.2,1.8,2.5,3.6,3.9,5.4c1.5,1.9,3,3.9,5.3,5c0.9,0.4,1.9,0.7,2.9,1
			c1.7,0.4,3.4,0.6,5.1,0.4c1.7-0.2,2.4-0.7,3.6-1.7c0.7-0.6,1.4-1.4,1.7-2.1c0.3-0.8,0.6-1.1,0.1-1.7c-0.8,0.3-2.4,0.8-3.2,0.9
			c-2,0.3-1.5,0.2-3.6,0.2c-0.3,0-4.9-0.6-9.1-3.3c-1.2-0.8-2.4-1.7-3.3-2.7c-0.4-0.5-1.5-1.3-1.9-1.8
			C192.4,185.8,191.7,184.9,190.5,184.3"/>
		<path class="st19" d="M190.5,184.3c0.1,0.7,0.4,1.4,0.7,2c0.3,0.6,0.7,1.2,1.1,1.8c0.8,1.2,1.6,2.3,2.5,3.4
			c0.9,1.1,1.7,2.3,2.7,3.3c0.9,1,2,2,3.3,2.6c1.3,0.6,2.6,1,4,1.2c1.4,0.2,2.8,0.3,4.2,0.2c0.7-0.1,1.4-0.2,2-0.6
			c0.6-0.3,1.1-0.8,1.7-1.3c0.5-0.5,1-1,1.3-1.6c0.3-0.6,0.8-1.3,0.2-1.8l0.2,0c-1.1,0.4-2.2,0.7-3.3,1c-0.6,0.1-1.1,0.2-1.7,0.2
			c-0.6,0-1.1,0-1.7,0c-0.6,0-1.1-0.2-1.7-0.3c-0.6-0.1-1.1-0.3-1.7-0.4c-1.1-0.3-2.2-0.7-3.2-1.2c-2.1-1-4-2.2-5.6-3.8
			c-0.4-0.4-0.8-0.8-1.2-1.2c-0.4-0.4-0.8-0.8-1.2-1.2C192.3,185.7,191.5,184.9,190.5,184.3L190.5,184.3c1,0.5,1.8,1.4,2.6,2.2
			c0.4,0.4,0.8,0.8,1.2,1.2c0.4,0.4,0.8,0.8,1.2,1.2c1.6,1.6,3.6,2.8,5.6,3.7c1,0.5,2.1,0.8,3.2,1.2c0.5,0.2,1.1,0.3,1.6,0.4
			c0.5,0.1,1.1,0.2,1.7,0.3c0.6,0,1.1,0,1.7,0c0.5,0,1.1-0.1,1.7-0.2c1.1-0.2,2.2-0.5,3.3-0.9l0.1,0l0.1,0.1
			c0.1,0.1,0.2,0.3,0.3,0.5c0.1,0.2,0,0.4,0,0.6c-0.1,0.4-0.3,0.7-0.5,1c-0.4,0.6-0.9,1.2-1.4,1.6c-0.5,0.5-1.1,0.9-1.7,1.3
			c-0.6,0.4-1.4,0.5-2.1,0.6c-1.4,0.2-2.9,0-4.3-0.2c-1.4-0.3-2.8-0.6-4.1-1.3c-1.3-0.7-2.4-1.6-3.3-2.7c-1-1.1-1.8-2.2-2.6-3.3
			c-0.9-1.1-1.7-2.3-2.5-3.5c-0.4-0.6-0.8-1.2-1.1-1.8C190.8,185.7,190.6,185,190.5,184.3L190.5,184.3z"/>
	</g>
	<path class="st20" d="M216.7,188.4c0.8-0.2,1.5-0.6,2.2-1.1c0.2-0.1,0.3-0.3,0.4-0.5c0.2-0.4-0.1-0.9-0.5-1.1
		c-1.4-1-3.3-0.7-5.1-0.7c-3,0-7.5-1.3-10.9-1.3c-1.5,0-10.9-1-12.4-1.5c5.1,3.9,12,5.6,18.7,6.5c2.6,0.4,5.5,0.6,7.8-0.5"/>
	<g>
		<path class="st15" d="M128.7,100.2c0,0-0.2,0.4-0.6,1.1c-0.2,0.4-0.5,0.8-0.8,1.3c-0.3,0.5-0.6,1.1-1,1.8
			c-0.4,0.7-0.7,1.4-1.1,2.3c-0.4,0.8-0.8,1.7-1.2,2.7c-0.8,1.9-1.6,4.2-2.3,6.7c-0.7,2.5-1.3,5.3-1.7,8.2c-0.4,2.9-0.6,6.1-0.6,9.3
			c0,3.2,0.3,6.6,1,9.9c0.6,3.4,1.6,6.7,2.5,10c0.9,3.3,1.9,6.7,2.5,10.1c0.6,3.4,1,6.8,0.7,10.1c-0.2,3.3-1,6.4-2,9.3
			c-1,2.8-2.3,5.4-3.6,7.7c-1.3,2.3-2.6,4.3-3.8,6c-1.2,1.7-2.3,3.2-3.2,4.5c-1.8,2.4-2.9,3.8-2.9,3.8s1-1.4,2.7-3.9
			c1.7-2.5,4.2-6.1,6.7-10.7c1.2-2.3,2.4-4.8,3.4-7.6c0.9-2.8,1.6-5.8,1.8-9.1c0.2-3.2-0.1-6.5-0.8-9.9c-0.7-3.3-1.6-6.7-2.6-10
			c-0.9-3.3-1.9-6.7-2.5-10.1c-0.6-3.4-0.9-6.8-0.9-10.1c0-3.3,0.3-6.5,0.7-9.4c0.5-3,1.2-5.7,1.9-8.2c0.8-2.5,1.6-4.8,2.5-6.7
			c0.4-1,0.9-1.9,1.3-2.7c0.4-0.8,0.8-1.6,1.2-2.2c0.4-0.7,0.7-1.3,1-1.8c0.3-0.5,0.6-0.9,0.8-1.3
			C128.5,100.5,128.7,100.2,128.7,100.2z"/>
	</g>
	<g>
		<path class="st15" d="M114.1,123.1c0,0,0.1,0.3,0.2,0.9c0.1,0.6,0.3,1.5,0.4,2.6c0.2,2.2,0.3,5.5-0.6,9.3
			c-0.5,1.9-1.2,3.9-2.3,5.9c-1.1,2-2.5,3.9-3.9,5.8c-0.7,1-1.4,1.9-2.1,3c-0.3,0.5-0.6,1-0.9,1.6l-0.4,0.8l-0.4,0.8
			c-1,2.3-1.7,4.7-2.1,7.2c-0.9,5-0.9,10.2-1,15c-0.1,4.8-0.3,9.4-1,13.2c-0.4,1.9-0.8,3.6-1.4,5.1c-0.6,1.5-1.2,2.7-1.7,3.7
			c-0.6,1-1.1,1.7-1.5,2.2c-0.4,0.5-0.6,0.7-0.6,0.7s0.2-0.3,0.5-0.8c0.3-0.5,0.8-1.3,1.3-2.2c0.5-1,1.1-2.2,1.5-3.7
			c0.5-1.5,0.9-3.2,1.2-5.1c0.6-3.8,0.7-8.3,0.7-13.1c0-4.8,0-10,0.9-15.2c0.5-2.6,1.2-5.1,2.3-7.5c0.3-0.6,0.6-1.2,0.9-1.7
			c0.3-0.5,0.6-1.1,1-1.6c0.7-1.1,1.4-2,2.2-3c1.5-1.9,2.9-3.7,4-5.6c1.1-1.9,1.8-3.8,2.4-5.7c1.1-3.7,1.2-6.9,1-9.2
			c-0.1-1.1-0.2-2-0.3-2.6C114.1,123.5,114.1,123.1,114.1,123.1z"/>
	</g>
	<g>
		<path class="st15" d="M114.9,164.6c0,0,0.1,0.9,0.3,2.6c0.2,1.6,0.5,4,0.4,6.9c-0.1,2.8-0.4,6.3-2,9.6c-0.8,1.6-1.8,3.2-2.7,4.8
			c-1,1.6-1.9,3.2-2.8,4.9c-0.9,1.7-1.7,3.4-2.4,5.1c-0.7,1.7-1.3,3.4-1.8,5.1c-0.5,1.7-1,3.3-1.3,4.9c-0.4,1.6-0.7,3.1-0.9,4.5
			c-0.1,0.7-0.2,1.4-0.3,2c-0.1,0.6-0.2,1.2-0.2,1.8c-0.1,1.1-0.2,2.1-0.2,3c-0.1,1.7-0.1,2.6-0.1,2.6s0-0.2,0-0.7
			c0-0.4-0.1-1.1-0.1-1.9c0-0.8,0-1.8,0-3c0-1.2,0.1-2.5,0.3-3.9c0.2-1.4,0.4-3,0.7-4.6c0.3-1.6,0.7-3.3,1.2-5c1-3.4,2.4-7,4.1-10.4
			c0.9-1.7,1.9-3.3,2.9-4.9c1-1.6,2-3.1,2.7-4.7c1.5-3.1,2.1-6.4,2.2-9.2c0.2-2.8,0.1-5.2,0-6.8
			C114.9,165.5,114.9,164.6,114.9,164.6z"/>
	</g>
	<g>
		<path class="st15" d="M137.9,170c0,0,0.1,0.6,0.4,1.6c0.1,0.5,0.2,1.1,0.4,1.8c0.1,0.4,0.1,0.7,0.2,1.1c0.1,0.4,0.1,0.8,0.1,1.3
			c0.1,0.9,0.1,1.9,0.2,2.9c0.1,1,0,2.1,0,3.2c-0.1,1.1-0.2,2.3-0.4,3.4c-0.2,1.2-0.4,2.3-0.7,3.5c-0.3,1.2-0.6,2.3-1,3.4
			c-0.3,1.1-0.8,2.2-1.2,3.2c-0.5,1-0.9,2-1.4,2.9c-0.5,0.9-1,1.7-1.5,2.5c-0.2,0.4-0.5,0.7-0.7,1.1c-0.2,0.3-0.5,0.6-0.7,0.9
			c-0.4,0.6-0.8,1.1-1.2,1.5c-0.7,0.8-1.1,1.2-1.1,1.2s0.3-0.5,0.9-1.4c0.3-0.4,0.6-1,1-1.6c0.4-0.6,0.8-1.3,1.2-2.1
			c0.4-0.8,0.9-1.6,1.3-2.5c0.5-0.9,0.8-1.9,1.3-2.9c0.4-1,0.8-2.1,1.1-3.2c0.4-1.1,0.6-2.2,1-3.4c0.2-1.1,0.5-2.3,0.7-3.4
			c0.2-1.1,0.3-2.3,0.5-3.4c0.1-1.1,0.2-2.2,0.2-3.2c0-1,0.1-2,0-2.8c0-0.9-0.1-1.7-0.1-2.4c0-0.7-0.1-1.3-0.2-1.9
			C138,170.6,137.9,170,137.9,170z"/>
	</g>
	<path class="st21" d="M106,470.8"/>
	<path class="st21" d="M101.4,485.9"/>
</g>
</svg>
