<?xml version="1.0" encoding="utf-8"?>
<!-- Generator: Adobe Illustrator 19.0.1, SVG Export Plug-In . SVG Version: 6.00 Build 0)  -->
<svg version="1.1" id="Layer_1" xmlns="http://www.w3.org/2000/svg" xmlns:xlink="http://www.w3.org/1999/xlink" x="0px" y="0px"
	 viewBox="0 0 360 504" style="enable-background:new 0 0 360 504;" xml:space="preserve">
<style type="text/css">
	.st0{fill:#082E51;stroke:#031735;stroke-width:1.3035;stroke-miterlimit:10;}
	.st1{fill:#D6AA7F;}
	.st2{fill:#231F20;}
	.st3{fill:#191919;stroke:#231F20;stroke-width:1.3035;stroke-miterlimit:10;}
	.st4{fill:#332E2F;}
	.st5{fill:none;stroke:#231F20;stroke-width:1.3035;stroke-miterlimit:10;}
	.st6{fill:#603C15;}
	.st7{fill:#352204;}
	.st8{fill:#082E51;}
	.st9{fill:#031735;}
	.st10{fill:#993FBA;stroke:#231F20;stroke-width:1.3035;stroke-miterlimit:10;}
	.st11{fill:#772D96;}
	.st12{fill:#474747;}
	.st13{fill:#545454;}
	.st14{fill:#474747;stroke:#231F20;stroke-width:1.3035;stroke-miterlimit:10;}
	.st15{fill:#4A0354;}
	.st16{fill:#1C1C1C;}
	.st17{fill:#262626;}
	.st18{fill:#494949;}
	.st19{fill:#191919;}
	.st20{fill:#FFFFFF;}
	.st21{fill:#B78355;}
	.st22{fill:#82BEF4;}
	.st23{fill:#230E00;}
	.st24{fill:#421B00;}
	.st25{fill:#F2F2F2;}
</style>
<path class="st0" d="M151.7,363.6c6.3,0.2,12.8,0.1,18.8-2c6-2.1,11.5-6.5,13.5-12.5c2.3-6.6-0.3-14.6-6.1-18.7
	c-3.8-2.7-8.7-3.6-13.3-3.9c-5.8-0.3-11.9,0.3-17.1,3c-5.2,2.7-9.3,7.8-9.7,13.7c-0.3,4.1,1.2,8.1,3,11.8
	c2.8,5.8,6.3,11.4,11.1,15.6c4.8,4.3,11.1,7.1,17.5,7"/>
<g>
	<path class="st1" d="M222.3,353.7c5.5,2,10.4,5.5,14.1,10.2c1.2,1.5,2.3,3.1,2.4,5.1c0.1,1.1-0.2,2.1-0.4,3.1
		c-1.1,4.7-2.2,9.5-5.2,13.2c-0.4-2.9-0.8-5.7-1.3-8.6c-0.4-2.4-0.7-4.9-1.7-7.2c-0.3-0.8-0.8-1.6-1.1-2.4c-0.3-0.8-0.6-1.6-1-2.4
		c-1.7-3.8-5.2-6.4-8.6-8.8c-0.1-1.3,1.2-2.6,2.4-2.5"/>
	<path class="st2" d="M222.3,353.6c3.2,1.1,6.3,2.8,9,4.9c1.4,1,2.6,2.2,3.8,3.4c0.6,0.6,1.2,1.3,1.7,1.9c0.5,0.7,1.1,1.4,1.5,2.2
		c0.4,0.8,0.7,1.6,0.8,2.5c0.1,0.9,0,1.8-0.2,2.6c-0.4,1.7-0.7,3.3-1.2,5c-0.9,3.3-2,6.6-4.2,9.4l-0.7,0.9l-0.2-1.1l-1.3-8.3
		c-0.2-1.4-0.4-2.8-0.7-4.1c-0.1-0.7-0.3-1.3-0.5-2c-0.2-0.6-0.5-1.3-0.8-1.9c-0.3-0.6-0.6-1.3-0.9-1.9l-0.8-2
		c-0.1-0.3-0.3-0.6-0.4-0.9c-0.2-0.3-0.3-0.6-0.5-0.9c-0.3-0.6-0.8-1.1-1.2-1.7c-1.7-2.1-4-3.9-6.2-5.6l-0.1-0.1l0-0.1
		c0-0.7,0.3-1.4,0.8-1.9c0.5-0.5,1.2-0.8,1.9-0.7l0,0.1c-1.3,0-2.3,1.3-2.2,2.4l-0.1-0.2c1.2,0.8,2.3,1.6,3.5,2.4
		c1.1,0.9,2.2,1.8,3.2,2.9c0.5,0.5,0.9,1.1,1.3,1.7c0.2,0.3,0.4,0.6,0.6,0.9c0.2,0.3,0.3,0.6,0.5,1l0.8,1.9c0.3,0.7,0.6,1.3,0.9,1.9
		c0.3,0.6,0.6,1.3,0.8,2c0.2,0.7,0.4,1.4,0.6,2.1c0.3,1.4,0.5,2.8,0.7,4.2l1.1,8.4l-0.9-0.2c2.1-2.6,3.3-5.8,4.2-9
		c0.5-1.6,0.9-3.3,1.2-4.9c0.2-0.8,0.3-1.6,0.2-2.4c-0.1-0.8-0.4-1.6-0.7-2.3c-0.4-0.7-0.8-1.4-1.4-2.1c-0.5-0.7-1.1-1.3-1.6-1.9
		c-1.1-1.3-2.4-2.4-3.7-3.5c-2.6-2.1-5.6-3.8-8.8-5L222.3,353.6z"/>
</g>
<path class="st3" d="M105.7,353.7c-10.2,2.8-17.4,13.7-16,24.2c0.5,3.7,2,7.4,1.8,11.1c-0.1,2.6-1,5-1.5,7.5
	c-0.7,3.3-0.9,6.6-1.1,9.9c-1.2,21.1-2.4,42.2-3.2,63.4c-0.1,1.3-0.1,2.6-0.6,3.9c-0.4,1-1,1.9-1.4,2.9c-0.9,1.9-1.2,3.9-1.4,5.9
	c-0.8,7-0.8,14.1,0.2,21.1c2.5,0.1,5,0.3,7.4,0.5h46c-0.3-0.1-0.8,0.2-0.4,0.3c0.3,0.1,0.6-0.2,0.9-0.5c8.7-10.2,7.7-25.2,11.8-37.9
	c1.1-3.5,2.6-6.8,3.6-10.3c0.6-2.4,1-4.8,1.7-7.1c2.1-7.1,7-13,11.8-18.7c4.2,12.6,6.6,25.8,7,39.1c0.1,3.2,0.1,6.4,0.5,9.6
	c0.9,8.4,4.3,16.8,3.2,25.2h54.1c-1.4-6.7,0.1-13.9,3.6-19.8c1.2-2,2.7-4,2.7-6.3c-0.1-2.5-2-4.6-2.5-7c-0.5-2.4,0.3-4.9,0.3-7.4
	c0-2.4-0.9-4.8-1.4-7.2c-1.1-6.4,1-12.8,2.2-19.1c1.3-6.8,1.6-13.8,0.5-20.7c-0.6-3.9-1.6-8,0.1-11.6c0.5-1,1.2-1.9,1.6-2.9
	c0.6-1.6,0.6-3.3,0.6-5c-0.1-3.3-0.2-6.6-0.3-10c-0.2-4.4-0.6-7.7-2.7-11.5c-2.9-5.2-7.8-9-10.3-14.4c-0.6-1.4-1.1-2.8-2.1-4
	c-2.8-3.3-8-2.6-12.3-1.7c-14,3-28.4,4.3-42.8,3.8c-2.6-0.1-5.3-0.2-7.8,0.7c-2,0.7-3.7,2.1-5.7,2.9c-3.4,1.5-7.3,1.2-11.1,0.9
	c-1.8-0.1-3.5-0.3-5.3-0.4c-1.2-0.1-2.4-0.2-3.6-0.3c-9.9-1-19.5-4.5-27.8-10"/>
<g>
	<path class="st4" d="M159.9,372.1c0,0-0.1,0.2-0.2,0.6c-0.2,0.4-0.4,0.9-0.6,1.6c-0.5,1.4-1,3.4-1.4,5.9c-0.4,2.5-0.6,5.4-0.7,8.6
		c0,1.6,0,3.2-0.1,4.9c0,1.7,0,3.4,0,5.1c0,3.4,0.1,6.7,0.6,9.9c0.4,3.1,1,6,1.8,8.4c0.4,1.2,0.7,2.3,1.1,3.3c0.3,1,0.7,1.8,0.9,2.5
		c0.6,1.4,0.9,2.2,0.9,2.2s-0.1-0.2-0.3-0.5c-0.2-0.3-0.5-0.9-0.8-1.5c-0.7-1.3-1.6-3.2-2.5-5.7c-0.8-2.4-1.7-5.3-2.2-8.5
		c-0.3-1.6-0.5-3.2-0.6-4.9c-0.1-1.7-0.2-3.4-0.2-5.1c0-3.4,0.1-6.8,0.2-10c0.1-1.6,0.2-3.1,0.4-4.6c0.2-1.5,0.4-2.8,0.7-4.1
		c0.3-1.3,0.6-2.4,0.9-3.4c0.3-1,0.7-1.8,1-2.5c0.3-0.7,0.6-1.2,0.8-1.5C159.8,372.2,159.9,372.1,159.9,372.1z"/>
</g>
<g>
	<path class="st4" d="M169.4,371.4c0,0,0.1,0.2,0.4,0.5c0.2,0.3,0.6,0.8,0.9,1.6c0.7,1.4,1.3,3.6,1.4,6.2c0.1,1.3,0.1,2.7,0.2,4.2
		c0,1.5,0.1,3.1,0.1,4.7c0,3.3,0,6.8-0.1,10.3c-0.1,1.8-0.2,3.5-0.3,5.2c-0.1,1.7-0.3,3.4-0.5,5c-0.2,1.6-0.5,3.2-0.8,4.7
		c-0.3,1.5-0.6,2.9-0.9,4.2c-0.3,1.3-0.7,2.4-1,3.5c-0.3,1-0.6,1.9-0.9,2.6c-0.6,1.4-0.9,2.2-0.9,2.2s0.2-0.8,0.6-2.3
		c0.2-0.7,0.4-1.6,0.7-2.7c0.2-1,0.5-2.2,0.7-3.5c0.2-1.3,0.5-2.7,0.7-4.2c0.1-0.7,0.2-1.5,0.3-2.3c0.1-0.8,0.2-1.6,0.3-2.4
		c0.2-1.6,0.3-3.3,0.4-5c0.1-1.7,0.2-3.4,0.3-5.2c0.1-1.7,0.1-3.5,0.2-5.2c0-1.7,0.1-3.4,0.1-5c0-3.3,0.2-6.3,0.2-8.9
		c0-1.3-0.1-2.5-0.3-3.5c-0.2-1-0.4-1.9-0.7-2.6c-0.3-0.7-0.5-1.2-0.7-1.6C169.5,371.6,169.4,371.4,169.4,371.4z"/>
</g>
<g>
	<path class="st4" d="M108.4,386.9c0,0,0.1,0,0.4-0.1c0.3,0,0.7-0.1,1.2-0.2c1-0.1,2.5-0.3,4.3-0.4c1.8-0.1,3.9,0,6.2,0.3
		c1.1,0.1,2.3,0.3,3.5,0.5c1.2,0.2,2.4,0.5,3.5,0.9c1.2,0.3,2.3,0.7,3.4,1c1.1,0.3,2.2,0.7,3.3,1c2.1,0.7,4.1,1.4,5.8,2
		c1.7,0.6,3.1,1.1,4.1,1.5c1,0.4,1.5,0.6,1.5,0.6s-0.6-0.1-1.6-0.4c-1-0.2-2.5-0.6-4.2-1c-1.7-0.4-3.8-1-5.9-1.6
		c-2.2-0.6-4.5-1.2-6.8-1.9c-1.2-0.3-2.3-0.6-3.4-0.9c-1.1-0.2-2.3-0.5-3.4-0.6c-2.2-0.3-4.3-0.5-6-0.6c-1.8-0.1-3.3-0.1-4.3-0.1
		C109,386.9,108.4,386.9,108.4,386.9z"/>
</g>
<g>
	<path class="st4" d="M107.4,405.3c0,0,0.7,0,1.8,0.1c1.1,0,2.8,0,4.7-0.2c1.9-0.1,4.2-0.3,6.7-0.5c1.2-0.1,2.5-0.2,3.8-0.2
		c1.3,0,2.6,0,4,0.1c0.7,0.1,1.3,0.2,2,0.3c0.7,0.1,1.3,0.2,2,0.4c1.3,0.3,2.5,0.8,3.7,1.3c2.3,1.1,4.2,2.4,5.8,3.4
		c1.7,1,3.1,1.8,4.1,2.3c1,0.4,1.7,0.6,1.7,0.6s-0.2,0-0.5-0.1c-0.3,0-0.7-0.1-1.3-0.3c-1.1-0.3-2.7-0.9-4.4-1.8
		c-1.8-0.9-3.7-2.1-5.9-3c-1.1-0.5-2.3-0.8-3.5-1.1c-0.6-0.2-1.2-0.2-1.9-0.4c-0.6-0.1-1.3-0.2-1.9-0.2c-1.3-0.1-2.6-0.2-3.8-0.2
		c-1.3,0-2.5,0-3.8,0.1c-2.4,0.1-4.7,0.1-6.7,0.1c-1,0-1.9-0.1-2.7-0.1c-0.8-0.1-1.5-0.2-2.1-0.2
		C108.1,405.4,107.4,405.3,107.4,405.3z"/>
</g>
<g>
	<path class="st4" d="M126.1,394.4c0,0,0.2,0.1,0.6,0.3c0.4,0.2,1,0.5,1.6,1c0.6,0.4,1.3,1,2,1.6c0.4,0.3,0.7,0.6,1.1,0.9
		c0.4,0.3,0.8,0.6,1.2,0.8c1.6,1,3.5,1.6,4.9,1.8c0.7,0.1,1.3,0.2,1.8,0.3c0.4,0,0.7,0.1,0.7,0.1s-0.2,0.1-0.7,0.2
		c-0.4,0.1-1.1,0.2-1.9,0.2c-0.8,0-1.7-0.1-2.7-0.3c-0.5-0.1-1-0.3-1.4-0.5c-0.5-0.2-1-0.4-1.4-0.7c-0.5-0.3-0.9-0.6-1.3-0.9
		c-0.4-0.3-0.8-0.7-1.1-1c-0.7-0.7-1.3-1.3-1.8-1.9C126.8,395.1,126.1,394.4,126.1,394.4z"/>
</g>
<g>
	<path class="st4" d="M101.8,408.5c0,0,0.1,0.1,0.3,0.4c0.2,0.3,0.5,0.6,0.8,1.1c0.7,0.9,2,2,3.7,3c0.8,0.5,1.8,1,2.8,1.4
		c1,0.4,2.1,0.8,3.4,1.1c2.4,0.6,5,1.1,7.6,1.6c1.3,0.3,2.6,0.5,3.9,0.8c1.3,0.3,2.5,0.7,3.7,1c2.4,0.6,4.6,1.1,6.6,1.3
		c1,0.1,1.9,0.1,2.7,0c0.8-0.1,1.5-0.2,2-0.3c0.6-0.1,1-0.3,1.3-0.4c0.3-0.1,0.5-0.2,0.5-0.2s-0.1,0.1-0.4,0.2
		c-0.3,0.2-0.7,0.4-1.2,0.6c-0.6,0.2-1.2,0.4-2.1,0.6c-0.8,0.2-1.7,0.2-2.8,0.2c-2,0-4.4-0.4-6.8-0.9c-1.2-0.3-2.5-0.6-3.8-0.9
		c-1.3-0.3-2.6-0.5-3.9-0.8c-2.6-0.5-5.3-1-7.7-1.8c-1.2-0.4-2.4-0.8-3.4-1.3c-1.1-0.5-2-1.1-2.8-1.7c-0.8-0.6-1.5-1.2-2.1-1.8
		c-0.6-0.6-1-1.2-1.4-1.7c-0.3-0.5-0.6-0.9-0.7-1.2C101.8,408.7,101.8,408.5,101.8,408.5z"/>
</g>
<path class="st5" d="M123.4,424.5c-10.2-1.6-20.9,3.2-30.7,0.1"/>
<g>
	<path class="st4" d="M108.1,440.1c0,0,0.4-0.1,1-0.3c0.6-0.2,1.6-0.3,2.7-0.4c1.1-0.1,2.4-0.1,3.8-0.1c1.4,0,2.9,0.1,4.3,0
		c0.7,0,1.4-0.1,2.1-0.2c0.7-0.1,1.4-0.3,2-0.5c0.6-0.2,1.2-0.4,1.8-0.7c0.6-0.3,1-0.6,1.5-0.9c0.4-0.3,0.8-0.6,1.1-1
		c0.3-0.3,0.5-0.6,0.7-0.9c0.2-0.3,0.3-0.5,0.4-0.6c0.1-0.2,0.1-0.2,0.1-0.2s0,0.1-0.1,0.3c-0.1,0.2-0.1,0.4-0.2,0.7
		c-0.1,0.3-0.3,0.7-0.6,1.1c-0.1,0.2-0.3,0.4-0.4,0.6c-0.2,0.2-0.4,0.4-0.6,0.6c-0.4,0.4-0.9,0.8-1.5,1.2c-0.6,0.4-1.2,0.7-1.9,0.9
		c-1.3,0.5-2.9,0.8-4.4,0.9c-1.5,0.1-3,0-4.4-0.1c-1.4-0.1-2.7-0.2-3.8-0.3c-1.1-0.1-2-0.1-2.7-0.1
		C108.4,440.1,108.1,440.1,108.1,440.1z"/>
</g>
<g>
	<path class="st4" d="M120.7,504.8c0,0,0.5-0.4,1.3-1.2c0.8-0.8,2-1.9,3.2-3.4c1.2-1.5,2.6-3.3,3.8-5.4c0.6-1.1,1.2-2.1,1.7-3.3
		c0.5-1.1,1.1-2.3,1.5-3.5c1-2.4,2-4.8,2.9-7c0.9-2.3,1.6-4.4,2-6.3c0.2-0.9,0.4-1.8,0.5-2.6c0.1-0.8,0.1-1.5,0.2-2c0-0.6,0-1,0-1.3
		c0-0.3,0-0.5,0-0.5s0,0.2,0.1,0.5c0.1,0.3,0.1,0.7,0.2,1.3c0.1,0.6,0.1,1.3,0.1,2.1c0,0.8-0.1,1.7-0.2,2.7c-0.3,2-0.8,4.2-1.6,6.5
		c-0.8,2.3-1.8,4.7-2.7,7.2c-0.5,1.2-1,2.4-1.6,3.6c-0.6,1.2-1.2,2.3-1.8,3.3c-1.3,2.1-2.8,3.9-4.2,5.3c-1.4,1.4-2.7,2.4-3.6,3.1
		C121.3,504.4,120.7,504.8,120.7,504.8z"/>
</g>
<g>
	<path class="st4" d="M88.5,470.4c0,0,0-0.1,0.1-0.3c0.1-0.2,0.2-0.5,0.4-0.9c0.4-0.7,1-1.8,2-2.9c1-1.1,2.3-2.1,4-2.9
		c0.8-0.4,1.7-0.7,2.7-0.9c0.5-0.1,1-0.2,1.4-0.2c0.5-0.1,1-0.1,1.6,0c0.6,0.1,1.2,0.5,1.6,0.9c0.4,0.5,0.6,0.8,0.8,1.2
		c0.5,0.7,1,1.5,1.6,2.1c1.1,1.3,2.2,2.4,3.3,3.3c1.1,0.9,2,1.6,2.7,2c0.7,0.4,1.1,0.7,1.1,0.7s-0.1,0-0.3-0.1
		c-0.2-0.1-0.5-0.2-0.9-0.4c-0.8-0.3-1.8-0.8-3-1.6c-1.2-0.8-2.5-1.9-3.7-3.2c-0.6-0.7-1.2-1.4-1.7-2.2c-0.3-0.4-0.5-0.8-0.8-1.1
		c-0.3-0.3-0.5-0.4-0.8-0.5c-0.3-0.1-0.8,0-1.2,0c-0.4,0-0.9,0.1-1.3,0.2c-0.9,0.2-1.7,0.4-2.5,0.7c-1.6,0.6-2.9,1.5-3.9,2.4
		c-1,0.9-1.8,1.8-2.3,2.4c-0.2,0.3-0.4,0.6-0.5,0.8C88.6,470.3,88.5,470.4,88.5,470.4z"/>
</g>
<g>
	<path class="st4" d="M90.6,474.9c0,0,0.1-0.1,0.2-0.2c0.1-0.1,0.3-0.2,0.6-0.3c0.6-0.2,1.6-0.2,2.5,0.4c0.5,0.3,0.9,0.7,1.3,1.2
		c0.4,0.5,0.7,1,1.1,1.5c0.7,1.1,1.3,2.2,2,3.3c0.7,1.1,1.5,2,2.4,2.8c0.9,0.8,1.9,1.3,2.7,1.6c0.9,0.3,1.7,0.4,2.3,0.5
		c0.6,0,0.9,0,0.9,0s-0.1,0-0.2,0.1c-0.1,0.1-0.4,0.1-0.7,0.2c-0.6,0.1-1.5,0.2-2.5,0c-1-0.2-2.2-0.7-3.3-1.5c-1.1-0.8-2-1.8-2.8-3
		c-0.8-1.1-1.4-2.3-2-3.4c-0.3-0.5-0.5-1.1-0.8-1.5c-0.3-0.5-0.6-0.8-1-1.1c-0.7-0.6-1.5-0.8-2-0.8c-0.3,0-0.5,0.1-0.6,0.1
		C90.7,474.9,90.6,474.9,90.6,474.9z"/>
</g>
<g>
	<path class="st4" d="M190.2,451.3c0,0,0,0.5,0,1.2c0.1,0.8,0.3,1.8,0.8,3c0.5,1.2,1.2,2.5,2,4c0.7,1.5,1.5,3.1,2.3,4.6
		c0.4,0.8,0.8,1.6,1.2,2.3c0.4,0.8,0.8,1.5,1.2,2.2c0.4,0.7,0.8,1.4,1.1,2.1c0.4,0.6,0.7,1.3,1.1,1.8c0.7,1.1,1.3,2.1,1.7,2.7
		c0.4,0.6,0.7,1,0.7,1s-0.3-0.3-0.9-0.9c-0.5-0.6-1.3-1.4-2.1-2.4c-0.8-1-1.7-2.3-2.6-3.8c-0.9-1.4-1.7-3-2.5-4.6
		c-0.8-1.6-1.5-3.2-2.2-4.7c-0.7-1.5-1.3-3-1.6-4.3c-0.4-1.3-0.4-2.5-0.4-3.2c0-0.4,0.1-0.7,0.1-0.9
		C190.1,451.4,190.2,451.3,190.2,451.3z"/>
</g>
<g>
	<path class="st4" d="M181.3,480.6c0,0,0.1,0.4,0.5,0.9c0.3,0.5,0.9,1.2,1.6,2c0.7,0.8,1.7,1.6,2.7,2.6c0.5,0.5,0.9,1.1,1.3,1.7
		c0.4,0.6,0.8,1.3,1.1,1.9c0.3,0.6,0.7,1.3,1,1.9c0.3,0.6,0.7,1.2,1,1.8c0.7,1.2,1.4,2.2,2,3.1c0.6,0.9,1.2,1.6,1.5,2.1
		c0.4,0.5,0.6,0.8,0.6,0.8s-0.3-0.2-0.8-0.6c-0.5-0.4-1.2-1-1.9-1.8c-0.8-0.8-1.6-1.8-2.4-3c-0.4-0.6-0.8-1.2-1.1-1.8
		c-0.3-0.6-0.7-1.3-1-1.9c-0.3-0.6-0.7-1.3-1-1.9c-0.4-0.6-0.7-1.2-1.1-1.7c-0.8-1-1.7-2-2.4-2.9c-0.7-0.9-1.1-1.8-1.3-2.4
		c-0.1-0.3-0.2-0.6-0.2-0.7C181.4,480.7,181.3,480.6,181.3,480.6z"/>
</g>
<g>
	<path class="st4" d="M187.6,430.8c0,0,0-0.1,0-0.3c0-0.2,0.2-0.5,0.5-0.6c0.3-0.2,0.7-0.3,1.2-0.3c0.5,0,1-0.1,1.5-0.1
		c1.1-0.1,2.4-0.2,3.8-0.2c1.4-0.1,2.9-0.1,4.4-0.1c0.8,0,1.6,0.1,2.3,0.3c0.8,0.1,1.5,0.5,2.1,0.7c0.7,0.3,1.2,0.5,1.8,0.8
		c0.6,0.2,1.1,0.4,1.7,0.5c1.1,0.2,2,0.3,2.6,0.4c0.7,0,1,0,1,0s-0.4,0.1-1,0.2c-0.7,0.1-1.6,0.2-2.8,0.1c-1.1-0.1-2.5-0.4-3.8-0.9
		c-0.7-0.2-1.3-0.4-2-0.6c-0.7-0.1-1.4-0.2-2.1-0.2c-1.5,0-3,0-4.4-0.1c-1.4,0-2.7-0.1-3.8-0.2c-0.6,0-1.1-0.1-1.5-0.1
		c-0.4,0-0.8,0-1.1,0.1c-0.3,0.1-0.5,0.2-0.5,0.4C187.6,430.7,187.6,430.8,187.6,430.8z"/>
</g>
<g>
	<path class="st4" d="M181.1,426.2c0,0-0.1-0.1-0.1-0.3c-0.1-0.2-0.2-0.6-0.2-1.1c-0.1-0.9,0.3-2.3,1.1-3.7c0.4-0.7,0.9-1.4,1.5-2.1
		c0.6-0.7,1.2-1.5,1.8-2.2c1.2-1.5,2.6-3.1,3.9-4.8c1.4-1.6,2.7-3.2,4.1-4.7c0.7-0.7,1.4-1.4,2.3-1.9c0.8-0.5,1.7-0.8,2.4-1
		c1.5-0.4,2.8-0.6,3.7-0.9c0.9-0.2,1.4-0.4,1.4-0.4s-0.1,0.1-0.3,0.2c-0.2,0.1-0.5,0.3-1,0.5c-0.9,0.4-2.1,0.8-3.6,1.3
		c-0.7,0.3-1.5,0.6-2.2,1.1c-0.7,0.5-1.3,1.1-1.9,1.9c-0.6,0.8-1.3,1.5-1.9,2.3c-0.7,0.8-1.3,1.6-2,2.4c-1.4,1.6-2.7,3.2-4,4.7
		c-1.3,1.5-2.6,2.8-3.5,4c-0.9,1.2-1.4,2.4-1.5,3.3c0,0.4,0,0.8,0,1C181.1,426.1,181.1,426.2,181.1,426.2z"/>
</g>
<g>
	<path class="st4" d="M174.6,410.2c0,0,0-0.1-0.1-0.3c0-0.2-0.1-0.5-0.1-0.9c0-0.2,0-0.4,0-0.7c0-0.2,0-0.5,0.1-0.8
		c0.1-0.6,0.2-1.2,0.5-1.9c0.1-0.3,0.3-0.7,0.4-1c0.2-0.3,0.4-0.7,0.6-1c0.5-0.7,1-1.4,1.7-2c0.7-0.6,1.4-1.2,2.3-1.6
		c0.9-0.4,1.8-0.7,2.8-0.9c1-0.2,2-0.1,2.8-0.2c0.8-0.1,1.5-0.4,2.3-0.8c0.7-0.4,1.4-0.9,2.1-1.3c0.6-0.4,1.2-0.9,1.8-1.3
		c1.1-0.9,1.9-1.6,2.5-2.2c0.6-0.6,0.9-0.9,0.9-0.9s-0.2,0.4-0.7,1.1c-0.5,0.6-1.2,1.6-2.2,2.6c-0.5,0.5-1.1,1-1.7,1.5
		c-0.6,0.5-1.3,1-2.1,1.5c-0.7,0.5-1.7,1-2.7,1.1c-1,0.1-1.9,0.1-2.7,0.2c-0.8,0.1-1.7,0.4-2.4,0.7c-0.8,0.4-1.5,0.8-2.1,1.3
		c-0.6,0.5-1.2,1.1-1.7,1.7c-0.5,0.6-0.8,1.2-1.1,1.8c-0.3,0.6-0.5,1.2-0.7,1.7c-0.1,0.3-0.1,0.5-0.2,0.7c0,0.2-0.1,0.5-0.1,0.6
		c-0.1,0.4-0.1,0.7-0.1,0.9C174.6,410.1,174.6,410.2,174.6,410.2z"/>
</g>
<g>
	<path class="st4" d="M179.1,392.8c0,0,0.1,0,0.2-0.1c0.1-0.1,0.3-0.2,0.6-0.4c0.5-0.3,1.1-0.9,1.7-1.7c0.6-0.8,1.2-1.8,1.8-2.9
		c0.3-0.6,0.5-1.1,0.8-1.8c0.3-0.6,0.6-1.3,1.2-1.9c0.6-0.6,1.4-0.9,2-1.1c0.7-0.2,1.3-0.3,1.9-0.5c1.2-0.3,2.4-0.5,3.4-0.7
		c2-0.4,3.4-0.5,3.4-0.5s-1.3,0.6-3.2,1.3c-1,0.4-2.1,0.7-3.3,1.1c-0.6,0.2-1.2,0.4-1.9,0.6c-0.6,0.2-1.1,0.4-1.5,0.8
		c-0.4,0.4-0.7,0.9-1,1.5c-0.3,0.6-0.6,1.2-0.9,1.8c-0.7,1.1-1.4,2.1-2.2,2.8c-0.8,0.7-1.6,1.2-2.1,1.4c-0.3,0.1-0.5,0.2-0.7,0.2
		C179.2,392.8,179.1,392.8,179.1,392.8z"/>
</g>
<g>
	<path class="st4" d="M216.6,388.4c0,0,1-0.1,2.5,0c0.7,0,1.6,0,2.5,0.1c0.9,0,1.9,0.1,2.9,0.1c1,0.1,1.9,0.1,2.9,0.2
		c0.9,0.1,1.8,0.1,2.5,0.2c1.5,0.1,2.5,0.3,2.5,0.3s-1,0.3-2.4,0.5c-0.7,0.1-1.6,0.2-2.5,0.2c-0.9,0-1.9,0-2.9,0
		c-1-0.1-2-0.1-2.9-0.3c-0.9-0.1-1.8-0.3-2.5-0.5C217.5,388.7,216.6,388.4,216.6,388.4z"/>
</g>
<g>
	<path class="st4" d="M220.8,405.9c0,0,0.3,0,0.9,0c0.6,0,1.3,0,2.3-0.1c0.9-0.1,2-0.2,3-0.6c0.5-0.2,1-0.5,1.5-0.8
		c0.5-0.3,0.9-0.7,1.3-1.1c0.8-0.8,1.5-1.8,2.1-2.8c0.5-1,1-2,1.3-2.8c0.3-0.9,0.6-1.6,0.8-2.1c0.2-0.5,0.3-0.8,0.3-0.8
		s0,0.3-0.1,0.9c-0.1,0.6-0.2,1.3-0.4,2.3c-0.2,0.9-0.5,2-1,3.2c-0.5,1.1-1.2,2.2-2.2,3.2c-0.5,0.5-1,0.9-1.6,1.3
		c-0.6,0.4-1.2,0.6-1.8,0.8c-1.2,0.4-2.4,0.4-3.4,0.3c-1-0.1-1.7-0.3-2.3-0.4C221.2,406,220.8,405.9,220.8,405.9z"/>
</g>
<g>
	<path class="st6" d="M119.5,361.8c-2,2.1-7.1,7.5-8.7,10c2.8,1.8,7.7,3.8,10.8,5.1c0.8-3.4,2.7-7.6,4.1-10.8
		C124.1,364.4,121.8,361.8,119.5,361.8"/>
	<path class="st7" d="M119.5,361.8c-1.5,1.6-2.9,3.3-4.4,5c-0.7,0.8-1.4,1.7-2.1,2.5c-0.7,0.9-1.4,1.7-2,2.6l-0.1-0.4
		c1.7,1,3.5,1.8,5.3,2.6c1.8,0.8,3.7,1.5,5.5,2.3l-0.7,0.4c0.4-1.9,1-3.8,1.7-5.6c0.3-0.9,0.8-1.8,1.2-2.7c0.4-0.9,0.8-1.7,1.3-2.6
		l0.1,0.6c-0.9-1-1.7-1.9-2.6-2.8c-0.5-0.4-0.9-0.8-1.5-1.2C120.7,362.2,120.1,361.9,119.5,361.8l0-0.1c0.3,0,0.7,0,1,0.1
		c0.3,0.1,0.7,0.2,1,0.3c0.6,0.3,1.2,0.6,1.7,1c1.1,0.8,2,1.7,2.9,2.6l0.3,0.3l-0.2,0.4c-0.4,0.9-0.7,1.8-1.1,2.7l-1.1,2.7
		c-0.7,1.8-1.5,3.5-1.9,5.4l-0.2,0.6l-0.6-0.3c-1.8-0.8-3.6-1.6-5.4-2.5c-1.8-0.9-3.6-1.7-5.3-2.9l-0.3-0.2l0.2-0.3
		c0.7-0.9,1.4-1.8,2.1-2.6c0.7-0.8,1.5-1.7,2.2-2.5C116.4,364.9,117.9,363.3,119.5,361.8L119.5,361.8z"/>
</g>
<path class="st5" d="M223.8,420c0.9,0.5,1.9-0.4,2.5-1.2c1.8-2.2,3.5-4.5,5.3-6.7"/>
<g>
	<path class="st4" d="M92.4,386c0,0,0.3,0,0.7,0c0.2,0,0.5,0,0.8,0c0.3,0,0.7,0,1.1-0.1c0.4,0,0.8-0.1,1.2-0.2
		c0.4-0.1,0.9-0.2,1.3-0.3c0.5-0.1,0.9-0.3,1.4-0.4c0.5-0.1,0.9-0.4,1.4-0.6c0.5-0.2,0.9-0.4,1.3-0.7c0.4-0.2,0.8-0.5,1.2-0.8
		c0.4-0.3,0.8-0.5,1.1-0.8c0.3-0.3,0.7-0.5,0.9-0.8c0.6-0.5,1-1,1.3-1.4c0.3-0.4,0.5-0.6,0.5-0.6s-0.1,0.3-0.3,0.7
		c-0.1,0.2-0.2,0.5-0.4,0.8c-0.2,0.3-0.3,0.6-0.6,1c-0.2,0.3-0.5,0.7-0.8,1c-0.3,0.4-0.7,0.7-1.1,1c-0.4,0.3-0.8,0.7-1.3,0.9
		c-0.5,0.3-1,0.5-1.5,0.8c-0.5,0.2-1,0.4-1.6,0.6c-0.5,0.2-1.1,0.3-1.6,0.4c-0.5,0.1-1,0.1-1.5,0.1c-0.5,0-0.9,0-1.3-0.1
		c-0.4,0-0.8-0.1-1.1-0.2c-0.3-0.1-0.6-0.1-0.8-0.2C92.7,386.1,92.4,386,92.4,386z"/>
</g>
<g>
	<path class="st8" d="M111,372.4c2.6,1,5.2,1.9,7.8,2.9c0.7,0.3,1.5,0.6,2,1.1c1.4,1.5,0.6,4-0.3,5.8c-3.2,6.7-6.3,13.4-9.5,20.1
		c-1.9,4.1-3.9,8.2-5.7,12.3c-7.7,17.2-14.1,35.1-19.1,53.3c-0.3,1.3-1.2,2.8-2.5,2.4c-0.5-0.2-0.8-0.7-1.1-1.1
		c-2.3-4.3-2.6-9.5-2.3-14.4c1-14.2,6.5-27.7,12-40.8c4.8-11.5,9.6-23,14.4-34.5c1.1-2.7,2.3-5.4,4.1-7.8"/>
	<path class="st9" d="M111.1,372.3c0,0,0.8,0.3,2.3,0.8c1.5,0.6,3.7,1.3,6.5,2.4c0.7,0.3,1.4,0.8,1.7,1.7c0.3,0.8,0.3,1.7,0.1,2.6
		c-0.2,0.9-0.6,1.8-1,2.7c-0.4,0.9-0.8,1.8-1.3,2.7c-1.8,3.8-3.7,8-5.9,12.7c-2.1,4.7-4.5,9.7-6.9,15c-2.4,5.3-4.8,11-7.2,17
		c-4.7,11.9-9,24.9-12.5,38.1c-0.2,0.9-0.6,1.8-1.3,2.5c-0.4,0.4-1,0.7-1.6,0.5c-0.1,0-0.3-0.1-0.4-0.1c-0.2-0.1-0.3-0.2-0.4-0.2
		c-0.2-0.2-0.4-0.4-0.5-0.6c-0.9-1.6-1.5-3.2-2-4.9c-0.9-3.4-0.9-6.9-0.7-10.3c0.4-6.8,1.9-13.3,3.8-19.5c1.9-6.1,4.2-11.9,6.5-17.3
		c2.3-5.4,4.5-10.5,6.5-15.2c2-4.7,3.9-9,5.5-12.8c1.7-3.8,3.1-7.1,4.3-9.9c1.2-2.7,2.2-4.9,3-6.2c0.8-1.4,1.4-2,1.4-2l0.1,0.1
		c0,0-0.5,0.7-1.3,2.1c-0.8,1.4-1.7,3.5-2.8,6.3c-1.1,2.8-2.5,6.1-4,10c-1.6,3.9-3.3,8.2-5.3,13c-1.9,4.7-4,9.9-6.3,15.3
		c-2.2,5.4-4.5,11.2-6.4,17.3c-1.9,6.1-3.4,12.5-3.9,19.2c-0.2,3.3-0.2,6.7,0.6,9.9c0.4,1.6,1,3.2,1.8,4.6c0.4,0.6,0.9,0.7,1.3,0.3
		c0.5-0.5,0.8-1.2,1-2c3.6-13.2,8.1-26.2,12.8-38.1c2.4-6,4.8-11.7,7.3-17c2.5-5.3,4.9-10.3,7.1-15c2.2-4.6,4.2-8.9,6-12.6
		c0.4-0.9,0.9-1.8,1.3-2.7c0.4-0.9,0.8-1.7,1-2.6c0.2-0.9,0.2-1.7,0-2.5c-0.3-0.7-0.9-1.3-1.6-1.6c-2.8-1.1-5-1.9-6.5-2.4
		c-1.5-0.6-2.3-0.9-2.3-0.9L111.1,372.3z"/>
</g>
<path class="st0" d="M198.1,375.8c3.1-0.5,6.2-1.1,9.3-1.6c0.6-0.1,1.2-0.2,1.7,0.1c0.7,0.3,1,1.2,1.2,2c2,6.9,4,13.8,6,20.8
	c2.5,8.8,5,17.5,7.6,26.3c2.9,10.2,5.9,20.5,8.8,30.7c0.5,1.7,1,3.4,1.3,5.2c0.4,2.9,0.3,5.8,0.5,8.6c0.2,3.5,1,7,0.8,10.6
	c-0.2,3.5-1.6,7.3-4.6,9.1c-1.8-5.3-3.4-10.7-5-16c-2.2-7.3-4.5-14.6-6.7-21.9c-1.5-4.7-2.9-9.5-4.1-14.3c-1-4.1-1.8-8.3-2.7-12.5
	c-3.5-16-8.7-31.7-15.5-46.6"/>
<g>
	<path class="st6" d="M202.4,363.5c1.5,2.4,5.5,8.4,6.6,11.1c-3,1.3-7.9,2.3-11.1,3c-0.1-3.4-1.3-7.7-2.1-11.1
		C197.5,365.2,200.2,363.1,202.4,363.5"/>
	<path class="st7" d="M202.4,363.4c1.2,1.8,2.4,3.6,3.5,5.4c0.6,0.9,1.1,1.8,1.7,2.7c0.5,0.9,1.1,1.9,1.6,2.9l0.1,0.3l-0.3,0.1
		c-1.8,0.8-3.7,1.3-5.5,1.8c-1.9,0.5-3.7,1-5.6,1.4l-0.6,0.2l0-0.6c-0.1-1.8-0.5-3.6-0.9-5.5l-0.6-2.7c-0.2-0.9-0.4-1.8-0.6-2.8
		l-0.1-0.4l0.3-0.2c1-0.7,2.1-1.4,3.2-2c0.6-0.3,1.2-0.5,1.8-0.7c0.3-0.1,0.6-0.1,1-0.1C201.7,363.3,202.1,363.3,202.4,363.4
		L202.4,363.4c-0.7,0.1-1.3,0.2-1.8,0.4c-0.6,0.2-1.1,0.5-1.6,0.9c-1,0.7-1.9,1.5-3,2.2l0.2-0.6c0.2,0.9,0.5,1.8,0.8,2.7
		c0.2,0.9,0.5,1.8,0.6,2.8c0.4,1.9,0.6,3.8,0.7,5.7l-0.6-0.5c1.9-0.4,3.8-0.8,5.6-1.2c1.9-0.4,3.7-0.9,5.5-1.6l-0.2,0.4
		c-0.4-1-0.9-1.9-1.4-2.8c-0.5-0.9-1-1.9-1.6-2.8c-1.1-1.8-2.2-3.7-3.3-5.5L202.4,363.4z"/>
</g>
<path class="st10" d="M278.7,277.5c-0.9-26.7-2-53.3-3.5-79.9c-0.2-3.3-0.4-6.6-1.8-9.6c-1.1-2.3-2.9-4.2-3.6-6.6
	c-0.6-2-0.4-4.2-1-6.3c-0.5-1.6-1.4-3-2.4-4.4c-6.6-9-16.3-15.3-25.7-21.3c-9.3-6-18.6-11.9-27.8-17.9c-1.2-0.8-2.4-1.5-3.8-1.8
	c-1.5-0.2-3.1,0.2-4.6,0.5c-14.7,3.4-30.4-1.8-45.2,1.3c-11.5,2.4-21.4,9.6-32.5,13.2c-6.5,2.1-13.5,3-19.1,6.9
	c-9.1,6.3-10.2,18.5-13.5,29.1c-1.7,5.4-1.6,11.2-2.2,16.8c-1.5,13.1-6.6,25.5-7.9,38.6c-1,10,0.3,20.3-2.6,29.9
	c-0.3,1.1-0.7,2.2-0.8,3.4c0,0.9,0.2,1.8,0.4,2.6c1.8,9.5-2,19.5-0.3,29c0.3,1.6,0.7,3.5-0.3,4.8c-0.6,0.7-1.4,1.1-2,1.8
	c-1,1.2-0.9,3.1-0.2,4.6c0.7,1.5,1.8,2.7,2.5,4.1c1,2,1.4,4.3,1,6.5c-0.1,0.7-0.3,1.6,0,2.2c0.3,0.7,1.1,1,1.6,1.6
	c0.6,0.7,0.7,1.6,0.8,2.5c0.4,4.3,0.9,8.6,1.3,13c4.3-2.7,9.2-4.5,14.3-5.2c0.7-0.1,1.4-0.1,1.9,0.3c0.6,0.5,0.6,1.3,0.6,2
	c0,5.4-0.3,11.5,3.7,15.2c2.1,2,5.1,2.8,7.7,4c5.5,2.5,9.8,6.9,14.8,10.2c4.9,3.2,10.5,5.5,16.3,6.5c1,0.2,2,0.3,2.9-0.2
	c0.7-0.4,1.1-1,1.5-1.6c6.4-9.7,11-20.6,13.4-32c3.1,10.3,6.1,20.6,9.2,30.9c0.7,2.2,1.4,4.6,2.9,6.4c3.3-4.2,9-5.4,14.2-6.9
	c12.2-3.5,22.1-7.5,31.1-16.4c2.1,1.3,1.8-2.1,1.6,0.3c3-1.7,9.4,4.2,11.5,6.9c2.1,2.7,4.1,6,7.4,6.7c1-2,2.4-3.8,3.8-5.5
	c3-3.7,6-7.4,9-11.1c6.9-8.4,13.9-17.1,16.9-27.6c1.7-5.9,2-12.2,4.3-17.9c1.4-3.3,3.4-6.4,4.5-9.8
	C280.8,291.5,278.9,283.9,278.7,277.5z M241.1,286.8c-4.1,6.3,0.6,15.2-2.4,22.2c-0.4,1-1,1.9-1.4,2.9c-0.3,1-5.5,14.9-5.6,16
	c0.6-2.6,3.3-18,3.8-20.6c0.3-1.2-0.1-4.7-0.5-5.3c-0.6-0.8-0.9-1.8-1-2.9c-0.5-3.2,2.9-27.5,3.4-31c2.1,1.1,1.9,10,3.1,12
	c0.6,1,1.8,1.6,2.2,2.7C243.1,284.2,241.9,285.5,241.1,286.8z"/>
<g>
	<path class="st1" d="M164.8,119.9c-4.9,14.6,17.9,24.8,18.2,26.4c9.2-8.2,1.4,5.8,10.8-1.2c4-3,15.9-17.8,16.2-22.9
		c0.7-12.5,0.4-20.2,0.4-28c0-0.9-25.3-1.9-40.7-1.6L164.8,119.9z"/>
	<path class="st2" d="M164.8,119.9c-0.9,2.7-0.9,5.8,0.1,8.5c1,2.7,2.7,5.1,4.6,7.2c2,2.1,4.2,3.9,6.5,5.6c1.2,0.8,2.4,1.7,3.6,2.5
		l1.8,1.2c0.3,0.2,0.6,0.4,0.9,0.6c0.3,0.2,0.6,0.4,0.8,0.8l-0.1,0c0.9-0.8,1.7-1.6,2.7-2.2c0.5-0.3,1-0.6,1.7-0.5
		c0.4,0.1,0.6,0.4,0.7,0.7c0.1,0.3,0.2,0.6,0.3,0.9c0.2,0.6,0.3,1.1,0.6,1.5c0.3,0.4,0.8,0.4,1.4,0.3c1.1-0.3,2-1,2.9-1.7
		c1.8-1.4,3.4-3.1,4.9-4.9c1.5-1.7,3-3.6,4.4-5.4c1.4-1.9,2.7-3.8,4-5.7c1.2-2,2.4-4,3-6.2c0.1-0.5,0.1-1.1,0.2-1.7l0.1-1.7l0.1-3.5
		c0.1-2.3,0.1-4.6,0.1-7c0-4.6-0.1-9.3-0.1-14l0-0.9l0-0.1l0,0c0,0.3,0,0.1,0,0.1c0,0,0,0,0,0c0,0,0,0,0,0.1
		c0.1,0.1,0.1,0.1,0.1,0.1c0,0,0,0-0.1,0c-0.1,0-0.2-0.1-0.4-0.1c-0.5-0.1-1.1-0.2-1.7-0.2c-1.1-0.1-2.3-0.2-3.5-0.3
		c-2.3-0.2-4.6-0.3-7-0.4c-4.6-0.2-9.3-0.3-13.9-0.4c-4.6-0.1-9.3-0.1-13.9-0.1l0.3-0.3L164.8,119.9z M164.7,119.9l4.6-27.4l0-0.3
		l0.3,0c4.7-0.1,9.3-0.1,14,0c4.7,0.1,9.3,0.2,14,0.4c2.3,0.1,4.7,0.2,7,0.4c1.2,0.1,2.3,0.2,3.5,0.3c0.6,0.1,1.2,0.1,1.8,0.3
		c0.2,0,0.3,0.1,0.5,0.1c0,0,0.1,0,0.1,0.1c0.1,0,0.1,0,0.2,0.2c0,0,0.1,0.1,0.1,0.1l0,0c0,0.1,0-0.1,0,0.2v0v0.1l0,0.9
		c0,4.6,0.1,9.3,0,14c0,2.3-0.1,4.7-0.2,7l-0.2,3.5l-0.1,1.7l-0.1,0.9c0,0.3-0.1,0.6-0.2,0.9c-0.6,2.3-1.9,4.3-3.1,6.3
		c-1.2,2-2.6,3.9-4,5.7c-1.4,1.9-2.9,3.7-4.4,5.4c-1.6,1.7-3.1,3.5-5,4.9c-1,0.7-1.9,1.4-3.1,1.7c-0.3,0.1-0.6,0.1-1,0.1
		c-0.3,0-0.7-0.3-0.9-0.5c-0.4-0.5-0.5-1.2-0.6-1.7c-0.1-0.5-0.3-1.2-0.7-1.3c-0.5-0.1-1,0.2-1.5,0.5c-1,0.6-1.9,1.3-2.8,2.1
		l-0.1,0.1l-0.1-0.1c-0.1-0.3-0.5-0.5-0.7-0.7c-0.3-0.2-0.6-0.4-0.9-0.6l-1.8-1.2c-1.2-0.8-2.4-1.6-3.6-2.5
		c-2.3-1.7-4.6-3.6-6.5-5.7c-2-2.1-3.7-4.5-4.6-7.3C163.8,125.7,163.8,122.6,164.7,119.9z"/>
</g>
<path class="st10" d="M85.4,342.4c0,0,0-0.1,0-0.1c-0.3,0.2,0.5,0.9,0.2,1.1L85.4,342.4z"/>
<g>
	<path class="st11" d="M209.9,120.2c3,3,0.7,8.4,2,12.5c0.5,1.4,1.4,2.7,1.6,4.1c0.2,1.6-0.4,3.1-1.1,4.5c-1.9,3.8-4.4,7.2-6.9,10.6
		c-0.6,0.8-1.2,1.6-1.8,2.3c-2.6,3.5-5.2,6.9-7.7,10.4c-4.9-2.4-5.9-9.1-9.8-13c-1.2-1.2-2.9-2.5-2.8-4.3c0.1-1.6,1.6-2.7,3-3.5
		c5-3,9.9-6.2,14.6-9.6c1.7-1.2,3.4-2.4,4.8-4c2.4-2.8,3.8-6.5,3.6-10.2"/>
	<path class="st2" d="M210,120.2c0.8,0.7,1.3,1.8,1.5,2.8c0.2,1,0.3,2.1,0.2,3.2c0,2.1-0.2,4.2,0.4,6.2c0.3,1,0.8,1.9,1.2,2.9
		c0.4,1,0.6,2.1,0.4,3.2c-0.2,1.1-0.6,2.1-1.1,3c-0.5,0.9-1,1.9-1.5,2.8c-2.2,3.7-4.8,7-7.2,10.4l-7.5,10.2l-0.2,0.3l-0.4-0.2
		c-1.2-0.6-2.3-1.5-3.1-2.5c-0.9-1-1.6-2.1-2.2-3.3c-1.3-2.2-2.4-4.6-3.9-6.4c-0.8-0.9-1.8-1.7-2.7-2.7c-0.4-0.5-0.9-1.2-1-2
		c0-0.2-0.1-0.4-0.1-0.6c0-0.1,0-0.2,0-0.3l0-0.2c0.1-0.4,0.2-0.8,0.4-1.2c0.8-1.4,2-2.1,3.1-2.7l3.3-2c4.3-2.7,8.6-5.5,12.8-8.4
		c1-0.7,2-1.5,2.9-2.4c0.9-0.9,1.6-1.9,2.2-3c1.2-2.2,1.9-4.7,1.9-7.3l0.1,0c0.2,2.6-0.3,5.2-1.5,7.6c-0.6,1.2-1.3,2.3-2.2,3.2
		c-0.9,1-1.9,1.8-2.9,2.6c-1,0.8-2.1,1.5-3.1,2.3l-3.2,2.2c-2.1,1.5-4.2,2.9-6.4,4.2l-3.3,2c-1.1,0.7-2.1,1.3-2.6,2.2
		c-0.1,0.2-0.2,0.5-0.2,0.6l0,0.2l0,0.2c0,0.1,0,0.2,0,0.4c0.1,0.5,0.4,0.9,0.7,1.4c0.7,0.9,1.8,1.7,2.6,2.8c1.7,2.1,2.7,4.5,4,6.7
		c0.6,1.1,1.3,2.2,2,3.1c0.8,0.9,1.7,1.7,2.8,2.3l-0.6,0.1l7.6-10.1c2.5-3.4,5.2-6.7,7.4-10.2c0.5-0.9,1.1-1.8,1.5-2.7
		c0.5-0.9,0.9-1.9,1.1-2.9c0.2-1,0.1-2-0.3-3c-0.4-1-0.9-1.9-1.2-2.9c-0.6-2.1-0.3-4.3-0.2-6.3c0-1,0-2.1-0.2-3.1
		c-0.2-1-0.6-2-1.4-2.8L210,120.2z"/>
</g>
<g>
	<path class="st11" d="M165.6,118.6c-2.6,1.2-4.4,4-4.5,6.8c0,0.9,0.1,1.8-0.3,2.6c-0.3,0.6-0.8,1.1-1.3,1.7c-1.9,2.5-1.3,6.2,0.1,9
		c1.4,2.8,3.5,5.4,4.5,8.4c0.7,2.1,0.8,4.4,1.7,6.4c1.4,3.2,4.9,5.6,5.2,9.1c2.1-5.2,5.6-9.8,10.1-13.3c0.7-0.6,1.5-1.1,1.8-2
		c0.5-1.1,0-2.4-0.8-3.3s-1.9-1.5-3-2c-3-1.6-5.7-3.6-8.2-5.8c-3.3-2.9-6.3-6.7-6.4-11.1c-0.1-2.3,0.7-4.5,1.4-6.7"/>
	<path class="st2" d="M165.6,118.6c-1.8,0.9-3.2,2.6-3.9,4.5c-0.4,1-0.5,2-0.4,3c0,0.5,0,1.1-0.1,1.6c-0.1,0.5-0.5,1-0.8,1.4
		c-0.7,0.8-1.2,1.6-1.5,2.6c-0.3,1-0.3,2-0.2,3c0.3,2,1.1,3.9,2.2,5.6c1.1,1.7,2.2,3.5,3.1,5.4c0.4,1,0.7,2,1,3c0.2,1,0.4,2,0.7,3
		c0.3,1,0.6,1.9,1.2,2.7c0.5,0.8,1.2,1.6,1.8,2.4c0.6,0.8,1.3,1.6,1.8,2.6c0.5,0.9,1,2,1.1,3.1l-1-0.2c1.8-4.5,4.6-8.6,8.2-11.9
		c0.9-0.8,1.9-1.6,2.7-2.3c0.4-0.3,0.7-0.7,0.9-1.1c0.2-0.4,0.2-0.9,0-1.3c-0.3-0.9-1-1.7-1.9-2.3c-0.9-0.6-2-1.1-3.1-1.8
		c-2.1-1.2-4-2.7-5.8-4.3c-1.8-1.6-3.6-3.3-4.9-5.3c-1.4-2-2.3-4.4-2.4-6.8c0-1.2,0.2-2.4,0.5-3.6c0.3-1.2,0.7-2.3,1.2-3.4l0.1,0
		c-0.6,2.3-1.3,4.6-1.1,6.9c0.2,2.3,1.2,4.5,2.6,6.3c1.4,1.9,3.1,3.5,4.9,5c1.8,1.5,3.8,2.8,5.8,4c1,0.6,2,1.1,3.1,1.8
		c0.5,0.3,1.1,0.7,1.5,1.2c0.5,0.5,0.8,1.1,1,1.8c0.2,0.7,0.2,1.5-0.1,2.2c-0.3,0.8-0.8,1.3-1.3,1.7c-1,0.8-1.9,1.4-2.7,2.2
		c-3.5,3.1-6.3,7-8.1,11.3l-0.8,2l-0.2-2.2c-0.2-1.9-1.4-3.6-2.6-5.2c-0.6-0.8-1.3-1.6-1.8-2.6c-0.6-0.9-1-1.9-1.2-3
		c-0.5-2.1-0.7-4.1-1.5-5.9c-0.8-1.9-1.9-3.6-3-5.4c-1.1-1.8-1.9-3.7-2.2-5.9c-0.1-1-0.1-2.1,0.2-3.2c0.1-0.5,0.4-1,0.7-1.5
		c0.3-0.4,0.6-0.9,1-1.2c0.3-0.4,0.6-0.8,0.8-1.2c0.1-0.5,0.2-1,0.2-1.5c0-1,0.1-2.1,0.5-3.1c0.7-2,2.2-3.6,4.1-4.5L165.6,118.6z"/>
</g>
<g>
	<path class="st12" d="M85.8,424c0.4-0.8,1.4-1.1,2.2-0.6c0.6,0.3,1.1,0.7,1.6,1.1c2.4,1.7,4.9,3.5,7.3,5.2c1.2,0.9,2.6,2.4,1.8,3.7
		c-0.3,0.5-0.8,0.8-1.3,0.9c-1.8,0.5-3.7-0.5-5.1-1.7c-1.4-1.2-2.6-2.7-4.2-3.7c-1.1-0.7-2.3-1.1-3-2.2
		C84.9,426.1,85.4,424.9,85.8,424z"/>
	<path class="st13" d="M85.8,424c0,0,0.1-0.1,0.3-0.4c0.2-0.2,0.6-0.5,1.1-0.5c0.3,0,0.6,0,0.9,0.2c0.3,0.2,0.6,0.3,0.9,0.5
		c0.6,0.4,1.3,0.8,2,1.3c1.5,1,3.2,2.1,5,3.3c0.9,0.6,1.9,1.2,2.8,2.1c0.4,0.5,0.8,1,0.9,1.8c0.1,0.8-0.3,1.6-0.9,2
		c-1.2,0.8-2.7,0.8-3.9,0.4c-1.2-0.4-2.3-1.1-3.1-1.9c-0.8-0.8-1.6-1.6-2.2-2.3c-0.7-0.7-1.3-1.3-2.1-1.7c-0.7-0.5-1.5-0.9-2-1.6
		c-0.2-0.3-0.5-0.6-0.5-1c0-0.3,0.1-0.6,0.1-0.9c0.2-0.5,0.4-0.9,0.5-1.1C85.7,424.1,85.8,424,85.8,424z M85.9,424
		c0,0-0.1,0.1-0.2,0.4c-0.1,0.3-0.3,0.6-0.4,1.1c-0.1,0.2-0.1,0.5,0,0.8c0,0.2,0.3,0.5,0.5,0.7c0.5,0.4,1.2,0.8,2,1.1
		c0.8,0.3,1.7,0.9,2.5,1.6c0.8,0.7,1.5,1.5,2.3,2.2c0.8,0.7,1.6,1.3,2.6,1.7c0.5,0.2,1,0.3,1.5,0.3c0.1,0,0.2,0,0.3,0
		c0.1,0,0.3-0.1,0.4-0.1c0.2-0.1,0.5-0.2,0.6-0.3c0.4-0.2,0.6-0.6,0.5-1c0-0.4-0.3-0.9-0.6-1.3c-0.7-0.8-1.6-1.4-2.5-2.1
		c-1.8-1.3-3.4-2.6-4.8-3.6c-0.7-0.6-1.3-1-1.9-1.4c-0.3-0.2-0.6-0.4-0.8-0.6c-0.3-0.1-0.5-0.2-0.8-0.2c-0.5,0-0.8,0.3-1,0.5
		C86,423.9,85.9,424,85.9,424z"/>
</g>
<path class="st14" d="M156.9,131.2c-2.9,4.4-1.3,5.7,0,10.8s3.8,9.8,6.1,14.5c5.2,10.7,9.4,21.9,12.4,33.4
	c16.1-15,25.9-35.7,41.7-51c1.4-1.3,3.1-2.7,4.9-2.4c1.3,0.2,2.2,1.1,3.2,2c7.2,6.6,15.6,11.8,24.6,15.3c0.6,0.2,1.1,0.4,1.5,0.8
	c1.4,1.4,0.3,3.7-0.8,5.4c-9.2,13.5-14.7,29.4-15.7,45.6c-0.4,5.9-0.1,12,2.7,17.2c1,1.8,2.3,3.5,2.9,5.5c0.6,1.9,0.5,3.9,0.4,5.9
	c-0.9,17.2-2.7,34.3-5.5,51.2c-0.5,2.9,0.3,7.3,0.3,10.2c0,10.6-1.4,21.2-4,31.5c-6.4,2.1-12.8,4.2-19.5,5
	c-5.1,0.6-10.2,0.5-15.2,0.4c-7.3-0.2-14.5-0.4-21.8-0.6c-6.4-0.2-12.8-0.3-19.1-1.2c-3.1-0.4-6.1-1.1-9.1-1.7
	c-9.5-2.1-18.8-4.6-28.1-7.5c-2.9-0.9-6-2.1-7.2-4.9c-0.6-1.4-0.6-3-0.5-4.5c0.7-25.2,3-50.4,5.2-75.5c0.6-7,1.3-14.1,1.9-21.1
	c1.9-21.6,3.9-43.2,4.1-64.9c0-1.9,0.1-4.1,1.3-5.6c0.8-1,2-1.5,3.2-2.1C136.8,138.1,146.8,135.8,156.9,131.2"/>
<g>
	<path class="st12" d="M212.7,430.9c3-1.7,6-3.4,8.9-5c0.6-0.3,1.3-0.7,2-0.5c1.1,0.2,1.5,1.6,1,2.6c-0.5,1-1.5,1.6-2.5,1.9
		c-1,0.3-2.1,0.4-3.1,0.8c-2.2,0.9-4,3.1-6.4,2.7c-0.2-0.8-0.4-1.7-0.7-2.5"/>
	<path class="st13" d="M212.7,430.8l6.2-3.8l1.6-0.9c0.5-0.3,1-0.6,1.6-0.9c0.6-0.3,1.4-0.5,2.1-0.2c0.7,0.4,1.1,1.1,1.2,1.9
		c0,0.4,0,0.7-0.1,1.1c-0.1,0.3-0.3,0.7-0.6,0.9c-0.5,0.5-1.1,0.9-1.7,1.2c-1.2,0.5-2.5,0.7-3.5,1.1c-0.5,0.2-1,0.4-1.5,0.7
		l-1.6,0.9c-0.5,0.3-1.1,0.6-1.8,0.8c-0.6,0.2-1.4,0.2-2,0l-0.2-0.1l0-0.2c-0.2-0.9-0.3-1.7-0.4-2.6l0.1,0c0.3,0.8,0.6,1.6,0.9,2.5
		l-0.3-0.3c1.1,0.1,2.1-0.5,3-1.1l1.5-1c0.5-0.3,1.1-0.7,1.7-0.9c1.3-0.4,2.5-0.5,3.5-0.9c0.5-0.2,1-0.5,1.3-0.8
		c0.3-0.4,0.5-0.8,0.5-1.3c0-0.5-0.2-1-0.6-1.1c-0.4-0.2-0.9-0.1-1.4,0.1c-0.5,0.2-1.1,0.5-1.6,0.8l-1.6,0.8l-6.5,3.4L212.7,430.8z"
		/>
</g>
<g>
	<path class="st2" d="M117.1,285.7c0,0,0.1,0.1,0.2,0.2c0.1,0.1,0.3,0.3,0.5,0.5c0.4,0.4,1.1,0.9,2,1.3c1.7,0.8,4.3,1.3,7,1.6
		c2.6,0.4,5.3,0.9,7.2,1.3c2,0.4,3.3,0.8,3.3,0.8s-1.4,0-3.4-0.1c-2-0.1-4.7-0.4-7.3-0.8c-1.3-0.2-2.7-0.4-3.9-0.8
		c-1.2-0.4-2.4-0.9-3.2-1.5c-0.9-0.6-1.5-1.2-1.8-1.7c-0.2-0.2-0.3-0.5-0.4-0.6C117.2,285.7,117.1,285.7,117.1,285.7z"/>
</g>
<g>
	<path class="st2" d="M200.2,296.5c0,0,0.4,0.2,1.1,0.5c0.7,0.3,1.8,0.6,3.1,0.8c1.3,0.2,2.8,0.2,4.5,0.3c1.7,0.1,3.4,0.2,5.2,0.2
		c1.8,0.1,3.5,0.2,5.2,0.2c1.7,0.1,3.2,0.2,4.5,0.1c1.3,0,2.4-0.2,3.1-0.5c0.7-0.2,1.1-0.4,1.1-0.4s-0.1,0.1-0.3,0.2
		c-0.2,0.1-0.4,0.3-0.8,0.5c-0.7,0.4-1.8,0.8-3.1,1c-1.4,0.2-2.9,0.3-4.6,0.3c-1.7,0-3.5,0-5.3-0.1c-1.8-0.1-3.6-0.2-5.2-0.4
		c-1.7-0.2-3.2-0.4-4.6-0.7c-1.3-0.3-2.4-0.9-3-1.3c-0.3-0.2-0.6-0.4-0.7-0.6C200.3,296.6,200.2,296.5,200.2,296.5z"/>
</g>
<g>
	<path class="st2" d="M175.5,189.9c0,0-0.1,0.1-0.3,0.3c-0.2,0.2-0.4,0.5-0.8,0.9c-0.6,0.8-1.5,2.1-2.2,3.8c-0.8,1.7-1.5,4-2.4,6.5
		c-0.4,1.3-1,2.6-1.4,4c-0.4,1.4-0.8,3-1.1,4.6c-0.6,3.2-1.1,6.8-1.7,10.5c-0.6,3.7-1.2,7.7-1.8,11.8c-0.6,4.1-1.2,8.3-1.7,12.6
		c-0.6,4.3-1.1,8.7-1.6,13c-0.5,4.4-0.9,8.8-1.4,13.1c-0.4,4.3-0.8,8.6-1.1,12.7c-0.4,4.1-0.7,8.1-1,11.9c-0.3,3.8-0.6,7.3-0.8,10.6
		c-0.9,13.2-1.6,22-1.6,22l-0.1,0c0,0,0-2.2,0.1-6.1c0-1.9,0.1-4.3,0.2-7c0.1-2.7,0.2-5.7,0.4-9c0.2-3.3,0.4-6.9,0.6-10.7
		c0.2-3.8,0.6-7.8,0.9-11.9c0.4-4.1,0.8-8.4,1.3-12.7c0.5-4.3,1-8.7,1.5-13.1c0.5-4.4,1.1-8.7,1.7-13c0.6-4.3,1.2-8.5,1.9-12.6
		c0.6-4.1,1.3-8,1.9-11.8c0.7-3.7,1.2-7.3,1.9-10.5c0.3-1.6,0.7-3.2,1.1-4.6c0.4-1.5,1-2.8,1.4-4c0.9-2.5,1.6-4.8,2.5-6.5
		c0.8-1.8,1.7-3,2.3-3.8c0.3-0.4,0.6-0.7,0.8-0.9C175.3,189.9,175.4,189.8,175.5,189.9L175.5,189.9z"/>
</g>
<g>
	<path class="st2" d="M165.9,278.3c0,0,0.2-0.3,0.6-0.4c0.2-0.1,0.4-0.2,0.7-0.2c0.3,0,0.6,0,0.8,0c0.3,0.1,0.5,0.2,0.8,0.3
		c0.2,0.1,0.4,0.3,0.6,0.5c0.3,0.3,0.4,0.7,0.4,0.7s-0.3,0-0.7,0c-0.2,0-0.4,0-0.6-0.1c-0.2,0-0.4-0.1-0.7-0.1
		c-0.2-0.1-0.4-0.1-0.6-0.2c-0.2-0.1-0.4-0.1-0.6-0.2C166.2,278.4,165.9,278.3,165.9,278.3z"/>
</g>
<g>
	<path class="st2" d="M173.2,207c0,0,0.1-0.3,0.4-0.4c0.1-0.1,0.3-0.2,0.5-0.2c0.2-0.1,0.4,0,0.6,0c0.4,0.1,0.9,0.3,1.1,0.5
		c0.2,0.3,0.3,0.5,0.3,0.5s-0.3,0.1-0.6,0.2c-0.2,0-0.3,0.1-0.5,0.1c-0.2,0-0.3,0-0.5,0c-0.2,0-0.3-0.1-0.5-0.1
		c-0.2,0-0.3-0.1-0.5-0.2C173.5,207.2,173.2,207,173.2,207z"/>
</g>
<g>
	<path class="st2" d="M161.1,324.9c0,0,0.4-0.2,0.9-0.4c0.3-0.1,0.6-0.2,1-0.3c0.4-0.1,0.7-0.1,1.1-0.2c0.8-0.1,1.5,0,2.1,0.1
		c0.6,0.1,1,0.3,1,0.3s-0.4,0.2-0.9,0.4c-0.6,0.2-1.3,0.4-2.1,0.4c-0.4,0-0.8,0-1.1,0c-0.4,0-0.7-0.1-1-0.1
		C161.5,325,161.1,324.9,161.1,324.9z"/>
</g>
<g>
	<path class="st2" d="M217.3,319c0,0,0.1-0.6,0.3-1.3c0.1-0.4,0.3-0.8,0.5-1.2c0.2-0.4,0.4-0.9,0.7-1.3c0.5-0.9,1.1-1.7,1.6-2.3
		c0.5-0.6,1-0.9,1-0.9s-0.1,0.6-0.3,1.3c-0.2,0.7-0.6,1.7-1.1,2.6c-0.3,0.4-0.5,0.9-0.8,1.3c-0.3,0.4-0.6,0.7-0.8,1
		C217.8,318.6,217.3,319,217.3,319z"/>
</g>
<g>
	<path class="st2" d="M218.5,257.7c0,0,0.1-0.6,0.4-1.6c0.3-1,0.6-2.4,1-4.2c0.5-1.7,1-3.7,1.6-5.8c0.6-2.1,1.3-4.4,2-6.6
		c0.7-2.2,1.4-4.5,2.1-6.6c0.7-2.1,1.3-4,1.7-5.8c0.2-0.9,0.3-1.6,0.4-2.4c0.1-0.7,0.1-1.3,0.2-1.8c0-0.5,0-0.9,0-1.2
		c0-0.3,0-0.4,0-0.4s0,0.1,0.1,0.4c0.1,0.3,0.1,0.7,0.2,1.2c0.1,1,0.1,2.5-0.1,4.3c-0.2,1.8-0.7,3.8-1.3,6c-0.6,2.1-1.3,4.4-2,6.6
		c-0.7,2.2-1.4,4.5-2.2,6.6c-0.7,2.1-1.4,4-2,5.7c-0.6,1.7-1.2,3-1.5,4C218.7,257.2,218.5,257.7,218.5,257.7z"/>
</g>
<g>
	<path class="st2" d="M124.9,208.8c0,0,0,0.7-0.1,2c-0.1,1.3-0.1,3.1-0.3,5.2c-0.1,2.2-0.3,4.7-0.5,7.4c-0.2,2.7-0.4,5.6-0.3,8.4
		c0,1.4,0.1,2.9,0.3,4.2c0.2,1.4,0.4,2.8,0.6,4.1c0.5,2.7,1,5.1,1.4,7.3c0.4,2.2,0.4,4.1,0,5.3c-0.2,0.6-0.4,1.1-0.6,1.4
		c-0.2,0.3-0.3,0.4-0.3,0.4s0.1-0.2,0.2-0.5c0.1-0.3,0.3-0.8,0.4-1.4c0.1-0.6,0.2-1.4,0.1-2.2c-0.1-0.9-0.3-1.8-0.5-2.9
		c-0.5-2.1-1.2-4.5-1.8-7.2c-0.6-2.7-1-5.6-1.1-8.5c-0.1-2.9,0.1-5.8,0.4-8.6c0.3-2.7,0.6-5.2,0.9-7.4c0.3-2.2,0.6-3.9,0.7-5.2
		C124.8,209.5,124.9,208.8,124.9,208.8z"/>
</g>
<g>
	<path class="st15" d="M241.9,221.8c0,0,0.2,0,0.4,0c0.3,0,0.7-0.2,1.1-0.6c0.4-0.4,0.8-0.9,1.3-1.5c0.5-0.6,1-1.3,1.6-2
		c0.6-0.8,1.2-1.6,1.8-2.5c0.6-0.9,1.3-1.8,1.9-2.8c0.7-1,1.3-2,2-3c0.7-1,1.3-2.1,1.9-3.2c0.6-1.1,1.2-2.2,1.8-3.3
		c0.6-1.1,1.1-2.2,1.6-3.2c0.5-1.1,1-2.1,1.4-3.1c0.4-1,0.8-1.9,1.1-2.8c0.3-0.9,0.4-1.7,0.4-2.4c0-0.7-0.2-1.4-0.5-1.8
		c-0.3-0.5-0.5-0.8-0.8-1c-0.2-0.2-0.4-0.3-0.4-0.3s0.1,0.1,0.4,0.2c0.2,0.2,0.6,0.4,0.9,0.9c0.3,0.5,0.6,1.1,0.8,1.9
		c0.1,0.8,0.1,1.7-0.1,2.7c-0.2,1-0.6,1.9-0.9,3c-0.4,1-0.8,2.1-1.3,3.2c-0.5,1.1-1,2.2-1.5,3.3c-0.6,1.1-1.1,2.2-1.8,3.4
		c-0.6,1.1-1.3,2.2-2,3.2c-0.7,1.1-1.4,2.1-2.1,3c-0.7,1-1.4,1.9-2.1,2.7c-0.7,0.9-1.4,1.6-2,2.3c-0.6,0.7-1.2,1.3-1.8,1.9
		c-0.5,0.5-1,1-1.5,1.4c-0.5,0.3-0.9,0.5-1.2,0.5C242,221.9,241.9,221.8,241.9,221.8z"/>
</g>
<g>
	<path class="st15" d="M240.6,210.9c0,0,0.1,0,0.2,0c0.1,0,0.3-0.1,0.5-0.3c0.2-0.2,0.3-0.4,0.4-0.7c0.1-0.3,0.2-0.7,0.3-1.1
		c0.2-0.8,0.4-1.8,0.7-2.9c0.2-1,0.5-2.2,0.6-3.3c0.4-2.2,0.7-4.5,0.9-6.2c0.1-0.9,0.2-1.6,0.2-2.1c0.1-0.5,0.1-0.8,0.1-0.8
		s0.3,1.1,0.4,2.9c0.1,0.9,0.1,1.9,0,3c0,0.5-0.1,1.1-0.1,1.7c-0.1,0.6-0.1,1.2-0.2,1.7c-0.1,0.6-0.2,1.2-0.4,1.7
		c-0.1,0.6-0.3,1.1-0.4,1.6c-0.3,1.1-0.7,2-1.1,2.8c-0.2,0.4-0.3,0.7-0.5,1.1c-0.2,0.3-0.4,0.6-0.7,0.7c-0.2,0.2-0.5,0.2-0.6,0.1
		C240.7,210.9,240.6,210.9,240.6,210.9z"/>
</g>
<g>
	<path class="st15" d="M269.6,215.3c0,0,0.1,0.7,0.3,1.9c0.1,1.2,0.3,2.9,0.3,4.9c0,2.1-0.1,4.5-0.8,7c-0.7,2.5-1.9,5.1-3.5,7.3
		c-1.6,2.3-3.5,4.3-5.3,6.1c-1.8,1.8-3.7,3.4-5.3,4.6c-1.6,1.2-3.1,2.1-4.2,2.6c-0.5,0.3-1,0.5-1.3,0.6c-0.3,0.1-0.5,0.2-0.5,0.2
		s0.6-0.3,1.6-1c1-0.6,2.3-1.7,3.9-3c1.5-1.3,3.2-3,5-4.8c1.7-1.8,3.6-3.8,5.1-6c1.6-2.2,2.8-4.5,3.5-6.9c0.7-2.4,1-4.7,1.2-6.7
		c0.1-2,0.2-3.7,0.2-4.9C269.6,215.9,269.6,215.3,269.6,215.3z"/>
</g>
<g>
	<path class="st15" d="M239.7,272.1c0,0,0.8,0,2.2,0c1.4,0,3.4,0,5.6-0.7c1.1-0.3,2.2-0.9,3.3-1.7c1.1-0.8,2.1-1.7,3.2-2.7
		c0.6-0.5,1.1-1,1.6-1.5c0.5-0.5,1.1-1.1,1.6-1.6c1.1-1.1,2.1-2.3,3.1-3.5c1-1.2,1.9-2.5,2.8-3.7c0.9-1.3,1.7-2.5,2.5-3.8
		c0.7-1.3,1.5-2.5,2.1-3.7c0.6-1.2,1.2-2.3,1.7-3.4c0.5-1.1,0.9-2.1,1.3-3c0.3-0.9,0.6-1.7,0.9-2.3c0.5-1.3,0.7-2.1,0.7-2.1
		s-0.2,0.8-0.5,2.1c-0.2,0.7-0.4,1.5-0.7,2.4c-0.3,0.9-0.6,2-1,3.1c-0.4,1.1-0.9,2.3-1.5,3.6c-0.6,1.2-1.2,2.5-1.9,3.9
		c-0.7,1.3-1.5,2.6-2.4,3.9c-0.9,1.3-1.8,2.6-2.9,3.8c-1,1.2-2.1,2.4-3.2,3.6c-0.5,0.6-1.1,1.1-1.7,1.6c-0.6,0.5-1.1,1-1.7,1.5
		c-1.1,1-2.3,1.9-3.5,2.6c-1.2,0.7-2.4,1.3-3.6,1.6c-1.2,0.3-2.3,0.4-3.3,0.4c-1,0-1.8-0.1-2.5-0.2
		C240.5,272.2,239.7,272.1,239.7,272.1z"/>
</g>
<g>
	<path class="st15" d="M244.6,280.2c0,0,0.3,0,0.7,0.1c0.2,0,0.5,0,0.8,0c0.3,0,0.6,0,1,0c0.4,0,0.8-0.1,1.2-0.1
		c0.4-0.1,0.8-0.2,1.3-0.3c0.4-0.1,0.9-0.2,1.4-0.4c0.5-0.1,0.9-0.3,1.4-0.5c1-0.3,1.9-0.6,2.8-0.9c0.9-0.3,1.8-0.5,2.5-0.7
		c1.5-0.4,2.5-0.5,2.5-0.5s-0.9,0.6-2.2,1.2c-1.4,0.7-3.2,1.5-5.2,2.2c-0.5,0.2-1,0.3-1.5,0.4c-0.5,0.1-1,0.2-1.5,0.3
		c-1,0.1-1.9,0.1-2.7,0c-0.4-0.1-0.7-0.1-1.1-0.2c-0.3-0.1-0.6-0.2-0.8-0.3C244.8,280.4,244.6,280.2,244.6,280.2z"/>
</g>
<g>
	<path class="st15" d="M265.8,273.1c0,0,0.2,0,0.6-0.1c0.3-0.1,0.8-0.3,1.2-0.8c0.2-0.2,0.4-0.4,0.6-0.7c0.1-0.1,0.2-0.3,0.3-0.4
		c0.1-0.2,0.2-0.3,0.3-0.5c0.2-0.4,0.3-0.7,0.5-1c0.2-0.4,0.3-0.7,0.5-1.1c0.2-0.4,0.3-0.8,0.4-1.1c0.1-0.4,0.2-0.8,0.4-1.1
		c0.2-0.7,0.4-1.4,0.6-2c0.4-1.2,0.7-2,0.7-2s0.1,0.9,0,2.1c-0.1,1.3-0.3,3-0.9,4.6c-0.2,0.4-0.4,0.8-0.6,1.2
		c-0.2,0.4-0.5,0.8-0.7,1.1l-0.2,0.2c-0.1,0.1-0.1,0.2-0.2,0.3c-0.1,0.2-0.3,0.3-0.4,0.4c-0.3,0.3-0.6,0.5-0.9,0.7
		c-0.6,0.4-1.2,0.5-1.6,0.4C265.9,273.2,265.8,273.1,265.8,273.1z"/>
</g>
<g>
	<path class="st15" d="M245.8,285c0,0,0.5-0.1,1.5-0.1c0.9-0.1,2.2-0.3,3.8-0.6c1.5-0.3,3.3-0.7,5.2-1.2c1.9-0.5,4-1,6-1.4
		c1-0.2,2.1-0.4,3.1-0.5c1-0.1,2.1-0.2,3.1-0.3c1-0.1,2,0,2.9,0.1c0.9,0.1,1.8,0.4,2.6,0.7c1.6,0.6,2.6,1.6,3.1,2.4
		c0.3,0.4,0.4,0.8,0.4,1c0.1,0.2,0.1,0.4,0.1,0.4s-0.1-0.1-0.2-0.3c-0.1-0.2-0.3-0.5-0.6-0.9c-0.6-0.7-1.6-1.4-3.1-1.8
		c-0.7-0.2-1.6-0.3-2.4-0.4c-0.9-0.1-1.8,0-2.8,0.1c-1,0.1-2,0.2-3,0.4c-1,0.1-2,0.3-3.1,0.5c-2.1,0.4-4.1,0.8-6.1,1.2
		c-1.9,0.4-3.8,0.7-5.4,0.8c-0.8,0.1-1.5,0.1-2.2,0.1c-0.6,0-1.2,0-1.7,0C246.3,285.1,245.8,285,245.8,285z"/>
</g>
<g>
	<path class="st15" d="M277.6,297.8c0,0-0.1,0-0.4,0c-0.2,0-0.6-0.1-1-0.3c-0.9-0.3-2-1.1-3.1-2.2c-0.6-0.5-1.2-1.1-1.8-1.6
		c-0.2-0.1-0.3-0.3-0.5-0.4c-0.2-0.1-0.4-0.3-0.6-0.4c-0.4-0.2-0.8-0.4-1.2-0.6c-1.7-0.8-3.7-1.2-5.7-1.4c-1-0.1-2-0.2-3-0.3
		c-1,0-2-0.1-2.9-0.1c-1.9,0-3.7,0.1-5.2,0.2c-1.5,0.2-2.8,0.3-3.7,0.5c-0.9,0.1-1.4,0.2-1.4,0.2s0.5-0.2,1.3-0.5
		c0.9-0.3,2.1-0.7,3.6-1c1.5-0.3,3.3-0.6,5.3-0.6c1,0,2-0.1,3,0c1,0,2.1,0.1,3.1,0.3c2.1,0.3,4.2,0.7,6,1.7c0.5,0.2,0.9,0.5,1.3,0.8
		c0.2,0.1,0.4,0.3,0.6,0.4c0.2,0.2,0.4,0.3,0.5,0.5c0.7,0.6,1.2,1.3,1.7,1.9c0.5,0.6,1,1.1,1.4,1.5c0.4,0.4,0.9,0.7,1.3,1
		c0.4,0.2,0.7,0.4,0.9,0.4C277.4,297.8,277.6,297.8,277.6,297.8z"/>
</g>
<g>
	<path class="st15" d="M238.9,311.7c0,0,0.8-0.2,2-0.4c0.6-0.1,1.3-0.2,2.1-0.2c0.8-0.1,1.6-0.1,2.4-0.1c1.6,0,3.3,0.1,4.5,0.3
		c1.2,0.2,2,0.4,2,0.4s-0.8,0.2-2,0.4c-1.2,0.2-2.9,0.3-4.5,0.3c-0.8,0-1.6,0-2.4-0.1c-0.8,0-1.5-0.1-2.1-0.2
		C239.7,311.9,238.9,311.7,238.9,311.7z"/>
</g>
<g>
	<path class="st15" d="M239.8,326.7c0,0,0.2-0.1,0.7-0.3c0.2-0.1,0.5-0.2,0.8-0.2c0.3-0.1,0.7-0.2,1-0.2c0.4-0.1,0.8-0.1,1.3-0.1
		c0.4,0,0.9,0,1.4,0c0.5,0.1,1,0.1,1.5,0.2c0.5,0.1,1,0.2,1.5,0.4c0.5,0.2,1,0.3,1.5,0.6c0.5,0.2,0.9,0.5,1.4,0.7
		c0.8,0.5,1.6,1.1,2.1,1.6c0.3,0.3,0.5,0.5,0.7,0.8c0.2,0.2,0.4,0.4,0.5,0.6c0.3,0.4,0.4,0.6,0.4,0.6s-0.2-0.1-0.6-0.4
		c-0.4-0.3-0.9-0.6-1.5-1c-0.3-0.2-0.7-0.4-1-0.6c-0.4-0.2-0.8-0.4-1.2-0.6c-0.8-0.4-1.7-0.7-2.7-1c-0.9-0.3-1.9-0.5-2.8-0.7
		c-0.5,0-0.9-0.1-1.3-0.2c-0.4,0-0.8-0.1-1.2-0.1c-0.7,0-1.4,0-1.8,0C240,326.7,239.8,326.7,239.8,326.7z"/>
</g>
<g>
	<path class="st2" d="M221.3,355.1c0,0,0.4-0.5,1.2-1.4c0.7-0.9,1.8-2.2,2.9-3.8c1.2-1.6,2.5-3.5,3.6-5.7c0.3-0.5,0.6-1.1,0.8-1.7
		c0.3-0.6,0.6-1.3,1.3-1.7c0.6-0.5,1.5-0.6,2.2-0.5c0.7,0.1,1.4,0.3,2,0.6c1.3,0.6,2.4,1.3,3.5,2c1.1,0.7,2.2,1.4,3.2,2.1
		c2.1,1.4,3.9,2.9,5.4,4.2c0.8,0.7,1.4,1.3,2,1.9c0.6,0.6,1,1.2,1.3,1.7c0.3,0.5,0.4,1,0.4,1.3c0,0.3,0,0.5,0,0.5l-0.1,0
		c0,0,0-0.2-0.1-0.5c-0.1-0.3-0.3-0.7-0.6-1.1c-0.3-0.4-0.8-0.9-1.4-1.4c-0.6-0.5-1.4-1-2.2-1.6c-1.6-1.2-3.5-2.5-5.5-4
		c-1-0.7-2-1.5-3.1-2.2c-1.1-0.7-2.2-1.5-3.3-2.1c-1.1-0.6-2.4-0.9-3.3-0.3c-0.4,0.3-0.8,0.8-1.1,1.3c-0.3,0.6-0.6,1.1-0.9,1.7
		c-1.3,2.2-2.7,4-3.9,5.6c-1.2,1.6-2.3,2.8-3.1,3.7C221.8,354.7,221.4,355.2,221.3,355.1L221.3,355.1z"/>
</g>
<g>
	<path class="st15" d="M233.2,331.4c0,0,0.1,0,0.2-0.1c0.1,0,0.3-0.2,0.5-0.2c0.2-0.1,0.5-0.2,0.9-0.2c0.3,0,0.7,0,1.2,0
		c0.9,0.1,1.8,0.4,2.8,1c0.9,0.5,1.8,1.2,2.6,2c0.4,0.4,0.8,0.8,1.2,1.2c0.4,0.4,0.7,0.8,1.1,1.2c0.7,0.8,1.3,1.5,1.8,2.1
		c1,1.3,1.6,2.2,1.6,2.2s-0.9-0.6-2.2-1.7c-0.6-0.5-1.3-1.2-2.1-1.8c-0.4-0.4-0.8-0.7-1.1-1.1c-0.4-0.4-0.7-0.7-1.1-1.1
		c-0.4-0.4-0.8-0.7-1.2-1c-0.4-0.3-0.8-0.6-1.2-0.9c-0.8-0.6-1.6-1-2.3-1.2c-0.4-0.1-0.7-0.2-1-0.3c-0.3,0-0.6-0.1-0.8-0.1
		c-0.2,0-0.4,0-0.6,0C233.3,331.4,233.2,331.4,233.2,331.4z"/>
</g>
<g>
	<path class="st2" d="M83.3,323.9l1.2-0.8l1.3-0.7l1.3-0.6l1.4-0.5l1.4-0.4l1.4-0.3l1.5-0.2l1.5-0.1l1.5,0l1.5,0.2l1.4,0.3l1.4,0.4
		l1.4,0.5l1.4,0.6l1.3,0.7l1.2,0.8l0.4,0.3l-0.2,0.5c-0.2,0.4-0.4,0.8-0.5,1.2c-0.2,0.4-0.3,0.8-0.5,1.3c-0.3,0.8-0.5,1.7-0.7,2.6
		c-0.2,0.9-0.3,1.8-0.3,2.7l0,1.4c0,0.5,0,0.9,0,1.4l-0.1,0c-0.1-0.4-0.3-0.9-0.4-1.4c-0.1-0.5-0.2-0.9-0.2-1.4
		c-0.1-0.9-0.1-1.9,0-2.8c0.1-1,0.2-1.9,0.5-2.8c0.3-0.9,0.6-1.8,1-2.7l0.2,0.8l-1.1-0.8l-1.2-0.7l-1.2-0.6l-1.3-0.5l-1.3-0.4
		l-1.4-0.3l-1.4-0.2l-1.4-0.1l-1.4,0l-1.4,0.1l-1.4,0.2l-1.4,0.3l-1.4,0.4l-1.3,0.5l-1.3,0.6l-1.2,0.7L83.3,323.9z"/>
</g>
<g>
	<path class="st15" d="M110.3,325.1c0,0,0,0.4,0.1,1.2c0,0.7,0.1,1.8,0.2,3c0.2,2.5,0.4,5.8,1.1,9c0.2,0.8,0.4,1.6,0.6,2.3
		c0.3,0.8,0.5,1.5,0.8,2.2c0.6,1.4,1.3,2.7,1.9,3.7c0.7,1,1.3,1.9,1.8,2.4c0.5,0.5,0.8,0.9,0.8,0.9s-0.1-0.1-0.3-0.2
		c-0.2-0.1-0.4-0.3-0.7-0.5c-0.3-0.2-0.6-0.5-1-0.9c-0.4-0.4-0.8-0.8-1.2-1.3c-0.8-1-1.7-2.2-2.4-3.7c-0.7-1.4-1.3-3.1-1.7-4.7
		c-0.4-1.7-0.6-3.4-0.6-5c-0.1-1.6,0-3.1,0.1-4.3c0.1-1.3,0.2-2.3,0.3-3C110.2,325.6,110.3,325.1,110.3,325.1z"/>
</g>
<g>
	<path class="st15" d="M120.5,330.2c0,0,0.3,0.1,0.8,0.3c0.5,0.2,1.2,0.4,2,0.6c0.4,0.1,0.9,0.2,1.3,0.4c0.5,0.1,1,0.2,1.5,0.4
		c1,0.2,2.1,0.4,3.3,0.6c1.1,0.2,2.2,0.3,3.3,0.3c0.5,0,1,0.1,1.5,0c0.5,0,1,0,1.4,0c0.9,0,1.6,0,2.1-0.1c0.5,0,0.8,0,0.8,0
		s-0.3,0.1-0.8,0.3c-0.5,0.2-1.2,0.4-2.1,0.6c-0.9,0.2-1.9,0.3-3,0.4c-0.6,0-1.1,0-1.7,0c-0.6,0-1.2-0.1-1.8-0.2
		c-0.6-0.1-1.2-0.2-1.7-0.3c-0.6-0.1-1.1-0.3-1.6-0.5c-1.1-0.4-2-0.7-2.8-1.2c-0.8-0.4-1.4-0.8-1.8-1.1
		C120.7,330.4,120.5,330.2,120.5,330.2z"/>
</g>
<g>
	<path class="st15" d="M177.6,347.8c0,0,0.1,0,0.4-0.1c0.3-0.1,0.7-0.1,1.2-0.1c1,0,2.4,0.5,4,1.1c0.8,0.3,1.6,0.5,2.6,0.6
		c0.9,0.2,1.9,0.2,3,0.3c2.1,0.2,4.4,0.4,6.6,0.7c2.2,0.3,4.5,0.5,6.6,0.8c2.1,0.3,4.1,0.7,5.7,0.8c1.6,0.1,3-0.1,3.9-0.6
		c0.4-0.2,0.7-0.5,0.9-0.6c0.2-0.2,0.3-0.3,0.3-0.3s-0.1,0.1-0.2,0.3c-0.2,0.2-0.4,0.5-0.8,0.8c-0.8,0.6-2.3,1.1-4,1.1
		c-0.9,0-1.8,0-2.8-0.1c-1-0.1-2-0.2-3-0.3c-2.1-0.2-4.4-0.4-6.6-0.7c-2.2-0.3-4.5-0.5-6.6-0.8c-1-0.1-2.1-0.3-3-0.5
		c-1-0.2-1.9-0.5-2.7-0.9c-0.8-0.4-1.5-0.7-2.1-1c-0.6-0.3-1.2-0.5-1.7-0.5c-0.5-0.1-0.9-0.1-1.1-0.1
		C177.7,347.8,177.6,347.8,177.6,347.8z"/>
</g>
<g>
	<path class="st15" d="M82.9,270.6c0,0,0.3-0.1,0.9-0.2c0.6-0.1,1.3-0.3,2.3-0.4c1-0.1,2.1-0.2,3.3-0.1c0.6,0.1,1.2,0.1,1.9,0.3
		c0.6,0.2,1.3,0.4,1.9,0.6c1.2,0.5,2.4,1.2,3.4,1.8c1,0.6,1.9,1.3,2.7,1.8c1.6,1,2.7,1.6,2.7,1.6s-0.3-0.1-0.9-0.2
		c-0.5-0.1-1.3-0.4-2.2-0.8c-0.9-0.4-1.9-0.9-3-1.4c-1.1-0.5-2.2-1.1-3.3-1.6c-0.6-0.3-1.1-0.4-1.7-0.6c-0.5-0.1-1.1-0.3-1.7-0.4
		c-1.1-0.2-2.2-0.3-3.2-0.3c-1,0-1.8-0.1-2.3-0.1C83.2,270.6,82.9,270.6,82.9,270.6z"/>
</g>
<g>
	<path class="st15" d="M97.6,265.7c0,0,0.7-0.3,1.9-0.5c0.6-0.1,1.3-0.2,2-0.3c0.7-0.1,1.5-0.1,2.3,0c0.4,0,0.8,0.1,1.2,0.1
		c0.4,0,0.8,0.1,1.1,0.2c0.7,0.1,1.4,0.3,1.9,0.5c1.1,0.3,1.8,0.7,1.8,0.7s-0.8,0-1.9,0c-0.6,0-1.2,0-1.9-0.1
		c-0.7,0-1.5-0.1-2.2-0.1c-0.8,0-1.5-0.1-2.2-0.1c-0.7,0-1.4-0.1-1.9-0.1C98.4,265.9,97.6,265.7,97.6,265.7z"/>
</g>
<g>
	<path class="st15" d="M108.1,255.3c0,0-0.2-0.5-0.4-1.2c-0.3-0.8-0.7-1.9-1.2-3.2c-0.5-1.3-1.1-2.9-1.7-4.6
		c-0.6-1.7-1.3-3.5-1.8-5.3c-0.5-1.8-1-3.7-1.2-5.5c-0.3-1.8-0.3-3.5-0.3-5c0-0.7,0.1-1.4,0.2-2c0.1-0.6,0.2-1.1,0.3-1.5
		c0.1-0.4,0.2-0.7,0.3-0.9c0.1-0.2,0.1-0.3,0.1-0.3s0,0.5-0.1,1.3c-0.1,0.8-0.1,2,0,3.4c0.1,1.4,0.3,3,0.6,4.8
		c0.4,1.7,0.8,3.5,1.4,5.4c0.5,1.8,1.1,3.6,1.7,5.3c0.5,1.7,1,3.3,1.4,4.7c0.4,1.4,0.6,2.6,0.7,3.4
		C108,254.8,108.1,255.3,108.1,255.3z"/>
</g>
<g>
	<path class="st15" d="M99.8,179.2c0,0,0,0.2,0.1,0.7c0.1,0.4,0.2,1.1,0.2,1.9c0.1,1.7,0.2,4.1,0.1,7c-0.1,2.9-0.2,6.2,0.4,9.7
		c0.3,1.7,0.9,3.4,1.8,5c0.9,1.6,2,3.2,2.9,4.9c0.9,1.7,1.8,3.4,2.6,5.2c0.8,1.8,1.4,3.5,1.9,5.3c0.6,1.7,0.9,3.5,1.3,5.1
		c0.3,1.6,0.6,3.2,0.7,4.6c0.2,1.4,0.2,2.8,0.3,3.9c0,1.2,0,2.2,0,3c0,0.8-0.1,1.5-0.1,2c0,0.4,0,0.7,0,0.7s0-0.2,0-0.7
		c0-0.5,0-1.1-0.1-1.9c0-0.8-0.1-1.9-0.2-3c-0.1-1.2-0.3-2.5-0.5-3.9c-0.2-1.4-0.5-2.9-0.9-4.5c-0.4-1.6-0.9-3.2-1.5-4.9
		c-0.6-1.7-1.2-3.4-2-5.1c-0.7-1.7-1.6-3.4-2.5-5.1c-0.9-1.7-2-3.2-2.9-5c-0.9-1.7-1.5-3.6-1.8-5.4c-0.3-1.8-0.3-3.6-0.3-5.3
		c0-1.7,0.2-3.2,0.3-4.7c0.2-2.9,0.4-5.3,0.4-6.9c0-0.8,0-1.5,0-1.9C99.8,179.4,99.8,179.2,99.8,179.2z"/>
</g>
<g>
	<path class="st15" d="M110.9,189.6c0,0,0,0.4-0.1,1c-0.1,0.3,0,0.7,0,1.2c0,0.2,0,0.4,0,0.7c0,0.2,0.1,0.5,0.1,0.8
		c0.1,0.5,0.2,1.1,0.3,1.7c0.1,0.6,0.4,1.2,0.6,1.9c0.4,1.3,1,2.7,1.5,4c0.3,0.7,0.5,1.4,0.7,2.1c0.3,0.7,0.4,1.4,0.6,2.1
		c0.2,0.7,0.3,1.4,0.4,2c0.1,0.7,0.1,1.3,0.1,1.9c0,0.3,0,0.6,0,0.8c0,0.3-0.1,0.5-0.2,0.7c-0.1,0.5-0.2,0.8-0.3,1.1
		c-0.3,0.6-0.4,0.9-0.4,0.9s0.1-0.4,0.2-1c0.1-0.3,0.1-0.7,0.1-1.1c0-0.2,0-0.5,0-0.7c0-0.2,0-0.5-0.1-0.8c0-0.5-0.2-1.1-0.3-1.7
		c-0.1-0.6-0.3-1.2-0.5-1.9c-0.2-0.6-0.4-1.3-0.7-2c-0.2-0.7-0.5-1.4-0.8-2.1c-0.3-0.7-0.5-1.4-0.8-2.1c-0.3-0.7-0.4-1.4-0.6-2.1
		c-0.2-0.7-0.3-1.4-0.4-2c-0.1-0.7-0.2-1.3-0.1-1.8c0-0.3,0-0.6,0-0.8c0-0.3,0.1-0.5,0.1-0.7c0.1-0.5,0.1-0.9,0.3-1.2
		C110.8,190,110.9,189.6,110.9,189.6z"/>
</g>
<g>
	<path class="st15" d="M112.3,155.7c0,0,0.1,0.6,0.2,1.6c0.1,1,0.3,2.5,0.3,4.3c0,1.8,0,3.9-0.3,6.1c-0.1,1.1-0.3,2.2-0.5,3.4
		c-0.2,1.1-0.4,2.3-0.6,3.4c-0.4,2.3-0.5,4.6-0.1,6.7c0.2,1.1,0.4,2,0.9,2.9c0.4,0.9,0.9,1.7,1.3,2.5c0.9,1.5,1.5,2.9,1.8,3.9
		c0.2,0.5,0.2,0.9,0.3,1.2c0,0.3,0.1,0.4,0.1,0.4s0-0.1-0.1-0.4c-0.1-0.3-0.2-0.6-0.4-1.1c-0.2-0.5-0.5-1-0.9-1.6
		c-0.4-0.6-0.8-1.3-1.3-2c-0.5-0.7-1-1.5-1.5-2.5c-0.5-0.9-0.9-2-1.1-3.1c-0.5-2.3-0.4-4.7,0-7.1c0.2-1.2,0.4-2.3,0.6-3.5
		c0.2-1.1,0.5-2.3,0.6-3.3c0.4-2.2,0.6-4.2,0.7-5.9c0.1-1.8,0.2-3.2,0.2-4.3C112.3,156.3,112.3,155.7,112.3,155.7z"/>
</g>
<g>
	<path class="st15" d="M184.7,148.2c0,0-0.2-0.1-0.5-0.1c-0.3,0-0.7,0.2-1.1,0.6c-0.4,0.4-0.7,1-1,1.8c-0.2,0.7-0.3,1.7-0.5,2.6
		c-0.7,3.9-1.7,9.1-2.7,14.4c-1,5.2-1.9,10.5-2.5,14.4c-0.3,2-0.6,3.6-0.8,4.8c-0.2,1.1-0.3,1.8-0.3,1.8s0.1-2.7,0.4-6.7
		c0.2-2,0.4-4.3,0.8-6.8c0.2-1.2,0.3-2.5,0.6-3.8c0.2-1.3,0.4-2.6,0.7-3.9c0.5-2.6,1-5.2,1.6-7.7c0.6-2.4,1.1-4.7,1.7-6.6
		c0.3-1,0.5-1.9,0.8-2.6c0.3-0.8,0.8-1.4,1.2-1.8c0.5-0.4,1-0.5,1.3-0.5C184.6,148.1,184.7,148.2,184.7,148.2z"/>
</g>
<g>
	<path class="st16" d="M101.5,336.9c-5.8,0.5-11.4,2.8-15.9,6.6c-0.4,0.4-0.9,0.8-1.1,1.3c-0.2,0.5-0.2,1.1-0.1,1.6
		c0.4,4,1,7.9,1.9,11.7c0.3,1.4,0.8,3,1.9,3.9c-0.1-1.4,0.2-2.8,0.9-4c1.5-2.4,4.2-3.6,6.8-4.6c2.4-0.9,4.9-1.8,7.4-1.3
		c-0.3-4.8-0.7-9.5-1-14.3c0-0.4-0.1-0.8-0.3-1.1"/>
	<path class="st2" d="M101.6,336.9c-3.1,0.3-6.1,1.1-8.9,2.4c-1.4,0.6-2.7,1.4-4,2.2c-0.6,0.4-1.3,0.9-1.9,1.3
		c-0.6,0.5-1.2,1-1.7,1.5c-0.4,0.5-0.4,1.2-0.3,2c0.1,0.8,0.2,1.5,0.3,2.3c0.2,1.5,0.4,3,0.7,4.6c0.3,1.5,0.6,3,1,4.5
		c0.2,0.7,0.4,1.5,0.7,2.1c0.3,0.7,0.7,1.3,1.2,1.7l-0.9,0.5c-0.1-0.9,0-1.8,0.2-2.7c0.1-0.4,0.3-0.9,0.5-1.3
		c0.1-0.1,0.1-0.2,0.2-0.3l0.1-0.2l0.1-0.1c0.1-0.2,0.2-0.4,0.4-0.6c1.1-1.5,2.7-2.4,4.3-3.2c1.6-0.7,3.1-1.3,4.8-1.8
		c1.7-0.5,3.5-0.8,5.3-0.4l-0.7,0.6c-0.1-2.6-0.3-5.2-0.4-7.8l-0.1-3.9l0-1.9l0-1c0-0.3-0.1-0.6-0.3-0.9l0.1-0.1
		c0.3,0.2,0.4,0.6,0.4,0.9l0.1,1l0.2,1.9l0.4,3.9c0.3,2.6,0.5,5.1,0.8,7.7l0.1,0.8l-0.8-0.1c-1.5-0.3-3.1,0-4.7,0.5
		c-0.8,0.2-1.6,0.5-2.3,0.8c-0.8,0.3-1.6,0.6-2.3,0.9c-0.7,0.3-1.5,0.7-2.1,1.2c-0.7,0.4-1.3,1-1.7,1.5c-0.1,0.1-0.2,0.3-0.4,0.5
		l-0.1,0.1l-0.1,0.1c-0.1,0.1-0.1,0.2-0.1,0.2c-0.2,0.3-0.3,0.7-0.4,1.1c-0.2,0.7-0.3,1.5-0.3,2.3l0.1,1.3l-1-0.8
		c-0.7-0.6-1.1-1.3-1.4-2.1c-0.3-0.8-0.5-1.5-0.7-2.3c-0.3-1.5-0.6-3-0.9-4.6c-0.3-1.5-0.5-3.1-0.6-4.6c-0.1-0.8-0.2-1.5-0.2-2.3
		c0-0.4-0.1-0.8,0-1.2c0-0.4,0.2-0.9,0.5-1.2c0.6-0.7,1.2-1.1,1.8-1.6c0.6-0.5,1.3-0.9,1.9-1.3c1.3-0.8,2.7-1.5,4.2-2.1
		c2.9-1.2,5.9-1.9,9-2.2L101.6,336.9z"/>
</g>
<g>
	<path class="st17" d="M85.4,348.1c2-1.4,4.1-2.7,6.3-4c0.5-0.3,1.1-0.7,1.6-1c1.1-0.7,2.3-1.4,3.6-1.4c0,1.8,0.3,3.6,1.1,5.3
		c-2.8-0.1-5.5,1.5-7.4,3.6c-1.8,2.1-3,4.8-3.8,7.5"/>
	<path class="st18" d="M85.4,348.1l5.5-3.8c0.5-0.3,0.9-0.6,1.4-0.9l1.4-0.9c1-0.6,2-1.2,3.3-1.2l0.4,0l0,0.5c0,1.7,0.4,3.5,1.1,5
		l0.4,0.8l-0.9,0c-1.3,0-2.6,0.4-3.7,1c-0.6,0.3-1.1,0.7-1.6,1.1c-0.3,0.2-0.5,0.4-0.8,0.6c-0.2,0.2-0.5,0.5-0.7,0.7
		c-0.5,0.5-0.9,1-1.3,1.6c-0.4,0.6-0.7,1.1-1.1,1.7c-0.7,1.2-1.3,2.5-1.9,3.8l-0.1,0c0.3-1.4,0.6-2.8,1.2-4.1c0.3-0.7,0.6-1.3,0.9-2
		c0.2-0.3,0.4-0.6,0.6-0.9c0.2-0.3,0.4-0.6,0.7-0.9c0.2-0.3,0.5-0.6,0.8-0.8c0.3-0.3,0.5-0.5,0.8-0.7c0.6-0.5,1.2-0.9,1.9-1.2
		c1.3-0.7,2.9-1,4.4-0.9l-0.5,0.8c-0.7-1.7-1.1-3.6-1-5.5l0.4,0.4c-1,0-2,0.5-2.9,1l-1.4,0.8c-0.5,0.3-1,0.5-1.4,0.8l-5.7,3.4
		L85.4,348.1z"/>
</g>
<g>
	<path class="st1" d="M103.6,351.4c-4.3,0.4-8.5,1.9-12.1,4.3c-1.1,0.8-2.2,1.7-2.6,2.9c-0.2,0.7-0.3,1.4-0.3,2.1
		c-0.1,3.2-0.1,6.6,1.3,9.6c0.8-1.8,1.7-3.6,2.5-5.4c0.7-1.5,1.4-3.1,2.5-4.4c0.4-0.5,0.8-0.9,1.2-1.4c0.4-0.5,0.8-1,1.2-1.4
		c2-2.2,4.9-3.3,7.8-4.3c0.3-0.9-0.4-1.9-1.3-2"/>
	<path class="st2" d="M103.6,351.4c-2.4,0.2-4.7,0.8-7,1.7c-1.1,0.4-2.2,1-3.2,1.6c-1,0.6-2,1.3-2.9,2c-0.4,0.4-0.8,0.8-1.1,1.3
		c-0.3,0.5-0.4,1-0.5,1.6c-0.1,0.6,0,1.2-0.1,1.8l0,1.8c0,2.4,0.3,4.8,1.4,6.9l-0.6,0l2.4-5.4c0.4-0.9,0.8-1.8,1.3-2.7
		c0.3-0.4,0.5-0.9,0.8-1.3c0.3-0.4,0.7-0.8,1-1.2c0.3-0.4,0.7-0.7,1-1.1c0.3-0.4,0.6-0.8,1-1.1c0.3-0.4,0.7-0.7,1.1-1
		c0.4-0.3,0.8-0.6,1.3-0.9c1.8-1,3.7-1.7,5.6-2.3l-0.1,0.1c0.3-0.8-0.3-1.8-1.2-2l0-0.1c0.9,0.1,1.7,1.1,1.4,2.1l0,0.1l-0.1,0
		c-1.8,0.7-3.7,1.5-5.3,2.5c-0.4,0.3-0.8,0.5-1.2,0.9c-0.4,0.3-0.7,0.6-1,1l-0.9,1.2c-0.3,0.4-0.6,0.8-1,1.1
		c-0.3,0.4-0.7,0.7-0.9,1.1c-0.3,0.4-0.5,0.8-0.8,1.2c-0.5,0.8-0.9,1.7-1.3,2.6l-2.5,5.4l-0.3,0.7l-0.3-0.7
		c-1.1-2.3-1.3-4.8-1.3-7.2l0-1.8c0-0.6,0-1.2,0.1-1.8c0.1-0.6,0.2-1.3,0.6-1.8c0.3-0.5,0.8-1,1.2-1.4c0.5-0.4,1-0.8,1.5-1.1
		c0.5-0.3,1-0.6,1.6-0.9c1.1-0.6,2.2-1.1,3.3-1.5C98.9,352.1,101.2,351.5,103.6,351.4L103.6,351.4z"/>
</g>
<g>
	<path class="st19" d="M223,360.5c6.1,1.9,11.6,5.7,15.4,10.7c0.3,0.3,0.5,0.8,0.5,1.2c0,0.2-0.2,0.4-0.3,0.6
		c-1.1,1.8-2.2,3.5-3.3,5.3c-0.1,0.1-0.1,0.2-0.2,0.3c-0.3,0.2-0.7-0.2-0.9-0.5c-1.1-1.9-2.5-3.6-4.1-5c-1-0.9-2.2-1.7-2.9-2.9
		c-0.8-1.2-1.1-2.7-1.8-4c-1-1.9-2.9-3.6-2.6-5.7"/>
	<path class="st2" d="M223,360.5c0,0,0.2,0,0.5,0.1c0.4,0.1,0.9,0.2,1.5,0.4c0.7,0.2,1.4,0.5,2.3,0.9c0.9,0.4,1.9,0.8,2.9,1.5
		c2.1,1.2,4.4,2.8,6.4,5c0.5,0.5,1,1.1,1.5,1.7c0.2,0.3,0.5,0.6,0.7,0.9c0.2,0.3,0.6,0.8,0.5,1.5c-0.1,0.3-0.2,0.6-0.3,0.7l-0.3,0.5
		l-0.6,1c-0.4,0.7-0.8,1.3-1.2,2l-0.6,1l-0.3,0.5l-0.2,0.2c-0.1,0.1-0.1,0.2-0.2,0.3c-0.1,0.1-0.3,0.3-0.6,0.4
		c-0.3,0.1-0.6,0-0.7-0.1c-0.3-0.2-0.5-0.4-0.7-0.6l-0.6-1c-0.8-1.3-1.7-2.4-2.8-3.4c-1-1-2.2-1.8-3.1-3c-0.9-1.1-1.3-2.5-1.7-3.6
		c-0.4-1.1-0.9-2-1.4-2.8c-0.5-0.8-1-1.5-1.2-2.2c-0.3-0.7-0.3-1.2-0.3-1.6c0-0.2,0-0.3,0-0.4c0-0.1,0-0.1,0-0.1s0,0,0,0.1
		c0,0.1,0,0.2,0,0.4c0,0.4,0.2,0.9,0.5,1.5c0.3,0.6,0.8,1.3,1.4,2c0.6,0.7,1.3,1.7,1.7,2.8c0.5,1.1,0.9,2.3,1.7,3.2
		c0.8,0.9,2.1,1.7,3.2,2.8c1.1,1,2.1,2.2,3,3.6c0.2,0.3,0.5,0.7,0.6,1c0.1,0.1,0.2,0.2,0.2,0.2c0,0,0,0-0.2,0
		c-0.1,0-0.1,0.1-0.1,0.1c0.4-0.6,0.8-1.3,1.2-1.9c0.4-0.7,0.8-1.3,1.3-2l0.6-1c0.2-0.3,0.5-0.7,0.5-0.8c0.1-0.2-0.5-0.9-0.9-1.5
		c-0.5-0.6-0.9-1.1-1.4-1.7c-2-2.1-4-3.9-6-5.1c-1.9-1.3-3.7-2.2-4.9-2.7c-0.6-0.3-1.1-0.5-1.5-0.6C223.2,360.5,223,360.5,223,360.5
		z"/>
</g>
<g>
	<path class="st4" d="M92.7,374.7c0,0,0.5-0.4,1.3-0.8c0.4-0.2,0.9-0.4,1.4-0.5c0.5-0.2,1.1-0.2,1.7-0.3c0.3,0,0.6,0,0.9,0
		c0.3,0,0.6,0,0.9,0c0.6,0,1.1,0.1,1.5,0.2c0.9,0.2,1.4,0.5,1.4,0.5s-0.6,0.1-1.5,0.2c-0.4,0.1-0.9,0.1-1.5,0.2
		c-0.5,0.1-1.1,0.1-1.6,0.2c-0.6,0.1-1.1,0.1-1.6,0.1c-0.5,0.1-1,0.1-1.5,0.1C93.4,374.7,92.7,374.7,92.7,374.7z"/>
</g>
<g>
	<path class="st15" d="M111.3,290c0,0,0.1,0.6,0.1,1.6c0.1,1,0.2,2.4,0.1,4.2c0,1.7-0.1,3.7-0.3,5.9c-0.2,2.1-0.5,4.4-1.1,6.7
		c-0.3,1.1-0.7,2.3-1.2,3.3c-0.5,1-0.8,1.9-0.6,2.8c0.1,1,0.4,2,0.5,3c0,0.3,0.1,0.5,0.1,0.8c0,0.2,0,0.5,0,0.7c0,0.5-0.1,1-0.3,1.4
		c-0.3,0.9-0.7,1.6-1.2,2.2c-0.4,0.6-0.9,1-1.3,1.3c-0.4,0.3-0.8,0.5-1,0.6c-0.3,0.1-0.4,0.2-0.4,0.2l-0.1-0.1c0,0,0.1-0.1,0.3-0.2
		c0.2-0.2,0.5-0.4,0.8-0.8c0.3-0.4,0.7-0.8,1-1.4c0.3-0.6,0.6-1.3,0.8-2c0.1-0.4,0.1-0.8,0.1-1.2c0-0.2,0-0.4,0-0.7
		c0-0.2-0.1-0.4-0.1-0.6c-0.2-0.9-0.5-1.9-0.6-3.1c0-0.3,0-0.6,0-0.9c0-0.2,0-0.4,0.1-0.5l0-0.2c0-0.1,0-0.2,0.1-0.3
		c0.2-0.6,0.5-1.1,0.7-1.6c0.5-1,0.9-2,1.3-3c0.6-2.1,1-4.4,1.4-6.5c0.3-2.1,0.5-4.1,0.6-5.8c0.1-1.7,0.1-3.1,0.1-4.1
		c0-1,0-1.6,0-1.6L111.3,290z"/>
</g>
<g>
	<path class="st15" d="M231.7,327.1c0,0-0.4,0.9-0.8,2.3c-0.4,1.4-1,3.3-1,5.2c0,1,0.1,1.9,0.3,2.7c0.2,0.8,0.4,1.6,0.6,2.3
		c0.1,0.3,0.2,0.6,0.4,0.9c0.1,0.3,0.2,0.5,0.3,0.7c0.2,0.4,0.3,0.6,0.3,0.6l-0.1,0.1c0,0-0.2-0.1-0.6-0.4c-0.2-0.1-0.4-0.3-0.6-0.5
		c-0.2-0.2-0.4-0.5-0.7-0.8c-0.4-0.7-0.8-1.5-1-2.5c-0.2-1-0.1-2,0-3.1c0.3-2,1-3.9,1.6-5.3c0.6-1.3,1.1-2.2,1.1-2.2L231.7,327.1z"
		/>
</g>
<g>
	<path class="st2" d="M162.5,339.8c0,0-0.2-0.5-0.4-1.3c-0.3-0.8-0.5-1.8-0.8-2.9c-0.1-0.5-0.3-1-0.3-1.6c0-0.5,0-1,0-1.4
		c0.1-0.8,0.4-1.4,0.4-1.4l0.1,0c0,0,0.3,0.5,0.5,1.3c0.1,0.4,0.2,0.8,0.3,1.3c0,0.5,0,1,0,1.6c0,1.1,0.1,2.1,0.2,2.9
		c0.1,0.8,0.1,1.3,0.1,1.3L162.5,339.8z"/>
</g>
<g>
	<g>
		<path class="st1" d="M190.7,28c0.5,0,1.1,0,1.6,0.1c10.3,0.9,18.4,4.6,25.9,11c2.7,2.3,4.5,5.4,5.1,8.8c1.2,7.4,2,15,0.1,22.2
			c-1.4,5.4-1.3,10.5-1.9,16c-0.5,3.7,0.2,7.6-0.8,11.2c-1.2,4.4-4.5,7.9-7.7,11.2c-2.6,2.7-5.3,5.4-7.9,8.1
			c-1.1,1.2-2.3,2.3-3.6,3.4c-2.4,2-5.5,3.1-8.6,3.2l0,0h-4.4l0,0c-3.1-0.1-6.2-1.2-8.6-3.2c-1.3-1.1-2.4-2.2-3.6-3.4
			c-2.6-2.7-5.3-5.4-7.9-8.1c-3.2-3.3-6.6-6.8-7.7-11.2c-1-3.6-0.4-7.5-0.8-11.2c-0.7-5.5-0.5-10.6-1.9-16
			c-1.9-7.2-1.2-14.8,0.1-22.2c0.6-3.4,2.4-6.6,5.1-8.8c7.6-6.4,15.7-10.1,25.9-11c0.5-0.1,1.1-0.1,1.6-0.1"/>
		<path class="st2" d="M190.7,28c0,0,0.3,0,0.8,0c0.5,0,1.2,0.1,2.2,0.2c1.9,0.2,4.8,0.6,8.2,1.6c3.5,1,7.5,2.8,11.7,5.6
			c1,0.7,2.1,1.5,3.2,2.3c1,0.8,2.2,1.7,3.1,2.8c1.9,2.1,3.3,4.9,3.7,8.1c0.5,3.1,0.9,6.3,1.1,9.6c0.2,3.3,0,6.8-0.7,10.3
			c-0.4,1.8-0.9,3.5-1.1,5.3c-0.3,1.8-0.4,3.6-0.6,5.5c-0.1,1.9-0.2,3.7-0.4,5.6c-0.1,0.9-0.2,1.9-0.3,2.8c-0.1,0.9-0.1,1.9-0.1,2.9
			c0,1.9,0,3.9-0.4,5.9c-0.4,2-1.2,3.9-2.3,5.6c-2.2,3.4-5.2,6.2-8,9.1c-1.4,1.5-2.8,2.9-4.3,4.4l-1.1,1.1l-0.3,0.3l-0.3,0.3
			l-0.6,0.5l-2.2,2.1c-1.5,1.5-3.5,2.6-5.5,3.2c-1,0.3-2.1,0.5-3.1,0.6c-1.1,0.1-2.1,0-3.1,0.1l-1.5,0c-0.3,0-0.5,0-0.8,0
			c-0.3,0-0.5,0-0.8,0c-1.1-0.1-2.1-0.3-3.1-0.6c-2-0.6-4-1.7-5.5-3.2l-2.2-2.1l-0.6-0.5l-0.3-0.3l-0.3-0.3l-1.1-1.1
			c-1.4-1.5-2.9-2.9-4.3-4.4c-2.8-2.9-5.8-5.6-8.1-9.1c-1.1-1.7-2-3.7-2.3-5.7c-0.4-2-0.4-4-0.4-6c0-1,0-1.9-0.1-2.9
			c0-0.9-0.2-1.9-0.3-2.8c-0.2-1.9-0.3-3.8-0.4-5.6c-0.1-1.8-0.3-3.7-0.6-5.4c-0.1-0.9-0.3-1.8-0.5-2.6l-0.3-1.3
			c-0.1-0.4-0.2-0.9-0.3-1.3c-0.7-3.6-0.8-7.1-0.7-10.4c0.2-3.4,0.6-6.6,1.1-9.6c0.4-3.1,1.8-6,3.8-8.2c1-1.1,2.1-1.9,3.1-2.8
			c1.1-0.8,2.1-1.6,3.2-2.3c4.2-2.8,8.3-4.6,11.8-5.5c3.5-1,6.3-1.4,8.2-1.6c1-0.1,1.7-0.1,2.2-0.1c0.5,0,0.8,0,0.8,0l0,0.1
			c0,0-0.3,0-0.8,0c-0.5,0-1.2,0.1-2.2,0.2c-1.9,0.3-4.7,0.7-8.1,1.8c-3.4,1.1-7.4,2.9-11.5,5.7c-1,0.7-2.1,1.5-3.1,2.3
			c-1,0.9-2.1,1.7-3,2.7c-1.8,2.1-3.1,4.7-3.5,7.8c-0.5,3-0.9,6.2-1,9.5c-0.1,3.3,0,6.7,0.8,10.1c0.1,0.4,0.2,0.9,0.3,1.3l0.3,1.3
			c0.2,0.9,0.4,1.8,0.6,2.7c0.3,1.8,0.5,3.7,0.6,5.5c0.1,1.9,0.2,3.7,0.4,5.6c0.1,0.9,0.2,1.9,0.3,2.9c0.1,1,0.1,2,0.1,2.9
			c0,1.9,0,3.9,0.4,5.7c0.4,1.9,1.1,3.6,2.2,5.2c2.1,3.2,5.1,6,7.9,8.9c1.4,1.5,2.8,2.9,4.3,4.4l1.1,1.1l0.3,0.3l0.3,0.2l0.6,0.5
			l2.2,2.1c1.4,1.4,3.2,2.4,5.1,3c0.9,0.3,1.9,0.5,2.9,0.6c0.2,0,0.5,0,0.8,0.1l0.7,0l1.5,0c1,0,2.1,0,3,0c1-0.1,2-0.3,2.9-0.6
			c1.9-0.6,3.7-1.5,5.1-2.9l2.2-2.1l0.6-0.5l0.3-0.2l0.3-0.3l1.1-1.1c1.4-1.5,2.9-2.9,4.3-4.4c2.8-2.9,5.8-5.6,8-8.9
			c1.1-1.6,1.8-3.4,2.2-5.3c0.4-1.9,0.4-3.8,0.4-5.8c0-1,0-1.9,0.1-2.9c0.1-1,0.2-1.9,0.3-2.9c0.2-1.9,0.3-3.8,0.5-5.6
			c0.1-1.9,0.3-3.7,0.6-5.5c0.3-1.8,0.8-3.6,1.2-5.3c0.7-3.4,0.9-6.9,0.7-10.2c-0.1-3.3-0.5-6.5-1-9.6c-0.4-3.1-1.7-5.8-3.5-7.9
			c-0.9-1.1-2-1.9-3-2.7c-1-0.8-2.1-1.6-3.1-2.3c-4.1-2.8-8.2-4.6-11.6-5.7c-3.4-1.1-6.3-1.5-8.2-1.7c-1-0.1-1.7-0.2-2.2-0.2
			c-0.5,0-0.8,0-0.8,0L190.7,28z"/>
	</g>
</g>
<g>
	<path class="st20" d="M201.8,71.4c0.9-0.9,1.9-1.3,3-2c0.3-0.2,0.9-0.4,1.3-0.5c0.4-0.1,1.1-0.3,1.5-0.4c1.5-0.2,1.9-0.5,3.2-0.3
		c0.6,0.1,1.4,0.3,1.9,0.4c1.4,0.3,2.4,1.1,3.4,1.8c0.1,0.1,0.1,0.2,0.1,0.2c0,0.1-0.1,0.2-0.1,0.2c-1.1,1-2.3,2-3.7,2.7
		c-0.5,0.2-1,0.5-1.6,0.6c-0.7,0.2-1.4,0.2-2.2,0.3c-3.7,0.2-5.5-0.4-8.2-0.9c-0.1,0-0.2-0.1-0.3-0.2c-0.1-0.1,0-0.2,0.1-0.2
		C200.9,72.8,201.3,72.1,201.8,71.4z"/>
	<path d="M201.8,71.4c0.8-0.8,1.7-1.3,2.7-1.9c0.5-0.3,1-0.5,1.5-0.7c0.3-0.1,0.5-0.1,0.8-0.2c0.3-0.1,0.5-0.2,0.8-0.2l0,0l0,0
		c0.4-0.1,0.9-0.1,1.3-0.2c0.4-0.1,0.9-0.2,1.3-0.2c0.4,0,0.9,0.1,1.3,0.2c0.4,0.1,0.8,0.2,1.3,0.3l0,0l0,0c1.3,0.3,2.4,1.1,3.5,1.9
		l0,0l0,0c0.1,0.1,0.2,0.1,0.2,0.3c0,0,0,0.1,0,0.1c0,0,0,0.1-0.1,0.1c0,0-0.1,0.1-0.1,0.1l0,0l0,0c-1,1-2.2,1.8-3.4,2.5
		c-0.3,0.2-0.6,0.3-1,0.5c-0.3,0.1-0.6,0.3-1,0.3l-2.1,0.3c-0.7,0.1-1.4,0.1-2.1,0c-0.7,0-1.4-0.1-2.1-0.2c-1.4-0.2-2.8-0.5-4.1-0.8
		l0,0c-0.1,0-0.1,0-0.2-0.1c-0.1,0-0.1-0.1-0.1-0.1c0-0.1,0-0.1,0.1-0.2c0-0.1,0.1-0.1,0.1-0.1c0.2-0.2,0.3-0.4,0.5-0.6
		C201.2,72.2,201.5,71.8,201.8,71.4z M201.8,71.4c-0.3,0.4-0.6,0.8-0.9,1.2c-0.2,0.2-0.3,0.4-0.5,0.6c-0.1,0.1-0.2,0.2-0.2,0.3
		c0.1,0.1,0.2,0.2,0.3,0.2l0,0c1.4,0.2,2.8,0.6,4.1,0.7c0.7,0.1,1.4,0.1,2.1,0.1c0.7,0,1.4,0,2.1-0.1l2.1-0.3c0.3-0.1,0.6-0.2,1-0.3
		c0.3-0.1,0.6-0.3,0.9-0.5c1.2-0.7,2.3-1.6,3.3-2.5l0,0c0.1-0.1,0.1-0.1,0.1-0.1c0,0,0-0.1-0.1-0.1l0,0c-1.1-0.7-2.1-1.5-3.4-1.8
		l0,0c-0.9-0.1-1.7-0.5-2.6-0.4c-0.8,0-1.7,0.3-2.6,0.3l0,0c-0.3,0-0.5,0.1-0.8,0.2c-0.3,0.1-0.5,0.1-0.8,0.2
		c-0.5,0.1-1,0.3-1.5,0.6C203.6,70.2,202.6,70.7,201.8,71.4z"/>
</g>
<g>
	<path class="st21" d="M216.5,70.8c0,0,0,0.2,0.1,0.5c0.1,0.3,0.1,0.7,0,1.1c0,0.2-0.1,0.4-0.1,0.6c-0.1,0.2-0.1,0.3-0.2,0.5
		c-0.1,0.2-0.3,0.4-0.3,0.4l0,0c0,0,0-0.2,0.1-0.5c0-0.2,0.1-0.3,0.1-0.5c0.1-0.2,0.1-0.3,0.2-0.6c0.1-0.4,0.1-0.7,0.1-1
		C216.5,71,216.5,70.9,216.5,70.8L216.5,70.8z"/>
</g>
<path class="st22" d="M206.3,69c-0.9,0.9-1.1,2.8-0.2,4c0.7,0.9,1.9,1.3,2.9,1.3c0.2,0,0.4,0,0.6-0.2c0.2-0.1,0.6-0.2,0.9-0.5
	c0.5-0.5,0.4-0.4,0.7-1.2c0.2-0.6,0.2-1.1,0.2-1.7c0-0.4,0-0.9-0.1-1.2c-0.2-0.6-0.8-0.9-1.4-1.1c-0.6-0.2-1.1-0.1-1.8,0
	c-0.5,0.1-1.1,0.2-1.6,0.3C206.5,68.7,206.3,68.7,206.3,69"/>
<g>
	<g>
		<path d="M205,71.8c0.6,1.4,1.9,2.1,3.3,2.2c0.4,0,1.2-0.6,0.4-0.6c-1.1-0.1-2.1-0.9-2.6-1.9C206,71.1,204.9,71.6,205,71.8
			L205,71.8z"/>
	</g>
</g>
<g>
	<path class="st20" d="M181.1,72.4c0.1,0.1,0.1,0.2,0.1,0.2c-0.1,0.1-0.2,0.2-0.3,0.2c-2.7,0.5-4.5,1.1-8.2,0.9
		c-0.8-0.1-1.5-0.2-2.2-0.3c-0.6-0.2-1.1-0.4-1.6-0.6c-1.4-0.7-2.6-1.7-3.7-2.7c-0.1-0.1-0.1-0.2-0.1-0.2c0-0.1,0.1-0.2,0.1-0.2
		c1-0.7,2.1-1.5,3.4-1.8c0.6-0.1,1.4-0.3,1.9-0.4c1.4-0.2,1.7,0.2,3.2,0.3c0.4,0.1,1.1,0.3,1.5,0.4c0.4,0.1,1,0.3,1.3,0.5
		c1.1,0.6,2.1,1.1,3,2C180.1,71.3,180.5,71.9,181.1,72.4z"/>
	<path d="M181.1,72.4c0,0,0.1,0.1,0.1,0.1c0,0.1,0,0.1,0,0.2c-0.1,0.1-0.2,0.1-0.3,0.1l0,0c-1.4,0.2-2.7,0.6-4.1,0.8
		c-1.4,0.2-2.8,0.2-4.2,0.1l-2.1-0.3c-0.4-0.1-0.7-0.2-1-0.3c-0.3-0.1-0.7-0.3-1-0.5c-1.2-0.7-2.4-1.6-3.4-2.5l0,0l0,0
		c0,0-0.1-0.1-0.1-0.1c0,0-0.1-0.1-0.1-0.2c0,0,0-0.1,0-0.1c0,0,0-0.1,0-0.1c0,0,0.1-0.1,0.1-0.1l0,0l0,0c1-0.8,2.2-1.6,3.5-1.9l0,0
		l0,0c0.8-0.1,1.7-0.5,2.6-0.4c0.5,0,0.9,0.1,1.3,0.2c0.4,0.1,0.8,0.2,1.3,0.2l0,0l0,0c0.3,0.1,0.5,0.1,0.8,0.2
		c0.3,0.1,0.5,0.2,0.8,0.2c0.5,0.2,1.1,0.4,1.5,0.7c0.9,0.5,1.9,1.1,2.7,1.9l0,0l0,0C180.1,71.2,180.5,71.9,181.1,72.4z M181.1,72.5
		c-0.6-0.6-1.1-1.2-1.5-1.9l0,0c-0.8-0.7-1.8-1.3-2.7-1.8c-0.5-0.3-1-0.4-1.5-0.6l-0.4-0.1l-0.4-0.1c-0.3-0.1-0.5-0.1-0.8-0.2l0,0
		c-0.9-0.1-1.7-0.4-2.6-0.4c-0.8,0-1.7,0.3-2.6,0.4l0,0c-1.3,0.3-2.3,1-3.4,1.8l0,0l-0.1,0.1c0,0,0,0,0,0c0,0,0,0,0,0c0,0,0,0,0,0
		c0,0,0.1,0.1,0.1,0.1l0,0c1,1,2.1,1.8,3.3,2.5c0.3,0.2,0.6,0.3,0.9,0.5c0.3,0.1,0.6,0.3,1,0.3l2.1,0.3c1.4,0.1,2.8,0.1,4.2-0.1
		c1.4-0.2,2.8-0.5,4.1-0.7l0,0c0.1,0,0.2-0.1,0.3-0.1C181.2,72.6,181.1,72.5,181.1,72.5z"/>
</g>
<g>
	<path class="st21" d="M164.9,69.9c0,0.1,0,0.2,0,0.5c0,0.3,0,0.6,0.1,1c0.1,0.2,0.1,0.4,0.2,0.6c0.1,0.2,0.1,0.3,0.1,0.5
		c0.1,0.2,0.1,0.5,0.1,0.5l0,0c0,0-0.1-0.2-0.3-0.4c-0.1-0.2-0.1-0.3-0.2-0.5c-0.1-0.2-0.1-0.3-0.1-0.6c-0.1-0.4-0.1-0.8,0-1.1
		C164.9,70.1,164.9,69.9,164.9,69.9L164.9,69.9z"/>
</g>
<path class="st22" d="M175,68.1c0-0.2-0.1-0.3-0.3-0.2c-0.5-0.2-1.1-0.2-1.6-0.3c-0.6-0.1-1.2-0.2-1.8,0c-0.6,0.2-1.1,0.5-1.4,1.1
	c-0.1,0.3-0.1,0.8-0.1,1.2c0,0.6,0,1.1,0.2,1.7c0.3,0.8,0.2,0.7,0.7,1.2c0.2,0.2,0.6,0.4,0.9,0.5c0.2,0.2,0.4,0.2,0.6,0.2
	c1.1,0,2.2-0.3,2.9-1.3C176.1,70.9,176,69,175,68.1"/>
<g>
	<g>
		<path d="M176.4,70.9c0.1-0.2-1-0.7-1.1-0.3c-0.5,1-1.5,1.8-2.6,1.9c-0.8,0.1,0.1,0.6,0.4,0.6C174.5,73.1,175.8,72.4,176.4,70.9
			L176.4,70.9z"/>
	</g>
</g>
<g>
	<path class="st21" d="M185,65.9c0,0,0.1,0.1,0.2,0.3c0.1,0.2,0.4,0.5,0.6,0.9c0.5,0.7,1.2,1.9,1.7,3.4s0.5,3.5,0.5,5.4
		c0,1,0,2-0.1,3.1s-0.3,2.1-0.5,3.1c-0.4,2-1.1,4-1.8,5.9c-0.4,0.9-0.7,1.7-0.8,2.6c0,0.2,0,0.4,0,0.6c0,0.2,0.1,0.3,0.1,0.5
		c0.1,0.3,0.2,0.8,0.4,1c0.7,1.6,1.9,1.9,1.2,1.8c-0.6-0.2-1.3-0.6-1.8-1.3c-0.2-0.3-0.5-0.8-0.6-1.2c0-0.3-0.1-0.4-0.1-0.7
		c0-0.2,0-0.5,0-0.7c0.1-1,0.5-1.9,0.8-2.7c0.7-1.7,1.4-3.6,1.9-5.7c0.2-1,0.4-2,0.6-3c0.1-1,0.2-2,0.2-3c0-2,0-3.8-0.4-5.4
		c-0.4-1.5-1-2.7-1.5-3.4c-0.2-0.4-0.4-0.6-0.6-0.9C185,66,185,66,185,65.9L185,65.9z"/>
</g>
<g>
	<path class="st21" d="M195.2,95.9C195.2,95.9,195.2,95.9,195.2,95.9c-0.1,0.1-0.3,0-0.4-0.1c-0.2-0.1-0.3-0.2-0.3-0.5
		c0-0.3,0.1-0.5,0.3-0.6s0.5-0.3,0.8-0.2c0.3,0,0.6,0.1,0.9,0.2c0.6,0.2,1.2,0.5,1.6,0.4l0.1,0l0,0l0,0c-0.1,0,0,0,0,0l0,0l0,0
		l0.1,0c0.1,0,0.1,0,0.1-0.1s0.1-0.2,0.1-0.3c0.1-0.2,0.1-0.5,0.1-0.7c0-0.5-0.1-1-0.2-1.4c-0.1-0.4-0.4-0.7-0.5-0.9
		c-0.2-0.2-0.3-0.2-0.3-0.2l0-0.1c0,0,0.2,0,0.5,0c0.3,0,0.7,0.3,1,0.9c0.3,0.4,0.6,1.1,0.5,1.8c0,0.3-0.1,0.7-0.4,1.1
		c-0.1,0.2-0.2,0.3-0.4,0.4c-0.1,0-0.2,0.1-0.3,0.1l-0.1,0l0,0l0,0l0,0l-0.1,0c-0.8,0.1-1.5-0.3-1.9-0.6c-0.5-0.2-1-0.4-1.3-0.1
		c-0.1,0.1-0.3,0.2-0.2,0.4c0,0.2,0,0.3,0.2,0.4C195.1,95.9,195.2,95.8,195.2,95.9L195.2,95.9z"/>
</g>
<g>
	<path class="st21" d="M195.4,66.2c0.1,0.1,0,0.2-0.1,0.6c-0.2,0.2-0.4,0.5-0.6,0.9c-0.6,0.8-1.2,1.9-1.5,3.4
		c-0.4,1.5-0.4,3.4-0.4,5.4c0.1,1,0.1,2,0.2,3s0.4,1.9,0.6,3c0.5,2.1,1.2,4,1.9,5.7c0.3,0.9,0.8,1.8,0.8,2.7c0,0.2,0.1,0.5,0,0.7
		c0,0.3-0.1,0.4-0.1,0.7c-0.1,0.4-0.3,0.9-0.6,1.2c-0.4,0.6-1.2,1.1-1.8,1.3c-0.7,0.1,0.5-0.2,1.2-1.8c0.2-0.2,0.4-0.6,0.4-1
		c0-0.2,0.1-0.3,0.1-0.5c0-0.3,0-0.4,0-0.6c-0.1-0.8-0.4-1.7-0.8-2.6c-0.7-1.8-1.4-3.8-1.8-5.9c-0.2-1-0.4-2.1-0.5-3.1
		c-0.1-1-0.2-2.1-0.1-3.1c0-1.9,0.1-3.9,0.5-5.4c0.4-1.5,1.2-2.7,1.7-3.4c0.2-0.4,0.5-0.7,0.6-0.9C195.3,66.3,195.4,66.2,195.4,66.2
		L195.4,66.2z"/>
</g>
<g>
	<path class="st21" d="M184.9,95.3c0-0.1,0.2,0,0.3,0c0.2-0.1,0.2-0.2,0.2-0.4c0-0.2-0.1-0.3-0.2-0.4c-0.3-0.3-0.8-0.1-1.3,0.1
		c-0.5,0.2-1.2,0.7-1.9,0.6l-0.1,0l0,0l0,0l0,0l-0.1,0c-0.1,0-0.2-0.1-0.3-0.1c-0.2-0.1-0.3-0.3-0.4-0.4c-0.3-0.3-0.3-0.8-0.4-1.1
		c-0.1-0.7,0.2-1.4,0.5-1.8c0.3-0.5,0.7-0.8,1-0.9s0.5,0,0.5,0l0,0.1c0,0-0.1,0-0.3,0.2c-0.2,0.2-0.4,0.5-0.5,0.9
		c-0.2,0.3-0.2,0.9-0.2,1.4c0,0.2,0.1,0.4,0.1,0.7c0,0.1,0.1,0.2,0.1,0.3c0.1,0,0.1,0,0.1,0.1l0.1,0l0,0l0,0c0,0,0.1,0,0,0l0,0l0,0
		l0.1,0c0.4,0.1,1-0.2,1.6-0.4c0.3-0.1,0.7-0.2,0.9-0.2c0.3,0,0.6,0.1,0.8,0.2c0.2,0.1,0.4,0.4,0.3,0.6c0,0.3-0.2,0.4-0.3,0.5
		C185.2,95.3,185.1,95.3,184.9,95.3C184.9,95.3,184.9,95.3,184.9,95.3L184.9,95.3z"/>
</g>
<g>
	<path class="st21" d="M188.3,94.6c0,0,0.1,0,0.2,0.1c0.1,0.1,0.3,0.1,0.4,0.2s0.4,0.1,0.6,0.2c0.2,0,0.5,0,0.7,0.1
		c0.3,0,0.5,0,0.7,0c0.2,0,0.4-0.1,0.6-0.1s0.3-0.1,0.4-0.1s0.2,0,0.2,0s-0.2,0.2-0.6,0.3c-0.3,0.2-0.9,0.3-1.4,0.3
		c-0.3,0-0.5-0.1-0.7-0.1S189,95,188.8,95c-0.2-0.1-0.3-0.2-0.4-0.3C188.4,94.6,188.3,94.6,188.3,94.6z"/>
</g>
<g>
	<path class="st21" d="M188.4,90c0.1-0.1,0.2-0.2,0.4-0.3c0.2-0.1,0.4-0.2,0.6-0.2s0.5-0.1,0.7-0.1c0.5,0,1,0.1,1.4,0.3
		c0.4,0.2,0.6,0.3,0.6,0.3s-0.1,0-0.2,0c-0.1,0-0.3-0.1-0.4-0.1s-0.4-0.1-0.6-0.1c-0.2,0-0.4-0.1-0.7,0c-0.2,0-0.5,0-0.7,0.1
		c-0.3,0.1-0.5,0.1-0.6,0.2S188.6,90,188.4,90c0,0.1-0.1,0.1-0.1,0.1S188.4,90.1,188.4,90z"/>
</g>
<g>
	<path class="st1" d="M222.4,68.5c0.5-0.5,1-1.1,1.5-1.6c1-1,2.2-2.1,3.2-1.4c0.9,0.5,1.4,2.2,1.6,3.8c0.5,3.8,0.1,7.9-1.2,11.2
		c-1.3,3.3-3.4,5.8-5.7,6.8"/>
	<path class="st2" d="M222.4,68.5c0,0,0.3-0.3,0.8-0.9c0.2-0.3,0.6-0.6,0.9-1.1c0.3-0.4,0.8-0.8,1.3-1.2c0.5-0.3,1.2-0.5,1.8-0.1
		c0.6,0.4,1.1,1.3,1.4,2.3c0.1,0.5,0.2,1.1,0.3,1.6c0,0.5,0.1,1.1,0.2,1.7c0.1,1.2,0.1,2.3,0,3.5c-0.2,2.3-0.7,4.6-1.4,6.4
		c-0.3,0.9-0.8,1.8-1.2,2.5c-0.4,0.7-0.9,1.3-1.4,1.8c-0.9,1-1.8,1.5-2.4,1.9c-0.3,0.2-0.5,0.2-0.7,0.3c-0.1,0.1-0.2,0.1-0.2,0.1
		s0.3-0.2,0.9-0.5c0.6-0.4,1.4-1.1,2.2-2.1c0.4-0.5,0.8-1.2,1.3-1.9c0.4-0.7,0.8-1.5,1.1-2.4c0.7-1.8,1.1-3.9,1.3-6.1
		c0.1-1.1,0.1-2.2,0-3.3c0-0.5-0.1-1.1-0.1-1.6c0-0.5-0.1-1-0.3-1.5c-0.2-0.9-0.6-1.7-1.1-2.1c-0.5-0.4-1.1-0.2-1.6,0
		c-0.5,0.2-0.9,0.6-1.3,1s-0.7,0.7-1,0.9C222.7,68.2,222.4,68.5,222.4,68.5z"/>
</g>
<g>
	<path class="st1" d="M224.7,83.5c0.2-0.9,0.5-1.9,1.1-2.5c0.2-0.2,0.4-0.4,0.6-0.6c0.2-0.3,0.3-0.7,0.4-1.1
		c0.2-0.7,0.4-1.4,0.6-2.1c0.2-0.7,0.4-1.4,0.4-2.1c0-0.5-0.1-1-0.2-1.5c-0.2-1.2-0.4-2.3-0.6-3.5c-0.1-0.6-0.2-1.2-0.5-1.6
		c-0.3-0.5-0.8-0.5-1.2-0.2c-1.4,0.7-2.3,3-2.9,5.2c-0.1,0.5-0.3,1-0.3,1.5c0,0.5,0,1,0,1.5c0.1,1.1,1.1,1.1,1.4,2.1
		c0.1,0.4-1.2,4.2-1.7,4.9c0.3,0.8,1,1.7,1.5,1.6s1.1-0.6,1.4-1.5"/>
	<path class="st21" d="M224.7,83.5c0.2-0.8,0.3-1.5,0.7-2.2c0.3-0.7,0.9-0.8,1.1-1.5c0.2-0.7,0.4-1.5,0.6-2.2
		c0.2-0.8,0.4-1.5,0.5-2.2c0-0.7-0.1-1.4-0.2-2.2c-0.1-0.8-0.3-1.5-0.4-2.3c-0.1-0.8-0.2-1.5-0.5-2.1c-0.2-0.5-0.7-0.5-1.1-0.3
		c-0.2,0.2-0.4,0.3-0.6,0.5c-0.2,0.2-0.4,0.5-0.5,0.7c-0.3,0.5-0.6,1.2-0.9,1.9c-0.2,0.7-0.5,1.4-0.7,2.1c-0.2,0.7-0.4,1.4-0.3,2.1
		c0,0.3,0,0.8,0.1,1c0.1,0.2,0.3,0.4,0.5,0.6c0.2,0.2,0.5,0.4,0.7,0.8c0,0.1,0.1,0.2,0.1,0.3v0.1c0,0.1,0-0.1,0,0.1l0,0l0,0v0.1
		c0,0.1,0,0.2,0,0.2c0,0.2-0.1,0.4-0.1,0.6c-0.2,0.8-0.4,1.5-0.7,2.2c-0.3,0.7-0.5,1.4-1,1.9l0-0.3c0.1,0.4,0.3,0.8,0.5,1
		c0.2,0.3,0.5,0.5,0.8,0.6c0.1,0,0.3,0,0.4-0.1c0.1-0.1,0.3-0.2,0.4-0.3C224.2,84.4,224.5,84,224.7,83.5c-0.3,1-0.9,1.7-1.6,1.7
		c-0.3,0-0.6-0.2-0.9-0.5c-0.2-0.3-0.5-0.6-0.7-1.1l0-0.2l0.1-0.2c0.3-0.5,0.6-1.2,0.8-1.9c0.2-0.7,0.5-1.4,0.6-2.1
		c0-0.2,0.1-0.4,0.1-0.5l0,0v-0.1l0,0l0,0c0,0.2,0,0.1,0,0.1l0,0c0-0.1,0-0.2-0.1-0.2c-0.1-0.2-0.3-0.4-0.5-0.5
		c-0.2-0.2-0.5-0.4-0.7-0.8c0-0.1-0.1-0.3-0.1-0.4v-0.2v-0.2c0-0.2,0-0.4,0-0.6c0-0.4,0-0.8,0-1.3c0-0.5,0.2-0.8,0.3-1.2
		c0.2-0.7,0.4-1.5,0.7-2.2c0.2-0.7,0.5-1.4,0.9-2c0.2-0.3,0.4-0.5,0.6-0.8c0.2-0.2,0.5-0.5,0.7-0.5c0.3-0.2,0.5-0.2,0.9-0.2
		c0.3,0.1,0.6,0.3,0.8,0.7c0.2,0.4,0.3,0.8,0.4,1.2l0.2,1.2c0.1,0.8,0.3,1.5,0.4,2.3s0.3,1.6,0.2,2.5s-0.3,1.5-0.5,2.3
		c-0.2,0.7-0.4,1.5-0.7,2.2c-0.1,0.4-0.4,0.6-0.6,0.8c-0.2,0.2-0.4,0.4-0.6,0.6C225.2,82.1,224.9,82.8,224.7,83.5z"/>
</g>
<g>
	<path class="st1" d="M159.1,85.3c-2.4-1-4.5-3.5-5.7-6.8c-1.3-3.3-1.7-7.4-1.2-11.2c0.2-1.5,0.7-3.2,1.6-3.8
		c1.1-0.7,2.3,0.4,3.2,1.4c0.5,0.5,1,1.1,1.5,1.6"/>
	<path class="st2" d="M157.6,65.8c-0.3-0.2-0.6-0.5-1-0.9c-0.4-0.4-0.8-0.8-1.3-1s-1.1-0.4-1.6,0c-0.5,0.4-0.9,1.2-1.1,2.1
		c-0.1,0.5-0.2,1-0.3,1.5c0,0.5-0.1,1.1-0.1,1.6c0,1.1,0,2.2,0,3.3c0.2,2.2,0.6,4.3,1.3,6.1c0.3,0.8,0.7,1.7,1.1,2.4
		c0.4,0.7,0.8,1.3,1.3,1.9c0.8,1,1.6,1.7,2.2,2.1c0.6,0.4,0.9,0.5,0.9,0.5s-0.1,0-0.2-0.1s-0.4-0.2-0.7-0.3
		c-0.6-0.3-1.5-0.8-2.4-1.9c-0.5-0.5-0.9-1.1-1.4-1.8c-0.4-0.7-0.9-1.5-1.2-2.5c-0.7-1.9-1.2-4.1-1.4-6.4c-0.1-1.2-0.1-2.3,0-3.5
		c0-0.6,0.1-1.2,0.2-1.7c0.1-0.5,0.2-1.1,0.3-1.6c0.3-1,0.8-1.9,1.4-2.3c0.6-0.5,1.3-0.2,1.8,0.1c0.5,0.3,1,0.8,1.3,1.2
		c0.3,0.5,0.7,0.8,0.9,1.1c0.5,0.6,0.5,0.9,0.5,0.9S158.3,66.3,157.6,65.8z"/>
</g>
<g>
	<path class="st1" d="M156.3,81.9c0.3,0.8,0.8,1.4,1.4,1.5c0.5,0.1,1.2-0.8,1.5-1.6c-0.5-0.6-1.8-4.5-1.7-4.9c0.3-1,1.3-1,1.4-2.1
		c0-0.5,0.1-1,0-1.5c0-0.5-0.2-1.1-0.3-1.5c-0.6-2.2-1.5-4.6-2.9-5.2c-0.4-0.2-0.9-0.2-1.2,0.2c-0.3,0.4-0.4,1-0.5,1.6
		c-0.2,1.2-0.4,2.3-0.6,3.5c-0.1,0.5-0.2,1-0.2,1.5c0,0.7,0.2,1.4,0.4,2.1c0.2,0.7,0.4,1.4,0.6,2.1c0.1,0.4,0.2,0.8,0.4,1.1
		c0.2,0.2,0.4,0.4,0.6,0.6c0.5,0.5,0.8,1.5,1.1,2.5"/>
	<path class="st21" d="M155.5,79.8c-0.1-0.2-0.3-0.5-0.6-0.6c-0.2-0.2-0.4-0.5-0.6-0.8c-0.3-0.7-0.4-1.5-0.7-2.2
		c-0.2-0.8-0.4-1.5-0.5-2.3c-0.1-0.8,0.1-1.7,0.2-2.5c0.1-0.8,0.2-1.5,0.4-2.3l0.2-1.2c0.1-0.4,0.2-0.8,0.4-1.2
		c0.2-0.4,0.5-0.6,0.8-0.7c0.3-0.1,0.6,0,0.9,0.2c0.2,0.1,0.5,0.3,0.7,0.5c0.2,0.2,0.4,0.5,0.6,0.8c0.4,0.6,0.7,1.3,0.9,2
		c0.2,0.7,0.5,1.5,0.7,2.2c0.1,0.3,0.2,0.7,0.3,1.2s0,0.9,0,1.3c0,0.2,0,0.4,0,0.6v0.2v0.2c0,0.1,0,0.3-0.1,0.4
		c-0.2,0.5-0.5,0.7-0.7,0.8c-0.2,0.2-0.4,0.3-0.5,0.5c0,0-0.1,0.1-0.1,0.2l0,0c0,0,0,0.1,0-0.1l0,0l0,0V77l0,0c0,0.1,0,0.3,0.1,0.5
		c0.1,0.7,0.4,1.4,0.6,2.1c0.2,0.6,0.5,1.4,0.8,1.9l0.1,0.2l0,0.2c-0.2,0.5-0.4,0.8-0.7,1.1c-0.2,0.3-0.5,0.5-0.9,0.5
		c-0.7,0-1.2-0.7-1.5-1.6c0.1,0.4,0.4,0.8,0.6,1c0.1,0.2,0.2,0.2,0.4,0.3s0.3,0.1,0.4,0.1c0.3-0.1,0.5-0.3,0.8-0.6
		c0.2-0.2,0.4-0.6,0.5-1l0,0.3c-0.4-0.5-0.7-1.2-1-1.9c-0.3-0.7-0.5-1.4-0.7-2.2c0-0.2-0.1-0.4-0.1-0.6c0-0.1,0-0.2,0-0.2v-0.1l0,0
		l0,0c0-0.2,0,0,0-0.1v-0.1c0-0.1,0.1-0.2,0.1-0.3c0.2-0.4,0.5-0.6,0.7-0.8c0.2-0.2,0.4-0.4,0.5-0.6c0-0.2,0.1-0.7,0.1-1
		c0-0.7-0.1-1.4-0.3-2.1c-0.2-0.7-0.4-1.4-0.7-2.1c-0.2-0.7-0.5-1.3-0.9-1.9c-0.1-0.2-0.3-0.5-0.5-0.7c-0.2-0.2-0.4-0.3-0.6-0.5
		c-0.4-0.2-0.9-0.2-1.1,0.3c-0.2,0.5-0.3,1.3-0.5,2.1c-0.1,0.8-0.3,1.5-0.4,2.3c-0.1,0.8-0.3,1.5-0.2,2.2c0.1,0.7,0.3,1.4,0.5,2.2
		c0.2,0.7,0.4,1.5,0.6,2.2c0.2,0.7,0.8,0.8,1.1,1.5s0.5,1.4,0.7,2.2C156.1,80.9,155.8,80.2,155.5,79.8z"/>
</g>
<g>
	<path class="st23" d="M197.6,66.9c0.1,0.6,0,1.2-0.2,1.7c0.8,0.3,1.7,0.3,2.6,0.2c0.6-0.1,1.2-0.3,1.7-0.4c2.2-0.6,4.5-1.1,6.8-1.3
		c0.5,0,1-0.1,1.6-0.1c0.6,0,1.3-0.1,1.9,0c0.6,0.1,1.1,0.2,1.6,0.3c2.2,0.6,4.3,1.6,6.3,2.7c-0.6-0.8-1.1-1.5-1.7-2.3
		c-0.8-1-1.6-2.1-2.7-2.7c-0.4-0.2-0.8-0.3-1.2-0.4c-4.1-1.1-8.4-0.9-12.4,0.4c-0.6,0.2-1.2,0.4-1.9,0.6c-1.1,0.2-2.3,0.1-3.1,0.9"
		/>
	<path class="st24" d="M197.6,66.9c0.1,0.6,0,1.2-0.2,1.7l0-0.1c0.5,0.1,0.9,0.2,1.4,0.2c0.5,0,1,0,1.4-0.1c1-0.2,1.9-0.5,2.8-0.8
		c1.9-0.5,3.8-0.8,5.8-1c1-0.1,1.9-0.2,3-0.1c0.5,0,1,0.2,1.5,0.3c0.5,0.1,1,0.2,1.4,0.4c1.9,0.6,3.7,1.5,5.4,2.4l-0.3,0.4l-1.9-2.6
		c-0.6-0.8-1.3-1.7-2.2-2.1c-0.4-0.2-1-0.4-1.4-0.5c-0.5-0.1-1-0.3-1.6-0.3c-1-0.2-2.1-0.3-3.2-0.3c-2.1-0.1-4.2,0.2-6.3,0.7
		c-1,0.2-2,0.7-3.1,0.8c-0.5,0.1-1.1,0.1-1.6,0.2c-0.5,0.1-1,0.2-1.4,0.6l0,0c0.4-0.4,0.9-0.6,1.4-0.7c0.5-0.1,1.1-0.2,1.6-0.3
		c1-0.2,2-0.7,3.1-1c2.1-0.6,4.3-0.9,6.4-0.9c1.1,0,2.2,0.1,3.3,0.3c0.5,0.1,1.1,0.2,1.6,0.4c0.6,0.2,1,0.3,1.6,0.6
		c1,0.6,1.7,1.5,2.4,2.3l1.9,2.6l0.7,1l-1-0.6c-1.7-0.9-3.4-1.8-5.3-2.4c-0.5-0.2-0.9-0.3-1.4-0.4c-0.5-0.1-1-0.2-1.4-0.3
		c-0.9-0.1-1.9,0-2.9,0.1c-1.9,0.1-3.9,0.4-5.8,0.9c-0.9,0.2-1.9,0.5-2.8,0.7c-0.5,0.1-1,0.1-1.5,0.1c-0.5,0-1-0.1-1.5-0.3l-0.1,0
		l0,0C197.6,68,197.7,67.4,197.6,66.9L197.6,66.9z"/>
</g>
<g>
	<path class="st23" d="M183.8,66.3c-0.1,0.6,0,1.2,0.2,1.7c-0.8,0.3-1.7,0.3-2.6,0.2c-0.6-0.1-1.2-0.3-1.7-0.4
		c-2.2-0.6-4.5-1.1-6.8-1.3c-0.5,0-1-0.1-1.6-0.1c-0.6,0-1.3-0.1-1.9,0c-0.6,0.1-1.1,0.2-1.6,0.3c-2.2,0.6-4.3,1.6-6.3,2.7
		c0.6-0.8,1.1-1.5,1.7-2.3c0.8-1,1.6-2.1,2.7-2.7c0.4-0.2,0.8-0.3,1.2-0.4c4.1-1.1,8.4-0.9,12.4,0.4c0.6,0.2,1.2,0.4,1.9,0.6
		c1.1,0.2,2.3,0.1,3.1,0.9"/>
	<path class="st24" d="M183.8,66.3c-0.1,0.6,0,1.1,0.2,1.7l0,0l-0.1,0c-0.5,0.2-1,0.2-1.5,0.3c-0.5,0-1,0-1.5-0.1
		c-0.9-0.2-1.9-0.5-2.8-0.7c-1.9-0.4-3.8-0.7-5.8-0.9c-1,0-2-0.2-2.9-0.1c-0.4,0-0.9,0.2-1.4,0.3c-0.5,0.1-0.9,0.2-1.4,0.4
		c-1.8,0.6-3.6,1.5-5.3,2.4l-1,0.6l0.7-1l1.9-2.6c0.6-0.9,1.4-1.8,2.4-2.3c0.6-0.3,1-0.4,1.6-0.6c0.5-0.1,1.1-0.3,1.6-0.4
		c1.1-0.2,2.2-0.3,3.3-0.3c2.2,0,4.4,0.3,6.4,0.9c1,0.3,2,0.8,3.1,1c0.5,0.1,1.1,0.2,1.6,0.3c0.5,0.1,1.1,0.3,1.4,0.7l0,0
		c-0.4-0.4-0.9-0.5-1.4-0.6c-0.5-0.1-1.1-0.1-1.6-0.2c-1.1-0.2-2.1-0.6-3.1-0.8c-2.1-0.5-4.2-0.8-6.3-0.7c-1.1,0-2.1,0.1-3.2,0.3
		c-0.5,0.1-1,0.2-1.6,0.3c-0.4,0.1-1.1,0.3-1.4,0.5c-0.9,0.5-1.6,1.3-2.2,2.1l-1.9,2.6l-0.3-0.4c1.7-0.9,3.5-1.8,5.4-2.4
		c0.5-0.1,1-0.3,1.4-0.4c0.5-0.1,0.9-0.2,1.5-0.3c1,0,2,0.1,3,0.1c2,0.2,3.9,0.5,5.8,1c0.9,0.3,1.9,0.5,2.8,0.8
		c0.5,0.1,1,0.2,1.4,0.1c0.5,0,1-0.1,1.4-0.2l0,0.1C183.7,67.5,183.6,66.9,183.8,66.3L183.8,66.3z"/>
</g>
<path class="st21" d="M176.8,128.7c-0.3,3.6,0.6,7.4,2.7,10.4"/>
<g>
	<path class="st25" d="M180.9,101.8c0.5,0.8,1,1.6,1.7,2.1c1.1,0.8,2.6,1,4,1.1c1.3,0.1,2.7,0.2,4,0.3c1.5,0.1,3.1,0.2,4.5-0.1
		c1.5-0.4,2.9-1.4,3.3-2.8c-0.9-0.5-1.9-0.7-2.9-0.8c-1.7,0-3.3,0.5-4.9,0.5c-0.7,0-1.5-0.2-2.2-0.3c-2.3-0.3-4.6-0.3-6.8-0.2"/>
	<path class="st24" d="M180.9,101.8c0.4,0.7,0.9,1.4,1.5,1.9c0.6,0.5,1.4,0.8,2.2,1c0.8,0.2,1.6,0.2,2.5,0.3l2.5,0.2
		c1.7,0.1,3.3,0.3,4.9,0c0.8-0.2,1.6-0.5,2.2-0.9c0.6-0.5,1.2-1.1,1.4-1.9l0.1,0.3c-1.2-0.6-2.6-0.8-4-0.6c-1.4,0.2-2.8,0.6-4.3,0.4
		c-0.7-0.1-1.4-0.3-2.1-0.3c-0.7-0.1-1.4-0.2-2.1-0.2c-1.4-0.1-2.8-0.1-4.3-0.1l0,0c1.4-0.1,2.8-0.2,4.3-0.2c0.7,0,1.4,0,2.1,0.1
		c0.7,0.1,1.4,0.2,2.1,0.3c1.4,0.1,2.7-0.2,4.2-0.4c0.7-0.1,1.5-0.1,2.2,0c0.7,0.1,1.4,0.4,2.1,0.7l0.2,0.1l-0.1,0.2
		c-0.3,0.9-0.9,1.6-1.6,2.1c-0.7,0.5-1.5,0.8-2.4,1c-1.7,0.3-3.4,0.1-5-0.1l-2.5-0.2c-0.8-0.1-1.7-0.1-2.5-0.3
		c-0.8-0.2-1.6-0.5-2.3-1.1C181.8,103.2,181.3,102.5,180.9,101.8L180.9,101.8z"/>
</g>
<g>
	<path class="st23" d="M219,80.9c-1.3,4.7-3.4,9.9-7.3,12.8c-5.3,4-11.8,3.5-18.7,2.4c-2-0.3-4-0.4-6-0.3
		c-5.1,0.4-13.3,0.1-17.3-1.8c-1.7-0.8-3.1-2.3-4.6-3.5c-0.7-0.6-1.3-1.3-1.5-2.2c-1.8-6.9-5.4-21.7-5.4-21.7
		c-0.3-0.9-0.4-1.8-0.9-2.9c1.1,7.3,1.1,15.6,0.8,22.9c-0.2,4.9-0.4,9.9,1.7,14.3c1.1,2.4,2.9,4.5,3.8,6.9c0.5,1.4,0.7,3,1.5,4.3
		c0.5,0.9,1.2,1.7,1.9,2.5c1.3,1.4,2.7,2.9,4,4.3c2.1,2.2,4.1,4.4,6.5,6.3c1.8,1.4,3.9,2.6,6.2,2.7c1.3,0.1,2.6-0.2,3.9-0.1
		c1.4,0.1,2.8,0.5,4.2,0.6c4.4,0.4,8.6-2.3,11.5-5.6s5.1-7.2,7.9-10.7c2.1-2.6,4.7-4.9,6.5-7.7c3.6-5.3,4.5-12,4.6-18.5
		s-0.1-13,0.8-19.4C221.5,71.2,220.3,76.2,219,80.9z M197.8,106c-0.9,1.2-2.1,2.2-3.6,2.6c-0.8,0.2-1.7,0.3-2.6,0.3
		c-2.7,0-5.5-0.1-7.9-1.3c-2.4-1.2-4.3-3.8-3.9-6.4c0.4,0,0.7,0,1.1,0l-0.4,0.1c1.6-0.1,3.3,0.2,4.8-0.2c0.8-0.2,1.6-0.6,2.4-0.8
		c4.1-1,8.2,2.7,12.3,1.9C199.4,103.5,198.7,104.9,197.8,106z"/>
	<g>
		<path class="st24" d="M219.1,80.9c-1,3.6-2.3,7.1-4.6,10.1c-1.1,1.5-2.5,2.8-4.1,3.7c-1.6,1-3.4,1.6-5.2,2
			c-3.7,0.7-7.4,0.3-11.1-0.2c-1.8-0.3-3.7-0.5-5.5-0.5c-0.9,0-1.8,0.1-2.8,0.2c-0.9,0.1-1.9,0.1-2.8,0.1c-1.9,0-3.7,0-5.6-0.2
			c-1.8-0.2-3.7-0.4-5.5-0.9c-0.9-0.2-1.8-0.6-2.6-1c-0.9-0.5-1.6-1-2.3-1.6c-0.7-0.6-1.4-1.2-2.1-1.8c-0.8-0.6-1.4-1.5-1.6-2.5
			l-5.5-21.5l0,0c-0.3-1-0.5-2-0.9-2.9l0.8-0.2c1,6.6,1.1,13.2,1,19.8c-0.1,3.3-0.4,6.6-0.1,9.9c0.1,1.6,0.3,3.2,0.8,4.8
			c0.4,1.5,1.1,3,2,4.4c0.8,1.4,1.8,2.8,2.5,4.3c0.7,1.6,0.9,3.3,1.6,4.7c0.6,1.4,1.9,2.5,3,3.7l3.4,3.6c2.3,2.4,4.5,4.8,7.2,6.6
			c1.3,0.9,2.8,1.6,4.3,1.8c1.5,0.3,3.1-0.2,4.9-0.1c1.8,0.1,3.3,0.7,4.9,0.6c1.5,0,3.1-0.5,4.5-1.1c1.4-0.7,2.7-1.6,3.9-2.7
			c1.2-1.1,2.2-2.3,3.2-3.6c2-2.6,3.7-5.4,5.8-8c2.1-2.6,4.6-4.8,6.5-7.4c1.9-2.6,3.2-5.6,4-8.8c0.8-3.2,1.1-6.4,1.2-9.7
			c0.2-6.6,0.1-13.2,1.1-19.8l0.3,0.1C221.6,71.3,220.4,76.2,219.1,80.9z M219,80.9c1.3-4.8,2.4-9.6,4.2-14.3l0.5-1.2l-0.2,1.3
			c-0.4,3.3-0.6,6.6-0.6,9.9c-0.1,3.3,0,6.6,0,9.9c0,3.3-0.2,6.7-1,9.9c-0.7,3.3-2,6.5-4,9.2c-2,2.7-4.5,5-6.4,7.5
			c-2,2.6-3.7,5.4-5.8,8c-2,2.6-4.5,5.1-7.6,6.6c-1.6,0.7-3.2,1.2-5,1.3c-1.7,0.1-3.4-0.5-4.9-0.6c-1.5-0.1-3.2,0.3-5,0
			c-1.8-0.3-3.4-1.1-4.8-2c-2.8-2-5.1-4.5-7.3-6.8l-3.4-3.6c-1.1-1.2-2.4-2.3-3.2-4c-0.7-1.6-0.9-3.3-1.6-4.7
			c-0.6-1.5-1.6-2.8-2.4-4.2c-0.9-1.4-1.6-3-2-4.6c-0.4-1.6-0.7-3.3-0.8-5c-0.2-3.4,0.1-6.7,0.2-9.9c0.2-6.6,0.1-13.2-0.8-19.7
			l-0.4-2.8l1.2,2.5c0.4,1,0.6,2,0.9,3l0,0l0,0l5.3,21.5c0.2,0.8,0.7,1.6,1.3,2.1c0.7,0.6,1.4,1.2,2.1,1.8c0.7,0.6,1.4,1.2,2.2,1.6
			c0.8,0.4,1.6,0.8,2.5,1c1.8,0.5,3.6,0.8,5.4,1c1.8,0.2,3.7,0.3,5.5,0.3c0.9,0,1.8,0,2.8-0.1c0.9,0,1.8-0.1,2.8-0.1
			c1.9,0,3.7,0.2,5.5,0.5c3.6,0.5,7.4,0.9,11,0.3c1.8-0.3,3.6-1,5.1-1.9c1.6-0.9,3-2.2,4.1-3.7C216.6,88,218,84.5,219,80.9z"/>
		<path class="st24" d="M197.8,106.1c-0.6,0.8-1.3,1.4-2.1,2c-0.4,0.2-0.9,0.5-1.3,0.6c-0.5,0.2-1,0.3-1.4,0.3
			c-1,0.1-1.9,0.1-2.9,0.2c-1,0-1.9,0-2.9-0.2c-1-0.1-1.9-0.4-2.9-0.7c-0.2-0.1-0.5-0.2-0.7-0.3c-0.2-0.1-0.4-0.2-0.6-0.4
			c-0.4-0.3-0.8-0.6-1.2-0.9c-0.8-0.7-1.4-1.5-1.8-2.4c-0.4-0.9-0.6-2-0.5-3.1l0-0.4l0.4,0l1.1,0l0.1,1l-0.4,0.1l-0.1-1
			c1.7-0.1,3.4,0.1,4.8-0.3c0.4-0.1,0.7-0.2,1.1-0.4c0.4-0.1,0.8-0.3,1.3-0.4l0.6-0.1l0.7,0c0.5,0,0.9,0,1.4,0.1
			c1.8,0.3,3.3,0.9,4.9,1.5c0.4,0.1,0.8,0.3,1.2,0.4c0.4,0.1,0.8,0.2,1.2,0.3c0.4,0.1,0.8,0.2,1.2,0.2c0.4,0,0.8,0,1.2,0l0.5,0
			l-0.2,0.4C199.5,103.6,198.8,104.9,197.8,106.1z M197.7,106c0.9-1.2,1.5-2.6,2.1-3.9l0.3,0.3c-0.4,0.1-0.8,0.2-1.3,0.2
			c-0.4,0-0.9,0-1.3,0c-0.9-0.1-1.7-0.2-2.5-0.5c-1.6-0.4-3.2-1-4.7-1.2c-0.4-0.1-0.8-0.1-1.1-0.1l-0.5,0l-0.6,0.1
			c-0.3,0-0.7,0.2-1.1,0.3c-0.4,0.1-0.8,0.3-1.2,0.4c-0.9,0.2-1.8,0.2-2.6,0.2c-0.9,0-1.7-0.1-2.5-0.1l-0.1-1l0.4-0.1l0.1,1l-1.1,0
			l0.5-0.4c-0.3,1.7,0.6,3.5,1.9,4.8c1.3,1.3,3.1,2,5,2.3c0.9,0.2,1.9,0.3,2.8,0.3c1,0,1.9,0.1,2.9,0c0.9-0.1,1.9-0.3,2.7-0.8
			C196.4,107.4,197.1,106.8,197.7,106z"/>
	</g>
</g>
<g>
	<path class="st21" d="M184,107.1c0,0,0.8-0.1,1.9-0.1c0.6,0,1.2,0.1,1.9,0.1c0.7,0.1,1.4,0.2,2.1,0.2c0.2,0,0.4,0,0.5,0l0.5,0
		c0.4,0,0.7,0,1.1,0c0.3,0,0.7,0,1,0c0.3,0,0.6,0,0.9,0c1.1,0.1,1.8,0.2,1.8,0.2s-0.7,0.3-1.8,0.5c-0.3,0.1-0.6,0.1-0.9,0.2l-0.2,0
		l-0.1,0l-0.1,0l-0.1,0c-0.2,0-0.3,0-0.5,0.1c-0.3,0-0.7,0.1-1,0.1l-0.5,0c-0.3,0-0.4,0-0.6,0c-0.8-0.1-1.5-0.2-2.2-0.4
		c-0.7-0.2-1.3-0.3-1.8-0.5C184.7,107.4,184,107.1,184,107.1z"/>
</g>
<circle class="st19" cx="174.1" cy="199.6" r="4.1"/>
<circle class="st19" cx="168.4" cy="240.9" r="4.1"/>
<circle class="st19" cx="163.1" cy="285.6" r="4.1"/>
<circle class="st19" cx="161" cy="323" r="4.1"/>
</svg>
