<?xml version="1.0" encoding="utf-8"?>
<!-- Generator: Adobe Illustrator 19.0.1, SVG Export Plug-In . SVG Version: 6.00 Build 0)  -->
<svg version="1.1" id="Layer_1" xmlns="http://www.w3.org/2000/svg" xmlns:xlink="http://www.w3.org/1999/xlink" x="0px" y="0px"
	 viewBox="0 0 303 293.8" style="enable-background:new 0 0 303 293.8;" xml:space="preserve">
<style type="text/css">
	.st0{stroke:#FFFFFF;}
	.st1{fill:#FFFFFF;stroke:#000000;stroke-width:4.5613;}
	.st2{stroke:#FFFFFF;stroke-width:1.0909;}
	.st3{fill:#FFFFFF;}
	.st4{fill:#FFFFFF;stroke:#000000;}
</style>
<path class="st0" d="M164.2,182.6H86.6l-15,54.7c-2.2,7.2-3.3,13.5-3.3,17.1c0,10.3,10.5,15.5,31.4,15.5h4.5v12.5l-94.3-2l-3-13.5
	h8.4c8.9,0,15.9,0.1,20.8-5.6c5-5.7,9.7-21.8,14.1-36.3l60.7-201.8L107.1,11h52.6l71,215c5,14.9,10,30.8,15.1,35.7
	c5.1,5,11.9,7.7,20.5,8.3v11.5l-115.7-1V270h12.5c14.1,0,21.2-5.2,21.2-15.7c0-4.3-1.1-10.8-3.3-17.5L164.2,182.6z M156,159.5
	l-32.7-98.9l-29.8,98.9H156z"/>
<path class="st1" d="M182.3,182.6h-77.5l-15,54.7c-2.2,7.2-3.3,13.5-3.3,17.1c0,10.3,10.5,15.5,31.4,15.5h4.5v12.5l-94.3-2V270h5.4
	c8.9,0,15.9-2.9,20.8-8.6c5-5.7,9.7-21.8,14.1-36.3L129,23.4l-3.8-5.4h52.6l71,208c5,14.9,10,30.8,15.1,35.7
	c5.1,5,11.9,7.7,20.5,8.3v11.5l-115.7-1V270h12.5c14.1,0,21.2-5.2,21.2-15.7c0-4.3-1.1-10.8-3.3-17.5L182.3,182.6z M174.2,159.5
	l-32.7-98.9l-29.8,98.9H174.2z"/>
<path class="st2" d="M193.5,182.6h-75.9L103,236.2c-2.2,7-3.2,13.3-3.2,16.8c0,10.1,10.2,15.2,30.7,15.2h4.4v16.2H42.7v-16.2h5.3
	c8.7,0,15.5-2.8,20.4-8.4c4.9-5.6,9.4-21.5,13.8-35.6l59.4-197.4l-3.7-12.1h51.4L258.6,225c4.9,14.5,9.8,30.3,14.8,35.1
	c5,4.8,11.7,7.5,20,8.1v16.2H180.3v-16.2h12.2c13.8,0,20.7-5.1,20.7-15.4c0-4.2-1.1-10.6-3.2-17.2L193.5,182.6z M185.6,159.9
	l-32-96.8l-29.1,96.8H185.6z"/>
<g>
	<path d="M6.5,281.8l-0.2-15.5c3.8,0.3,24.7,2.1,35,2.1c0.3,0,0.6,0,0.9,0l0.1,16.1L6.5,281.8z"/>
	<path class="st3" d="M6.9,266.8c5,0.4,24.6,2,34.5,2c0.1,0,0.2,0,0.3,0l0.1,15L7,281.3L6.9,266.8 M5.8,265.6L6,282.3l37,2.7
		l-0.1-17.2c-0.4,0-0.9,0-1.4,0C30,267.7,5.8,265.6,5.8,265.6L5.8,265.6z"/>
</g>
<g>
	<path d="M144.3,281.5l-0.2-15.5c3.8,0.3,24.7,2.1,35,2.1c0.3,0,0.6,0,0.9,0l0.1,16.1L144.3,281.5z"/>
	<path class="st3" d="M144.7,266.6c5,0.4,24.6,2,34.5,2c0.1,0,0.2,0,0.3,0l0.1,15l-34.8-2.5L144.7,266.6 M143.6,265.4l0.2,16.6
		l37,2.7l-0.1-17.2c-0.4,0-0.9,0-1.4,0C167.7,267.5,143.6,265.4,143.6,265.4L143.6,265.4z"/>
</g>
<polygon class="st0" points="137.8,14.7 107.1,11 110.9,23.4 141.4,26.8 "/>
<polygon class="st4" points="189.2,14.7 159.7,11 107.1,11 137.8,14.7 "/>
</svg>
