<?xml version="1.0" encoding="utf-8"?>
<!-- Generator: Adobe Illustrator 19.0.1, SVG Export Plug-In . SVG Version: 6.00 Build 0)  -->
<svg version="1.1" id="Layer_1" xmlns="http://www.w3.org/2000/svg" xmlns:xlink="http://www.w3.org/1999/xlink" x="0px" y="0px"
	 viewBox="0 0 360 504" style="enable-background:new 0 0 360 504;" xml:space="preserve">
<style type="text/css">
	.st0{fill:#D3B475;}
	.st1{fill:#231F20;}
	.st2{fill:#7A5E38;}
	.st3{fill:#2D210B;}
	.st4{fill:#CFAAFF;}
	.st5{fill:#8A3B93;}
	.st6{fill:#722F1A;}
	.st7{fill:#AF4904;}
	.st8{fill:#B392E8;}
	.st9{fill:#999999;}
	.st10{fill:#4F4F4F;}
	.st11{fill:#D6AA7F;}
	.st12{fill:#B78355;}
	.st13{fill:#919191;}
	.st14{fill:#212121;}
	.st15{fill:#DBA100;}
	.st16{fill:#EAB200;}
	.st17{fill:#FFFFFF;}
	.st18{fill:#00E9D2;}
	.st19{fill:#6200AA;stroke:#000000;stroke-width:0.9525;stroke-miterlimit:10;}
	.st20{fill:#E8EADA;stroke:#000000;stroke-width:0.9525;stroke-miterlimit:10;}
	.st21{fill:#FF5A3F;stroke:#000000;stroke-width:0.9525;stroke-miterlimit:10;}
	.st22{fill:#FFF900;stroke:#000000;stroke-width:0.9525;stroke-miterlimit:10;}
</style>
<g>
	<path class="st0" d="M249.7,368.6c15.6,21.4,24.1,47.9,23.9,74.4c0,3.8-0.2,7.6-1,11.3c-0.8,4.1-2.2,8-3.5,12
		c-3.7,11.8-5.8,24.1-6.3,36.5c-20,0.3-40,0.6-59.9,0.9c-34.8,0.5-69.8,1-104-5.2c7.9-25.7,17-51.1,27.2-76.1c0.5-1.2,1-2.4,0.9-3.7
		c-0.1-1.1-0.6-2-0.9-3.1c-1.9-6,3.5-11.7,5-17.8c2-7.7-2.2-16.3,0.7-23.6c5.7,8.1,16.5,10.6,26.3,11.7c21.1,2.4,42.6,1.4,63.4-2.9
		c10.8-2.3,22.3-6.1,28.2-15.4"/>
	<path class="st1" d="M249.8,368.5l2.5,3.6c0.8,1.2,1.6,2.5,2.4,3.7c0.8,1.2,1.5,2.5,2.3,3.8c0.8,1.3,1.4,2.5,2.1,3.8l1,1.9l1,2
		c0.6,1.3,1.3,2.6,1.9,4c1.2,2.7,2.3,5.4,3.3,8.1l1.4,4.2l1.3,4.2c0.8,2.8,1.5,5.7,2.1,8.5c0.3,1.4,0.6,2.9,0.8,4.3
		c0.3,1.4,0.5,2.9,0.7,4.3c0.4,2.9,0.7,5.8,0.9,8.7l0.2,4.4l0.1,4.4c0,2.9-0.1,5.9-0.5,8.8c-0.3,2.9-1,5.8-1.9,8.6
		c-0.8,2.8-1.8,5.6-2.6,8.4c-3.3,11.2-5.2,22.8-5.6,34.5l0,0.4l-0.4,0l-41.1,0.6c-13.7,0.2-27.4,0.4-41.1,0.5
		c-13.7,0.1-27.4-0.1-41.1-0.9c-3.4-0.2-6.8-0.4-10.2-0.7l-5.1-0.5l-5.1-0.5c-1.7-0.2-3.4-0.4-5.1-0.6c-1.7-0.2-3.4-0.4-5.1-0.7
		c-3.4-0.5-6.8-1.1-10.1-1.6l-0.4-0.1l0.1-0.4c6.4-20.8,13.6-41.4,21.5-61.7c2-5.1,4-10.1,6-15.2c0.5-1.3,0.8-2.6,0.3-3.8
		c-0.2-0.6-0.5-1.3-0.7-1.9c-0.2-0.7-0.4-1.3-0.4-2.1c-0.2-2.8,0.8-5.5,2-8c1.1-2.5,2.5-4.9,3.2-7.4c0.8-2.6,0.8-5.3,0.6-8
		c-0.2-2.7-0.6-5.4-0.7-8.1c-0.2-2.7,0.1-5.5,1.1-8.1l0.1-0.4l0.2,0.3c1.5,2.1,3.4,3.9,5.6,5.4c2.2,1.5,4.6,2.6,7,3.4
		c5,1.7,10.2,2.5,15.4,3c1.3,0.1,2.6,0.3,3.9,0.4c1.3,0.1,2.6,0.2,3.9,0.3c1.3,0.1,2.6,0.2,3.9,0.2c1.3,0.1,2.6,0.1,3.9,0.1
		c1.3,0,2.6,0.1,4,0.1c1.3,0,2.6,0,4,0c2.6,0,5.3-0.1,7.9-0.3c2.6-0.1,5.3-0.3,7.9-0.6c2.6-0.2,5.2-0.5,7.9-0.9
		c2.6-0.3,5.2-0.7,7.8-1.2c2.6-0.4,5.2-1,7.8-1.5c5.1-1.1,10.2-2.6,15-4.9c2.4-1.2,4.6-2.6,6.6-4.2c2-1.7,3.8-3.6,5.2-5.9l0.1,0
		c-1.4,2.2-3.2,4.2-5.2,5.9c-2,1.7-4.3,3.1-6.6,4.3c-4.7,2.4-9.8,3.8-15,5c-2.6,0.6-5.2,1.1-7.8,1.5c-2.6,0.5-5.2,0.9-7.8,1.2
		c-2.6,0.4-5.2,0.7-7.9,0.9c-2.6,0.3-5.3,0.5-7.9,0.6c-2.6,0.2-5.3,0.2-7.9,0.3c-1.3,0-2.6,0-4,0c-1.3,0-2.6,0-4-0.1
		c-1.3,0-2.6-0.1-4-0.1c-1.3,0-2.6-0.1-4-0.2c-1.3-0.1-2.6-0.2-3.9-0.3c-1.3-0.1-2.6-0.2-3.9-0.4c-5.2-0.5-10.5-1.3-15.5-3
		c-2.5-0.9-4.9-2-7.1-3.5c-2.2-1.5-4.2-3.3-5.7-5.5l0.4,0c-1,2.5-1.2,5.3-1,7.9c0.1,2.7,0.5,5.4,0.7,8.1c0.2,2.7,0.2,5.5-0.6,8.2
		c-0.8,2.7-2.1,5.1-3.2,7.5c-1.1,2.4-2.1,5-1.9,7.7c0,0.6,0.2,1.3,0.4,1.9c0.2,0.6,0.5,1.3,0.7,1.9c0.2,0.7,0.3,1.4,0.2,2.1
		c-0.1,0.7-0.3,1.4-0.5,2c-2,5.1-4,10.1-6,15.2c-7.8,20.3-15,40.9-21.4,61.7l-0.3-0.4c3.4,0.6,6.7,1.2,10.1,1.6
		c1.7,0.3,3.4,0.5,5.1,0.7c1.7,0.2,3.4,0.4,5.1,0.6l5.1,0.5l5.1,0.4c3.4,0.3,6.8,0.5,10.2,0.7c13.7,0.8,27.3,0.9,41,0.8
		c13.7-0.1,27.4-0.4,41.1-0.6l41.1-0.6l-0.4,0.4c0.5-11.7,2.4-23.4,5.8-34.7c0.8-2.8,1.8-5.6,2.7-8.4c0.9-2.8,1.6-5.6,1.9-8.5
		c0.4-2.9,0.5-5.8,0.5-8.7l0-4.4l-0.2-4.4c-0.2-2.9-0.5-5.8-0.9-8.7c-0.2-1.5-0.4-2.9-0.7-4.3c-0.2-1.4-0.5-2.9-0.8-4.3
		c-0.6-2.9-1.3-5.7-2.1-8.5l-1.3-4.2l-1.4-4.2c-1-2.7-2.1-5.5-3.2-8.1c-0.6-1.4-1.2-2.7-1.8-4l-0.9-2l-1-1.9
		c-0.7-1.3-1.3-2.6-2.1-3.9c-0.7-1.3-1.4-2.6-2.2-3.8c-0.8-1.2-1.5-2.5-2.4-3.7L249.8,368.5L249.8,368.5z"/>
</g>
<g>
	<path class="st2" d="M249.9,366.9c4.9,3.1,6.9,9.1,8.5,14.7c0.1,0.5,0.3,1,0.1,1.5c-0.2,0.4-0.7,0.6-1.1,0.8
		c-9.6,4.5-19.7,7.7-30.1,9.7c-1.9-4.1-2.8-8.6-2.5-13.1c5-1,9.9-2.2,14.4-4.6c4.1-2.3,7.6-5.6,11.1-8.8"/>
	<path class="st3" d="M249.9,366.9c0.9,0.6,1.8,1.3,2.5,2.1c0.8,0.8,1.4,1.7,2,2.6c1.2,1.8,2,3.8,2.8,5.9c0.4,1,0.7,2.1,1,3.1
		c0.2,0.5,0.3,1,0.5,1.6c0.1,0.3,0.1,0.6,0,0.9c-0.1,0.3-0.3,0.6-0.5,0.8c-0.5,0.4-1,0.5-1.5,0.8l-1.5,0.7c-1,0.5-2,0.9-3,1.3
		c-8,3.4-16.4,5.9-24.9,7.6l-0.3,0.1l-0.1-0.3c-1-2-1.7-4.2-2.2-6.5c-0.4-2.2-0.6-4.5-0.5-6.8l0-0.3l0.3-0.1c2.4-0.5,4.8-1,7.1-1.7
		c2.3-0.7,4.6-1.5,6.8-2.6c2.2-1.1,4.2-2.5,6.1-4c1.9-1.5,3.7-3.1,5.6-4.8l0.1,0.1c-1.7,1.7-3.5,3.5-5.3,5.1c-1.9,1.6-3.9,3.1-6,4.3
		c-2.2,1.2-4.5,2.1-6.9,2.8c-2.4,0.7-4.8,1.2-7.2,1.7l0.4-0.4c-0.1,2.2,0,4.4,0.4,6.6c0.4,2.2,1.1,4.3,2,6.3l-0.4-0.2
		c8.5-1.6,16.9-4,24.9-7.3c1-0.4,2-0.8,3-1.3l1.5-0.7c0.5-0.2,1-0.4,1.4-0.7c0.4-0.3,0.5-0.8,0.4-1.3c-0.1-0.5-0.3-1-0.4-1.6
		c-0.3-1-0.6-2.1-1-3.1c-0.7-2-1.5-4-2.7-5.9c-0.6-0.9-1.2-1.8-2-2.6C251.6,368.2,250.7,367.5,249.9,366.9L249.9,366.9z"/>
</g>
<g>
	<path class="st2" d="M237.9,399.6c0,0,0.1,0.4,0.4,1.1c0.3,0.7,0.7,1.7,1.1,3c0.4,1.3,0.9,2.9,1.4,4.8c0.5,1.9,1,4,1.4,6.4
		c0.8,4.7,1.4,10.2,1.8,16.2c0.2,3,0.3,6,0.5,9.1c0.2,3.1,0.3,6.3,0.3,9.5c0,3.2-0.3,6.4-0.6,9.5c-0.4,3.1-0.9,6.1-1.4,9.1
		c-1.1,5.8-2.3,11.3-3.1,15.9c-0.8,4.7-1.3,8.6-1.4,11.4c-0.1,1.4-0.1,2.5-0.1,3.2c0,0.7,0,1.1,0,1.1s0-0.4,0-1.1
		c0-0.7-0.1-1.8,0-3.2c0-1.4,0.1-3.1,0.3-5c0.2-1.9,0.4-4.1,0.8-6.5c0.7-4.7,1.7-10.2,2.8-16c0.5-2.9,1-5.9,1.4-9
		c0.4-3.1,0.6-6.2,0.6-9.4c0-3.2-0.1-6.3-0.2-9.4c-0.2-3.1-0.3-6.2-0.5-9.1c-0.2-3-0.4-5.8-0.6-8.5c-0.2-2.7-0.6-5.3-0.9-7.6
		c-0.4-2.3-0.8-4.5-1.2-6.4c-0.4-1.9-0.9-3.5-1.3-4.8c-0.4-1.3-0.8-2.4-1-3.1C238.1,400,237.9,399.6,237.9,399.6z"/>
</g>
<g>
	<path class="st2" d="M146.1,405.8c0,0-0.1,0.4-0.2,1.1c-0.1,0.7-0.2,1.8-0.1,3.1c0.1,1.4,0.4,3,1,4.8c0.6,1.8,1.4,3.8,2.3,5.9
		c1.8,4.3,4,9.3,6.4,14.6c2.4,5.3,5.1,10.9,7.8,16.5c1.4,2.8,2.8,5.6,4.1,8.3c0.7,1.4,1.2,2.9,1.4,4.4c0.3,1.5,0.3,3,0.4,4.5
		c0.3,5.8,0.5,11.3,0.7,15.9c0.2,4.7,0.3,8.5,0.4,11.3c0.1,2.7,0.2,4.3,0.2,4.3s-0.1-1.6-0.3-4.3c-0.2-2.7-0.5-6.6-0.8-11.2
		c-0.3-4.7-0.6-10.1-1-15.9c-0.1-1.5-0.2-2.9-0.4-4.4c-0.2-1.4-0.8-2.8-1.4-4.2c-1.4-2.7-2.8-5.5-4.2-8.3
		c-2.7-5.6-5.4-11.2-7.8-16.6c-2.4-5.3-4.4-10.4-6.2-14.7c-0.9-2.2-1.6-4.2-2.2-6c-0.5-1.8-0.8-3.5-0.9-4.8
		c-0.1-1.4,0.1-2.4,0.2-3.2C146,406.2,146.1,405.8,146.1,405.8z"/>
</g>
<g>
	<path class="st2" d="M128.2,417.7c0,0,0.1,0,0.3-0.1c0.2-0.1,0.5-0.2,1-0.2c0.9-0.1,2.2,0.1,3.5,0.8c1.3,0.8,2.5,2,3.7,3.4
		c1.2,1.3,2.6,2.7,4,4c2.8,2.6,5.7,5.3,7.8,7.2c1.1,1,1.9,1.8,2.6,2.4c0.6,0.6,1,0.9,1,0.9s-0.4-0.3-1.1-0.8
		c-0.7-0.5-1.6-1.2-2.8-2.2c-1.1-0.9-2.5-2-3.8-3.2c-1.4-1.2-2.8-2.5-4.3-3.8c-1.4-1.3-2.8-2.7-4-4.1c-0.6-0.7-1.1-1.4-1.7-2
		c-0.6-0.6-1.1-1.1-1.7-1.5c-1.2-0.8-2.4-1.1-3.2-1.1c-0.4,0-0.7,0.1-1,0.1C128.3,417.7,128.2,417.7,128.2,417.7z"/>
</g>
<g>
	<path class="st2" d="M126.2,425.4c0,0,0.6,0.3,1.4,0.9c0.9,0.6,2.1,1.7,3.5,2.8c1.4,1.2,3.2,2.4,5.3,3.5c1,0.6,2.1,1.1,3.2,1.6
		c1.1,0.5,2.3,1.1,3.3,1.8c1.1,0.7,2,1.7,2.7,2.7c0.8,1,1.4,2,2.2,2.8c0.8,0.8,1.6,1.5,2.5,2.1c0.9,0.6,1.7,1.1,2.6,1.5
		c1.7,0.8,3.1,1.4,4.1,1.7c1,0.4,1.6,0.6,1.6,0.6s-0.6-0.1-1.7-0.4c-1-0.3-2.6-0.7-4.3-1.4c-0.9-0.4-1.8-0.8-2.7-1.4
		c-0.9-0.6-1.9-1.3-2.7-2.2c-0.8-0.9-1.5-1.9-2.3-2.8c-0.8-0.9-1.6-1.8-2.6-2.5c-1-0.7-2.1-1.2-3.2-1.8c-1.1-0.5-2.2-1.1-3.2-1.7
		c-2-1.2-3.8-2.5-5.2-3.8c-1.4-1.2-2.4-2.4-3.3-3.1C126.7,425.8,126.2,425.4,126.2,425.4z"/>
</g>
<g>
	<path class="st4" d="M251.3,164c6.1,6.8,12.2,13.5,18.2,20.3c5.5,6.1,11,12.3,14.7,19.5c3.2,6.2,4.9,13.1,6.7,19.8
		c0.4,1.7,0.9,3.5,1.1,5.3c0.2,1.8,0.1,3.6-0.1,5.4c-0.3,4.3-0.6,8.7-0.8,13c-1.2,19.1-2.5,38.4-0.6,57.4c0.7,6.9,1.7,14-0.3,20.6
		c0.7,0.5,1.8,0.1,2-0.7c-14.8-0.7-29.6-1.4-44.5-2.2c-0.6,0-1.3-0.1-1.9-0.3c-1.8-0.7-2.5-3.1-2.1-5s1.3-3.7,1.7-5.7
		c1.3-6.4-4.1-12.8-2.4-19.1c0.4,4.4,0.9,8.8,1.3,13.3c0.2,2,0.4,4.1-0.4,6c-0.7,1.6-2.1,2.9-3.1,4.4c-2.9,4.6-0.8,10.8-2.7,15.9
		c-0.4,1.2-1.1,2.3-1.1,3.6c-0.1,2.1,1.4,3.9,2.7,5.6c3.9,5.3,5.9,11.9,5.6,18.4c1.6,3.1,2.8,6.9,4.5,9.9
		c-17.9,14.5-42.2,17.4-65.2,19.8c-4.9,0.5-9.9,1-14.8,1c-10-0.1-19.9-2.7-28.7-7.3c-2.2-1.1-4.3-2.5-5.8-4.4
		c-3.9-5.2-1.7-12.4-0.5-18.7c1-5.1,1.2-10.4,1.5-15.6c0.8-17.8,1.6-35.7,2.4-53.5c0.2-4.6,0.4-9.3-1.1-13.6c-1.1-3.2-3-6-4.3-9.1
		c-4.7-10.7-2.5-23,0.2-34.4c4.1-16.8,9.3-33.4,15.6-49.5c2.4-6.2,5.3-13.5,10.5-17.5c5.2-4,11.4-6.7,17.5-9.2
		c3.5-1.5,7-2.9,10.7-3.6c5-1,10.3-0.7,15.4-0.2c16.7,1.6,33.2,4.6,49.4,8.9"/>
	<path class="st1" d="M251.4,163.9l14.7,16.2c2.4,2.7,4.9,5.4,7.3,8.1c2.4,2.7,4.8,5.5,6.9,8.5c2.1,3,4,6.1,5.5,9.5
		c1.5,3.3,2.6,6.8,3.6,10.3c0.5,1.8,1,3.5,1.4,5.3c0.4,1.8,0.9,3.5,1.3,5.3c0.3,1.8,0.4,3.7,0.3,5.5l-0.3,5.5
		c-0.9,14.5-2,29.1-2.1,43.6c0,7.3,0.2,14.6,0.9,21.8c0.3,3.6,0.8,7.2,0.9,10.9c0.1,3.7-0.1,7.4-1.1,11l-0.2-0.5
		c0.2,0.1,0.5,0.2,0.8,0.1c0.3-0.1,0.5-0.3,0.6-0.6l0.4,0.5l-38.8-1.9l-4.9-0.2c-0.8-0.1-1.6,0-2.5-0.3c-0.1,0-0.2-0.1-0.3-0.1
		l-0.3-0.1c-0.2-0.1-0.4-0.3-0.6-0.4c-0.4-0.3-0.6-0.7-0.9-1c-0.9-1.6-0.8-3.5-0.4-5.1c0.4-1.6,1.2-3.1,1.4-4.6
		c0.1-0.4,0.1-0.8,0.2-1.2l0-1.1c0-0.4-0.1-0.8-0.1-1.2l-0.2-1.2c-0.3-1.6-0.8-3.1-1.3-4.6c-0.5-1.5-0.9-3.1-1.2-4.8
		c-0.3-1.6-0.3-3.4,0.2-5l0.6-2.2l0.2,2.3l0.9,8.8l0.4,4.4c0.1,1.5,0.3,3,0,4.5c-0.1,0.8-0.4,1.5-0.8,2.2c-0.4,0.7-0.8,1.3-1.3,1.9
		c-0.5,0.6-0.9,1.1-1.3,1.7c-0.4,0.5-0.7,1.3-1,1.9c-0.5,1.3-0.7,2.8-0.8,4.2c-0.1,1.5-0.1,2.9-0.2,4.4c-0.1,1.5-0.2,3-0.6,4.5
		c-0.3,1.5-1.2,2.8-1.4,4.2c-0.3,1.4,0.3,2.7,1.1,3.9c0.8,1.2,1.8,2.3,2.6,3.6c1.6,2.5,2.8,5.3,3.6,8.2c0.8,2.9,1.1,5.9,1,8.9l0-0.2
		c1.7,3.3,2.8,6.8,4.5,10l0.1,0.3l-0.2,0.2c-3.6,2.9-7.5,5.3-11.6,7.4c-4.1,2.1-8.4,3.8-12.7,5.2c-4.4,1.4-8.8,2.5-13.3,3.4
		c-4.5,0.9-9,1.6-13.5,2.2c-4.5,0.6-9.1,1.1-13.6,1.6c-4.5,0.5-9.1,1-13.7,1c-9.2,0.1-18.4-1.8-26.8-5.5c-2.1-0.9-4.2-1.9-6.1-3.2
		c-1-0.6-1.9-1.3-2.7-2.2c-0.4-0.4-0.8-0.9-1.1-1.4l-0.5-0.7l-0.4-0.8c-1-2.1-1.3-4.5-1.1-6.8c0.1-2.3,0.5-4.6,1-6.8
		c2.2-8.9,2-18.1,2.6-27.2l1.2-27.4l0.6-13.7c0.1-4.6,0.6-9.1,0.1-13.6c-0.3-2.2-0.8-4.5-1.8-6.5c-0.9-2.1-2.1-4-3.1-6.1
		c-2-4.1-2.9-8.8-3.1-13.3c-0.2-4.6,0.3-9.2,1.2-13.7c0.8-4.5,2-8.9,3.1-13.4c2.3-8.8,4.9-17.6,7.8-26.3c1.5-4.3,3-8.6,4.6-12.9
		c1.6-4.3,3.2-8.6,5.1-12.7c1-2.1,2.1-4.1,3.5-5.9c0.7-0.9,1.4-1.8,2.2-2.6c0.8-0.8,1.7-1.6,2.6-2.2c3.7-2.7,7.8-4.8,12-6.6
		c2.1-0.9,4.2-1.8,6.3-2.7c2.1-0.9,4.2-1.7,6.4-2.3c4.4-1.3,9.1-1.5,13.6-1.2c9.1,0.7,18.2,1.9,27.2,3.4c9,1.6,17.9,3.5,26.7,5.9
		l0,0.1c-8.8-2.4-17.7-4.3-26.7-5.9c-9-1.5-18.1-2.7-27.2-3.4c-4.5-0.3-9.2-0.1-13.5,1.2c-2.2,0.6-4.3,1.5-6.4,2.3
		c-2.1,0.9-4.2,1.8-6.3,2.7c-4.2,1.8-8.3,3.9-11.9,6.6c-3.8,2.6-6.2,6.6-8.2,10.7c-1.9,4.1-3.5,8.4-5.1,12.7
		c-1.6,4.3-3.1,8.6-4.5,12.9c-2.9,8.7-5.5,17.4-7.7,26.2c-1.1,4.4-2.2,8.8-3.1,13.3c-0.8,4.5-1.3,9-1.1,13.6c0.2,4.5,1.1,9,3.1,13.1
		c1,2,2.2,4,3.1,6.1c1,2.1,1.6,4.3,1.9,6.6c0.5,4.6,0.1,9.2-0.1,13.7l-0.6,13.7l-1.2,27.4c-0.2,4.6-0.4,9.1-0.6,13.7
		c-0.1,2.3-0.3,4.6-0.6,6.8c-0.3,2.3-0.8,4.5-1.2,6.8c-0.4,2.2-0.9,4.5-1,6.7c-0.1,2.2,0.1,4.5,1.1,6.5l0.4,0.7l0.5,0.7
		c0.3,0.5,0.7,0.9,1,1.3c0.8,0.8,1.7,1.5,2.6,2.1c1.9,1.2,4,2.2,6,3.1c8.3,3.7,17.4,5.5,26.5,5.4c4.5-0.1,9.1-0.6,13.6-1
		c4.5-0.5,9.1-1,13.6-1.6c4.5-0.6,9-1.3,13.5-2.2c4.5-0.9,8.9-2,13.2-3.4c4.3-1.4,8.6-3,12.6-5.1c4-2.1,7.9-4.5,11.4-7.4l-0.1,0.5
		c-1.7-3.3-2.8-6.8-4.5-9.9l0-0.1l0-0.1c0.1-2.9-0.2-5.8-0.9-8.6c-0.7-2.8-1.9-5.5-3.5-8c-0.8-1.2-1.7-2.3-2.6-3.6
		c-0.4-0.6-0.8-1.3-1-2.1c-0.1-0.4-0.2-0.8-0.2-1.2c0-0.4,0-0.8,0.1-1.2c0.1-0.8,0.4-1.5,0.7-2.2c0.3-0.7,0.5-1.3,0.7-2
		c0.3-1.4,0.5-2.8,0.5-4.3c0.1-1.5,0.1-2.9,0.2-4.4c0.1-1.5,0.3-3,0.9-4.4c0.3-0.8,0.6-1.4,1.1-2c0.4-0.6,0.9-1.2,1.4-1.8
		c0.9-1.1,1.7-2.3,1.9-3.7c0.2-1.4,0.1-2.8,0-4.3l-0.4-4.4l-0.9-8.8l0.8,0.1c-0.4,1.5-0.4,3.1-0.1,4.6c0.3,1.6,0.7,3.1,1.2,4.6
		c0.5,1.5,1,3.1,1.3,4.7l0.2,1.2c0,0.4,0.1,0.8,0.1,1.2c0,0.4,0,0.9,0,1.3c0,0.4-0.1,0.8-0.2,1.2c-0.3,1.7-1,3.2-1.5,4.7
		c-0.2,0.7-0.3,1.5-0.3,2.3c0,0.8,0.2,1.5,0.6,2.1c0.2,0.3,0.4,0.6,0.7,0.8c0.1,0.1,0.3,0.2,0.4,0.3l0.3,0.1c0,0,0.2,0.1,0.2,0.1
		c0.7,0.2,1.5,0.2,2.3,0.2l4.9,0.2l38.8,1.9l0.5,0l-0.2,0.5c-0.2,0.6-0.6,0.9-1.1,1.1c-0.5,0.2-1.1,0.2-1.6-0.2l-0.3-0.2l0.1-0.3
		c1-3.4,1.3-7.1,1.1-10.7c-0.1-3.6-0.6-7.2-0.9-10.9c-0.6-7.3-0.9-14.6-0.8-21.9c0.1-14.6,1.3-29.1,2.2-43.7l0.4-5.4
		c0.1-1.8,0.1-3.6-0.2-5.4c-0.3-1.8-0.8-3.5-1.3-5.3c-0.5-1.8-0.9-3.5-1.4-5.3c-1-3.5-2.1-7-3.6-10.3c-1.5-3.3-3.3-6.5-5.4-9.4
		c-2.1-3-4.4-5.8-6.8-8.5c-2.4-2.7-4.8-5.4-7.3-8.2L251.4,163.9L251.4,163.9z"/>
</g>
<g>
	<path class="st5" d="M205.3,238.5c0,0,0.2,0,0.5,0c0.3,0,0.7,0.1,1.3,0.2c1.1,0.2,2.7,0.5,4.5,1.3c1.8,0.7,3.8,1.7,5.9,2.9
		c1,0.6,2.1,1.2,3.1,1.9c1.1,0.7,2.1,1.3,3.2,2c1.1,0.7,2.1,1.4,3.1,2.2c1,0.8,2,1.5,2.9,2.3c1.8,1.5,3.4,3.1,4.7,4.5
		c1.3,1.4,2.3,2.6,3,3.5c0.7,0.9,1.1,1.4,1.1,1.4s-0.4-0.5-1.2-1.3c-0.8-0.8-1.9-1.9-3.3-3.2c-1.4-1.3-3.1-2.8-4.9-4.2
		c-0.9-0.7-1.9-1.5-2.9-2.2c-1-0.7-2-1.5-3.1-2.1c-1.1-0.7-2.1-1.4-3.2-2.1c-1-0.7-2.1-1.3-3.1-2c-2-1.2-3.9-2.4-5.6-3.1
		c-1.7-0.8-3.2-1.3-4.3-1.6c-0.5-0.1-1-0.2-1.3-0.3C205.5,238.5,205.3,238.5,205.3,238.5z"/>
</g>
<g>
	<path class="st5" d="M243.5,292c-0.3-0.8-0.6-1.5-0.8-2.3c-0.2-0.8-0.4-1.6-0.6-2.4c-0.2-0.8-0.2-1.6-0.3-2.5
		c-0.1-0.8-0.2-1.6-0.2-2.5c-0.1-1.7-0.1-3.3-0.2-4.9c0-1.6-0.1-3.3-0.2-4.9c-0.1-0.8-0.1-1.6-0.3-2.4l-0.2-1.2l-0.2-1.2
		c-0.1-0.8-0.4-1.6-0.6-2.3c-0.3-0.7-0.5-1.5-0.9-2.2c-0.3-0.7-0.7-1.5-1.1-2.2c-0.3-0.8-0.7-1.5-0.8-2.4c-0.1-0.9,0-1.8,0.2-2.6
		c0.3-0.8,0.7-1.6,1.2-2.2l0,0.1c0.1-1.5,0.1-3,0.2-4.5c0.1,1.5,0.1,3,0.2,4.5l0,0.1l0,0.1c-0.9,1.3-1.4,2.9-1.1,4.5
		c0.2,0.7,0.5,1.5,0.9,2.2l1.1,2.2c0.4,0.7,0.7,1.5,1,2.3c0.2,0.8,0.5,1.6,0.7,2.4l0.3,1.2l0.2,1.2c0.1,0.8,0.2,1.7,0.2,2.5
		c0.1,1.7,0.1,3.3,0.1,5l0,4.9c0,1.6,0.1,3.3,0.3,4.9c0.1,0.8,0.2,1.6,0.4,2.4C243.1,290.4,243.3,291.2,243.5,292z"/>
</g>
<g>
	<path class="st5" d="M173.8,270c0,0,0,0.5,0.1,1.3c0.1,0.9,0.2,2.1,0.3,3.7c0.1,1.6,0.3,3.6,0.4,5.8c0.1,2.3,0.2,4.8,0.2,7.6
		c0,5.6-0.2,12-0.6,19c-0.4,6.9-1.1,14.3-1.6,21.7c-0.6,7.4-1.3,14.7-1.9,21.7c-0.3,3.5-0.7,6.8-1.2,9.9c-0.5,3.1-1.1,6.1-1.8,8.8
		c-0.7,2.7-1.3,5.1-1.7,7.4c-0.4,2.2-0.6,4.2-0.5,5.8c0,1.6,0.3,2.9,0.5,3.7c0.2,0.8,0.4,1.3,0.4,1.3s-0.1-0.4-0.4-1.3
		c-0.2-0.8-0.5-2.1-0.6-3.7c-0.1-1.6,0-3.6,0.3-5.8c0.3-2.2,0.9-4.7,1.5-7.4c0.6-2.7,1.2-5.6,1.7-8.8c0.4-3.1,0.8-6.5,1.1-9.9
		c0.6-6.9,1.1-14.3,1.7-21.7c0.6-7.4,1.3-14.7,1.8-21.7c0.5-6.9,0.9-13.4,0.9-18.9c0-2.8,0-5.3,0-7.6c0-2.3-0.1-4.2-0.2-5.8
		c-0.1-1.6-0.2-2.9-0.2-3.7C173.8,270.5,173.8,270,173.8,270z"/>
</g>
<g>
	<path class="st5" d="M196.3,321.9c0,0,0.2,0,0.5,0.1c0.3,0.1,0.7,0.1,1.3,0.1c0.6,0,1.2,0,2-0.2c0.8-0.1,1.6-0.4,2.5-0.6
		c1.8-0.6,3.9-1.5,6.2-2.3c0.6-0.2,1.2-0.3,1.8-0.5c0.6-0.1,1.2-0.3,1.9-0.4c1.3-0.2,2.6-0.4,3.9-0.6c1.3-0.1,2.6-0.1,3.9-0.1
		c1.3,0,2.6,0.1,3.8,0.2c1.2,0.1,2.4,0.3,3.5,0.5c1.1,0.2,2.1,0.4,3.1,0.6c1.9,0.4,3.5,0.9,4.6,1.2c1.1,0.3,1.7,0.5,1.7,0.5
		s-0.6-0.1-1.7-0.4c-1.1-0.2-2.7-0.5-4.6-0.8c-1-0.2-2-0.3-3.1-0.5c-1.1-0.1-2.3-0.3-3.5-0.4c-1.2-0.1-2.4-0.2-3.7-0.2
		c-1.3,0-2.5,0-3.8,0.2c-1.3,0.1-2.5,0.3-3.8,0.5c-0.6,0.1-1.2,0.3-1.8,0.4c-0.6,0.2-1.2,0.3-1.8,0.5c-2.3,0.7-4.4,1.5-6.3,2
		c-0.9,0.3-1.8,0.4-2.6,0.5c-0.8,0.1-1.5,0.1-2.1,0c-0.6-0.1-1-0.1-1.3-0.2C196.4,322,196.3,321.9,196.3,321.9z"/>
</g>
<g>
	<path class="st5" d="M235.6,336.8c0,0-0.7,0-2,0.2c-1.3,0.2-3.1,0.6-5.2,1.1c-2.1,0.5-4.6,1.3-7.2,2c-1.3,0.4-2.7,0.7-4.1,1.1
		c-1.4,0.4-2.8,0.7-4.2,1.2c-2.8,0.8-5.6,1.7-8.3,2.5c-2.6,0.8-5.1,1.5-7.2,2.1c-2.1,0.6-3.9,1.1-5.1,1.4c-1.2,0.3-2,0.5-2,0.5
		s0.7-0.2,1.9-0.7c1.2-0.4,2.9-1,5-1.7c2.1-0.7,4.5-1.5,7.1-2.3c2.6-0.8,5.4-1.7,8.2-2.6c1.4-0.4,2.8-0.7,4.2-1.1
		c1.4-0.4,2.8-0.7,4.1-1.1c2.7-0.7,5.2-1.3,7.3-1.7c2.2-0.5,4-0.7,5.3-0.8c0.6-0.1,1.1-0.1,1.5-0.1
		C235.4,336.8,235.6,336.8,235.6,336.8z"/>
</g>
<g>
	<path class="st5" d="M236,340.6c0,0,0,0.1,0,0.2c0,0.1,0.1,0.3,0.1,0.6c0.1,0.2,0.2,0.5,0.3,0.8c0.2,0.3,0.4,0.6,0.6,1
		c0.2,0.4,0.5,0.8,0.7,1.3c0.2,0.5,0.4,1.1,0.3,1.7c0,0.3-0.2,0.7-0.3,0.9c-0.2,0.3-0.4,0.5-0.7,0.8c-0.5,0.4-1.1,0.6-1.7,0.8
		c-1.2,0.3-2.3,0.4-3.4,0.5c-1.1,0.1-2.1,0.2-3,0.2c-1.7,0-2.9-0.1-2.9-0.1s1.1-0.2,2.8-0.4c0.8-0.1,1.8-0.3,2.9-0.5
		c1-0.2,2.2-0.4,3.2-0.6c0.5-0.1,1-0.3,1.4-0.6c0.2-0.1,0.4-0.3,0.5-0.5c0,0,0.1-0.1,0.1-0.2l0,0c0,0,0,0,0,0l0,0l0-0.1
		c0-0.1,0.1-0.2,0.1-0.3c0.2-0.9-0.3-1.8-0.6-2.6c-0.3-0.8-0.6-1.5-0.6-2C235.9,340.8,236,340.6,236,340.6z"/>
</g>
<g>
	<path class="st5" d="M222.5,347.2c0,0,0.6-0.4,1.4-0.8c0.8-0.5,2-1.2,3-1.9c1.1-0.7,2.1-1.5,2.9-2c0.8-0.6,1.3-1,1.3-1
		s-0.3,0.6-1,1.3c-0.7,0.8-1.7,1.7-2.8,2.4c-0.6,0.4-1.1,0.7-1.7,1c-0.6,0.3-1.1,0.5-1.6,0.6C223.1,347.2,222.5,347.2,222.5,347.2z"
		/>
</g>
<g>
	<path class="st5" d="M237.3,287.1c0,0,0.1-0.1,0.1-0.4c0-0.2,0-0.6-0.2-1c-0.2-0.4-0.7-0.8-1.2-1.1c-0.5-0.3-1.2-0.6-2-0.9
		c-3-1.3-7-3-11-4.8c-4-1.7-8-3.5-10.9-4.8c-1.5-0.7-2.7-1.2-3.6-1.6c-0.9-0.4-1.4-0.6-1.4-0.6s2.1,0.6,5.2,1.8
		c1.5,0.6,3.3,1.2,5.2,2c1.9,0.8,3.9,1.6,5.9,2.5c2,0.9,4,1.8,5.8,2.7c1.8,0.9,3.5,1.8,5,2.5c0.7,0.4,1.4,0.7,2,1.1
		c0.5,0.4,1,0.9,1.2,1.3c0.2,0.4,0.2,0.9,0.1,1.1C237.4,287,237.3,287.1,237.3,287.1z"/>
</g>
<g>
	<path class="st5" d="M192.6,196.8c-3.7,1.2-6.6,3.8-9.5,6.3c-2.9,2.5-5.8,5-8.5,7.7c-2.7,2.7-5.2,5.5-7.4,8.7
		c-2.1,3.1-3.9,6.5-5.5,10l-4.9,10.3c-1.6,3.5-3.4,6.8-4.4,10.5c-1,3.6-0.8,7.4-0.9,11.3c-0.1,3.8-0.6,7.7-1.3,11.4
		c-1.3,7.5-3.3,14.9-4.8,22.4c-0.8,3.7-1.4,7.5-1.9,11.3c-0.5,3.8-0.8,7.6-1.1,11.4c-0.5,7.6-0.7,15.2-0.8,22.8l-0.1,11.4
		c0,3.8,0,7.6,0.2,11.4l0,0.1l0,0c-1,1.1-1.7,2.3-2.4,3.6c-0.7,1.3-0.8,2.8-0.9,4.2c-0.1,1.5-0.2,2.9-0.1,4.4
		c0.1,1.5,0.3,2.9,0.9,4.3c-0.6-1.3-0.9-2.8-1-4.2c-0.1-1.5,0-2.9,0-4.4c0.1-1.5,0.2-3,0.9-4.3c0.7-1.3,1.4-2.6,2.4-3.7l0,0.1
		c-0.2-3.8-0.3-7.6-0.3-11.4l0-11.4c0-7.6,0.1-15.3,0.7-22.9c0.3-3.8,0.6-7.6,1.1-11.4c0.5-3.8,1.1-7.6,1.8-11.3
		c1.5-7.5,3.5-14.9,4.8-22.4c0.7-3.7,1.1-7.5,1.3-11.3c0.2-3.8-0.1-7.7,1-11.4c1-3.8,2.9-7.1,4.5-10.6l5-10.3
		c1.7-3.4,3.5-6.8,5.7-10c2.2-3.1,4.8-6,7.5-8.6c2.8-2.6,5.7-5.1,8.6-7.5C185.9,200.5,188.9,197.9,192.6,196.8z"/>
</g>
<g>
	<path class="st5" d="M272.2,193.5c0,0-0.3,0-0.8,0.1c-0.5,0.1-1.3,0.2-2.4,0.2c-1,0-2.3,0.1-3.7,0c-1.4,0-3-0.1-4.8-0.1
		c-1.7,0-3.6,0-5.6,0.4c-1.9,0.3-3.9,1.2-5.6,2.4c-1.7,1.3-3,3.1-4.1,5.1c-1.1,2-2.2,4.1-3.1,6.2c-0.9,2.1-1.8,4.3-2.5,6.5
		c-0.7,2.2-1.3,4.3-1.9,6.5c-0.5,2.1-0.9,4.2-1.2,6.2c-0.2,1-0.3,2-0.4,2.9c-0.1,0.9-0.2,1.8-0.3,2.7c-0.1,0.9-0.1,1.7-0.2,2.5
		c-0.1,0.8-0.1,1.6-0.1,2.3c0,1.4,0,2.7,0,3.7c0,1,0.1,1.8,0.1,2.4c0,0.5,0,0.8,0,0.8s0-0.3-0.1-0.8c0-0.5-0.2-1.3-0.2-2.4
		c-0.1-1-0.2-2.3-0.2-3.7c0-0.7,0-1.5,0-2.3c0-0.8,0-1.6,0.1-2.5c0-0.9,0.1-1.8,0.2-2.7c0.1-0.9,0.2-1.9,0.3-2.9
		c0.2-2,0.6-4.1,1.1-6.3c0.5-2.1,1.1-4.3,1.8-6.5c0.7-2.2,1.6-4.4,2.5-6.6c1-2.2,2-4.2,3.2-6.2c1.2-2,2.6-3.9,4.4-5.3
		c1.8-1.4,3.9-2.2,5.9-2.5c2-0.3,3.9-0.3,5.7-0.3c1.8,0.1,3.4,0.2,4.8,0.3c1.4,0.1,2.7,0.1,3.7,0.1c1,0,1.8,0,2.4-0.1
		C271.9,193.6,272.2,193.5,272.2,193.5z"/>
</g>
<g>
	<path class="st5" d="M288.8,282.6c0,0,0-0.1-0.1-0.3c-0.1-0.2-0.2-0.4-0.4-0.7c-0.3-0.6-0.9-1.4-1.7-2.2c-0.8-0.8-1.8-1.7-2.9-2.6
		c-0.5-0.5-1.1-1-1.7-1.5c-0.5-0.5-1.1-1.1-1.6-1.7c-0.5-0.6-1-1.2-1.4-1.9c-0.4-0.6-0.8-1.3-1.2-2c-0.3-0.6-0.6-1.3-0.9-1.9
		c-0.3-0.6-0.5-1.2-0.6-1.8c-0.4-1.1-0.5-2.1-0.7-2.7c-0.1-0.7-0.1-1.1-0.1-1.1s0.1,0.4,0.3,1c0.2,0.6,0.5,1.5,1,2.6
		c0.4,1.1,1,2.3,1.7,3.5c0.7,1.2,1.6,2.5,2.5,3.7c0.5,0.6,1,1.2,1.5,1.7c0.5,0.6,1,1,1.6,1.5c1.1,1,2,1.9,2.8,2.9
		c0.8,0.9,1.2,1.8,1.5,2.4c0.1,0.3,0.2,0.6,0.2,0.8C288.8,282.5,288.8,282.6,288.8,282.6z"/>
</g>
<g>
	<path class="st5" d="M285.2,318.8c0,0,0-0.1-0.1-0.4c0-0.3-0.1-0.7-0.2-1.2c-0.1-0.5-0.3-1.1-0.6-1.7c-0.3-0.6-0.7-1.3-1.2-2
		c-1-1.4-2.4-2.8-4-4.3c-1.6-1.4-3.4-2.9-5.1-4.6c-1.6-1.7-3.1-3.7-3.7-5.9c-0.3-1.1-0.4-2.2-0.5-3.2c0-1,0-1.9-0.1-2.8
		c-0.1-1.7-0.7-3.1-1.3-3.8c-0.3-0.4-0.6-0.7-0.8-0.8c-0.2-0.2-0.3-0.2-0.3-0.2s0.1,0.1,0.4,0.2c0.2,0.1,0.6,0.4,0.9,0.7
		c0.7,0.8,1.4,2.1,1.7,3.9c0.3,1.8,0.2,3.8,0.8,5.8c0.6,2,2,3.9,3.6,5.5c1.6,1.7,3.4,3.1,5,4.6c1.6,1.5,3,3.1,3.9,4.6
		c0.5,0.8,0.8,1.5,1.1,2.2c0.3,0.7,0.4,1.3,0.5,1.8c0.1,0.5,0.1,0.9,0.1,1.2C285.2,318.7,285.2,318.8,285.2,318.8z"/>
</g>
<g>
	<path class="st6" d="M171,49.7c-4.9,7.9-7.8,17-8.6,26.2c-0.9,10.8,1.2,21.6,3.4,32.2c0.2,4.7,0.4,9.3,0.6,14
		c-0.2-1-0.4-1.9-0.5-2.9c1,8.1,2.1,16.2,1.6,24.4c-0.5,8.1-2.5,16.4-7.2,23c6.4,0.4,12.9-0.3,19.2-2.1c0.8-0.2,1.6-0.5,2.2-1
		c0.9-0.7,1.3-1.8,1.6-2.9c1.8-5.6,2.6-11.5,2.5-17.3c-0.1-4.6-0.8-9.1-1.5-13.7c-1.2-8.2-2.5-16.5-3.7-24.7
		c-2.7-18.1-5.5-36.3-4-54.5"/>
	<path class="st7" d="M171.1,49.7c-2.6,4.3-4.7,8.9-6.1,13.7c-0.4,1.2-0.7,2.4-1,3.6c-0.3,1.2-0.5,2.5-0.7,3.7
		c-0.2,1.2-0.4,2.5-0.5,3.7c-0.1,1.2-0.2,2.5-0.3,3.8c-0.1,1.3-0.1,2.5,0,3.8c0,1.3,0.1,2.5,0.2,3.8c0.2,2.5,0.4,5,0.8,7.5
		c0.7,5,1.7,9.9,2.7,14.8l0,0l0,0l0.6,14l-0.6,0.1l-0.5-2.9l0.6-0.1c1.1,8.1,2.1,16.2,1.7,24.4c-0.1,1-0.1,2-0.2,3.1
		c-0.1,1-0.2,2-0.4,3c-0.2,1-0.4,2-0.6,3c-0.2,1-0.5,2-0.8,3c-0.3,1-0.6,2-1,2.9c-0.4,1-0.8,1.9-1.2,2.9l-0.7,1.4l-0.7,1.4l-0.8,1.3
		l-0.9,1.3l-0.3-0.7c5.6,0.3,11.3-0.2,16.8-1.5c0.7-0.2,1.4-0.3,2-0.5c0.7-0.2,1.3-0.4,1.9-0.7c1.1-0.6,1.5-1.9,1.9-3.3
		c0.8-2.7,1.4-5.4,1.8-8.2c0.4-2.8,0.6-5.6,0.5-8.4c-0.1-2.8-0.3-5.6-0.7-8.4c-0.4-2.8-0.8-5.6-1.2-8.4l-1.3-8.4l-2.5-16.9
		c-0.8-5.6-1.6-11.3-2.2-16.9c-0.6-5.7-1.1-11.3-1.3-17c-0.1-2.8-0.1-5.7,0-8.5c0.1-2.8,0.3-5.7,0.5-8.5l0.1,0
		c-0.8,11.3,0,22.7,1.4,34c1.4,11.3,3.4,22.5,5.1,33.7l1.3,8.4c0.4,2.8,0.9,5.6,1.2,8.4c0.4,2.8,0.7,5.7,0.7,8.5
		c0.1,2.9-0.1,5.7-0.5,8.6c-0.4,2.8-1,5.6-1.9,8.4c-0.2,0.7-0.4,1.4-0.8,2.1c-0.4,0.7-0.9,1.4-1.6,1.8c-0.7,0.4-1.4,0.6-2.1,0.8
		c-0.7,0.2-1.4,0.4-2.1,0.5c-5.6,1.3-11.3,1.8-17.1,1.5l-0.8,0l0.4-0.7l0.8-1.3l0.8-1.3l0.7-1.3l0.7-1.4c0.4-0.9,0.8-1.8,1.2-2.8
		c0.3-0.9,0.7-1.9,1-2.9c0.3-1,0.5-1.9,0.8-2.9c0.2-1,0.4-2,0.6-3c0.2-1,0.3-2,0.4-3c0.1-1,0.2-2,0.3-3c0.5-8.1-0.5-16.2-1.5-24.3
		l0.6-0.1l0.5,2.9l-0.6,0.1l-0.5-14l0,0c-1-4.9-2-9.9-2.6-14.9c-0.3-2.5-0.6-5-0.7-7.5c-0.1-1.3-0.1-2.5-0.1-3.8
		c0-1.3,0-2.5,0.1-3.8c0.1-1.3,0.2-2.5,0.3-3.8c0.1-1.3,0.3-2.5,0.5-3.7c0.2-1.2,0.5-2.5,0.8-3.7c0.3-1.2,0.6-2.4,1-3.6
		C166.2,58.6,168.3,53.9,171.1,49.7L171.1,49.7z"/>
</g>
<g>
	<path class="st8" d="M245.6,305.7c16.5-3.2,34-1.1,49.3,5.9c-2.7,11.4-4.3,23-4.6,34.7c0,0.7-0.1,1.5-0.5,2c-0.3,0.3-0.6,0.6-1,0.7
		c-5.6,2.7-12.2-0.2-18.1-2.2c-4.4-1.5-9-2.4-13.6-2.7c-3.7-0.3-7.7-0.2-10.8-2.2c-3.1-2-4.7-7-1.9-9.4c1.3-1.2,3.4-1.6,4.1-3.2
		c0.7-1.8-0.8-3.6-1.5-5.4c-0.5-1.5-0.5-3.2-0.4-4.8c0.2-4.4-1.8-9.9-1.6-14.3"/>
	<path class="st1" d="M245.6,305.6l3.1-0.6l3.1-0.5l3.1-0.3l3.2-0.2l3.2-0.1l3.2,0.1l3.2,0.2l3.1,0.3l3.1,0.4l3.1,0.5l3.1,0.7
		l3.1,0.8l3,0.9l3,1l3,1.1l2.9,1.3l0.3,0.1l-0.1,0.4c-2.4,10-3.9,20.2-4.5,30.4c-0.1,1.3-0.1,2.6-0.2,3.8c0,0.6,0,1.3-0.3,2
		c-0.3,0.8-1,1.1-1.6,1.4c-2.4,1.1-5.2,1.2-7.7,0.8c-2.6-0.4-5-1.2-7.5-2.1c-2.4-0.9-4.8-1.7-7.3-2.3c-2.5-0.6-5-1.1-7.6-1.3
		c-2.5-0.3-5.1-0.3-7.7-0.7c-1.3-0.2-2.6-0.6-3.7-1.1c-0.6-0.3-1.2-0.6-1.7-1c-0.5-0.4-1-0.9-1.4-1.5c-0.8-1.1-1.3-2.3-1.4-3.7
		c-0.1-1.3,0.2-2.7,1.1-3.7c0.9-1,2.2-1.5,3.2-2.2c0.5-0.4,1-0.8,1.2-1.4c0.3-0.6,0.3-1.2,0.1-1.8c-0.3-1.2-1-2.3-1.5-3.5
		c-0.5-1.2-0.5-2.6-0.5-3.9c0.2-2.6-0.2-5.1-0.6-7.7c-0.4-2.5-0.9-5.1-0.9-7.7l0.1,0c-0.1,2.6,0.5,5.1,0.9,7.6
		c0.5,2.5,0.9,5.1,0.7,7.7c0,1.3,0,2.6,0.5,3.8c0.4,1.2,1.2,2.3,1.5,3.6c0.2,0.6,0.2,1.4-0.1,2c-0.3,0.6-0.8,1.1-1.3,1.5
		c-1.1,0.8-2.3,1.2-3.1,2.1c-0.8,0.9-1.1,2.2-1,3.5c0.1,1.2,0.6,2.4,1.4,3.5c0.4,0.5,0.8,1,1.3,1.4c0.5,0.4,1,0.7,1.6,1
		c1.1,0.5,2.4,0.9,3.6,1.1c2.5,0.4,5.1,0.4,7.7,0.7c2.6,0.2,5.1,0.7,7.6,1.3c2.5,0.6,5,1.4,7.4,2.3c2.4,0.8,4.9,1.6,7.4,2
		c2.5,0.4,5.1,0.3,7.4-0.8c0.6-0.2,1.1-0.6,1.2-1c0.2-0.5,0.2-1.1,0.2-1.8c0-1.3,0.1-2.6,0.1-3.9c0.3-5.2,0.7-10.3,1.5-15.4
		c0.7-5.1,1.7-10.2,2.9-15.2l0.2,0.5l-2.9-1.3l-2.9-1.1l-3-1l-3-0.9l-3-0.8l-3.1-0.7l-3.1-0.6l-3.1-0.5l-3.1-0.3l-3.1-0.2l-3.1-0.1
		l-3.1,0l-3.1,0.1l-3.1,0.2l-3.1,0.4L245.6,305.6L245.6,305.6z"/>
</g>
<g>
	<path class="st5" d="M247.9,329.4c0,0,0.2-0.1,0.7-0.2c0.4-0.1,1-0.3,1.8-0.4c0.8-0.1,1.6-0.2,2.6-0.2c0.5,0,1,0,1.5,0.1
		c0.5,0,1,0.1,1.5,0.2c0.5,0.1,1,0.2,1.5,0.4c0.5,0.1,1,0.3,1.4,0.5c0.9,0.4,1.7,0.7,2.3,1.1c0.7,0.4,1.2,0.8,1.5,1
		c0.3,0.3,0.5,0.4,0.5,0.4s-0.2-0.1-0.6-0.3c-0.4-0.2-1-0.4-1.7-0.7c-0.3-0.1-0.7-0.3-1.1-0.4c-0.4-0.2-0.8-0.3-1.3-0.4
		c-0.9-0.3-1.8-0.5-2.8-0.7c-1-0.2-1.9-0.3-2.9-0.4c-0.5,0-0.9-0.1-1.3-0.1c-0.4,0-0.8,0-1.2,0c-0.7,0-1.4,0-1.8,0.1
		C248.1,329.4,247.9,329.4,247.9,329.4z"/>
</g>
<g>
	<path class="st5" d="M274.1,339c0,0,0.9,0,2.2,0c1.3,0,3.1,0.2,4.8,0.4c0.9,0.1,1.7,0.2,2.5,0.3c0.8,0.1,1.5,0.1,2.1,0
		c0.6-0.1,1.1-0.3,1.3-0.6c0.3-0.3,0.4-0.5,0.4-0.5c0,0,0,0.2-0.2,0.6c-0.2,0.3-0.7,0.8-1.4,1c-0.7,0.2-1.5,0.3-2.3,0.3
		c-0.8,0-1.7-0.1-2.6-0.2c-1.7-0.2-3.5-0.5-4.7-0.7C274.9,339.2,274.1,339,274.1,339z"/>
</g>
<g>
	<path class="st5" d="M272.7,351.3c0,0,0.2,0,0.7-0.1c0.4,0,1-0.1,1.8-0.1c1.5-0.1,3.4-0.2,5.4-0.3c1-0.1,2-0.1,2.8-0.2
		c0.9-0.1,1.7-0.4,2.3-0.7c0.3-0.2,0.6-0.3,0.8-0.5c0.2-0.2,0.4-0.4,0.5-0.6c0.2-0.4,0.3-0.6,0.3-0.6c0,0,0,0.3-0.1,0.7
		c-0.1,0.4-0.5,1-1.1,1.5c-0.6,0.5-1.5,0.8-2.4,1c-1,0.2-1.9,0.3-2.9,0.4c-2,0.1-4,0.1-5.4-0.1C273.7,351.5,272.7,351.3,272.7,351.3
		z"/>
</g>
<g>
	<path class="st8" d="M185.8,147.6c-11.6,4.3-21.7,12.5-28.3,23c12.9,7.8,19.7,24.5,16.1,39.1c2.5-7.8,3.8-15.9,6.4-23.6
		c2.6-7.7,6.5-15.3,12.9-20.4c0.9-0.7,2-1.5,2.4-2.6c0.4-0.9,0.3-2,0.2-3c-0.5-3.9-1.8-7.7-3.8-11.1c-0.7-1.2-1.5-2.3-2.8-2.8
		c-1.3-0.4-3,0.3-3.1,1.6"/>
	<path class="st1" d="M185.8,147.7l-2.1,0.9l-2.1,1l-2.1,1.1l-2,1.1l-2,1.2l-1.9,1.3l-1.9,1.4l-1.8,1.4l-1.7,1.5l-1.7,1.6l-1.6,1.6
		l-1.6,1.7l-1.5,1.8l-1.4,1.8l-1.3,1.9l-1.2,1.9l-0.1-0.6l2.4,1.6l2.2,1.8l2.1,2l1.9,2.1l1.7,2.3l1.6,2.4l1.4,2.5l1.2,2.6l1,2.7
		l0.8,2.7l0.6,2.8l0.3,2.8l0.1,2.8l-0.1,2.8l-0.3,2.8l-0.6,2.8l-0.7-0.2c1.9-6,3.2-12.1,4.9-18.2c1.7-6.1,3.8-12.1,7.2-17.4
		c1.7-2.7,3.7-5.1,6.1-7.2c0.6-0.5,1.2-1,1.8-1.5c0.6-0.5,1.2-1,1.6-1.6c0.9-1.3,0.6-3,0.4-4.5c-0.5-3.1-1.5-6.1-2.9-8.9
		c-0.7-1.4-1.5-2.8-2.8-3.7c-0.7-0.4-1.5-0.6-2.2-0.3c-0.7,0.2-1.4,0.8-1.5,1.6l-0.1,0c0.1-0.8,0.8-1.5,1.5-1.7
		c0.8-0.3,1.6-0.1,2.3,0.3c1.4,0.9,2.1,2.4,2.9,3.7c1.5,2.8,2.5,5.8,3,8.9c0.1,0.8,0.3,1.6,0.3,2.4c0,0.8-0.2,1.6-0.6,2.3
		c-0.5,0.7-1.1,1.2-1.7,1.7c-0.6,0.5-1.2,1-1.8,1.5c-2.3,2.1-4.3,4.6-5.9,7.2c-3.3,5.3-5.4,11.3-7,17.3c-1.6,6.1-2.9,12.2-4.7,18.3
		l-0.7-0.2l0.5-2.7l0.3-2.8l0.1-2.8l-0.1-2.8l-0.4-2.8l-0.6-2.7l-0.8-2.7l-1-2.6l-1.2-2.5l-1.3-2.4l-1.5-2.3l-1.7-2.2l-1.9-2.1
		l-2-1.9l-2.2-1.7l-2.3-1.6l-0.4-0.3l0.2-0.3l1.3-1.9l1.4-1.9l1.5-1.8l1.5-1.8l1.6-1.7l1.7-1.6l1.7-1.6l1.8-1.5l1.8-1.4l1.9-1.3
		l2-1.3l2-1.2l2.1-1.1l2.1-1l2.1-0.9L185.8,147.7L185.8,147.7z"/>
</g>
<g>
	<path class="st5" d="M263.3,342c0,0-0.3-0.1-0.7-0.4c-0.5-0.2-1.1-0.5-1.9-0.9c-1.6-0.6-3.9-1.3-6.2-1.4c-1.2-0.1-2.3-0.1-3.4,0
		c-1.1,0.1-2.2,0.1-3.1-0.2c-0.5-0.1-0.9-0.3-1.2-0.5c-0.3-0.2-0.6-0.4-0.7-0.7c-0.3-0.4-0.3-0.8-0.3-0.7c0,0,0,0.1,0.1,0.2
		c0.1,0.1,0.2,0.3,0.4,0.5c0.2,0.2,0.4,0.4,0.7,0.5c0.3,0.1,0.7,0.2,1.1,0.3c0.8,0.1,1.8,0,2.9-0.1c0.5-0.1,1.1-0.1,1.7-0.2
		c0.6,0,1.2,0,1.8,0c1.2,0.1,2.4,0.3,3.5,0.7c1.1,0.3,2,0.8,2.8,1.2c0.8,0.4,1.4,0.9,1.8,1.2C263,341.8,263.3,342,263.3,342z"/>
</g>
<g>
	<path class="st5" d="M244.7,344.7c0,0,0.3-0.1,0.9-0.2c0.6-0.1,1.4-0.2,2.4-0.3c1-0.1,2.1-0.1,3.4,0c0.6,0.1,1.3,0.2,1.9,0.4
		c0.6,0.2,1.3,0.5,1.9,0.8c1.2,0.7,2.2,1.4,3.2,2.2c1,0.7,1.9,1.4,2.8,1.8c0.4,0.2,0.8,0.4,1.2,0.5c0.4,0.1,0.7,0.2,1,0.2
		c0.3,0,0.5,0,0.7,0c0.2,0,0.2,0,0.2,0s-0.1,0-0.2,0c-0.2,0-0.4,0.1-0.7,0.1c-0.3,0-0.6,0-1.1,0c-0.4-0.1-0.9-0.2-1.3-0.3
		c-0.5-0.2-1-0.4-1.5-0.7c-0.5-0.3-1-0.6-1.5-0.9c-1-0.7-2.1-1.4-3.2-2c-0.6-0.3-1.1-0.6-1.7-0.7c-0.6-0.2-1.2-0.3-1.8-0.4
		c-1.2-0.2-2.3-0.3-3.3-0.3c-1,0-1.8,0-2.4,0C245,344.7,244.7,344.7,244.7,344.7z"/>
</g>
<g>
	<path class="st5" d="M249.6,349.9c0,0-0.5,0.2-1.2,0.4c-0.7,0.2-1.7,0.5-2.7,0.7c-1,0.2-2,0.4-2.8,0.5c-0.8,0.1-1.3,0.1-1.3,0.1
		s0.4-0.3,1.2-0.6c0.7-0.3,1.7-0.6,2.7-0.9c1-0.2,2.1-0.3,2.8-0.3C249.1,349.8,249.6,349.9,249.6,349.9z"/>
</g>
<g>
	<path class="st5" d="M169.5,184.3c0,0-0.4,0.2-1.1,0.7c-0.7,0.4-1.7,1.2-2.7,2.1c-1.1,0.9-2.2,2.2-3.3,3.5
		c-1.2,1.4-2.4,2.8-3.5,4.3c-1.2,1.5-2.3,3-3.4,4.5c-1,1.4-2,2.8-2.8,4c-1.6,2.4-2.7,4-2.7,4s0.2-0.4,0.6-1.2
		c0.4-0.7,0.9-1.8,1.7-3.1c0.7-1.2,1.6-2.7,2.6-4.2c1-1.5,2.1-3,3.3-4.6c1.2-1.5,2.4-3,3.7-4.3c1.2-1.3,2.5-2.5,3.6-3.4
		c1.1-0.9,2.2-1.5,2.9-1.9c0.4-0.2,0.7-0.3,0.9-0.4C169.4,184.3,169.5,184.3,169.5,184.3z"/>
</g>
<g>
	<path class="st2" d="M121.2,442.6c0,0,0.2,0,0.5-0.1c0.3,0,0.8-0.1,1.4-0.2c1.2-0.1,2.9,0,4.9,0.4c1,0.2,2.1,0.5,3.2,0.8
		c1.1,0.3,2.3,0.6,3.5,1.1c2.4,0.8,5,1.8,7.5,3c2.5,1.2,4.9,2.4,7.1,3.7c2.2,1.2,4.3,2.5,6,3.6c1.7,1.1,3.2,2,4.2,2.7
		c1,0.7,1.6,1,1.6,1s-0.6-0.3-1.6-0.9c-1-0.6-2.5-1.4-4.3-2.4c-1.8-1-3.9-2.1-6.1-3.3c-1.1-0.6-2.3-1.2-3.5-1.8
		c-1.2-0.6-2.4-1.2-3.7-1.7c-2.5-1.2-5-2.2-7.3-3c-1.2-0.4-2.3-0.8-3.5-1.2c-1.1-0.3-2.2-0.7-3.2-0.9c-2-0.5-3.7-0.7-4.8-0.7
		c-0.6,0-1.1,0-1.4,0C121.4,442.6,121.2,442.6,121.2,442.6z"/>
</g>
<g>
	<path class="st2" d="M183.9,422.9c0,0,0.5,0,1.3,0c0.9,0,2.1,0,3.5-0.1c1.5,0,3.2-0.2,4.9-0.5c1.8-0.3,3.6-1,5.5-1.6
		c1.9-0.6,3.9-0.9,5.6-1.3c0.9-0.2,1.7-0.5,2.5-0.8c0.7-0.3,1.4-0.7,2.1-1.1c1.2-0.8,2.2-1.5,2.9-2c0.7-0.5,1.1-0.8,1.1-0.8
		s-0.4,0.3-1,0.9c-0.6,0.6-1.5,1.4-2.8,2.3c-1.2,0.8-2.8,1.7-4.6,2.2c-1.8,0.5-3.7,0.8-5.6,1.4c-0.9,0.3-1.9,0.6-2.8,0.9
		c-0.9,0.3-1.9,0.5-2.8,0.6c-1.8,0.3-3.6,0.3-5.1,0.2c-1.5,0-2.7-0.2-3.6-0.3C184.4,423,183.9,422.9,183.9,422.9z"/>
</g>
<g>
	<path class="st2" d="M176.1,442c0,0,0.8,0,2.2,0.1c1.4,0.1,3.4,0.1,5.8,0.2c2.4,0.1,5.2,0.2,8.2,0.4c1.5,0.1,3.1,0.2,4.6,0.3
		c1.6,0.1,3.2,0.2,4.8,0.2c1.6,0,3.1-0.1,4.5-0.7c1.4-0.6,2.7-1.6,4.2-2c1.6-0.4,3.1-0.3,4.5,0c1.4,0.3,2.6,0.8,3.8,1.2
		c2.3,0.9,4,1.9,5.3,2.6c1.2,0.7,1.9,1.2,1.9,1.2s-0.7-0.4-2-1c-1.3-0.6-3.1-1.4-5.4-2.3c-1.1-0.4-2.4-0.8-3.7-1
		c-1.3-0.2-2.8-0.3-4.1,0.1c-1.4,0.3-2.6,1.3-4.1,2c-1.5,0.7-3.3,0.8-4.9,0.8c-1.6-0.1-3.2-0.2-4.8-0.3c-1.6-0.1-3.1-0.2-4.6-0.3
		c-3-0.2-5.8-0.5-8.2-0.7c-2.4-0.2-4.4-0.4-5.8-0.5C176.9,442,176.1,442,176.1,442z"/>
</g>
<g>
	<path class="st2" d="M131.5,373.9c5.5,2.2,9.8,6.8,15.4,8.7c2.7,0.9,5.5,1.2,8.3,1.4c23.9,1.9,48,0.3,71.4-4.8
		c2.9-0.6,5.8-1.3,8.2-3c1,0.8,1.1,2.2,1,3.4c-0.5,4.8-3,9.4-6.8,12.4c-4.9,3.9-11.3,5.1-17.5,5.9c-22.5,3-45.5,2.9-68-0.3
		c-2.6-0.4-5.3-0.8-7.6-2c-3.8-1.9-6.6-5.7-7.3-9.9c-0.7-4.2,0.8-8.7,3.8-11.7"/>
	<path class="st3" d="M131.5,373.8c2.1,0.8,4,2,5.9,3.2c1.9,1.2,3.7,2.5,5.6,3.6c1.9,1.1,4,2,6.2,2.4c2.2,0.5,4.4,0.7,6.6,0.8
		c2.2,0.2,4.4,0.3,6.7,0.4c2.2,0.1,4.4,0.2,6.7,0.2c2.2,0,4.4,0.1,6.7,0c2.2,0,4.4-0.1,6.7-0.1c2.2-0.1,4.4-0.2,6.7-0.3
		c2.2-0.1,4.4-0.3,6.7-0.5c2.2-0.2,4.4-0.4,6.6-0.7c2.2-0.2,4.4-0.6,6.6-0.9c2.2-0.3,4.4-0.7,6.6-1.1c2.2-0.4,4.4-0.8,6.6-1.2
		c2.2-0.5,4.4-0.9,6.5-1.4c2.1-0.5,4.2-1.2,6-2.5l0.2-0.1l0.2,0.1c0.7,0.5,1,1.3,1.1,2.1c0.1,0.8,0,1.5-0.1,2.2
		c-0.2,1.5-0.6,2.9-1.1,4.3c-1.1,2.7-2.8,5.2-4.9,7.2c-2.2,2-4.9,3.4-7.6,4.3c-2.8,1-5.6,1.6-8.5,2c-1.4,0.2-2.9,0.4-4.3,0.6
		c-1.4,0.2-2.9,0.4-4.3,0.5c-1.4,0.2-2.9,0.3-4.3,0.4c-1.4,0.1-2.9,0.3-4.3,0.3c-1.4,0.1-2.9,0.2-4.3,0.3c-1.4,0.1-2.9,0.2-4.3,0.2
		c-2.9,0.1-5.8,0.2-8.7,0.2c-2.9,0-5.8,0-8.7-0.1c-2.9-0.1-5.8-0.3-8.7-0.5c-5.8-0.4-11.5-1-17.2-1.9c-2.8-0.4-5.8-0.8-8.5-2
		c-2.7-1.2-4.9-3.3-6.3-5.9c-1.4-2.6-1.9-5.6-1.5-8.5c0.5-2.9,1.9-5.6,3.9-7.6l0.1,0.1c-2,2-3.3,4.8-3.7,7.6
		c-0.4,2.8,0.2,5.8,1.6,8.2c1.4,2.5,3.6,4.5,6.2,5.6c2.6,1.1,5.5,1.5,8.4,1.8c5.7,0.8,11.5,1.3,17.2,1.7c2.9,0.2,5.8,0.3,8.6,0.4
		c2.9,0.1,5.8,0.1,8.6,0.1c2.9,0,5.8-0.1,8.6-0.2c1.4,0,2.9-0.1,4.3-0.2c1.4-0.1,2.9-0.2,4.3-0.3c1.4-0.1,2.9-0.2,4.3-0.3
		c1.4-0.1,2.9-0.3,4.3-0.4c1.4-0.1,2.9-0.3,4.3-0.5c1.4-0.2,2.9-0.3,4.3-0.6c2.8-0.4,5.7-1,8.4-1.9c2.7-0.9,5.2-2.3,7.4-4.2
		c2.1-1.9,3.8-4.3,4.8-6.9c0.5-1.3,0.9-2.7,1.1-4.1c0.1-0.7,0.2-1.4,0.1-2.1c-0.1-0.7-0.3-1.3-0.8-1.7l0.4,0c-1.9,1.3-4.1,2-6.3,2.6
		c-2.2,0.5-4.4,0.9-6.5,1.4c-2.2,0.4-4.4,0.8-6.6,1.2c-2.2,0.4-4.4,0.7-6.6,1c-2.2,0.3-4.4,0.6-6.6,0.8c-2.2,0.3-4.4,0.5-6.7,0.7
		c-2.2,0.2-4.4,0.4-6.7,0.5c-2.2,0.1-4.5,0.2-6.7,0.3c-2.2,0-4.5,0.1-6.7,0.1c-2.2,0-4.5,0-6.7-0.1c-2.2-0.1-4.5-0.1-6.7-0.3
		c-2.2-0.1-4.4-0.3-6.7-0.4c-2.2-0.2-4.4-0.4-6.6-0.9c-2.2-0.5-4.3-1.4-6.2-2.5c-1.9-1.1-3.7-2.4-5.6-3.6
		C135.4,375.9,133.5,374.8,131.5,373.8L131.5,373.8z"/>
</g>
<g>
	<path class="st0" d="M208.1,382c1.5-0.4,3.2-0.7,4.8-0.8c1.8,2.8,3.7,5.7,4.7,8.8c1.1,3.4,1.1,7,1.1,10.5c0,0.3,0,0.6-0.2,0.9
		c-0.4,0.7-1.6,0.8-2.6,0.8c-1-2.8-1.9-5.7-2.9-8.5c-0.2-0.5-0.3-1-0.5-1.5c-1.2-3.4-2.3-6.8-3.5-10.2"/>
	<path class="st2" d="M208.1,381.9c1.6-0.5,3.2-0.7,4.8-0.8l0.1,0l0,0.1c1.1,1.7,2.3,3.4,3.2,5.2c0.5,0.9,0.9,1.8,1.3,2.8
		c0.4,1,0.6,1.9,0.9,3c0.4,2,0.5,4.1,0.6,6.1l0,1.5c0,0.5,0.1,1-0.1,1.6c0,0.1-0.2,0.3-0.2,0.4c-0.1,0.2-0.2,0.3-0.4,0.3
		c-0.3,0.2-0.5,0.3-0.8,0.3c-0.5,0.1-1.1,0.2-1.6,0.2l-0.3,0l-0.1-0.3c-1.2-3.3-2.4-6.7-3.4-10.1c-1.1-3.4-2.2-6.8-3.1-10.2l0.1,0
		c1.3,3.3,2.6,6.6,3.8,10c1.2,3.3,2.4,6.7,3.5,10.1l-0.4-0.3c0.5,0,1,0,1.4-0.1c0.2-0.1,0.4-0.1,0.6-0.2c0.1-0.1,0.1-0.1,0.2-0.2
		c0.1-0.1,0.1-0.1,0.1-0.2c0.1-0.3,0.1-0.9,0.1-1.4l0-1.5c0-2-0.1-4-0.5-6c-0.2-1-0.4-2-0.8-2.9c-0.3-0.9-0.7-1.9-1.2-2.8
		c-0.9-1.8-2-3.5-3.1-5.2l0.1,0C211.3,381.3,209.6,381.6,208.1,381.9L208.1,381.9z"/>
</g>
<g>
	<path class="st0" d="M218,380.4c1.1-0.7,2.4-1,3.7-1.1c0.3,0,0.5,0,0.8,0.1c0.5,0.2,0.6,0.8,0.8,1.3c0.4,1.6,0.8,3.1,1.3,4.7
		c0.3,1,0.6,2.1,0.8,3.1c0.8,3,1.6,6.1,1.1,9.1c-0.1,0.3-0.1,0.6-0.4,0.8c-0.2,0.2-0.4,0.2-0.6,0.3c-0.9,0.3-1.9,0.6-2.8,0.8
		c-0.5-1.9-1-3.8-1.4-5.7c-1.2-4.8-2.4-9.5-3.6-14.3"/>
	<path class="st2" d="M218,380.3c1-0.6,2.2-1,3.3-1.1c0.3,0,0.6,0,0.9,0c0.3,0.1,0.6,0.3,0.8,0.6c0.3,0.5,0.4,1.1,0.6,1.7l1.9,6.8
		c0.6,2.3,1.3,4.5,1.4,6.9c0,0.6,0,1.2,0,1.8c0,0.3-0.1,0.6-0.1,0.9c-0.1,0.3-0.2,0.7-0.5,1c-0.4,0.2-0.7,0.3-0.9,0.4l-0.8,0.3
		l-1.7,0.5l-0.4,0.1l-0.1-0.4c-0.9-3.3-1.8-6.6-2.5-10c-0.4-1.7-0.8-3.3-1.1-5c-0.4-1.7-0.7-3.4-1-5l0.1,0c0.5,1.6,1,3.3,1.5,4.9
		c0.5,1.6,0.9,3.3,1.4,5c0.9,3.3,1.7,6.6,2.5,10l-0.5-0.3l1.7-0.5l0.8-0.2c0.3-0.1,0.6-0.2,0.7-0.2c0.3-0.1,0.3-0.8,0.4-1.4
		c0.1-0.6,0.1-1.1,0.1-1.7c0-2.3-0.6-4.6-1.2-6.8l-1.7-6.8c-0.2-0.6-0.2-1.2-0.5-1.6c-0.1-0.2-0.3-0.4-0.6-0.5
		c-0.3-0.1-0.6-0.1-0.8,0C220.2,379.5,219,379.8,218,380.3L218,380.3z"/>
</g>
<g>
	<path class="st9" d="M133.4,374c3.6,2.3,5.3,4.8,8.6,7.5c3.5,2.9,7.1,6.2,8.1,10.6c0.3,1.3,0.4,2.7,0.4,4.1c0,1.4-0.1,2.7-0.5,4
		c-0.8,2.3-3,4.1-5.4,4.6c-0.7,0.1-1.4,0.2-2.1,0c-0.6-0.2-1.2-0.6-1.7-1.1c-3.5-2.9-6.7-7.3-9.3-11c1.7,0.1,3.4,1.8,4.6,3
		c0.7,0.7,1.3,1.5,2,2.1c0.8,0.6,1.9,0.9,2.8,0.5c0.7-0.4,1.1-1.2,1.4-2c0.3-1.1,0.5-2.2,0.3-3.3c-0.3-3-2.5-5.4-4.6-7.7
		c-1.1-1.2-2.2-2.4-3.7-3.2c-0.9-0.5-1.9-0.8-2.8-1.4c-0.9-0.6-3.2-1.4-3.2-2.4c0-1,1.5-3.2,2.7-4.4c0.4-0.4,1.1-0.6,1.7-0.3
		L133.4,374z"/>
	<path class="st10" d="M133.4,374c1,0.7,2,1.4,2.9,2.2c0.9,0.8,1.8,1.7,2.7,2.5c0.9,0.9,1.8,1.7,2.7,2.5c1,0.8,1.9,1.6,2.8,2.4
		c1.8,1.7,3.5,3.5,4.7,5.7c0.6,1.1,1,2.3,1.2,3.5c0.2,1.2,0.3,2.5,0.3,3.7c0,1.2-0.1,2.5-0.5,3.7c-0.4,1.2-1.2,2.3-2.2,3.1
		c-1,0.8-2.2,1.4-3.4,1.7c-0.6,0.1-1.3,0.2-2,0c-0.7-0.2-1.2-0.6-1.7-0.9c-1.9-1.6-3.6-3.4-5.2-5.3c-1.6-1.9-3-3.9-4.5-5.9l-0.5-0.7
		l0.9,0.1c1.1,0.1,2,0.7,2.8,1.3c0.8,0.6,1.5,1.3,2.2,2c0.7,0.7,1.3,1.5,2,2c0.7,0.5,1.6,0.7,2.2,0.3c0.6-0.4,1-1.3,1.2-2.1
		c0.2-0.9,0.3-1.8,0.2-2.7c-0.1-0.9-0.4-1.8-0.8-2.6c-0.4-0.8-0.9-1.6-1.5-2.4c-0.6-0.8-1.2-1.5-1.8-2.2c-0.6-0.7-1.3-1.4-2-2.1
		c-0.7-0.7-1.4-1.2-2.3-1.6c-0.8-0.4-1.8-0.8-2.6-1.4c-0.8-0.5-1.7-0.8-2.5-1.5c-0.2-0.2-0.4-0.4-0.4-0.7c-0.1-0.3,0-0.5,0.1-0.8
		c0.2-0.5,0.4-0.9,0.7-1.3c0.5-0.8,1.1-1.6,1.8-2.3c0.3-0.4,0.8-0.7,1.3-0.7C132.6,373.5,133,373.8,133.4,374L133.4,374L133.4,374z
		 M133.4,374.1c-0.4-0.2-0.9-0.5-1.3-0.5c-0.5,0-0.9,0.3-1.2,0.7c-0.6,0.7-1.2,1.5-1.7,2.3c-0.2,0.4-0.5,0.8-0.6,1.3
		c-0.1,0.2-0.1,0.5,0,0.6c0.1,0.2,0.2,0.4,0.4,0.5c0.7,0.6,1.6,0.9,2.5,1.4c0.8,0.5,1.7,0.8,2.6,1.2c0.9,0.4,1.7,1,2.5,1.6
		c0.7,0.6,1.4,1.4,2.1,2.1c0.7,0.7,1.3,1.4,1.9,2.2c0.6,0.8,1.2,1.6,1.7,2.5c0.5,0.9,0.8,1.9,0.9,2.9c0.1,1,0.1,2.1-0.2,3.1
		c-0.2,0.9-0.5,2.1-1.6,2.7c-0.5,0.3-1.2,0.4-1.7,0.3c-0.6-0.1-1.1-0.3-1.5-0.6c-0.9-0.6-1.5-1.5-2.1-2.1c-0.7-0.7-1.4-1.4-2.1-1.9
		c-0.7-0.6-1.5-1-2.4-1.1l0.4-0.7c1.4,2,2.8,4,4.4,5.9c1.5,1.9,3.2,3.7,5.1,5.3c0.5,0.4,0.9,0.7,1.5,0.8c0.5,0.1,1.1,0.1,1.7,0
		c1.2-0.2,2.3-0.7,3.2-1.5c0.9-0.8,1.6-1.7,2.1-2.9c0.4-1.1,0.5-2.3,0.5-3.5c0-1.2,0-2.4-0.2-3.6c-0.2-1.2-0.6-2.4-1.1-3.4
		c-1.1-2.2-2.7-4.1-4.5-5.8c-0.9-0.8-1.8-1.6-2.8-2.4c-0.9-0.8-1.8-1.7-2.7-2.5C137.3,377.1,135.5,375.4,133.4,374.1z"/>
</g>
<g>
	<path class="st5" d="M194.2,200.7c0,0-0.2,0-0.5,0.1c-0.3,0.1-0.8,0.2-1.4,0.4c-0.6,0.2-1.3,0.5-2,1c-0.7,0.4-1.5,1-2.4,1.7
		c-1.7,1.4-3.4,3.2-5.3,5.2c-1.9,1.9-3.9,4-6,6.1c-2.1,2-4.1,4.1-6,6c-1.8,2-3.5,3.9-4.7,5.7c-0.6,0.9-1.1,1.7-1.6,2.5
		c-0.4,0.8-0.8,1.4-1.1,2c-0.3,0.6-0.5,1-0.6,1.3c-0.1,0.3-0.2,0.5-0.2,0.5s0.1-0.2,0.2-0.5c0.1-0.3,0.2-0.8,0.5-1.4
		c0.2-0.6,0.5-1.3,0.9-2.1c0.4-0.8,0.9-1.7,1.5-2.6c1.2-1.8,2.7-3.9,4.5-5.9c1.8-2,3.9-4.1,5.9-6.2c2.1-2,4.1-4.1,6-6
		c1.9-1.9,3.7-3.7,5.5-5c1.7-1.3,3.4-2.1,4.7-2.4c0.6-0.2,1.1-0.2,1.5-0.3C194,200.7,194.2,200.7,194.2,200.7z"/>
</g>
<g>
	<path class="st11" d="M137.2,330.7c-0.7,1.6-2.7,2.4-4.4,2.1c-1.7-0.3-3.2-1.4-4.6-2.5c-3.6-2.9-7-6.3-9.3-10.3
		c-0.8-1.4-1.6-3-2.3-4.5c-1.5-3.2-3-6.4-3.9-9.8c-2.3-8.8-0.2-18,1.4-26.9c0.9-5.1,1.6-10.7-1-15.2c-3.5-6.2-12.5-8.8-13.7-15.8
		c-0.2-1.1-0.2-2.2-0.3-3.3c-0.2-1-0.5-2.1-0.7-3.1c-0.6-2.9-0.5-6-0.4-8.9c0.1-1.7,0.2-3.5,1.1-5c0.4-0.6,1-1.1,1.3-1.8
		c0.4-0.7,0.5-1.5,0.7-2.3c0.6-2.9,2-5.7,4-8c0.7-0.8,1.4-1.5,2.3-2c2.9-1.6,6.5-0.6,9.5,0.7c1.9,0.8,4.2,0.9,6.2,1.5
		c0.4,0.1,0.1-1.6,0.2-2.1c0.4-1.8,2.4-2.9,3.8-2.6c1.2,0.2,2,2.4,2.4,3.6c1.5,4.8,3,9.6,4.4,14.3c0.9,3,1.9,6.1,1.5,9.3
		c-0.3,2.6-1.4,5-2.1,7.4c-1.8,6.5-0.8,13.5,1,20.1c1.7,6.6,4.1,13,5,19.7c0.4,3.3,0.4,6.7,0.5,10c0.1,11.9,0.2,24-2.4,35.6"/>
	<path d="M137.3,330.8c0,0,0,0.1-0.1,0.2c-0.1,0.1-0.2,0.3-0.3,0.5c-0.3,0.4-1,1-2,1.3c-1,0.3-2.4,0.2-3.8-0.5
		c-1.4-0.7-2.8-1.8-4.3-3.1c-1.5-1.3-3.1-2.8-4.7-4.6c-1.5-1.8-3.1-3.9-4.3-6.4c-1.3-2.4-2.6-5.1-3.7-7.9c-0.6-1.4-1.1-2.9-1.5-4.5
		c-0.4-1.6-0.7-3.2-0.9-4.9c-0.7-6.8,0.7-14.1,2.1-21.7c0.7-3.8,1.3-7.8,0.5-11.7c-0.2-1-0.5-1.9-0.9-2.8c-0.2-0.5-0.4-0.9-0.7-1.3
		l-0.4-0.6l-0.5-0.6c-1.3-1.6-2.9-2.9-4.5-4.2c-1.6-1.3-3.3-2.6-4.9-4.2c-1.5-1.5-2.8-3.5-3.2-5.7c-0.2-1.1-0.2-2.2-0.3-3.3
		c-0.1-1-0.5-2.1-0.7-3.2c-0.5-2.2-0.6-4.4-0.5-6.7c0-1.1,0.1-2.2,0.1-3.3c0.1-1.1,0.2-2.3,0.7-3.4c0.4-1.1,1.5-1.9,1.9-2.8
		c0.4-0.9,0.5-2.1,0.8-3.2c0.6-2.2,1.7-4.3,3.1-6.1c0.7-0.9,1.5-1.8,2.4-2.5c0.2-0.2,0.5-0.3,0.8-0.5c0.3-0.1,0.5-0.3,0.8-0.4
		c0.6-0.2,1.2-0.3,1.7-0.4c2.4-0.3,4.7,0.4,6.8,1.2c2,0.9,4.2,1,6.5,1.6l0.2,0.1c-0.3,0,0.1,0-0.2,0c-0.2,0.1-0.2,0.1-0.2,0.1
		c0,0,0-0.1,0-0.2c0-0.2,0-0.5,0-0.8c0-0.3-0.1-0.6,0.1-1c0.1-0.2,0.2-0.6,0.4-0.9c0.7-1.1,1.8-1.8,3.1-1.9c0.3,0,0.6,0,1,0.1
		c0.1,0,0.4,0.2,0.5,0.2c0.2,0.1,0.3,0.2,0.4,0.3c0.4,0.5,0.7,1,1,1.5c0.5,1.1,0.8,2.2,1.1,3.2c1.3,4.2,2.6,8.4,3.9,12.6
		c0.6,2.1,1.3,4.2,1.6,6.4c0.1,1.1,0.2,2.2,0.1,3.3c-0.1,1.1-0.4,2.2-0.7,3.2c-0.3,1-0.7,2-1,3c-0.2,0.5-0.3,1-0.4,1.5
		c-0.1,0.5-0.3,1-0.4,1.5c-0.4,2-0.6,4-0.6,6c0.1,4,0.8,7.9,1.7,11.6c0.9,3.7,2.1,7.3,3,10.9c1,3.5,1.7,7,2.1,10.4
		c0.3,3.4,0.3,6.6,0.3,9.7c0,3.1,0,6,0,8.8c-0.1,5.5-0.3,10.3-0.7,14.2c-0.4,3.9-0.9,7-1.3,9.1c-0.2,1-0.4,1.8-0.5,2.4
		c-0.1,0.5-0.2,0.8-0.2,0.8l-0.1,0c0,0,0.1-0.3,0.2-0.8c0.1-0.5,0.3-1.3,0.4-2.4c0.4-2.1,0.8-5.1,1.1-9.1c0.3-3.9,0.5-8.7,0.5-14.2
		c0-2.7,0-5.7-0.1-8.7c0-3.1-0.1-6.3-0.4-9.6c-0.4-3.3-1.2-6.7-2.2-10.2c-1-3.5-2.2-7.1-3.1-10.8c-1-3.8-1.7-7.7-1.8-11.9
		c0-2.1,0.2-4.1,0.6-6.2c0.1-0.5,0.2-1,0.4-1.5c0.1-0.5,0.3-1,0.5-1.5c0.3-1,0.7-2,1-3c0.6-2,0.9-4,0.6-6.1
		c-0.3-2.1-0.9-4.1-1.5-6.2c-1.3-4.2-2.6-8.4-3.9-12.6c-0.3-1.1-0.6-2.1-1-3.1c-0.2-0.5-0.5-0.9-0.8-1.3c-0.1-0.1-0.2-0.2-0.2-0.2
		c-0.1-0.1-0.1-0.1-0.2-0.1c-0.2-0.1-0.4-0.1-0.7-0.1c-0.9,0.1-1.9,0.7-2.4,1.5c-0.1,0.2-0.2,0.4-0.3,0.7c-0.1,0.1,0,0.4,0,0.7
		c0,0.3,0,0.6,0,0.9c0,0.2,0,0.3-0.1,0.6c0,0.1,0,0.2-0.3,0.3c-0.3,0.1,0,0-0.4,0l-0.2-0.1c-2.1-0.6-4.5-0.7-6.6-1.7
		c-2.1-0.8-4.2-1.5-6.4-1.2c-0.5,0.1-1.1,0.2-1.5,0.4c-0.2,0.1-0.5,0.2-0.7,0.3c-0.2,0.1-0.4,0.3-0.7,0.4c-0.9,0.6-1.6,1.5-2.3,2.3
		c-1.3,1.7-2.4,3.7-2.9,5.9c-0.3,1-0.4,2.2-0.9,3.3c-0.3,0.6-0.7,1-1,1.4c-0.4,0.4-0.6,0.8-0.9,1.3c-0.4,1-0.6,2-0.6,3.1
		c-0.1,1.1-0.1,2.2-0.1,3.3c-0.1,2.2,0,4.4,0.5,6.5c0.2,1.1,0.6,2.1,0.7,3.2c0.1,1.1,0.1,2.2,0.3,3.2c0.4,2.1,1.6,3.9,3,5.4
		c1.5,1.5,3.2,2.8,4.8,4.1c1.6,1.3,3.3,2.7,4.6,4.4l0.5,0.6l0.4,0.7c0.3,0.4,0.5,0.9,0.8,1.4c0.4,1,0.7,2,1,3
		c0.8,4.1,0.1,8.1-0.6,11.9c-1.4,7.6-2.9,14.8-2.2,21.6c0.2,1.7,0.5,3.3,0.8,4.9c0.4,1.6,0.9,3,1.5,4.5c1.2,2.8,2.4,5.5,3.7,7.9
		c1.1,2.5,2.7,4.6,4.2,6.4c1.5,1.8,3.1,3.3,4.6,4.6c1.5,1.3,2.8,2.4,4.2,3.1c1.4,0.7,2.7,0.8,3.7,0.5c1-0.3,1.7-0.8,2-1.2
		c0.2-0.2,0.3-0.4,0.3-0.5C137.1,330.8,137.2,330.7,137.3,330.8L137.3,330.8z"/>
</g>
<g>
	<path d="M111.5,251.2c0,0,0.1-0.1,0.3-0.3c0.2-0.2,0.5-0.4,0.9-0.8c0.8-0.6,2.1-1.4,3.8-2c0.8-0.3,1.8-0.5,2.8-0.7
		c0.5-0.1,1-0.1,1.6-0.1c0.5,0,1.1,0,1.6,0c0.5,0,1-0.2,1.3-0.5c0.1-0.2,0.2-0.4,0.2-0.6c0-0.3,0-0.5,0-0.8c-0.2-1-0.9-2-1.8-2.5
		c-0.9-0.6-2.1-0.8-3.2-0.8c-1.1-0.1-2.3,0-3.4,0c-1.1,0-2.3-0.1-3.3-0.4c-1-0.2-1.8-0.3-2.6-0.1c-0.8,0.2-1.6,0.5-2.3,0.7
		c-0.7,0.2-1.3,0.4-1.8,0.6c-1,0.3-1.6,0.5-1.6,0.5l0-0.1c0,0,0.5-0.3,1.5-0.7c0.5-0.2,1-0.5,1.7-0.8c0.7-0.3,1.4-0.7,2.3-1
		c0.4-0.1,1-0.2,1.5-0.3c0.5,0,1.1,0.1,1.6,0.1c1,0.2,2,0.3,3.1,0.3c1.1,0,2.3,0,3.5,0.1c1.2,0.1,2.5,0.4,3.5,1.1
		c1.1,0.7,1.9,1.8,2.1,3.1c0,0.3,0,0.7,0,1c-0.1,0.3-0.2,0.7-0.4,1c-0.5,0.6-1.2,0.7-1.8,0.7c-0.6,0-1.1-0.1-1.6-0.1
		c-0.5,0-1,0-1.5,0.1c-1,0.1-1.9,0.3-2.8,0.6c-1.7,0.5-3,1.2-3.8,1.8c-0.4,0.3-0.8,0.5-1,0.7C111.7,251.2,111.6,251.3,111.5,251.2
		L111.5,251.2z"/>
</g>
<g>
	<path d="M103.4,233.3c0,0,0.1,0,0.4,0c0.3,0,0.6,0,1.1-0.1c0.5-0.1,1-0.3,1.7-0.5c0.6-0.2,1.3-0.6,2.2-0.8c1.7-0.4,3.7-0.3,5.8,0.2
		c2.1,0.5,4.2,1.3,6.3,2c1.1,0.3,2.1,0.7,3.2,1c1,0.3,2.1,0.6,3.1,1.2c0.5,0.3,1,0.7,1.3,1.1c0.4,0.5,0.6,1,0.8,1.5
		c0.3,1,0.2,2.1-0.1,3c-0.4,0.9-1,1.5-1.6,1.9c-0.6,0.4-1.2,0.5-1.8,0.6c-0.5,0-0.9,0-1.2-0.1c-0.3-0.1-0.4-0.1-0.4-0.1l0-0.1
		c0,0,0.1,0,0.4,0c0.3,0,0.6,0,1.1-0.1c0.5-0.1,1-0.3,1.5-0.7c0.5-0.4,1-1,1.2-1.7c0.2-0.7,0.3-1.6,0-2.4c-0.1-0.4-0.4-0.8-0.6-1.1
		c-0.3-0.4-0.7-0.6-1.1-0.9c-0.8-0.5-1.9-0.8-2.9-1.2c-1-0.4-2.1-0.8-3.1-1.2c-2.1-0.8-4.2-1.6-6.2-2.2c-2-0.6-4-0.8-5.6-0.5
		c-0.8,0.2-1.5,0.4-2.2,0.7c-0.6,0.2-1.2,0.4-1.7,0.5c-0.5,0.1-0.9,0.1-1.2,0C103.5,233.4,103.4,233.4,103.4,233.3L103.4,233.3z"/>
</g>
<g>
	<path d="M121.5,215.1c0,0,0.2,0,0.4,0.1c0.3,0.1,0.7,0.2,1.2,0.4c1,0.4,2.4,1.1,3.6,2.6c0.6,0.7,1.1,1.6,1.4,2.7
		c0.3,1,0.3,2.3-0.3,3.4c-0.3,0.5-0.8,1-1.3,1.3c-0.6,0.3-1.3,0.5-1.9,0.4c-1.3-0.2-2.4-0.6-3.6-0.9c-2.4-0.6-4.7-1.3-7-1.9
		c-1.1-0.3-2.2-0.7-3.2-0.9c-1-0.2-1.9-0.4-2.8-0.3c-0.9,0.1-1.6,0.4-2.2,0.8c-0.6,0.4-1.1,0.8-1.6,1.1c-0.5,0.3-0.9,0.4-1.2,0.5
		c-0.3,0.1-0.5,0-0.5,0l0-0.1c0,0,0.2,0,0.4-0.1c0.3-0.1,0.6-0.3,1-0.6c0.4-0.3,0.8-0.8,1.4-1.3c0.6-0.5,1.4-1,2.4-1.1
		c1-0.2,2-0.1,3.1,0.1c1.1,0.2,2.1,0.6,3.2,0.8c2.2,0.7,4.5,1.4,6.9,2.1c1.2,0.3,2.4,0.8,3.5,1c1.1,0.2,2.1-0.4,2.7-1.3
		c0.6-0.9,0.6-2,0.4-3c-0.2-1-0.7-1.9-1.3-2.6c-1.1-1.4-2.4-2.3-3.4-2.7c-0.5-0.2-0.9-0.3-1.2-0.4
		C121.6,215.2,121.5,215.2,121.5,215.1L121.5,215.1z"/>
</g>
<g>
	<path d="M123.5,225c0,0,0.3,0.1,0.8,0.4c0.5,0.2,1.2,0.6,2,1.1c1.6,1,3.8,2.5,5.3,4.7c0.4,0.5,0.7,1.1,1,1.7
		c0.3,0.6,0.4,1.3,0.5,1.9c0,0.7-0.1,1.4-0.5,1.9c-0.2,0.3-0.4,0.5-0.7,0.7c-0.1,0.1-0.2,0.1-0.4,0.2c-0.1,0-0.3,0.1-0.4,0.1
		c-0.5,0.1-1,0.1-1.4,0.1c-0.4,0-0.7,0-1,0c-0.3,0-0.5,0-0.6,0.1c-0.1,0-0.2,0-0.2,0l0-0.1c0,0,0.1,0,0.2-0.1
		c0.1-0.1,0.3-0.2,0.6-0.2c0.5-0.2,1.4-0.2,2.2-0.5c0.1,0,0.2-0.1,0.3-0.1c0.1,0,0.2-0.1,0.3-0.2c0.1-0.1,0.3-0.3,0.4-0.4
		c0.2-0.4,0.3-0.8,0.3-1.4c0-0.5-0.1-1.1-0.3-1.6c-0.2-0.6-0.5-1.1-0.8-1.6c-1.2-2.1-3.2-3.8-4.8-4.8c-0.8-0.5-1.5-0.9-1.9-1.2
		C123.8,225.2,123.5,225.1,123.5,225L123.5,225z"/>
</g>
<g>
	<path class="st12" d="M117.8,264.9c0,0,0.2-0.1,0.4-0.1c0.3-0.1,0.7-0.1,1.2-0.2c1-0.1,2.4,0.2,3.7,0.1c0.6,0,1.2-0.2,1.7-0.4
		c0.5-0.2,0.9-0.5,1.2-0.7c0.3-0.3,0.5-0.6,0.7-0.9c0.1-0.3,0.2-0.4,0.2-0.4l0.1,0c0,0,0.1,0.2,0.1,0.5c0,0.3-0.1,0.8-0.4,1.3
		c-0.3,0.5-0.8,1-1.5,1.2c-0.7,0.2-1.4,0.3-2.1,0.2c-1.4-0.1-2.7-0.5-3.6-0.6C118.5,264.8,117.8,265,117.8,264.9L117.8,264.9z"/>
</g>
<g>
	<path class="st12" d="M123.6,248.6c0,0,0.3,0.1,0.9,0.2c0.5,0.2,1.2,0.5,1.7,1c0.3,0.2,0.6,0.5,0.8,0.7c0.2,0.3,0.3,0.6,0.4,0.9
		c0.2,0.5,0.1,1,0.1,1l-0.1,0c0,0-0.3-0.2-0.7-0.6c-0.2-0.2-0.4-0.4-0.5-0.6c-0.2-0.2-0.3-0.5-0.5-0.8c-0.4-0.5-0.9-0.9-1.3-1.2
		C123.8,248.8,123.5,248.6,123.6,248.6L123.6,248.6z"/>
</g>
<g>
	<path class="st12" d="M125.2,217.7c0,0-0.2,0-0.4,0c-0.3,0-0.7-0.1-1.1-0.2c-0.5-0.1-1-0.1-1.5,0.1c-0.2,0.1-0.4,0.3-0.6,0.5
		c-0.1,0.2-0.3,0.5-0.3,0.8c-0.2,0.6-0.2,1.2-0.3,1.8c-0.1,0.6-0.1,1.1-0.2,1.5c0,0.4,0.1,0.8,0.1,1.1c0.1,0.3,0.2,0.4,0.2,0.4
		l-0.1,0.1c0,0-0.2-0.1-0.4-0.3c-0.2-0.2-0.5-0.6-0.6-1.1c-0.1-0.5-0.2-1.1-0.1-1.8c0.1-0.6,0.3-1.3,0.6-1.9
		c0.1-0.3,0.3-0.6,0.6-0.9c0.3-0.3,0.6-0.5,0.9-0.6c0.7-0.2,1.3,0,1.8,0.1c0.5,0.2,0.8,0.3,1.1,0.4
		C125,217.6,125.2,217.6,125.2,217.7L125.2,217.7z"/>
</g>
<g>
	<path class="st12" d="M129.8,231.6c0,0-0.5,0-1.2,0.1c-0.2,0-0.4,0-0.6,0.1c-0.2,0-0.4,0-0.6,0.1c-0.1,0-0.1,0-0.2,0.1
		c0,0-0.1,0.1-0.1,0.2c-0.1,0.1-0.1,0.4-0.1,0.6c-0.1,0.5-0.1,0.9-0.1,1.3c0,0.2,0,0.4,0,0.6c0,0.2,0,0.3,0,0.5c0.1,0.6,0.4,1,0.4,1
		l-0.1,0.1c0,0-0.1,0-0.4-0.1c-0.2-0.1-0.5-0.3-0.7-0.7c-0.1-0.2-0.2-0.4-0.3-0.6c-0.1-0.2-0.1-0.5-0.1-0.7c0-0.5,0.2-1,0.3-1.5
		c0.1-0.2,0.1-0.5,0.3-0.8c0.1-0.1,0.2-0.3,0.4-0.4c0.1-0.1,0.3-0.1,0.4-0.1c0.3,0,0.5,0,0.7,0c0.2,0,0.4,0,0.6,0.1
		c0.7,0.1,1.2,0.1,1.2,0.1L129.8,231.6z"/>
</g>
<g>
	<path class="st12" d="M121.3,243.8c0,0-0.1,0.1-0.2,0.4c-0.1,0.2-0.2,0.6-0.2,0.9c0,0.2,0.1,0.3,0.1,0.4c0,0.1,0,0.2,0,0.4
		c-0.1,0.3-0.1,0.5-0.1,0.5l-0.1,0.1c0,0-0.1,0-0.2,0c-0.1,0-0.2-0.1-0.4-0.3c-0.1-0.1-0.2-0.3-0.2-0.6c0-0.2,0.1-0.4,0.2-0.7
		c0.2-0.4,0.4-0.8,0.7-0.9C121,243.8,121.2,243.7,121.3,243.8L121.3,243.8z"/>
</g>
<g>
	<path class="st13" d="M137,233.6c0.8,1.2,1.3,1.9,2.4,2.7c0.2,0.1,0.9,1,1,1.2c0.4,0.5,0.3,1.3,0.3,1.9c-0.6,0-1.2-0.3-1.7-0.6
		c-0.4-0.3-0.9-0.5-1.3-0.8c-0.4-0.3-0.7-0.7-1-1c-0.5-0.6-1.1-1.6-1.6-2.2"/>
	<path class="st1" d="M137,233.6c0.4,0.5,0.7,1,1.1,1.4c0.4,0.4,0.9,0.8,1.4,1.1c0.2,0.1,0.3,0.2,0.4,0.4l0.3,0.4
		c0.2,0.2,0.4,0.4,0.6,0.7c0.4,0.7,0.3,1.4,0.3,2l0,0.3l-0.3,0c-0.8,0-1.4-0.3-2-0.6c-0.6-0.3-1.2-0.6-1.6-1.1
		c-0.4-0.5-0.8-1-1.2-1.6c-0.3-0.6-0.6-1.1-0.9-1.7l0.1-0.1c0.5,0.4,0.9,0.9,1.3,1.4c0.2,0.2,0.4,0.4,0.6,0.7
		c0.2,0.2,0.4,0.4,0.7,0.6c0.4,0.4,0.9,0.7,1.4,1c0.5,0.3,1,0.6,1.5,0.7l-0.4,0.3c0.1-0.3,0.1-0.6,0.1-0.8c0-0.3,0-0.5-0.1-0.7
		c-0.1-0.2-0.4-0.5-0.5-0.7l-0.3-0.3c-0.1-0.1-0.2-0.2-0.3-0.3c-0.5-0.4-0.9-0.8-1.3-1.3C137.6,234.7,137.3,234.2,137,233.6
		L137,233.6z"/>
</g>
<g>
	<path class="st14" d="M119.8,214.6c-1.9-1.3-3.6-3-4.9-5c0.2-0.4,0-0.9-0.3-1.3s-0.8-0.5-1.1-0.8c-0.8-0.6-1.3-1.4-1.9-2.2
		c-0.8-1-1.8-1.9-2.7-2.7c-3.4-3-6.7-6-10.1-9c-0.6-0.5-1.2-1-1.9-1c-0.9,0.1-1.5,0.9-2,1.6c-0.1,0.2-0.2,0.3-0.2,0.5
		c0,0.2,0.1,0.3,0.2,0.4c1.2,1.7,2.4,3.4,3.7,5c0.5,0.6,1,1.2,1.5,1.8c0.2,0.3,0.5,0.6,0.7,0.9c0.3,0.3,0.5,0.7,0.8,1
		c1.9,2.2,3.9,4.3,6.1,6.2c0.7,0.6,1.5,1.3,1.5,2.3c3.7,0.1,7.5,1,10.9,2.6"/>
	<path class="st1" d="M119.7,214.7c-2-1.3-3.7-3-5-5l0-0.1l0-0.1c0.2-0.4-0.1-1-0.4-1.3c-0.4-0.3-0.9-0.5-1.3-0.9
		c-0.8-0.8-1.4-1.7-2.1-2.5c-0.7-0.8-1.5-1.5-2.3-2.2l-2.4-2.1l-4.9-4.3l-2.4-2.1c-0.8-0.7-1.6-1.5-2.5-1.1c-0.4,0.2-0.7,0.5-1,0.9
		c-0.1,0.2-0.3,0.5-0.4,0.6c0,0.1,0,0.1,0,0.2c0,0,0,0.1,0.1,0.2l1.9,2.6l1.9,2.6l2.1,2.5c1.4,1.7,2.8,3.3,4.3,4.8
		c0.8,0.8,1.5,1.5,2.3,2.2c0.4,0.4,0.8,0.7,1.2,1.2c0.4,0.4,0.7,1,0.7,1.7l-0.3-0.4c1.9,0.1,3.8,0.4,5.6,0.9c1.8,0.5,3.6,1.2,5.3,2
		l0,0.1c-1.7-0.7-3.5-1.3-5.3-1.6c-1.8-0.4-3.7-0.6-5.5-0.6l-0.4,0l0-0.4c0-0.9-0.9-1.6-1.7-2.2c-0.8-0.7-1.6-1.4-2.4-2.2
		c-0.8-0.8-1.5-1.5-2.3-2.3c-0.7-0.8-1.4-1.6-2.1-2.5l-2-2.5l-1.9-2.6l-1.9-2.6c-0.1-0.1-0.2-0.3-0.2-0.5c0-0.2,0-0.5,0.1-0.6
		c0.2-0.3,0.3-0.5,0.5-0.7c0.3-0.4,0.7-0.9,1.4-1.2c0.6-0.3,1.4-0.1,1.8,0.2c0.5,0.3,0.9,0.7,1.3,1.1l2.4,2.2l4.8,4.3l2.4,2.2
		c0.8,0.7,1.6,1.5,2.3,2.3c0.7,0.8,1.2,1.8,2,2.5c0.4,0.4,0.9,0.6,1.3,0.9c0.4,0.3,0.8,1,0.5,1.6l0-0.1
		C116.2,211.5,117.9,213.2,119.7,214.7L119.7,214.7z"/>
</g>
<g>
	<path class="st14" d="M128.6,222.7c1,0.4,1.3,1.7,1.8,2.7c0.5,1,1.4,1.9,2.3,2.6c0.6,0.4,1.3,1.2,0.9,1.8c1.4,1.1,2.3,2.4,3.3,3.9
		c-1.1,0-1.5,1-1.7,2c-1.8-0.6-3.6-1.9-4.6-3.4c-0.1-0.2-0.3-0.4-0.5-0.6c-0.2-0.2-0.6-0.3-0.8-0.4c-1.2-0.4-2-1.6-3-2.2
		c-0.5-0.3-1.1-0.5-1.7-0.9c-1.1-0.7-1.8-1.8-2.6-2.8"/>
	<path class="st1" d="M128.6,222.6c0.4,0.1,0.7,0.4,0.9,0.7c0.2,0.3,0.4,0.7,0.6,1c0.3,0.7,0.6,1.4,1.1,1.9c0.5,0.6,1,1.1,1.6,1.5
		c0.3,0.2,0.6,0.5,0.9,0.8c0.1,0.2,0.2,0.4,0.3,0.6c0.1,0.2,0,0.5-0.1,0.7l-0.1-0.3c1.4,1,2.4,2.5,3.4,3.9l0.3,0.5l-0.6,0
		c-0.4,0-0.7,0.2-0.9,0.5c-0.2,0.3-0.3,0.8-0.4,1.2l-0.1,0.4L135,236c-1.4-0.4-2.7-1.2-3.8-2.2c-0.3-0.3-0.5-0.5-0.8-0.8
		c-0.2-0.3-0.5-0.7-0.6-0.8c-0.1-0.2-0.3-0.2-0.7-0.4c-0.4-0.1-0.8-0.3-1-0.6c-0.6-0.5-1.1-1-1.6-1.4c-0.5-0.5-1.1-0.7-1.7-1.1
		c-0.7-0.4-1.2-0.9-1.7-1.5c-0.4-0.6-0.8-1.2-1.1-1.8l0.1-0.1c0.5,0.6,0.9,1.1,1.4,1.6c0.5,0.5,1,0.9,1.6,1.2c0.6,0.3,1.3,0.6,1.9,1
		c0.6,0.5,1.1,0.9,1.6,1.3c0.3,0.2,0.5,0.3,0.8,0.4c0.2,0.1,0.3,0.1,0.5,0.2c0.2,0.1,0.4,0.2,0.6,0.4c0.3,0.4,0.4,0.6,0.6,0.9
		c0.2,0.3,0.4,0.5,0.7,0.8c0.9,1,2.1,1.7,3.4,2.2l-0.5,0.3c0.1-0.5,0.2-1,0.6-1.5c0.2-0.2,0.4-0.5,0.6-0.6c0.3-0.1,0.6-0.2,0.8-0.2
		l-0.3,0.5c-0.9-1.4-1.8-2.9-3.1-3.9l-0.2-0.1l0.1-0.2c0.2-0.2,0.1-0.5-0.1-0.8c-0.2-0.3-0.5-0.5-0.8-0.7c-0.6-0.5-1.2-1-1.6-1.6
		c-0.5-0.6-0.8-1.3-1-2C129.6,223.7,129.2,223,128.6,222.6L128.6,222.6z"/>
</g>
<g>
	<path class="st15" d="M113.7,208c-0.9,0.5-1.8,1.1-2.7,1.6c-0.2,0.1-0.4,0.2-0.6,0.4c-0.6,0.5-0.7,1.3-0.9,2c0-0.6-0.6-1.1-1.1-1.5
		c-0.5-0.4-1.1-0.9-1-1.5c0.1-0.4,0.3-0.7,0.6-0.9c0.4-0.4,0.7-0.8,1.1-1.2c0.6-0.7,1.5-1.4,2.4-1.2c0.5,1,1.2,1.8,2.2,2.2"/>
	<path class="st16" d="M113.7,208l-2.6,1.7c-0.1,0.1-0.2,0.1-0.3,0.2l-0.3,0.2c-0.1,0-0.2,0.2-0.2,0.2c-0.1,0.1-0.1,0.2-0.2,0.3
		c-0.2,0.4-0.3,0.9-0.4,1.4l-0.5-0.1c0-0.3-0.2-0.6-0.5-0.8c-0.3-0.2-0.6-0.4-0.9-0.7c-0.3-0.3-0.7-0.6-0.8-1.1
		c-0.1-0.3-0.1-0.5,0-0.8c0.1-0.3,0.2-0.4,0.4-0.6c0.3-0.3,0.5-0.6,0.8-0.9c0.3-0.3,0.5-0.6,0.8-0.9c0.3-0.3,0.6-0.6,1-0.8
		c0.4-0.2,0.9-0.3,1.4-0.2l0.2,0.1l0.1,0.1c0.4,0.9,1,1.7,1.8,2.4l0,0.1c-1-0.3-1.9-1.1-2.5-2.1l0.3,0.2c-0.6-0.1-1.1,0.3-1.6,0.9
		l-0.8,0.8l-0.8,0.8c-0.1,0.1-0.2,0.3-0.3,0.4c0,0.1-0.1,0.2,0,0.3c0,0.2,0.3,0.5,0.5,0.8c0.3,0.2,0.6,0.5,0.9,0.8
		c0.3,0.3,0.6,0.7,0.6,1.2l-0.5-0.1c0.1-0.5,0.3-1,0.5-1.5c0.1-0.1,0.2-0.2,0.2-0.3c0.1-0.1,0.2-0.2,0.3-0.3l0.3-0.2
		c0.1-0.1,0.2-0.2,0.3-0.2L113.7,208L113.7,208z"/>
</g>
<g>
	<path class="st15" d="M129.4,223.9c-0.9,0.1-1.7,0.6-2.5,1.1c-0.4,0.3-0.8,0.5-1.1,0.9c-0.4,0.4-0.7,1-1,1.5
		c-0.1,0.2-0.4,0.4-0.4,0.6c0,0.1,0.4,0.3,0.5,0.4c0.5,0.4,1.2,0.4,1.6,0.9c1.4,1.5,2.3,1.7,3.5,2.4c0.9-1,2-1.8,3.2-2.3
		c0.2-0.1,0.3-0.4,0.2-0.6c-0.5-0.7-0.9-1.3-1.6-1.9c-0.5-0.4-1-0.8-1.4-1.3c-0.4-0.5-0.7-1.1-0.6-1.7"/>
	<path class="st16" d="M129.4,224c-0.6,0.1-1.1,0.3-1.5,0.6c-0.5,0.3-0.9,0.6-1.4,1c-0.4,0.3-0.8,0.7-1.1,1.2
		c-0.1,0.2-0.3,0.5-0.4,0.7c-0.1,0.2-0.2,0.3-0.3,0.4c-0.1,0.1-0.1,0.2-0.1,0.1c0.1,0.1,0.4,0.3,0.6,0.4c0.2,0.1,0.5,0.2,0.8,0.3
		c0.3,0.1,0.6,0.3,0.8,0.5c0.2,0.2,0.4,0.4,0.6,0.6c0.4,0.4,0.9,0.6,1.3,0.9c0.5,0.3,1,0.5,1.5,0.8l-0.5,0.1
		c0.6-0.7,1.3-1.3,2.1-1.9c0.2-0.1,0.4-0.3,0.6-0.4l0.3-0.2c0.1,0,0.3-0.1,0.2-0.1c0,0,0,0,0,0.1c0,0,0,0,0,0c0,0,0,0,0,0L133,229
		l-0.4-0.6c-0.3-0.4-0.5-0.7-0.8-1c-0.3-0.3-0.6-0.6-1-1c-0.3-0.3-0.6-0.7-0.8-1.2c-0.2-0.4-0.3-0.9-0.2-1.4l0.1,0
		c0,0.9,0.7,1.6,1.3,2.1c0.3,0.3,0.7,0.5,1.1,0.8c0.4,0.3,0.7,0.7,1,1l0.4,0.5l0.1,0.1c0,0,0.1,0.1,0.1,0.2c0.1,0.1,0.1,0.2,0.1,0.4
		c0,0.3-0.1,0.5-0.3,0.6c-0.3,0.2-0.3,0.1-0.4,0.2l-0.3,0.1c-0.2,0.1-0.4,0.2-0.6,0.3c-0.7,0.4-1.4,1-2.1,1.6l-0.2,0.2l-0.3-0.2
		c-0.5-0.3-0.9-0.5-1.4-0.8c-0.5-0.3-1-0.6-1.4-1c-0.2-0.2-0.4-0.4-0.6-0.6c-0.2-0.2-0.3-0.3-0.6-0.4c-0.2-0.1-0.5-0.2-0.8-0.3
		c-0.3-0.2-0.5-0.3-0.8-0.6c-0.1-0.1-0.1-0.3,0-0.4c0-0.1,0.1-0.2,0.2-0.2c0.1-0.1,0.2-0.2,0.2-0.3c0.1-0.2,0.3-0.5,0.5-0.7
		c0.3-0.5,0.7-0.9,1.2-1.2c0.5-0.3,0.9-0.6,1.4-0.9C128.2,224.1,128.8,223.9,129.4,224L129.4,224z"/>
</g>
<g>
	<path class="st0" d="M153.8,382.7c1.3-0.3,2.6-0.2,3.8,0.3c0.3,0.1,0.5,0.2,0.7,0.4c0.3,0.4,0.3,1,0.3,1.5
		c-0.1,1.6-0.3,3.2-0.4,4.8c-0.1,1.1-0.2,2.1-0.3,3.2c-0.3,3.1-0.6,6.2-2.1,8.9c-0.2,0.3-0.3,0.6-0.6,0.7c-0.2,0.1-0.4,0.1-0.7,0.1
		c-1-0.1-2-0.1-2.9-0.2c0.2-1.9,0.4-3.9,0.6-5.8c0.5-4.9,1-9.8,1.5-14.6"/>
	<path class="st2" d="M153.8,382.6c1.2-0.2,2.4-0.2,3.5,0.1c0.3,0.1,0.6,0.2,0.8,0.3c0.3,0.2,0.5,0.5,0.5,0.8c0.1,0.6,0,1.2,0,1.8
		l-0.5,7c-0.2,2.3-0.4,4.7-1.1,7c-0.2,0.6-0.4,1.1-0.7,1.7c-0.1,0.3-0.3,0.5-0.4,0.8c-0.2,0.3-0.4,0.6-0.8,0.7c-0.4,0.1-0.7,0-1,0
		l-0.9,0l-1.8-0.1l-0.4,0l0-0.4c0.3-3.4,0.6-6.8,1.1-10.2c0.2-1.7,0.4-3.4,0.7-5.1c0.2-1.7,0.5-3.4,0.8-5.1l0.1,0
		c-0.1,1.7-0.2,3.4-0.3,5.1c-0.1,1.7-0.3,3.4-0.4,5.1c-0.3,3.4-0.6,6.8-1,10.2l-0.4-0.5l1.8,0.1l0.9,0.1c0.3,0,0.6,0.1,0.8,0
		c0.3,0,0.6-0.7,0.8-1.1c0.3-0.5,0.5-1,0.7-1.6c0.7-2.2,1-4.5,1.2-6.8l0.7-7c0-0.6,0.2-1.2,0.1-1.7c0-0.3-0.2-0.5-0.4-0.7
		c-0.2-0.2-0.5-0.2-0.8-0.3C156.1,382.6,154.9,382.5,153.8,382.6L153.8,382.6z"/>
</g>
<g>
	<path class="st11" d="M183.1,177.3c-5.6,15.8-9.7,32.2-9.3,33.9c10.4-8.9,37.9-33.8,48.5-41.4c4.6-3.2,18.1-19.3,18.4-24.8
		c0.8-13.5,2.7-21.1,2.7-29.5c0-1,2-2.5,1.4-3.4c-1.2-1.4-8.8,2.7-10.5,2c-16.7-5.7-23.6,11.2-41.2,11.6L183.1,177.3z"/>
	<path class="st1" d="M183.2,177.3c-1.9,5.5-3.7,11.1-5.3,16.8c-0.8,2.8-1.6,5.7-2.3,8.5c-0.4,1.4-0.7,2.9-1,4.3
		c-0.2,0.7-0.3,1.4-0.4,2.2c-0.1,0.7-0.3,1.5-0.2,2.1l-0.2-0.1c5.8-5,11.5-10.1,17.2-15.2c5.7-5.1,11.5-10.1,17.3-15.1
		c2.9-2.5,5.8-4.9,8.8-7.3c1.5-1.2,3-2.4,4.5-3.5c1.6-1.1,2.9-2.4,4.2-3.8c2.6-2.7,5.1-5.7,7.4-8.7c2.3-3,4.5-6.2,6.2-9.6
		c0.4-0.9,0.7-1.7,0.9-2.6c0.1-0.9,0.1-1.9,0.2-2.8c0.1-1.9,0.3-3.8,0.5-5.7c0.4-3.8,0.9-7.6,1.3-11.4c0.2-1.9,0.4-3.8,0.5-5.7
		c0.1-0.9,0.1-1.9,0.1-2.8l0-1.4c0.1-0.7,0.4-1.1,0.7-1.5c0.3-0.4,0.6-0.8,0.7-1.1c0.2-0.4,0.1-0.5-0.2-0.5
		c-0.7-0.1-1.7,0.2-2.6,0.4c-1.8,0.5-3.6,1.3-5.5,1.7c-0.5,0.1-1,0.2-1.6,0.2c-0.1,0-0.2,0-0.2,0l-0.2-0.1l-0.3-0.1l-0.7-0.2
		c-0.5-0.2-0.9-0.2-1.4-0.4c-0.4-0.1-0.9-0.2-1.4-0.3c-1.8-0.3-3.7-0.3-5.6,0c-3.7,0.6-7.1,2.4-10.4,4.3c-3.3,1.9-6.5,4-10.1,5.6
		c-3.5,1.6-7.4,2.5-11.3,2.6l0.4-0.3L183.2,177.3L183.2,177.3z M183.1,177.3l9.6-51.8l0.1-0.3l0.3,0c3.8-0.1,7.5-1.1,10.9-2.6
		c3.5-1.5,6.7-3.6,10-5.6c3.3-1.9,6.8-3.8,10.7-4.4c1.9-0.3,3.9-0.3,5.9,0c0.5,0.1,1,0.2,1.4,0.3c0.5,0.1,1,0.2,1.4,0.4l0.7,0.2
		l0.3,0.1l0.1,0l0.1,0c0.4,0,0.8-0.1,1.3-0.2c1.8-0.4,3.6-1.2,5.5-1.7c0.5-0.1,0.9-0.3,1.4-0.4c0.5-0.1,1-0.2,1.6-0.1
		c0.1,0,0.1,0,0.2,0.1c0.1,0,0.2,0.1,0.3,0.2l0.1,0.1l0,0c0.1,0.1,0.1,0.1,0.1,0.1c0.1,0.1,0.1,0.2,0.1,0.3c0.1,0.4,0,0.7-0.1,1
		c-0.2,0.5-0.5,0.9-0.8,1.3c-0.3,0.4-0.5,0.8-0.5,1.1l0,1.4c0,1-0.1,1.9-0.1,2.9c-0.1,1.9-0.3,3.8-0.6,5.7c-0.5,3.8-1,7.6-1.4,11.4
		c-0.2,1.9-0.4,3.8-0.5,5.7c-0.1,1-0.1,1.9-0.2,2.9c-0.2,1-0.5,1.9-0.9,2.8c-1.7,3.5-4,6.6-6.3,9.7c-2.4,3-4.8,6-7.5,8.7
		c-1.3,1.4-2.8,2.7-4.3,3.8c-1.5,1.1-3,2.3-4.5,3.5c-3,2.4-5.9,4.8-8.8,7.3c-5.8,5-11.6,10-17.4,15c-5.8,5-11.5,10.1-17.3,15.1
		l-0.1,0.1l0-0.2c-0.1-0.8,0.1-1.5,0.2-2.2c0.1-0.7,0.3-1.4,0.4-2.2c0.3-1.4,0.7-2.9,1-4.3c0.7-2.8,1.5-5.7,2.3-8.5
		C179.3,188.4,181.1,182.8,183.1,177.3z"/>
</g>
<g>
	<path class="st8" d="M205.4,179.2c10,3,18.8,9.6,23.9,18.7c5.3-6.5,10.5-13.1,15.8-19.6c4.7-5.8,9.7-13.2,7.3-20.2
		c-1.4-3.9-4.9-7-5.1-11.2c-0.2-2.3,0.7-4.6-0.1-6.7c-1.4-3.6-6.2-3.9-10-3.6c0.2,3.1,4.1,5.2,3.6,8.3c-0.2,1.3-1.2,2.4-2.2,3.3
		c-6.8,6.6-13.6,13.2-20.5,19.7C214.1,171.7,205.4,179.2,205.4,179.2z"/>
	<path class="st1" d="M205.5,179.2l1.8,0.6l1.8,0.7l1.8,0.7l1.8,0.8l1.7,0.9l1.7,1l1.6,1.1l1.6,1.1l1.5,1.2l1.5,1.3l1.4,1.4l1.3,1.4
		l1.3,1.5l1.2,1.6l1.1,1.6l1,1.7l-0.6-0.1l6.1-7.7l6.1-7.6c2-2.5,4.2-5,6-7.6c1.9-2.6,3.6-5.4,4.6-8.4c0.5-1.5,0.8-3.1,0.7-4.7
		c0-1.6-0.4-3.1-1-4.6c-0.6-1.4-1.5-2.8-2.4-4.2c-0.8-1.4-1.7-2.9-2.1-4.5c-0.4-1.7-0.1-3.4,0-5c0.1-0.8,0.1-1.6-0.1-2.3
		c-0.1-0.7-0.5-1.5-1-2c-1-1.2-2.6-1.7-4.1-2c-1.6-0.3-3.2-0.2-4.8-0.1l0.3-0.3c0.1,1.1,0.7,2.2,1.4,3.2c0.7,1,1.5,2,1.9,3.2
		c0.2,0.6,0.3,1.3,0.2,1.9c-0.1,0.6-0.4,1.3-0.7,1.8c-0.7,1-1.7,1.8-2.6,2.7l-10.6,10.1l-5.3,5.1c-1.8,1.7-3.5,3.4-5.3,5
		C212.9,172.9,209.2,176,205.5,179.2z M205.4,179.2c3.7-3.2,7.3-6.4,10.9-9.8c1.8-1.7,3.5-3.4,5.3-5.1l5.2-5.1l10.5-10.2
		c0.9-0.9,1.8-1.7,2.5-2.6c0.7-1,0.9-2.2,0.4-3.2c-0.4-1.1-1.2-2-1.9-3c-0.7-1-1.4-2.1-1.5-3.4l0-0.3l0.3,0c1.6-0.1,3.3-0.2,4.9,0.1
		c1.6,0.3,3.3,0.8,4.5,2.2c0.6,0.7,1,1.4,1.1,2.3c0.2,0.8,0.2,1.7,0.1,2.5c-0.1,1.6-0.4,3.2,0,4.8c0.4,1.5,1.2,2.9,2,4.3
		c0.8,1.4,1.8,2.7,2.5,4.3c0.7,1.5,1.1,3.2,1.1,4.9c0,1.7-0.2,3.4-0.7,4.9c-1,3.2-2.8,6-4.7,8.7c-1.9,2.7-4,5.1-6.1,7.7l-6.1,7.6
		l-6.2,7.6l-0.3,0.4l-0.3-0.5l-1-1.7l-1-1.6l-1.1-1.6l-1.2-1.5l-1.3-1.4L222,189l-1.4-1.3l-1.5-1.2l-1.5-1.2l-1.6-1.1l-1.6-1
		l-1.7-0.9l-1.7-0.9l-1.8-0.8l-1.8-0.7L205.4,179.2L205.4,179.2z"/>
</g>
<g>
	<path class="st11" d="M250.1,117.6c-2.4,8.4-4.9,17-10,24c-6.9,9.2-17.5,14-27.7,18.5c-6.9,3-15,6.2-21.7,2.6
		c-4.4-2.2-7.1-6.7-9.7-11c-2.6-4.3-5.2-8.6-7.8-13c-3.2-5.2-6.4-10.7-6.9-16.9c-0.4-5.1,1.3-10.1,1.5-15.2
		c0.5-7.6-1.9-14.9-2.4-22.5c-0.8-12.4,3.3-24.6,7.4-36.3c21.1-15.7,50.7-16.1,72.1-0.8c4.9,3.5,9.4,7.9,12,13.4
		c2.5,5.2,3.3,11.3,3.4,17.3c0.2,14.8-3.1,29.7-9.9,42.8"/>
	<path class="st1" d="M250.1,117.6c-1.2,4.2-2.4,8.5-3.9,12.6c-1.5,4.1-3.4,8.1-6.1,11.5c-1.3,1.7-2.7,3.3-4.3,4.7
		c-1.5,1.4-3.2,2.7-4.9,4.1c-3.4,2.5-7,4.5-10.7,6.3c-3.7,1.8-7.4,3.5-11.2,5.1c-3.8,1.6-7.7,2.9-11.9,2.9c-2,0-4.2-0.4-6.1-1.2
		c-1.9-0.8-3.7-2.1-5.2-3.7c-3-3.1-5.1-7.1-7.4-10.6l-6.8-11c-2.3-3.7-4.4-7.6-5.6-11.9c-0.6-2.2-0.8-4.5-0.8-6.8
		c0.1-2.2,0.5-4.5,0.8-6.7c0.4-2.2,0.7-4.3,0.8-6.5c0.1-2.2,0-4.3-0.2-6.5c-0.5-4.3-1.4-8.6-1.9-13.1c-0.5-4.5-0.5-9,0.2-13.5
		c0.6-4.5,1.7-8.8,2.9-13c1.2-4.2,2.7-8.4,4.2-12.6l0.1-0.3l0.1-0.1l4-2.9l4.2-2.4L185,40c1.4-0.5,3-1.2,4.5-1.7
		c1.5-0.5,3.1-0.9,4.5-1.3c1.5-0.4,3.1-0.7,4.6-0.9c1.5-0.3,3.1-0.4,4.8-0.7c1.5-0.1,3.1-0.1,4.8-0.3c1.5,0,3.2,0,4.8,0.1
		s3.1,0.3,4.8,0.4c1.5,0.1,3.1,0.5,4.6,0.8c1.5,0.3,3.1,0.8,4.6,1.2c1.5,0.4,3,1,4.5,1.6s3,1.3,4.4,1.8c2.9,1.4,5.7,3,8.3,4.8
		c2.7,1.8,5.2,3.9,7.5,6.3c2.3,2.4,4.3,5.1,5.7,8.2c1.4,3.1,2.3,6.5,2.7,9.9c0.5,3.4,0.5,6.9,0.5,10.3c-0.1,6.9-1.2,13.7-2.9,20.4
		c-1.7,6.7-4.2,13.1-7.2,19c3-6,5.3-12.4,7-19.1c1.7-6.7,2.5-13.5,2.5-20.4c0-3.4-0.1-6.8-0.6-10.2c-0.5-3.4-1.3-6.7-2.7-9.7
		c-1.4-3-3.3-5.6-5.6-8c-2.3-2.4-4.8-4.3-7.5-6.2c-2.6-1.8-5.3-3.4-8.2-4.7c-1.4-0.7-2.9-1.3-4.4-1.8c-1.5-0.5-3-1-4.5-1.4
		c-1.5-0.4-3-0.8-4.5-1.2c-1.5-0.3-3.1-0.7-4.6-0.8c-1.5-0.1-3.1-0.4-4.6-0.4c-1.5,0-3.1-0.1-4.6-0.1c-1.5,0.1-3.1,0.1-4.6,0.3
		c-1.5,0.3-3.1,0.4-4.6,0.7c-1.5,0.4-3.1,0.7-4.5,0.9c-1.5,0.4-3,0.8-4.5,1.3c-1.4,0.5-3,1-4.4,1.7l-4.3,2l-4.2,2.4L173,48l0.2-0.3
		c-2.9,8.2-5.7,16.6-6.9,25.3c-0.6,4.3-0.7,8.8-0.2,13.1c0.5,4.3,1.4,8.6,1.9,13.1c0.2,2.2,0.4,4.5,0.2,6.8
		c-0.1,2.2-0.5,4.5-0.8,6.7c-0.4,2.2-0.7,4.3-0.8,6.5c-0.1,2.1,0.1,4.3,0.7,6.4c1.1,4.2,3.2,7.9,5.5,11.7l6.7,11.1
		c2.3,3.7,4.3,7.5,7.1,10.6c1.4,1.4,3,2.7,4.9,3.5c1.8,0.8,3.8,1.2,5.7,1.2c3.9,0,7.8-1.2,11.6-2.7c3.8-1.6,7.5-3.1,11.2-5
		c3.7-1.8,7.2-3.7,10.7-6c1.7-1.2,3.3-2.5,4.9-3.9s3-3,4.3-4.7c2.6-3.4,4.5-7.3,6.2-11.4C247.6,126,248.8,121.8,250.1,117.6z"/>
</g>
<path class="st17" d="M203.9,97.3c1.5-1.4,3.1-2.2,5-3.3c0.5-0.3,1.5-0.7,2.1-0.8c0.7-0.1,1.8-0.5,2.5-0.7c2.5-0.3,3.1-0.8,5.3-0.5
	c1,0.1,2.3,0.5,3.2,0.7c2.3,0.5,4,1.8,5.7,3c0.1,0.1,0.2,0.3,0.2,0.4c0,0.1-0.1,0.3-0.2,0.4c-1.8,1.7-3.8,3.3-6.1,4.5
	c-0.8,0.4-1.7,0.8-2.6,1c-1.2,0.3-2.4,0.4-3.7,0.5c-6.2,0.4-9.1-0.7-13.7-1.4c-0.1,0-0.4-0.1-0.5-0.3c-0.1-0.1,0-0.3,0.1-0.4
	C202.4,99.6,203.1,98.5,203.9,97.3z"/>
<g>
	<path class="st8" d="M205.8,179.5c-2.4-0.5-4.9,0.8-6.4,2.6c-1.6,1.8-2.5,4.2-3.3,6.5c-1.4,3.7-2.8,7.8-1.9,11.7
		c0.6,0.3,1.1-0.3,1.5-0.9c4.4-6.8,12.3-11.2,20.4-11.3c0.6-1,0-2.4-0.8-3.1c-0.9-0.8-2-1.2-3-1.9c-2.2-1.5-3.8-4.5-6.5-4.5"/>
	<path class="st1" d="M205.8,179.5c-1.1-0.2-2.2,0-3.2,0.4c-1,0.4-1.9,1.1-2.7,1.8c-1.5,1.6-2.4,3.6-3.2,5.7c-0.7,2.1-1.5,4.2-2,6.3
		c-0.5,2.1-0.7,4.4-0.2,6.5l-0.1-0.2c0.2,0.2,0.7-0.2,0.9-0.6l0.9-1.3c0.3-0.4,0.7-0.9,1-1.3l1.1-1.2c0.4-0.4,0.8-0.8,1.2-1.2
		c0.4-0.4,0.8-0.7,1.3-1.1c0.4-0.3,0.9-0.7,1.3-1c0.5-0.3,0.9-0.6,1.4-0.9c0.5-0.3,0.9-0.6,1.4-0.8c0.5-0.3,1-0.5,1.5-0.7
		c1-0.5,2-0.8,3.1-1.2c0.5-0.2,1.1-0.3,1.6-0.4c0.5-0.1,1.1-0.2,1.6-0.3c0.5-0.1,1.1-0.1,1.7-0.2c0.6,0,1.1,0,1.7-0.1l-0.4,0.2
		c0.3-0.4,0.3-0.9,0.1-1.5c-0.1-0.3-0.2-0.5-0.4-0.7c-0.2-0.2-0.3-0.4-0.6-0.6c-0.4-0.4-1-0.7-1.5-1c-0.3-0.2-0.5-0.3-0.8-0.5
		c-0.3-0.2-0.5-0.4-0.8-0.6c-1-0.9-1.8-1.8-2.7-2.7c-0.4-0.4-0.9-0.8-1.5-1.1c-0.3-0.1-0.6-0.3-0.8-0.4c-0.3-0.1-0.6-0.1-0.9-0.1
		l0-0.1c0.3,0,0.6,0,1,0.1c0.3,0.1,0.6,0.2,0.9,0.3c0.6,0.3,1.1,0.7,1.6,1.1c1,0.8,1.8,1.8,2.8,2.5c0.3,0.2,0.5,0.4,0.8,0.5
		c0.3,0.2,0.5,0.3,0.8,0.4c0.6,0.3,1.1,0.6,1.7,1c0.2,0.2,0.5,0.5,0.7,0.7c0.2,0.3,0.4,0.6,0.5,0.9c0.3,0.6,0.3,1.5-0.1,2.2
		l-0.1,0.2l-0.2,0c-1.1,0.1-2.1,0.2-3.2,0.3c-0.5,0.1-1.1,0.2-1.6,0.3c-0.5,0.1-1,0.2-1.5,0.4c-1,0.3-2,0.7-3,1.1
		c-0.5,0.2-1,0.4-1.4,0.7c-0.5,0.2-0.9,0.5-1.4,0.8c-0.5,0.3-0.9,0.6-1.4,0.9c-0.5,0.3-0.9,0.6-1.3,0.9c-0.4,0.3-0.8,0.7-1.2,1
		c-0.4,0.4-0.8,0.7-1.2,1.1l-1.1,1.2c-0.3,0.4-0.7,0.8-1,1.3l-0.9,1.3c-0.2,0.2-0.4,0.5-0.7,0.6c-0.3,0.2-0.7,0.3-1.1,0.1l-0.1-0.1
		l0-0.1c-0.5-2.2-0.3-4.5,0.3-6.7c0.5-2.2,1.4-4.2,2.2-6.3c0.4-1,0.8-2.1,1.4-3c0.5-1,1.2-1.9,2-2.7c0.8-0.8,1.7-1.4,2.8-1.8
		C203.6,179.4,204.7,179.2,205.8,179.5L205.8,179.5z"/>
</g>
<g>
	<path class="st12" d="M228.1,96.3c0,0,0,0.3,0.1,0.8s0.1,1.2,0,1.8c0,0.4-0.1,0.7-0.2,0.9c-0.1,0.3-0.2,0.5-0.4,0.8
		c-0.2,0.4-0.5,0.7-0.5,0.7l0,0c0,0,0-0.4,0.1-0.8c0-0.3,0.1-0.5,0.2-0.8c0.1-0.3,0.2-0.5,0.4-0.9c0.2-0.7,0.2-1.2,0.2-1.7
		C228.1,96.7,228.1,96.4,228.1,96.3L228.1,96.3z"/>
</g>
<g>
	<path class="st12" d="M186.7,89.6c0,0,0.1,0.1,0.2,0.5c0.1,0.3,0.5,0.8,0.7,1.4c0.6,1.2,1.3,3.1,1.5,5.5c0.2,2.4-0.2,5.2-0.7,8.1
		c-0.2,1.4-0.6,3-1.1,4.5c-0.5,1.4-1.1,3-1.7,4.5c-1.2,2.9-2.7,5.6-4.3,8.1c-0.8,1.2-1.5,2.4-1.9,3.5c-0.1,0.3-0.1,0.5-0.2,0.9
		c0,0.3,0,0.5,0,0.8c0,0.5,0.1,1.2,0.4,1.6c0.4,1,1,1.7,1.7,2.2c0.7,0.4,1.4,0.7,2,0.7s1.1-0.1,1.4-0.1c0.4-0.1,0.5-0.1,0.5-0.1v0.1
		c0,0-0.1,0.1-0.5,0.3c-0.4,0.1-0.8,0.4-1.4,0.4c-0.6,0.1-1.4,0-2.4-0.4c-0.8-0.4-1.8-1.3-2.3-2.4c-0.2-0.5-0.5-1.3-0.5-2
		c0-0.4,0-0.7,0-1c0-0.3,0.1-0.8,0.2-1c0.4-1.4,1.3-2.6,2-3.8c1.5-2.4,3.1-5,4.4-7.9c0.6-1.4,1.2-2.7,1.7-4.2s0.8-2.9,1.2-4.3
		c0.6-2.9,1.1-5.6,1-8c-0.1-2.4-0.7-4.2-1.3-5.5c-0.2-0.7-0.5-1-0.7-1.4C186.7,89.9,186.6,89.7,186.7,89.6L186.7,89.6z"/>
</g>
<path class="st17" d="M185.9,139.5c0.4,1.3,1.8,2.2,1.8,3.5c0,0.5-0.2,1.3,0.2,1.7c0.1,0.1,0.4,0.1,0.5,0.1c1.1,0.1,2.1,0.4,3.2,0.5
	c0.4,0,0.9,0.1,1.2,0c0.4-0.1,0.6-0.3,1-0.4c0.7-0.3,1.5-0.1,2.2-0.4c0.4-0.1,0.7-0.4,1.1-0.7c3.1-2.1,6.3-4.5,7.5-8.1
	c-1.6,0.1-3.1,1.2-4.5,1.8c-0.6,0.3-1.3,0.4-2.1,0.5C194,139.1,190,139.5,185.9,139.5"/>
<g>
	<path class="st12" d="M184.9,131.2c0,0,0,0-0.1,0s-0.2-0.1-0.4-0.4c-0.1-0.3-0.2-0.5-0.1-0.9c0.1-0.4,0.5-0.7,0.9-0.7
		s0.9,0,1.2,0.3c0.4,0.1,0.7,0.5,1.1,0.9c0.6,0.7,1.2,1.4,1.8,1.6h0.1l0,0l0,0c-0.1,0,0,0,0,0l0,0l0,0h0.1c0.1,0,0.1,0,0.2,0
		c0.1,0,0.2-0.1,0.4-0.3c0.2-0.3,0.5-0.5,0.6-0.8c0.4-0.7,0.6-1.4,0.6-2c0.1-0.7,0-1.2-0.1-1.6c-0.1-0.4-0.2-0.5-0.2-0.5l0.1-0.1
		c0,0,0.2,0.1,0.6,0.4c0.4,0.3,0.7,0.9,0.7,1.8c0.1,0.8,0,1.8-0.6,2.7c-0.2,0.4-0.6,0.9-1.2,1.2c-0.2,0.1-0.5,0.3-0.9,0.3
		c-0.1,0-0.4,0-0.5,0h-0.1l0,0l0,0l0,0h-0.1c-1.1-0.4-1.7-1.4-2.2-2.1c-0.5-0.7-1.1-1.2-1.7-1c-0.2,0-0.5,0.1-0.6,0.4
		c-0.1,0.3-0.1,0.4,0,0.7C184.7,131.1,184.9,131.1,184.9,131.2L184.9,131.2z"/>
</g>
<g>
	<path class="st12" d="M182.3,137.3c0,0,0.1,0.1,0.2,0.3c0.1,0.1,0.4,0.3,0.7,0.5c0.6,0.4,1.7,0.7,2.9,0.7c1.2,0,2.7-0.1,4.4-0.1
		c1.6-0.1,3.3-0.3,4.9-0.7l0.2-0.1c0,0,0.1,0,0.2-0.1l0.6-0.3c0.4-0.1,0.9-0.3,1.2-0.4c0.9-0.3,1.6-0.5,2.3-0.8
		c1.6-0.5,2.9-1,4.3-1.4c1.2-0.4,2.2-0.9,2.9-1.2c0.7-0.3,1.1-0.5,1.1-0.5s-0.1,0.1-0.2,0.3c-0.1,0.1-0.4,0.4-0.6,0.7
		c-0.6,0.5-1.5,1.3-2.6,2.1c-1.1,0.8-2.6,1.6-4,2.2c-0.7,0.4-1.5,0.8-2.5,1c-0.4,0.1-0.9,0.3-1.2,0.5l-0.6,0.3c-0.1,0-0.1,0-0.4,0.1
		l-0.4,0.1c-1.8,0.5-3.8,0.5-5.4,0.4c-0.9,0-1.6-0.1-2.5-0.3c-0.7-0.1-1.5-0.3-2.2-0.4c-1.3-0.4-2.5-1-2.9-1.7
		c-0.2-0.3-0.5-0.7-0.6-0.8C182.3,137.4,182.3,137.3,182.3,137.3z"/>
</g>
<g>
	<path class="st12" d="M211.9,130.6c0,0,0.2,0.1,0.5,0.5c0.2,0.3,0.5,0.8,0.7,1.2c0.4,0.9,0.5,2,0.5,2s-0.1,0-0.1-0.1
		c-0.1-0.1-0.2-0.3-0.2-0.4c-0.2-0.3-0.5-0.8-0.7-1.2c-0.2-0.5-0.4-0.9-0.4-1.3c0-0.1,0-0.4-0.1-0.5
		C211.9,130.6,211.9,130.6,211.9,130.6z"/>
</g>
<g>
	<path class="st1" d="M184.6,138.7c0,0,0.4,0.1,0.9,0.5s1.1,1,1.6,1.8c0.4,0.8,0.6,1.7,0.6,2.4s0,1,0,1s-0.1-0.4-0.4-1
		s-0.5-1.3-0.9-2.1c-0.2-0.4-0.4-0.7-0.6-1c-0.2-0.3-0.4-0.7-0.6-0.8c-0.2-0.3-0.4-0.4-0.5-0.5C184.7,138.8,184.6,138.7,184.6,138.7
		z"/>
</g>
<g>
	<path class="st1" d="M186.2,144.2c0,0,0.4,0.1,1,0.4c0.6,0.3,1.5,0.4,2.5,0.5c1.1,0.1,2.3,0.1,3.6-0.1c1.3-0.3,2.7-0.7,3.9-1.3
		s2.5-1.4,3.4-2.4c1-0.9,1.8-1.8,2.6-2.7c0.6-0.9,1.2-1.7,1.5-2.2c0.4-0.5,0.5-0.9,0.5-0.9s-0.1,0.4-0.4,0.9
		c-0.2,0.7-0.7,1.4-1.3,2.4c-0.6,0.9-1.5,2-2.5,3c-1,0.9-2.2,1.8-3.6,2.6c-1.3,0.7-2.7,1-4.2,1.3c-1.3,0.1-2.7,0.1-3.7-0.1
		c-1.1-0.1-2-0.5-2.5-0.8C186.4,144.5,186.2,144.2,186.2,144.2z"/>
</g>
<g>
	<path class="st12" d="M189.2,148.7c0,0,0.1,0,0.4,0.1c0.2,0.1,0.6,0.1,1,0.3c0.4,0.1,0.9,0.1,1.5,0.3c0.5,0,1.1,0,1.6,0
		c0.6,0,1.1-0.1,1.6-0.3c0.5-0.1,1-0.3,1.3-0.4s0.7-0.3,1-0.4s0.4-0.1,0.4-0.1s-0.4,0.4-1.2,0.9c-0.7,0.5-2,0.8-3.1,0.9
		c-0.6,0-1.2,0-1.7-0.1c-0.5-0.1-1.1-0.3-1.5-0.4c-0.4-0.1-0.7-0.4-1-0.5C189.4,148.7,189.2,148.7,189.2,148.7z"/>
</g>
<path class="st18" d="M211.4,93.3c-1.5,1.6-1.8,4.7-0.4,6.5c1.2,1.6,3.1,2.1,4.9,2.1c0.4,0,0.7,0,1.1-0.3c0.4-0.1,1.1-0.4,1.4-0.8
	c0.8-0.8,0.7-0.7,1.2-2c0.4-0.9,0.4-1.8,0.4-2.7c0-0.7,0-1.4-0.2-2c-0.4-1-1.3-1.6-2.3-1.8c-1-0.3-1.9-0.1-3,0
	c-0.8,0.1-1.8,0.3-2.6,0.5C211.6,92.8,211.4,92.9,211.4,93.3"/>
<path class="st17" d="M185.5,96.3c-1.1-1.4-2.1-3-3.6-4.1c-0.4-0.3-0.7-0.5-1.1-0.7c-0.5-0.3-1.4-0.5-2-0.5c-1.9-0.3-2.7-0.3-4.4,0
	c-0.7,0.1-1.8,0.3-2.5,0.4c-1.7,0.4-3,1.8-4.3,3.1c-0.1,0.1,0.2,0.5,0.2,0.7c0,0.1,0.1,0.4,0.2,0.5c1.3,1.7,2.3,3,3.9,4.2
	c0.6,0.4,1.2,0.9,1.9,1.2c0.8,0.3,1.8,0.4,2.7,0.5c4.6,0.5,6.9-0.5,10.2-1.2c0.1,0,0.2-0.1,0.4-0.3c0.1-0.1,0-0.3-0.1-0.4
	C186.6,98.5,186.1,97.5,185.5,96.3z"/>
<g>
	<path class="st6" d="M256.5,54c17,10.5,23.9,42.2,16.3,60.9c-2.4,5.9-6.2,11.4-8.6,17.3c-7.1,17.4-0.9,36.1,5.3,53.7
		c-5.1-1.5-9.4-4.7-11.5-8.5c-0.4,0.9-1.6,1.5-2.9,1.5c0.1-2.3-1.8-4.6-4.6-5.6s-6.3-0.6-8.6,0.9c-2.6-7.8-4.4-15.7-5.5-23.6
		c-0.6-4.3-0.9-8.7,0.9-12.8c1.9-4.3,6-7.9,8.6-12c3.4-5.4,4.2-11.5,4.9-17.5c2-16.5,4-33,6-49.5"/>
	<path class="st7" d="M256.5,54c2.5,1.6,4.8,3.5,6.7,5.8c2,2.2,3.7,4.7,5.1,7.2c2.9,5.2,4.9,10.8,6.2,16.6
		c1.2,5.8,1.8,11.8,1.4,17.7c-0.2,3-0.6,5.9-1.3,8.8c-0.7,2.9-1.8,5.7-3.1,8.4c-1.3,2.7-2.8,5.2-4.1,7.8c-1.4,2.6-2.7,5.2-3.6,8
		c-0.5,1.4-0.8,2.8-1.2,4.2c-0.2,0.7-0.3,1.4-0.4,2.2c-0.1,0.7-0.3,1.4-0.3,2.2c-0.2,1.5-0.3,2.9-0.3,4.4c-0.1,1.5,0,2.9,0,4.4
		c0.1,1.5,0.2,2.9,0.4,4.4c0.2,1.5,0.4,2.9,0.7,4.4c0.5,2.9,1.2,5.8,1.9,8.6c0.8,2.8,1.6,5.7,2.6,8.5c0.9,2.8,1.9,5.6,2.9,8.4
		l0.3,0.8l-0.8-0.2c-2.4-0.7-4.7-1.8-6.7-3.2c-2-1.4-3.9-3.3-5.1-5.5l0.9,0c-0.3,0.6-0.9,1.1-1.4,1.4c-0.6,0.3-1.2,0.4-1.9,0.5
		l-0.5,0l0-0.5c0-1.2-0.6-2.4-1.5-3.3c-0.4-0.5-1-0.9-1.5-1.2c-0.3-0.2-0.6-0.3-0.9-0.4c-0.1-0.1-0.3-0.1-0.4-0.2l-0.5-0.2
		c-1.2-0.3-2.6-0.4-3.9-0.2c-1.3,0.2-2.6,0.6-3.6,1.3l-0.6,0.4l-0.2-0.7c-1.6-4.8-3-9.6-4-14.6c-0.5-2.5-0.9-4.9-1.3-7.4
		c-0.4-2.5-0.7-5-0.7-7.6c0-2.6,0.4-5.2,1.5-7.5c1.1-2.4,2.7-4.4,4.3-6.3c1.6-1.9,3.2-3.8,4.5-5.9c1.3-2.1,2.2-4.4,2.9-6.8
		c0.7-2.4,1.1-4.8,1.4-7.3l1-7.5l1.9-14.9c1.2-9.9,2.6-19.9,3.9-29.8l0.1,0c-1.1,10-2.2,19.9-3.3,29.9l-1.7,14.9l-0.9,7.5
		c-0.3,2.5-0.7,5-1.4,7.5c-0.7,2.4-1.6,4.9-2.9,7.1c-1.3,2.2-3,4.2-4.5,6.1c-1.6,1.9-3.1,3.9-4.1,6.1c-1,2.2-1.4,4.6-1.4,7.1
		c0,2.5,0.3,4.9,0.7,7.4c0.4,2.5,0.8,4.9,1.3,7.4c1,4.9,2.3,9.7,3.9,14.4l-0.8-0.3c1.2-0.8,2.7-1.3,4.1-1.4c1.4-0.2,2.9-0.1,4.3,0.3
		l0.5,0.2c0.2,0.1,0.3,0.1,0.5,0.2c0.3,0.1,0.7,0.3,1,0.5c0.6,0.4,1.2,0.8,1.7,1.4c1,1.1,1.8,2.5,1.7,4.1l-0.5-0.5
		c0.5,0,1-0.1,1.4-0.3c0.4-0.2,0.8-0.5,1-0.9l0.4-0.8l0.4,0.8c1.1,2.1,2.8,3.8,4.8,5.2c1.9,1.4,4.2,2.4,6.5,3.1l-0.5,0.6
		c-1-2.8-1.9-5.6-2.8-8.4c-0.9-2.8-1.8-5.7-2.5-8.5c-0.7-2.9-1.4-5.8-1.9-8.7c-0.3-1.5-0.4-2.9-0.6-4.4c-0.1-1.5-0.3-3-0.3-4.4
		c0-1.5-0.1-3,0-4.5c0-1.5,0.2-3,0.4-4.4c0.1-0.7,0.2-1.5,0.4-2.2c0.2-0.7,0.2-1.5,0.4-2.2c0.4-1.4,0.7-2.9,1.3-4.3
		c0.9-2.8,2.3-5.5,3.7-8.1c1.4-2.6,2.9-5.2,4.2-7.8c1.3-2.6,2.4-5.4,3.1-8.2c0.7-2.8,1.2-5.8,1.4-8.7c0.4-5.9-0.1-11.8-1.3-17.6
		c-1.2-5.8-3.2-11.4-6-16.6C265.3,61.9,261.5,57.2,256.5,54L256.5,54z"/>
</g>
<path class="st18" d="M179.3,90.8c-1.9,0-3.7,1.8-3.7,3.9c0,1.7,0.8,3.3,2.1,4.5c0.2,0.3,0.5,0.4,0.8,0.5c0.2,0.1,1,0.4,1.3,0.4
	c1,0,0.8,0,1.9-0.5c0.7-0.4,1.2-0.9,1.7-1.6c0.4-0.4,0.7-0.9,0.8-1.4c0.2-0.9,0-1.8-0.5-2.6c-0.5-0.8-1.2-1.3-1.9-1.8
	c-0.6-0.5-1.3-0.9-1.9-1.3C179.7,90.7,179.4,90.7,179.3,90.8"/>
<g>
	<g>
		<path class="st1" d="M202,101.1c6.3-8.6,16.5-10.3,24.8-4.5c0.5,0.4,2.1-0.4,1.8-0.8c-9.5-6.8-21.3-4.6-28.3,5.2
			C199.9,101.8,201.7,101.7,202,101.1L202,101.1z"/>
	</g>
</g>
<g>
	<g>
		<path class="st1" d="M187.2,99.6c-1.7-4.6-2.7-7.6-7.5-8.9c-5.1-1.3-9.3,0.7-13.7,3.5c-1.1,0.7-0.1,1.8,0.8,1.2
			c3.4-2.2,6.9-4.1,10.9-3.4c4.6,0.8,5.9,3.9,7.5,8.1C185.6,101,187.5,100.5,187.2,99.6L187.2,99.6z"/>
	</g>
</g>
<g>
	<g>
		<path class="st1" d="M228.7,96.6c0.2-0.3,0.6-0.5,0.8-0.8c0.4-0.3-0.4-0.4-0.5-0.4c-0.5,0-1,0.1-1.2,0.5c-0.2,0.3-0.6,0.5-0.8,0.8
			c-0.4,0.3,0.4,0.4,0.5,0.4C227.9,96.9,228.4,96.8,228.7,96.6L228.7,96.6z"/>
	</g>
</g>
<g>
	<path class="st11" d="M248.3,89.1c1.2-0.9,2.5-1.8,3.7-2.7c2.4-1.7,5.2-3.5,7.8-2.4c2.3,0.9,3.3,3.8,3.9,6.4
		c1.3,6.4,0.2,13.4-2.9,19c-3.1,5.6-8.2,9.8-13.9,11.5"/>
	<path class="st1" d="M248.3,89.1c0,0,0.7-0.5,1.9-1.6c0.6-0.5,1.4-1,2.3-1.8c0.8-0.7,1.9-1.4,3.2-2c1.3-0.5,2.9-0.9,4.4-0.1
		c1.5,0.7,2.7,2.2,3.4,3.9c0.4,0.9,0.6,1.8,0.8,2.7c0.1,0.9,0.4,1.8,0.5,2.9c0.2,2,0.2,3.9,0,5.9c-0.5,3.9-1.7,7.7-3.4,10.9
		c-0.8,1.6-1.9,3-3,4.2c-1.1,1.2-2.1,2.2-3.3,3c-2.1,1.7-4.3,2.6-5.7,3.1c-0.7,0.3-1.3,0.4-1.7,0.5c-0.4,0.1-0.6,0.1-0.6,0.1
		s0.8-0.3,2.3-0.9s3.3-1.8,5.3-3.5c1.1-0.9,2-2,3.1-3.1c1-1.2,1.9-2.6,2.7-4.1c1.7-3,2.7-6.7,3.2-10.3c0.2-1.8,0.2-3.8,0.1-5.6
		c-0.1-0.9-0.2-1.8-0.4-2.7c-0.1-0.8-0.4-1.7-0.7-2.5c-0.6-1.6-1.5-2.9-2.7-3.5s-2.6-0.4-3.8,0c-1.2,0.4-2.3,1-3.2,1.7
		c-1,0.7-1.7,1.2-2.4,1.6C249,88.6,248.3,89.1,248.3,89.1z"/>
</g>
<g>
	<path class="st11" d="M254,114.6c0.6-1.6,1.3-3.3,2.6-4.2c0.5-0.4,1.1-0.7,1.5-1c0.5-0.5,0.7-1.2,1.1-1.8c0.5-1.2,1-2.4,1.4-3.5
		c0.5-1.2,1-2.4,1-3.5c0-0.9-0.2-1.7-0.5-2.6c-0.5-2-1.1-3.9-1.5-5.9c-0.2-1-0.6-2.1-1.3-2.7c-0.8-0.8-2-0.8-3-0.4
		c-3.4,1.2-5.5,5.1-7,8.9c-0.4,0.8-0.7,1.7-0.8,2.6c-0.1,0.9,0,1.7,0.1,2.6c0.2,1.8,2.7,1.8,3.4,3.5c0.2,0.7-2.9,7.2-4.2,8.2
		c0.7,1.4,2.4,2.9,3.7,2.7c1.3-0.1,2.6-1,3.3-2.5"/>
	<path class="st12" d="M254,114.6c0.5-1.3,0.8-2.5,1.7-3.7c0.8-1.2,2.3-1.4,2.7-2.6c0.5-1.2,1-2.5,1.4-3.7c0.5-1.3,1-2.5,1.2-3.7
		c0.1-1.2-0.2-2.4-0.6-3.7c-0.4-1.3-0.7-2.6-1.1-3.9s-0.6-2.6-1.2-3.5c-0.6-0.8-1.8-0.9-2.7-0.5c-0.6,0.3-1.1,0.5-1.5,0.8
		c-0.5,0.4-1,0.8-1.3,1.2c-0.8,0.9-1.5,2-2.1,3.1s-1.2,2.4-1.7,3.5c-0.6,1.2-1,2.4-0.8,3.5c0,0.5,0.1,1.4,0.2,1.7
		c0.2,0.4,0.7,0.7,1.2,1c0.5,0.3,1.2,0.7,1.7,1.3c0.1,0.1,0.2,0.4,0.4,0.5v0.1c0,0.1,0-0.1,0,0.1l0,0l0,0v0.1c0,0.1,0,0.3,0,0.4
		c-0.1,0.4-0.2,0.7-0.4,1c-0.5,1.3-1.1,2.5-1.8,3.7s-1.3,2.4-2.4,3.3l0.1-0.5c0.4,0.7,0.8,1.3,1.3,1.7c0.6,0.5,1.2,0.9,1.9,1
		c0.4,0,0.7,0,1.1-0.1c0.4-0.1,0.7-0.3,1-0.5c0.6-0.4,1.2-1,1.5-1.7c-0.6,1.6-1.9,2.7-3.6,2.7c-0.8,0-1.5-0.4-2.1-0.9
		c-0.6-0.5-1.2-1-1.7-1.8l-0.1-0.3l0.2-0.3c0.8-0.8,1.4-2.1,2-3.1c0.6-1.2,1.2-2.4,1.5-3.5c0.1-0.3,0.2-0.7,0.2-0.8l0,0v-0.1l0,0
		l0,0c0.1,0.3,0,0.1,0,0.1l0,0c0-0.1-0.1-0.3-0.2-0.3c-0.4-0.4-0.8-0.7-1.3-0.9c-0.5-0.3-1.2-0.7-1.7-1.4c-0.1-0.1-0.2-0.5-0.2-0.7
		v-0.3V103c0-0.4-0.1-0.7-0.1-1c0-0.7,0-1.4,0.1-2.2c0.1-0.8,0.5-1.4,0.7-2c0.5-1.2,1.1-2.5,1.7-3.7c0.6-1.2,1.3-2.4,2.3-3.4
		c0.5-0.5,1-0.9,1.5-1.3s1.2-0.8,1.8-0.9c0.7-0.3,1.3-0.4,2.1-0.3c0.7,0.1,1.4,0.5,1.9,1.2s0.7,1.3,1,2l0.5,2c0.4,1.3,0.7,2.6,1,3.9
		c0.2,1.3,0.7,2.7,0.5,4.2c-0.2,1.4-0.8,2.6-1.3,3.9c-0.6,1.2-1,2.5-1.7,3.7c-0.4,0.7-1,1-1.4,1.4c-0.6,0.3-1.1,0.7-1.4,1
		C255.1,112.1,254.5,113.4,254,114.6z"/>
</g>
<g>
	<g>
		<path d="M174.8,95.1c0.5,1.4,1.1,2.9,2.3,3.8c1,0.8,2.1,1.2,3.3,1.2c0.6,0,2-0.9,0.7-1c-2.4-0.1-3.7-2.2-4.4-4.5
			C176.5,93.9,174.6,94.6,174.8,95.1L174.8,95.1z"/>
	</g>
</g>
<g>
	<g>
		<path d="M209.1,98c1.1,2.4,3.1,3.5,5.5,3.7c0.6,0,2-0.9,0.7-1c-1.8-0.1-3.4-1.4-4.3-3.1C210.8,96.8,209,97.6,209.1,98L209.1,98z"
			/>
	</g>
</g>
<g>
	<path d="M187.5,142.1c0,0,0.1,0,0.2,0c0.1,0,0.2,0,0.4,0s0.4,0,0.6,0s0.5,0.1,0.6,0.1c0.5,0.1,1,0.1,1.2,0.3c0.4,0,0.6,0,0.6,0v0.1
		c0,0-0.2,0.1-0.6,0.1c-0.4,0.1-0.9,0.1-1.3,0.1c-0.2,0-0.5,0-0.7,0c-0.2,0-0.5-0.1-0.6-0.3c-0.1-0.1-0.4-0.3-0.4-0.3
		C187.5,142.2,187.4,142.2,187.5,142.1L187.5,142.1z"/>
</g>
<path d="M202.5,136.9c0.1,0.9,0.1,1.8-0.1,2.7c0.4-0.3,0.6-0.5,0.9-0.9c0.2-0.4,0.4-0.8,0.6-1c0.2-0.3,0.5-0.5,0.6-0.8
	c0.2-0.3,0.4-0.7,0.2-0.9c-0.2,0.1-0.5,0.3-0.9,0.4c-0.5,0.3-1.1,0.4-1.6,0.7"/>
<g>
	<path class="st6" d="M190.7,33.6c-5.3,0.7-10.5,2.3-14.9,5.4c-4.4,3-7.9,7.5-9.2,12.6c-1.2,4.8-0.6,10,1.8,14.3
		c1,1.7,2.2,3.3,3.5,4.8c5.6,6.7,12.2,13.1,20.5,15.9c-3-3.5-5.2-7.7-6.4-12.1c6.2,4.6,12.6,8.8,19.3,12.7c3,1.7,6.2,3.5,9.7,3.4
		c-4-3.8-6.8-8.8-7.9-14.2c5.4,5.8,11.2,11.9,18.9,14.1c3.3,0.9,6.7,1.1,10.1,1.2c2.6,0.1,5.3,0.2,7.8-0.3c3.1-0.7,5.9-2.3,8.7-3.9
		c1.8-1.1,3.6-2.1,5.4-3.2c0.7-0.4,1.4-0.8,1.8-1.4c0.7-0.9,0.7-2.1,0.8-3.2c0.2-4.9,0.5-9.8-0.2-14.6c-0.7-4.8-2.4-9.6-5.7-13.3
		c-2.4-2.7-5.5-4.6-8.5-6.4c-1.6-1-3.2-2-4.8-3c-3.3-2-6.6-4.1-10.3-5.3c-1.8-0.6-3.7-1-5.7-1.2c-4.7-0.7-9.4-0.9-14.2-1.2
		C204.5,34.3,197.6,34,190.7,33.6"/>
	<path class="st7" d="M190.7,33.6c-3.3,0.4-6.5,1.2-9.5,2.5c-3,1.3-5.9,3-8.2,5.3c-2.4,2.2-4.3,5-5.5,8c-1.2,3-1.6,6.4-1.1,9.6
		c0.2,1.6,0.6,3.2,1.3,4.7c0.6,1.5,1.4,2.9,2.4,4.2c1,1.3,2,2.6,3.1,3.8c1.1,1.2,2.2,2.5,3.3,3.6c2.3,2.3,4.7,4.5,7.4,6.4
		c1.3,0.9,2.7,1.8,4.2,2.5c1.5,0.7,2.9,1.4,4.5,1.9l-0.3,0.5c-3.1-3.5-5.3-7.7-6.5-12.2l-0.2-0.9l0.7,0.5c4.5,3.3,9.1,6.4,13.8,9.4
		c2.4,1.5,4.8,2.9,7.2,4.3c2.4,1.3,5,2.4,7.7,2.4l-0.3,0.7c-4-3.8-6.9-8.9-8.1-14.4l-0.3-1.5l1.1,1.1c2.3,2.4,4.6,4.9,7.1,7.1
		c2.5,2.2,5.2,4.2,8.2,5.5c1.5,0.7,3,1.2,4.7,1.6c1.6,0.4,3.3,0.5,4.9,0.7c1.7,0.1,3.3,0.2,5,0.2c1.7,0.1,3.3,0.1,4.9-0.1
		c3.3-0.4,6.2-1.9,9.1-3.6l4.4-2.5l2.2-1.3c0.7-0.4,1.3-0.8,1.7-1.4c0.3-0.6,0.4-1.4,0.5-2.2l0.1-2.5c0.1-1.7,0.1-3.3,0.1-5
		c0-3.3-0.2-6.7-0.9-9.9c-0.7-3.2-1.9-6.3-3.9-9c-1.9-2.7-4.6-4.7-7.4-6.5l-8.5-5.4c-2.8-1.8-5.8-3.4-8.9-4.4
		c-3.2-1-6.5-1.4-9.8-1.7c-3.3-0.3-6.7-0.5-10-0.7L190.7,33.6L190.7,33.6l20.2,0.7c3.4,0.1,6.7,0.3,10.1,0.6c3.4,0.3,6.7,0.7,10,1.7
		c3.3,1,6.3,2.7,9.1,4.4l8.6,5.3c2.8,1.8,5.7,3.9,7.7,6.7c2.1,2.8,3.3,6.1,4.1,9.4c0.8,3.3,1,6.8,0.9,10.1c0,1.7-0.1,3.4-0.1,5.1
		l-0.1,2.5c-0.1,0.9-0.2,1.8-0.6,2.7c-0.5,0.9-1.4,1.4-2.1,1.9l-2.2,1.3l-4.4,2.5c-1.5,0.8-3,1.7-4.5,2.3c-1.6,0.7-3.3,1.2-5,1.3
		c-1.7,0.2-3.4,0.2-5.1,0.1c-1.7-0.1-3.4-0.1-5.1-0.3c-1.7-0.1-3.4-0.3-5.1-0.7c-1.7-0.4-3.3-1-4.9-1.7c-3.1-1.4-5.9-3.5-8.4-5.7
		c-2.5-2.2-4.8-4.7-7.1-7.2l0.7-0.4c1.1,5.3,3.8,10.2,7.8,14l0.7,0.7l-1,0c-2.9,0-5.7-1.1-8.1-2.5c-2.5-1.4-4.8-2.8-7.2-4.3
		c-4.7-3-9.3-6.1-13.8-9.5l0.5-0.3c1.1,4.4,3.3,8.6,6.3,12l0.7,0.8l-1-0.4c-1.6-0.5-3.1-1.2-4.6-2c-1.5-0.8-2.9-1.7-4.2-2.6
		c-2.7-1.9-5.1-4.1-7.4-6.5c-1.1-1.2-2.2-2.4-3.3-3.7c-1.1-1.3-2.1-2.5-3.1-3.9c-1-1.3-1.8-2.8-2.4-4.3c-0.6-1.5-1-3.2-1.3-4.8
		c-0.4-3.3-0.1-6.7,1.2-9.8c1.2-3.1,3.2-5.8,5.6-8.1c2.4-2.3,5.3-4,8.3-5.3c3-1.3,6.3-2,9.5-2.4L190.7,33.6z"/>
</g>
<polygon class="st19" points="219.7,223.2 252.5,223.1 215.2,343.2 168.9,334.1 "/>
<path class="st20" d="M266,231.8c-7-0.4-15.9-0.1-23.6-0.1c-3.5,0-10.2,0.1-10.2,0.1c-3.4-2.2-10.2-6.3-11.4-7.2
	c1-0.1,2-0.3,2.9-0.4c9.4-0.3,18.9-0.6,28.3-0.8c4.3,3.4,9.1,6.3,14.3,8.4"/>
<path class="st20" d="M220.8,224.8c3.9,2.2,8,4.5,11.9,6.7c-4.5,11.5-8.6,18.9-12.5,29.7c-1,2.5-3.5,6.7-4.5,9.4
	c-1,2.4-2.2,4.8-3.4,7c-6.5,12.8-12.3,26-18.2,39c-2.2,4.9-4.5,10-6.2,15.2c-0.6,2-1.1,4.1-2.5,5.8c-1.4,1.7-3.6,2.7-5.6,1.8
	c-1.3-0.6-2.1-1.7-2.9-2.7c-1.7-1.7-3.8-3.1-6-3.8c2.5-5.8,5.2-11.6,7.9-17.4c3.8-8.3,7.6-16.7,11.4-25c1.1-2.4,2.2-4.9,3.4-7.4
	c4.5-9.8,9-19.8,13.5-29.6c4.3-9.8,8.8-19.6,13.3-29.5"/>
<polygon class="st19" points="231.5,230.8 268.9,231.8 212.4,344.2 183.2,340.7 "/>
<polygon class="st21" points="241.6,255.2 272.7,253.2 242.6,343.7 206.6,347.8 "/>
<path class="st20" d="M271.5,254.4c-5.9,0-13.5,1-19.9,1.4c-3.1,0.3-8.7,0.8-8.7,0.8c-2.9-1.7-9.1-4.5-10.1-5.1
	c0.8-0.3,1.7-0.4,2.5-0.6c8-1,16-1.8,24-2.7c3.9,2.5,8.1,4.5,12.6,5.9"/>
<path class="st20" d="M232.7,251.4c3.5,1.5,7,3.1,10.5,4.6c-3.1,9.5-6,15.7-8.7,24.7c-0.7,2.1-2.5,5.8-3.2,7.9
	c-0.7,2-1.5,3.9-2.4,5.9c-4.8,10.8-8.8,21.6-13,32.6c-1.7,4.2-3.2,8.3-4.3,12.6c-0.4,1.7-0.8,3.4-1.8,4.8c-1,1.4-2.9,2.4-4.6,1.8
	c-1.1-0.4-1.8-1.3-2.7-2c-1.5-1.3-3.4-2.2-5.3-2.7c1.8-4.8,3.8-9.7,5.6-14.5c2.8-6.9,5.5-13.9,8.1-20.8c0.8-2,1.5-4.1,2.4-6.2
	c3.2-8.3,6.3-16.4,9.5-24.7c3.2-8.1,6.3-16.3,9.5-24.4"/>
<polygon class="st22" points="256.5,250.4 275.8,264.2 235.5,382.6 192.3,357.1 "/>
<polygon class="st22" points="278.1,260.3 299.9,279.9 235.8,381.9 211.7,363.1 "/>
<path class="st20" d="M212.7,364.2c12.6-23.7,26.8-46.7,42.2-68.7c5.9-8.3,21.2-30.2,21.2-33.3c-4.3-1.1-19.5-8.3-19.5-8.3
	s-19.5,31.1-27.4,44.2c-2.1,3.4-4.2,6.7-6,10.2c-6.5,11.8-26,44.9-27.9,50.5c6.2,0.8,12.1,2.5,17.7,5.2"/>
<path class="st20" d="M195.1,359.3c5.6,0.4,13.3,2.8,17.4,4.8c0,0,16,13.7,19.9,16.8c-5.6-2.7-13.3-7.4-16.1-9
	c-3.1-1.7-18.5-10.5-21.3-12.6"/>
<g>
	<path class="st11" d="M228.5,306.4c-0.1,0.1-0.4,0.1-0.6,0.3c1,0.4,1.3,1.5,2.2,2c0.4,0.8,1.4,1,1.4,2c-0.1,2.9-2.2,7-4.8,8.4
		c-1.3-0.3-1,0.6-1.8-0.3c-1.7-1.8-3.6-7.2-5.8-8.3c-1.3-0.7-2.2-1.7-2.9-2.9c-0.1-0.4-0.3-0.7-0.4-1.1c-0.3-1,0.1-2.1,0.7-2.9
		c0.6-0.8,1.4-1.4,2.2-2.1c0.8-0.7,1.8-1.4,2.7-2.1c0.6-0.4,1.1-0.8,1.7-1.1c1.7-0.8,3.5-0.7,5.3-0.7"/>
	<path class="st1" d="M229.1,298.3c-1.4,0-2.9,0-4.2,0.4c-1.4,0.4-2.4,1.5-3.5,2.4c-1.1,1-2.2,1.8-3.2,2.8c-0.8,1-1.5,2.2-1.1,3.4
		c0.1,0.6,0.6,1.1,1,1.7c0.4,0.4,0.8,0.8,1.4,1.3c0.4,0.4,1.3,0.7,1.8,1.4c0.6,0.6,1,1.3,1.4,1.8c0.8,1.1,1.5,2.4,2.2,3.6
		c0.3,0.7,0.7,1.3,1.1,1.7l0.1,0.1l0,0l0,0c0.1,0.1,0.1,0.1,0.1,0.1c0.1,0,0.1,0,0,0s-0.4,0-0.4,0s0.1-0.1,0.3-0.1
		c0.1-0.1,0.3-0.1,0.4-0.1c0.3-0.1,0.6,0,0.8,0l-0.7,0.1c0.7-0.4,1.4-1.1,2-1.8c0.6-0.8,1.1-1.7,1.5-2.5c0.4-1,0.8-1.8,1-2.8
		c0-0.3,0.1-0.6,0.1-0.7c0,0,0-0.1-0.1-0.3c-0.3-0.3-0.8-0.6-1.1-1.3l0.3,0.3c-0.7-0.3-1-0.8-1.3-1.3c-0.3-0.4-0.6-0.7-1-1l-0.4-0.3
		l0.4-0.1l0.6-0.1v0.1l-0.6,0.3v-0.3c0.4,0.1,0.8,0.6,1.3,0.8c0.3,0.3,0.7,0.6,1,0.7h0.1l0.1,0.1c0.3,0.3,0.6,0.4,1.1,0.8
		c0.1,0.3,0.6,0.6,0.6,1.1c0,0.3,0,0.6,0,0.8c-0.1,1.1-0.4,2.2-0.8,3.2c-0.4,1-0.8,2.1-1.5,2.9c-0.3,0.4-0.7,0.8-1.1,1.3
		s-0.8,0.8-1.4,1.1l-0.3,0.1l-0.4-0.1c-0.1,0-0.3,0-0.3,0c-0.1,0,0,0-0.3,0.1c-0.1,0.1-0.7,0.1-1,0c-0.3-0.1-0.4-0.1-0.6-0.3
		s-0.3-0.3-0.3-0.3l-0.1-0.1l-0.1-0.1c-0.6-0.7-0.8-1.3-1.3-2c-0.7-1.3-1.4-2.5-2.1-3.8c-0.3-0.6-0.7-1.3-1.1-1.7
		c-0.3-0.4-0.8-0.7-1.5-1.3c-0.7-0.6-1.3-1.1-1.7-1.7c-0.4-0.7-0.8-1.3-1.1-2.1c-0.1-0.8,0-1.8,0.3-2.5c0.3-0.8,0.8-1.4,1.4-2
		c1.1-1,2.4-1.8,3.5-2.7c0.7-0.4,1.3-0.8,1.8-1.3c0.6-0.4,1.3-0.8,2-1c1.4-0.4,2.9-0.4,4.3-0.3L229.1,298.3z"/>
</g>
<g>
	<path class="st11" d="M218.3,332.5c-4.1-2.7-7.2-6.7-8.6-11.4c-1.1,4.1-0.4,8.3,1.3,12.1c1.7,3.8,4.2,7,6.9,10.2
		c1.5,2,3.4,3.9,5.5,5.2c3.5,2.1,7.9,2.2,11.9,2.4c4.2,0.1,8.3,0.3,12.3,0.4c1.8,0.1,3.8,0.3,5.5,1.1c1.8,1,2.9,2.7,4.3,4.1
		c3.5,3.5,9,4.8,13.6,3.4c2-0.7,3.9-1.8,6-2.4c1.1-0.3,2.2-0.4,3.4-0.7c3.6-1,7-3.5,8.8-6.9c2.4-4.3,2.2-9.5,2.1-14.6
		c-0.1-3.1-0.4-6.5-2.4-8.8c-0.8-1-2-1.7-2.8-2.7c-2.7-2.9-3.1-7.7-6.6-9.7l-0.7-0.1c-1.8,4.8-4.6,9.1-8.3,12.8c-0.4,0.4-1,1-1.5,1
		s-1.1-0.3-1.5-0.6c-3.1-1.8-6.3-3.9-8.3-6.9c-2.4-3.5-2.9-8-4.5-11.9c-0.7-1.8-1.7-3.6-3.1-4.9c-1-0.8-2.1-1.4-3.2-2
		c-2.8-1.4-5.8-2.9-8.6-4.3c-1.3-0.7-2.8-1.4-4.2-1.1c-1,0.1-1.7,0.7-2.5,1.1c-3.4,1.8-7.2,3.1-10.9,3.5c1,3.8,5.8,6.2,9.4,4.8
		c1.1-0.4,2.1-1.1,3.2-0.8c1.1,0.3,1.8,1.4,2.7,2.1c1.5,1.3,3.8,1.7,5.6,1.1c-2.4,0.8-4.8,1.5-7.3,1.5c-2.5,0-5.2-1-6.6-3.1"/>
	<path class="st1" d="M229.5,306.8c1.4,2,4.1,2.8,6.5,2.8c2.4-0.1,4.8-0.8,7.2-1.7l0.3,0.8c-2.1,0.7-4.5,0.3-6.2-1.3
		c-0.8-0.7-1.5-1.5-2.2-1.7c-0.1,0-0.1,0-0.3,0s-0.1,0-0.3,0s-0.3,0.1-0.6,0.1c-0.4,0.1-1,0.3-1.4,0.6l-0.4,0.1h-0.1h-0.1h-0.1
		c-0.3,0.1-0.6,0.3-0.8,0.3c-0.6,0.1-1.1,0.1-1.7,0.1s-1.1-0.1-1.7-0.3c-0.6-0.1-1-0.3-1.5-0.6c-1-0.4-2-1.1-2.7-2
		c-0.4-0.4-0.7-0.8-1-1.4c-0.3-0.4-0.6-1-0.7-1.5l-0.3-0.8l0.8-0.1c3.2-0.4,6.3-1.3,9.3-2.8c0.7-0.4,1.3-0.8,2.1-1.3
		c0.7-0.4,1.7-0.7,2.8-0.7c1,0,1.8,0.3,2.7,0.7c0.8,0.3,1.5,0.7,2.2,1.1l4.5,2.4c1.5,0.8,2.9,1.5,4.5,2.4c1.5,0.8,2.9,2.2,3.8,3.8
		c0.8,1.5,1.3,3.1,1.8,4.8c1,3.2,1.7,6.5,3.4,9.3c0.8,1.4,2,2.5,3.2,3.6c1.3,1.1,2.7,2.1,4.1,2.9c0.7,0.4,1.4,1,2.1,1.1
		c0.7,0.1,1.3-0.4,1.8-1c1.1-1.3,2.2-2.5,3.2-3.8c2-2.7,3.5-5.6,4.8-8.7l0.1-0.3h0.3l0.4,0l0,0l0,0c1.4,0.7,2.4,2,3.1,3.4
		c0.8,1.4,1.4,2.8,2.1,4.1c0.7,1.4,1.7,2.4,2.8,3.4c0.6,0.4,1.1,0.8,1.7,1.5c0.4,0.6,1,1.3,1.3,2c1.3,2.9,1.1,6.2,1.3,9.1
		c0.1,2.9,0,6-0.7,9.1c-0.4,1.5-1,2.9-1.8,4.3s-1.8,2.7-3.1,3.6c-1.3,1.1-2.5,2-4.1,2.5c-1.4,0.6-3.1,0.8-4.5,1.1
		c-2.7,0.6-5.3,2.4-8.6,2.9c-3.2,0.6-6.6,0-9.4-1.5c-1.4-0.7-2.7-1.8-3.8-2.9c-1.1-1.1-2-2.4-3.1-3.1c-2.1-1.5-5.3-1.3-8.3-1.4
		l-9-0.3c-2.9,0-6-0.1-9.1-1c-1.5-0.4-3.1-1.1-4.3-2c-1.4-1-2.5-2.1-3.5-3.2c-2-2.4-3.9-4.8-5.6-7.3c-1.7-2.5-3.1-5.2-3.9-8.3
		c-0.7-3.1-0.8-6.3,0-9.3l0.4-1.4l0.4,1.4c1.3,4.5,4.2,8.7,8.1,11.4l-0.1,0.1c-4.1-2.5-7.3-6.6-8.8-11.2h0.8
		c-0.8,2.8-0.6,5.9,0.3,8.7c0.8,2.8,2.4,5.5,4.1,7.9c1.7,2.5,3.6,4.8,5.6,7c1,1,2.1,2.1,3.2,2.8c1.3,0.8,2.5,1.3,3.9,1.7
		c2.8,0.7,5.9,0.7,8.8,0.8l9,0.3c1.5,0,3.1,0,4.6,0.1c0.7,0,1.5,0.1,2.4,0.4c0.4,0,0.8,0.3,1.3,0.4l0.3,0.1l0.3,0.1
		c0.1,0.1,0.4,0.3,0.6,0.4c1.4,1.1,2.4,2.4,3.4,3.4c1,1,2.1,1.8,3.4,2.5c2.4,1.3,5.3,1.8,8.1,1.4c2.8-0.3,5.3-2.1,8.6-2.8
		c1.5-0.4,2.9-0.6,4.2-1.1c1.3-0.4,2.5-1.3,3.6-2.1c1.1-1,2.1-2.1,2.8-3.2c0.7-1.3,1.3-2.5,1.7-3.9c0.7-2.8,0.8-5.9,0.8-8.8
		c0-2.9,0.1-6-1-8.7c-0.3-0.7-0.7-1.3-1.1-1.8c-0.4-0.6-1-1-1.5-1.5c-1.1-1-2.1-2.2-2.8-3.6s-1.3-2.8-2-4.1
		c-0.7-1.4-1.5-2.5-2.8-3.2h0.1l-0.7-0.1l0.4-0.1c-1.3,3.2-2.9,6.2-4.9,8.8c-1,1.4-2.1,2.7-3.2,3.9c-0.3,0.3-0.6,0.6-1,0.8
		c-0.3,0.3-0.8,0.4-1.4,0.3c-1-0.3-1.7-0.8-2.4-1.3c-1.5-1-2.9-1.8-4.2-2.9c-1.4-1.1-2.5-2.4-3.5-3.8c-2-2.9-2.8-6.3-3.8-9.4
		c-0.6-1.5-1.1-3.1-2-4.5c-0.7-1.4-1.8-2.4-3.2-3.2c-1.4-0.7-2.9-1.5-4.5-2.2l-4.5-2.2c-1.5-0.7-2.9-1.5-4.3-1.7
		c-0.7,0-1.3,0.1-2,0.6c-0.7,0.4-1.5,0.8-2.2,1.3c-3.1,1.4-6.5,2.4-9.8,2.8l0.7-1c0.1,0.4,0.3,0.8,0.6,1.3c0.3,0.4,0.6,0.8,0.8,1.1
		c0.7,0.7,1.4,1.3,2.2,1.7c0.4,0.1,0.8,0.3,1.3,0.4c0.4,0.1,1,0.3,1.4,0.3c0.6,0,1,0,1.4-0.1c0.1,0,0.4,0,0.7-0.1h0.1l0,0l0,0
		c0,0,0.1,0,0,0l0,0l0,0h0.1l0.3-0.1c0.6-0.1,1-0.4,1.5-0.6c0.3-0.1,0.6-0.1,0.8-0.1c0.1,0,0.4,0,0.6,0s0.3,0.1,0.4,0.1
		c0.7,0.3,1.1,0.6,1.5,1l1.1,1.1c1.3,1.3,3.4,1.8,5.2,1.3l0.3,0.8c-1.1,0.4-2.4,0.7-3.6,1c-1.3,0.3-2.5,0.4-3.8,0.4
		c-1.4,0-2.7-0.3-3.8-0.8c-1.3-0.4-2.2-1.3-2.9-2.4L229.5,306.8z"/>
</g>
<g>
	<path class="st12" d="M229.4,321c0.1-0.1,0.6,0,1,0.4c0.7,0.1,1.4,0.6,2.2,0.7c0.4,0,0.8,0,1.3,0.1c0.4,0.1,0.7,0.3,1,0.4
		c0.6,0.3,1,0.6,1,0.6v0.1c0,0-0.4,0.3-1.1,0.4c-0.3,0.1-0.7,0.1-1.1,0c-0.4-0.1-0.8-0.4-1.3-0.6c-0.8-0.4-1.5-1-2.1-1.4
		C229.7,321.3,229.4,321,229.4,321L229.4,321z"/>
</g>
<g>
	<path class="st11" d="M218.1,346.2c-2-1.4-3.9-3.1-5.8-4.9c-0.6-0.6-2.2-2.9-2.5-3.6c-0.8-1.8-3.2-4.2-2.8-6.2
		c0.3-1.4,1.4-3.2,2-3.8c1.1-0.4,2.1,1,2.8,2.1c2.2,3.9,5.9,7,9.4,10c1.3,1.1,2.7,2.2,3.9,3.4"/>
	<path class="st1" d="M225.1,343.1c-2.9-2.4-6-4.6-9.1-7.2c-1.4-1.4-2.7-2.8-3.8-4.3c-0.6-0.8-1-1.7-1.5-2.4c-0.6-0.7-1.3-1.4-2-1.1
		l0.1-0.1c-0.6,0.7-1,1.5-1.4,2.4c-0.1,0.4-0.4,0.8-0.4,1.3v0.4v0.3c0,0.1,0,0.4,0.1,0.6c0.3,0.8,0.8,1.5,1.4,2.4l0.8,1.3
		c0.3,0.4,0.6,0.8,0.7,1.3c0.4,0.8,1,1.5,1.5,2.4l0.4,0.6c0.1,0.3,0.3,0.4,0.4,0.6l1,1c1.3,1.4,2.8,2.7,4.2,3.9v0.1
		c-1.5-1.1-3.1-2.2-4.6-3.5c-0.4-0.3-0.7-0.7-1.1-1c-0.1-0.1-0.4-0.4-0.6-0.6l-0.4-0.6c-0.6-0.7-1.1-1.5-1.7-2.4
		c-0.3-0.6-0.4-0.8-0.7-1.3l-0.8-1.3c-0.6-0.8-1.1-1.7-1.4-2.7c0-0.3-0.1-0.6-0.1-0.8v-0.4v-0.4c0.1-0.7,0.3-1.1,0.6-1.5
		c0.1-0.4,0.4-0.8,0.7-1.3s0.6-0.8,1-1.3l0.1-0.1h0.1c0.6-0.1,1.3,0.1,1.7,0.4c0.6,0.3,0.8,0.7,1.1,1.1c0.6,0.8,1,1.5,1.5,2.4
		c1.1,1.5,2.2,2.9,3.6,4.3C219.4,338.2,222.3,340.6,225.1,343.1L225.1,343.1z"/>
</g>
<g>
	<path class="st11" d="M225.9,331c-1.3-0.7-5.6-4.6-6.2-5.1c-2.9-2.2-5.5-5.2-7.7-8.1c-0.6-0.1-0.3-3.6-0.1-4.6
		c0.3-2,0.7-4.3,2.5-5.1c1.4-0.6,3.1,0.1,4.2,1.3c1.1,1.1,1.8,2.5,2.7,3.8c1.3,1.8,2.9,3.4,4.8,4.6"/>
	<path class="st1" d="M226,317.8c-2-1.1-3.6-2.7-4.6-4.6c-0.7-1-1.1-2-1.8-2.8c-0.6-0.8-1.4-1.5-2.4-2c-0.6-0.1-1-0.3-1.5-0.3
		s-1,0.1-1.4,0.4c-0.8,0.6-1.3,1.7-1.5,2.7c-0.3,1-0.4,2.1-0.4,3.2c0,0.6,0,1.1,0,1.7c0,0.3,0,0.6,0,0.8c0,0,0,0.1,0,0.3
		s0.1,0.1-0.1,0l0.3,0.1c2,2.5,3.9,4.9,6.3,7c0.3,0.1,0.6,0.4,0.8,0.7c0.3,0.3,0.7,0.6,1,0.8l1.8,1.7c1.1,1.1,2.2,2.2,3.5,3.2v0.1
		c-0.7-0.4-1.3-1-2-1.4c-0.6-0.4-1.3-0.8-1.8-1.4l-1.8-1.5c-0.4-0.3-0.7-0.4-1-0.7c-0.3-0.1-0.7-0.4-1-0.7c-2.7-2.1-4.8-4.5-6.6-7.2
		l0.3,0.1c-0.6-0.3-0.4-0.6-0.6-0.7c-0.1-0.1-0.1-0.3-0.1-0.4c0-0.3,0-0.6,0-0.8c0-0.6,0.1-1.1,0.1-1.7c0.1-1.1,0.3-2.2,0.6-3.4
		c0.3-1.1,0.8-2.2,1.8-2.9c0.4-0.4,1.1-0.6,1.7-0.6s1.1,0.1,1.7,0.4c1.1,0.4,2,1.3,2.5,2.2c0.6,0.8,1.1,1.8,1.7,2.8
		C222.6,315,224.2,316.5,226,317.8L226,317.8z"/>
</g>
<g>
	<path class="st12" d="M225.6,333.8c0-0.1,2-0.3,3.9-0.7c0.4,0,1-0.1,1.4-0.1c0.4,0,0.8,0,1.3,0.1c0.7,0.1,1.3,0.4,1.3,0.4v0.1
		c0,0-0.6,0.3-1.3,0.6c-0.4,0.1-0.8,0.3-1.3,0.3c-0.4,0-0.8-0.1-1.4-0.1C227.5,334.2,225.6,333.8,225.6,333.8L225.6,333.8z"/>
</g>
<g>
	<path class="st12" d="M220.7,340.4c0.1-0.1,0.6,0,1.1,0.3c0.7,0.1,1.5,0.4,2.4,0.4c0.4,0,0.8,0,1.3,0c0.4,0,0.8,0,1.1,0.1
		c0.7,0.1,1.1,0.4,1.1,0.4v0.1c0,0-0.4,0.3-1.1,0.6c-0.4,0.1-0.8,0.1-1.3,0.1c-0.6,0-1-0.1-1.4-0.3c-0.8-0.3-1.7-0.7-2.2-1.1
		C221,340.7,220.7,340.4,220.7,340.4L220.7,340.4z"/>
</g>
<g>
	<path class="st12" d="M256.3,348.8c0-0.1,0.4-0.1,1.1-0.6c0.7-0.1,1.5-0.6,2.5-1.1c1-0.6,2-1.5,2.8-2.7c0.8-1.1,1.7-2.5,2.2-3.9
		c1.3-2.8,1.8-5.8,2-8c0.1-0.6,0.1-1,0-1.4c-0.1-0.4-0.3-0.7-0.4-1c-0.4-0.6-0.8-0.6-0.8-0.6v-0.1c0,0.1,0.4-0.1,1.1,0.4
		c0.7,0.4,1.1,1.5,1.3,2.8c0.1,1.3,0,2.7-0.3,4.2c-0.4,1.4-1.1,2.9-1.8,4.3c-0.7,1.4-1.5,2.8-2.5,3.9c-1,1.1-2.1,2-3.2,2.5
		c-1.1,0.6-2.1,0.8-2.8,1S256.3,348.8,256.3,348.8L256.3,348.8z"/>
</g>
</svg>
