<?xml version="1.0" encoding="utf-8"?>
<!-- Generator: Adobe Illustrator 19.0.1, SVG Export Plug-In . SVG Version: 6.00 Build 0)  -->
<svg version="1.1" id="Layer_1" xmlns="http://www.w3.org/2000/svg" xmlns:xlink="http://www.w3.org/1999/xlink" x="0px" y="0px"
	 viewBox="0 0 360 504" style="enable-background:new 0 0 360 504;" xml:space="preserve">
<style type="text/css">
	.st0{fill:#DBAD86;}
	.st1{fill:#231F20;}
	.st2{fill:#FFE594;}
	.st3{fill:#323333;}
	.st4{fill:#58595B;}
	.st5{fill:#874D1E;}
	.st6{fill:#B79A49;}
	.st7{fill:none;}
	.st8{fill:#367199;}
	.st9{fill:#331402;}
	.st10{fill:#0E3144;}
	.st11{fill:#5B2616;stroke:#823D2C;stroke-width:1.0627;stroke-miterlimit:10;}
	.st12{fill:#FFFFFF;}
	.st13{fill:#AF8162;}
	.st14{fill:#5B2616;}
	.st15{fill:#00E9D2;}
	.st16{fill:#823D2C;}
</style>
<g>
	<path class="st0" d="M56.7,294.4c-0.5,1.2-0.3,2.6,0.4,3.7c0.7,1.1,1.7,1.9,2.7,2.7c2.1,1.6,4.3,3,6.7,4.2c1.9,0.9,3.8,1.8,5.7,2.6
		c3.8,1.6,7.7,3.3,11.7,4.2c2.6,0.6,5.3,1,7.8,2c1.5,0.6,2.8,1.4,4.2,2.2c4.4,2.4,9.2,4.1,13.9,5.8c3,1.1,6.2,2.2,9.3,1.5
		c-0.1-6.2-0.3-12.4-0.4-18.6"/>
	<path d="M56.8,294.5c-0.5,1.4,0,3,0.9,4c0.9,1.1,2.2,1.9,3.4,2.8c1.2,0.8,2.5,1.6,3.8,2.3c0.6,0.4,1.3,0.7,2,1l2.1,0.9
		c1.4,0.6,2.7,1.3,4.1,1.9c1.4,0.6,2.7,1.2,4.1,1.8c1.4,0.6,2.8,1.1,4.2,1.6c1.4,0.5,2.9,0.8,4.3,1.2c1.5,0.3,2.9,0.6,4.4,1
		c1.5,0.4,2.9,1,4.2,1.7c1.3,0.7,2.7,1.4,4,2c1.3,0.6,2.7,1.2,4.1,1.8c2.8,1.1,5.6,2.1,8.4,3.1c1.4,0.5,2.8,1,4.2,1.3
		c1.4,0.3,2.9,0.4,4.2,0l-0.4,0.5c0-3.1-0.1-6.2-0.1-9.3c0-3.1,0-6.2,0.1-9.3l0.1,0c0.2,3.1,0.4,6.2,0.5,9.3
		c0.1,3.1,0.3,6.2,0.4,9.3l0,0.4l-0.4,0.1c-1.6,0.4-3.2,0.3-4.7,0c-1.5-0.3-3-0.8-4.4-1.3c-2.8-1.1-5.6-2.1-8.4-3.3
		c-1.4-0.6-2.7-1.2-4.1-1.9c-1.3-0.7-2.6-1.5-3.9-2.2c-1.3-0.7-2.6-1.4-4.1-1.8c-1.4-0.4-2.9-0.7-4.4-1c-2.9-0.6-5.8-1.5-8.7-2.5
		c-1.4-0.5-2.8-1-4.2-1.6c-1.4-0.6-2.7-1.2-4.1-1.8l-2-0.9c-0.7-0.3-1.3-0.7-2-1.1c-1.3-0.8-2.6-1.6-3.8-2.5
		c-1.2-0.9-2.4-1.8-3.4-3.1C56.4,297.6,56,295.8,56.8,294.5L56.8,294.5z"/>
</g>
<g>
	<path class="st1" d="M113.3,254.1c0.2,0.1,0.3,0.2,0.4,0.4c0.1,0.2,0.2,0.3,0.2,0.5c0.1,0.4,0.1,0.7,0.2,1.1c0,0.8,0,1.5-0.2,2.2
		l-0.5-0.3c0.1,0,0.2-0.2,0.3-0.3l0.3-0.4l0.6-0.7c0.4-0.5,0.8-1,1.1-1.5l0.7,0.5c-0.4,0.5-0.8,1-1.2,1.5l-0.6,0.7l-0.3,0.4
		c-0.1,0.1-0.2,0.2-0.4,0.4l-0.7,0.4l0.2-0.8c0.2-0.7,0.3-1.4,0.4-2.1c0-0.4,0-0.7,0-1.1C113.7,254.7,113.6,254.4,113.3,254.1
		L113.3,254.1z"/>
</g>
<g>
	<path class="st2" d="M187.8,144c-4,0.6-7.7,2.3-10.9,4.8c-1.7,1.3-3.2,2.8-5.1,3.8c-1.4,0.7-3,1.2-4.5,1.7
		c-2.4,0.9-4.5,2.2-6.6,3.7c-10.5,7.3-18.7,18.1-22.8,30.2c-1.4,4-2.3,8.2-3.3,12.4c-2,8.6-4,17.3-6,25.9
		c-1.9,8.4-3.9,16.9-4.4,25.5c-0.7,11.4,1,23-1.5,34.2c-3.5,15.5-5.9,31.5-6.6,47.3c8.3,1.5,19.7,3.8,28.1,3c2.1,3,1.3,4.1,3.3,7.1
		c0.4,0.6,0.9,1.3,1,2.1c0.1,0.9-0.3,1.8-0.6,2.6c-1.3,4.3-2.6,10.8,0.1,14.3c6.2,8,19.4,10.5,29.4,11.8c10,1.3,20.2-0.1,30.1-2.1
		c15.8-3.1,31.3-7.4,46.5-12.8c2.8-4.9,9.6-6.8,11.3-12.2c0.8-2.5,0.2-5.2,0.5-7.8c0.7-6.2,6.1-11.1,7.2-17.2
		c0.7-3.9-0.4-8,0.4-11.9c0.4-2.3,1.5-4.4,2.5-6.5c2.9-6,5.6-12.1,8.1-18.3c8.1-20.3,13.6-41.6,19-62.8c2.9-11.4,5.7-23.3,3.9-34.9
		c-1.8-11.7-9.6-23.2-21.1-25.8c-0.5-2.9-2.7-4.3-4.9-6.2c-3.2-2.7-6.3-5.3-9.5-8c-3.9-3.3-8-6.7-12.9-8c-2-0.5-4.1-0.7-6.2-0.9
		c-16.3-1.4-32.8-2.6-49.2-1.7c-6,0.3-12.7,1.4-16,6.4"/>
	<path class="st1" d="M187.8,144.1c-4.4,0.7-8.6,2.8-12,5.7c-0.9,0.7-1.7,1.5-2.7,2.1c-0.9,0.7-2,1.2-3,1.5
		c-1.1,0.4-2.1,0.7-3.2,1.1c-1,0.4-2,0.9-3,1.5c-3.9,2.3-7.4,5.1-10.6,8.3c-3.2,3.2-6.1,6.6-8.5,10.4c-2.5,3.8-4.5,7.8-6.1,12
		c-1.6,4.2-2.6,8.6-3.6,13l-6,26.4c-2,8.8-4,17.6-4.5,26.6c-0.5,9,0.5,18-0.4,27.1c-0.4,4.6-1.7,8.9-2.5,13.4
		c-0.9,4.4-1.7,8.9-2.4,13.3c-1.4,8.9-2.3,17.9-2.7,26.9l-0.5-0.6c4.7,0.8,9.3,1.7,14,2.3c2.3,0.3,4.7,0.6,7,0.7
		c1.2,0.1,2.3,0.1,3.5,0.1c1.2,0,2.3-0.1,3.5-0.2l0.4,0l0.2,0.3c0.4,0.6,0.8,1.3,1.1,2c0.3,0.7,0.5,1.4,0.8,2.1
		c0.2,0.7,0.5,1.3,0.8,1.9c0.3,0.6,0.7,1.1,1.1,1.8c0.2,0.3,0.4,0.7,0.5,1.1c0.1,0.2,0.1,0.4,0.1,0.7c0,0.1,0,0.2,0,0.3
		c0,0.1,0,0.2,0,0.3c-0.1,0.9-0.4,1.6-0.6,2.2c-0.4,1.4-0.8,2.7-1,4.1c-0.5,2.7-0.7,5.7,0.3,8.2c0.3,0.6,0.6,1.1,1,1.7
		c0.5,0.6,0.9,1,1.4,1.5c1,1,2.1,1.8,3.3,2.6c2.4,1.5,5,2.7,7.7,3.6c2.7,0.9,5.5,1.6,8.3,2.2c2.8,0.6,5.7,1,8.5,1.4
		c2.9,0.3,5.7,0.5,8.6,0.4c5.7-0.1,11.4-0.9,17.1-1.9c5.7-1,11.3-2.2,16.9-3.6c11.2-2.7,22.3-6,33.1-10l-0.5,0.4
		c1.3-2.2,3.1-3.7,4.9-5.2c1.8-1.4,3.6-2.7,4.9-4.4c0.6-0.8,1.1-1.7,1.4-2.7c0.3-1,0.3-2,0.3-3.1c0-1.1-0.1-2.3,0-3.5
		c0-0.3,0-0.6,0.1-0.9l0.1-0.8c0.1-0.6,0.3-1.2,0.5-1.8c1.5-4.6,4.6-8.2,6-12.3c0.2-0.5,0.4-1,0.4-1.5c0.1-0.3,0.1-0.5,0.2-0.8
		c0-0.3,0.1-0.6,0.1-0.8c0.1-1,0.1-2.1,0.1-3.2c-0.1-2.2-0.3-4.6,0-7c0.3-2.5,1.3-4.7,2.3-6.7c1-2.1,2-4.1,2.9-6.2
		c1.9-4.1,3.7-8.3,5.4-12.5c3.4-8.4,6.3-17,9-25.7c2.7-8.7,5-17.5,7.3-26.3l3.4-13.2c1.1-4.4,2.2-8.8,2.9-13.3
		c0.7-4.4,1.2-8.9,1-13.4c-0.1-2.2-0.3-4.5-0.7-6.7c-0.4-2.2-1-4.3-1.8-6.4c-1.6-4.1-4-8-7.1-11.2c-3.1-3.2-7-5.5-11.3-6.5l-0.5-0.1
		l-0.1-0.6c-0.2-1-0.6-1.9-1.3-2.7c-0.7-0.8-1.5-1.5-2.4-2.2c-1.8-1.5-3.5-2.9-5.2-4.4l-5.2-4.4c-1.7-1.5-3.5-2.9-5.3-4.2
		c-1.8-1.3-3.7-2.4-5.8-3.2c-2-0.8-4.3-1.1-6.5-1.3c-4.5-0.4-9.1-0.8-13.6-1.2c-9.1-0.7-18.1-1.2-27.2-1.2c-2.3,0-4.5,0.1-6.8,0.1
		c-2.3,0.1-4.5,0.2-6.8,0.5c-2.2,0.3-4.5,0.8-6.5,1.7c-2.1,0.9-3.9,2.3-5.2,4.2l-0.2-0.1c1.2-1.9,3.1-3.4,5.2-4.4
		c2.1-1,4.3-1.5,6.6-1.8c2.3-0.4,4.5-0.5,6.8-0.6c2.3-0.1,4.6-0.2,6.8-0.3c4.6-0.1,9.1,0,13.7,0.1c4.6,0.1,9.1,0.4,13.6,0.7
		c4.5,0.3,9.1,0.7,13.6,1c2.3,0.2,4.6,0.5,6.8,1.3c2.2,0.8,4.3,2,6.1,3.3c1.9,1.3,3.7,2.8,5.4,4.2l5.2,4.4l5.2,4.4
		c0.9,0.7,1.8,1.5,2.6,2.4c0.8,0.9,1.4,2.2,1.6,3.4l-0.6-0.7c4.6,1,8.8,3.6,12.1,6.9c3.3,3.3,5.8,7.4,7.5,11.7
		c0.9,2.2,1.5,4.4,2,6.7c0.4,2.3,0.7,4.6,0.8,6.9c0.2,4.6-0.2,9.3-0.9,13.8c-0.7,4.5-1.8,9-2.8,13.5l-3.4,13.3
		c-2.3,8.8-4.7,17.6-7.4,26.4c-2.7,8.7-5.6,17.4-9,25.9c-1.7,4.3-3.5,8.5-5.4,12.6c-1,2.1-1.9,4.2-2.9,6.2c-1,2-1.9,4-2.2,6.1
		c-0.3,2.1-0.1,4.3,0,6.7c0,1.2,0,2.3-0.1,3.6c0,0.3-0.1,0.6-0.1,0.9c-0.1,0.3-0.1,0.6-0.2,0.9c-0.1,0.6-0.3,1.2-0.5,1.7
		c-1.7,4.5-4.7,8.1-6,12.2c-0.2,0.5-0.3,1-0.4,1.5l-0.1,0.8c0,0.2-0.1,0.5-0.1,0.8c-0.1,1.1,0,2.2,0,3.4c0,1.2-0.1,2.4-0.4,3.6
		c-0.3,1.2-1,2.4-1.7,3.3c-1.5,2-3.5,3.3-5.3,4.7c-1.8,1.4-3.5,2.8-4.5,4.6l-0.2,0.3l-0.3,0.1c-10.9,3.9-22.1,7.2-33.3,9.9
		c-5.6,1.3-11.3,2.5-17,3.6c-5.7,1-11.5,1.8-17.4,1.8c-2.9,0-5.9-0.1-8.8-0.5c-2.9-0.4-5.8-0.8-8.6-1.4c-2.9-0.6-5.7-1.3-8.5-2.3
		c-2.8-1-5.5-2.2-8-3.8c-1.2-0.8-2.4-1.7-3.5-2.8c-0.5-0.5-1.1-1.1-1.5-1.7c-0.5-0.6-0.9-1.3-1.2-2c-0.6-1.5-0.8-3-0.8-4.5
		c0-1.5,0.2-3,0.4-4.4c0.3-1.5,0.6-2.9,1.1-4.3c0.2-0.7,0.5-1.4,0.6-1.9c0-0.1,0-0.1,0-0.2c0,0,0-0.1,0-0.2c0-0.1,0-0.3-0.1-0.4
		c-0.1-0.3-0.2-0.5-0.4-0.8c-0.3-0.5-0.8-1.2-1.2-1.9c-0.4-0.7-0.6-1.4-0.9-2.1c-0.4-1.4-0.9-2.6-1.7-3.8l0.6,0.3
		c-4.8,0.4-9.6-0.1-14.3-0.7c-4.7-0.6-9.4-1.5-14-2.4l-0.5-0.1l0-0.5c0.4-9,1.4-18.1,2.8-27c0.7-4.5,1.5-8.9,2.4-13.4
		c0.9-4.5,2.1-8.8,2.5-13.3c0.9-8.9,0-18,0.5-27c0.5-9.1,2.6-17.9,4.6-26.7l6.1-26.4c1-4.4,2.1-8.8,3.7-13.1
		c1.6-4.3,3.7-8.3,6.2-12.1c2.5-3.8,5.4-7.3,8.7-10.5c3.3-3.1,6.8-6,10.8-8.3c1-0.6,2-1.1,3.1-1.5c1.1-0.4,2.1-0.8,3.2-1.1
		c1.1-0.4,2.1-0.9,3-1.5c0.9-0.6,1.8-1.4,2.6-2.1c3.4-3,7.7-5,12.2-5.7L187.8,144.1z"/>
</g>
<g>
	<path class="st1" d="M90.7,250.8c0,0,0.3,0.7,1.3,1.2c0.5,0.3,1,0.4,1.7,0.7c0.7,0.2,1.4,0.5,2.2,1.1c0.1,0.1,0.3,0.3,0.5,0.4
		c0.2,0.2,0.3,0.3,0.4,0.5c0.3,0.3,0.5,0.6,0.7,1c0.3,0.6,0.5,1.2,0.7,1.7c0.1,0.2,0.2,0.5,0.2,0.7c0.1,0.2,0.1,0.4,0.2,0.5
		c0.1,0.3,0.2,0.5,0.2,0.5l-0.1,0.2c0,0-0.1,0-0.2,0c-0.1,0-0.3,0-0.5-0.1c-0.2,0-0.4-0.1-0.7-0.3c-0.2-0.1-0.5-0.3-0.7-0.5
		c-0.5-0.4-0.9-1-1.2-1.6c-0.2-0.3-0.3-0.6-0.4-0.9c-0.1-0.1-0.1-0.3-0.2-0.4c-0.1-0.1-0.1-0.2-0.3-0.4c-0.3-0.4-0.9-0.8-1.5-1.2
		c-0.6-0.4-1.2-0.8-1.6-1.2c-0.4-0.4-0.7-0.9-0.9-1.2c-0.1-0.3-0.2-0.5-0.2-0.5L90.7,250.8z"/>
</g>
<g>
	<path class="st0" d="M126.1,262.5c-0.4-1.1,1.2-2.1,1.1-3.3c-0.1-0.7-0.7-1.2-1.3-1.5c-2.3-1.4-5.1-2.2-7.8-2.2
		c-0.7,0-1.5,0.1-2.2-0.1c-0.5-0.1-1-0.4-1.5-0.7c-2.2-1.4-4.3-3-6.1-4.9c-0.9-0.9-1.7-1.9-2.6-2.8c-2.2-2.1-4.9-3.6-7.8-4.4
		c-1.6-0.4-3.4-0.6-4.8,0.3c-1.4,0.8-2.1,2.3-2.4,3.9c-0.2,1.6,0,3.1,0.2,4.7c-1.6,0.4-2.9,2-2.8,3.6c0,0.7-0.5,1.3-0.8,1.9
		c3.8,0.6,6.4,4.8,9.9,6.2c1.4,0.6,3,0.8,4.5,1c4.4,0.6,8.9,0.9,13.3,1.2c3.9,0.2,8.4,0.1,11.2-2.7"/>
	<path d="M126,262.5c-0.2-0.6,0-1.2,0.3-1.6c0.3-0.5,0.6-1,0.6-1.4c0.1-0.5-0.3-0.9-0.7-1.2c-0.4-0.3-0.9-0.6-1.4-0.8
		c-1.9-1-4.1-1.5-6.2-1.5c-0.5,0-1.1,0-1.6,0c-0.6,0-1.2,0-1.8-0.3c-0.6-0.2-1.1-0.5-1.5-0.8c-0.5-0.3-0.9-0.6-1.4-0.9
		c-1.8-1.3-3.5-2.8-5-4.5c-0.7-0.8-1.5-1.7-2.2-2.4c-0.8-0.8-1.6-1.4-2.5-2c-0.9-0.6-1.9-1.1-2.9-1.5c-1-0.4-2.1-0.7-3.1-0.9
		c-1.1-0.2-2.2-0.1-3.2,0.3c-1,0.4-1.7,1.3-2.2,2.2c-0.4,1-0.6,2.1-0.6,3.1c0,1.1,0.2,2.2,0.4,3.2l0.1,0.3l-0.3,0.1
		c-1,0.3-1.9,1.1-2.3,2.1c-0.1,0.2-0.2,0.5-0.2,0.8c0,0.1,0,0.3,0,0.4l0,0.2c0,0.1,0,0.2,0,0.3c-0.2,0.7-0.5,1.2-0.8,1.7l-0.3-0.7
		c1.9,0.3,3.4,1.4,4.8,2.4c1.4,1.1,2.7,2.3,4.1,3.1c0.7,0.4,1.5,0.7,2.3,0.9c0.8,0.2,1.6,0.4,2.5,0.5c1.7,0.2,3.4,0.4,5.1,0.6
		c3.4,0.4,6.9,0.7,10.3,0.9c1.7,0.1,3.4,0.1,5.1-0.3C123.2,264.4,124.8,263.8,126,262.5l0.1,0.1c-1.2,1.3-2.8,2.1-4.5,2.6
		c-1.7,0.4-3.5,0.5-5.2,0.5c-1.7,0-3.5-0.1-5.2-0.2c-1.7-0.1-3.5-0.2-5.2-0.4c-1.7-0.2-3.5-0.4-5.2-0.6c-0.9-0.1-1.8-0.3-2.6-0.5
		c-0.9-0.2-1.8-0.6-2.5-1c-1.6-0.9-2.8-2.2-4.2-3.2c-1.3-1.1-2.7-2-4.3-2.3l-0.6-0.1l0.3-0.5c0.3-0.6,0.6-1,0.7-1.5l0-0.1l0-0.2
		c0-0.2,0-0.3,0-0.5c0.1-0.3,0.1-0.6,0.3-0.9c0.5-1.2,1.6-2.1,2.9-2.4l-0.3,0.4c-0.1-1.1-0.3-2.2-0.3-3.3c0-1.1,0.2-2.3,0.7-3.3
		c0.5-1,1.3-1.9,2.4-2.4c1.1-0.5,2.2-0.4,3.3-0.3c1.1,0.2,2.2,0.5,3.2,0.9c1,0.4,2.1,0.9,3,1.4c1,0.6,1.9,1.2,2.7,2
		c0.8,0.8,1.6,1.6,2.3,2.3c0.8,0.8,1.5,1.6,2.4,2.3c0.8,0.7,1.7,1.4,2.6,2c0.4,0.3,0.9,0.6,1.3,0.9c0.5,0.3,0.9,0.6,1.4,0.8
		c0.9,0.4,2,0.2,3.1,0.3c2.3,0.1,4.5,0.8,6.5,1.9c0.5,0.3,1,0.5,1.4,0.9c0.2,0.2,0.4,0.4,0.6,0.7c0.1,0.3,0.2,0.6,0.1,0.9
		c-0.1,0.6-0.5,1.1-0.8,1.5c-0.3,0.4-0.6,0.9-0.4,1.5L126,262.5z"/>
</g>
<g>
	<path class="st3" d="M103.5,262.3L103.5,262.3c0.5,0.2,1.1,0,1.3-0.5l21.7-43.7c0.2-0.5,0-1.1-0.5-1.3l0,0c-0.5-0.2-1.1,0-1.3,0.5
		L103,261C102.8,261.5,103,262.1,103.5,262.3z"/>
	<path class="st4" d="M103.5,262.3c0-0.1,0.1,0,0.3,0c0.2,0,0.5,0,0.8-0.2c0.3-0.2,0.4-0.7,0.7-1.2c0.2-0.5,0.5-1.1,0.8-1.7
		c1.3-2.5,3-6.2,5.2-10.6c2.1-4.4,4.6-9.5,7.3-14.9c1.3-2.7,2.7-5.6,4.1-8.4c0.7-1.4,1.4-2.9,2.1-4.3l1.1-2.2l0.3-0.5
		c0.1-0.2,0.2-0.3,0.2-0.4c0-0.1,0-0.2-0.1-0.4c0-0.1-0.1-0.1-0.1-0.1c0,0,0,0-0.1-0.1c0,0,0,0,0,0l0,0c0.1-0.2-0.2,0.4,0.2-0.4
		c-0.3,0.7-0.1,0.2-0.2,0.4l0,0c0,0,0,0,0,0c0,0,0,0-0.1,0c-0.1,0-0.1,0-0.2,0c-0.1,0-0.2,0.1-0.3,0.2c0,0-0.1,0.1-0.1,0.1l-0.1,0.3
		l-0.3,0.5l-1.1,2.2c-0.7,1.5-1.4,2.9-2.1,4.3c-1.4,2.9-2.8,5.7-4.1,8.4c-1.4,2.7-2.6,5.4-3.9,7.8c-1.3,2.5-2.5,4.8-3.6,7
		c-2.3,4.3-4.2,7.9-5.4,10.4c-0.3,0.6-0.6,1.2-0.9,1.7c-0.2,0.5-0.5,0.9-0.6,1.2c0,0.4,0.2,0.6,0.3,0.7
		C103.4,262.3,103.5,262.3,103.5,262.3L103.5,262.3z M103.4,262.4c0,0-0.1,0-0.3-0.2c-0.1-0.1-0.3-0.4-0.3-0.8
		c0-0.2,0.1-0.4,0.2-0.6c0.1-0.2,0.2-0.4,0.3-0.7c0.2-0.5,0.5-1.1,0.8-1.7c1.3-2.5,2.9-6.2,5-10.6c1-2.2,2.2-4.6,3.4-7.1
		c1.2-2.5,2.5-5.1,3.9-7.9c1.4-2.7,2.8-5.5,4.2-8.4c0.7-1.4,1.4-2.9,2.2-4.3l1.1-2.2l0.3-0.5l0.1-0.3c0.1-0.1,0.2-0.2,0.3-0.3
		c0.2-0.2,0.5-0.3,0.8-0.4c0.1,0,0.3,0,0.4,0c0.1,0,0.1,0,0.2,0.1l0.1,0l0,0c-0.1,0.2,0.2-0.4-0.1,0.4c0.4-0.7,0.1-0.2,0.2-0.3l0,0
		c0,0,0.1,0,0.1,0.1c0.1,0,0.1,0.1,0.2,0.1c0.1,0.1,0.2,0.2,0.3,0.3c0.1,0.2,0.2,0.5,0.2,0.8c0,0.1,0,0.1,0,0.2
		c0,0.1-0.1,0.2-0.1,0.2l-0.1,0.3l-0.3,0.5l-1.1,2.2c-0.7,1.4-1.5,2.9-2.2,4.3c-1.4,2.9-2.9,5.7-4.2,8.4c-2.7,5.4-5.3,10.5-7.5,14.8
		c-2.2,4.3-4.1,7.9-5.3,10.5c-0.3,0.6-0.6,1.2-0.8,1.7c-0.1,0.2-0.2,0.5-0.3,0.7c-0.1,0.2-0.2,0.4-0.4,0.5c-0.3,0.3-0.7,0.3-0.9,0.2
		C103.5,262.4,103.4,262.4,103.4,262.4L103.4,262.4z"/>
</g>
<g>
	<path class="st5" d="M175.8,305.5c-8.2-7.6-16.4-15.1-24.6-22.7c-3-2.8-6.1-5.6-9.1-8.4c-1.6-1.5-3.2-2.9-4.8-4.4
		c-4.3-3.9-8.6-7.9-13-11.7c-8,0-90.1-4.4-103.1-5.7c3.5,4,7,6.5,10.1,9.2c8,6.9,16,13.9,24,20.8c2,1.7,4,3.5,6.4,4.7
		c2,1,4.1,1.6,6.3,2.2c17.5,5,35,10,52.5,15c0.7,0.2,1.3,1.4,0.6,1.4c13.5,7.2,29.8,5.1,45.1,5.7c2.3,0.1,4.6,0.2,6.7-0.8
		c2-1,3.4-3.7,2.2-5.6"/>
	<path class="st1" d="M175.8,305.6L150,282l-12.9-11.8c-4.3-3.9-8.6-7.9-13-11.7l0.1,0.1c-4.3-0.1-8.6-0.3-12.9-0.5l-12.9-0.6
		l-25.8-1.3L47,254.7l-12.9-0.8c-4.3-0.3-8.6-0.5-12.9-0.9l0.4-0.7c1.6,1.8,3.3,3.5,5.2,5.1c1.8,1.6,3.7,3.1,5.6,4.7l11,9.5l11,9.5
		c1.9,1.6,3.6,3.2,5.6,4.6c1.9,1.4,4.2,2.2,6.5,2.9l28.1,8l14,4.1l7,2l3.5,1l0.9,0.3l0.4,0.1c0.1,0,0.3,0.1,0.5,0.2
		c0.4,0.2,0.6,0.5,0.8,0.8c0.1,0.2,0.2,0.4,0.2,0.7c0,0.2-0.1,0.4-0.3,0.5c-0.2,0.1-0.3,0.1-0.5,0.1l0.2-0.8
		c4.3,2.3,9.1,3.8,13.9,4.5c4.9,0.8,9.8,1,14.8,1.1c4.9,0.1,9.9,0,14.9,0.2c1.2,0,2.5,0.1,3.7,0.1c1.2,0,2.5-0.1,3.6-0.5
		c1.2-0.4,2.1-1.2,2.7-2.3c0.6-1,0.8-2.4,0.1-3.5l0.1-0.1c0.7,1.1,0.5,2.5-0.1,3.6c-0.6,1.1-1.6,2-2.8,2.4c-1.2,0.5-2.4,0.6-3.7,0.6
		c-1.2,0-2.5,0-3.7-0.1c-4.9-0.1-9.9,0-14.9,0c-5,0-9.9-0.2-14.9-1c-4.9-0.7-9.8-2.2-14.2-4.5l-1.2-0.6l1.4-0.1c0,0,0,0,0,0
		c-0.1,0-0.1,0.1-0.1,0.1c0,0,0-0.1-0.1-0.2c-0.1-0.2-0.3-0.4-0.4-0.5c-0.1,0-0.2-0.1-0.4-0.1l-0.4-0.1l-0.9-0.2l-3.5-1l-7-2l-14-4
		l-28.1-8c-2.3-0.7-4.7-1.6-6.8-3.1c-2.1-1.4-3.9-3.1-5.7-4.7l-11-9.6l-11-9.6c-1.8-1.6-3.7-3.1-5.6-4.7c-1.8-1.6-3.6-3.3-5.2-5.2
		l-0.7-0.8l1,0.1c4.3,0.4,8.6,0.7,12.9,1L47,254l25.8,1.5l25.8,1.4l12.9,0.7c4.3,0.2,8.6,0.4,12.9,0.5l0.1,0l0.1,0.1
		c4.4,3.8,8.7,7.8,12.9,11.7l12.8,11.9L175.8,305.6L175.8,305.6z"/>
</g>
<g>
	<path class="st6" d="M161.4,293.3c0,0,0.1-0.6,0.2-1.8c0.2-1.1,0.3-2.8,0.5-4.7c0.1-1,0.1-2,0.2-3.1c0.1-1.1,0-2.3,0.1-3.5
		c0-1.2,0-2.5-0.1-3.8c0-1.3-0.1-2.6-0.2-3.9c-0.1-1.3-0.2-2.6-0.4-3.9c-0.1-1.3-0.3-2.5-0.5-3.7c-0.2-1.2-0.4-2.4-0.6-3.5
		c-0.2-1.1-0.4-2.1-0.7-3.1c-0.5-1.9-0.9-3.5-1.2-4.6c-0.3-1.1-0.5-1.7-0.5-1.7s0.2,0.6,0.7,1.7c0.2,0.5,0.5,1.2,0.7,1.9
		c0.3,0.7,0.6,1.6,0.8,2.5c0.3,0.9,0.6,2,0.9,3.1c0.3,1.1,0.5,2.3,0.8,3.5c0.2,1.2,0.5,2.5,0.6,3.8c0.2,1.3,0.3,2.6,0.4,3.9
		c0.1,1.3,0.2,2.6,0.2,3.9c0,1.3,0,2.6,0,3.8c-0.1,1.2-0.1,2.4-0.3,3.5c-0.1,1.1-0.2,2.2-0.4,3.2c-0.1,1-0.3,1.9-0.4,2.6
		c-0.1,0.8-0.3,1.5-0.4,2C161.5,292.7,161.4,293.3,161.4,293.3z"/>
</g>
<g>
	<path class="st6" d="M150,283.4c0,0,0.1-0.5,0.2-1.6c0.1-1,0.3-2.5,0.2-4.5c0-1.9-0.2-4.3-0.7-6.9c-0.5-2.6-1.2-5.6-2.2-8.7
		c-2-6.3-5-13.5-7.7-21.4c-1.3-3.9-2.6-8.1-3.6-12.4c-1-4.3-1.6-8.7-1.8-13.2c-0.1-4.5,0.2-9,0.8-13.3c0.5-4.3,1.2-8.6,2.3-12.7
		c0.3-1,0.6-2,0.9-3l0.3-0.7l0.1-0.4l0.1-0.4c0.2-0.5,0.4-0.9,0.6-1.4c0.4-0.9,0.8-1.9,1.2-2.8c0.5-0.9,0.9-1.8,1.4-2.6
		c1.9-3.4,3.9-6.4,6.1-9c2.1-2.6,4.3-4.8,6.3-6.7c2-1.8,4-3.3,5.6-4.3c0.4-0.3,0.8-0.5,1.2-0.7c0.4-0.2,0.7-0.4,1.1-0.6
		c0.7-0.4,1.2-0.7,1.7-0.8c1-0.4,1.5-0.6,1.5-0.6l0.1,0.2c0,0-0.5,0.3-1.4,0.8c-0.5,0.2-1,0.6-1.6,1c-0.3,0.2-0.7,0.4-1,0.6
		c-0.3,0.3-0.7,0.5-1.1,0.8c-1.6,1.1-3.3,2.7-5.2,4.5c-1.9,1.9-3.9,4.2-5.8,6.8c-1.9,2.6-3.9,5.6-5.6,9c-0.4,0.8-0.8,1.7-1.3,2.6
		c-0.4,0.9-0.8,1.7-1.2,2.7c-0.2,0.5-0.4,0.9-0.5,1.4l-0.1,0.4l-0.1,0.3l-0.2,0.7c-0.3,0.9-0.6,1.9-0.9,2.9
		c-1.1,3.9-1.8,8.1-2.4,12.4c-0.6,4.3-1.1,8.7-1,13c0.1,4.4,0.6,8.7,1.5,13c0.9,4.2,2,8.4,3.3,12.3c2.5,7.9,5.4,15.1,7.2,21.5
		c0.9,3.2,1.6,6.2,2,8.9c0.4,2.7,0.6,5.1,0.5,7c0,1.9-0.2,3.5-0.4,4.5c-0.2,1-0.3,1.6-0.3,1.6L150,283.4z"/>
</g>
<g>
	<path class="st2" d="M198,132.5c-4.7,1.5-7.7,5.9-10.5,9.9c-4.8,7.1-9.6,14.3-11.8,22.5c3-3,5.6-6.4,7.8-10.1
		c1.8,3.3,6.6,3.4,9.3,6c1.4,1.3,2,3.2,2.6,5c1.9,6.2,2.8,12.7,2.8,19.2c-0.7-11.6-1.4-23.1-2.2-34.7c-0.2-2.6-0.3-5.2,0.3-7.7
		c1.1-4.1,4.3-7.7,4.2-11.9c-0.7,0-1.4-0.1-2-0.1c-0.2,1.1-1.1,2.1-2.2,2.5"/>
	<path class="st1" d="M198,132.6c-0.8,0.3-1.5,0.7-2.2,1.1c-0.7,0.4-1.4,0.9-2,1.5c-1.2,1.1-2.3,2.4-3.3,3.7c-1,1.3-1.9,2.7-2.8,4.1
		l-2.7,4.3c-1.8,2.8-3.5,5.7-4.9,8.7c-0.7,1.5-1.4,3-2,4.5c-0.3,0.8-0.6,1.5-0.8,2.3c-0.3,0.8-0.5,1.6-0.7,2.3l-1.8-1
		c1.5-1.5,2.8-3,4.1-4.7c1.3-1.6,2.5-3.4,3.5-5.2l1-1.6l0.9,1.7c0.6,1,1.6,1.8,3,2.4c1.3,0.6,2.8,1.2,4.2,2c0.7,0.4,1.4,0.9,2,1.5
		c0.6,0.6,1.1,1.4,1.5,2.1c0.7,1.5,1.1,3,1.6,4.5c1.6,6,2.4,12.1,2.3,18.2l-1.5,0l-1.5-27.6l-0.4-6.9c-0.1-2.3-0.3-4.6,0.2-7
		c0.4-2.3,1.6-4.4,2.6-6.5c1-2,2-4.2,2-6.4l0.2,0.2l-2-0.1l0.1-0.1c-0.3,1.2-1.2,2.2-2.3,2.6l-0.1-0.2c1-0.4,1.9-1.3,2.1-2.4l0-0.1
		l0.1,0l2,0.1l0.2,0l0,0.2c0.1,2.4-0.9,4.6-1.9,6.7c-1,2.1-2,4.1-2.4,6.4c-0.4,2.2-0.2,4.5,0,6.8l0.5,6.9l2,27.5l-1.5,0
		c0-3-0.2-6-0.7-9c-0.4-3-1.1-5.9-1.9-8.8c-0.4-1.5-0.9-2.9-1.5-4.1c-0.3-0.6-0.7-1.2-1.2-1.6c-0.5-0.4-1-0.8-1.6-1.2
		c-1.2-0.7-2.6-1.1-4.1-1.8c-0.7-0.3-1.5-0.7-2.2-1.3c-0.7-0.5-1.3-1.2-1.8-2l1.9,0c-1.1,1.9-2.3,3.7-3.6,5.4
		c-1.3,1.7-2.8,3.3-4.3,4.9l-3,2.9l1.2-4c0.2-0.8,0.5-1.7,0.8-2.5c0.3-0.8,0.6-1.6,0.9-2.4c0.7-1.6,1.4-3.1,2.2-4.6
		c1.6-3,3.4-5.9,5.3-8.6l2.9-4.1c1-1.4,2-2.7,3.1-4.1c1.1-1.3,2.3-2.5,3.6-3.6c0.7-0.5,1.4-1,2.1-1.4c0.8-0.4,1.6-0.7,2.4-0.9
		L198,132.6z"/>
</g>
<path class="st2" d="M118.8,303.4c0.9,2.8,2.5,5.7,5,7.5c1.4,1,3,1.5,4.7,2c4.3,1.2,8.7,2.1,12.8,3.9c1,0.5,2.1,1,3.1,1.4
	c0.9,0.3,1.9,0.5,2.8,0.6c3,0.5,5.9,1,8.9,1.5c0.8,0.1,1.5,0.3,2.3,0.2c0.9-0.1,1.7-0.4,2.5-0.7c3.7-1.4,7.4-2.8,10.6-5.1
	c1.5-1,2.9-2.3,4.7-2.4c0.8-1.1,0.9-2.6,0.7-3.9s-0.8-2.6-1.3-3.8c-2.4,0.3-4.7,1.3-7.1,1.3c-3.1,0-6-1.9-9.1-2.2
	c-0.6-0.1-2.1-0.1-2.5,0.3c-1.1,0.3-1.7,0.9-2.8,1.2c-1.5,0.4-2.7,0.7-4.2,0.2c-0.6-0.2-1.2-0.6-1.8-0.9c-2.2-1.3-3.4-1.7-5.9-2.1
	c-2.8-0.4-6.8-0.2-11.7,0.3c-1.8,0.2-3.4,0.2-5.3,0.4c-2.2,0.3-4.5,0-6.6,0.6"/>
<g>
	<path class="st6" d="M199,183.8c0,0-2.5,7.3-6.3,18.2c-1.9,5.5-4.1,11.8-6.5,18.6c-1.2,3.4-2.2,7-2.5,10.7c-0.3,3.7,0,7.6,0.3,11.4
		c0.6,7.7,0.6,15.4,0.7,22.7c0,3.6,0,7.1-0.2,10.5c-0.2,3.3-0.7,6.5-1.3,9.3c-0.6,2.8-1.4,5.4-2,7.7c-0.6,2.3-1.1,4.2-1.5,5.9
		c-0.4,1.6-0.6,2.9-0.7,3.8c-0.1,0.9-0.2,1.4-0.2,1.4l-0.1,0c0,0,0-0.5,0.1-1.4c0.1-0.9,0.2-2.2,0.5-3.9c0.3-1.7,0.7-3.7,1.3-6
		c0.6-2.3,1.2-4.9,1.8-7.7c0.6-2.8,0.9-5.9,1.1-9.2c0.2-3.3,0.2-6.8,0.2-10.4c0-7.2,0-14.9-0.4-22.6c-0.2-3.8-0.6-7.7-0.2-11.6
		c0.3-3.8,1.5-7.5,2.7-10.9c2.5-6.8,4.8-13.1,6.8-18.6C196.3,191,198.9,183.8,199,183.8L199,183.8z"/>
</g>
<g>
	<path class="st6" d="M118.8,303.5l12.7-1.1c2.1-0.2,4.2-0.4,6.3-0.5c2.1-0.1,4.3,0,6.4,0.5c1,0.3,2.1,0.6,3,1.1
		c1,0.5,1.8,1.2,2.7,1.6c0.9,0.5,2,0.6,3,0.3c1-0.3,1.9-0.8,2.9-1.2c1-0.5,2-0.8,3.1-0.8c1.1,0,2.2,0.3,3.2,0.6c2,0.7,4,1.6,6.1,1.6
		c2.1,0,4.1-0.6,6.1-1.2c2-0.7,4-1.4,6.1-1.9c2.1-0.6,4.1-1,6.2-1.4c2.1-0.4,4.2-0.7,6.3-0.9c2.1-0.2,4.2-0.3,6.4-0.4
		c1.1,0,2.1,0,3.2,0c1.1,0.1,2.1,0.1,3.2,0.2c2.1,0.2,4.2,0.4,6.3,0.7c2.1,0.3,4.2,0.8,6.3,1.3l-0.5,0.3l0.6-2.9l0.1-0.3l0.3,0
		c1.3,0.1,2.7-0.1,3.9-0.6c1.2-0.5,2.4-1.3,3.4-2.2c2-1.8,3.4-4.3,4.2-6.9c0.8-2.6,1.2-5.4,1.5-8.1c0.3-2.8,0.7-5.6,1.2-8.3
		c1-5.5,2.4-11,4.2-16.3c0.9-2.7,1.9-5.3,3-7.9c1.1-2.6,2.4-5.1,3.5-7.6c1.1-2.5,2.1-5.1,2.6-7.8c0.5-2.7,0.2-5.4,0.3-8.3
		c0.1-1.4,0.4-2.9,1-4.2c0.6-1.3,1.3-2.5,2.1-3.7c0.7-1.2,1.5-2.4,2.1-3.6c0.3-0.6,0.6-1.3,0.8-1.9c0.2-0.6,0.4-1.3,0.5-2
		c0.6-2.7,0.6-5.5,0.7-8.3c0.1-2.8,0.3-5.6,1-8.4c1.5-5.4,4.6-10.4,8.8-14.1l0.1,0.1c-2,1.9-3.8,4.1-5.2,6.5c-1.4,2.4-2.5,5-3.1,7.7
		c-0.7,2.7-0.9,5.5-0.9,8.2c-0.1,2.8,0,5.6-0.6,8.4c-0.1,0.7-0.3,1.4-0.5,2.1c-0.2,0.7-0.5,1.3-0.8,2c-0.6,1.3-1.4,2.5-2.1,3.7
		c-0.7,1.2-1.4,2.4-1.9,3.6c-0.5,1.2-0.8,2.6-0.9,3.9c-0.1,2.7,0.3,5.6-0.3,8.4c-0.5,2.8-1.5,5.5-2.6,8.1c-1.1,2.6-2.4,5.1-3.5,7.6
		c-1.1,2.6-2.1,5.1-3,7.8c-1.8,5.3-3.2,10.7-4.2,16.1c-0.5,2.7-0.9,5.5-1.2,8.3c-0.3,2.8-0.7,5.6-1.6,8.3c-0.8,2.7-2.3,5.3-4.4,7.2
		c-1.1,1-2.3,1.8-3.6,2.3c-1.3,0.5-2.8,0.8-4.3,0.7l0.4-0.3l-0.6,2.9l-0.1,0.4l-0.4-0.1c-2.1-0.5-4.1-1-6.2-1.3
		c-2.1-0.4-4.2-0.6-6.3-0.7c-1.1-0.1-2.1-0.1-3.2-0.2c-1.1,0-2.1,0-3.2,0c-2.1,0-4.2,0.1-6.3,0.3c-2.1,0.2-4.2,0.5-6.3,0.9
		c-2.1,0.4-4.1,0.8-6.2,1.4c-2,0.5-4,1.2-6.1,1.9c-2,0.7-4.1,1.3-6.3,1.2c-2.2,0-4.2-1-6.2-1.7c-1-0.3-2-0.6-3-0.6c-1,0-2,0.3-3,0.7
		c-1,0.4-1.9,0.9-3,1.2c-1,0.3-2.2,0.2-3.2-0.3c-1-0.5-1.8-1.2-2.7-1.6c-0.9-0.5-1.9-0.8-2.9-1.1c-2-0.5-4.2-0.6-6.3-0.6
		c-2.1,0.1-4.2,0.3-6.3,0.4l-12.7,1L118.8,303.5z"/>
</g>
<g>
	<path class="st6" d="M150.5,343.8c0,0,0.3,0.3,0.8,0.7c0.5,0.5,1.2,1.1,2.2,1.7c0.5,0.3,1,0.7,1.5,1c0.6,0.3,1.2,0.7,1.8,1
		c0.6,0.3,1.3,0.6,2,0.9c0.7,0.3,1.4,0.5,2.1,0.7c0.7,0.2,1.5,0.4,2.2,0.5c0.7,0.1,1.4,0.2,2.1,0.3c0.7,0,1.4,0.1,2,0.1
		c0.6,0,1.3,0,1.9,0c1.2,0,2.2,0.3,2.8,0.6c0.3,0.2,0.5,0.4,0.6,0.5c0.1,0.1,0.2,0.2,0.2,0.2s-0.1-0.1-0.2-0.2
		c-0.1-0.1-0.4-0.2-0.7-0.3c-0.6-0.2-1.6-0.3-2.7-0.2c-0.6,0-1.2,0.1-1.9,0.2c-0.7,0.1-1.4,0.1-2.1,0.1c-0.7,0-1.5-0.1-2.3-0.2
		c-0.8-0.1-1.5-0.3-2.3-0.5c-0.8-0.2-1.5-0.5-2.2-0.8c-0.7-0.3-1.4-0.6-2-1c-0.7-0.3-1.2-0.8-1.8-1.1c-0.6-0.4-1-0.8-1.5-1.2
		c-0.9-0.8-1.5-1.5-1.9-2.1C150.7,344.1,150.5,343.8,150.5,343.8z"/>
</g>
<g>
	<path class="st6" d="M179.4,352.2c0,0,0.1,0,0.4-0.1c0.2-0.1,0.6-0.2,1.1-0.2c0.5,0,1.1-0.1,1.8,0c0.7,0,1.4,0.2,2.3,0.4
		c1.6,0.4,3.4,1.1,5.4,1.6c0.5,0.1,1,0.2,1.5,0.3c0.5,0.1,1,0.1,1.5,0.1c1,0,2.1-0.1,3.2-0.2c2.1-0.3,4.3-0.8,6.3-1.2
		c1-0.2,2-0.4,3-0.5c1-0.1,1.9-0.1,2.7-0.2c1.6-0.1,3-0.2,3.9-0.5c0.4-0.2,0.8-0.3,1-0.4c0.2-0.1,0.3-0.2,0.3-0.2s-0.1,0.1-0.3,0.3
		c-0.2,0.2-0.5,0.4-1,0.6c-0.9,0.4-2.3,0.8-3.9,0.9c-0.8,0.1-1.7,0.2-2.6,0.3c-0.9,0.2-1.9,0.4-2.9,0.6c-2,0.5-4.1,1-6.4,1.4
		c-1.1,0.1-2.2,0.2-3.4,0.2c-0.6,0-1.1-0.1-1.7-0.2c-0.6-0.1-1.1-0.2-1.6-0.4c-2-0.6-3.8-1.4-5.3-1.9c-0.8-0.2-1.5-0.5-2.1-0.6
		c-0.6-0.1-1.2-0.2-1.7-0.2c-0.5,0-0.8,0-1.1,0.1C179.5,352.2,179.4,352.2,179.4,352.2z"/>
</g>
<g>
	<path class="st7" d="M109.5,251"/>
</g>
<g>
	<path class="st1" d="M107.3,257.5c0,0-0.1-0.1-0.2-0.2c-0.1-0.1-0.3-0.2-0.5-0.4c-0.2-0.1-0.5-0.3-0.8-0.6
		c-0.1-0.1-0.3-0.3-0.4-0.5c-0.1-0.2-0.2-0.4-0.3-0.6c-0.2-0.4-0.4-0.8-0.4-1.2c0-0.4,0.2-0.8,0.4-1c0.4-0.5,1.1-0.6,1.1-0.6
		l0.2,0.1c0,0,0.1,0.1,0.1,0.3c0.1,0.2,0.2,0.4,0.3,0.6c0.1,0.2,0.2,0.4,0.2,0.6c0,0.2-0.2,0.5-0.2,0.7c0,0.1,0,0.3,0,0.4
		c0,0.1,0,0.2,0.1,0.4c0.1,0.2,0.2,0.5,0.3,0.8c0.1,0.3,0.2,0.5,0.2,0.6c0,0.2,0,0.3,0,0.3L107.3,257.5z"/>
</g>
<g>
	<path class="st6" d="M183.2,359.6c0,0,0.2,0,0.6,0c0.4,0,0.9,0,1.6,0c0.7-0.1,1.5-0.2,2.4-0.4c0.9-0.2,2-0.6,3.1-0.9
		c2.2-0.7,5-1.6,7.9-2c3-0.4,6.2-0.7,9.3-0.8c3.2,0,6.4,0,9.3,0.1c3,0.1,5.8,0.3,8.1,0.5c2.4,0.2,4.3,0.4,5.7,0.6
		c1.4,0.2,2.2,0.3,2.2,0.3s-3.2-0.1-7.9-0.3c-2.4-0.1-5.1-0.1-8.1-0.2c-3,0-6.1,0-9.3,0c-3.2,0-6.3,0.2-9.2,0.6
		c-1.5,0.2-2.9,0.4-4.2,0.7c-1.3,0.3-2.6,0.6-3.7,0.9c-2.3,0.6-4.3,1-5.7,1c-0.7,0-1.2-0.1-1.6-0.1
		C183.4,359.6,183.2,359.6,183.2,359.6z"/>
</g>
<g>
	<path class="st6" d="M218.4,352.1c0,0,0.1-0.1,0.4-0.2c0.3-0.2,0.7-0.4,1.2-0.6c1-0.5,2.5-1.2,4.3-1.9c1.9-0.6,4.1-1.3,6.5-1.7
		c1.2-0.2,2.5-0.3,3.7-0.5c0.6-0.1,1.2-0.2,1.7-0.5c0.6-0.2,1.1-0.6,1.7-0.9c1.2-0.7,2.5-1.1,3.9-1.2c1.3-0.1,2.6-0.1,3.8,0
		c1.2,0.1,2.4,0.1,3.5,0.1c1.1,0,2.2-0.1,3.2,0c1,0.1,1.9,0.3,2.6,0.8c0.7,0.4,1.2,0.9,1.5,1.4c0.3,0.5,0.4,0.9,0.5,1.3
		c0,0.3,0,0.5,0,0.5s0-0.2-0.1-0.5c-0.1-0.3-0.2-0.7-0.6-1.1c-0.3-0.4-0.9-0.9-1.6-1.2c-0.7-0.3-1.5-0.5-2.5-0.5
		c-0.9,0-2,0.1-3.1,0.2c-1.1,0.1-2.3,0.1-3.5,0.1c-1.2,0-2.5-0.1-3.7,0.1c-1.2,0.1-2.4,0.5-3.5,1.1c-0.6,0.3-1.1,0.6-1.8,0.9
		c-0.6,0.3-1.3,0.5-2,0.5c-1.3,0.2-2.5,0.2-3.7,0.4c-2.4,0.3-4.6,0.8-6.4,1.3c-1.9,0.5-3.4,1.1-4.4,1.5
		C219,351.8,218.4,352.1,218.4,352.1z"/>
</g>
<g>
	<path class="st6" d="M198.9,368c0,0-0.4-0.3-1.1-0.8c-0.7-0.5-1.9-1-3.2-1.6c-1.4-0.5-3.1-1.2-4.8-1.8c-1.8-0.6-3.7-1.2-5.6-1.3
		c-0.5,0-1-0.1-1.4,0l-0.7,0l-0.7,0.1c-0.9,0.1-1.9,0.4-2.7,0.6c-1.7,0.6-3.3,1.3-4.6,2.1c-1.3,0.7-2.4,1.3-3.2,1.8
		c-0.8,0.4-1.2,0.7-1.2,0.7s0.4-0.3,1.1-0.9c0.7-0.5,1.7-1.3,3-2.2c1.3-0.8,2.8-1.7,4.6-2.4c0.9-0.3,1.9-0.6,2.9-0.8l0.8-0.1l0.7,0
		c0.5,0,1.1,0,1.6,0c2.1,0.2,4.1,0.8,5.9,1.5c1.8,0.7,3.4,1.4,4.7,2.1c1.4,0.7,2.4,1.4,3.1,2c0.3,0.3,0.6,0.5,0.8,0.7
		C198.8,367.9,198.9,368,198.9,368z"/>
</g>
<g>
	<path class="st0" d="M118.4,306.4c-2.6-2.3-4.6-5.2-5.7-8.4c-0.4-1.1-0.7-2.2-1.4-3.2c-0.8-1.2-2.1-2-3.3-2.8
		c-3.3-2.1-6.6-4.1-10.2-5.4c-4.7-1.7-9.8-2-14.4-3.7c-5.1-1.8-9.7-5.2-15.1-5.8c-2.1-0.2-4.4,0.1-5.7,1.7c-1.2,1.4-1.2,3.5-1.1,5.3
		c6.1,1.4,11,6.3,17.1,7.5c-2.5-0.7-5-1.4-7.4-2.1c-3.2-0.9-6.9-1.8-10.1-2.8c-1.7-0.5-3.4-1.1-4.7-2.2c-1.8-1.6-2.6-4.1-4.5-5.6
		c-0.9-0.7-2.4-1-2.9,0c-0.2,0.3-0.2,0.7-0.2,1.1c0.1,4,1.9,7.7,3.9,11.1c0.5,0.8,1,1.7,1.8,2.4c1.1,1,2.6,1.6,4.1,2
		c5.7,1.9,11.6,3.6,16.3,7.3c2.6,2,4.9,4.6,8.1,5.2"/>
	<path d="M118.4,306.4c-2.3-2-4.2-4.4-5.5-7.2c-0.7-1.4-1-2.9-1.8-4.1c-0.8-1.2-2.1-2-3.4-2.8c-2.6-1.6-5.2-3.2-7.9-4.4
		c-1.4-0.6-2.8-1.1-4.2-1.5c-1.4-0.4-2.9-0.7-4.4-1c-2.9-0.6-6-1.2-8.8-2.4c-2.9-1.2-5.5-2.7-8.2-3.9c-1.4-0.6-2.8-1.2-4.2-1.5
		c-1.5-0.3-3-0.5-4.4-0.3c-1.5,0.2-2.8,1-3.5,2.4c-0.6,1.3-0.6,2.9-0.5,4.4l-0.1-0.2l1.1,0.3l1.1,0.4c0.7,0.3,1.5,0.6,2.2,0.9
		c1.4,0.7,2.8,1.4,4.2,2.2c1.4,0.7,2.7,1.5,4.2,2.1c0.7,0.3,1.4,0.6,2.2,0.8l1.1,0.3l1.1,0.2l-0.2,0.7c-3.3-0.9-6.6-1.8-9.9-2.7
		l-5-1.3c-1.7-0.5-3.3-0.8-5-1.5c-0.8-0.3-1.6-0.7-2.4-1.3c-0.7-0.6-1.3-1.3-1.8-2c-1-1.4-1.8-3-3.1-3.8c-0.5-0.4-1.4-0.5-1.7-0.2
		c-0.2,0.1-0.3,0.3-0.3,0.7c0,0.3,0,0.8,0.1,1.2c0.1,1.6,0.6,3.3,1.2,4.8c0.6,1.6,1.4,3.1,2.2,4.5c0.9,1.5,1.7,2.9,3.1,3.7
		c1.4,0.8,3.1,1.2,4.7,1.8c1.6,0.6,3.3,1.1,4.9,1.7c3.2,1.2,6.4,2.7,9.1,4.9c1.4,1,2.6,2.3,3.9,3.3c1.3,1.1,2.8,2,4.5,2.4l0,0.1
		c-1.7-0.3-3.3-1.2-4.6-2.2c-1.4-1-2.7-2.2-4-3.2c-2.8-2-5.9-3.4-9.1-4.5c-1.6-0.6-3.2-1.1-4.9-1.6c-1.6-0.6-3.3-0.9-4.9-1.8
		c-0.8-0.4-1.5-1.1-2.1-1.8c-0.6-0.7-1-1.5-1.4-2.2c-0.9-1.5-1.7-3-2.3-4.7c-0.6-1.6-1.1-3.3-1.3-5.1c0-0.5-0.1-0.8-0.1-1.3
		c0-0.5,0.2-1.2,0.7-1.6c0.5-0.4,1.1-0.4,1.7-0.4c0.5,0.1,1,0.3,1.4,0.6c1.6,1.1,2.4,2.8,3.3,4.2c0.5,0.7,1,1.3,1.6,1.8
		c0.6,0.5,1.3,0.9,2.1,1.2c1.5,0.6,3.2,1,4.9,1.5l5,1.4c3.3,0.9,6.6,1.9,9.9,2.9l-0.2,0.7l-1.2-0.3l-1.1-0.4
		c-0.7-0.3-1.5-0.6-2.2-0.9c-1.4-0.7-2.8-1.5-4.2-2.2c-1.4-0.8-2.7-1.6-4.1-2.2c-0.7-0.3-1.4-0.6-2.1-0.9l-1.1-0.4l-1.1-0.3l-0.1,0
		l0-0.1c-0.1-1.5-0.1-3.1,0.5-4.6c0.3-0.7,0.9-1.3,1.5-1.8c0.7-0.4,1.4-0.7,2.2-0.8c1.5-0.3,3.1-0.1,4.6,0.2c1.5,0.3,3,0.8,4.4,1.4
		c2.8,1.2,5.5,2.6,8.3,3.7c2.8,1.1,5.8,1.6,8.7,2.2c1.5,0.3,3,0.7,4.4,1.1c1.5,0.4,2.9,1,4.3,1.6c2.8,1.3,5.4,2.9,7.9,4.6
		c1.3,0.8,2.6,1.7,3.5,3.1c0.8,1.4,1.1,2.9,1.7,4.3C114.5,301.8,116.2,304.3,118.4,306.4L118.4,306.4z"/>
</g>
<g>
	<path class="st1" d="M87.2,303c0,0,0.3,0.2,0.8,0.5c0.5,0.3,1.2,0.8,2.1,1.3c0.9,0.5,1.9,1,3.1,1.3c0.6,0.2,1.2,0.2,1.9,0.3
		c0.6,0,1.3,0.1,2,0.1c1.3,0,2.7-0.1,4-0.1c1.3,0,2.4,0.1,3.5,0.2c0.5,0,1,0.1,1.4,0.1c0.4,0,0.8,0.1,1.1,0.1
		c0.6,0.1,0.9,0.1,0.9,0.1l0,0.1c0,0-0.3,0.1-0.9,0.1c-0.3,0-0.7,0.1-1.1,0.1c-0.4,0-0.9,0.1-1.4,0.1c-1,0.1-2.2,0.1-3.5,0.1
		c-1.3,0-2.6-0.1-4-0.2c-0.7,0-1.4-0.1-2-0.2c-0.7-0.1-1.3-0.2-2-0.4c-1.2-0.4-2.3-1-3.2-1.5c-0.9-0.6-1.5-1.1-2-1.4
		C87.4,303.3,87.1,303,87.2,303L87.2,303z"/>
</g>
<g>
	<path class="st1" d="M79.6,293.1c0,0,0.1,0,0.4,0c0.3,0,0.6,0.1,1.1,0.2c0.9,0.3,2,0.9,3,1.5c0.5,0.3,1,0.5,1.5,0.7
		c0.5,0.2,0.9,0.4,1.3,0.6c0.4,0.2,0.7,0.2,1,0.3c0.3,0.1,0.4,0.1,0.4,0.1l0,0.1c0,0-0.1,0.1-0.4,0.2c-0.3,0.1-0.7,0.2-1.2,0.2
		c-0.5,0-1.1-0.1-1.6-0.4c-0.5-0.3-1-0.6-1.5-1c-1-0.7-1.9-1.4-2.7-1.8c-0.8-0.4-1.4-0.5-1.4-0.5L79.6,293.1z"/>
</g>
<g>
	<path class="st6" d="M160.2,363.5c0,0,0.1-0.1,0.3-0.1c0.2-0.1,0.5-0.2,0.9-0.2c0.4-0.1,0.8,0,1.3,0c0.5,0.1,1,0.2,1.4,0.5
		c0.2,0.1,0.4,0.2,0.7,0.4c0.2,0.1,0.4,0.3,0.6,0.5c0.3,0.3,0.6,0.7,0.8,1c0.2,0.3,0.3,0.6,0.4,0.8c0.1,0.2,0.1,0.3,0.1,0.3
		s-0.1-0.1-0.3-0.2c-0.2-0.1-0.4-0.3-0.6-0.6c-0.3-0.2-0.6-0.4-0.9-0.7c-0.3-0.2-0.7-0.4-1.1-0.6c-0.4-0.2-0.8-0.4-1.2-0.5
		c-0.4-0.1-0.8-0.3-1.1-0.3c-0.3-0.1-0.6-0.1-0.8-0.2C160.3,363.5,160.2,363.5,160.2,363.5z"/>
</g>
<g>
	<path class="st1" d="M99.9,248.2c0,0,0,0.2,0,0.5c0,0.3,0.2,0.6,0.4,0.9c0.1,0.2,0.3,0.3,0.5,0.5c0.2,0.2,0.4,0.4,0.7,0.6
		c0.3,0.2,0.5,0.5,0.8,0.8c0.2,0.3,0.5,0.5,0.7,0.8c0.9,1.1,1.8,2.2,2.5,3c0.3,0.4,0.6,0.7,0.9,0.9c0.2,0.2,0.3,0.3,0.3,0.3
		l-0.1,0.1c0,0-0.6-0.4-1.4-1.1c-0.8-0.7-1.8-1.8-2.8-2.7c-0.3-0.2-0.5-0.5-0.8-0.7c-0.3-0.2-0.5-0.4-0.8-0.6
		c-0.3-0.2-0.6-0.4-0.8-0.6c-0.2-0.2-0.5-0.5-0.6-0.8c-0.3-0.6-0.2-1.2,0-1.5C99.7,248.3,99.9,248.2,99.9,248.2L99.9,248.2z"/>
</g>
<g>
	<path class="st8" d="M142.2,372.2c-4.9,23.7-6.7,48.2-5.1,72.5c0.2,3.6,0.5,7.2,0.6,10.8c0.1,4.1,2.8,39.1,2.3,52.5
		c17.6,1.4,31,2.9,48.6,4.4c9.3,0.8,18.7,1.5,28,1.3c8.5-0.2,16.9-1.2,25.3-1.9c13.7-1.2,27.4-1.8,41.1-1.8
		c0.8-12.4-0.5-44.6-0.3-48.3c0.2-3.8,1.2-7.4,1.7-11.1c1.9-13.7,4.5-23.6,1-51.5c-1-7.7-15.4-32.8-18.5-32.9
		c-1.4-0.1-2,4.7-3.3,5.2c-5,2.2-10.5,2.8-15.9,3.4c-25.4,2.8-50.7,5.6-76.1,8.5c-1.5,0.2-3,0.3-4.4-0.3c-1.4-0.6-2.4-1.8-3.6-2.8
		c-3.2-2.7-7.5-3.4-11.4-4.9c-3.9-1.5-7.9-4.3-8.4-8.7"/>
	<path class="st1" d="M142.3,372.2c-0.6,2.8-1.1,5.6-1.6,8.4c-0.5,2.8-0.9,5.6-1.3,8.4c-0.4,2.8-0.7,5.6-1,8.5
		c-0.2,1.4-0.3,2.8-0.4,4.2c-0.1,1.4-0.3,2.8-0.4,4.2c-0.2,2.8-0.4,5.7-0.5,8.5c-0.1,2.8-0.2,5.7-0.2,8.5c0,2.8,0,5.7,0,8.5l0.1,4.3
		l0.2,4.3c0.2,2.8,0.3,5.7,0.6,8.5c0.2,2.8,0.4,5.7,0.5,8.5l1.1,17c0.4,5.7,0.7,11.3,0.9,17c0.2,5.7,0.5,11.4,0.3,17.1l-0.5-0.5
		c11.9,0.9,23.8,2.1,35.7,3.2c5.9,0.5,11.9,1,17.9,1.5c6,0.5,11.9,0.8,17.9,0.9c5.9,0.1,11.9-0.3,17.8-0.8
		c5.9-0.5,11.9-1.2,17.9-1.6c11.9-0.9,23.9-1.4,35.9-1.4h0l-0.8,0.8c0.3-5.8,0.2-11.7,0.2-17.6c-0.1-5.9-0.2-11.8-0.4-17.7l-0.2-8.9
		c0-1.5-0.1-2.9,0-4.5c0.1-1.5,0.3-3,0.6-4.5l0.8-4.4c0.3-1.4,0.4-2.9,0.7-4.3c0.4-2.9,0.9-5.8,1.3-8.7c0.8-5.8,1.1-11.6,1.1-17.5
		c0-5.9-0.5-11.7-1.1-17.6l-0.5-4.4l-0.1-0.5l-0.1-0.5c-0.1-0.3-0.1-0.6-0.2-1c-0.2-0.7-0.4-1.4-0.6-2c-0.9-2.7-2.2-5.4-3.4-8
		c-2.6-5.2-5.5-10.4-8.7-15.2c-0.8-1.2-1.7-2.4-2.5-3.5c-0.4-0.5-0.9-1.1-1.4-1.5c-0.2-0.2-0.5-0.4-0.6-0.5c0,0,0,0,0,0
		c0,0,0.2,0,0.1,0l-0.1,0c0,0,0.1,0,0.2,0c0.1,0,0,0,0,0c-0.3,0.3-0.6,1-0.8,1.7c-0.3,0.7-0.5,1.4-0.9,2.1c-0.2,0.4-0.4,0.8-1.2,1.2
		l-1.1,0.4c-0.7,0.3-1.4,0.5-2.2,0.8c-5.8,1.8-11.8,2.1-17.6,2.8l-35.2,3.8l-35.2,3.7c-1.5,0.1-3,0.4-4.5,0.1
		c-0.8-0.1-1.5-0.4-2.2-0.9c-0.6-0.4-1.2-1-1.7-1.5c-1-1-2.2-1.9-3.5-2.6c-1.3-0.7-2.7-1.2-4-1.7c-2.8-0.9-5.7-1.7-8.2-3.4
		c-1.2-0.8-2.4-1.8-3.3-3c-0.9-1.2-1.5-2.6-1.7-4.1l0.2,0c0.2,1.4,0.8,2.8,1.7,4c0.9,1.2,2,2.1,3.3,2.9c2.5,1.6,5.4,2.3,8.2,3.2
		c1.4,0.4,2.8,0.9,4.2,1.6c1.3,0.7,2.6,1.6,3.7,2.6c1.1,1,2.2,1.9,3.5,2.1c1.4,0.2,2.8-0.1,4.3-0.2l35.2-4.2l35.2-4.1
		c5.9-0.7,11.8-1.1,17.3-2.8c0.7-0.2,1.4-0.5,2-0.7l1-0.4c-0.1,0.1,0.1-0.2,0.3-0.4c0.3-0.5,0.5-1.2,0.8-1.9
		c0.3-0.7,0.5-1.4,1.1-2.3c0.2-0.2,0.4-0.5,0.8-0.6c0.1-0.1,0.3-0.1,0.4-0.1l0.1,0c-0.1,0,0.2,0,0.2,0c0.2,0,0.4,0.1,0.6,0.1
		c0.6,0.3,0.9,0.5,1.2,0.8c0.6,0.6,1.1,1.1,1.6,1.7c1,1.2,1.8,2.4,2.7,3.6c3.3,5,6.2,10.1,8.9,15.5c1.3,2.7,2.6,5.4,3.6,8.2
		c0.2,0.7,0.5,1.4,0.7,2.2c0.1,0.4,0.2,0.8,0.3,1.2l0.1,0.6l0.1,0.6l0.5,4.4c0.6,5.9,1.1,11.8,1.2,17.8c0.1,5.9-0.3,11.9-1.1,17.8
		c-0.4,2.9-0.9,5.9-1.3,8.8c-0.2,1.5-0.4,2.9-0.7,4.4l-0.8,4.3c-0.3,1.4-0.5,2.9-0.6,4.3c-0.1,1.4,0,2.9,0,4.3l0.2,8.8
		c0.1,5.9,0.2,11.8,0.2,17.7c0,5.9,0,11.8-0.3,17.8l0,0.8H283h0c-11.9,0-23.9,0.4-35.7,1.3c-5.9,0.4-11.9,1-17.8,1.6
		c-6,0.5-12,0.8-18,0.7c-6-0.1-12-0.5-17.9-1c-6-0.5-11.9-1-17.9-1.6c-11.9-1.1-23.8-2.3-35.7-3.3l-0.5,0l0-0.5
		c0.2-5.6,0-11.3-0.2-17c-0.2-5.7-0.5-11.3-0.8-17l-1-17c-0.1-2.8-0.2-5.7-0.4-8.5c-0.2-2.8-0.4-5.7-0.5-8.5l-0.2-4.3l-0.1-4.3
		c0-2.8,0-5.7,0-8.5c0.1-2.8,0.1-5.7,0.3-8.5c0.1-2.8,0.3-5.7,0.6-8.5c0.1-1.4,0.2-2.8,0.4-4.2c0.1-1.4,0.3-2.8,0.4-4.2
		c0.3-2.8,0.7-5.6,1.1-8.5c0.4-2.8,0.9-5.6,1.4-8.4c0.5-2.8,1-5.6,1.6-8.4L142.3,372.2z"/>
</g>
<g>
	<path class="st9" d="M147.7,348.1c-1.3-0.5-2.2,1.2-2.6,2.5c-1.7,6.2-2.8,12.5-3.3,18.9c-0.1,1.5-0.2,3.1,0.2,4.6
		c0.4,1.8,1.5,3.3,2.6,4.7c3.5,4.3,8.3,7.4,13.4,9.6c10.8,4.7,47,7.9,64.1,4.2c4.7-1,10.9-3.3,15.4-4.7c8-2.6,15.7-6.2,23.3-10.1
		c4-2,8.5-4.7,9.5-9.2c0.4-2,0.2-4-0.1-6c-1.1-6.9-1.8-9.7-4.5-16.1c-1.4,3.7-5.7,5.5-9.4,7.3c-1.6,0.8-18,11.3-26,13.6
		c-7.7,2.3-26.1,4.1-32.1,4.3c-4.2,0.1-19.7,1.9-27.3-0.1c-0.9-0.2-9-2.3-9.8-2.9c-2-1.6-10.9-8-12.7-9.9c-0.6-0.7-2.8-7.2-1.2-10.2
		"/>
	<path class="st1" d="M147.7,348.2c-0.5-0.2-0.9,0-1.3,0.3c-0.4,0.3-0.6,0.7-0.8,1.2c-0.2,0.4-0.3,0.9-0.5,1.4l-0.4,1.5
		c-0.5,1.9-0.9,3.9-1.3,5.9c-0.7,3.9-1.2,7.9-1.5,11.9c-0.1,1-0.1,2,0.1,3c0.1,1,0.5,1.9,1,2.7c0.9,1.7,2.3,3.2,3.7,4.6
		c2.8,2.8,6.2,5,9.8,6.7c1.8,0.9,3.7,1.5,5.6,2.1c1.9,0.5,3.9,1,5.8,1.3c3.9,0.7,7.9,1.3,11.9,1.7c8,0.8,16,1.2,24,1.2
		c4-0.1,8-0.2,12-0.7c2-0.2,4-0.5,5.9-0.9c1.9-0.4,3.8-1,5.8-1.5c3.8-1.2,7.6-2.5,11.4-3.8c3.8-1.3,7.5-2.8,11.1-4.5
		c3.6-1.7,7.2-3.4,10.8-5.3c1.8-0.9,3.5-1.9,5-3.1c1.5-1.2,2.8-2.6,3.4-4.3c0.7-1.7,0.6-3.6,0.4-5.5c-0.3-1.9-0.7-3.9-1-5.9
		c-0.7-3.9-2.1-7.6-3.7-11.3l1.8,0c-0.3,0.8-0.7,1.5-1.2,2.1c-0.5,0.6-1.1,1.2-1.7,1.7c-1.2,1-2.5,1.8-3.8,2.4
		c-1.3,0.7-2.7,1.3-3.9,1.9l-3.7,2.2c-2.5,1.5-5,3-7.5,4.4c-2.5,1.4-5.1,2.8-7.7,4.1c-1.3,0.6-2.6,1.2-4,1.8c-1.3,0.6-2.9,1-4.2,1.4
		c-2.9,0.7-5.7,1.2-8.6,1.6c-5.7,0.9-11.5,1.4-17.3,1.8c-1.4,0.1-2.9,0.2-4.4,0.2c-1.4,0-2.8,0.1-4.3,0.2c-2.9,0.2-5.8,0.4-8.7,0.5
		c-2.9,0.1-5.8,0.1-8.7-0.1c-1.5-0.1-2.9-0.2-4.4-0.5c-1.5-0.3-2.9-0.7-4.3-1.1c-1.4-0.4-2.8-0.8-4.2-1.2c-0.7-0.2-1.4-0.4-2.1-0.7
		c-0.3-0.1-0.7-0.3-1.1-0.4c-0.5-0.2-0.7-0.5-1-0.7l-6.8-5.3c-1.1-0.9-2.3-1.8-3.4-2.7c-0.5-0.5-1.1-0.9-1.6-1.5
		c-0.1-0.1-0.3-0.3-0.4-0.5c-0.1-0.2-0.2-0.3-0.2-0.5c-0.1-0.3-0.3-0.7-0.4-1c-0.4-1.4-0.7-2.8-0.9-4.3c-0.1-1.4-0.1-3,0.6-4.3
		l0.2,0.1c-0.6,1.3-0.6,2.8-0.4,4.2c0.2,1.4,0.5,2.8,1,4.2c0.1,0.3,0.2,0.7,0.4,1c0.1,0.2,0.1,0.3,0.2,0.5c0.1,0.1,0.1,0.2,0.3,0.4
		c0.5,0.5,1.1,0.9,1.6,1.4c1.1,0.9,2.3,1.8,3.4,2.6c2.3,1.7,4.7,3.4,7,5.1c0.3,0.2,0.6,0.5,0.8,0.6c0.3,0.1,0.6,0.2,1,0.4
		c0.7,0.2,1.4,0.4,2,0.6c1.4,0.4,2.8,0.7,4.2,1.1c1.4,0.3,2.8,0.7,4.2,0.9c1.4,0.2,2.8,0.3,4.2,0.4c2.8,0.1,5.7,0,8.6-0.1
		c2.9-0.1,5.7-0.4,8.6-0.6c1.4-0.1,2.9-0.2,4.4-0.3c1.4-0.1,2.9-0.2,4.3-0.3c5.7-0.5,11.4-1.2,17.1-2c2.8-0.4,5.7-0.9,8.4-1.6
		c1.4-0.4,2.7-0.7,4-1.3c1.3-0.5,2.6-1.1,3.9-1.7c5.1-2.5,10.1-5.4,15.1-8.3l3.8-2.2c1.4-0.7,2.6-1.2,3.9-1.9
		c2.5-1.2,4.9-2.8,5.8-5.2l0.9-2.3l0.9,2.3c0.8,1.9,1.5,3.8,2.1,5.7c0.6,1.9,1.1,3.9,1.5,5.9c0.4,2,0.7,4,1,6c0.3,2,0.3,4.3-0.5,6.4
		c-0.8,2.1-2.3,3.7-4,5c-1.7,1.3-3.5,2.3-5.3,3.2c-3.6,1.8-7.2,3.6-10.9,5.2c-3.7,1.6-7.4,3.2-11.3,4.5c-3.8,1.2-7.6,2.5-11.5,3.7
		c-1.9,0.6-3.9,1.1-5.9,1.5c-2,0.4-4,0.7-6,0.9c-4,0.4-8.1,0.6-12.1,0.6c-8.1,0-16.1-0.5-24.1-1.4c-4-0.5-8-1.1-11.9-1.8
		c-2-0.4-3.9-0.8-5.9-1.4c-1.9-0.5-3.9-1.3-5.7-2.2c-3.6-1.8-7.1-4-9.9-6.9c-1.4-1.5-2.8-3-3.7-4.8c-0.5-0.9-0.8-1.9-1-2.9
		c-0.2-1-0.1-2-0.1-3.1c0.3-4,0.8-8,1.6-12c0.4-2,0.8-3.9,1.3-5.9l0.4-1.5c0.1-0.5,0.3-1,0.5-1.4c0.2-0.5,0.5-0.9,0.9-1.3
		c0.4-0.4,1-0.5,1.5-0.3L147.7,348.2z"/>
</g>
<g>
	<path class="st10" d="M183.5,402.4c0,0,0,0.4,0.1,1.3c0.1,0.8,0.3,2,0.5,3.6c0.1,0.8,0.3,1.6,0.5,2.5c0.2,0.9,0.4,1.9,0.7,2.9
		c0.6,2.1,1.3,4.4,2.1,6.9c1.7,5,4,10.8,6.2,17.2c2.2,6.4,3.9,13.3,5.4,20.3c3.1,13.9,5.3,28.1,6.1,38.7c0.4,5.3,0.5,9.8,0.4,12.9
		c-0.1,1.6-0.1,2.8-0.2,3.6c-0.1,0.8-0.1,1.3-0.1,1.3l-0.1,0c0,0,0-0.4,0.1-1.3c0.1-0.8,0.1-2.1,0.2-3.6c0.1-3.1-0.1-7.6-0.5-12.9
		c-0.9-10.6-3.3-24.7-6.5-38.6c-0.8-3.5-1.7-6.9-2.6-10.3c-0.9-3.4-1.9-6.7-3-9.8c-1.1-3.1-2.3-6.1-3.4-9c-1.1-2.9-2.1-5.6-2.8-8.2
		c-0.8-2.6-1.5-4.9-1.9-7.1c-0.2-1.1-0.4-2.1-0.6-3c-0.1-0.9-0.3-1.8-0.4-2.6c-0.1-1.6-0.2-2.8-0.2-3.6c0-0.8,0-1.3,0-1.3
		L183.5,402.4z"/>
</g>
<g>
	<path class="st10" d="M202.5,435.9c0,0,0.5-0.3,1.5-0.8c1-0.4,2.4-1.1,4.1-1.7c1.7-0.6,3.8-1.3,6-1.8c2.2-0.5,4.7-1,7.2-1.1
		c1.3,0,2.5,0.1,3.7,0.4c1.2,0.3,2.4,0.8,3.4,1.3c1,0.5,2,1,3,1.3c1,0.4,1.9,0.6,2.8,0.8c1.8,0.4,3.3,0.5,4.3,0.6c1.1,0,1.7,0,1.7,0
		s-0.6,0.1-1.7,0.2c-1.1,0.1-2.6,0.1-4.5-0.2c-0.9-0.1-1.9-0.4-2.9-0.7c-1-0.3-2.1-0.7-3.1-1.2c-1-0.5-2.1-0.9-3.2-1.1
		c-1.1-0.2-2.3-0.3-3.5-0.3c-2.4,0.1-4.8,0.5-7,1c-2.2,0.5-4.3,1-6,1.5c-1.7,0.5-3.2,1-4.2,1.4C203.1,435.7,202.5,435.9,202.5,435.9
		z"/>
</g>
<g>
	<path class="st10" d="M248.8,386.9c0,0,0.1,0.7,0.3,2c0.2,1.3,0.6,3,1.1,5.1c1.1,4.2,3.2,9.6,5.7,14.9c1.3,2.6,2.6,5.2,3.9,7.6
		c0.6,1.2,1.3,2.4,1.8,3.5c0.6,1.1,1.1,2.1,1.7,3.1c2.1,3.8,3.5,6.4,3.5,6.4l-0.1,0.1c0,0-1.8-2.3-4.2-6c-0.6-0.9-1.2-1.9-1.8-3
		c-0.6-1.1-1.3-2.2-1.9-3.4c-1.3-2.4-2.5-5.1-3.7-7.7c-2.4-5.3-4.4-10.8-5.3-15.1c-0.5-2.1-0.8-3.9-1-5.2c-0.2-1.3-0.2-2-0.2-2
		L248.8,386.9z"/>
</g>
<g>
	<path class="st10" d="M150.6,397.4c0,0-0.3,0.1-0.2,0.4c0.1,0.3,0.5,0.6,0.9,1.1c0.9,0.9,2.2,2.2,3.8,3.7c1.5,1.6,3.3,3.4,5.2,5.4
		c1.9,2,3.9,4.1,5.9,6.2c2,2.2,3.9,4.3,5.8,6.3c1.9,2,3.5,4,5,5.6c1.5,1.6,2.6,3,3.5,4c0.8,1,1.3,1.5,1.3,1.5s-0.5-0.5-1.4-1.4
		c-0.9-0.9-2.2-2.2-3.8-3.7c-1.5-1.6-3.3-3.4-5.2-5.4c-1.9-2-3.9-4.1-5.9-6.2c-2-2.2-3.9-4.3-5.8-6.3c-1.9-2-3.5-4-5-5.6
		c-1.5-1.6-2.6-3-3.5-4c-0.4-0.5-0.8-0.9-0.8-1.2c0-0.2,0-0.3,0.1-0.4C150.6,397.4,150.6,397.4,150.6,397.4z"/>
</g>
<g>
	<path class="st10" d="M151.7,421.3c0,0,0.2,0,0.5,0c0.3,0,0.8,0.1,1.4,0.2c1.2,0.2,2.8,0.8,4.5,2c1.7,1.2,3.4,2.9,5.2,4.7
		c1.7,1.8,3.7,3.7,5.7,5.5c2,1.8,4.1,3.6,6,5.3c1.9,1.7,3.7,3.2,5.4,4.3c1.7,1.1,3.2,1.9,4.3,2.3c0.6,0.2,1,0.4,1.3,0.4
		c0.3,0.1,0.5,0.1,0.5,0.1s-0.2,0-0.5-0.1c-0.3,0-0.8-0.1-1.4-0.3c-1.1-0.3-2.8-0.9-4.5-2c-1.8-1.1-3.7-2.5-5.7-4.1
		c-2-1.6-4.1-3.4-6.1-5.2c-2-1.8-4-3.8-5.7-5.7c-1.7-1.9-3.3-3.7-4.9-4.9c-1.6-1.2-3.1-2-4.2-2.3
		C152.4,421.3,151.7,421.3,151.7,421.3z"/>
</g>
<g>
	<path class="st10" d="M146.8,434.8c0,0,0.1,0,0.2-0.1c0.1-0.1,0.3-0.2,0.6-0.2c0.5-0.1,1.3-0.2,2.2,0c0.9,0.2,1.8,0.8,2.7,1.5
		c0.4,0.4,0.9,0.7,1.3,1.1l0.6,0.6c0.2,0.2,0.4,0.4,0.7,0.5c1.7,1.4,3.8,2.4,5.3,3.1c0.8,0.3,1.5,0.6,2,0.7c0.5,0.1,0.8,0.2,0.8,0.2
		s-0.3,0-0.8,0c-0.5,0-1.2-0.1-2.1-0.3c-0.9-0.2-1.9-0.5-2.9-1c-1-0.5-2-1.1-3-1.8c-0.2-0.2-0.4-0.4-0.7-0.6l-0.6-0.6
		c-0.4-0.4-0.8-0.8-1.2-1.2c-0.8-0.7-1.5-1.3-2.3-1.6c-0.7-0.3-1.4-0.5-1.9-0.4C147.1,434.7,146.8,434.8,146.8,434.8z"/>
</g>
<g>
	<path class="st10" d="M148,460c0,0,0.1-0.1,0.4-0.3c0.2-0.2,0.6-0.5,1-0.8c0.5-0.3,1-0.7,1.7-1.1c0.7-0.4,1.4-0.8,2.3-1.2
		c0.9-0.4,1.9-0.8,2.9-1.1c1.1-0.3,2.2-0.6,3.4-0.8c1.2-0.2,2.4-0.3,3.7-0.4c1.3,0,2.6,0,3.8,0.2c2.6,0.3,5,1.1,7.3,1.8
		c2.3,0.7,4.3,1.4,6.2,1.6c1.9,0.3,3.4,0.2,4.5,0c0.5-0.1,1-0.2,1.2-0.3c0.3-0.1,0.4-0.1,0.4-0.1s-0.1,0.1-0.4,0.2
		c-0.3,0.1-0.7,0.3-1.2,0.4c-1.1,0.3-2.7,0.5-4.6,0.4c-1.9-0.1-4.1-0.6-6.4-1.3c-2.3-0.6-4.7-1.4-7.1-1.7c-2.5-0.3-5-0.3-7.3,0
		c-1.2,0.2-2.3,0.4-3.3,0.6c-1,0.3-2,0.6-2.9,0.9c-0.9,0.3-1.7,0.7-2.4,1c-0.7,0.3-1.3,0.6-1.8,0.9c-0.5,0.3-0.9,0.5-1.1,0.6
		C148.2,459.9,148,460,148,460z"/>
</g>
<g>
	<path class="st10" d="M202.1,460.6c0,0,0.2,0,0.5,0.1c0.3,0.1,0.7,0.3,1.2,0.6c1,0.6,2.3,1.7,3.7,3.2c0.7,0.7,1.4,1.5,2.3,2.2
		c0.9,0.7,1.9,1.3,2.9,2c2.2,1.2,4.6,2.2,7.2,3c2.5,0.8,5.1,1.6,7.5,2.3c2.4,0.7,4.6,1.5,6.5,2.1c1.9,0.6,3.5,1.2,4.6,1.6
		c1.1,0.4,1.7,0.6,1.7,0.6s-0.7-0.2-1.8-0.4c-1.1-0.3-2.8-0.7-4.7-1.2c-1.9-0.5-4.2-1.1-6.6-1.8c-2.4-0.7-5-1.4-7.6-2.2
		c-2.6-0.8-5.1-1.9-7.3-3.2c-1.1-0.7-2.1-1.4-3-2.2c-0.9-0.8-1.6-1.6-2.3-2.4c-0.7-0.8-1.2-1.5-1.8-2c-0.6-0.6-1.1-1-1.6-1.4
		c-0.5-0.3-0.9-0.6-1.2-0.7C202.3,460.7,202.1,460.6,202.1,460.6z"/>
</g>
<g>
	<path class="st1" d="M141.4,335.7c4.9,1.9,10,3.1,15.2,3.8c5.2,0.7,10.4,1,15.7,1.2l15.8,0.7c5.3,0.2,10.5,0.5,15.7,0.6
		c5.2,0.1,10.5,0.1,15.7-0.2c2.6-0.1,5.2-0.4,7.8-0.6c1.3-0.1,2.6-0.3,3.9-0.5l3.9-0.6l15.5-2.6c2.6-0.5,5.2-0.9,7.7-1.4
		c2.5-0.5,5.1-1.2,7.5-2l-0.4,0.3c0.2-0.3,0.5-0.6,0.7-0.7c0.2-0.2,0.2-0.2,0.4-0.3l0.9-1.2c0.6-0.8,1.1-1.6,1.6-2.5
		c0.2-0.4,0.5-0.9,0.6-1.3l0.1-0.3l0.1-0.1l0.1-0.2l0.2-0.7c0.1-0.5,0.2-0.9,0.3-1.4c0.1-0.5,0.1-1,0.2-1.5c0.2-2,0.1-4,0.2-6.1
		c0-1,0.1-2.1,0.3-3.1c0.1-0.5,0.2-1,0.4-1.5c0.1-0.5,0.3-1,0.5-1.5l0.2,0.1c-0.1,0.5-0.3,1-0.4,1.5c-0.1,0.5-0.1,1-0.2,1.5
		c-0.1,1-0.1,2-0.1,3c0.1,2,0.3,4.1,0.2,6.1c0,0.5,0,1-0.1,1.6c0,0.5-0.2,1.1-0.3,1.6l-0.2,0.7l0,0.2l-0.1,0.2l-0.1,0.4
		c-0.2,0.5-0.4,1-0.6,1.5c-0.5,1-1,1.9-1.6,2.7l-0.9,1.3c-0.1,0.2-0.5,0.6-0.7,0.7c-0.2,0.2-0.3,0.2-0.4,0.3l-0.2,0.2l-0.3,0.1
		c-5,1.8-10.2,2.9-15.4,3.9l-7.8,1.4c-2.6,0.4-5.2,0.8-7.8,1.2l-3.9,0.6c-1.3,0.2-2.6,0.3-4,0.4c-2.6,0.2-5.3,0.4-7.9,0.5
		c-5.3,0.2-10.6,0.1-15.8-0.1c-5.3-0.2-10.5-0.5-15.8-0.8l-15.7-1c-5.2-0.4-10.5-0.8-15.7-1.6c-5.2-0.8-10.4-2.1-15.2-4.1
		L141.4,335.7z"/>
</g>
<g>
	<path class="st8" d="M149.3,358.7c1.4,1.1,3.1,1.4,4.1,3.3c-1.8,1.4-2,3.6-2.3,5.8c-0.5,3.9-0.7,7.9-0.7,11.8
		c0,1.9,0.2,3.9,0.9,5.7c-1.3-0.4-2.5-1-3.5-1.8c-0.4-0.3-0.8-0.7-1-1.1c-0.2-0.4-0.3-0.8-0.3-1.3
		C145.3,373.6,146.3,365.8,149.3,358.7"/>
	<path class="st1" d="M149.3,358.7c0.7,0.5,1.6,0.8,2.4,1.3c0.8,0.4,1.5,1.1,2,1.9l0.1,0.2l-0.2,0.2c-0.7,0.6-1.2,1.4-1.5,2.3
		c-0.3,0.9-0.4,1.9-0.5,2.9c-0.2,2-0.4,4-0.5,6c-0.1,2-0.2,4-0.2,6c0,2,0.1,4,0.8,5.8l0.3,0.8l-0.8-0.3c-1.2-0.4-2.4-1-3.4-1.8
		c-0.5-0.4-1-0.8-1.4-1.5c-0.3-0.7-0.3-1.3-0.4-1.9c-0.3-2.5-0.4-5-0.2-7.5C146.1,368.2,147.3,363.3,149.3,358.7L149.3,358.7
		c-1.8,4.7-2.9,9.6-3,14.5c-0.1,2.5,0,4.9,0.4,7.4c0.1,0.6,0.1,1.2,0.4,1.7c0.2,0.5,0.7,0.8,1.2,1.2c1,0.7,2.1,1.2,3.2,1.6l-0.5,0.6
		c-0.8-2-0.9-4.1-1-6.1c-0.1-2-0.1-4,0.1-6.1c0.1-2,0.4-4,0.7-6c0.2-1,0.3-2,0.7-3c0.4-1,1-1.9,1.9-2.5l-0.1,0.4
		c-0.4-0.8-1-1.4-1.7-1.9C150.8,359.8,150,359.4,149.3,358.7L149.3,358.7z"/>
</g>
<g>
	<path class="st8" d="M207.4,370.2c1.1,1.7,1.4,2.9,1.9,4.9c1.3,5.9,2.4,13.3,2.2,19.3c0,1-5.6,1-6.6,0.5
		c-0.4-3.9-2.3-20.3-4.6-24.2C202.4,369.5,207.4,370.2,207.4,370.2z"/>
	<path class="st1" d="M207.5,370.2c0.7,1.1,1.3,2.3,1.6,3.6c0.3,1.3,0.6,2.6,0.9,3.9c0.5,2.6,1,5.2,1.3,7.8c0.3,2.6,0.5,5.3,0.6,7.9
		l0,1l0,0.1l0,0l0,0.1l0,0c0,0,0,0,0,0.1c0,0.1,0,0.1-0.1,0.2c-0.1,0.2-0.2,0.2-0.3,0.3c-0.2,0.1-0.4,0.2-0.5,0.2
		c-0.7,0.2-1.4,0.3-2,0.3c-0.7,0-1.3,0.1-2,0c-0.3,0-0.7,0-1-0.1c-0.4-0.1-0.7-0.1-1.1-0.3l-0.2-0.1l0-0.2
		c-0.5-4.1-1.1-8.2-1.7-12.2c-0.3-2-0.7-4-1.1-6.1c-0.2-1-0.4-2-0.7-3c-0.3-1-0.5-2-1-2.8l-0.2-0.3l0.3-0.1c0.3-0.2,0.6-0.3,0.9-0.4
		c0.3-0.1,0.6-0.2,0.9-0.2c0.6-0.1,1.2-0.1,1.8-0.1C205.1,369.8,206.3,369.9,207.5,370.2L207.5,370.2L207.5,370.2z M207.4,370.3
		c-1.2-0.1-2.4-0.1-3.5,0c-0.6,0-1.2,0.1-1.7,0.2c-0.3,0.1-0.6,0.1-0.8,0.2c-0.3,0.1-0.5,0.2-0.7,0.4l0.1-0.5
		c0.6,0.9,0.9,1.9,1.2,2.9c0.3,1,0.6,2,0.8,3c0.5,2,0.9,4.1,1.2,6.1c0.6,4.1,1.1,8.2,1.5,12.3l-0.2-0.3c0.2,0.1,0.5,0.2,0.8,0.2
		c0.3,0,0.6,0.1,1,0.1c0.6,0,1.3,0,1.9,0c0.6,0,1.3-0.1,1.9-0.3c0.1,0,0.3-0.1,0.4-0.1c0.1-0.1,0.1,0,0.1-0.1l0-1
		c0-2.6-0.1-5.2-0.4-7.9c-0.3-2.6-0.6-5.2-1.1-7.8c-0.2-1.3-0.5-2.6-0.8-3.9C208.6,372.6,208.1,371.4,207.4,370.3z"/>
</g>
<g>
	<path class="st8" d="M255.8,352.9c-1.9,1.2-4.1,1.6-5.4,3.6c2.4,1.5,2.7,3.9,3.1,6.4c0.7,4.3,1,8.6,0.9,13
		c-0.1,2.1-0.2,4.3-1.2,6.2c1.7-0.4,3.3-1.1,4.6-2c0.5-0.3,1-0.7,1.3-1.2c0.3-0.4,0.4-0.9,0.4-1.4
		C261,369.2,259.7,360.6,255.8,352.9"/>
	<path class="st1" d="M255.8,352.9c-0.9,0.7-1.9,1.1-2.9,1.7c-0.9,0.5-1.8,1.2-2.3,2.1l-0.1-0.5c1,0.6,1.9,1.5,2.4,2.6
		c0.5,1.1,0.7,2.2,0.9,3.3c0.4,2.2,0.7,4.4,0.9,6.7c0.2,2.2,0.2,4.5,0.1,6.7c-0.1,2.2-0.3,4.6-1.3,6.7l-0.6-0.7
		c1.3-0.3,2.6-0.8,3.8-1.4c0.6-0.3,1.2-0.7,1.6-1.1c0.4-0.4,0.6-1,0.7-1.7c0.1-0.7,0.3-1.4,0.3-2.1c0.1-0.7,0.2-1.4,0.2-2.1
		c0.1-1.4,0.1-2.8,0.1-4.2c-0.1-2.8-0.5-5.6-1.2-8.3C257.9,358.1,256.9,355.4,255.8,352.9L255.8,352.9c1.3,2.4,2.4,5,3.2,7.7
		c0.8,2.7,1.3,5.5,1.4,8.3c0.1,1.4,0.1,2.8,0,4.2c0,0.7-0.1,1.4-0.2,2.1c-0.1,0.7-0.2,1.4-0.3,2.1c-0.1,0.4-0.1,0.7-0.3,1.1
		c-0.1,0.4-0.4,0.8-0.7,1c-0.6,0.6-1.2,0.9-1.8,1.3c-1.3,0.7-2.6,1.3-4,1.6l-1.1,0.3l0.5-1c0.9-1.9,1-4.1,1-6.3
		c0-2.2-0.1-4.4-0.2-6.6c-0.2-2.2-0.4-4.4-0.7-6.6c-0.2-1.1-0.3-2.2-0.7-3.1c-0.4-1-1-1.8-1.9-2.4l-0.3-0.2l0.2-0.3
		c0.3-0.5,0.8-0.9,1.2-1.3c0.5-0.4,1-0.6,1.5-0.9c1-0.5,2.1-0.8,3-1.4L255.8,352.9z"/>
</g>
<g>
	<path class="st6" d="M247.4,234.1c0,0,0.1,0,0.3-0.1c0.2-0.1,0.5-0.2,0.8-0.3c0.3-0.2,0.7-0.4,1.1-0.7c0.4-0.3,0.8-0.7,1.1-1.2
		c0.8-1,1.5-2.2,2.3-3.6c0.4-0.7,0.9-1.4,1.5-2c0.6-0.7,1.2-1.2,1.9-1.8c1.4-1,2.9-1.8,4.2-2.6c0.7-0.4,1.3-0.8,1.8-1.3
		c0.5-0.5,1-0.9,1.4-1.4c0.8-0.9,1.2-1.9,1.3-2.6c0.1-0.4,0.1-0.6,0.1-0.8c0-0.2,0-0.3,0-0.3s0,0.1,0.1,0.3c0,0.2,0.1,0.5,0,0.9
		c0,0.7-0.3,1.9-1,2.9c-0.7,1.1-1.8,2.2-3.2,3.1c-1.3,0.9-2.8,1.7-4.1,2.7c-0.7,0.5-1.3,1-1.8,1.6c-0.5,0.6-1,1.2-1.5,1.8
		c-0.9,1.3-1.8,2.5-2.7,3.4c-0.4,0.5-0.9,0.9-1.4,1.1c-0.4,0.3-0.9,0.5-1.2,0.6c-0.4,0.1-0.6,0.2-0.8,0.2
		C247.5,234.1,247.4,234.1,247.4,234.1z"/>
</g>
<g>
	<path class="st6" d="M224.2,297.5c0,0,0.2,0,0.6,0c0.3-0.1,0.8-0.2,1.3-0.5c0.5-0.3,1.1-0.6,1.7-1.1c0.6-0.4,1.2-1,1.7-1.5
		c0.2-0.3,0.5-0.6,0.8-0.9c0.3-0.3,0.7-0.5,1-0.7c0.7-0.4,1.5-0.6,2.1-0.6c0.6-0.1,1.2,0,1.5,0.1c0.2,0,0.3,0.1,0.4,0.1
		c0.1,0,0.1,0.1,0.1,0.1s-0.2,0-0.6,0c-0.4,0-0.8,0.1-1.4,0.3c-0.6,0.2-1.2,0.4-1.7,0.8c-0.3,0.2-0.6,0.4-0.8,0.7
		c-0.2,0.2-0.5,0.5-0.8,0.9c-1.2,1.3-2.7,2.1-3.9,2.5c-0.6,0.2-1.2,0.2-1.5,0.1C224.4,297.6,224.2,297.5,224.2,297.5z"/>
</g>
<g>
	<path class="st6" d="M218.1,302.3c0,0,0.3-0.1,0.8-0.3c0.5-0.2,1.3-0.4,2.2-0.5c0.9-0.1,2-0.2,3.2-0.2c1.2,0.1,2.5,0.2,3.7,0.9
		c0.6,0.3,1,0.7,1.5,0.9c0.1,0,0.3,0.1,0.3,0.1c0.1,0,0.3,0.1,0.4,0.1c0.2,0,0.5,0,0.7,0c1-0.1,2-0.7,2.8-1c0.8-0.4,1.6-0.7,2.1-0.9
		c0.3-0.1,0.5-0.1,0.6-0.1c0.1,0,0.2,0,0.2,0s-0.3,0.1-0.8,0.4c-0.5,0.3-1.1,0.7-1.8,1.2c-0.4,0.3-0.8,0.5-1.3,0.8
		c-0.5,0.3-1,0.5-1.7,0.6c-0.3,0.1-0.7,0.1-1,0c-0.2,0-0.3-0.1-0.5-0.1c-0.2,0-0.4-0.1-0.5-0.2c-0.6-0.3-1.2-0.6-1.7-1
		c-0.9-0.5-2.1-0.8-3.2-0.9c-1.1-0.1-2.2-0.1-3.1-0.1c-0.9,0-1.7,0.1-2.2,0.2C218.4,302.3,218.1,302.3,218.1,302.3z"/>
</g>
<g>
	<path class="st6" d="M147.3,332.3c0,0,0.5,0.1,1.4,0.2c0.9,0.1,2.1,0.2,3.6,0.1c1.5-0.1,3.2-0.4,5-1c1.8-0.6,3.5-1.5,5.2-2.5
		c0.9-0.5,1.7-1,2.6-1.5c0.4-0.2,0.9-0.5,1.4-0.7c0.5-0.2,0.9-0.4,1.4-0.6c1.8-0.7,3.6-1.1,5.1-1.3c1.5-0.2,2.8-0.3,3.7-0.3
		c0.9,0,1.4,0,1.4,0s-0.5,0.1-1.4,0.2c-0.9,0.1-2.1,0.4-3.6,0.7c-1.5,0.4-3.2,0.9-4.9,1.6c-0.4,0.2-0.9,0.4-1.3,0.6
		c-0.4,0.2-0.9,0.4-1.3,0.7c-0.9,0.5-1.7,1-2.6,1.5c-0.9,0.5-1.8,1-2.7,1.5c-0.9,0.4-1.9,0.8-2.8,1.1c-1.9,0.5-3.7,0.7-5.2,0.7
		c-1.5,0-2.8-0.3-3.7-0.5c-0.4-0.1-0.8-0.2-1-0.3C147.4,332.3,147.3,332.3,147.3,332.3z"/>
</g>
<g>
	<path class="st6" d="M248.7,229.8c0,0,0.3-0.5,0.9-1.3c0.6-0.8,1.3-2,2.3-3.3c1-1.4,2-3,3-4.8c1.1-1.8,2.2-3.7,3.3-5.6
		c1.1-1.9,2.2-3.8,3.1-5.7c0.9-1.9,1.5-3.7,1.9-5.3c0.4-1.6,0.8-3,1-3.9c0.2-1,0.4-1.5,0.4-1.5s0,0.6-0.2,1.5c-0.1,1-0.3,2.4-0.6,4
		c-0.3,1.6-0.8,3.6-1.6,5.6c-0.8,2-1.9,3.9-3.1,5.9c-1.2,1.9-2.3,3.8-3.5,5.6c-0.6,0.9-1.2,1.7-1.7,2.5c-0.6,0.8-1.1,1.5-1.6,2.2
		c-1.1,1.3-2,2.3-2.6,3.1C249.1,229.4,248.7,229.8,248.7,229.8z"/>
</g>
<g>
	<path class="st0" d="M197.8,106.5c1.9,10,5.6,15.3,2.9,25.1c-0.8,3-5.4,11.2-5.1,14.2c0.7,7-0.7,11.9,0.7,18.8
		c2.1,2.9,2,15.8,2.7,19.2c6.2-9.5,25-30.8,34.3-37.3c4-2.7,13.3-6.2,13.7-11.1c1-11.9,5.3-28.9,5.5-36.3c0-0.9,1.8-2.2,1.2-2.9
		c-1-1.2-7.6,2.2-9,1.6c-14.2-5.4-29.4,6.2-44.5,6.1c-0.3,1.2-0.6,2.4-1.1,3.4"/>
	<path class="st1" d="M197.9,106.5c0.3,1.2,0.5,2.4,0.8,3.6c0.3,1.2,0.6,2.4,1,3.6c0.7,2.4,1.4,4.8,1.8,7.2c0.2,1.2,0.3,2.5,0.4,3.7
		c0,0.6,0,1.3,0,1.9c-0.1,0.6-0.1,1.3-0.2,1.9c-0.2,1.2-0.4,2.5-0.8,3.7c-0.4,1.2-0.9,2.3-1.4,3.5c-1,2.3-2,4.5-2.8,6.9
		c-0.4,1.2-0.8,2.4-0.7,3.5c0.1,1.2,0.2,2.5,0.2,3.7c0,2.5-0.1,5-0.1,7.5c0,2.5,0.2,4.9,0.7,7.3l-0.1-0.2c0.2,0.4,0.5,0.8,0.6,1.2
		c0.2,0.4,0.3,0.8,0.4,1.2c0.1,0.4,0.2,0.8,0.3,1.2c0.1,0.4,0.1,0.8,0.2,1.2c0.1,0.8,0.2,1.6,0.3,2.4c0.1,0.8,0.2,1.6,0.2,2.4
		l0.4,4.9l0.2,2.4c0.1,0.8,0.1,1.6,0.3,2.4l-1.1-0.2c1.9-2.9,4-5.6,6.1-8.3c2.1-2.7,4.3-5.3,6.6-7.9c4.5-5.2,9.1-10.2,14.1-15
		c2.5-2.4,5-4.7,7.9-6.7c3-1.9,6.1-3.3,8.8-5.2c1.3-0.9,2.6-2,3.4-3.2c0.2-0.3,0.3-0.6,0.5-0.9c0.1-0.2,0.1-0.3,0.1-0.5
		c0-0.2,0.1-0.3,0.1-0.5c0.1-0.9,0.1-1.7,0.2-2.6c0.4-3.5,0.9-6.8,1.5-10.2c0.6-3.4,1.2-6.7,1.8-10.1c0.6-3.4,1.2-6.7,1.6-10.1
		c0.1-0.8,0.2-1.7,0.2-2.5l0-0.6l0-0.2l0-0.1c0,0,0-0.2,0.1-0.3c0.1-0.3,0.1-0.4,0.2-0.5c0.3-0.5,0.6-0.8,0.8-1.2
		c0.1-0.2,0.2-0.3,0.2-0.4c0.1-0.1,0-0.1,0.1,0.1c0,0,0,0.1,0.1,0.1c0,0,0.2,0.3,0.1,0.1l0,0l-0.1-0.1c0,0.1,0.1,0.1,0.2,0.1l0,0
		c0,0-0.2,0-0.3,0c-0.7,0-1.5,0.3-2.3,0.5l-2.4,0.8c-0.9,0.2-1.7,0.5-2.8,0.6c-0.2,0-0.3,0-0.5,0c-0.1,0-0.2,0-0.3-0.1l-0.1,0
		l-0.6-0.2l-1.2-0.4c-0.8-0.3-1.6-0.4-2.4-0.5c-3.2-0.5-6.6-0.3-9.9,0.3c-3.3,0.6-6.6,1.5-9.9,2.4c-3.3,0.9-6.6,2-9.9,2.7
		c-3.4,0.7-6.8,1.3-10.2,1.2l0.2-0.2c-0.3,1.1-0.7,2.3-1.2,3.4l-0.2-0.1c0.4-1.1,0.7-2.3,1-3.4l0-0.2l0.2,0c3.4-0.1,6.7-0.7,10-1.6
		c3.3-0.9,6.5-2,9.8-3c3.3-1.1,6.5-2.1,10-2.8c3.4-0.7,6.9-1,10.5-0.5c0.9,0.2,1.8,0.3,2.6,0.5l1.2,0.4l0.6,0.2l0.1,0
		c0.2,0.1,0.1,0,0.1,0l0,0c0,0,0,0,0,0c0,0,0.1,0,0.1,0c0.6,0,1.5-0.3,2.2-0.5l2.4-0.8c0.8-0.3,1.7-0.5,2.7-0.6c0.3,0,0.6,0,0.9,0
		c0.1,0,0.2,0.1,0.3,0.1c0.2,0.1,0.3,0.2,0.5,0.3l0.1,0.1l0,0c-0.1-0.1,0.2,0.2,0.2,0.2c0.1,0.1,0.2,0.3,0.2,0.4
		c0.2,0.6,0,1.1-0.1,1.4c-0.1,0.3-0.3,0.5-0.4,0.7c-0.3,0.4-0.5,0.7-0.6,1c0,0-0.1,0.2,0,0.1c0,0,0-0.1,0,0l0,0.1c0,0,0,0.1,0-0.1
		l0,0l0,0.7c0,0.9-0.1,1.8-0.2,2.6c-0.4,3.4-1,6.8-1.6,10.2l-1.8,10.1c-0.6,3.4-1.1,6.7-1.6,10.1c-0.1,0.8-0.2,1.7-0.3,2.5
		c0,0.2-0.1,0.5-0.1,0.7c-0.1,0.3-0.1,0.5-0.2,0.8c-0.2,0.5-0.4,1-0.7,1.3c-1.1,1.6-2.5,2.8-4,3.8c-2.9,2-6.1,3.4-8.9,5.1
		c-2.7,1.8-5.3,4.1-7.8,6.4c-5,4.7-9.6,9.6-14.2,14.7c-2.3,2.5-4.5,5.2-6.6,7.8c-2.1,2.6-4.2,5.3-6.1,8.2l-0.9,1.3l-0.3-1.6
		c-0.1-0.9-0.2-1.7-0.3-2.5L198,179l-0.3-4.9c-0.1-0.8-0.1-1.6-0.2-2.4c-0.1-0.8-0.2-1.6-0.3-2.4c-0.1-0.4-0.1-0.8-0.2-1.2
		c-0.1-0.4-0.1-0.8-0.2-1.2c-0.1-0.4-0.2-0.8-0.3-1.1c-0.1-0.4-0.3-0.7-0.5-1l-0.1-0.1l0-0.1c-0.5-2.5-0.7-5-0.6-7.5
		c0-2.5,0.2-5,0.2-7.4c0-1.2-0.1-2.4-0.2-3.7c-0.1-1.4,0.4-2.6,0.8-3.8c0.8-2.4,1.9-4.6,2.9-6.9c0.5-1.1,1-2.3,1.4-3.4
		c0.4-1.2,0.6-2.4,0.8-3.6c0.1-0.6,0.1-1.2,0.2-1.8c0-0.6,0.1-1.2,0.1-1.8c0-1.2-0.1-2.5-0.3-3.7c-0.4-2.4-1.1-4.8-1.7-7.2
		c-0.3-1.2-0.6-2.4-0.9-3.6c-0.3-1.2-0.6-2.4-0.8-3.6L197.9,106.5z"/>
</g>
<path class="st11" d="M180.4,27.6c-5.2,11-6.6,23.7-4,35.5c0.6-0.7,1-1.7,1-2.6c0.1,4,0.8,8,2.2,11.8c0.3-6.3-0.7-12.6-0.5-18.9
	c0.4-8.1,2.9-16.1,1.6-24.1"/>
<g>
	<path class="st0" d="M264.1,88.2c-2.4,7.8-5,15.7-10.2,22.2c-7,8.5-17.8,13-28.2,17.1c-7,2.8-15.3,5.7-22.2,2.4
		c-4.5-2.1-7.3-6.2-9.9-10.2c-2.7-4-5.3-8-8-12c-3.3-4.8-6.5-9.9-7-15.6c-0.4-4.7,1.3-9.3,1.6-14.1c0.5-7-1.9-13.8-2.4-20.8
		c-0.8-11.5,3.4-22.8,7.5-33.6c21.6-14.5,51.7-14.9,73.5-0.7c5,3.3,9.6,7.3,12.2,12.4c2.5,4.8,3.4,10.4,3.5,16
		c0.2,13.7-3.1,27.5-10.1,39.6"/>
</g>
<path class="st1" d="M264.1,88.2c-1.2,3.9-2.4,7.9-4,11.6c-1.6,3.8-3.5,7.5-6.2,10.7c-1.3,1.6-2.8,3-4.4,4.4c-1.6,1.3-3.3,2.5-5,3.8
	c-3.5,2.3-7.1,4.1-10.9,5.8c-3.8,1.7-7.5,3.3-11.4,4.7s-7.9,2.7-12.1,2.7c-2.1,0-4.2-0.4-6.2-1.1c-1.9-0.7-3.8-1.9-5.3-3.4
	c-3-2.9-5.2-6.5-7.5-9.8l-6.9-10.2c-2.3-3.4-4.5-7-5.7-11c-0.6-2.1-0.8-4.1-0.8-6.3c0.1-2.1,0.5-4.1,0.8-6.2c0.4-2.1,0.7-4,0.8-6.1
	c0.1-2.1,0-4-0.2-6.1c-0.5-4-1.5-8-1.9-12.1c-0.5-4.1-0.5-8.4,0.2-12.5c0.6-4.1,1.7-8.1,2.9-12c1.2-3.9,2.8-7.8,4.2-11.6l0.1-0.2
	l0.1-0.1l4.1-2.7l4.2-2.2l4.5-1.9c1.5-0.5,3-1.1,4.6-1.6c1.6-0.5,3.1-0.8,4.6-1.2c1.6-0.4,3.1-0.6,4.7-0.8c1.6-0.2,3.1-0.4,4.8-0.6
	c1.6-0.1,3.1-0.1,4.8-0.2c1.6,0,3.3,0,4.8,0.1c1.6,0.1,3.1,0.2,4.8,0.4c1.6,0.1,3.1,0.5,4.7,0.7c1.6,0.2,3.1,0.7,4.7,1.1
	c1.6,0.4,3,1,4.6,1.5s3,1.2,4.5,1.7c2.9,1.3,5.8,2.8,8.5,4.5c2.8,1.7,5.3,3.6,7.6,5.8c2.3,2.2,4.4,4.7,5.8,7.6s2.3,6.1,2.8,9.2
	c0.5,3.1,0.5,6.4,0.5,9.6c-0.1,6.4-1.2,12.7-2.9,18.9s-4.2,12.1-7.4,17.6c3-5.6,5.5-11.5,7.1-17.7s2.5-12.5,2.5-18.9
	c0-3.1-0.1-6.3-0.6-9.4c-0.5-3.1-1.3-6.2-2.8-9c-1.5-2.8-3.4-5.2-5.7-7.4c-2.3-2.2-4.8-4-7.6-5.7c-2.7-1.7-5.5-3.1-8.4-4.4
	c-1.5-0.6-2.9-1.2-4.5-1.7c-1.6-0.5-3-1-4.6-1.3c-1.6-0.4-3-0.7-4.6-1.1c-1.6-0.2-3.1-0.6-4.7-0.7c-1.6-0.1-3.1-0.4-4.7-0.4
	c-1.6,0-3.1-0.1-4.7-0.1c-1.6,0.1-3.1,0.1-4.7,0.2c-1.6,0.2-3.1,0.4-4.7,0.6c-1.6,0.4-3.1,0.6-4.6,0.8c-1.6,0.4-3,0.7-4.6,1.2
	c-1.5,0.5-3,1-4.5,1.6l-4.4,1.8l-4.2,2.2l-4,2.5l0.2-0.2c-2.9,7.6-5.8,15.4-7,23.4c-0.6,4-0.7,8.1-0.2,12.1c0.5,4,1.5,8,1.9,12.1
	c0.2,2.1,0.4,4.1,0.2,6.3c-0.1,2.1-0.5,4.1-0.8,6.2c-0.4,2.1-0.7,4-0.8,6.1c-0.1,1.9,0.1,4,0.7,5.9c1.1,3.9,3.3,7.3,5.6,10.8
	l6.8,10.3c2.3,3.4,4.4,6.9,7.3,9.8c1.5,1.3,3,2.5,5,3.3c1.8,0.7,3.9,1.1,5.8,1.1c4,0,8-1.1,11.9-2.5c3.9-1.5,7.6-2.9,11.4-4.6
	c3.8-1.7,7.4-3.4,10.9-5.6c1.7-1.1,3.4-2.3,5-3.6c1.6-1.3,3-2.8,4.4-4.4c2.7-3.1,4.6-6.8,6.3-10.5C261.5,96,262.7,92.1,264.1,88.2z"
	/>
<path class="st12" d="M216.9,69.4c1.6-1.3,3.1-2.1,5.1-3c0.5-0.2,1.6-0.6,2.2-0.7c1.5-0.6,2-0.6,2.5-0.6c2.5-0.2,3.1-0.7,5.5-0.5
	c1,0.1,2.3,0.5,3.3,0.6c2.3,0.5,4.1,1.7,5.8,2.8c0.1,0.1,0.2,0.2,0.2,0.4c0,0.1-0.1,0.2-0.2,0.4c-1.8,1.6-3.9,3-6.2,4.1
	c-0.8,0.4-1.7,0.7-2.7,1c-1.2,0.2-2.4,0.4-3.8,0.5C222.4,74.7,216.1,70.5,216.9,69.4z"/>
<g>
	<path class="st13" d="M217.4,68.8c0,0,0.5-0.8,1.5-1.9c1-1.1,2.4-2.4,4.1-3.4c0.8-0.5,1.7-0.8,2.7-1.1c0.8-0.2,1.8-0.2,2.5-0.2
		c1.5,0,2.4,0.1,2.4,0.1l0,0c0,0-0.2,0-0.6,0.1c-0.4,0-1,0.1-1.7,0.2c-0.7,0.1-1.6,0.2-2.4,0.4c-0.8,0.1-1.7,0.5-2.5,1
		c-1.7,0.8-3.1,2.1-4.2,3C218,68,217.4,68.8,217.4,68.8L217.4,68.8z"/>
</g>
<g>
	<path class="st2" d="M198.5,184.7c4.8-8.7,9.9-21,11.8-30.7c4.9-0.7,9.3-3,13.6-5.4c5.7-3.2,11.2-6.6,16.6-10.3
		c3.2-2.2,6.5-4.7,7.6-8.4c1.1-3.7-1.6-8.6-5.4-8.2c4.1,0,7.1,3.7,9.4,7.1c4.4,6.5,8.8,13.7,16.1,16.7c-9.4-1.9-19.3,0-28.1,3.7
		s-16.8,9.2-24.6,14.9c-1.3-3.4-3.2-6.5-5.6-9.3c-3.1,10-6.6,20.7-11.2,30.2"/>
	<path class="st1" d="M198.4,184.7c2.6-4.8,4.9-9.8,6.9-15c2-5.1,3.6-10.4,4.7-15.7l0-0.2l0.2,0c4.7-0.8,8.9-2.9,13.1-5.3
		c4.1-2.3,8.2-4.8,12.2-7.4c2-1.3,4-2.6,5.9-4c1.9-1.4,3.7-2.9,5-4.8c0.6-0.9,1.1-2,1.3-3c0.2-1,0.1-2.2-0.3-3.2c-0.4-1-1-2-1.7-2.6
		c-0.8-0.7-1.8-1-2.8-0.9l-0.1-1.4c0.8,0,1.6,0.1,2.4,0.4c0.8,0.3,1.5,0.6,2.2,1.1c1.3,0.9,2.4,2,3.4,3.2c1,1.2,1.8,2.5,2.7,3.7
		c0.8,1.2,1.7,2.5,2.5,3.7c1.7,2.4,3.5,4.8,5.6,6.8c0.5,0.5,1,1,1.6,1.5c0.5,0.5,1.1,0.9,1.7,1.3c0.6,0.4,1.2,0.8,1.8,1.1
		c0.6,0.4,1.3,0.6,1.9,0.9l6.6,3l-7.1-1.2l-1.7-0.3l-1.7-0.2l-1.8-0.1l-1.8,0l-1.8,0l-1.8,0.1l-1.8,0.2l-1.7,0.2
		c-1.2,0.2-2.3,0.4-3.5,0.7c-1.1,0.3-2.3,0.6-3.4,0.9c-1.1,0.3-2.2,0.7-3.4,1.1c-1.1,0.4-2.2,0.8-3.3,1.3l-1.7,0.7l-1.6,0.7
		c-1.1,0.5-2.1,1-3.2,1.6c-2.1,1.1-4.1,2.3-6.2,3.6c-2,1.3-4,2.5-6,3.9c-2,1.3-3.9,2.7-5.9,4.1l-1,0.7l-0.4-1.1
		c-1.3-3.3-3.1-6.4-5.4-9.1l1.4-0.3c-1.7,5.1-3.4,10.2-5.3,15.2c-1,2.5-2,5-3.1,7.5c-0.5,1.2-1.1,2.5-1.7,3.7
		c-0.6,1.2-1.2,2.4-1.8,3.6l-0.2-0.1c1.1-2.4,2.1-4.9,3.1-7.4c1-2.5,1.8-5,2.7-7.6c1.7-5.1,3.2-10.2,4.7-15.4l0.4-1.4l1,1.1
		c2.5,2.8,4.5,6,5.9,9.5l-1.4-0.4c3.9-2.9,7.8-5.7,11.9-8.3c2-1.3,4.1-2.5,6.3-3.7c1.1-0.6,2.2-1.1,3.2-1.7c1.1-0.5,2.2-1,3.3-1.5
		c1.2-0.5,2.3-0.9,3.4-1.3c1.2-0.4,2.3-0.8,3.5-1.1c1.2-0.3,2.4-0.6,3.6-0.9c1.2-0.3,2.4-0.5,3.6-0.6l1.8-0.2l1.8-0.2l1.8-0.1l1.8,0
		l1.8,0.1l1.8,0.2l1.8,0.2l1.8,0.3l-0.5,1.8c-0.7-0.3-1.4-0.6-2.1-1c-0.7-0.4-1.3-0.8-2-1.2c-0.6-0.5-1.2-0.9-1.8-1.4
		c-0.6-0.5-1.1-1-1.7-1.6c-2.1-2.2-4-4.6-5.7-7.1c-0.9-1.2-1.7-2.5-2.5-3.7c-0.8-1.3-1.6-2.5-2.5-3.6c-0.9-1.1-1.9-2.1-3.1-2.9
		c-0.6-0.4-1.2-0.7-1.8-0.9c-0.6-0.2-1.3-0.3-2-0.3l-0.1-1.4c1.4-0.2,2.8,0.4,3.8,1.3c1,0.9,1.7,2,2.1,3.3c0.4,1.2,0.5,2.5,0.3,3.9
		c-0.3,1.3-0.8,2.4-1.5,3.5c-1.4,2.1-3.4,3.7-5.3,5c-2,1.4-4,2.7-6,4c-4,2.6-8.1,5-12.3,7.3c-2.1,1.1-4.2,2.2-6.5,3.2
		c-2.2,0.9-4.5,1.6-6.9,2l0.3-0.3c-1.1,5.4-2.9,10.7-4.9,15.8c-2.1,5.1-4.4,10.1-7.1,14.9L198.4,184.7z"/>
</g>
<g>
	<path class="st13" d="M241.7,68.5c0,0,0,0.2,0.1,0.7c0.1,0.5,0.1,1.1,0,1.7c0,0.4-0.1,0.6-0.2,0.8c-0.1,0.2-0.2,0.5-0.4,0.7
		c-0.2,0.4-0.5,0.6-0.5,0.6l0,0c0,0,0-0.4,0.1-0.7c0-0.2,0.1-0.5,0.2-0.7c0.1-0.2,0.2-0.5,0.4-0.8c0.2-0.6,0.2-1.1,0.2-1.6
		C241.7,68.8,241.7,68.6,241.7,68.5L241.7,68.5z"/>
</g>
<g>
	<path class="st13" d="M199.4,62.3c0,0,0.1,0.1,0.2,0.5c0.1,0.2,0.5,0.7,0.7,1.3c0.6,1.1,1.3,2.9,1.6,5.1c0.2,2.2-0.2,4.8-0.7,7.5
		c-0.2,1.3-0.6,2.8-1.1,4.1s-1.1,2.8-1.7,4.1c-1.2,2.7-2.8,5.2-4.4,7.5c-0.8,1.1-1.6,2.2-1.9,3.3c-0.1,0.2-0.1,0.5-0.2,0.8
		c0,0.2,0,0.5,0,0.7c0,0.5,0.1,1.1,0.4,1.5c0.4,1,1,1.6,1.7,2.1c0.7,0.4,1.5,0.6,2.1,0.6s1.1-0.1,1.5-0.1c0.4-0.1,0.5-0.1,0.5-0.1
		v0.1c0,0-0.1,0.1-0.5,0.2c-0.4,0.1-0.8,0.4-1.5,0.4c-0.6,0.1-1.5,0-2.4-0.4c-0.8-0.4-1.8-1.2-2.3-2.2c-0.2-0.5-0.5-1.2-0.5-1.8
		c0-0.4,0-0.6,0-1c0-0.2,0.1-0.7,0.2-1c0.4-1.3,1.3-2.4,2.1-3.5c1.6-2.2,3.1-4.6,4.5-7.3c0.6-1.3,1.2-2.5,1.7-3.9s0.8-2.7,1.2-4
		c0.6-2.7,1.1-5.2,1-7.4c-0.1-2.2-0.7-3.9-1.3-5.1c-0.2-0.6-0.5-1-0.7-1.3C199.4,62.5,199.3,62.4,199.4,62.3L199.4,62.3z"/>
</g>
<g>
	<path class="st13" d="M200.2,100.8c0,0,0,0-0.1,0s-0.2-0.1-0.4-0.4s-0.2-0.5-0.1-0.8c0.1-0.4,0.5-0.6,0.8-0.6c0.4,0,0.8,0,1.2,0.2
		c0.4,0.1,0.7,0.5,1.1,0.8c0.6,0.6,1.2,1.3,1.8,1.5h0.1l0,0l0,0c-0.1,0,0,0,0,0l0,0l0,0h0.1c0.1,0,0.1,0,0.2,0
		c0.1,0,0.2-0.1,0.4-0.2c0.2-0.2,0.5-0.5,0.6-0.7c0.4-0.6,0.6-1.3,0.6-1.8c0.1-0.6,0-1.1-0.1-1.5c-0.1-0.4-0.2-0.5-0.2-0.5l0.1-0.1
		c0,0,0.2,0.1,0.6,0.4c0.4,0.2,0.7,0.8,0.7,1.7c0.1,0.7,0,1.7-0.6,2.5c-0.2,0.4-0.6,0.8-1.2,1.1c-0.2,0.1-0.5,0.2-0.8,0.2
		c-0.1,0-0.4,0-0.5,0h-0.1l0,0l0,0l0,0h-0.1c-1.1-0.4-1.7-1.3-2.2-1.9c-0.5-0.6-1.1-1.1-1.7-1c-0.2,0-0.5,0.1-0.6,0.4
		c-0.1,0.2-0.1,0.4,0,0.6C200,100.7,200.2,100.7,200.2,100.8L200.2,100.8z"/>
</g>
<g>
	<path class="st13" d="M197.6,108.5c0,0,0.1,0.1,0.2,0.2c0.1,0.1,0.4,0.2,0.7,0.5c0.6,0.4,1.7,0.6,2.9,0.6s2.7-0.1,4.4-0.1
		c1.6-0.1,3.3-0.2,4.8-0.6l0.2-0.1c0,0,0.1,0,0.2-0.1l0.6-0.2c0.4-0.1,0.8-0.2,1.2-0.4c0.8-0.2,1.6-0.5,2.3-0.7
		c1.6-0.5,2.9-1,4.2-1.3c1.2-0.4,2.2-0.8,2.9-1.1c0.7-0.2,1.1-0.5,1.1-0.5s-0.1,0.1-0.2,0.2c-0.1,0.1-0.4,0.4-0.6,0.6
		c-0.6,0.5-1.5,1.2-2.5,1.9c-1.1,0.7-2.5,1.5-4,2.1c-0.7,0.4-1.5,0.7-2.4,1c-0.4,0.1-0.8,0.2-1.2,0.5l-0.6,0.2c-0.1,0-0.1,0-0.4,0.1
		l-0.4,0.1c-1.8,0.5-3.8,0.5-5.3,0.4c-0.8,0-1.6-0.1-2.4-0.2c-0.7-0.1-1.5-0.2-2.2-0.4c-1.3-0.4-2.4-1-2.9-1.6
		c-0.2-0.2-0.5-0.6-0.6-0.7C197.6,108.6,197.6,108.5,197.6,108.5z"/>
</g>
<g>
	<path class="st13" d="M226.9,100.2c0,0,0.2,0.1,0.5,0.5c0.2,0.2,0.5,0.7,0.7,1.1c0.4,0.8,0.5,1.8,0.5,1.8s-0.1,0-0.1-0.1
		c-0.1-0.1-0.2-0.2-0.2-0.4c-0.2-0.2-0.5-0.7-0.7-1.1c-0.2-0.5-0.4-0.8-0.4-1.2c0-0.1,0-0.4-0.1-0.5
		C226.9,100.2,226.9,100.2,226.9,100.2z"/>
</g>
<g>
	<path class="st13" d="M204.5,116.9c0,0,0.2,0,0.5,0.1s0.9,0.1,1.4,0.2c0.5,0.1,1.2,0.1,2.1,0.2c0.7,0,1.5,0,2.2,0
		c0.9,0,1.5-0.1,2.2-0.2c0.7-0.1,1.4-0.2,1.9-0.4c0.5-0.1,1-0.2,1.4-0.4c0.3-0.1,0.5-0.1,0.5-0.1s-0.5,0.4-1.7,0.8
		c-1,0.5-2.7,0.7-4.3,0.8c-0.9,0-1.7,0-2.4-0.1c-0.7-0.1-1.5-0.2-2.1-0.4c-0.5-0.1-1-0.4-1.4-0.5
		C204.6,116.9,204.5,116.9,204.5,116.9z"/>
</g>
<path class="st14" d="M211.9,63.1c-0.7,0.7,3.4,1.6,4.4,1.3c0.5-0.1,7.6-2.8,14.9-3.5c6.7-0.6,13.7,0.8,15.5,1.4
	c-4.1-2.7-8.5-5-13-6.9c-0.4-0.1-0.7-0.4-1.2-0.4c-1-0.1-9.8,3.3-13.3,4.7C216.9,60.7,211.9,63.1,211.9,63.1z"/>
<path class="st15" d="M224.6,65.7c-1.6,1.5-1.8,4.4-0.4,6.1c1.2,1.5,3.1,1.9,5,1.9c0.4,0,0.7,0,1.1-0.2c0.4-0.1,1.1-0.4,1.5-0.7
	c0.8-0.7,0.7-0.6,1.2-1.8c0.4-0.8,0.4-1.7,0.4-2.5c0-0.6,0-1.3-0.2-1.8c-0.4-1-1.3-1.5-2.3-1.7c-1-0.2-1.9-0.1-3,0
	C226.9,65,224.6,65.3,224.6,65.7"/>
<path class="st12" d="M198.7,69.1c-1.1-1.3-2.3-3.3-3.8-4.3c-0.4-0.2-0.8-0.6-1.2-0.7c-0.5-0.2-1.1-0.6-1.7-0.6
	c-1.9-0.2-3.4-0.1-5,0.2c-0.7,0.1-1.8,0.2-2.5,0.4c-1.7,0.4-3,1.7-4.4,2.9c-0.1,0.1,0.2,0.5,0.2,0.6c0,0.1,0.1,0.4,0.2,0.5
	c1.3,1.6,1.9,1.8,3.6,2.9c0.6,0.4,1.6,0.8,2.3,1c0.8,0.2,1.8,0.4,2.8,0.5C193.9,72.9,199.3,70.2,198.7,69.1z"/>
<g>
	<path class="st13" d="M197.8,67.9c0,0-0.4-0.7-1.1-1.7c-0.7-1-1.7-2.2-2.9-3.1c-0.6-0.5-1.2-0.8-1.9-1.1c-0.6-0.2-1.3-0.4-1.9-0.5
		c-1.2-0.1-1.9-0.2-1.9-0.2l0,0c0,0,0.7-0.1,1.9,0c0.6,0,1.3,0.1,2.1,0.4c0.7,0.2,1.3,0.7,1.9,1.3c1.2,1.1,2.2,2.3,2.8,3.3
		C197.6,67.1,197.8,67.9,197.8,67.9L197.8,67.9z"/>
</g>
<path class="st15" d="M191.7,63.4c-1.9,0-3.6,1.7-3.6,3.6c0,1.6,0.8,3,2.2,4.1c0.2,0.2,0.5,0.4,0.8,0.5c0.2,0.1,1,0.4,1.3,0.4
	c1,0,0.8,0,1.9-0.5c0.7-0.4,1.2-0.8,1.7-1.5c0.4-0.4,0.7-0.8,0.8-1.3c0.2-0.8,0-1.7-0.5-2.4s-1.2-1.3-1.9-1.8
	c-0.6-0.5-2.3-1.2-2.4-1.1"/>
<circle class="st12" cx="230.9" cy="66.9" r="1.3"/>
<circle class="st12" cx="195.3" cy="67.4" r="1.3"/>
<g>
	<path class="st14" d="M256.2,107.7c4.4-7.2,9.5-14.1,14.9-20.3c1.2-1.4,2.4-2.7,3.5-4.2c3.7-5.6,4.5-13,4.7-19.9
		c0.3-8.7,0-17.7-2.9-25.7c-2.9-8-9-15-16.4-16.3c-3.5,3.7-7.4,7.1-10,11.7c-2.6,4.6-4.1,10.1-3.1,15.5c0.3,2.1,1.1,4.1,1.9,6
		c1.2,2.7,2.8,5.4,5.1,7.1c2.3,1.7,5.2,2.5,7.7,1.2c1.4,15.3-0.8,31.2-6,45.4"/>
	<path class="st16" d="M256.2,107.7c4.3-7.2,9.2-14.1,14.6-20.4c1.3-1.6,2.7-3.1,3.8-4.9c1.1-1.7,1.9-3.7,2.5-5.7
		c1.2-4.1,1.6-8.5,1.7-12.8s0.2-8.7-0.2-13.1c-0.3-4.4-1.2-8.6-2.6-12.6c-0.8-2-1.6-3.9-2.7-5.7c-1.1-1.7-2.3-3.4-3.7-4.9
		c-2.7-2.9-6.2-5-9.8-5.7l0.5-0.1c-3.1,3.2-6.5,6.2-9,10c-1.2,1.9-2.3,4-3,6.1c-0.8,2.1-1.2,4.5-1.3,6.9c-0.1,2.4,0.3,4.6,1,6.9
		c0.8,2.2,1.7,4.4,2.9,6.2c1.2,1.9,2.7,3.5,4.5,4.5c1.8,0.9,3.9,1.1,5.7,0.2l0.5-0.2v0.6l0.2,2.9l0.1,2.9v2.9v2.9l-0.1,2.9l-0.2,2.9
		l-0.3,2.9l-0.3,2.9l-0.4,2.9l-0.5,2.9l-0.6,2.9l-0.6,2.7l-0.8,2.7l-0.9,2.7l-0.9,2.7l-1,2.6l1-2.7l0.9-2.7l0.8-2.7l0.6-2.7l0.6-2.7
		l0.5-2.9l0.4-2.9l0.4-2.9l0.3-2.9l0.2-2.9l0.2-2.9l0.1-2.9v-2.9l-0.1-2.9l-0.1-2.9l-0.2-2.9l0.5,0.4c-1,0.5-2.2,0.7-3.2,0.6
		c-1.1,0-2.2-0.4-3.2-0.9c-2.1-1-3.7-2.7-5-4.7c-1.3-2-2.3-4.2-3-6.5c-0.8-2.2-1.2-4.9-1.1-7.4s0.5-5,1.4-7.2
		c0.8-2.2,1.8-4.5,3.1-6.5c2.6-4,6-6.9,9.1-10.1l0.2-0.2h0.3c3.9,0.7,7.4,3,10.4,6.1c1.4,1.5,2.7,3.2,3.8,5.1c1.1,1.9,2.1,3.9,2.8,6
		c1.5,4.1,2.3,8.6,2.6,13c0.3,4.5,0.3,8.9,0.1,13.3c-0.2,4.4-0.6,8.9-1.9,13.1c-0.6,2.1-1.5,4.1-2.7,6s-2.6,3.4-3.9,4.9
		C265.7,93.8,260.7,100.5,256.2,107.7z"/>
</g>
<path class="st0" d="M260.2,62.9c1.4-0.8,2.8-1.7,4.2-2.5c2.7-1.6,6-3.3,8.9-2.2c2.6,0.8,3.8,3.5,4.5,5.9c1.5,5.9,0.3,12.4-3.3,17.6
	c-3.5,5.2-9.3,9.1-15.8,10.7"/>
<path class="st1" d="M260.2,62.9c0,0,0.8-0.5,2.2-1.5c0.7-0.5,1.6-1,2.6-1.7c0.9-0.6,2.2-1.3,3.7-1.8c1.5-0.5,3.3-0.8,5-0.1
	c1.8,0.6,3.1,2.1,3.9,3.6c0.4,0.8,0.7,1.7,0.9,2.5c0.1,0.8,0.4,1.7,0.5,2.7c0.3,1.8,0.3,3.6,0,5.5c-0.5,3.6-1.9,7.1-3.9,10.1
	c-0.9,1.5-2.2,2.8-3.4,3.9c-1.2,1.1-2.4,2.1-3.8,2.8c-2.4,1.6-4.9,2.4-6.5,2.9c-0.8,0.2-1.5,0.4-1.9,0.5c-0.4,0.1-0.7,0.1-0.7,0.1
	s0.9-0.2,2.6-0.8c1.6-0.6,3.8-1.7,6.1-3.3c1.2-0.8,2.3-1.8,3.5-2.9c1.1-1.1,2.2-2.4,3.1-3.8c1.9-2.8,3.1-6.2,3.7-9.6
	c0.3-1.7,0.3-3.5,0.1-5.2c-0.1-0.8-0.3-1.7-0.4-2.5c-0.1-0.7-0.4-1.6-0.8-2.3c-0.7-1.5-1.8-2.7-3.1-3.3c-1.4-0.6-3-0.4-4.3,0
	c-1.4,0.4-2.6,1-3.7,1.6c-1.1,0.6-1.9,1.1-2.7,1.5C261.1,62.4,260.2,62.9,260.2,62.9z"/>
<path class="st0" d="M268.1,85.4c0.6-1.5,1.3-3,2.7-3.9c0.5-0.4,1.1-0.6,1.6-1c0.5-0.5,0.7-1.1,1.1-1.7c0.5-1.1,1-2.2,1.5-3.3
	s1-2.2,1-3.3c0-0.8-0.2-1.6-0.5-2.4c-0.5-1.8-1.1-3.6-1.6-5.5c-0.2-1-0.6-1.9-1.3-2.5c-0.8-0.7-2.1-0.7-3-0.4
	c-3.5,1.1-5.6,4.7-7.1,8.2c-0.4,0.7-0.7,1.6-0.8,2.4c-0.1,0.8,0,1.6,0.1,2.4c0.2,1.7,2.8,1.7,3.5,3.3c0.2,0.6-2.9,6.7-4.2,7.6
	c0.7,1.3,2.4,2.7,3.8,2.5c1.3-0.1,2.7-1,3.4-2.3"/>
<path class="st13" d="M268.1,86.5c0.5-1.2,0.8-2.3,1.7-3.4c0.8-1.1,2.3-1.3,2.8-2.4s1-2.3,1.5-3.4c0.5-1.2,1-2.3,1.2-3.4
	c0.1-1.1-0.2-2.2-0.6-3.4c-0.4-1.2-0.7-2.4-1.1-3.6c-0.4-1.2-0.6-2.4-1.2-3.3c-0.6-0.7-1.8-0.8-2.8-0.5c-0.6,0.2-1.1,0.5-1.6,0.7
	c-0.5,0.4-1,0.7-1.3,1.1c-0.8,0.8-1.6,1.8-2.2,2.9s-1.2,2.2-1.7,3.3c-0.6,1.1-1,2.2-0.8,3.3c0,0.5,0.1,1.3,0.2,1.6
	c0.2,0.4,0.7,0.6,1.2,1c0.5,0.2,1.2,0.6,1.7,1.2c0.1,0.1,0.2,0.4,0.4,0.5v0.1c0,0.1,0-0.1,0,0.1l0,0l0,0V79c0,0.1,0,0.2,0,0.4
	c-0.1,0.4-0.2,0.6-0.4,1c-0.5,1.2-1.1,2.3-1.8,3.4c-0.7,1.1-1.3,2.2-2.4,3l0.1-0.5c0.4,0.6,0.8,1.2,1.3,1.6c0.6,0.5,1.2,0.8,1.9,1
	c0.4,0,0.7,0,1.1-0.1c0.4-0.1,0.7-0.2,1-0.5c0.6-0.4,1.2-1,1.6-1.6c-0.6,1.5-1.9,2.5-3.6,2.5c-0.8,0-1.6-0.4-2.2-0.8s-1.2-1-1.7-1.7
	l-0.1-0.2l0.2-0.2c0.8-0.7,1.5-1.9,2.1-2.9c0.6-1.1,1.2-2.2,1.6-3.3c0.1-0.2,0.2-0.6,0.2-0.7l0,0v-0.1l0,0l0,0c0.1,0.2,0,0.1,0,0.1
	l0,0c0-0.1-0.1-0.2-0.2-0.2c-0.4-0.4-0.8-0.6-1.3-0.8s-1.2-0.6-1.7-1.3c-0.1-0.1-0.2-0.5-0.2-0.6V76v-0.2c0-0.4-0.1-0.6-0.1-1
	c0-0.6,0-1.3,0.1-2.1s0.5-1.3,0.7-1.8c0.5-1.1,1.1-2.3,1.7-3.4s1.3-2.2,2.3-3.1c0.5-0.5,1-0.8,1.6-1.2s1.2-0.7,1.8-0.8
	c0.7-0.2,1.3-0.4,2.2-0.2c0.7,0.1,1.5,0.5,1.9,1.1c0.5,0.6,0.7,1.2,1,1.8l0.5,1.8c0.4,1.2,0.7,2.4,1,3.6c0.2,1.2,0.7,2.5,0.5,3.9
	c-0.2,1.3-0.8,2.4-1.3,3.6c-0.6,1.1-1,2.3-1.7,3.4c-0.4,0.6-1,1-1.5,1.3c-0.6,0.2-1.1,0.6-1.5,1C269.2,84.2,268.5,85.4,268.1,86.5z"
	/>
<g>
	<g>
		<path d="M187.3,67.4c0.5,1.3,1.1,2.7,2.3,3.5c1,0.7,2.2,1.1,3.4,1.1c0.6,0,2.1-0.8,0.7-1c-2.4-0.1-3.8-2.1-4.5-4.1
			C189,66.3,187,66.9,187.3,67.4L187.3,67.4z"/>
	</g>
</g>
<g>
	<g>
		<path d="M222.3,70.1c1.1,2.2,3.1,3.3,5.6,3.4c0.6,0,2.1-0.8,0.7-1c-1.8-0.1-3.5-1.3-4.4-2.9C224,69,222.2,69.7,222.3,70.1
			L222.3,70.1z"/>
	</g>
</g>
<g>
	<path class="st16" d="M261,26.6c0,0,0.1,0,0.4,0.1s0.6,0.2,1.1,0.5c1,0.5,2.2,1.3,3.5,2.7c1.2,1.3,2.5,3,3.5,5.1
		c1.1,1.9,2.1,4.2,2.9,6.4c1,2.2,1.8,4.5,2.5,6.7c0.6,2.2,1.1,4.2,1.2,6.1c0.1,0.8,0.1,1.7,0.1,2.4s-0.1,1.3-0.1,1.9
		c0,0.5-0.1,1-0.2,1.2c0,0.2-0.1,0.5-0.1,0.5h-0.1c0,0,0-0.1,0-0.5c0-0.2,0.1-0.7,0.1-1.2c0-1.1,0-2.5-0.2-4.2
		c-0.5-3.5-1.9-8.1-3.8-12.5c-0.8-2.2-1.8-4.5-2.8-6.4c-1-1.9-2.2-3.8-3.4-5.1s-2.4-2.2-3.4-2.7c-0.5-0.2-0.8-0.4-1.1-0.5
		C261.1,26.8,261,26.7,261,26.6L261,26.6z"/>
</g>
<path class="st0" d="M247.7,122.6c-0.1,1.4-0.4,2.5-0.7,3.8s-0.2,2.3-1.5,2.5c-1.3,0.2-2.6-0.6-3.4-1.7c-0.7-1.1-1-2.5-1.3-3.8
	c-0.1-0.4-0.2-0.8-0.2-1.2c-0.1-0.4-0.2-0.8,0-1.2c0.1-0.5,0.6-0.8,1-1.1c2.2-1.2,4.7-0.2,6,2"/>
<path class="st6" d="M209.9,155.9c-1.5,4.4-3,8.8-4.5,13.3c-1.2,3.5-2.4,7-4.2,10.3c4.2-4.7,8.4-9.5,12.6-14.3
	c0.4-0.5,0.9-1,0.9-1.7c0-0.4-0.2-0.8-0.3-1.2c-1.1-2.4-2.3-5-4.5-6.4"/>
<path class="st14" d="M197.3,59.9c-2.5-1.5-8.8-4.8-9.5-4.7c-0.3,0-0.6,0.2-0.9,0.4c-3.2,1.9-6.3,4.2-9.3,6.9
	c1.2-0.6,6.2-2,11.1-1.4c5.2,0.7,10.3,3.3,10.7,3.5c0.7,0.2,3.6-0.6,3.1-1.3C202.5,63.1,198.8,60.7,197.3,59.9z"/>
<g>
	<path class="st14" d="M262.4,20.6c-1.3-2.3-3.7-3.8-6.1-5c-11.8-6.2-25-9.7-38.4-10c-3.6-0.1-7.2,0.1-10.7,0.9
		c-4.7,1.1-9.1,3.3-13.4,5.4c-1.5,0.7-2.9,1.5-4.1,2.7c-1,1-1.6,2.3-2.5,3.3c-2.4,2.9-6.2,4.5-7.9,7.9c0.5,0.1,1.1,0.3,1.6,0.4
		c-4.2,10.4-0.1,23.4,9.3,29.5c-0.4-1.6-0.8-3.3-1.2-4.9c4.2,5,9.2,9.3,14.7,12.7c-0.1-1.7-0.6-3.3-1.4-4.7c1.7,1.8,3.7,3.3,6,4.5
		c-0.5-2.1-1.1-4.1-1.6-6.2c2.8,0.3,5.7,0.7,8.5,1c-0.1-0.9-0.2-1.8-0.3-2.7c2.2,0.5,4.3,1,6.5,1.5c0.1-1,0.1-2.1,0.2-3.1
		c2.3,0.3,4.6,0.6,7,1c-0.4-1.1-0.7-2.2-1.1-3.3c3,1.2,6.2,2.5,9.3,1.7c2.9-0.8,5.1-3.3,7-5.6c3-3.6,5.9-7.2,8.9-10.8
		c1.2-1.4,2.4-2.9,3.5-4.3c1.3-1.5,2.6-3.1,3.6-4.8c1.5-2.5,2.4-5.3,2.7-8.2"/>
	<path class="st16" d="M262.3,20.6c-1-1.7-2.6-2.9-4.2-3.9c-0.8-0.5-1.7-1-2.6-1.4c-0.9-0.4-1.7-0.9-2.6-1.3
		c-1.8-0.8-3.6-1.6-5.4-2.3c-1.8-0.7-3.6-1.4-5.5-1.9c-7.4-2.3-15.2-3.7-22.9-3.9c-3.9-0.1-7.8,0-11.6,0.8
		c-3.8,0.8-7.4,2.4-10.8,4.1c-1.7,0.9-3.5,1.7-5.1,2.7c-0.8,0.5-1.5,1.1-2.1,1.9c-0.6,0.7-1.1,1.6-1.7,2.4c-1.2,1.6-2.8,2.8-4.3,4
		c-1.5,1.2-3,2.5-3.8,4.2l-0.2-0.5l1.6,0.4l0.4,0.1l-0.1,0.4l-0.7,1.9l-0.5,2l-0.3,2l-0.1,2.1l0,2.1l0.2,2l0.4,2l0.5,2l0.7,1.9
		l0.9,1.9l1,1.8l1.1,1.7l1.3,1.6l1.4,1.5l1.5,1.3l1.7,1.2l-0.6,0.5l-1.2-4.9l-0.5-1.9l1.2,1.5c4.2,4.9,9.1,9.2,14.6,12.5l-0.8,0.5
		c-0.1-1.6-0.6-3.1-1.3-4.5l-1.9-3.4l2.7,2.8c1.7,1.8,3.7,3.2,5.8,4.4l-0.8,0.6l-1.6-6.2l-0.2-0.7l0.8,0.1l8.5,1l-0.6,0.6l-0.3-2.7
		l-0.1-0.8l0.7,0.2l6.5,1.5l-0.7,0.5l0.2-3.1l0-0.6l0.6,0.1l6.9,1l-0.5,0.6l-1.1-3.3l-0.3-1l0.9,0.4c2,0.8,4.1,1.7,6.2,1.9
		c1.1,0.1,2.1,0,3.1-0.3c1-0.3,1.9-0.8,2.8-1.5c1.7-1.3,3.1-3.1,4.5-4.7l4.2-5.1L257,31c1.4-1.7,2.7-3.5,3.7-5.5
		c0.9-2,1.6-4.1,1.8-6.3l0.1,0c-0.2,2.2-0.8,4.4-1.7,6.4c-0.9,2-2.2,3.9-3.6,5.6c-2.8,3.5-5.6,6.9-8.4,10.3l-4.2,5.1
		c-1.4,1.7-2.8,3.5-4.6,4.9c-0.9,0.7-1.9,1.3-3,1.7c-1.1,0.4-2.3,0.5-3.4,0.4c-2.3-0.2-4.4-1-6.5-1.9l0.6-0.6l1.1,3.3l0.3,0.7
		l-0.8-0.1l-7-0.9l0.6-0.5l-0.2,3.1l0,0.6l-0.6-0.1l-6.5-1.5l0.6-0.6l0.3,2.7l0.1,0.7l-0.7-0.1l-8.5-1l0.6-0.7l1.6,6.2l0.3,1.1
		l-1-0.5c-2.3-1.2-4.3-2.7-6.1-4.6l0.8-0.6c0.8,1.5,1.3,3.2,1.4,5l0.1,1l-0.8-0.5c-5.6-3.4-10.6-7.8-14.8-12.8l0.8-0.4l1.2,5
		l0.3,1.1l-0.9-0.7l-1.7-1.2l-1.6-1.4l-1.5-1.5l-1.3-1.7l-1.2-1.8l-1-1.9l-0.9-1.9l-0.7-2l-0.5-2l-0.4-2.1l-0.2-2.1l0-2.1l0.1-2.1
		l0.3-2.1l0.5-2.1l0.7-2l0.2,0.5l-1.6-0.5l-0.4-0.1l0.2-0.4c0.9-1.8,2.5-3.2,4-4.4c1.5-1.2,3.1-2.4,4.2-3.9c0.6-0.8,1.1-1.6,1.7-2.4
		c0.6-0.8,1.4-1.4,2.3-2c1.7-1,3.5-1.8,5.2-2.7c3.5-1.7,7.1-3.3,11-4.1c3.9-0.8,7.8-0.9,11.7-0.7c7.8,0.3,15.6,1.7,23,4.1
		c1.9,0.6,3.7,1.3,5.5,2c1.8,0.7,3.6,1.5,5.4,2.3c0.9,0.4,1.8,0.9,2.6,1.3c0.9,0.4,1.7,0.9,2.6,1.4
		C259.9,17.6,261.4,18.8,262.3,20.6L262.3,20.6z"/>
</g>
<path class="st13" d="M207.8,135.2c-2,6.4-3,13.2-3,19.9"/>
</svg>
