<?xml version="1.0" encoding="utf-8"?>
<!-- Generator: Adobe Illustrator 19.0.1, SVG Export Plug-In . SVG Version: 6.00 Build 0)  -->
<svg version="1.1" id="Layer_1" xmlns="http://www.w3.org/2000/svg" xmlns:xlink="http://www.w3.org/1999/xlink" x="0px" y="0px"
	 viewBox="0 0 286 504" style="enable-background:new 0 0 286 504;" xml:space="preserve">
<style type="text/css">
	.st0{fill:#3388C8;}
	.st1{fill:#F0EFEF;}
	.st2{fill:#1B4E6D;}
	.st3{fill:#D3AB7F;}
	.st4{fill:#231F20;}
	.st5{fill:#D3AB7F;stroke:#231F20;stroke-width:1.0632;stroke-miterlimit:10;}
	.st6{fill:#FFFFFF;}
	.st7{fill:#B78355;}
	.st8{fill:#061F1C;}
	.st9{fill:#646EB3;}
	.st10{fill:#061F1C;stroke:#231F20;stroke-width:1.2744;stroke-miterlimit:10;}
	.st11{fill:#010101;}
	.st12{fill:#D6AB80;}
	.st13{fill:#061F1C;stroke:#231F20;stroke-width:1.1726;stroke-miterlimit:10;}
	.st14{opacity:0.65;fill:#A3B3BF;stroke:#727374;stroke-width:0.6567;stroke-miterlimit:10;}
	.st15{opacity:0.64;}
	.st16{fill:#727373;}
</style>
<g>
	<path class="st0" d="M173.8,121.9c4.3,6.6,12.4,9.4,19.9,12c7.2,2.5,14.3,5.2,21.4,8c2.6,1.1,5.3,2.2,7.3,4.2
		c5.1,5.2,3.7,13.8,5.8,20.8c0.9,3.1,2.6,5.9,3.5,9c1.6,5.2,1.1,10.8,1.9,16.2c0.9,5.7,3.5,11,6,16.2c3.1,6.5,6.3,13.1,10.1,19.2
		c3.4,5.4,7.4,11.2,6.8,17.5c-0.4,3.9-2.6,7.5-2.6,11.4c0,1.3,0.3,2.7-0.2,4c-0.7,2.1-2.8,3.3-3.9,5.2c-3,5.3,3.5,13.4-0.9,17.6
		c-3.4-0.5-6.5-1.8-9.6-3.3c-1.4-0.7-2.8-1.4-4.3-1.9c-1.3-0.4-2.7-0.4-4-0.5c-4.4-0.2-8.7-0.5-13.1-0.7c-6.3-0.4-14.2-4.4-19.3-0.8
		l1.1,3.5c2.9,8.4,0.1,17.6,1.2,26.4c0.5,3.9,1.7,7.7,2.6,11.6c1.1,4.6,1.6,9.4,2.1,14.1c1.8,15.9,3.6,31.9,3.8,47.9
		c0.2,12.7-0.7,25.4,1.3,37.9c3.2,20.6,14,41.4,7.6,61.3c-2,6.3,1.6,20.2-2.5,25.4c-1.4,1.7-11.6-5.8-12-3.7c-1,5.7-4.5,1.9-7,2.1
		c-21.2,2.4-39.7,2.2-61,1.5c-3.7-0.1-9.3-0.4-13,0c-3.7,0.4-5.3-0.4-9,0c-23.5,2.4-55.5,8.8-76-3c2.4-5.5,5.8-31.1,5.3-37
		c-0.4-4,0.1-8.1,0.6-12.1c2-16.8,4.5-33.8,11.4-49.3c1.4-3.1,3-6.3,3.5-9.7c1-5.9-1.2-11.9-2.3-17.8c-1.4-7.3-1.2-15,0.7-22.2
		c1-3.8,2.4-7.5,3-11.3c1.3-8-0.8-16.3,0.6-24.3c0.6-3.5,1.9-6.8,2.4-10.3c0.4-3.5-0.9-12.3-1.3-13.8c-1.3-4.8-0.2-9.8,0.3-14.7
		c0.3-2.3,0.6-4.7,0.5-7c-0.2-3.4-1.3-6.7-1.3-10.1c0-2.9,1-5.7,1.5-8.5c1.2-5.6,14.8-44.3,14.8-44.3c-2.5,9.8-5.9,19.4-10.3,28.5
		c-2.3,4.7-7.5,16.4-9.9,16.4c-16.3-0.5-28.8,20.8-29.5,18.3c-2.7,0-4.9-2.3-5.5-4.9c-0.7-2.6-0.1-5.3,0.4-7.9
		c2.9-14.5,5.9-29.1,8.8-43.6c1.2-5.8,2.4-11.7,4.6-17.3c0.6-1.6,1.3-3.2,1-4.9c-0.2-1.2-1.1-2.3-1.3-3.6c-0.4-2.2,1.3-4.3,1.4-6.6
		c0.1-1.8-0.9-3.6-0.9-5.4c0-3.6,3.7-6.2,4.6-9.8c0.5-2.2-0.2-4.6,0.4-6.9c0.7-2.8,3.3-4.7,5.7-6.3c8.3-5.4,17-10.1,26.1-14
		c2.8-1.2,6.1-2.9,6.4-5.9c6-0.1,11.8-3.9,14.1-9.4"/>
	<path d="M173.9,121.8c2.3,3.5,5.9,6,9.6,7.8c3.8,1.9,7.8,3.1,11.7,4.5c4,1.4,7.9,2.8,11.9,4.3l5.9,2.3c2,0.8,3.9,1.5,5.9,2.4
		c1.9,0.9,3.7,2.3,5,4c1.3,1.8,2.1,3.8,2.6,5.9c1,4.2,1,8.4,2,12.4c0.9,4,3.4,7.6,4.3,11.8c1,4.2,0.8,8.5,1.3,12.6
		c0.4,4.1,1.7,8.1,3.4,11.9c1.7,3.8,3.6,7.6,5.4,11.4c1.9,3.8,3.8,7.5,5.9,11.1c2.1,3.6,4.6,7,6.5,10.9c0.9,1.9,1.7,4,2,6.2
		c0.3,2.2,0.2,4.5-0.4,6.6c-0.6,2.1-1.3,4-1.7,6c-0.2,1-0.3,2-0.3,2.9c0,1,0.2,2.1-0.1,3.4c0,0.2-0.1,0.3-0.1,0.5l-0.1,0.4
		c-0.1,0.3-0.3,0.6-0.4,0.8c-0.3,0.5-0.7,1-1.1,1.4c-0.7,0.8-1.5,1.5-2,2.3c-1.1,1.5-1.1,3.5-0.8,5.5c0.3,2,0.9,4,1.2,6.2
		c0.2,1.1,0.2,2.2,0,3.4c-0.1,0.6-0.3,1.2-0.6,1.7c-0.3,0.6-0.7,1-1.1,1.5l-0.3,0.3l-0.5-0.1c-2.2-0.4-4.4-1-6.4-1.8
		c-1-0.4-2-0.9-3-1.3c-1-0.5-2-1-2.9-1.4c-0.9-0.4-1.9-0.7-2.9-0.8c-1-0.1-2.1-0.2-3.1-0.3l-6.5-0.3l-6.5-0.4
		c-2.3-0.2-4.4-0.7-6.5-1.2c-2.1-0.5-4.2-0.9-6.2-1c-1,0-2,0-3,0.2c-0.9,0.2-1.8,0.6-2.6,1.1l0.4-1.2l1,3.1c0.3,1,0.6,2,0.9,3.2
		c0.5,2.2,0.6,4.4,0.7,6.6c0.1,4.4-0.4,8.7-0.4,12.9c0,2.1,0.2,4.2,0.6,6.2c0.4,2.1,0.9,4.1,1.5,6.2c1.2,4.2,1.9,8.5,2.4,12.8
		c1,8.6,2,17.1,2.8,25.7c0.8,8.6,1.4,17.2,1.5,25.9c0.2,8.7-0.2,17.3,0.1,25.8c0.2,4.3,0.5,8.5,1.1,12.7c0.6,4.2,1.6,8.4,2.7,12.5
		c2.1,8.3,4.7,16.6,6.1,25.2c0.7,4.3,1.1,8.7,0.9,13.1c-0.1,2.2-0.4,4.4-0.8,6.6c-0.2,1.1-0.5,2.2-0.8,3.2c-0.3,1.1-0.6,2.1-0.8,3
		c-0.3,2-0.3,4.1-0.2,6.2c0.1,2.1,0.2,4.3,0.2,6.5c0,2.2,0,4.4-0.4,6.7c-0.2,1.1-0.5,2.3-1,3.4c-0.1,0.3-0.3,0.5-0.5,0.8l-0.3,0.4
		l-0.1,0.2c-0.2,0.3,0,0.1-0.3,0.3c-0.7,0.5-1.2,0.4-1.6,0.4c-0.4,0-0.7-0.1-1-0.2c-1.2-0.4-2.2-0.8-3.2-1.3l-2.9-1.5
		c-0.9-0.5-1.9-0.9-2.8-1.2c-0.2-0.1-0.4-0.1-0.5-0.1c0,0-0.1,0,0,0c0.1,0,0.4-0.2,0.4-0.4c0-0.1,0,0,0,0.1l0,0.2
		c0,0.1-0.1,0.3-0.1,0.4c-0.1,0.3-0.2,0.6-0.3,0.9c-0.2,0.6-0.6,1.3-1.3,1.8c-0.7,0.5-1.7,0.6-2.3,0.5c-1.4-0.2-2.3-0.7-3.2-0.9
		c-0.5-0.1-0.6-0.1-1.3,0l-1.6,0.2c-1.1,0.1-2.1,0.2-3.2,0.3c-8.6,0.8-17.2,1.2-25.9,1.3c-8.6,0.1-17.3-0.1-25.9-0.3
		c-4.3-0.1-8.6-0.4-12.9-0.3c-1.1,0-2.1,0-3.2,0.1c-1,0.1-2.2,0.2-3.3,0.2c-1.1,0-2.2-0.1-3.3-0.2c-1-0.1-2.1-0.1-3.1,0
		c-8.5,0.9-17.1,2.1-25.7,2.9c-8.6,0.8-17.3,1.3-25.9,0.7c-4.3-0.3-8.7-0.9-12.9-2c-2.1-0.5-4.2-1.2-6.3-2c-2-0.8-4-1.8-5.9-2.8
		l-0.7-0.4l0.3-0.7c0.5-1.3,0.9-2.8,1.3-4.3c0.3-1.5,0.6-3,0.9-4.5c0.6-3,1-6.1,1.5-9.2c0.4-3.1,0.8-6.2,1.1-9.2
		c0.1-1.5,0.3-3.1,0.4-4.6c0.1-1.5,0.2-3.1,0.1-4.5c-0.3-3.2-0.1-6.4,0.3-9.5c0.4-3.1,0.8-6.2,1.2-9.3c0.8-6.2,1.8-12.4,3.1-18.5
		c1.3-6.1,2.9-12.2,5-18.1c1.1-2.9,2.3-5.9,3.6-8.7c1.3-2.8,2.5-5.6,2.7-8.7c0.3-2.9-0.2-6-0.9-9c-0.7-3-1.5-6.1-1.9-9.2
		c-0.9-6.3-0.7-12.7,0.6-18.9c0.7-3.1,1.7-6.1,2.5-9c0.8-3,1.3-6,1.3-9.1c0.1-6.1-0.9-12.4,0.2-18.8c0.5-3.2,1.6-6.1,2.2-9.1
		c0.1-0.4,0.1-0.7,0.2-1.1l0-0.3l0-0.1l0-0.1l0-0.6c0-0.7,0-1.5,0-2.3c-0.1-1.5-0.2-3.1-0.4-4.6c-0.2-1.5-0.4-3.1-0.7-4.6
		c-0.1-0.8-0.3-1.5-0.5-2.2c-0.2-0.8-0.3-1.6-0.3-2.4c-0.3-3.2,0.2-6.4,0.6-9.4l0.5-4.6c0.2-1.5,0.3-3.1,0.2-4.6
		c-0.2-3-1.1-6-1.2-9.3c-0.1-3.3,0.9-6.3,1.6-9.4c0.8-3,1.8-6,2.7-9c3.9-11.8,8-23.6,12.2-35.4l1,0.3c-1.8,7-4,13.8-6.8,20.4
		c-1.4,3.3-2.9,6.6-4.4,9.8c-1.5,3.2-3.1,6.5-4.9,9.6c-0.9,1.6-1.8,3.1-3.1,4.5c-0.4,0.3-0.7,0.7-1.4,0.8c-0.1,0-0.2,0-0.2,0l-0.2,0
		l-0.3,0c-0.2,0-0.4,0-0.7,0c-0.9,0-1.7,0.1-2.6,0.3c-3.5,0.6-6.7,2.1-9.7,4c-3,1.9-5.7,4.3-8.2,6.8c-1.3,1.2-2.5,2.5-3.7,3.9
		l-1.8,2c-0.3,0.3-0.6,0.7-1,1c-0.2,0.2-0.4,0.3-0.6,0.5c-0.1,0.1-0.2,0.2-0.5,0.2c-0.1,0-0.3-0.1-0.4-0.2c-0.1-0.1-0.1-0.2-0.2-0.3
		l0.4,0.3c-1.9,0-3.6-1.1-4.7-2.6c-1.1-1.5-1.5-3.3-1.5-5.1c0-1.8,0.3-3.5,0.6-5.2l1-5.1l4.1-20.2l4.1-20.2
		c0.7-3.4,1.4-6.7,2.4-10.1c0.5-1.7,1-3.3,1.6-4.9c0.6-1.6,1.4-3.2,1.4-4.8c0-0.8-0.3-1.6-0.6-2.4c-0.3-0.8-0.7-1.6-0.8-2.5
		c-0.1-1.9,0.9-3.4,1.3-5c0.2-0.8,0.2-1.6,0.1-2.4c-0.2-0.8-0.4-1.6-0.6-2.5c-0.2-0.8-0.3-1.8-0.1-2.6c0.2-0.9,0.5-1.7,0.9-2.5
		c0.9-1.5,2-2.9,2.7-4.4c0.4-0.7,0.7-1.5,0.9-2.3c0.1-0.8,0.1-1.7,0.1-2.5c-0.1-1.7-0.2-3.5,0.6-5.2c0.8-1.6,2.1-2.9,3.4-3.9
		c1.4-1,2.9-1.9,4.3-2.9c1.5-0.9,2.9-1.8,4.4-2.7c3-1.7,6-3.4,9.1-4.9c3.1-1.6,6.2-3,9.3-4.4c1.6-0.7,3.2-1.3,4.6-2.3
		c1.4-0.9,2.6-2.3,2.8-4l0-0.1l0.1,0l1.1-0.1l1.1-0.1l1.1-0.2l1.1-0.3l1-0.4l1-0.4l1-0.5l0.9-0.6l0.9-0.6l0.9-0.7l0.8-0.8l0.8-0.8
		L92,128l0.6-0.9l0.6-1l0.5-1l0.2,0.1l-0.5,1l-0.6,1l-0.6,0.9l-0.7,0.9l-0.8,0.8l-0.8,0.8l-0.9,0.7l-0.9,0.7l-1,0.6l-1,0.5l-1,0.5
		l-1.1,0.4l-1.1,0.3l-1.1,0.2l-1.1,0.1l-1.1,0.1l0.1-0.1c-0.2,1.8-1.5,3.3-2.9,4.2c-1.4,1-3.1,1.6-4.6,2.3c-3.1,1.4-6.3,2.8-9.3,4.4
		c-3.1,1.6-6.1,3.2-9,5c-1.5,0.9-2.9,1.8-4.4,2.7c-1.4,0.9-2.9,1.8-4.3,2.9c-1.3,1-2.6,2.2-3.3,3.8c-0.7,1.5-0.6,3.3-0.6,5
		c0,0.9,0,1.7-0.1,2.6c-0.2,0.9-0.5,1.7-0.9,2.5c-0.8,1.6-1.9,2.9-2.7,4.4c-0.4,0.7-0.7,1.5-0.9,2.3c-0.2,0.8-0.1,1.6,0.1,2.5
		c0.2,0.8,0.5,1.6,0.6,2.5c0.2,0.9,0.2,1.8-0.1,2.7c-0.4,1.7-1.3,3.3-1.3,4.9c0,0.8,0.4,1.6,0.7,2.4c0.4,0.8,0.7,1.7,0.7,2.6
		c0,1.8-0.9,3.4-1.5,5c-0.6,1.6-1.1,3.2-1.6,4.9c-0.9,3.3-1.6,6.7-2.3,10l-4,20.2l-4,20.2l-1,5.1c-0.3,1.7-0.6,3.4-0.6,5
		c0,1.7,0.4,3.3,1.4,4.6c0.9,1.3,2.4,2.3,4,2.3l0.4,0.3c0,0,0,0,0,0c0,0-0.1-0.1-0.1-0.1c0,0,0,0,0.1-0.1c0.1-0.1,0.3-0.2,0.5-0.4
		c0.3-0.3,0.6-0.6,0.9-0.9l1.8-2c1.2-1.3,2.4-2.6,3.7-3.9c2.5-2.5,5.3-4.9,8.3-6.9c3-2,6.4-3.5,10-4.2c0.9-0.2,1.8-0.3,2.7-0.3
		c0.2,0,0.5,0,0.7,0l0.3,0l0.2,0c0.1,0,0,0,0.1,0c0.2,0,0.6-0.3,0.9-0.6c1.2-1.2,2.1-2.8,2.9-4.3c1.7-3.1,3.3-6.3,4.8-9.6
		c1.6-3.2,3.1-6.4,4.4-9.7c2.7-6.6,4.9-13.4,6.7-20.3l1,0.3c-4.1,11.8-8.2,23.5-12.1,35.4c-0.9,3-1.9,5.9-2.7,8.9
		c-0.6,3-1.6,6-1.5,9c0.1,3,1.1,6,1.2,9.2c0.1,1.6,0,3.2-0.2,4.8l-0.5,4.7c-0.4,3.1-0.8,6.2-0.5,9.2c0.1,0.8,0.2,1.5,0.3,2.2
		c0.2,0.7,0.4,1.5,0.5,2.3c0.3,1.6,0.5,3.1,0.7,4.7c0.2,1.6,0.3,3.1,0.4,4.7c0,0.8,0.1,1.6,0,2.4l0,0.6l0,0.1l0,0.2l0,0.3
		c-0.1,0.4-0.1,0.8-0.2,1.2c-0.6,3.1-1.7,6.1-2.2,9.1c-1,6,0,12.3-0.1,18.6c0,3.2-0.5,6.4-1.3,9.4c-0.8,3.1-1.8,6-2.5,9
		c-1.3,6-1.5,12.3-0.6,18.3c0.4,3,1.3,6,1.9,9.1c0.7,3.1,1.2,6.2,0.9,9.5c-0.3,3.2-1.5,6.3-2.8,9.1c-1.3,2.8-2.5,5.7-3.5,8.6
		c-2.1,5.8-3.7,11.8-4.9,17.9c-1.2,6.1-2.2,12.2-3,18.4c-0.4,3.1-0.8,6.2-1.1,9.3c-0.3,3.1-0.5,6.1-0.2,9.2c0.1,1.7,0,3.2-0.1,4.8
		c-0.1,1.6-0.2,3.1-0.4,4.7c-0.3,3.1-0.7,6.2-1.1,9.3c-0.4,3.1-0.9,6.2-1.5,9.3c-0.3,1.5-0.6,3.1-0.9,4.6c-0.4,1.5-0.7,3.1-1.4,4.6
		l-0.4-1.1c7.4,4.2,15.9,5.9,24.4,6.5c8.5,0.6,17.1,0.1,25.6-0.8c8.6-0.8,17.1-2.1,25.7-3c1.1-0.1,2.3-0.1,3.4-0.1
		c1.1,0.1,2.2,0.2,3.2,0.2c1,0,2-0.1,3.1-0.2c1.1-0.1,2.2-0.1,3.3-0.1c4.4,0,8.7,0.2,13,0.3c8.6,0.2,17.2,0.4,25.8,0.2
		c8.6-0.1,17.2-0.6,25.7-1.4c1.1-0.1,2.1-0.2,3.2-0.3l1.6-0.2c0.3,0,0.5-0.1,0.9-0.1c0.4,0,0.7,0.1,1,0.1c1.2,0.3,2.2,0.8,3,0.9
		c0.4,0,0.6,0,0.8-0.1c0.2-0.1,0.4-0.4,0.5-0.8c0.1-0.2,0.1-0.4,0.2-0.6c0-0.1,0.1-0.2,0.1-0.4l0-0.2c0-0.1,0-0.1,0.1-0.3
		c0.1-0.4,0.6-0.9,1-1c0.4-0.1,0.6-0.1,0.8-0.1c0.4,0,0.7,0.1,1,0.2c1.2,0.4,2.1,0.9,3.1,1.4l2.9,1.4c0.9,0.5,1.9,0.9,2.8,1.2
		c0.2,0.1,0.4,0.1,0.6,0.1c0.1,0,0.3-0.1,0,0.1c-0.2,0.2,0.1-0.1,0,0l0.1-0.1l0.2-0.3c0.1-0.2,0.2-0.4,0.3-0.6
		c0.4-0.8,0.7-1.8,0.8-2.8c0.3-2,0.4-4.1,0.3-6.2c0-2.1-0.1-4.3-0.2-6.4c0-2.2-0.1-4.4,0.2-6.7c0.2-1.2,0.6-2.3,0.8-3.3
		c0.3-1,0.5-2,0.7-3.1c0.4-2.1,0.6-4.1,0.7-6.2c0.2-4.2-0.2-8.4-0.8-12.6c-1.4-8.4-3.9-16.6-6-25c-1.1-4.2-2-8.4-2.7-12.7
		c-0.7-4.3-1-8.7-1.2-13c-0.3-8.7,0-17.3-0.1-25.9c-0.1-8.6-0.7-17.1-1.5-25.7c-0.8-8.5-1.8-17.1-2.8-25.6
		c-0.5-4.3-1.2-8.4-2.4-12.5c-0.5-2.1-1.1-4.2-1.5-6.4c-0.4-2.2-0.6-4.4-0.6-6.6c0-4.4,0.5-8.7,0.4-12.9c0-2.1-0.2-4.2-0.6-6.2
		c-0.2-1-0.5-2-0.8-3l-0.9-3.1l-0.2-0.7l0.6-0.4c1-0.7,2.2-1.2,3.3-1.4c1.2-0.2,2.4-0.3,3.5-0.2c2.3,0.1,4.4,0.6,6.5,1.1
		c2.1,0.5,4.2,1,6.2,1.2l6.5,0.4l6.5,0.4c1.1,0.1,2.2,0.1,3.3,0.3c1.1,0.2,2.3,0.5,3.3,1c1,0.5,2,1,2.9,1.4c1,0.5,1.9,0.9,2.9,1.3
		c2,0.8,4,1.4,6,1.8l-0.8,0.2c0.6-0.6,1-1.4,1.2-2.3c0.2-0.9,0.1-1.9,0-2.9c-0.3-2-0.9-4-1.2-6.2c-0.1-1.1-0.2-2.2-0.1-3.4
		c0.1-0.6,0.2-1.1,0.4-1.7l0.2-0.4l0.2-0.4c0.2-0.3,0.3-0.5,0.5-0.8c0.7-1,1.5-1.7,2.2-2.4c0.3-0.4,0.6-0.7,0.9-1.1
		c0.1-0.2,0.2-0.4,0.3-0.5l0.1-0.4c0,0,0.1-0.2,0.1-0.3c0.2-0.8,0.1-1.8,0.1-2.9c0-1.1,0.1-2.3,0.3-3.3c0.4-2.2,1.2-4.1,1.8-6.1
		c0.6-2,0.7-3.9,0.4-5.9c-0.3-2-1-3.9-1.9-5.8c-1.8-3.7-4.3-7.1-6.3-10.8c-2.1-3.7-4-7.4-5.9-11.2c-1.8-3.8-3.7-7.6-5.4-11.5
		c-0.8-2-1.6-3.9-2.2-6c-0.3-1-0.6-2.1-0.8-3.1c-0.2-1-0.4-2.1-0.5-3.2c-0.4-4.2-0.3-8.5-1.2-12.5c-0.8-4-3.3-7.6-4.2-11.9
		c-1-4.2-1-8.4-1.9-12.5c-0.5-2-1.2-4-2.3-5.6c-1.2-1.7-2.8-2.9-4.7-3.8c-1.8-0.9-3.8-1.7-5.8-2.5l-5.9-2.3c-3.9-1.5-7.9-3-11.8-4.4
		c-4-1.4-8-2.7-11.7-4.7c-3.7-1.9-7.3-4.5-9.6-8L173.9,121.8z"/>
</g>
<path class="st1" d="M129.9,128.3c11,1.4,21.3,6.2,31.2,11.2c-2.6,6.7-1.2,14.1-1.3,21.3c-0.2,13.1-5.8,25.4-11.6,37.1
	c-1.3,2.6-2.6,5.1-4.6,7.2c-1.5,1.5-3.2,2.6-4.7,4.1c-3.9,4.1-5.9,8.3-11.5,8.9c-3.6,0.4-0.7-1.9-3.4-4.3c-1.8-1.6-7.5-4.6-8.6-6.8
	c-1.1-2.2-3.9-0.9-4.2-3.4c-2.6-18.2-6.9-36.2-13-53.7c0.1,0.3-2.6,0.2-2.9,0c-0.7-0.4-1.2-2.6-1.4-3.4c-0.4-1.7-0.5-3.3,0.1-4.9
	c1.4-3.3,6-6.4,8.8-8.2C110.8,128.4,120.7,127.1,129.9,128.3z"/>
<g>
	<path class="st0" d="M255.2,271c-0.1-0.2-0.1-0.4-0.2-0.7c-1.1-4-1.3-8.2-0.6-12.3c0.1-0.8,0.3-1.6-0.1-2.4c-0.4-0.7-1.2-1.1-2-1.3
		c-14.4-5.1-28.7-3.8-43.3-0.7c-4,0.8-9.9,1.9-10.1,6.9c-0.1,2.7,2,5.5,2.2,8.3c0.1,1.3-2,10.1-1.6,10.4c2.1,2,5.4,2.1,8.3,1.4
		c2.8-0.7,5.4-2.1,8.3-2.9c9.9-2.6,19.8,3.3,29.8,5.3c7.5,1.5,13.7-4.1,9.8-11.8c-3.6-7.2-15.1-5.1-21.5-5"/>
	<path d="M255.1,271c0,0-0.2-0.7-0.6-2c-0.3-1.3-0.7-3.3-0.8-5.9c0-1.3,0-2.7,0.2-4.2c0.1-0.8,0.3-1.6,0.3-2.3
		c0-0.8-0.5-1.3-1.3-1.6c-3.3-1.2-7.1-2.2-11.4-2.8c-4.3-0.6-9-0.8-13.9-0.5c-2.5,0.1-5,0.4-7.6,0.7c-2.6,0.4-5.2,0.8-7.9,1.3
		c-2.6,0.6-5.4,1-8,1.9c-1.3,0.5-2.5,1.1-3.4,2c-0.5,0.4-0.8,1-1,1.6c-0.2,0.6-0.3,1.2-0.3,1.9c0,1.3,0.6,2.6,1.1,3.9
		c0.5,1.4,1.1,2.7,1,4.4c-0.4,3-1.1,5.7-1.5,8.6c-0.1,0.4-0.1,0.7-0.1,1c0,0.1,0,0.2,0,0.2c0,0,0,0,0-0.1c-0.1-0.1-0.1-0.1-0.1-0.1
		l0.1,0.1c0.1,0.1,0.3,0.3,0.4,0.3c0.5,0.4,1.1,0.7,1.8,0.9c1.3,0.4,2.7,0.5,4.1,0.3c2.8-0.4,5.4-1.7,8.1-2.6
		c0.7-0.2,1.4-0.5,2.1-0.6c0.7-0.1,1.4-0.3,2.1-0.4l1.1-0.1c0.4,0,0.7,0,1.1,0c0.7,0,1.4,0,2.1,0c2.8,0.2,5.6,0.8,8.2,1.6
		c5.2,1.5,10.2,3.5,15,4.4c1.2,0.2,2.4,0.3,3.6,0.1c1.2-0.2,2.3-0.5,3.3-1c1-0.6,1.9-1.3,2.5-2.2c0.6-0.9,1-1.9,1.1-3
		c0.3-2.1-0.4-4.2-1.3-5.9c-1-1.7-2.5-2.8-4.1-3.5c-1.6-0.7-3.2-1-4.8-1.2c-1.5-0.2-2.9-0.2-4.2-0.2c-2.5,0-4.5,0.2-5.9,0.2
		c-1.4,0.1-2.1,0.1-2.1,0.1l0-0.1c0,0,0.7,0,2.1-0.1c1.4-0.1,3.3-0.2,5.9-0.3c1.3,0,2.7,0,4.2,0.1c1.5,0.1,3.2,0.4,4.8,1.1
		c1.6,0.7,3.3,1.9,4.3,3.6c1,1.7,1.7,3.8,1.5,6.1c-0.1,1.1-0.6,2.2-1.2,3.2c-0.7,1-1.6,1.8-2.6,2.4c-1,0.6-2.3,0.9-3.5,1.1
		c-1.2,0.2-2.5,0.1-3.7-0.1c-5-0.9-9.9-2.9-15.1-4.3c-2.6-0.7-5.3-1.3-8.1-1.5c-0.7,0-1.4-0.1-2.1,0c-0.3,0-0.7,0-1,0l-1,0.1
		c-0.7,0-1.4,0.2-2.1,0.4c-0.7,0.1-1.3,0.4-2,0.6c-2.7,0.9-5.3,2.3-8.3,2.7c-1.5,0.2-3,0.2-4.5-0.3c-0.7-0.2-1.4-0.6-2.1-1
		c-0.2-0.1-0.3-0.2-0.4-0.4l-0.1-0.1c0,0-0.1,0-0.1-0.2c-0.1-0.1-0.1-0.2-0.1-0.2c0-0.2,0-0.3,0-0.4c0-0.4,0.1-0.8,0.1-1.1
		c0.4-2.9,1.1-5.8,1.5-8.5c0-0.6-0.1-1.3-0.3-1.9c-0.2-0.7-0.4-1.3-0.7-2c-0.5-1.3-1.1-2.7-1.2-4.3c0-0.8,0.1-1.5,0.4-2.3
		c0.3-0.7,0.7-1.4,1.2-2c1.1-1.2,2.5-1.8,3.8-2.3c1.4-0.5,2.7-0.8,4.1-1.1c1.4-0.3,2.7-0.6,4-0.8c5.4-1,10.6-1.8,15.6-2
		c5-0.2,9.8,0.1,14.1,0.7c4.3,0.7,8.2,1.8,11.6,3.1c0.4,0.2,0.8,0.5,1.2,0.9c0.3,0.4,0.5,0.9,0.5,1.4c0,0.9-0.2,1.7-0.3,2.4
		c-0.2,1.5-0.3,2.9-0.3,4.2c0,2.5,0.3,4.5,0.5,5.8c0.3,1.3,0.5,2,0.5,2L255.1,271z"/>
</g>
<g>
	<path class="st2" d="M220.7,274.9c0,0,0.1-0.1,0.2-0.2c0.1-0.1,0.3-0.3,0.6-0.5c0.6-0.4,1.5-1,2.6-1.3c1.2-0.4,2.6-0.6,4.1-0.7
		c1.5-0.1,3.1-0.1,4.7,0c0.8,0,1.6,0.1,2.4,0.3c0.8,0.1,1.6,0.4,2.3,0.6c1.4,0.5,2.7,1.2,3.8,1.7c1.1,0.5,2,0.8,2.7,1
		c0.7,0.2,1.1,0.3,1.1,0.3s-0.1,0-0.3,0c-0.2,0-0.5,0-0.8,0c-0.7-0.1-1.7-0.2-2.9-0.6c-1.2-0.4-2.5-0.9-3.9-1.3
		c-0.7-0.2-1.4-0.4-2.2-0.5c-0.7-0.1-1.5-0.2-2.3-0.2c-0.8,0-1.6-0.1-2.3-0.1c-0.8,0-1.5,0-2.3,0c-1.5,0-2.8,0.1-4,0.3
		c-1.1,0.2-2.1,0.5-2.7,0.9c-0.3,0.2-0.5,0.3-0.7,0.4C220.8,274.9,220.7,274.9,220.7,274.9z"/>
</g>
<g>
	<path class="st2" d="M240.5,258.4c0,0-0.2,0-0.4,0c-0.3,0-0.7,0-1.2,0.1c-1.1,0.1-2.6,0.3-4.4,0.7c-1.8,0.4-3.8,1.1-5.8,2.2
		c-1,0.5-2,1.1-3,1.8c-1,0.7-1.9,1.5-3.1,2.1c-1.1,0.6-2.4,1.1-3.6,1.3c-1.2,0.3-2.4,0.4-3.6,0.4c-2.3,0.1-4.5,0-6.3,0
		c-1.8,0-3.4-0.1-4.5-0.2c-1.1-0.1-1.7-0.1-1.7-0.1s0.6-0.1,1.7-0.1c1.1-0.1,2.6-0.2,4.4-0.3c1.8-0.1,4-0.2,6.3-0.3
		c1.1-0.1,2.3-0.3,3.4-0.5c1.2-0.3,2.2-0.7,3.2-1.3c1-0.6,2-1.3,3-2c1-0.7,2.1-1.3,3.2-1.8c2.1-1,4.3-1.6,6.1-1.9
		c1.8-0.3,3.4-0.3,4.5-0.3c0.5,0,1,0.1,1.2,0.1C240.3,258.3,240.5,258.4,240.5,258.4z"/>
</g>
<g>
	<path class="st2" d="M202.6,274.1c0,0,0.6-0.4,1.5-0.8c0.9-0.4,2.2-0.9,3.5-1.2c1.3-0.3,2.7-0.5,3.7-0.5c1-0.1,1.7,0,1.7,0
		s-0.6,0.3-1.6,0.6c-1,0.3-2.3,0.7-3.6,1c-1.3,0.3-2.6,0.6-3.6,0.7C203.4,274.1,202.6,274.1,202.6,274.1z"/>
</g>
<g>
	<path class="st2" d="M127.4,218.1c-1,1.6-1.6,3.4-1.8,5.2c-0.2,1.8-0.2,3.7,0,5.6l0.5,5.6c0.2,1.9,0.2,3.7,0.2,5.6
		c0,3.7-0.4,7.5-1.1,11.1c-0.7,3.7-1.9,7.2-2,10.9c0,1.8,0.2,3.7,0.4,5.5c0.3,1.8,0.5,3.7,0.6,5.6c0.3,3.7,0.3,7.5,0.1,11.2
		c-0.1,3.7-0.4,7.5-0.6,11.2l-0.8,11.1l-1.5,22.3c-0.3,3.7-0.5,7.4-0.5,11.1c0,1.8,0,3.7,0.1,5.5l0.2,2.8l0.3,2.8
		c0.8,7.4,2.1,14.7,2.8,22.2c0.3,3.7,0.5,7.5,0.3,11.2c-0.2,3.8-0.8,7.5-2,11.1l0-0.3c0.5,2,0.5,4,0.2,6c-0.3,2-0.9,3.9-1.5,5.7
		l-1.9,5.5c-0.6,1.8-1,3.7-1.3,5.6c-0.6,3.8-0.8,7.7-0.8,11.5c0,3.9,0.2,7.7,0.5,11.6c0.9,15.5,1.7,31,2.6,46.5
		c-1.1-15.5-2.3-31-3.3-46.4c-0.5-7.7-1.1-15.5,0.1-23.3c0.3-1.9,0.7-3.9,1.3-5.7c0.6-1.9,1.3-3.7,1.9-5.5c0.6-1.8,1.1-3.7,1.4-5.5
		c0.3-1.9,0.3-3.8-0.2-5.6l0-0.1l0-0.1c1.1-3.5,1.7-7.2,1.9-10.8c0.2-3.7,0-7.4-0.3-11.1c-0.7-7.4-2.1-14.7-2.9-22.1l-0.3-2.8
		l-0.2-2.8c-0.1-1.9-0.1-3.8-0.1-5.6c0.1-3.7,0.3-7.5,0.6-11.2l1.6-22.3l0.8-11.1c0.3-3.7,0.6-7.4,0.7-11.1c0.2-3.7,0.2-7.4,0-11.1
		c-0.1-1.8-0.3-3.7-0.5-5.5c-0.2-1.8-0.5-3.7-0.4-5.6c0.1-3.8,1.4-7.4,2.1-11c0.7-3.6,1.2-7.3,1.3-11c0-1.9,0-3.7-0.1-5.6l-0.5-5.6
		c-0.1-1.9-0.2-3.7,0.1-5.6C125.8,221.5,126.4,219.7,127.4,218.1z"/>
</g>
<g>
	<path class="st0" d="M163.3,200.9c1,5.1-1.8,10.3-1.1,15.5c0.3,1.8,0.9,3.5,1.4,5.3c0.6,2.7,0.6,5.5,0.6,8.3c0,6.5,0,13,0,19.6
		c0,3.6,0,7.3,1.7,10.4c1.3,2.4,3.3,4.2,5.4,6c1.3,1.2,2.8,2.3,4.5,2.8c2.3,0.6,4.7,0,6.9-0.7c2.5-0.7,5-1.5,7.1-3
		c6.7-4.8,6.7-14.7,10.8-21.9c-0.8-1.9,0-4,0.6-6c0.9-3,1.1-6.2,1.3-9.4c0.5-7.3,1.1-14.6,1.6-21.9c0.1-1.3,0-3.7-1.3-3.8
		c-3.7-2.6-8.5-3-13.1-3.3c-8.6-0.5-17.3-1.1-25.9-1.6L163.3,200.9z"/>
	<path class="st2" d="M163.3,200.9c0.5,2.3,0.1,4.7-0.3,7c-0.4,2.3-0.9,4.6-0.9,6.9c0,2.4,0.9,4.5,1.5,6.8c0.5,2.3,0.6,4.7,0.7,7
		l0.1,14.1l0,7c0,2.3,0.1,4.7,0.6,6.9c0.3,1.1,0.6,2.2,1.2,3.2c0.5,1,1.3,1.9,2,2.8c0.8,0.8,1.6,1.6,2.5,2.4
		c0.9,0.8,1.8,1.5,2.7,2.2c0.9,0.6,2,1.1,3.1,1.3c1.1,0.2,2.2,0,3.4-0.2c1.1-0.2,2.2-0.6,3.4-0.9c1.1-0.3,2.2-0.7,3.3-1.1
		c1.1-0.4,2.1-1,3-1.6c0.9-0.7,1.8-1.5,2.5-2.4c1.4-1.8,2.4-3.9,3.2-6.1c1.6-4.4,2.5-9,4.9-13.3l0,0.5c-0.4-0.9-0.5-1.9-0.3-2.9
		c0.1-0.9,0.4-1.8,0.6-2.6c0.5-1.7,0.9-3.3,1.1-5c0.2-1.7,0.4-3.4,0.5-5.2l0.4-5.2l0.8-10.5l0.4-5.2c0.1-0.9,0.2-1.7,0.1-2.5
		c0-0.8-0.4-1.6-0.7-1.6l-0.1,0l-0.2-0.1c-2.6-1.9-5.8-2.6-9.1-3c-1.6-0.2-3.3-0.3-4.9-0.4l-4.9-0.4l-9.9-0.7l-9.9-0.8l0.1-0.1
		L163.3,200.9z M163.2,200.9l0.6-3.7l0-0.1l0.1,0l9.9,0.4l9.9,0.5c3.3,0.2,6.6,0.3,9.9,0.6c1.7,0.2,3.3,0.4,5,0.9
		c1.6,0.5,3.2,1.2,4.6,2.1l-0.3-0.1c0.3,0,0.7,0.2,1,0.4c0.2,0.2,0.4,0.5,0.5,0.7c0.2,0.5,0.3,1,0.4,1.4c0.1,0.9,0,1.9,0,2.7
		l-0.4,5.2l-0.8,10.5l-0.4,5.2c-0.1,1.7-0.3,3.5-0.5,5.3c-0.2,1.7-0.6,3.5-1.2,5.2c-0.3,0.8-0.5,1.6-0.6,2.5
		c-0.1,0.8-0.1,1.6,0.2,2.3l0.1,0.2l-0.1,0.2c-2.3,4-3.3,8.6-4.9,13.1c-0.8,2.2-1.9,4.4-3.4,6.3c-0.7,1-1.7,1.8-2.6,2.5
		c-1,0.7-2.1,1.3-3.2,1.7c-1.1,0.5-2.2,0.8-3.4,1.2c-1.1,0.3-2.3,0.7-3.4,0.9c-1.2,0.2-2.4,0.4-3.6,0.2c-1.2-0.2-2.4-0.7-3.4-1.4
		c-1-0.7-1.9-1.5-2.8-2.3c-0.9-0.8-1.8-1.6-2.6-2.5c-0.8-0.9-1.5-1.8-2.1-2.9c-0.6-1.1-1-2.2-1.2-3.4c-0.5-2.3-0.6-4.7-0.6-7.1l0-7
		l0-14.1c0-2.3-0.1-4.7-0.6-7c-0.5-2.2-1.5-4.5-1.4-6.9c0-2.4,0.5-4.7,0.9-7C163.3,205.6,163.6,203.2,163.2,200.9L163.2,200.9z"/>
</g>
<g>
	<path class="st2" d="M167.8,205.6c0,0,0.5-0.1,1.4-0.1c0.9-0.1,2.1-0.2,3.6-0.2c3-0.2,7-0.3,11-0.3c1,0,2,0,3,0.1
		c0.5,0,1,0.1,1.5,0.2c0.3,0,0.5,0.1,0.8,0.2c0.2,0.1,0.5,0.1,0.7,0.2c1,0.3,1.8,0.7,2.5,1.2c0.8,0.4,1.4,0.9,2.1,1.3
		c0.6,0.4,1.2,0.8,1.7,1.1c0.5,0.3,1,0.6,1.4,0.7c0.8,0.4,1.3,0.5,1.3,0.5s-0.1,0-0.4-0.1c-0.2,0-0.6-0.1-1-0.3
		c-0.8-0.3-2-0.8-3.3-1.5c-0.7-0.3-1.4-0.7-2.1-1.1c-0.8-0.4-1.6-0.7-2.4-1c-0.2-0.1-0.5-0.1-0.7-0.2c-0.2,0-0.4-0.1-0.7-0.1
		c-0.5-0.1-0.9-0.1-1.4-0.1c-1-0.1-1.9,0-2.9,0c-4,0-8-0.1-11-0.2c-1.5-0.1-2.7-0.2-3.6-0.2C168.3,205.7,167.8,205.6,167.8,205.6z"
		/>
</g>
<g>
	<path class="st0" d="M61.1,331.9c4.3,4.6,11.5,4.5,17.8,4.2c5.5-0.3,11-0.7,16.6-1c8.8,14.5,8.7,32.5,8.3,49.5
		c-0.1,3.7-0.2,7.3-0.2,11c0,1.7-0.1,3.4-1,4.8c-1.3,1.9-3.8,2.5-6.1,2.9c-9.1,1.6-18.3,3.2-27.4,1.8c-3-0.5-6.2-1.4-8.3-3.6
		c-2.1-2.2-2.9-6-0.9-8.3"/>
	<path class="st2" d="M61.1,331.8l0.8,0.8l0.9,0.7c0.6,0.4,1.2,0.8,1.9,1.1c1.3,0.6,2.8,1,4.2,1.3c0.7,0.1,1.5,0.2,2.2,0.3
		c0.7,0.1,1.5,0.1,2.2,0.1c1.5,0,2.9,0,4.4-0.1l17.7-1.2l0.2,0l0.1,0.1c0.6,1.1,1.3,2.2,1.8,3.3c0.5,1.1,1.1,2.2,1.6,3.4l0.7,1.7
		l0.6,1.8c0.4,1.2,0.7,2.4,1.1,3.6c0.3,1.2,0.6,2.4,0.9,3.7c0.2,1.2,0.5,2.5,0.7,3.7c0.4,2.5,0.7,5,0.9,7.5c0.2,2.5,0.3,5,0.4,7.5
		c0.1,2.5,0.1,5,0.1,7.5l-0.2,15c0,1.3,0,2.5-0.1,3.8c-0.1,1.3-0.5,2.7-1.4,3.8c-1,1.1-2.2,1.7-3.5,2.1c-1.3,0.4-2.5,0.6-3.7,0.8
		c-4.9,0.9-9.9,1.7-14.9,1.9c-2.5,0.1-5,0.1-7.5,0c-2.5-0.2-5-0.5-7.4-1.3c-2.4-0.8-4.8-2.1-6.1-4.4c-0.6-1.1-1-2.4-1-3.7
		c0-1.3,0.4-2.6,1.2-3.5l0.1,0.1c-0.8,1-1.1,2.2-1,3.4c0.1,1.2,0.5,2.4,1.1,3.4c1.3,2.1,3.6,3.3,5.9,4c2.4,0.7,4.8,0.9,7.3,1.1
		c2.5,0.1,4.9,0.1,7.4-0.1c4.9-0.4,9.8-1.2,14.8-2.1c1.2-0.2,2.5-0.4,3.6-0.8c1.1-0.3,2.2-0.9,2.9-1.7c1.5-1.7,1.1-4.4,1.3-6.9
		l0.4-15c0-2.5,0-5,0-7.5c-0.1-2.5-0.1-5-0.3-7.5c-0.2-2.5-0.4-5-0.8-7.4c-0.2-1.2-0.4-2.4-0.6-3.7c-0.3-1.2-0.5-2.4-0.8-3.6
		c-0.3-1.2-0.6-2.4-1-3.6l-0.6-1.8l-0.7-1.7c-0.9-2.3-2.1-4.5-3.3-6.7l0.3,0.1l-17.7,1c-1.5,0.1-3,0.1-4.4,0c-0.7,0-1.5-0.1-2.2-0.1
		c-0.7-0.1-1.5-0.2-2.2-0.3c-1.5-0.3-2.9-0.7-4.2-1.3c-0.7-0.3-1.3-0.7-1.9-1.1c-0.3-0.2-0.6-0.5-0.9-0.7L61.1,331.8L61.1,331.8z"/>
</g>
<g>
	<path class="st3" d="M243.1,282.6c-0.7,4.3-16.9,35.4-19.7,40.1c-2.1,3.4-10.9,14.3-12.7,16.8c-1.6,2.2-0.9,3.3-1.8,5.9
		c-1.4,4-3.2,5.5-6.1,8.5c-2.9,3-7.2,4.9-11.3,4.3c-1.7-0.3-3.2-0.9-4.8-1.5c-3.8-1.6-7.7-3.2-11.5-4.7c-4.1-1.7-8.6-3.4-12.8-2.1
		c-1.7,0.5-3.2,1.5-4.9,1.7c-2.8,0.3-5.7-1.6-6.4-4.3c-0.3-0.9-0.3-2,0.3-2.7c0.3-0.5,0.9-0.8,1.4-1.1c2.7-1.5,5.3-3,8-4.5
		c6.4-3.6,13.3-5,20.6-5.1c2.1,0,4.3-0.2,6.2-1c1.3-0.6,2.8-1.3,3.5-2.5c10.9-16.7,21.5-32.6,25-51.8c0,0,0.5-1.3,12.2-0.1
		C232,278.7,243.1,282.6,243.1,282.6z"/>
	<g>
		<path class="st4" d="M243.1,282.6c-0.3,1.2-0.8,2.4-1.2,3.6c-0.5,1.2-1,2.3-1.5,3.5c-1,2.3-2.1,4.6-3.2,6.9
			c-2.2,4.6-4.5,9.1-6.8,13.6l-3.5,6.8c-1.2,2.2-2.3,4.5-3.7,6.7c-2.9,4.2-6,8.2-9.1,12.2l-2.3,3c-0.8,1-1.5,1.9-1.7,3.1
			c-0.1,0.6-0.2,1.2-0.3,1.9c-0.1,0.7-0.3,1.3-0.5,1.9c-0.4,1.2-1,2.4-1.7,3.5c-0.7,1.1-1.6,2.1-2.5,3c-0.9,0.9-1.8,1.8-2.7,2.7
			c-2,1.7-4.3,3-6.9,3.6c-1.3,0.3-2.6,0.3-4,0.1c-1.3-0.2-2.6-0.6-3.8-1.1l-7-2.9l-7-2.9c-2.3-0.9-4.7-1.8-7.2-2
			c-1.2-0.1-2.4,0-3.6,0.3c-1.2,0.3-2.3,0.9-3.5,1.3c-1.2,0.4-2.7,0.7-4,0.3c-1.3-0.3-2.5-1.1-3.4-2.1c-0.9-1-1.5-2.3-1.5-3.7
			c0-0.7,0.2-1.5,0.8-2c0.5-0.5,1.1-0.8,1.7-1.1l6.6-3.7c4.4-2.6,9.3-4.3,14.4-5.1c2.5-0.4,5.1-0.6,7.6-0.6c1.3,0,2.5-0.1,3.7-0.3
			c1.2-0.2,2.3-0.7,3.4-1.3c0.5-0.3,1.1-0.6,1.5-1c0.4-0.4,0.7-0.9,1.1-1.5l2.1-3.2l4.1-6.4c2.7-4.3,5.4-8.6,7.8-13
			c4.9-8.9,8.8-18.3,10.6-28.3l0,0l0,0c0.2-0.2,0.3-0.2,0.4-0.3c0.1-0.1,0.3-0.1,0.4-0.1c0.3-0.1,0.6-0.1,0.9-0.1
			c0.6-0.1,1.2-0.1,1.7-0.1c1.2,0,2.3,0,3.5,0.1c1.2,0.1,2.3,0.2,3.5,0.3l1.7,0.2c0.6,0.1,1.1,0.2,1.7,0.3c2.3,0.5,4.5,1.2,6.7,1.9
			C238.7,281,240.9,281.8,243.1,282.6L243.1,282.6L243.1,282.6z M243,282.6c-2.2-0.8-4.4-1.5-6.6-2.2c-2.2-0.7-4.4-1.3-6.7-1.8
			c-0.6-0.1-1.1-0.2-1.7-0.3l-1.7-0.2c-1.2-0.1-2.3-0.2-3.5-0.3c-1.2-0.1-2.3-0.1-3.5-0.1c-0.6,0-1.2,0-1.7,0.1
			c-0.3,0-0.6,0.1-0.8,0.1c-0.2,0.1-0.6,0.2-0.7,0.3l0,0c-1.8,10-5.7,19.6-10.5,28.5c-2.4,4.5-5,8.8-7.7,13.1l-4.1,6.4l-2.1,3.2
			l-0.5,0.8c-0.2,0.3-0.4,0.5-0.7,0.8c-0.5,0.5-1,0.8-1.6,1.1c-1.1,0.6-2.3,1.2-3.6,1.4c-1.3,0.3-2.6,0.3-3.8,0.4
			c-2.5,0.1-5,0.2-7.5,0.6c-5,0.8-9.8,2.4-14.1,5l-6.6,3.8c-0.6,0.3-1.1,0.6-1.5,1c-0.4,0.4-0.5,0.9-0.5,1.5c0,1.1,0.5,2.3,1.3,3.2
			c0.8,0.9,1.8,1.5,3,1.8c0.3,0.1,0.6,0.1,0.9,0.1c0.3,0,0.6,0,0.9,0c0.6-0.1,1.2-0.2,1.7-0.4c1.2-0.4,2.3-1,3.6-1.3
			c1.3-0.3,2.6-0.4,3.9-0.3c2.6,0.2,5.1,1,7.5,2l7.1,2.9l7,2.9c1.2,0.5,2.3,0.9,3.5,1c1.2,0.2,2.4,0.1,3.6-0.1
			c2.4-0.5,4.6-1.7,6.4-3.3c0.9-0.8,1.8-1.8,2.7-2.7c0.9-0.9,1.7-1.8,2.4-2.8c0.7-1,1.2-2.1,1.6-3.3c0.5-1.1,0.5-2.3,0.7-3.6
			c0.1-0.7,0.4-1.3,0.7-1.9c0.4-0.6,0.8-1.1,1.1-1.6l2.4-3c3.1-4,6.3-7.9,9.2-12c1.4-2.1,2.5-4.4,3.8-6.6l3.6-6.7
			c2.4-4.5,4.7-9,7-13.5c1.1-2.3,2.3-4.5,3.3-6.8c0.5-1.1,1.1-2.3,1.6-3.5C242.2,285,242.7,283.8,243,282.6z"/>
	</g>
</g>
<g>
	<path class="st2" d="M200.3,255.3c0,0,0.1-0.3,0.4-0.9c0.3-0.6,0.6-1.5,1-2.7c0.8-2.3,1.8-5.6,2.5-9.7c0.4-2.1,0.6-4.3,0.8-6.7
		c0.1-2.4,0.1-4.9-0.1-7.5c-0.2-2.6-0.4-5.3-0.3-8.1c0.1-2.8,0.9-5.6,1.8-8.3c0.9-2.6,1.7-5.2,2.1-7.9c0.4-2.7,0.6-5.4,0.7-8
		c0.1-5.2,0.3-10.1,0.4-14.3c0.1-4.2,0.2-7.7,0.3-10.1c0.1-2.4,0.2-3.8,0.2-3.8s0,1.4,0.1,3.8c0,2.4,0.1,5.9,0.1,10.1
		c0,2.1,0,4.4,0,6.8c0,2.4,0,4.9,0,7.6c-0.1,2.6-0.2,5.4-0.7,8.1c-0.4,2.7-1.2,5.5-2.1,8.1c-0.9,2.6-1.7,5.2-1.8,7.9
		c-0.2,2.7,0.1,5.4,0.2,8c0.3,5.3-0.2,10.2-1.1,14.3c-0.8,4.1-2,7.4-2.9,9.7c-0.5,1.1-0.9,2-1.1,2.6
		C200.4,255,200.3,255.3,200.3,255.3z"/>
</g>
<g>
	<path class="st2" d="M212.8,200.2c0,0,0.1,0.5,0.2,1.3c0.1,0.8,0.3,2,0.5,3.3c0.2,1.4,0.3,3,0.4,4.8c0.1,1.7,0.1,3.6,0.1,5.5
		c0,0.9-0.1,1.9-0.1,2.8c0,0.9-0.1,1.8-0.2,2.7c-0.1,1.7-0.3,3.4-0.5,4.8c-0.2,1.4-0.4,2.5-0.6,3.3c-0.2,0.8-0.3,1.3-0.3,1.3
		s0-0.5,0-1.3c0-0.8,0.1-2,0.1-3.4c0.1-1.4,0.1-3,0.2-4.7c0-1.7,0.1-3.6,0.1-5.4c0-1.9,0-3.7,0-5.4c0-1.7,0-3.4-0.1-4.8
		c0-1.4,0-2.6,0-3.4C212.8,200.6,212.8,200.2,212.8,200.2z"/>
</g>
<g>
	<path class="st2" d="M235.9,218.9c0,0-0.2,0.5-0.5,1.4c-0.3,0.9-0.7,2.2-1.1,3.7c-0.3,1.6-0.6,3.4-0.7,5.4c0,1,0,2,0,3.1
		c0,0.5,0.1,1,0.1,1.6c0,0.5,0.2,1.1,0,1.9c-0.1,0.4-0.4,0.7-0.6,0.9c-0.2,0.2-0.4,0.3-0.5,0.5c-0.3,0.3-0.4,0.7-0.5,1.2
		c-0.1,0.9,0,2-0.1,3c0,1.1-0.3,2.1-0.6,3c-0.3,0.9-0.8,1.7-1.3,2.4c-1,1.4-2.1,2.2-2.9,2.7c-0.4,0.2-0.7,0.4-1,0.5
		c-0.2,0.1-0.4,0.2-0.4,0.2s0.1-0.1,0.3-0.2c0.2-0.1,0.5-0.4,0.9-0.6c0.7-0.6,1.7-1.5,2.5-2.9c0.4-0.7,0.7-1.5,1-2.3
		c0.3-0.9,0.4-1.8,0.4-2.7c0-1-0.2-2,0-3.2c0.1-0.6,0.3-1.2,0.7-1.7c0.5-0.5,0.9-0.8,0.9-1c0.1-0.3,0-0.8,0-1.3
		c-0.1-0.5-0.1-1.1-0.1-1.6c0-1.1,0-2.1,0.1-3.2c0.2-2.1,0.6-3.9,1.1-5.5c0.5-1.6,1.1-2.8,1.5-3.6c0.2-0.4,0.4-0.7,0.5-1
		C235.8,219,235.9,218.9,235.9,218.9z"/>
</g>
<g>
	<path class="st2" d="M232.8,248.7c0.9-1.9,2.1-3.7,3.2-5.5c0.6-0.9,1.2-1.7,1.9-2.6c0.6-0.9,1.3-1.7,2-2.5l0,0l0,0
		c1.1-0.9,2.3-1.5,3.1-2.3c0.1-0.1,0.2-0.2,0.3-0.3c0.1-0.1,0.2-0.2,0.3-0.4c0.2-0.3,0.3-0.5,0.4-0.8c0.2-0.6,0.3-1.2,0-1.8
		c0.2,0.3,0.4,0.6,0.4,0.9c0.1,0.3,0.1,0.7,0,1c-0.1,0.3-0.2,0.7-0.3,1c-0.1,0.2-0.2,0.3-0.3,0.5c-0.1,0.2-0.2,0.3-0.3,0.4
		c-0.9,1.1-2.1,1.8-2.9,2.6l0-0.1l-2,2.5l-2,2.5c-0.7,0.8-1.3,1.6-2,2.5C234.2,247.1,233.6,247.9,232.8,248.7z"/>
</g>
<g>
	<path class="st2" d="M202.3,198.2c0,0,0-0.4-0.2-1.1c-0.1-0.3-0.2-0.8-0.4-1.2c-0.2-0.5-0.4-1-0.6-1.5c-0.5-1.1-1.1-2.4-1.7-3.9
		c-0.3-0.7-0.5-1.5-0.7-2.3c-0.2-0.8-0.3-1.6-0.4-2.5c-0.2-1.7-0.2-3.3-0.3-4.9c0-0.8,0-1.5,0-2.2c0-0.7,0-1.4,0-2
		c0-1.2,0.1-2.3,0.2-3c0-0.7,0.1-1.1,0.1-1.1s0.1,0.4,0.1,1.1c0.1,0.7,0.2,1.7,0.3,3c0.1,1.2,0.2,2.7,0.3,4.2
		c0.1,1.5,0.2,3.2,0.4,4.8c0.1,0.8,0.2,1.6,0.4,2.4c0.2,0.8,0.4,1.5,0.6,2.2c0.5,1.4,1,2.8,1.3,4c0.4,1.2,0.5,2.3,0.6,3
		c0,0.4,0,0.7,0,0.8C202.3,198.1,202.3,198.2,202.3,198.2z"/>
</g>
<g>
	<path class="st2" d="M196.8,189.1c0,0,0,0.2,0.1,0.4c0.1,0.3,0.1,0.7,0.2,1.3c0.1,1.1,0.3,2.8,0.2,5c-0.1,2.1-0.5,4.7-1.1,7.7
		c-0.6,2.9-1.3,6.2-2.1,9.8c-0.8,3.6-1.6,7.5-2.7,11.6c-1,4.1-2.6,8.3-4.4,12.5c-1.8,4.2-3.8,8.5-5.2,13.1
		c-1.5,4.5-1.9,9.4-2.3,14.3c-0.4,4.9-0.8,9.8-1.2,14.6c-0.4,4.8-0.7,9.6-1.6,14.1c-0.8,4.6-2.6,8.8-4.6,12.5c-2,3.7-4,7.2-5.6,10.4
		c-3.3,6.5-5.4,12.3-6.7,16.4c-0.6,2-1.1,3.7-1.4,4.8c-0.3,1.1-0.4,1.7-0.4,1.7s0.1-0.6,0.4-1.7c0.3-1.1,0.7-2.8,1.2-4.8
		c1.2-4.1,3.1-10,6.3-16.6c1.6-3.3,3.6-6.8,5.4-10.5c1.9-3.7,3.5-7.8,4.4-12.3c0.9-4.5,1.1-9.2,1.5-14c0.4-4.8,0.8-9.7,1.1-14.6
		c0.4-4.9,0.9-9.8,2.4-14.5c1.5-4.6,3.5-9,5.3-13.2c1.9-4.2,3.5-8.3,4.5-12.3c1.1-4,2-7.9,2.8-11.5c0.9-3.6,1.6-6.8,2.3-9.7
		c0.7-2.9,1.1-5.5,1.3-7.6c0.2-2.1,0.1-3.8,0-5c-0.1-0.6-0.1-1-0.2-1.3C196.8,189.2,196.8,189.1,196.8,189.1z"/>
</g>
<g>
	<path class="st2" d="M145.1,258c0,0,0.4,1,1.1,2.7c0.7,1.7,1.7,4.2,2.9,7.1c1.2,3,2.6,6.4,4,10.1c0.7,1.9,1.5,3.8,2.1,5.8
		c0.7,2,1.1,4.2,1.4,6.3c0.2,2.1,0.3,4.3,0.4,6.3c0.1,2.1,0.2,4.1,0.3,6.1c0.2,4,0.4,7.7,0.5,10.9c0.1,3.2,0.2,5.8,0.3,7.7
		c0,1.9,0.1,2.9,0.1,2.9s-0.1-1.1-0.3-2.9c-0.2-1.9-0.4-4.5-0.7-7.7c-0.2-3.2-0.6-6.9-0.9-10.8c-0.1-2-0.3-4-0.4-6.1
		c-0.2-2.1-0.3-4.2-0.5-6.3c-0.2-2.1-0.6-4.1-1.2-6.1c-0.6-2-1.4-3.9-2-5.8c-1.4-3.7-2.6-7.3-3.6-10.3c-1.1-3-1.9-5.5-2.5-7.3
		C145.4,259,145.1,258,145.1,258z"/>
</g>
<g>
	<path class="st2" d="M96.4,329.5c0,0-0.1-0.3-0.3-0.8c-0.1-0.5-0.2-1.3,0-2.3c0.2-1,0.6-2.2,1.2-3.5c0.5-1.3,1.2-2.7,1.4-4.4
		c0.1-0.8,0.1-1.7-0.1-2.6c-0.2-0.9-0.3-1.9-0.2-2.9c0.1-2,0.6-4.1,1.1-6.2c1.1-4.2,2.5-8.6,4.1-12.9c0.8-2.2,1.6-4.3,2.4-6.4
		c0.8-2.1,1.6-4.2,2.2-6.2c0.7-2,1.2-4,1.5-5.9c0.3-1.9,0.3-3.8,0-5.4c-0.3-1.7-0.7-3.2-1.1-4.5c-0.4-1.3-0.7-2.5-0.9-3.5
		c-0.2-1-0.3-1.8-0.3-2.3c0-0.5,0-0.8,0-0.8s0,0.3,0.1,0.8c0.1,0.5,0.2,1.3,0.5,2.3c0.3,1,0.6,2.1,1.1,3.4c0.5,1.3,1,2.8,1.3,4.5
		c0.3,1.7,0.4,3.7,0.2,5.6c-0.2,2-0.7,4.1-1.4,6.1c-0.7,2.1-1.4,4.2-2.2,6.3c-0.8,2.1-1.5,4.3-2.3,6.5c-1.6,4.3-3.1,8.6-4.2,12.8
		c-0.5,2.1-1.1,4.1-1.2,6c-0.1,1,0,1.9,0.1,2.8c0.1,0.9,0.2,1.9,0,2.8c-0.3,1.8-1.1,3.2-1.7,4.5c-0.6,1.3-1.1,2.4-1.4,3.3
		c-0.2,1-0.2,1.8-0.2,2.3C96.3,329.2,96.4,329.5,96.4,329.5z"/>
</g>
<g>
	<path class="st3" d="M30.8,273.7c0.5,0.9,4.2,8.2,5.1,8.6c8.5,3.3,53,0.5,55.4-0.2c2.5-0.7,34.5-5.3,43.4-8.8
		c0.8-0.3,1.7-0.7,2.7-0.6c0.9,0.1,1.8,0.5,2.7,1c3,1.6,6.1,3.2,9.1,4.9c3.1,1.6,6.3,3.3,9.6,3.9c9.3,1.7,15.8-5.6,22.2-11.7
		c0.5-0.5,2.8-1.9,3-2.6c0.2-0.7,2.8-3.7,2.6-4.4c-0.5-1.9-1.6-2.7-5.5-1.4c-0.9,0.3-1.4-1.6-2.4-2.1c-3.1-1.5-6.4,0.5-9.3,1.9
		s-11.6,1.2-13.1-2c13.5,0.6,9.4-5,5.5-7.4c-2.3-1.4-4.2-1.2-6.6-2.3c-2.4-1.1-5.9-1.4-7.8-3.3c-1-1.1-3.2-2.6-4.5-3.3
		c-1.6-0.8-4.5-1.2-6.1-0.8c-6.6,1.8-9.5,4-14.7,8.2c-1.2,0.9-2.3,1.9-3.7,2.6c-3.7,1.8-24.8,1.9-30.7,3
		c-12.5,2.5-18.7-6.1-31.9-4.3c-3.9-2-8.5-2.7-12.8-1.9s-8.3,3.3-10.8,6.9c-2.2,3.1-3.1,6.9-3.6,10.7c-0.1,1.2-0.2,2.4,0.2,3.6
		c0.4,1.1,1.3,2.2,2.5,2.3"/>
	<path class="st4" d="M30.9,273.7c1,1.9,2,3.8,3.1,5.6c0.5,0.9,1.1,1.9,1.8,2.7c0.1,0.1,0.2,0.2,0.3,0.2l0.4,0.1
		c0.3,0.1,0.5,0.2,0.8,0.2c0.5,0.1,1,0.2,1.6,0.3c4.2,0.7,8.5,0.8,12.8,0.8c8.6,0.1,17.1-0.2,25.7-0.7c4.3-0.2,8.6-0.5,12.8-0.9
		c4.2-0.8,8.4-1.5,12.6-2.2c4.2-0.7,8.4-1.5,12.7-2.3c4.2-0.8,8.4-1.6,12.6-2.6c2.1-0.5,4.2-1,6.1-1.8c1-0.3,2-0.9,3.2-0.9
		c1.2,0,2.2,0.6,3.1,1.1l11.4,6c1.9,1,3.8,1.8,5.9,2.4c2,0.5,4.2,0.7,6.2,0.3c4.2-0.7,7.7-3.3,10.9-6c1.6-1.4,3.1-2.9,4.7-4.4
		l1.2-1.1c0.2-0.2,0.4-0.4,0.7-0.5l0.6-0.5c0.4-0.3,0.9-0.6,1.2-1c0.2-0.2,0.4-0.3,0.5-0.5c0,0,0-0.1,0-0.1c0-0.1,0.1-0.2,0.1-0.3
		c0.1-0.1,0.1-0.3,0.2-0.4c0.6-0.9,1.3-1.8,1.8-2.7c0.2-0.4,0.6-0.9,0.4-1.1c-0.1-0.5-0.3-0.9-0.6-1.2c-0.6-0.5-1.7-0.4-2.7-0.2
		c-0.5,0.1-1,0.3-1.5,0.4l-0.1,0c0,0-0.1,0-0.1,0c-0.1,0-0.2,0-0.4,0c-0.2-0.1-0.4-0.2-0.5-0.3c-0.3-0.2-0.4-0.5-0.6-0.7
		c-0.3-0.4-0.6-0.9-0.9-1.1c0,0-0.1-0.1-0.1-0.1l-0.2-0.1l-0.4-0.2c-0.2-0.1-0.4-0.1-0.7-0.2c-1-0.2-2-0.1-3,0.2
		c-1,0.3-1.9,0.7-2.9,1.2c-1,0.4-1.9,1-3,1.3c-2.2,0.5-4.4,0.5-6.6,0.3c-1.1-0.1-2.2-0.4-3.2-0.8c-1-0.4-2.1-1-2.8-2.1l-0.4-0.7
		l0.9,0c1.3,0.1,2.7,0.1,4,0c1.3-0.1,2.6-0.3,3.7-0.8c0.5-0.3,0.9-0.7,1-1.1c0.1-0.5-0.1-1-0.4-1.6c-0.6-1-1.6-1.9-2.7-2.7
		c-1.1-0.8-2.2-1.2-3.5-1.5c-0.6-0.2-1.3-0.3-2-0.5c-0.7-0.2-1.4-0.5-1.9-0.8c-1.2-0.5-2.5-0.8-3.8-1.2c-1.3-0.4-2.7-0.9-3.7-2
		c-0.9-0.9-2-1.7-3.1-2.4c-0.5-0.4-1.1-0.7-1.7-1c-0.5-0.2-1.2-0.4-1.8-0.5c-1.3-0.2-2.6-0.3-3.7,0c-1.3,0.4-2.5,0.8-3.8,1.3
		c-2.5,1-4.7,2.3-6.9,3.9c-1.1,0.8-2.1,1.6-3.2,2.5c-1.1,0.8-2.1,1.7-3.3,2.5c-0.6,0.4-1.2,0.7-2,0.9c-0.7,0.2-1.4,0.3-2,0.4
		c-1.4,0.2-2.7,0.4-4,0.5c-2.7,0.2-5.4,0.4-8.1,0.6l-8.1,0.5c-2.7,0.2-5.4,0.3-8,0.8c-2.7,0.5-5.5,0.5-8.2,0.1
		c-2.7-0.4-5.3-1.3-7.8-2.2c-2.5-0.9-5.1-1.7-7.7-2.2c-2.6-0.5-5.3-0.5-7.9-0.2l-0.1,0l-0.1-0.1c-3.2-1.7-7-2.5-10.7-2.2
		c-0.9,0.1-1.8,0.2-2.7,0.4c-0.9,0.2-1.8,0.5-2.6,0.8c-1.7,0.7-3.3,1.7-4.7,2.9c-1.4,1.2-2.6,2.6-3.5,4.3c-0.9,1.6-1.5,3.4-2,5.2
		c-0.2,0.9-0.4,1.8-0.6,2.7c-0.1,0.9-0.3,1.8-0.3,2.8c0,0.9,0.1,1.9,0.6,2.7c0.4,0.8,1.2,1.5,2.1,1.5l0,0.1c-1-0.1-1.8-0.8-2.3-1.6
		c-0.5-0.8-0.6-1.8-0.6-2.7c0-0.9,0.1-1.9,0.3-2.8c0.1-0.9,0.3-1.9,0.5-2.8c0.4-1.8,1-3.6,1.9-5.3c0.9-1.7,2.1-3.2,3.5-4.4
		c1.4-1.3,3.1-2.3,4.8-3c0.9-0.4,1.8-0.7,2.7-0.9c0.9-0.2,1.9-0.4,2.8-0.5c3.8-0.3,7.7,0.4,11.1,2.2l-0.2,0c2.7-0.4,5.5-0.3,8.2,0.1
		c2.7,0.4,5.3,1.3,7.8,2.1c2.5,0.9,5.1,1.7,7.7,2.1c2.6,0.4,5.3,0.4,7.9-0.1c2.7-0.5,5.4-0.7,8.1-0.9l8.1-0.5c2.7-0.2,5.4-0.3,8-0.6
		c1.3-0.1,2.7-0.3,4-0.5c0.7-0.1,1.3-0.2,1.9-0.4c0.6-0.1,1.1-0.4,1.7-0.8c1.1-0.7,2.1-1.6,3.2-2.4c1.1-0.8,2.1-1.7,3.2-2.5
		c2.2-1.6,4.6-3.1,7.1-4c1.3-0.5,2.6-0.9,3.9-1.3c1.4-0.4,2.9-0.3,4.3,0c0.7,0.1,1.4,0.3,2.1,0.6c0.7,0.3,1.2,0.7,1.8,1.1
		c1.1,0.8,2.2,1.6,3.2,2.6c0.8,0.9,2.1,1.4,3.3,1.8c1.3,0.4,2.6,0.7,3.9,1.3c1.2,0.6,2.4,0.9,3.7,1.2c0.7,0.2,1.3,0.4,2,0.6
		c0.3,0.1,0.7,0.3,1,0.5c0.3,0.2,0.6,0.4,0.9,0.6c1.1,0.8,2.2,1.7,3,3c0.4,0.6,0.7,1.4,0.5,2.3c-0.2,0.9-0.9,1.5-1.5,1.8
		c-1.3,0.7-2.7,0.8-4.1,0.9c-1.4,0.1-2.7,0.1-4.1,0l0.5-0.7c0.4,0.8,1.3,1.3,2.2,1.7c0.9,0.4,2,0.6,3,0.7c2.1,0.2,4.2,0.2,6.2-0.2
		c0.9-0.2,1.9-0.8,2.9-1.3c1-0.5,2-0.9,3.1-1.2c1.1-0.3,2.2-0.4,3.4-0.2c0.3,0,0.6,0.2,0.9,0.2l0.4,0.2l0.2,0.1
		c0.1,0,0.2,0.1,0.2,0.1c0.6,0.4,0.8,0.9,1.1,1.3c0.1,0.2,0.3,0.4,0.4,0.5c0.1,0.1,0.1,0.1,0.2,0.1c0,0,0,0,0,0c0,0,0,0,0.1,0l0.1,0
		c0.5-0.2,1-0.3,1.6-0.4c0.5-0.1,1.1-0.2,1.7-0.2c0.6,0,1.3,0.1,1.8,0.6c0.5,0.4,0.8,1,0.9,1.6l0.1,0.2c0,0.2,0,0.3,0,0.4
		c0,0.2-0.1,0.3-0.2,0.5c-0.1,0.3-0.3,0.5-0.4,0.7c-0.6,0.9-1.3,1.8-1.8,2.7c-0.1,0.1-0.1,0.2-0.2,0.3c0,0,0,0.1,0,0.1
		c0,0.1-0.1,0.2-0.1,0.3c-0.2,0.3-0.4,0.5-0.6,0.7c-0.4,0.4-0.9,0.7-1.3,1c-0.4,0.3-0.9,0.6-1.2,1l-1.2,1.1c-1.5,1.5-3.1,3-4.7,4.4
		c-1.6,1.4-3.3,2.8-5.2,3.9c-1.9,1.1-3.9,2-6.1,2.3c-2.2,0.4-4.4,0.2-6.5-0.4c-2.1-0.6-4.1-1.5-6-2.4l-11.4-6c-0.9-0.5-1.9-1-2.8-1
		c-1,0-1.9,0.5-3,0.8c-2,0.7-4.1,1.2-6.2,1.8c-4.2,1-8.4,1.8-12.6,2.6c-4.2,0.8-8.4,1.5-12.7,2.2c-4.2,0.7-8.4,1.4-12.7,2.2
		c-4.3,0.4-8.6,0.7-12.8,0.9c-8.6,0.4-17.1,0.7-25.7,0.5c-4.3-0.1-8.6-0.2-12.8-0.9c-0.5-0.1-1.1-0.2-1.6-0.3
		c-0.3-0.1-0.5-0.1-0.8-0.2l-0.4-0.1c-0.1-0.1-0.3-0.2-0.4-0.3c-0.7-0.8-1.2-1.8-1.8-2.7C32.8,277.5,31.8,275.6,30.9,273.7
		L30.9,273.7z"/>
</g>
<g>
	<path class="st2" d="M48.5,156.1c0,0,0.3,1.2,0.9,3.3c0.3,1,0.6,2.3,0.9,3.8c0.3,1.5,0.6,3.1,0.8,5c0.2,1.9,0.2,3.9,0,6
		c-0.2,2.1-0.5,4.3-0.7,6.6c-0.3,2.3-0.4,4.6-0.2,7c0.1,2.4,0.5,4.8,1,7.2c0.4,2.4,1,4.8,1.5,7.2c0.5,2.4,1.1,4.7,1.7,6.8
		c0.7,2.2,1.5,4.2,2.5,6c1,1.8,2.1,3.5,3.1,5c1,1.5,1.9,3,2.5,4.4c0.7,1.4,1.1,2.6,1.3,3.7c0.2,1.1,0.3,1.9,0.3,2.5
		c0,0.6,0,0.9,0,0.9s0-0.3-0.1-0.9c0-0.6-0.2-1.4-0.5-2.4c-0.3-1-0.8-2.2-1.5-3.5c-0.7-1.3-1.6-2.7-2.7-4.2c-1-1.5-2.2-3.1-3.3-5
		c-1.1-1.9-2-3.9-2.7-6.1c-0.7-2.2-1.3-4.5-1.8-6.9c-0.5-2.4-1.1-4.7-1.6-7.2c-0.4-2.4-0.8-4.9-0.9-7.3c-0.1-2.5,0-4.9,0.3-7.2
		c0.3-2.3,0.7-4.5,0.9-6.6c0.2-2.1,0.3-4.1,0.1-5.9c-0.2-3.6-0.8-6.7-1.2-8.8C48.8,157.3,48.5,156.1,48.5,156.1z"/>
</g>
<g>
	<path class="st2" d="M59,179.5c0,0-0.1,0.5-0.3,1.5c-0.2,1-0.4,2.3-0.7,3.9c-0.1,0.8-0.2,1.7-0.2,2.6c0,0.9,0,1.9,0.1,2.9
		c0.2,2,0.7,4.2,1.5,6.2c0.4,1,0.8,2,1.3,2.9c0.3,0.5,0.5,0.9,0.8,1.4c0.3,0.5,0.5,1.1,0.5,1.7c0,0.6,0,1.1,0,1.6c0,0.5,0,1,0,1.4
		c0,0.9,0.1,1.8,0.2,2.6c0.2,1.6,0.5,3,0.8,3.9c0.3,0.9,0.4,1.5,0.4,1.5s-0.3-0.5-0.7-1.4c-0.4-0.9-0.9-2.2-1.2-3.9
		c-0.2-0.8-0.3-1.7-0.4-2.7c0-0.5-0.1-1-0.1-1.5c0-0.5,0-1-0.1-1.5c-0.1-0.5-0.2-0.8-0.5-1.3c-0.3-0.4-0.6-0.9-0.8-1.4
		c-0.5-1-1-2-1.4-3.1c-0.8-2.1-1.3-4.4-1.4-6.5c-0.1-1.1,0-2.1,0-3.1c0.1-1,0.2-1.9,0.4-2.7c0.3-1.7,0.8-3,1.1-3.9
		C58.8,180,59,179.5,59,179.5z"/>
</g>
<path class="st5" d="M152.9,100.4c-0.4-1.2-1.1,0.1-2.7-0.3c-13.9-0.3-27.6-13.6-40.8-7.9c-1.3,0.7-7.3-3.3-8.3-2
	c-0.5,0.8,1.1,2.3,1.1,3.3c0,8.3,3.6,27.3,4.3,40.5c0.3,5.5,8.8,9.6,12.4,12.7c8.4,7.4,6.5,19.9,12,30.6c0.7-3.8,9.6-9.1,11.6-12.3
	c4.1-6.1,10.7-10.6,11.5-18.4c0.3-3.3-0.5-6.6-1.2-9.9c-2.3-10.9-2.4-22.5-0.4-33.6"/>
<path class="st4" d="M151.5,123.2c0,1.7,0.3,3.3,0.4,5c0.1,1.5,0.4,3.1,0.7,4.8c0.3,1.7,0.5,3.1,0.9,4.8c0.4,1.7,0.7,3.3,0.9,5
	c0.3,1.7,0.3,3.5,0,5.1c-0.3,1.8-0.9,3.5-1.6,5c-1.5,3-3.6,5.3-5.5,7.6c-0.9,1.2-1.9,2.3-2.8,3.5c-0.9,1.2-1.9,2.3-2.5,3.6
	c-1.3,2.6-2.4,5.6-2.9,8.8l-0.6,4c0,0-10.6-12.2-14.1-17.5c-1.7-2.6,0.2-8.2-1.8-10.6c-2-2.3-4.1-4.5-6.5-6.1
	c-2.4-1.7-4.9-3.3-7.2-5.6c-1.2-1.2-2.3-2.5-2.9-4.3c-0.1-0.5-0.3-1-0.3-1.5c-0.1-0.5-0.1-0.8-0.1-1.3c0-1,0-1.8-0.1-2.6
	c-0.5-6.9-1.5-13.7-2.4-20.5c-0.4-3.3-0.8-6.8-1.2-10.3c-0.3-1.8-0.4-3.5-0.4-5.3v-0.7v-0.3c0,0,0-0.3,0-0.2c0-0.2-0.3-0.5-0.4-0.8
	c-0.3-0.3-0.5-0.7-0.7-1.3c-0.1-0.3-0.3-0.8,0-1.3l0.1-0.2l0,0c0,0,0,0,0.1-0.2l0.1-0.2c0,0,0.1-0.2,0.3-0.2
	c0.1-0.2,0.1-0.2,0.3-0.2c0.5-0.2,0.9,0,1.3,0c0.4,0.2,0.7,0.2,1.1,0.3c0.7,0.2,1.3,0.5,2,0.8c0.7,0.3,1.3,0.5,2,0.8
	c0.7,0.2,1.5,0.5,1.7,0.3c2.7-1,5.6-1.5,8.4-1.2c5.7,0.5,11.1,3,16.3,5.1c5.2,2.3,10.5,4.5,16.1,4.8l0,0l0,0l2.7-0.5l-2.7,0.5
	c-5.6,0-11.1-2.2-16.4-4.1c-2.7-1.2-5.3-2.2-8-3c-2.7-0.8-5.5-1.5-8.1-1.7c-2.7-0.2-5.3,0.2-8,1.3c-0.5,0.2-0.9,0-1.3,0
	c-0.4-0.2-0.7-0.2-1.1-0.3c-0.7-0.3-1.3-0.5-2-0.8c-0.7-0.2-1.3-0.5-2-0.7s-1.5-0.5-1.7-0.3l0,0c0.1,0,0.1,0,0.1,0l-0.1,0.2l0.1-0.2
	l0,0c0-0.2,0-0.3,0-0.2s0.1,0.5,0.4,0.8c0.3,0.5,0.5,0.7,0.7,1.5c0,0.3,0,0.2,0,0.5v0.3v0.7c0.1,1.7,0.3,3.5,0.4,5.1
	c0.4,3.5,0.9,6.8,1.3,10.3c0.9,6.8,2,13.6,2.5,20.5c0,1,0.1,1.8,0.1,2.6c0.1,0.5,0.1,1,0.1,1.3c0.1,0.3,0.1,0.7,0.3,1
	c0.4,1.3,1.3,2.5,2.4,3.5c2,2.2,4.5,3.8,6.9,5.5c2.4,1.7,4.7,4,6.8,6.3c2.1,2.5-1.1,9.1,0.7,11.8c4.4,6.9,10.9,6,14.5,13.2
	c0,0,0.3-6.3,1.9-9.1c1.6-3,3.6-5.3,5.6-7.4c2-2.2,4-4.5,5.3-7.1c0.7-1.3,1.2-2.8,1.5-4.3c0.3-1.7,0.1-3.1,0-4.8
	c-0.1-1.7-0.5-3.1-0.8-4.8s-0.5-3.3-0.8-5c-0.3-1.7-0.4-3.3-0.5-5c-0.1-1.7-0.3-3.3-0.3-5c-0.3-6.6,0.3-13.4,1.6-19.8
	C151.4,109.7,151,116.5,151.5,123.2z"/>
<g>
	<path class="st2" d="M65.3,198.2c0,0,0,0.6,0,1.6c0,1,0.1,2.4,0.3,4.1c0.2,1.7,0.6,3.6,1.1,5.7c0.5,2.1,1.1,4.2,1.6,6.5
		c0.5,2.2,0.8,4.5,1,6.7c0.2,2.1,0.2,4.1,0.3,5.8c0,1.7,0,3.1,0,4.1c0,1-0.1,1.6-0.1,1.6s-0.1-0.6-0.2-1.6c-0.1-1-0.3-2.4-0.4-4.1
		c-0.1-1.7-0.4-3.7-0.6-5.8c-0.3-2.1-0.6-4.3-1.1-6.5c-0.5-2.2-1.1-4.4-1.5-6.5c-0.5-2.1-0.7-4.1-0.8-5.8c-0.1-1.7,0-3.2,0.1-4.1
		C65.2,198.7,65.3,198.2,65.3,198.2z"/>
</g>
<g>
	<path class="st0" d="M20.6,249c0.5,1.2,1.7,1.9,2.2,3.1c1.4,2.9-1.9,6-2,9.3c-0.1,3.3,3,6.1,2.7,9.4c-0.1,1.3-0.8,2.5-0.9,3.7
		c-0.4,3.3,3.6,6.3,6.7,5.1c2.8-3.6,3-8.7,5.5-12.4c2.9-4.3,8.3-6,13.4-7.4c5.1-1.4,12.3-4.7,17.5-6.1c1.7-4.3-2.7-7.9-0.6-12.1
		c0.9-1.7,1.3-3.1,0.9-5c-0.4-1.9-2.9-2.6-4.7-2.1s-3.5,1.7-5.3,2.3c-2.4,0.8-4.9,0.4-7.4,0.6c-6,0.4-11.1,4-16.7,5.6
		C29,243.8,17.7,242.8,20.6,249z"/>
	<g>
		<path d="M20.6,249c0.3,0.7,0.9,1.2,1.4,1.8c0.5,0.6,1,1.3,1.1,2c0.2,0.8,0.1,1.6-0.1,2.3c-0.2,0.8-0.5,1.5-0.8,2.2
			c-0.6,1.4-1.2,2.9-1.2,4.4c0.1,1.5,0.8,2.9,1.5,4.3c0.7,1.4,1.4,2.9,1.4,4.6c0,0.8-0.3,1.6-0.5,2.4c-0.2,0.7-0.4,1.5-0.4,2.1
			c0.1,1.4,0.9,2.7,2.1,3.4c1.2,0.8,2.7,1.1,3.9,0.6l-0.2,0.2c1.1-1.5,1.9-3.3,2.5-5.2c0.6-1.9,1.2-3.8,2.1-5.7
			c0.5-0.9,1-1.8,1.7-2.6c0.7-0.8,1.5-1.5,2.3-2.1c1.7-1.2,3.5-2.1,5.4-2.8c1.9-0.7,3.8-1.2,5.7-1.8c1.9-0.5,3.8-1.2,5.6-1.9
			c3.7-1.4,7.4-2.9,11.3-4l-0.3,0.3c0.5-1.2,0.5-2.6,0.1-4c-0.3-1.4-0.9-2.7-1.2-4.2c-0.1-0.7-0.2-1.5,0-2.3
			c0.1-0.8,0.5-1.5,0.8-2.1c0.6-1.3,1-2.6,0.7-4c-0.1-1.3-1.5-2.1-2.9-2.2c-1.4-0.1-2.7,0.5-3.9,1.1c-1.3,0.7-2.6,1.4-4.1,1.6
			c-1.5,0.2-2.9,0.2-4.4,0.2c-1.4,0-2.9,0.1-4.3,0.4c-1.4,0.3-2.8,0.7-4.1,1.2c-2.7,1-5.3,2.3-8.1,3.2c-0.7,0.2-1.4,0.5-2.1,0.7
			c-0.7,0.2-1.4,0.2-2.2,0.3c-1.4,0.1-2.9,0.2-4.3,0.4c-1.4,0.2-2.9,0.5-4,1.4c-0.6,0.4-1,1.1-1,1.8C20.1,247.6,20.3,248.4,20.6,249
			z M20.5,249.1c-0.3-0.7-0.5-1.4-0.5-2.1c0.1-0.7,0.5-1.4,1.1-1.9c1.2-0.9,2.7-1.2,4.1-1.4c1.4-0.2,2.9-0.3,4.3-0.5
			c0.7-0.1,1.4-0.1,2.1-0.3c0.7-0.2,1.4-0.4,2.1-0.7c2.7-1,5.3-2.3,8-3.4c1.4-0.5,2.7-1,4.2-1.3c1.4-0.3,2.9-0.4,4.4-0.4
			c1.5,0,2.9,0,4.3-0.2c1.4-0.2,2.6-0.9,3.9-1.6c1.3-0.7,2.7-1.4,4.3-1.3c0.8,0.1,1.5,0.3,2.2,0.7c0.3,0.2,0.6,0.5,0.9,0.9
			c0.1,0.2,0.2,0.4,0.3,0.6l0.1,0.3c0,0.1,0,0.2,0.1,0.3c0.3,1.5-0.1,3.1-0.7,4.4c-0.3,0.7-0.6,1.3-0.7,1.9c-0.1,0.7-0.1,1.3,0,2
			c0.2,1.4,0.8,2.7,1.2,4.2c0.4,1.4,0.5,3.1-0.1,4.5l-0.1,0.2l-0.2,0.1c-3.8,1.1-7.5,2.6-11.2,4.1c-1.9,0.7-3.7,1.4-5.7,2
			c-1.9,0.6-3.8,1.1-5.6,1.8c-1.8,0.7-3.6,1.5-5.1,2.7c-0.8,0.6-1.5,1.2-2.1,1.9c-0.6,0.7-1.1,1.5-1.6,2.4c-0.8,1.7-1.4,3.6-2,5.5
			c-0.6,1.9-1.4,3.9-2.7,5.5l-0.1,0.1l-0.1,0.1c-0.8,0.3-1.7,0.4-2.6,0.2c-0.9-0.2-1.6-0.5-2.3-1c-1.4-1-2.4-2.5-2.5-4.3
			c0-0.9,0.2-1.7,0.5-2.4c0.2-0.7,0.5-1.4,0.5-2.2c0.1-1.4-0.5-2.9-1.1-4.3c-0.3-0.7-0.7-1.4-0.9-2.2c-0.3-0.7-0.5-1.5-0.5-2.3
			c0-0.8,0.2-1.6,0.4-2.3c0.3-0.7,0.6-1.4,0.9-2.2c0.3-0.7,0.6-1.4,0.9-2.1c0.2-0.7,0.3-1.5,0.2-2.2c-0.1-0.7-0.6-1.4-1.1-2
			C21.4,250.4,20.8,249.8,20.5,249.1z"/>
	</g>
</g>
<g>
	<path class="st2" d="M25.5,260.8c0,0,0.1,0,0.2-0.1c0.1-0.1,0.4-0.2,0.7-0.3c0.6-0.3,1.3-0.8,2.1-1.4c0.8-0.7,1.8-1.5,2.8-2.4
		c1-0.9,2.3-1.8,3.7-2.4c0.7-0.3,1.5-0.5,2.2-0.6c0.7-0.1,1.4-0.1,2.1-0.2c1.3-0.1,2.6-0.1,3.7-0.1c2.2,0,3.6,0.1,3.6,0.1
		s-1.4,0.3-3.6,0.6c-1.1,0.2-2.3,0.3-3.7,0.5c-0.7,0.1-1.3,0.2-2,0.3c-0.7,0.1-1.3,0.3-1.9,0.6c-0.6,0.3-1.2,0.6-1.8,0.9
		c-0.6,0.4-1.1,0.7-1.7,1.2c-1.1,0.8-2.1,1.6-3.1,2.1c-0.5,0.3-0.9,0.5-1.3,0.7c-0.4,0.2-0.8,0.3-1.1,0.4c-0.3,0.1-0.6,0.1-0.7,0.2
		C25.6,260.8,25.5,260.8,25.5,260.8z"/>
</g>
<g>
	<path class="st2" d="M37.3,249.1c0,0,0.4-0.2,1.1-0.6c0.7-0.4,1.7-0.9,2.9-1.4c1.2-0.5,2.7-1.1,4.3-1.5c0.8-0.2,1.7-0.4,2.6-0.5
		c0.9-0.1,1.7-0.2,2.6-0.2c0.9,0,1.7-0.2,2.5-0.4c0.8-0.2,1.6-0.4,2.4-0.7c1.5-0.5,2.9-1.2,4.1-1.8c2.4-1.2,4-2,4-2s-0.3,0.3-1,0.7
		c-0.6,0.4-1.5,1.1-2.7,1.8c-1.1,0.7-2.5,1.5-4.1,2.2c-0.8,0.3-1.6,0.6-2.5,0.9c-0.9,0.2-1.8,0.4-2.7,0.5c-1.8,0.2-3.5,0.2-5.1,0.6
		c-1.6,0.3-3.1,0.8-4.3,1.2c-1.3,0.4-2.3,0.8-3,1C37.8,249,37.3,249.1,37.3,249.1z"/>
</g>
<g>
	<path class="st2" d="M37.9,261.3c0,0-0.2,0.2-0.7,0.5c-0.4,0.3-1,0.8-1.7,1.3c-0.7,0.5-1.5,1.2-2.4,1.9c-0.9,0.7-1.8,1.5-2.7,2.3
		c-0.9,0.8-1.8,1.6-2.6,2.4c-0.8,0.8-1.6,1.5-2.2,2.1c-0.6,0.6-1.2,1.2-1.5,1.5c-0.4,0.4-0.6,0.6-0.6,0.6s0.6-1.1,1.6-2.6
		c0.5-0.7,1.2-1.6,2-2.4c0.4-0.4,0.8-0.9,1.2-1.3c0.4-0.4,0.9-0.8,1.3-1.2c0.9-0.8,1.9-1.6,2.8-2.2c0.9-0.6,1.8-1.2,2.7-1.6
		C36.8,261.7,37.9,261.3,37.9,261.3z"/>
</g>
<g>
	<path class="st2" d="M109.2,400.3c0,0,0,0.3,0.1,0.9c0.1,0.6,0.2,1.5,0.2,2.6c0,2.2-0.2,5.4-0.9,9.1c-0.4,1.9-0.8,3.9-1.2,6
		c-0.4,2.1-0.9,4.4-1.6,6.6c-0.7,2.3-1.4,4.6-2.5,6.9c-1,2.3-2.3,4.5-3.8,6.6c-1.5,2-3.2,3.9-4.9,5.7c-1.7,1.8-3.2,3.7-4.6,5.5
		c-2.8,3.7-5.1,7.5-6.9,10.8c-0.9,1.7-1.6,3.2-2.2,4.6c-0.6,1.4-1.1,2.6-1.5,3.7c-0.4,1-0.7,1.8-0.9,2.4c-0.2,0.6-0.3,0.9-0.3,0.9
		s0.1-0.3,0.2-0.9c0.1-0.6,0.4-1.4,0.7-2.5c0.7-2.1,1.7-5.1,3.3-8.5c1.6-3.4,3.8-7.3,6.6-11.1c1.4-1.9,3-3.8,4.6-5.6
		c1.6-1.9,3.3-3.7,4.8-5.7c3-3.9,4.9-8.6,6.2-13.1c1.3-4.5,2.2-8.8,3.1-12.5c0.4-1.8,0.7-3.5,1-5c0.2-1.5,0.3-2.8,0.4-3.9
		c0-1.1,0-2,0-2.5C109.2,400.6,109.2,400.3,109.2,400.3z"/>
</g>
<g>
	<path class="st2" d="M145.5,335.1c0,0-0.6,2-1.7,5.6c-1.1,3.5-2.6,8.6-4.4,14.7c-1.8,6.1-3.6,13.3-5.2,21
		c-1.6,7.8-2.8,16.2-3.5,24.6c-0.3,4.2-0.5,8.4,0,12.5c0.2,2,0.7,4,1.3,6c0.6,1.9,1.3,3.9,1.8,5.8c0.5,1.9,0.9,3.9,0.9,5.9
		c0,1.9-0.4,3.9-0.9,5.6c-0.5,1.8-1,3.5-1.3,5.1c-0.4,1.6-0.5,3.3-0.6,4.8c0,3.1,0.6,6,1.3,8.5c0.7,2.5,1.5,4.6,2.3,6.3
		c0.7,1.7,1.3,3,1.8,3.9c0.4,0.9,0.6,1.4,0.6,1.4s-0.2-0.5-0.7-1.4c-0.4-0.9-1.1-2.2-1.9-3.9c-0.8-1.7-1.7-3.8-2.5-6.2
		c-0.8-2.5-1.5-5.4-1.5-8.6c0-1.6,0.1-3.3,0.5-5c0.3-1.7,0.8-3.4,1.2-5.2c0.4-1.8,0.8-3.6,0.8-5.4c0-1.8-0.3-3.7-0.9-5.6
		c-0.5-1.9-1.2-3.8-1.8-5.8c-0.6-2-1.1-4-1.4-6.1c-0.6-4.2-0.5-8.5-0.1-12.7c0.7-8.5,2-16.9,3.6-24.7c1.6-7.8,3.7-14.9,5.5-21
		c1.9-6.1,3.6-11.1,4.8-14.6C144.8,337.1,145.5,335.1,145.5,335.1z"/>
</g>
<g>
	<path class="st0" d="M152.6,348c-5.3,10.8-7.3,22.9-9.3,34.8c-1,6-0.5,11.7,0.6,17.7c15.6,7.1,34.1,9.1,49.7,2.1
		c4.8-2.2,9.5-5.5,11.3-10.4c0.7-1.9,1-3.9,1.2-5.9c0.9-10.5-0.5-21.2-4.1-31L152.6,348z"/>
	<path class="st2" d="M152.7,348.1c-1,2-1.8,4.1-2.6,6.2c-0.8,2.1-1.4,4.3-2.1,6.4c-1.2,4.3-2.1,8.7-2.9,13.2
		c-0.4,2.2-0.8,4.4-1.1,6.7c-0.4,2.2-0.7,4.4-0.8,6.7c-0.2,4.5,0.3,9,1.2,13.4l-0.2-0.2l3,1.3l3,1.1l3.1,1l3.1,0.9l3.2,0.7
		c1.1,0.2,2.1,0.4,3.2,0.6c1.1,0.1,2.1,0.3,3.2,0.4c1.1,0.1,2.2,0.2,3.2,0.2c1.1,0,2.2,0.1,3.2,0.1c1.1,0,2.2,0,3.2-0.1
		c2.2-0.1,4.3-0.4,6.4-0.8c2.1-0.4,4.2-0.9,6.3-1.6c2.1-0.7,4.1-1.5,6-2.4c1.9-1,3.8-2.1,5.4-3.4c1.6-1.4,3.1-3,4-4.8
		c1-1.8,1.4-3.9,1.7-6.1c0.1-1.1,0.2-2.1,0.3-3.2c0.1-1.1,0.1-2.2,0.1-3.2c0.1-4.3-0.3-8.7-1-12.9c-0.7-4.3-1.9-8.5-3.3-12.5
		l0.5,0.4l-24.7-3.8l-12.4-2L152.7,348.1z M152.6,348l12.5,1.6l12.4,1.7l24.8,3.5l0.3,0l0.1,0.3c1.5,4.1,2.6,8.4,3.4,12.7
		c0.7,4.3,1.1,8.7,1,13.1c0,1.1-0.1,2.2-0.1,3.3c-0.1,1.1-0.2,2.2-0.3,3.3c-0.3,2.2-0.7,4.4-1.8,6.4c-1.1,2-2.6,3.7-4.3,5.1
		c-1.7,1.4-3.6,2.5-5.6,3.5c-2,0.9-4,1.7-6.1,2.4c-2.1,0.7-4.2,1.2-6.4,1.6c-2.2,0.4-4.3,0.6-6.5,0.7c-1.1,0.1-2.2,0.1-3.3,0.1
		c-1.1,0-2.2-0.1-3.3-0.1c-1.1-0.1-2.2-0.2-3.3-0.3c-1.1-0.1-2.2-0.3-3.3-0.4c-1.1-0.2-2.2-0.4-3.2-0.6l-3.2-0.8l-3.2-0.9l-3.1-1
		l-3.1-1.2l-3-1.3l-0.1-0.1l0-0.2c-0.8-4.4-1.3-9-1.1-13.5c0.1-2.3,0.5-4.5,0.9-6.7c0.4-2.2,0.8-4.4,1.2-6.6c0.8-4.4,1.8-8.8,3-13.2
		c0.6-2.2,1.3-4.3,2.1-6.4C150.7,352.1,151.6,350,152.6,348L152.6,348z"/>
</g>
<g>
	<path class="st2" d="M152.6,381.9c0,0,0.7-0.2,2-0.5c1.3-0.3,3.1-0.8,5.3-1.3c2.2-0.5,4.8-1.1,7.5-1.7c1.4-0.3,2.8-0.6,4.1-1.2
		c1.3-0.5,2.5-1.4,3.8-2.2c2.5-1.7,4.9-3.5,7.3-5.1c1.2-0.8,2.3-1.6,3.4-2.3c0.5-0.4,1.1-0.7,1.6-1.1c0.5-0.4,1-0.7,1.4-1
		c0.9-0.7,1.8-1.2,2.5-1.8c0.7-0.6,1.2-1.2,1.6-1.7c0.3-0.6,0.5-1.1,0.5-1.4c0-0.2,0-0.3,0-0.4c0-0.1,0-0.1,0-0.1s0,0,0,0.1
		c0,0.1,0,0.2,0,0.4c0,0.4-0.1,0.9-0.4,1.5c-0.3,0.6-0.8,1.3-1.5,1.9c-0.7,0.6-1.5,1.3-2.4,2c-0.4,0.4-0.9,0.7-1.4,1.1
		c-0.5,0.4-1,0.7-1.5,1.1c-1,0.8-2.1,1.6-3.3,2.4c-2.3,1.7-4.7,3.4-7.2,5.2c-1.3,0.9-2.6,1.7-4,2.3c-1.4,0.6-2.9,0.9-4.3,1.2
		c-2.8,0.5-5.4,0.9-7.6,1.3c-2.2,0.4-4.1,0.7-5.4,0.9C153.3,381.8,152.6,381.9,152.6,381.9z"/>
</g>
<g>
	<path class="st2" d="M166.3,388.3c0,0,0.5-0.3,1.4-0.9c0.9-0.6,2.2-1.4,3.9-2.4c1.6-1,3.5-2.1,5.5-3.3c2-1.2,4.2-2.4,6.4-3.6
		c2.2-1.2,4.4-2.4,6.3-3.6c1.9-1.3,3.6-2.7,4.7-4.2c1.1-1.5,1.8-2.9,2.1-3.9c0.1-0.5,0.2-0.9,0.3-1.2c0-0.3,0.1-0.4,0.1-0.4
		s0,0.2,0,0.5c0,0.3,0,0.7-0.1,1.3c-0.2,1.1-0.7,2.6-1.8,4.2c-1.1,1.6-2.7,3.2-4.6,4.6c-1.9,1.4-4.2,2.6-6.3,3.8
		c-2.2,1.2-4.4,2.4-6.5,3.5c-2.1,1.1-4,2.1-5.7,2.9c-1.7,0.9-3.1,1.5-4.1,2C166.9,388,166.3,388.3,166.3,388.3z"/>
</g>
<g>
	<path class="st2" d="M170.7,396.7c0,0,0.1,0.2,0.3,0.3c0.2,0.2,0.6,0.3,1.2,0.2c0.5,0,1.2-0.2,1.9-0.3c0.7-0.2,1.5-0.4,2.4-0.6
		c1.8-0.4,3.8-1.1,5.9-2c1.1-0.4,2.1-0.9,3.2-1.5c1.1-0.5,2.2-1.1,3.3-1.7c2.2-1.1,4.3-2.3,6.2-3.6c0.9-0.7,1.8-1.3,2.6-2
		c0.8-0.7,1.4-1.5,2-2.2c0.6-0.7,1.1-1.3,1.6-1.9c0.5-0.6,0.9-1.1,1.2-1.5c0.7-0.8,1.1-1.3,1.1-1.3s-0.3,0.5-0.9,1.4
		c-0.3,0.5-0.7,1-1.1,1.6c-0.2,0.3-0.4,0.6-0.7,1c-0.3,0.3-0.5,0.7-0.8,1.1c-0.3,0.4-0.6,0.8-0.9,1.2l-0.2,0.3
		c-0.1,0.1-0.2,0.2-0.3,0.3c-0.2,0.2-0.4,0.4-0.5,0.6c-0.7,0.8-1.6,1.5-2.6,2.2c-1.9,1.4-4.1,2.6-6.3,3.8c-1.1,0.5-2.2,1.1-3.3,1.6
		c-1.1,0.6-2.2,1-3.3,1.4c-2.2,0.8-4.3,1.3-6.2,1.7c-0.9,0.2-1.8,0.3-2.5,0.4c-0.8,0.1-1.4,0.2-2,0.1c-0.6,0-1-0.2-1.2-0.4
		C170.8,396.9,170.7,396.7,170.7,396.7z"/>
</g>
<g>
	<path class="st2" d="M63,363.9c0,0,0.4,0.5,1.1,1.3c0.7,0.8,1.7,2,2.9,3.5c1.2,1.5,2.5,3.1,4,5c1.4,1.8,3,3.8,4.3,6
		c1.3,2.2,2.1,4.6,3,6.7c0.9,2.1,1.9,4.1,2.8,5.7c0.9,1.6,1.7,2.9,2.3,3.9c0.6,0.9,0.9,1.4,0.9,1.4s-0.4-0.5-1.1-1.3
		c-0.7-0.9-1.7-2.1-2.7-3.6c-1-1.6-2.2-3.4-3.2-5.6c-1-2.1-1.9-4.5-3.1-6.5c-1.2-2.1-2.8-4-4.1-5.9c-1.4-1.9-2.6-3.7-3.7-5.2
		c-1.1-1.5-1.9-2.8-2.5-3.7C63.4,364.4,63,363.9,63,363.9z"/>
</g>
<path class="st1" d="M124.8,128.5c-0.8,5.4,2.7,11.1,3.2,16.8c0.4,4.5-1.3,9-0.3,13.4c0.8,3.4,1.5,6.6,1.7,10.2
	c2.3-9.3,4.5-18.6,4.7-28.1c0.1-3.4,0.6-9.2,3.4-11.2c1.2-0.9,2.4,0.7,3.9,0.7c3.9,0.2,7.6,2.5,10,5.6c2.4,3.1,3.7,6.9,4.4,10.8
	c1.7,9.1,0.3,18.5-2.1,27.5c-2.4,8.9-5.9,17.6-8.5,26.4c-0.9,3-1.6-0.2-3,2.5c-1.5,2.9-4.2,3.7-6.4,6.2c-1.2,1.3-1.8,3.5-3.5,3.8
	c-1.1,0.2-3.9,6.7-5,6.4c-2.7-0.7-2.3-5.7-5-6.4c-0.9-5.5-6.1-5.6-8.1-10.7c-1.5-4-2.1-8.2-3.2-12.3c-2.9-11.1-9.6-21.3-9.7-32.7
	c-0.1-13.4,10.2-26.1,23.3-28.9"/>
<g>
	<path d="M137.5,129.6c-1.5,1.3-2.4,3.2-2.8,5.1c-0.4,1.9-0.4,3.9-0.3,5.9c0.1,2,0.2,4,0,6c-0.2,2-0.5,4-0.9,5.9
		c-0.8,3.9-1.7,7.8-2.6,11.7l-0.7,2.9c-0.1,0.5-0.2,0.9-0.2,1.4c0,0.1,0,0.2,0,0.3c0,0,0,0.2,0,0.3l0.1,0.7l0.2,1.5
		c0.1,0.5,0.1,1,0.1,1.5c0,1,0,2.1-0.1,3.1l-1.2-0.1l0.1-1.4c0-0.5,0-0.9,0-1.4c0-0.9-0.1-1.9-0.2-2.8c-0.2-1.9-0.6-3.8-1-5.7
		c-0.4-1.9-0.8-3.8-1.1-5.8c-0.3-1.9-0.4-3.9-0.3-5.9c0.1-2,0.4-3.9,0.4-5.8c0.1-1.9-0.1-3.8-0.5-5.7c-0.4-1.9-0.9-3.8-1.3-5.7
		c-0.4-1.9-0.7-3.8-0.7-5.8c0.1,1.9,0.5,3.8,1,5.7c0.5,1.9,1.1,3.7,1.6,5.6c0.5,1.9,0.7,3.9,0.6,5.9c0,2-0.2,3.9-0.3,5.8
		c-0.1,3.8,0.8,7.6,1.6,11.4c0.4,1.9,0.8,3.8,1,5.8c0.1,1,0.2,2,0.2,3c0,0.5,0,1,0,1.5l-0.1,1.5l-1.2-0.1c0.1-1,0.2-1.9,0.1-2.9
		c0-0.5,0-1-0.1-1.4l-0.2-1.5l-0.1-0.7c0-0.1,0-0.2,0-0.4c0-0.1,0-0.3,0-0.4c0-0.5,0.1-1.1,0.3-1.6l0.7-2.9l2.8-11.6
		c0.4-1.9,0.8-3.9,1-5.8c0.2-1.9,0.2-3.9,0.2-5.9c0-2,0-4,0.5-6c0.3-1,0.6-1.9,1.1-2.8C136,130.9,136.7,130.2,137.5,129.6z"/>
</g>
<g>
	<path class="st0" d="M173.5,125c0.2,1.5,0.1,3.1,0.6,4.5c0.5,1.7,1.7,3.2,2.9,4.5c4.4,5.2,9.1,10.1,14,14.8
		c-5.2,0.4-10.4,0.8-15.6,1.2c-1.2,0.1-2.5,0.3-3.3,1.2c-1.2,1.4-0.3,3.5,0.6,5c3,5,6.7,10,7.5,15.8c-8.6,3.5-16,9.7-21,17.5
		c-1.3,2-2.4,4.1-3.8,5.9c-1.6,2-3.7,3.7-5.7,5.4c-7.2,5.9-14.4,11.8-21.5,17.7c6.6-16.1,13.2-32.1,19.8-48.2c1.2-3,2.4-6,3-9.1
		c0.5-2.8,0.5-5.8,1.2-8.5c1.2-4.6,4.3-8.6,5.3-13.3c1.2-5.7-0.7-12.1,2.2-17.2c0.9-1.6,2.2-3,2.8-4.7c1.3-4-1.8-7.6-4.8-9.7
		C165.2,109,172.7,117.8,173.5,125z"/>
	<path d="M173.6,125c0.2,1.3,0.2,2.5,0.4,3.8c0.2,1.2,0.8,2.4,1.6,3.4c0.7,1,1.6,2,2.4,2.9l2.5,2.8c3.4,3.8,6.9,7.4,10.6,10.9
		l0.2,0.2l-0.3,0l-10.5,0.9l-5.3,0.4c-0.9,0.1-1.7,0.2-2.4,0.7c-0.7,0.4-1.1,1.3-1,2.1c0,0.8,0.4,1.7,0.8,2.4
		c0.4,0.8,0.9,1.5,1.3,2.2c0.9,1.5,1.9,3,2.8,4.5c0.9,1.5,1.7,3.1,2.4,4.7c0.3,0.8,0.7,1.7,0.9,2.5c0.3,0.9,0.4,1.7,0.6,2.6l0,0.2
		l-0.2,0.1c-5.4,2.2-10.3,5.5-14.5,9.6c-1,1-2,2.1-2.9,3.2c-0.9,1.1-1.8,2.3-2.6,3.5c-1.6,2.4-2.9,5.1-4.8,7.4
		c-1.9,2.3-4.3,4.1-6.5,6l-6.8,5.6L128.6,219l-1.4,1.2l0.7-1.7l11.2-27.6l5.6-13.8l2.8-6.9c0.9-2.3,1.9-4.6,2.5-6.9
		c0.7-2.3,0.8-4.8,1.1-7.3c0.2-1.2,0.4-2.5,0.7-3.7c0.3-1.2,0.8-2.4,1.3-3.6c1-2.3,2.2-4.5,3.1-6.7c0.2-0.6,0.4-1.1,0.6-1.7
		c0.1-0.3,0.2-0.6,0.2-0.9l0.2-0.9c0.2-1.2,0.3-2.4,0.3-3.6c0.1-2.5,0-5,0.3-7.5c0.2-1.3,0.4-2.5,0.9-3.7c0.1-0.3,0.2-0.6,0.4-0.9
		c0.1-0.3,0.3-0.6,0.5-0.8c0.3-0.6,0.7-1.1,1.1-1.6c0.7-1,1.4-2,1.7-3.2c0.3-1.2,0.2-2.4-0.1-3.5c-0.8-2.3-2.6-4.1-4.6-5.6l-0.8-0.6
		l1,0.2c0.5,0.1,1,0.2,1.5,0.4c0.5,0.2,1,0.3,1.5,0.5c0.5,0.2,0.9,0.4,1.4,0.7c0.4,0.3,0.9,0.5,1.3,0.8c0.4,0.3,0.9,0.6,1.3,0.9
		c0.4,0.3,0.8,0.6,1.2,1l1.1,1.1l1.1,1.1l1,1.2l0.9,1.2c0.3,0.4,0.6,0.9,0.8,1.3c0.3,0.4,0.5,0.9,0.7,1.4c0.2,0.5,0.4,0.9,0.7,1.4
		c0.2,0.5,0.4,1,0.5,1.4c0.2,0.5,0.3,1,0.4,1.5C173.4,124,173.5,124.5,173.6,125z M173.5,125c-0.1-0.5-0.2-1-0.3-1.5
		c-0.1-0.5-0.3-1-0.4-1.5c-0.2-0.5-0.3-1-0.6-1.4c-0.2-0.5-0.4-0.9-0.7-1.4c-0.3-0.4-0.5-0.9-0.8-1.3c-0.3-0.4-0.5-0.9-0.8-1.3
		l-0.9-1.2l-1-1.2l-1.1-1.1l-1.1-1c-0.4-0.3-0.8-0.6-1.2-1c-0.4-0.3-0.8-0.6-1.3-0.9c-0.4-0.3-0.9-0.5-1.3-0.8
		c-0.4-0.2-0.9-0.4-1.4-0.6c-0.5-0.2-1-0.3-1.4-0.5c-0.5-0.1-1-0.2-1.5-0.3l0.1-0.4c2,1.4,3.9,3.3,4.8,5.7c0.4,1.2,0.6,2.6,0.2,3.8
		c-0.3,1.3-1,2.4-1.7,3.4c-1.5,2-2.3,4.3-2.6,6.7c-0.3,2.4-0.1,4.9-0.1,7.4c0,1.3-0.1,2.5-0.3,3.8l-0.2,0.9
		c-0.1,0.3-0.1,0.6-0.2,0.9c-0.2,0.6-0.4,1.2-0.6,1.8c-0.9,2.4-2.1,4.6-3,6.8c-0.5,1.1-0.9,2.2-1.3,3.4c-0.3,1.2-0.5,2.4-0.7,3.6
		c-0.3,2.4-0.5,5-1.2,7.4c-0.7,2.4-1.6,4.8-2.6,7.1l-2.8,6.9l-5.7,13.8l-11.4,27.6l-0.7-0.5l13.6-11.2l6.8-5.6
		c2.3-1.9,4.6-3.7,6.5-5.9c1.9-2.2,3.1-4.9,4.8-7.3c0.8-1.2,1.7-2.4,2.7-3.5c0.9-1.1,2-2.2,3-3.3c4.2-4.1,9.3-7.5,14.7-9.7l-0.2,0.3
		c-0.1-0.9-0.3-1.7-0.5-2.5c-0.2-0.8-0.5-1.7-0.8-2.5c-0.6-1.6-1.5-3.2-2.3-4.7c-0.9-1.5-1.8-3-2.7-4.5c-0.5-0.8-0.9-1.5-1.3-2.3
		c-0.4-0.8-0.7-1.7-0.8-2.6c-0.1-0.9,0.4-1.9,1.2-2.4c0.8-0.5,1.7-0.6,2.6-0.7l5.3-0.4l10.5-0.8L191,149c-3.7-3.5-7.2-7.1-10.6-10.9
		l-2.5-2.9c-0.8-1-1.7-1.9-2.4-2.9c-0.7-1-1.3-2.2-1.6-3.4C173.6,127.6,173.6,126.3,173.5,125z"/>
</g>
<g>
	<path class="st0" d="M96.5,116.7c-2.2,3.2-4.4,6.4-6.6,9.6c-4.2,6.2-8.4,12.3-12.7,18.5c-2.2,3.2-4.4,6.6-4.3,10.4
		c5.3,0.3,10.6-0.8,15.4-3.2c-2.1,6.6-4.1,13.2-6.2,19.8c-0.2,0.7-0.4,1.4-0.3,2.1c0.2,1.2,1.2,2.1,2.1,2.8
		c7.3,6.1,13.9,13,19.8,20.6c2.6,3.4,5.1,6.9,8.3,9.7c4.6,4,10.6,6.5,14.4,11.2c-3.2-22.3-11.8-43.5-18.9-64.9
		c-1.5-4.4-2.8-8.8-4.2-13.2c-1.4-4.6-2.9-9.1-4.3-13.7c-0.6-2-1.3-4-1-6.1c0.3-2.6,4.8-5.6,4.7-7.2C102.6,109,97,116,96.5,116.7z"
		/>
	<path d="M96.6,116.7l-12.8,18.8l-6.4,9.4c-1.1,1.6-2.1,3.2-2.9,4.9c-0.8,1.7-1.3,3.5-1.3,5.4L73,155c5.2,0.3,10.6-0.8,15.2-3.2
		l0.6-0.3l-0.2,0.6l-3.2,10.3l-1.6,5.1c-0.5,1.7-1.1,3.4-1.6,5.1c-0.2,0.8-0.1,1.6,0.4,2.3c0.5,0.7,1.2,1.2,1.9,1.8
		c1.4,1.1,2.7,2.3,4.1,3.6c2.7,2.4,5.2,5,7.7,7.6c2.5,2.6,4.8,5.4,7.1,8.2c2.2,2.8,4.3,5.8,6.7,8.4c1.2,1.3,2.5,2.5,3.9,3.6
		c1.4,1.1,2.9,2.1,4.4,3c3,2,6.1,4,8.5,6.8l-0.9,0.4l-0.6-3.7c-0.2-1.2-0.5-2.4-0.7-3.7c-0.5-2.4-1-4.9-1.6-7.3
		c-0.3-1.2-0.6-2.4-0.9-3.6c-0.3-1.2-0.6-2.4-1-3.6c-0.7-2.4-1.4-4.8-2.1-7.2c-0.7-2.4-1.5-4.8-2.3-7.1l-2.4-7.1l-4.9-14.2l-2.4-7.1
		l-2.2-7.2l-4.4-14.3l-2.2-7.2c-0.3-1.2-0.6-2.5-0.6-3.7c0-0.6,0-1.3,0.3-1.9c0.3-0.6,0.6-1.1,1-1.6c0.8-1,1.7-1.9,2.5-2.8
		c0.4-0.5,0.8-1,1-1.5c0.1-0.3,0.1-0.6,0-0.9c-0.1-0.3-0.2-0.6-0.4-0.7c-0.5-0.1-1.1,0.3-1.6,0.6c-0.5,0.4-1,0.8-1.4,1.2
		C98.2,114.8,97.3,115.7,96.6,116.7z M96.5,116.6c0.7-1,1.6-2,2.4-2.9c0.4-0.4,0.9-0.9,1.4-1.3c0.2-0.2,0.5-0.4,0.8-0.5
		c0.3-0.1,0.6-0.3,1-0.2c0.4,0.1,0.5,0.5,0.6,0.8c0.1,0.3,0.1,0.6,0,1c-0.2,0.6-0.6,1.1-1,1.6c-0.8,1-1.7,1.9-2.4,2.8
		c-0.4,0.5-0.7,1-0.9,1.6c-0.2,0.5-0.3,1.2-0.3,1.8c0,1.2,0.3,2.4,0.7,3.6l2.3,7.1l4.7,14.2l2.4,7.1l2.5,7.1
		c3.3,9.4,6.7,18.8,9.6,28.4c0.7,2.4,1.4,4.8,2.1,7.2c0.7,2.4,1.3,4.8,1.9,7.3c0.6,2.4,1.1,4.9,1.6,7.3c0.2,1.2,0.5,2.5,0.7,3.7
		l0.6,3.7l0.3,1.8l-1.2-1.4c-2.2-2.7-5.2-4.7-8.2-6.7c-1.5-1-3-2-4.4-3.1c-1.5-1.1-2.8-2.3-4-3.7c-2.5-2.7-4.5-5.6-6.7-8.5
		c-2.2-2.8-4.5-5.5-7-8.2c-2.4-2.6-5-5.2-7.6-7.6c-1.3-1.2-2.7-2.4-4-3.6c-0.7-0.6-1.4-1.1-2-2c-0.3-0.4-0.5-0.9-0.6-1.4
		c-0.1-0.5,0-1,0.1-1.5c0.5-1.8,1.1-3.4,1.6-5.2l1.6-5.1l3.3-10.3l0.4,0.3c-4.8,2.4-10.2,3.5-15.5,3.1l-0.2,0l0-0.2
		c0-1.9,0.5-3.8,1.4-5.6c0.8-1.7,1.9-3.3,3-4.9l6.5-9.4L96.5,116.6z"/>
</g>
<g>
	<path class="st1" d="M162.1,111.2c2.1,5.7,0.7,13,0.4,19.1c-0.3,4.8-0.5,9.6-0.8,14.5c-0.2,3-0.6,6.5-3.3,7.9
		c-0.3,0.1-0.6,0.3-0.9,0.2c-0.7-0.1-1.1-0.7-1.4-1.3c-4.6-8-11.9-15.9-20-20.3c0.5-1.1,6.5-8.7,8.2-13c1.4-3.5,4.8-13,8.4-14.7
		C156,101.9,160.8,107.9,162.1,111.2z"/>
	<path d="M162.1,111.2c0.6,1.4,0.9,3,1.1,4.5c0.2,1.5,0.2,3.1,0.2,4.7c0,3.1-0.4,6.2-0.5,9.3l-0.1,4.6l-0.2,4.6l-0.2,4.6
		c-0.1,1.5-0.1,3.1-0.5,4.7c-0.3,1.6-1,3.2-2.5,4.3c-0.4,0.3-0.7,0.5-1.2,0.7c-0.5,0.2-1.2,0.1-1.6-0.2c-0.4-0.3-0.7-0.7-0.9-1.1
		l-0.6-1c-0.8-1.3-1.6-2.6-2.5-3.9c-0.9-1.3-1.8-2.5-2.8-3.7c-3.9-4.7-8.6-8.9-13.9-11.9l-0.4-0.2l0.2-0.3c0.5-0.9,1.1-1.6,1.7-2.4
		l1.7-2.3c1.1-1.6,2.2-3.1,3.1-4.8c0.5-0.8,1-1.6,1.4-2.5c0.4-0.8,0.7-1.7,1.1-2.6c0.7-1.8,1.5-3.5,2.3-5.3c0.8-1.7,1.7-3.4,2.8-5
		c0.6-0.8,1.2-1.5,1.9-2.2c0.4-0.3,0.8-0.6,1.3-0.7c0.5-0.2,1-0.2,1.5-0.1c1,0.2,1.8,0.7,2.6,1.2c0.8,0.6,1.5,1.2,2.1,2
		c0.6,0.7,1.2,1.5,1.7,2.3C161.3,109.5,161.8,110.3,162.1,111.2z M162,111.3c-0.7-1.8-1.8-3.4-3-4.8c-0.6-0.7-1.3-1.4-2.1-1.9
		c-0.8-0.5-1.6-1-2.6-1.1c-0.9-0.2-1.9,0.2-2.5,0.8c-0.7,0.6-1.3,1.4-1.8,2.1c-1.1,1.6-1.9,3.3-2.7,5c-0.8,1.7-1.5,3.5-2.1,5.3
		c-0.3,0.9-0.7,1.8-1.1,2.7c-0.4,0.9-0.9,1.7-1.4,2.5c-1,1.7-2,3.2-3.1,4.8l-1.6,2.4c-0.5,0.8-1.1,1.6-1.6,2.3l-0.2-0.5
		c5.5,3,10.3,7.2,14.3,12c1,1.2,2,2.4,2.9,3.7c0.9,1.3,1.8,2.6,2.6,3.9c0.4,0.6,0.8,1.4,1.2,1.7c0.2,0.1,0.3,0.1,0.6,0.1
		c0.3-0.1,0.6-0.3,0.8-0.5c1.1-0.8,1.7-2.2,2-3.6c0.3-1.4,0.4-3,0.5-4.5l0.3-4.6c0.2-3.1,0.4-6.2,0.7-9.3c0.3-3.1,0.7-6.2,0.9-9.3
		c0.1-1.5,0.1-3.1,0-4.6C162.8,114.2,162.5,112.7,162,111.3z"/>
</g>
<g>
	<path class="st1" d="M113.5,117.9c3.9,3.9,7.9,7.9,13,10.6c-4.2,1.7-8.5,3.6-11.9,6.5c-1.7,1.5-3.2,3.3-4.6,5.1
		c-3.3,4.1-6.6,8.3-9.9,12.4c-0.3-4.3-0.6-8.5-0.9-12.8c-0.2-2.1-0.3-4.2-1.3-6c-0.6-1.1-1.5-2.1-1.9-3.3c-1-2.8,1.2-5.7,1.7-8.7
		c0.4-2,0-4.1,0.2-6.1c0.2-2.8,1.3-11.6,5-10.9C105.7,105.4,111.5,116,113.5,117.9z"/>
	<path d="M113.5,117.9c2,2,4,3.9,6.1,5.8c2.1,1.8,4.4,3.5,6.9,4.8l0.2,0.1l-0.2,0.1c-2.8,1.2-5.5,2.4-8.1,4
		c-1.3,0.8-2.5,1.7-3.6,2.6c-1.1,1-2.1,2.1-3,3.3c-1.9,2.4-3.7,4.8-5.6,7.2l-5.6,7.1l-0.9,1.2l-0.1-1.5c-0.2-2.8-0.5-5.6-0.6-8.5
		l-0.3-4.2c-0.1-1.4-0.2-2.8-0.5-4.1c-0.2-0.6-0.4-1.3-0.7-1.8c-0.3-0.6-0.7-1.1-1.1-1.8c-0.4-0.6-0.8-1.4-0.9-2.1
		c-0.2-0.8-0.1-1.6,0-2.3c0.3-1.5,0.9-2.8,1.4-4.1c0.2-0.7,0.5-1.3,0.6-2c0.1-0.7,0.2-1.4,0.2-2.1c0-1.4-0.1-2.8,0.1-4.3
		c0.1-1.4,0.4-2.8,0.7-4.2c0.3-1.4,0.7-2.8,1.3-4.1c0.3-0.6,0.7-1.3,1.3-1.7c0.3-0.2,0.6-0.4,1-0.5c0.4-0.1,0.7-0.1,1.1,0
		c0.7,0.2,1.3,0.7,1.8,1.2c0.5,0.5,1,1,1.4,1.6c0.9,1.1,1.7,2.3,2.5,3.4l2.4,3.5C111.8,115.7,112.5,116.9,113.5,117.9z M113.5,117.9
		c-1-1-1.7-2.3-2.5-3.4l-2.4-3.5c-0.8-1.2-1.6-2.3-2.5-3.4c-0.4-0.5-0.9-1.1-1.4-1.6c-0.5-0.5-1.1-1-1.7-1.1
		c-0.7-0.2-1.4,0.1-1.9,0.5c-0.5,0.5-0.9,1.1-1.2,1.7c-0.6,1.3-0.9,2.6-1.2,4c-0.3,1.4-0.4,2.8-0.5,4.2c-0.1,1.4,0,2.8,0.1,4.2
		c0,0.7,0,1.5-0.1,2.2c-0.1,0.7-0.3,1.4-0.6,2.1c-0.5,1.4-1,2.7-1.2,4c-0.1,0.7-0.1,1.3,0,1.9c0.2,0.7,0.5,1.2,0.8,1.8
		c0.4,0.6,0.8,1.2,1.2,1.8c0.4,0.7,0.7,1.4,0.9,2.1c0.4,1.4,0.5,2.9,0.6,4.3l0.3,4.2c0.2,2.8,0.4,5.7,0.6,8.5l-1-0.3l5.7-7.1
		l2.9-3.5c1-1.2,1.9-2.3,2.9-3.5c1-1.2,2-2.3,3.2-3.3c1.2-1,2.4-1.9,3.8-2.6c2.7-1.5,5.5-2.6,8.3-3.7l0,0.2
		c-1.2-0.7-2.4-1.4-3.6-2.3c-1.1-0.8-2.2-1.7-3.3-2.6C117.4,121.9,115.4,119.9,113.5,117.9z"/>
</g>
<g>
	<path class="st3" d="M176.1,347.1c-4.1-1.7-9.7,1.5-14,2.8c-1.7,0.5-3.2,1.5-4.9,1.7c-2.8,0.3-5.7-1.6-6.4-4.3
		c-0.3-0.9-0.3-2,0.3-2.7c0.3-0.5,0.9-0.8,1.4-1.1c2.7-1.5,5.3-3,8-4.5"/>
	<path class="st4" d="M176.1,347.1c0,0-0.2,0-0.5-0.1c-0.3-0.1-0.7-0.1-1.3-0.2c-0.6,0-1.3,0-2,0.1c-0.8,0.1-1.6,0.3-2.6,0.6
		c-1.9,0.6-3.9,1.5-6.2,2.4c-0.6,0.2-1.2,0.4-1.8,0.6c-0.6,0.2-1.1,0.5-1.8,0.7c-1.2,0.5-2.6,1-4,0.8c-2.9-0.3-5.3-2.5-5.8-5.2
		c-0.1-0.7-0.1-1.4,0.2-2c0.3-0.7,0.9-1.1,1.4-1.4c1-0.5,1.9-1,2.8-1.5c1.7-0.9,3.2-1.6,4.2-2.2c1-0.5,1.6-0.8,1.6-0.8
		s-0.6,0.4-1.5,1c-1,0.6-2.3,1.5-4,2.5c-0.8,0.5-1.7,1.1-2.7,1.6c-0.4,0.3-0.8,0.6-1,1.1c-0.2,0.5-0.2,1-0.1,1.5
		c0.4,2.2,2.6,4.1,5,4.3c1.2,0.1,2.4-0.2,3.5-0.7c0.6-0.2,1.2-0.5,1.8-0.7c0.6-0.2,1.2-0.4,1.8-0.6c2.3-0.8,4.5-1.6,6.4-2.1
		c1-0.3,1.9-0.4,2.7-0.5c0.8-0.1,1.5,0,2.1,0.1c0.6,0.1,1,0.2,1.3,0.4C176,347,176.1,347.1,176.1,347.1z"/>
</g>
<path class="st5" d="M95,79.9c-5.4-10.6-7.8-22.5-7-34.2c0.3-4.7,1.2-9.4,3.6-13.5c2.5-4.3,6.6-7.5,11-10
	c18.3-10.7,42.5-9.8,60.2,1.7c1.8,1.2,3.1,2.9,3.8,5c2.8,8.5,5.2,17.2,4.1,25.9c-0.7,5.7-2.9,11.3-2.9,17.1c0,0.4,0,0.8-0.1,1.2
	l0,0.3c-0.1,0.8-0.1,1.6,0,2.4l0.3,2.6c0.2,2-0.1,4-1.1,5.7c0,0,0,0.1-0.1,0.1c-5.9,10.6-11.8,21.2-17.8,31.8
	c-0.7,1.4-1.6,2.8-2.8,3.8c-3.8,2.9-9.1,0.2-13-2.6c-9.4-6.7-17.4-10-26.4-17.3c-5-4.1-11.4-13-11.7-19.6L95,79.9z"/>
<path class="st6" d="M136.8,67.1c0.1,0.1,0.2,0.1,0.1,0.2c-0.1,0.1-0.3,0.1-0.4,0.1c-3.8,0.4-6.3,1-11.5,0.8
	c-1.1-0.1-2.1-0.1-3.1-0.3c-0.8-0.1-1.5-0.4-2.2-0.6c-1.9-0.7-3.6-1.6-5.1-2.5c-0.1-0.1-0.2-0.1-0.2-0.2c0-0.1,0.1-0.1,0.2-0.2
	c1.4-0.7,2.9-1.4,4.8-1.7c0.8-0.1,1.9-0.3,2.7-0.4c1.9-0.1,2.4,0.1,4.5,0.3c0.6,0.1,1.5,0.3,2.1,0.4c0.5,0.1,1.4,0.3,1.8,0.4
	c1.6,0.6,2.9,1,4.2,1.9C135.4,66,136,66.6,136.8,67.1z"/>
<g>
	<path class="st7" d="M134.5,65.3c0,0-0.6-0.6-1.6-1.3c-1-0.7-2.3-1.6-3.8-2.1c-0.7-0.3-1.5-0.6-2.2-0.6c-0.7,0-1.4-0.1-2-0.1
		c-0.6,0-1.1-0.1-1.4-0.1c-0.3-0.1-0.5,0-0.5,0l0,0c0,0,0.8-0.2,2-0.3c0.6-0.1,1.4-0.1,2.1,0c0.8,0.1,1.5,0.3,2.3,0.7
		c1.5,0.7,2.8,1.6,3.7,2.4C134.1,64.6,134.5,65.3,134.5,65.3L134.5,65.3z"/>
</g>
<g>
	<path class="st7" d="M114.2,65.6c0,0.1,0,0.3,0,0.6c0,0.4,0,0.8,0.2,1.3c0.1,0.3,0.2,0.5,0.3,0.7c0.1,0.2,0.2,0.4,0.2,0.6
		c0.1,0.3,0.1,0.6,0.1,0.6l0,0c0,0-0.2-0.2-0.4-0.5c-0.1-0.2-0.2-0.4-0.3-0.6c-0.1-0.2-0.2-0.4-0.2-0.7c-0.1-0.5-0.1-1,0-1.4
		C114.2,65.8,114.2,65.6,114.2,65.6L114.2,65.6z"/>
</g>
<g>
	<path class="st7" d="M149.2,60.4c0.1,0.1,0,0.2,0,0.7c-0.2,0.3-0.4,0.6-0.6,1.1c-0.5,1-1,2.4-1.1,4.2c-0.1,1.8,0.3,3.9,0.8,6.1
		c0.3,1.1,0.6,2.2,1,3.3s0.9,2.1,1.4,3.2c1.1,2.2,2.4,4.2,3.7,6c0.6,0.9,1.4,1.8,1.7,2.9c0.1,0.2,0.2,0.6,0.2,0.8c0,0.3,0,0.5,0,0.8
		c0,0.5-0.2,1.1-0.4,1.5c-0.4,0.8-1.2,1.5-1.9,1.8c-0.8,0.3-1.5,0.4-2,0.3c-0.5,0-0.9-0.2-1.2-0.3c-0.3-0.1-0.4-0.2-0.4-0.2v-0.1
		c0,0,0.1,0,0.4,0.1c0.3,0,0.7,0.1,1.2,0.1s1.1-0.2,1.7-0.5c0.6-0.4,1.1-0.9,1.4-1.7c0.2-0.3,0.3-0.8,0.3-1.2c0-0.2,0-0.4,0-0.6
		c-0.1-0.3-0.1-0.5-0.2-0.7c-0.3-0.9-0.9-1.8-1.6-2.7c-1.3-1.9-2.6-4-3.6-6.2c-0.5-1.1-1-2.3-1.4-3.4c-0.4-1.1-0.7-2.3-0.9-3.4
		c-0.4-2.2-0.8-4.4-0.6-6.2c0.2-1.8,0.8-3.3,1.3-4.2c0.2-0.5,0.5-0.9,0.6-1.1C149.1,60.5,149.2,60.4,149.2,60.4L149.2,60.4z"/>
</g>
<path class="st6" d="M147.7,98.6c-3.3,0-6.6-0.3-9.9-1c-0.6-0.1-1.2-0.2-1.7-0.4c-1.2-0.5-2.4-1.3-3.7-1.4c1,2.8,3.6,4.6,6.1,6.2
	c0.3,0.2,0.6,0.4,0.9,0.5c0.6,0.2,1.2,0.1,1.8,0.3c0.3,0.1,0.5,0.2,0.8,0.3c0.3,0.1,0.7,0,1,0c0.9-0.1,1.7-0.3,2.6-0.4
	c0.1,0,0.3,0,0.4-0.1c0.4-0.3,0.2-0.9,0.2-1.3C146.2,100.3,147.4,99.6,147.7,98.6"/>
<g>
	<path class="st7" d="M148.5,92.3c0-0.1,0.2-0.1,0.3-0.1c0.1-0.2,0.1-0.3,0-0.5c-0.1-0.2-0.3-0.3-0.5-0.3c-0.5-0.1-1,0.3-1.4,0.8
		c-0.4,0.5-0.9,1.3-1.8,1.6H145l0,0l0,0l0,0h-0.1c-0.1,0-0.3,0-0.4,0c-0.3,0-0.5-0.1-0.7-0.2c-0.5-0.2-0.8-0.6-1-0.9
		c-0.5-0.7-0.6-1.5-0.5-2.1c0-0.7,0.3-1.2,0.6-1.4c0.3-0.2,0.5-0.3,0.5-0.3l0.1,0.1c0,0-0.1,0.1-0.2,0.4c-0.1,0.3-0.2,0.7-0.1,1.2
		c0,0.4,0.2,1,0.5,1.5c0.1,0.2,0.3,0.4,0.5,0.6c0.1,0.1,0.2,0.2,0.3,0.2c0.1,0,0.1,0,0.2,0h0.1l0,0l0,0c0,0,0.1,0,0,0l0,0l0,0h0.1
		c0.5-0.1,1-0.7,1.5-1.2c0.3-0.3,0.6-0.6,0.9-0.7c0.3-0.2,0.7-0.2,1-0.2s0.6,0.2,0.7,0.5c0.1,0.3,0,0.5-0.1,0.7
		c-0.1,0.2-0.2,0.3-0.3,0.3C148.5,92.3,148.5,92.3,148.5,92.3L148.5,92.3z"/>
</g>
<g>
	<path class="st7" d="M150.6,97.2c-0.1,0.1-0.3,0.4-0.5,0.6c-0.4,0.5-1.3,1-2.4,1.3c-0.6,0.1-1.2,0.2-1.8,0.3
		c-0.7,0.1-1.3,0.2-2,0.2c-1.3,0.1-2.9,0.1-4.4-0.3l-0.3-0.1c-0.2-0.1-0.2-0.1-0.3-0.1l-0.5-0.2c-0.3-0.2-0.7-0.3-1-0.4
		c-0.8-0.2-1.4-0.5-2-0.8c-1.2-0.5-2.4-1.1-3.3-1.7c-0.9-0.6-1.6-1.2-2.1-1.6c-0.2-0.2-0.4-0.4-0.5-0.5c-0.1-0.1-0.2-0.2-0.2-0.2
		s0.3,0.2,0.9,0.4c0.6,0.2,1.4,0.6,2.4,0.9c1.1,0.3,2.2,0.7,3.5,1.1c0.6,0.2,1.2,0.4,1.9,0.6c0.3,0.1,0.7,0.2,1,0.3l0.5,0.2
		c0.1,0.1,0.2,0.1,0.2,0.1l0.2,0.1c1.3,0.3,2.7,0.4,4,0.5c1.4,0,2.6,0.1,3.6,0.1s1.9-0.2,2.4-0.5c0.3-0.2,0.5-0.3,0.6-0.4
		c0.1-0.1,0.2-0.2,0.2-0.2S150.7,97,150.6,97.2z"/>
</g>
<g>
	<path class="st7" d="M126.4,91.9c-0.1,0.1-0.1,0.3-0.1,0.4c0,0.3-0.1,0.6-0.3,1c-0.2,0.3-0.4,0.7-0.6,0.9c0,0.1-0.1,0.2-0.2,0.3
		c0,0.1-0.1,0.1-0.1,0.1s0.1-0.8,0.4-1.5c0.2-0.3,0.4-0.7,0.6-0.9c0.2-0.3,0.4-0.4,0.4-0.4S126.5,91.8,126.4,91.9z"/>
</g>
<g>
	<path class="st4" d="M148.7,98.2c-0.1,0.1-0.2,0.2-0.4,0.4c-0.2,0.1-0.3,0.4-0.5,0.6c-0.2,0.3-0.3,0.5-0.5,0.8
		c-0.3,0.6-0.5,1.1-0.7,1.6c-0.2,0.5-0.3,0.8-0.3,0.8s0-0.3,0-0.8c0-0.5,0.2-1.2,0.5-1.8c0.4-0.6,0.9-1.1,1.3-1.4
		c0.4-0.3,0.7-0.4,0.7-0.4S148.7,98.1,148.7,98.2z"/>
</g>
<g>
	<path class="st4" d="M146.8,102.6c-0.4,0.2-1.1,0.5-2,0.6c-0.8,0.2-1.9,0.2-3,0.1c-1.2-0.2-2.3-0.5-3.4-1c-1.1-0.6-2.1-1.3-2.9-2
		c-0.8-0.8-1.5-1.6-2-2.3c-0.5-0.7-0.9-1.3-1.1-1.8c-0.2-0.4-0.3-0.7-0.3-0.7s0.1,0.3,0.4,0.7c0.2,0.4,0.7,1,1.2,1.7
		c0.6,0.7,1.3,1.4,2.1,2.1c0.8,0.7,1.8,1.3,2.8,1.8c1,0.5,2.1,0.8,3.2,1c1,0.2,2,0.2,2.9,0.1c0.8-0.1,1.5-0.2,2-0.4
		c0.5-0.2,0.8-0.3,0.8-0.3S147.3,102.4,146.8,102.6z"/>
</g>
<g>
	<path class="st8" d="M130.5,58.7c-3-0.9-10.6-2.9-11.4-2.7c-0.4,0-0.7,0.3-1,0.4c-3.5,2-6.9,4.3-10.1,6.8c2.9-1.4,5.7-2.8,8.6-4.2
		c0.9-0.4,1.8-0.8,2.7-0.7c0.5,0,13,3.9,13.8,4c0.8,0.1,4.1-0.9,3.5-1.5C136.7,60.8,132.4,59.2,130.5,58.7z"/>
	<path class="st4" d="M130.5,58.8c-1.9-0.5-3.8-1.1-5.7-1.5c-0.9-0.2-1.9-0.4-2.9-0.6c-0.5-0.1-1-0.2-1.4-0.3
		c-0.2,0-0.5-0.1-0.7-0.1c-0.2,0-0.5-0.1-0.7,0l0,0c-0.3,0-0.5,0.2-0.9,0.4l0,0c-3.5,2.1-6.8,4.3-9.9,6.9l-0.4-0.7l6.9-3.5l1.7-0.9
		c0.6-0.3,1.2-0.6,1.9-0.7c0.4-0.1,0.7-0.1,1.1,0c0.3,0.1,0.7,0.2,1,0.2l1.9,0.5c1.2,0.4,2.5,0.7,3.7,1.1c1.2,0.4,2.5,0.7,3.7,1.1
		l1.8,0.6l0.9,0.3c0.3,0.1,0.6,0.2,0.8,0.2c0.5,0,1.2-0.2,1.8-0.3c0.3-0.1,0.6-0.2,0.9-0.3c0.1-0.1,0.3-0.1,0.4-0.2
		c0.1,0,0.1-0.1,0.1-0.1c0,0,0,0.1,0,0.1c0,0,0,0,0,0l0.1,0C134.6,60.2,132.5,59.5,130.5,58.8z M130.5,58.7c2.1,0.7,4.2,1.3,6.3,1.9
		l0,0l0,0c0.1,0.1,0.1,0.1,0.2,0.2c0,0.1,0,0.2,0,0.3c-0.1,0.1-0.1,0.3-0.2,0.3c-0.2,0.1-0.3,0.2-0.5,0.3c-0.3,0.2-0.6,0.3-0.9,0.4
		c-0.6,0.2-1.2,0.5-2,0.5c-0.4,0-0.7-0.1-1.1-0.2l-0.9-0.2l-1.9-0.5c-1.3-0.3-2.5-0.7-3.7-1c-1.2-0.4-2.5-0.7-3.7-1.1l-1.8-0.6
		c-0.3-0.1-0.6-0.2-0.9-0.3c-0.2-0.1-0.5,0-0.8,0c-0.6,0.1-1.1,0.3-1.7,0.6l-1.7,0.8l-7,3.3l-3.3,1.6l2.8-2.2
		c3.2-2.5,6.6-4.8,10.2-6.7l0,0l0,0c0.3-0.1,0.6-0.4,1-0.4l0,0c0.3,0,0.6,0,0.8,0.1c0.2,0,0.5,0.1,0.7,0.1c0.5,0.1,1,0.2,1.4,0.3
		l2.8,0.7C126.7,57.6,128.6,58.1,130.5,58.7z"/>
</g>
<path class="st9" d="M127.1,62.9c0-0.2-1.6-0.5-2.1-0.6c-0.7-0.1-1.4-0.2-2.1,0c-0.7,0.2-1.3,0.5-1.6,1.2c-0.2,0.3-0.2,0.8-0.2,1.2
	c0,0.6,0,1.2,0.2,1.7c0.3,0.8,0.2,0.7,0.8,1.2c0.2,0.2,0.7,0.4,1,0.5c0.2,0.2,0.5,0.2,0.7,0.2c1.2,0,2.6-0.3,3.4-1.3
	C128.3,65.9,128.1,63.9,127.1,62.9"/>
<path class="st6" d="M148.8,67c-0.1,0.1-0.2,0.1-0.1,0.2c0.1,0.1,0.2,0.1,0.3,0.1c2.8,0.3,4.7,0.9,8.6,0.6c0.8-0.1,1.6-0.1,2.3-0.3
	c0.6-0.1,1.1-0.4,1.6-0.6c1.4-0.6,2.2-1.3,3.3-2.1c0.1-0.1,0.2-0.2,0.2-0.3c0-0.1,0.3-0.3,0.2-0.3c-1.1-0.7-2.2-1.4-3.6-1.6
	c-0.6-0.1-1.5-0.1-2.1-0.2c-1.4-0.1-2.1-0.1-3.7,0c-0.5,0-1.3,0.1-1.7,0.3c-0.3,0.1-0.6,0.2-0.9,0.3c-1.2,0.5-2.1,1.3-3,2.1
	C149.7,65.8,149.3,66.3,148.8,67z"/>
<g>
	<path class="st7" d="M150.2,64.6c0,0,0.3-0.6,1-1.3c0.6-0.7,1.5-1.7,2.6-2.4c0.6-0.4,1.1-0.8,1.7-0.9c0.6-0.1,1.2-0.2,1.7-0.1
		c1,0,1.6,0.2,1.6,0.2l0,0c0,0-0.6,0-1.6,0c-0.5,0-1.1,0.1-1.6,0.2c-0.6,0.1-1.2,0.4-1.7,0.7c-1.1,0.7-2,1.6-2.7,2.3
		C150.6,64,150.2,64.6,150.2,64.6L150.2,64.6z"/>
</g>
<path class="st9" d="M158.4,62.6c0-0.1-0.2-0.2-0.4-0.2c-0.5,0-1,0-1.6,0.1c-0.6,0-1.2,0.1-1.7,0.4c-0.5,0.3-1,0.7-1.1,1.3
	c-0.1,0.3,0,0.7,0.1,1.1c0.1,0.5,0.2,1,0.5,1.4c0.5,0.7,0.4,0.6,1,0.9c0.2,0.1,0.7,0.2,0.9,0.2c0.3,0.1,0.4,0.1,0.7,0
	c1.2-0.2,2.1-0.8,2.7-1.7C160.1,64.9,159.6,63.3,158.4,62.6"/>
<circle class="st6" cx="122.8" cy="63.7" r="0.9"/>
<g>
	<path class="st8" d="M154.8,57.7c2.8-0.7,10.1-2.3,10.7-2c0.3,0.1,0.5,0.3,0.9,0.5c3.1,2.2,3.3,1.7,2.7,3.7c-2.6-1.6,1,0.6-1.6-1
		c-0.8-0.5-1.5-1-2.4-0.9c-0.6,0-12.3,3-13.1,3.1c-0.8,0.1-3.8-1.1-3.2-1.6C148.8,59.5,153,58.2,154.8,57.7z"/>
	<path class="st4" d="M154.8,57.6l4.2-1c1.4-0.3,2.8-0.7,4.2-1c0.4-0.1,0.7-0.1,1.1-0.2c0.4-0.1,0.7-0.1,1.1-0.1
		c0.1,0,0.3,0,0.4,0.1l0.3,0.1c0.2,0.1,0.3,0.2,0.5,0.3l0.9,0.6c0.6,0.4,1.2,0.7,1.8,1.2c0.2,0.1,0.3,0.3,0.4,0.5
		c0.1,0.2,0.2,0.5,0.1,0.7c0,0.4-0.1,0.8-0.2,1.1l-0.1,0.5l-0.4-0.3l-0.6-0.4l-0.3-0.2l-0.1,0l0,0c0.2-0.3-0.4,0.7,0.4-0.7l0,0l0,0
		l0,0l0.2,0.1l0.2,0.1l0,0l0,0c0.2-0.1-0.8,1.3-0.4,0.7l0,0l0,0l-0.1,0l-0.3-0.2l-0.6-0.4c-0.4-0.2-0.8-0.5-1.2-0.6
		c-0.4-0.1-0.7-0.2-1.2-0.1l-2.7,0.7l-2.8,0.7c-1.8,0.5-3.7,0.9-5.5,1.3c-0.5,0.1-0.9,0.2-1.4,0.3c-0.2,0-0.5,0.1-0.9,0.1
		c-0.3,0-0.5-0.1-0.8-0.2c-0.5-0.2-0.9-0.4-1.4-0.6c-0.2-0.1-0.4-0.3-0.7-0.5c-0.1-0.1-0.2-0.2-0.3-0.4c0-0.1-0.1-0.2-0.1-0.4
		c0-0.2,0.1-0.3,0.2-0.4l0,0l0.1,0l3.1-0.7C152.7,58.2,153.8,57.9,154.8,57.6z M154.8,57.7c-1,0.3-2,0.6-3,1l-3,1.1l0.1-0.1
		c0,0,0,0,0.1-0.1c0-0.1,0-0.1,0,0c0,0,0.1,0.1,0.2,0.1c0.2,0.1,0.4,0.2,0.6,0.3c0.4,0.2,0.8,0.3,1.3,0.4c0.2,0.1,0.4,0.1,0.6,0.1
		c0.1,0,0.3,0,0.5-0.1l1.4-0.3c1.8-0.5,3.7-0.9,5.5-1.3l2.8-0.6l2.8-0.6c0.5-0.1,1.1-0.1,1.6,0.1c0.5,0.2,0.9,0.5,1.3,0.7l0.6,0.4
		l0.3,0.2l0.1,0l0,0l0,0c0.3-0.6-0.6,0.8-0.4,0.7l0,0c0,0,0,0,0,0l-0.1-0.1l-0.2-0.1l0,0l0,0l0,0c0.8-1.4,0.3-0.3,0.4-0.7l0,0
		l0.1,0.1l0.3,0.2l0.6,0.4l-0.6,0.2c0.1-0.3,0.2-0.7,0.2-1c0-0.3,0-0.4-0.3-0.6c-0.5-0.4-1.1-0.8-1.7-1.2l-0.9-0.6
		c-0.1-0.1-0.3-0.2-0.4-0.3l-0.2-0.1c-0.1,0-0.1,0-0.2,0c-0.3,0-0.7,0-1,0.1c-0.4,0-0.7,0.1-1.1,0.1c-1.4,0.2-2.8,0.4-4.2,0.7
		C157.6,57,156.2,57.4,154.8,57.7z"/>
</g>
<circle class="st6" cx="155.2" cy="64.1" r="0.8"/>
<path class="st10" d="M114.4,11.8c-8,1.5-18.1,5.6-22.9,12.4c-1.9,2.6-2.9,5.8-3.8,8.9c-5.4,20.7-0.3,44.1,13.2,60.4
	c-2-9.4-3.7-18.9-4.9-28.4c-0.4-3.4-0.8-7,0.2-10.3c0.8-2.5,2.3-4.7,3.8-6.8c5.1-7.4,9.5-15.2,13.2-23.4c1.7-3.7,3.3-7.9,2.1-11.8"
	/>
<g>
	<g>
		<path class="st11" d="M160.2,64.6c0.2-0.3-1.1-0.7-1.3-0.3c-0.4,1.4-1.3,2.7-2.9,2.8c-0.9,0.1,0.1,0.6,0.5,0.6
			c0.8,0,1.6-0.3,2.2-0.8C159.5,66.4,159.9,65.5,160.2,64.6L160.2,64.6z"/>
	</g>
</g>
<g>
	<g>
		<path class="st11" d="M128.3,64.9c0-0.3-1.3-0.4-1.4,0c-0.3,1.2-1.2,2.3-2.4,2.7c-0.9,0.3,0.2,0.6,0.6,0.5
			C126.8,67.6,128,66.5,128.3,64.9L128.3,64.9z"/>
	</g>
</g>
<g>
	<path class="st11" d="M146.4,100.6c0.1,0.1,0,0.1,0,0.2c0,0-0.2,0.1-0.3,0.2c-0.1,0.1-0.3,0.2-0.5,0.2s-0.4,0-0.6,0
		c-0.4,0-0.8,0-1.1-0.1c-0.3,0-0.5-0.1-0.5-0.1v-0.1c0,0,0.2,0,0.5,0c0.2-0.1,0.6-0.1,1-0.2c0.1,0,0.3-0.1,0.5-0.1
		c0.2,0,0.4,0,0.5,0s0.2,0,0.3,0C146.3,100.6,146.4,100.6,146.4,100.6L146.4,100.6z"/>
</g>
<path class="st11" d="M134.4,96.7c-0.4-0.2-0.9-0.3-1.3-0.5c-0.3-0.1-0.5-0.2-0.7-0.3c-0.1,0.2,0,0.5,0.2,0.7
	c0.1,0.2,0.3,0.4,0.5,0.6c0.2,0.2,0.3,0.5,0.5,0.8c0.2,0.3,0.4,0.5,0.7,0.7c-0.2-0.7-0.2-1.4-0.1-2.1"/>
<g>
	<path class="st12" d="M100.7,85.8c-5.6-1.5-10.7-5.3-13.7-10.3c-3-5-4.1-11.3-2.8-17c0.6-2.3,1.6-4.9,3.9-5.7
		c2.6-1.1,5.4,0.6,7.7,2.1c1.2,0.8,2.5,1.6,3.6,2.5"/>
	<path class="st4" d="M97.1,56.1c-0.7-0.4-1.4-0.8-2.3-1.4c-0.9-0.6-2-1.2-3.2-1.5c-1.2-0.4-2.6-0.6-3.8,0c-1.2,0.6-2.1,1.8-2.7,3.2
		c-0.4,0.7-0.6,1.5-0.7,2.2c-0.1,0.8-0.2,1.6-0.4,2.5c-0.1,1.6-0.1,3.4,0.1,5c0.5,3.3,1.5,6.6,3.2,9.3c0.8,1.3,1.8,2.6,2.7,3.6
		c1.1,1.1,2,2,3,2.8c2,1.5,3.9,2.6,5.3,3.2c1.4,0.6,2.2,0.8,2.2,0.8s-0.2,0-0.6-0.1c-0.4-0.1-0.9-0.2-1.6-0.5
		c-1.4-0.5-3.5-1.3-5.6-2.8c-1.2-0.7-2.2-1.6-3.3-2.7c-1.1-1.1-2.1-2.3-2.9-3.8c-1.8-2.8-2.9-6.2-3.4-9.7c-0.2-1.8-0.2-3.5,0-5.3
		c0.1-0.9,0.4-1.8,0.5-2.6c0.2-0.8,0.5-1.6,0.8-2.5c0.7-1.5,1.9-2.9,3.4-3.5c1.5-0.7,3-0.4,4.3,0.1c1.3,0.5,2.3,1.2,3.2,1.8
		c0.8,0.7,1.6,1.2,2.2,1.6c1.2,0.9,1.9,1.4,1.9,1.4S98.7,56.8,97.1,56.1z"/>
</g>
<g>
	<path class="st12" d="M93.9,80.5c0.7,1.3,2,2.1,3.3,2.2c1.3,0.1,2.9-1.2,3.6-2.5c-1.3-0.9-4.3-6.8-4.1-7.4c0.7-1.5,3.2-1.5,3.4-3.2
		c0.1-0.8,0.2-1.5,0.1-2.3c-0.1-0.8-0.5-1.6-0.8-2.3c-1.5-3.4-3.5-6.9-6.9-8c-0.9-0.4-2.1-0.4-2.9,0.4c-0.7,0.6-1.1,1.5-1.3,2.5
		c-0.5,1.8-1.1,3.5-1.5,5.3c-0.2,0.8-0.5,1.5-0.5,2.3c0,1.1,0.5,2.1,0.9,3.2c0.5,1.1,0.9,2.1,1.4,3.2c0.4,0.6,0.6,1.2,1.1,1.6
		c0.5,0.4,1.1,0.6,1.5,0.9c1.3,0.8,2,2.3,2.6,3.8"/>
	<path class="st7" d="M91.9,77.3c-0.4-0.4-0.8-0.7-1.4-0.9c-0.5-0.4-1.1-0.7-1.4-1.3c-0.7-1.1-1.1-2.2-1.6-3.3
		c-0.5-1.2-1.1-2.2-1.3-3.5c-0.2-1.3,0.2-2.6,0.5-3.8c0.2-1.2,0.6-2.3,0.9-3.5l0.5-1.8c0.2-0.6,0.5-1.2,0.9-1.8
		c0.5-0.6,1.2-0.9,1.9-1.1c0.8-0.1,1.4,0,2.1,0.2c0.6,0.1,1.2,0.5,1.8,0.8c0.6,0.4,1.1,0.7,1.5,1.2c0.9,0.9,1.6,2,2.2,3
		c0.6,1.1,1.2,2.2,1.6,3.3c0.2,0.5,0.6,1.1,0.7,1.8c0.1,0.7,0.1,1.4,0.1,2c0,0.4-0.1,0.6-0.1,0.9v0.2v0.2c0,0.1-0.1,0.5-0.2,0.6
		c-0.5,0.7-1.2,1.1-1.6,1.3c-0.5,0.2-0.9,0.5-1.3,0.8c-0.1,0-0.2,0.1-0.2,0.2l0,0c0,0-0.1,0.1,0-0.1l0,0l0,0v0.1l0,0
		c0,0.1,0.1,0.5,0.2,0.7c0.4,1.1,0.9,2.1,1.5,3.2c0.6,0.9,1.2,2.1,2,2.8l0.2,0.2l-0.1,0.2c-0.5,0.7-1.1,1.2-1.6,1.6
		c-0.6,0.5-1.3,0.8-2.1,0.8c-1.6,0-2.9-1.1-3.5-2.5c0.4,0.6,0.9,1.2,1.5,1.5c0.2,0.2,0.6,0.4,0.9,0.5c0.4,0.1,0.7,0.1,1.1,0.1
		c0.7-0.1,1.3-0.5,1.9-0.9c0.5-0.4,0.9-0.9,1.3-1.5l0.1,0.5c-1.1-0.8-1.6-1.9-2.3-2.9s-1.3-2.1-1.8-3.3c-0.1-0.4-0.2-0.6-0.4-0.9
		c0-0.1,0-0.2,0-0.4v-0.1l0,0l0,0c0-0.2,0,0,0-0.1v-0.1c0.1-0.1,0.2-0.4,0.4-0.5c0.5-0.6,1.2-0.9,1.6-1.2c0.5-0.4,0.9-0.6,1.2-0.9
		c0.1-0.2,0.2-1.1,0.2-1.5c0.1-1.1-0.2-2.1-0.8-3.2c-0.5-1.1-1.1-2.1-1.6-3.2c-0.6-1.1-1.3-2-2.1-2.8c-0.4-0.4-0.8-0.7-1.3-1.1
		c-0.5-0.2-0.9-0.5-1.5-0.7c-0.9-0.4-2.1-0.2-2.7,0.5c-0.6,0.8-0.8,2-1.2,3.2c-0.4,1.2-0.7,2.3-1.1,3.5c-0.4,1.2-0.7,2.2-0.6,3.3
		c0.2,1.1,0.7,2.1,1.2,3.3c0.5,1.1,0.9,2.2,1.4,3.3c0.5,1.1,1.9,1.3,2.7,2.3s1.2,2.1,1.6,3.3C93.3,79.1,92.8,77.9,91.9,77.3z"/>
</g>
<g>
	<path class="st11" d="M138.3,253.6c0,0,1.3,0.5,3.3,1.3c2,0.8,4.7,1.8,7.3,2.7c1.3,0.4,2.7,0.9,4,1.2c1.3,0.4,2.4,0.8,3.4,1
		c0.5,0.2,1,0.3,1.4,0.4c0.4,0.1,0.8,0.1,1.1,0.2c0.3,0.1,0.5,0,0.7,0c0.2,0,0.3,0,0.3,0l0,0.1c0,0-0.1,0-0.2,0.1
		c-0.2,0-0.4,0.1-0.7,0.2c-0.3,0-0.7,0.1-1.2,0c-0.4,0-1,0-1.5-0.1c-0.5-0.1-1.1-0.2-1.7-0.3c-0.6-0.1-1.2-0.3-1.9-0.5
		c-1.3-0.4-2.6-0.9-3.9-1.5c-2.7-1.1-5.3-2.2-7.2-3.1C139.6,254.3,138.3,253.7,138.3,253.6L138.3,253.6z"/>
</g>
<g>
	<path class="st11" d="M154.7,271.4c0,0,0.4,0.1,1.1,0.3c0.4,0,0.8,0.1,1.3,0.1c0.5,0,1.1,0,1.7-0.1c1.3-0.1,2.7-0.4,4.2-0.8
		c0.8-0.2,1.5-0.4,2.3-0.7c0.8-0.3,1.6-0.5,2.4-0.9c0.8-0.3,1.6-0.6,2.3-1c0.8-0.3,1.5-0.7,2.2-1.1c0.7-0.4,1.4-0.7,2-1.1
		c0.6-0.4,1.2-0.7,1.7-1c0.5-0.3,1-0.6,1.4-0.9c0.4-0.3,0.8-0.5,1.1-0.8c0.6-0.5,0.9-0.7,0.9-0.7l0.1,0.1c0,0-0.3,0.3-0.7,0.9
		c-0.2,0.3-0.6,0.6-0.9,1c-0.4,0.4-0.8,0.8-1.3,1.2c-0.5,0.4-1.1,0.8-1.7,1.2c-0.6,0.4-1.3,0.8-2,1.2c-0.7,0.3-1.5,0.7-2.3,1
		c-0.8,0.3-1.6,0.6-2.4,0.9c-0.8,0.3-1.6,0.5-2.4,0.8c-0.8,0.2-1.6,0.4-2.4,0.6c-0.8,0.2-1.5,0.3-2.3,0.4c-0.7,0.1-1.4,0.1-2.1,0.2
		c-0.6,0-1.2,0-1.8,0c-0.5-0.1-1-0.1-1.4-0.2C155.1,271.6,154.7,271.5,154.7,271.4L154.7,271.4z"/>
</g>
<g>
	<path class="st11" d="M168.7,279.8c0,0,3.8-3.6,7.7-7.1c1-0.9,1.9-1.8,2.8-2.6c0.9-0.8,1.8-1.5,2.6-2.1c1.6-1.2,2.8-1.8,2.8-1.8
		l0.1,0.1c0,0-0.8,1.1-2.2,2.4c-0.7,0.7-1.5,1.5-2.5,2.3c-0.9,0.8-2,1.6-3,2.4C172.9,276.7,168.7,279.9,168.7,279.8L168.7,279.8z"/>
</g>
<g>
	<path class="st8" d="M162.2,15.3c0.6,1.3,0.7,0.4,1.3,1.7c2.4,5.1,7.9,11.4,7.5,20.7c-0.2,5.7-2.2,7.1-6,11c-2.2,2.3-5.1,3.6-8,4.6
		c-5.3,1.9-10.8,3.1-16.4,3.7c1.6-0.3,3.2-1,4.6-2c-4.2,0-8.4-0.1-12.6-0.1c1.3-2.4,3.3-4.3,5.6-5.3c-5.5,0.3-11.1,0.6-16.6,0.9
		c1.6-1.2,3.1-2.5,4.7-3.7c-6,2.3-12.1,4.5-18.1,6.8c1.2-0.8,2.4-1.6,3.6-2.5c-5.1,1.7-10.5,2.6-15.8,2.7c3-8.9,2.1-17.4,5.2-26.3
		c1.5-4.5,4.9-10.8,8.2-13.9c2.5-2.3,7.1-4.3,10.3-5.2c13.7-3.6,29.2-0.2,42.1,6"/>
	<path class="st4" d="M162.2,15.2c0.1,0.3,0.3,0.6,0.5,0.8c0.3,0.1,0.5,0.5,0.7,0.8c0.3,0.6,0.6,1.2,0.9,1.8c0.6,1.2,1.3,2.3,2,3.4
		c1.3,2.3,2.6,4.7,3.4,7.2c0.4,1.3,0.8,2.6,1,3.9c0.1,0.7,0.2,1.3,0.2,2l0.1,1l0,1c0,1.3-0.1,2.7-0.4,4c-0.3,1.3-0.9,2.6-1.7,3.6
		c-0.8,1.1-1.7,2-2.7,3c-0.9,0.9-1.8,2-2.9,2.7c-2.2,1.6-4.7,2.6-7.2,3.5c-5,1.8-10.3,2.9-15.6,3.5l-0.1-0.6c1.6-0.3,3.1-1,4.4-2
		l0.2,0.6l-12.6-0.1l-0.6,0l0.3-0.5c1.2-2.4,3.3-4.4,5.8-5.5l0.2,0.7l-16.6,0.9l-1.4,0.1l1.1-0.9l4.7-3.8l0.4,0.8L108.3,54l-4.1,1.6
		l3.6-2.5l3.6-2.5l0.5,1c-5.1,1.8-10.6,2.7-16,2.8l-0.9,0l0.3-0.8c1.3-3.8,1.9-7.8,2.4-11.9c0.5-4,1-8.2,2.1-12.2
		c0.5-2,1.3-4,2.1-5.9c0.9-1.9,1.8-3.7,2.9-5.5c1.1-1.8,2.3-3.5,3.9-4.9c1.6-1.5,3.4-2.5,5.3-3.4c1.9-0.9,3.8-1.6,5.9-2.1
		c2-0.5,4-0.9,6.1-1.1c0.5,0,1-0.1,1.5-0.2l1.5-0.1c1-0.1,2.1,0,3.1,0c1,0,2.1,0.1,3.1,0.2c1,0.1,2,0.2,3.1,0.3
		c2,0.3,4.1,0.6,6.1,1.1c2,0.5,4,1,5.9,1.6c2,0.6,3.9,1.3,5.8,2.1c1.9,0.8,3.8,1.6,5.6,2.5l-0.1,0.1c-1.9-0.8-3.7-1.7-5.6-2.4
		c-1.9-0.7-3.8-1.4-5.8-1.9c-1-0.3-2-0.6-3-0.8c-1-0.3-2-0.5-3-0.7c-2-0.4-4-0.7-6-1c-1-0.1-2-0.2-3-0.3c-1,0-2-0.1-3-0.1
		c-1,0-2,0-3,0.1c-1,0.1-2,0.1-3,0.3c-2,0.2-4,0.6-6,1.1c-1.9,0.5-3.8,1.2-5.6,2.1c-1.8,0.9-3.6,1.9-5,3.3c-1.4,1.4-2.6,3-3.6,4.7
		c-1.1,1.7-2,3.5-2.8,5.3c-0.8,1.8-1.5,3.7-2.1,5.7c-1.1,3.9-1.5,7.9-2,12c-0.5,4.1-1.1,8.2-2.5,12.1l-0.6-0.8
		c5.3,0,10.6-0.9,15.7-2.6l3.7-1.2l-3.3,2.2l-3.6,2.4l-0.5-0.9l18.1-6.8l2.8-1l-2.3,1.8l-4.7,3.7l-0.3-0.8l16.6-0.8l2.2-0.1l-2,0.9
		c-2.3,1-4.3,2.9-5.5,5.1l-0.3-0.5l12.6,0.1l1,0l-0.8,0.6c-1.4,1-3,1.8-4.7,2l-0.1-0.6c5.3-0.5,10.5-1.6,15.5-3.3
		c2.5-0.8,5-1.8,7.1-3.4c1.1-0.8,1.9-1.7,2.9-2.7c0.9-0.9,1.9-1.9,2.7-2.9c0.8-1,1.4-2.2,1.7-3.5c0.3-1.3,0.4-2.6,0.4-3.9l0-1
		l-0.1-1c0-0.7-0.1-1.3-0.2-2c-0.2-1.3-0.5-2.6-1-3.8c-0.8-2.5-2.1-4.9-3.4-7.2c-0.7-1.2-1.3-2.3-2-3.5c-0.3-0.6-0.6-1.2-0.9-1.8
		c-0.2-0.3-0.3-0.6-0.6-0.7c-0.3-0.2-0.4-0.5-0.6-0.8L162.2,15.2z"/>
</g>
<path class="st13" d="M97.5,54.5c-0.1,1.1,0.8,2,1.5,2.8c2.6,3,3.2,7.2,3.7,11.1c1.1-4.9,2.2-10,4.7-14.4c0.6-1.1,1.4-2.1,2.5-2.8"
	/>
<path class="st14" d="M193.4,198.8l-0.1-14.6c0-0.7-0.6-1.2-1.4-1.2h-6.3c-0.8,0-1.4,0.5-1.4,1.2l-0.1,14"/>
<g class="st15">
	<g>
		<path class="st16" d="M193.2,183.7c0,0,0,0.1-0.1,0.2c-0.1,0.1-0.3,0.2-0.5,0.3c-0.5,0.2-1.2,0.4-2.1,0.5c-0.9,0.1-1.9,0.2-3,0.2
			c-0.6,0-1.1,0-1.7-0.1c-0.3,0-0.6-0.1-0.9-0.2c-0.2-0.1-0.3-0.1-0.5-0.2c-0.1-0.1-0.4-0.2-0.4-0.6l0-0.1l0,0l0,0c0,0,0,0,0-0.1
			c0-0.1,0.1-0.2,0.1-0.2c0.1-0.1,0.2-0.2,0.2-0.2c0.2-0.1,0.3-0.2,0.5-0.2c0.3-0.1,0.6-0.2,0.9-0.2c0.6-0.1,1.2-0.1,1.7-0.1
			c1.1,0,2.1,0.1,3,0.2c0.9,0.1,1.6,0.3,2.1,0.5c0.2,0.1,0.4,0.2,0.5,0.3C193.2,183.6,193.2,183.7,193.2,183.7z M193.2,183.7
			c0,0,0-0.1-0.1-0.2c-0.1-0.1-0.3-0.2-0.5-0.3c-0.5-0.2-1.2-0.3-2.1-0.4c-0.9,0-1.9,0-3,0.1c-0.5,0.1-1.1,0.2-1.6,0.3
			c-0.3,0.1-0.5,0.1-0.8,0.2c-0.1,0-0.2,0.1-0.3,0.2c-0.1,0-0.1,0.1-0.1,0.1c0,0,0,0,0,0c0,0,0,0,0,0l0,0l0,0l0,0c0,0,0,0.1,0-0.1
			c0-0.1,0,0,0.1,0.1c0.1,0.1,0.2,0.1,0.3,0.2c0.2,0.1,0.5,0.2,0.8,0.2c0.5,0.1,1.1,0.2,1.6,0.3c1.1,0.1,2.1,0.2,3,0.1
			c0.9,0,1.6-0.2,2.1-0.4c0.2-0.1,0.4-0.2,0.5-0.3C193.2,183.8,193.2,183.7,193.2,183.7z"/>
	</g>
</g>
</svg>
