<?xml version="1.0" encoding="utf-8"?>
<!-- Generator: Adobe Illustrator 19.0.1, SVG Export Plug-In . SVG Version: 6.00 Build 0)  -->
<svg version="1.1" id="Layer_1" xmlns="http://www.w3.org/2000/svg" xmlns:xlink="http://www.w3.org/1999/xlink" x="0px" y="0px"
	 viewBox="0 0 159 293.8" style="enable-background:new 0 0 159 293.8;" xml:space="preserve">
<style type="text/css">
	.st0{stroke:#FFFFFF;}
	.st1{fill:#FFFFFF;stroke:#000000;}
	.st2{fill:#FFFFFF;}
	.st3{fill:#FFFFFF;stroke:#FFFFFF;stroke-width:1.0909;}
</style>
<path class="st0" d="M6.3,26.9V11.4h113v16.5h-5.9c-18,0-27.1,10.6-27.1,31.8v179.5c0,11.6,2.2,19.6,6.5,24.1
	c4.3,4.5,11.4,6.7,21.3,6.7h5.2v13.5l-113-3V270h5c17.2,0,25.9-9.7,25.9-29.1V59.7c0-11.8-2-20.1-6.1-24.8c-4.1-4.7-10.8-8-20.1-8
	H6.3z"/>
<path class="st1" d="M24.4,27.9V11.4h93l20,16.5h-5.9c-18,0-27.1,10.6-27.1,31.8v179.5c0,11.6,2.2,19.6,6.5,24.1
	c4.3,4.5,11.4,6.7,21.3,6.7h5.2v14.5l-113-2V270h5c17.2,0,25.9-9.7,25.9-29.1V59.7c0-11.8-2-20.1-6.1-24.8c-4.1-4.7-10.8-7-20.1-7
	H24.4z"/>
<path class="st0" d="M38.7,31.1V14.9h110.5v16.2h-5.8c-17.7,0-26.5,10.4-26.5,31.1v175.9c0,11.3,2.1,19.2,6.4,23.5
	c4.2,4.4,11.2,6.6,20.8,6.6h5.1v16.2H38.7v-16.2h4.9c16.9,0,25.3-9.5,25.3-28.5V62.2c0-11.6-2-19.7-5.9-24.2
	c-4-4.6-10.5-6.9-19.7-6.9H38.7z"/>
<polygon class="st0" points="38.7,14.9 6.3,11.4 6.3,26.9 38.7,31.1 "/>
<g>
	<path d="M6.1,281.8l-0.2-15.5c3.8,0.3,25.1,2.1,35.4,2.1c0.3,0,0.5,0,0.8,0l0.1,15.7L6.1,281.8z"/>
	<path class="st2" d="M6.5,266.8c5.1,0.4,25,2.1,34.9,2.1c0.1,0,0.2,0,0.3,0l0.1,14.6l-35.1-2.3L6.5,266.8 M5.4,265.6l0.2,16.6
		l37.3,2.4l-0.1-16.9c-0.4,0-0.9,0-1.4,0C29.9,267.8,5.4,265.6,5.4,265.6L5.4,265.6z"/>
</g>
<polygon class="st3" points="149.2,14.9 117.4,11.4 5.3,11.4 38.7,14.9 "/>
</svg>
