<?xml version="1.0" encoding="utf-8"?>
<!-- Generator: Adobe Illustrator 19.0.1, SVG Export Plug-In . SVG Version: 6.00 Build 0)  -->
<svg version="1.1" id="Layer_1" xmlns="http://www.w3.org/2000/svg" xmlns:xlink="http://www.w3.org/1999/xlink" x="0px" y="0px"
	 viewBox="0 0 360 504" style="enable-background:new 0 0 360 504;" xml:space="preserve">
<style type="text/css">
	.st0{fill:#7F6346;stroke:#231F20;stroke-width:0.6707;stroke-miterlimit:10;}
	.st1{fill:#7F6346;}
	.st2{fill:#231F20;}
	.st3{fill:#946AD8;}
	.st4{fill:#161312;}
	.st5{fill:#474747;stroke:#231F20;stroke-width:0.6707;stroke-miterlimit:10;}
	.st6{fill:#5027A0;}
	.st7{fill:none;stroke:#231F20;stroke-width:0.6707;stroke-miterlimit:10;}
	.st8{fill:none;stroke:#231F20;stroke-miterlimit:10;}
	.st9{fill:#513318;}
	.st10{fill:#191919;}
	.st11{fill:#EFEFEF;}
	.st12{fill:#898989;}
	.st13{fill:#513318;stroke:#000000;stroke-miterlimit:10;}
	.st14{fill:#939393;}
	.st15{fill:#D6AA7F;}
	.st16{fill:#B78355;}
	.st17{fill:#331C0B;}
	.st18{fill:#212121;}
	.st19{fill:#FFFFFF;}
	.st20{fill:#351C02;}
	.st21{fill:#822200;}
	.st22{fill:#230802;}
	.st23{fill:#C1C1C1;}
	.st24{fill:#B2B2B2;}
</style>
<path class="st0" d="M112.6,383.3c-0.7,7.9-5.7,14.7-7.6,22.4c-0.8,3.3-1.1,6.7-1.3,10.1c-1.7,27.7-1.8,60.5,0.3,88.2
	c14.6,1.4,29.9-0.6,44.5,0c15.4,0.7,30.7,0,46.1,0.7c11.5,0.5,23.4-1.2,34.9-0.7c8.8,0.4,12.5,0,22,0c6.8,0,18.2-0.5,25,0
	c-1.4-21.8-4.2-45.7-6.5-67.4c-1-8.8-2-17.7-4.5-26.2c-1.8-6.1-4.2-12.1-6.7-18c-1.2-2.9-2.4-5.7-3.6-8.6c-0.6-1.4-1.2-2.9-2.4-4
	c-3.7-3.5-9.5-0.8-14.1,1.2c-10.6,4.7-22.5,5-34,5.3c-24.1,0.6-48.1,1.2-72.2,1.4c-4.4,0-9.1,0-12.7-2.5c-2.2-1.5-4.6-3.9-7-2.8"/>
<g>
	<path class="st1" d="M179.8,410c-1.5,8.1-2,16.3-1.4,24.5c0.5,7.4,2,14.7,3.5,21.9c0.5,2.7,1.1,5.3,1.6,8"/>
	<path class="st2" d="M179.8,410c0,0-0.1,0.8-0.4,2.3c-0.2,1.5-0.5,3.6-0.7,6.2c-0.2,2.6-0.4,5.6-0.3,8.8c0,3.2,0.2,6.6,0.6,10
		c0.4,3.4,1,6.8,1.6,9.9c0.6,3.2,1.1,6.1,1.6,8.6c0.2,1.3,0.4,2.4,0.6,3.5c0.2,1,0.3,1.9,0.4,2.7c0.2,1.5,0.3,2.3,0.3,2.3l-0.1,0
		c0,0-0.2-0.8-0.6-2.3c-0.2-0.7-0.4-1.6-0.6-2.6c-0.2-1-0.5-2.2-0.8-3.4c-0.3-1.3-0.6-2.6-0.9-4.1c-0.3-1.4-0.6-3-0.9-4.6
		c-0.6-3.2-1-6.6-1.4-10c-0.3-3.4-0.5-6.9-0.4-10.1c0-3.2,0.3-6.2,0.6-8.8c0.3-2.6,0.6-4.7,0.9-6.2C179.6,410.8,179.7,410,179.8,410
		L179.8,410z"/>
</g>
<g>
	<path class="st3" d="M142.7,153.5c-12.5,6.4-25,12.8-37.5,19.2c-3.8,2-7.7,3.9-11.1,6.6c-2.6,2-4.8,4.4-7.1,6.8
		c-2,2.1-4,4.3-6.1,6.4c-2.2,2.3-4.3,4.6-6.2,7.2c-2.8,3.9-4.7,8.3-6.6,12.7c-5.6,12.9-11.3,25.9-16.9,38.8
		c-0.3,0.7-0.6,1.4-0.5,2.2c0.1,1,0.8,1.7,1.5,2.4c6.5,5.6,16.2,5.6,23.9,9.5c5.2,2.7,9.7,7.2,15.5,8.1c2,0.3,4.8-0.9,4-2.8
		c0.8,15.5,2.9,30.9,6.1,46c4,18.4,10,35.7,13.3,54.3c0.5,2.9,1.1,6,2.6,8.5c2,3.3,5.5,5.4,8.9,7.2c8.7,4.4,18.3,7.3,28,8.4
		c6.4,0.7,13,0.7,19.3,2.2c4.5,1.1,8.9,3.1,13.6,2.9c2.8-0.1,5.4-1,8.1-1.9c14-4.8,27.7-10.3,41.2-16.5c5.3-2.5,10.8-5.1,14.7-9.5
		c8.1-9.2,5.6-23.6,9.3-35.3c1.7-5.5,3.6-11.1,4.8-16.7c1.4-6.6,1.9-13.4,2.4-20.1c0.7-9.3,1.4-18.6,2.1-28c0.1-1.9,2.1-3.2,4-3.4
		c9.1-1,19.3-0.5,26.3-6.4c1-0.8,1.9-1.8,2.2-3.1c0.3-1.2,0-2.4-0.3-3.5c-3.4-13.2-7.4-26.2-12.1-38.9c-3.3-8.9-7-17.9-13.5-24.8
		c-4.2-4.5-9.4-7.9-14.5-11.3c-8.6-5.7-17.2-11.3-26.2-16.3c-6.7-3.7-13.6-7-20.7-10c-1.3-0.5-2.7-1.1-4.1-1.4
		c-1.9-0.4-3.8-0.4-5.8-0.4c-16.9,0-33.7,0-50.6,0c-4.4,0-8.8,0-13,1.1"/>
	<path class="st2" d="M142.8,153.6l-21.6,11.1l-10.8,5.6c-3.6,1.9-7.2,3.7-10.7,5.6c-1.7,1-3.4,2.1-5,3.3c-1.6,1.2-3.1,2.6-4.5,4
		c-2.8,2.9-5.6,5.9-8.4,8.8c-2.8,2.9-5.6,5.9-7.7,9.3c-2.2,3.4-3.8,7.1-5.4,10.8L59,234.4l-4.8,11.1l-2.4,5.6
		c-0.4,0.9-0.8,1.8-0.5,2.6c0.3,0.8,1.1,1.5,1.9,2.1c3.1,2.5,7,3.8,10.9,4.9c3.9,1.1,7.9,2,11.6,3.7c3.8,1.7,6.9,4.4,10.4,6.3
		c1.7,1,3.6,1.7,5.5,2.1l0.2,0c0,0,0.1,0,0.1,0l0.1,0c0.1,0,0.3,0,0.4,0c0.2,0,0.4,0,0.7,0c0.5-0.1,0.9-0.2,1.3-0.4
		c0.4-0.2,0.8-0.5,1-0.8c0.2-0.3,0.2-0.6,0.1-1l0.9-0.2c0.7,12.8,2.3,25.5,4.6,38c1.2,6.3,2.6,12.5,4.2,18.7
		c1.6,6.2,3.3,12.4,5,18.5c1.7,6.2,3.3,12.4,4.6,18.7c0.7,3.1,1.2,6.3,1.9,9.4c0.3,1.5,0.8,3,1.5,4.4c0.7,1.3,1.7,2.6,2.8,3.6
		c2.3,2.1,5.1,3.5,8,4.9c2.9,1.3,5.8,2.6,8.8,3.6c6,2,12.3,3.4,18.6,4c6.3,0.6,12.8,0.6,19.1,2.4c3.1,0.9,6.1,2,9.2,2.4
		c1.5,0.2,3.1,0.2,4.6,0c1.5-0.2,3-0.6,4.5-1.1c12.1-4.1,24-8.7,35.7-13.9c2.9-1.3,5.8-2.6,8.7-4c2.9-1.4,5.7-2.8,8.2-4.6
		c1.3-0.9,2.5-1.9,3.6-3c0.3-0.3,0.5-0.6,0.8-0.8l0.2-0.2l0.2-0.2l0.4-0.5l0.7-0.9c0.2-0.3,0.4-0.6,0.6-1c1.6-2.6,2.6-5.6,3.3-8.6
		c1.3-6.1,1.5-12.6,2.7-19l0.5-2.4l0.7-2.4l1.4-4.6c0.9-3.1,1.9-6.1,2.6-9.2c1.5-6.2,2.2-12.5,2.7-18.8l1.4-19.1l0.7-9.6l0.2-2.4
		l0-0.6c0-0.1,0-0.1,0-0.4l0-0.3c0.1-0.6,0.3-1.1,0.6-1.5c0.6-0.9,1.4-1.5,2.2-1.9c0.4-0.2,0.9-0.4,1.3-0.5c0.2-0.1,0.5-0.1,0.7-0.1
		l0.6-0.1c6.4-0.7,12.9-0.7,18.7-2.7c1.5-0.5,2.9-1.1,4.1-1.9c0.3-0.2,0.6-0.4,1-0.6l0.9-0.7c0.6-0.5,1.1-1,1.5-1.5
		c0.4-0.5,0.7-1.1,0.7-1.7c0.1-0.6,0-1.3-0.2-2l-1.2-4.6c-1.7-6.2-3.4-12.3-5.4-18.4c-1.9-6.1-4-12.1-6.2-18.1
		c-2.2-6-4.7-11.9-8.1-17.2c-1.7-2.6-3.7-5.1-5.9-7.3c-2.3-2.2-4.8-4.1-7.3-6c-2.6-1.8-5.3-3.6-7.9-5.4l-8-5.3
		c-5.4-3.5-10.8-6.8-16.4-9.9c-5.6-3.1-11.3-5.9-17.2-8.5c-3-1.2-5.8-2.7-8.9-2.9c-1.6-0.1-3.2-0.1-4.8-0.1l-4.8,0l-19.2-0.1
		l-19.2-0.2c-3.2,0-6.4-0.1-9.6-0.1c-3.2,0-6.4,0.2-9.5,1l-0.1-0.2c3.1-0.8,6.3-1.1,9.5-1.2c3.2-0.1,6.4-0.1,9.6-0.1l19.2-0.1
		l19.2-0.1l4.8,0c1.6,0,3.2,0,4.8,0.1c1.6,0.1,3.3,0.5,4.8,1.1c1.5,0.6,3,1.2,4.5,1.8c5.9,2.5,11.7,5.3,17.3,8.4
		c5.6,3.1,11.1,6.4,16.5,9.8l8.1,5.2c2.7,1.8,5.4,3.5,8,5.3c2.6,1.8,5.2,3.8,7.6,6.1c2.4,2.3,4.4,4.8,6.2,7.5
		c3.6,5.4,6.1,11.4,8.4,17.4c2.3,6,4.4,12.1,6.3,18.2c2,6.1,3.8,12.3,5.4,18.5l1.2,4.7c0.2,0.8,0.4,1.7,0.3,2.7
		c-0.1,1-0.5,2-1.1,2.7c-0.6,0.7-1.2,1.4-1.9,1.9l-1,0.8c-0.3,0.2-0.7,0.5-1.1,0.7c-1.4,0.9-3,1.6-4.5,2.1
		c-6.3,2.1-12.9,2.1-19.2,2.8l-0.6,0.1c-0.2,0-0.3,0-0.5,0.1c-0.3,0.1-0.6,0.2-0.9,0.3c-0.6,0.3-1.1,0.7-1.4,1.2
		c-0.2,0.2-0.3,0.5-0.3,0.7l0,0.3c0,0,0,0.2,0,0.2l0,0.6l-0.2,2.4l-0.7,9.6l-1.5,19.2c-0.5,6.4-1.2,12.9-2.8,19.1
		c-0.8,3.1-1.7,6.2-2.7,9.3l-1.5,4.6l-0.6,2.3l-0.5,2.3c-1.2,6.2-1.3,12.6-2.8,19c-0.7,3.2-1.8,6.3-3.6,9.2
		c-0.2,0.4-0.4,0.7-0.7,1.1l-0.7,0.9l-0.4,0.5l-0.2,0.2c-0.1,0.2-0.2,0.2-0.2,0.3c-0.3,0.3-0.6,0.6-0.9,0.9
		c-1.2,1.2-2.5,2.2-3.8,3.2c-2.7,1.9-5.6,3.4-8.5,4.7c-2.9,1.4-5.8,2.7-8.8,3.9c-11.8,5.1-23.7,9.7-35.9,13.8
		c-1.5,0.5-3.1,0.9-4.8,1.2c-1.7,0.2-3.4,0.2-5,0c-3.3-0.5-6.3-1.6-9.4-2.5c-6.1-1.7-12.5-1.8-18.9-2.4c-6.4-0.6-12.8-2-18.9-4.1
		c-3.1-1-6-2.3-9-3.7c-2.9-1.4-5.8-2.9-8.3-5.1c-1.2-1.1-2.3-2.5-3.1-4c-0.8-1.5-1.2-3.1-1.6-4.7c-0.7-3.2-1.1-6.3-1.8-9.4
		c-1.3-6.2-2.9-12.4-4.5-18.6c-1.6-6.2-3.4-12.4-4.9-18.6c-1.6-6.2-3-12.5-4.1-18.8c-2.3-12.6-3.8-25.4-4.5-38.2l-0.1-2.6l1.1,2.3
		c0.3,0.6,0.2,1.4-0.2,1.9c-0.4,0.5-0.9,0.9-1.4,1.1c-0.5,0.2-1,0.4-1.6,0.4c-0.3,0-0.5,0.1-0.8,0c-0.2,0-0.3,0-0.4,0l-0.1,0
		c-0.1,0-0.1,0-0.1,0l-0.2,0c-2.1-0.4-4-1.2-5.8-2.2c-3.6-2-6.7-4.6-10.3-6.3c-3.6-1.7-7.6-2.6-11.5-3.7c-3.9-1.1-7.9-2.5-11.1-5.1
		c-0.8-0.6-1.7-1.3-2.1-2.4c-0.2-0.6-0.2-1.2-0.1-1.7c0.1-0.5,0.4-1,0.6-1.5l2.4-5.6l4.9-11.1l9.8-22.2c1.6-3.7,3.3-7.4,5.5-10.9
		c2.2-3.5,5.1-6.4,7.8-9.3c2.8-2.9,5.5-5.9,8.4-8.8c1.4-1.4,2.9-2.8,4.6-4c1.6-1.2,3.3-2.3,5.1-3.3c3.5-2,7.2-3.8,10.8-5.6l10.8-5.5
		l21.6-11L142.8,153.6z"/>
</g>
<g>
	<path class="st4" d="M115.6,375.5c-3.8,2.3-3.9,8.1-1.5,11.9c2.4,3.7,6.6,5.8,10.6,7.8c2.5,1.2,5,2.4,7.5,3.5
		c14,6,29.4,7.9,44.5,9.8c5.3,0.7,10.6,1.3,15.9,1c8.7-0.5,17.3-3.7,24.2-9c3.6,1.3,6.9-2.1,10.4-3.5c1.4-0.5,2.9-0.8,4.2-1.4
		c1.6-0.7,3-1.8,4.4-3c3.7-3,7.3-6.1,11-9.1c2.6-2.1,5.4-4.9,4.9-8.2c-0.1-0.5-0.2-1-0.6-1.3c-0.4-0.3-1-0.3-1.5-0.2
		c-6.7,0.6-12.6,4.6-18.4,8c-8.1,4.8-16.6,8.7-25.4,11.7c-3.2,1.1-6.5,2.1-9.9,2.6c-2.3,0.4-4.6,0.5-6.8,0.6
		c-22.4,1-45.4-2.2-65.3-12.5c-2.4-1.3-5-2.8-6-5.4c-0.4-0.9-0.5-2-1.1-2.8c-0.6-0.8-1.8-1.4-2.6-0.9"/>
	<path d="M115.7,375.5c-1.1,0.7-1.9,1.7-2.4,2.9c-0.5,1.2-0.7,2.5-0.7,3.7c0,1.3,0.3,2.5,0.8,3.7c0.5,1.2,1.3,2.2,2.1,3.2
		c1.7,1.9,3.9,3.3,6.1,4.5c2.2,1.2,4.6,2.3,6.9,3.3l3.5,1.6c1.2,0.5,2.4,1,3.5,1.4c2.4,0.9,4.8,1.7,7.3,2.4c2.5,0.7,4.9,1.3,7.4,1.9
		c2.5,0.6,5,1,7.5,1.5c5,0.9,10.1,1.6,15.2,2.2c5.1,0.6,10.1,1.4,15.2,1.5c2.5,0.1,5.1,0,7.6-0.4c2.5-0.3,5-0.9,7.4-1.7
		c4.9-1.5,9.4-3.9,13.5-7l0.1-0.1l0.1,0c0.9,0.3,1.9,0.3,2.9,0.1c1-0.2,1.9-0.7,2.7-1.2c1.8-1,3.5-2.2,5.5-2.8c1-0.3,2-0.5,2.9-0.9
		c0.9-0.3,1.8-0.8,2.6-1.4c1.6-1.2,3.1-2.6,4.7-3.8l9.4-7.8c1.5-1.3,2.9-2.8,3.6-4.7c0.3-0.9,0.4-1.9,0.2-2.8
		c-0.1-0.4-0.4-0.8-0.8-0.9c-0.4-0.1-0.9,0-1.4,0c-4,0.4-7.8,2.1-11.3,4.1c-3.5,2-7,4.2-10.6,6.1c-7.2,3.9-14.7,7.2-22.4,9.8
		c-3.9,1.3-7.9,2.4-11.9,2.7c-4.1,0.3-8.1,0.4-12.2,0.4c-4.1,0-8.1-0.2-12.2-0.5c-4.1-0.4-8.1-0.8-12.1-1.6c-4-0.7-8-1.6-11.9-2.7
		c-3.9-1.1-7.8-2.4-11.6-3.9c-3.8-1.5-7.5-3.2-11-5.3c-1.7-1.1-3.4-2.4-4.2-4.4c-0.4-1-0.5-2-1.1-2.8c-0.3-0.4-0.7-0.8-1.1-0.9
		c-0.5-0.2-1-0.2-1.4,0.1l0-0.1c0.4-0.3,1-0.3,1.5-0.1c0.5,0.2,0.9,0.5,1.2,1c0.6,0.9,0.7,1.9,1.1,2.8c0.8,1.9,2.4,3.2,4.2,4.2
		c3.5,2,7.3,3.6,11,5.1c3.8,1.5,7.6,2.8,11.6,3.8c3.9,1.1,7.9,1.9,11.9,2.6c4,0.7,8,1.1,12.1,1.5c4,0.3,8.1,0.4,12.2,0.5
		c2,0,4.1,0,6.1-0.1c2-0.1,4.1-0.1,6.1-0.3c4-0.3,8-1.4,11.8-2.6c7.7-2.6,15.2-5.8,22.3-9.7c3.6-1.9,7-4.1,10.6-6.1
		c3.6-2,7.4-3.7,11.5-4.1c0.5-0.1,1-0.2,1.6,0c0.6,0.1,1.1,0.7,1.2,1.2c0.3,1.1,0.2,2.2-0.2,3.2c-0.7,2-2.2,3.5-3.7,4.9l-9.4,7.8
		c-1.6,1.3-3.1,2.6-4.8,3.8c-0.8,0.6-1.8,1.1-2.7,1.5c-1,0.4-2,0.6-2.9,0.9c-1.9,0.6-3.6,1.7-5.4,2.7c-0.9,0.5-1.8,0.9-2.9,1.2
		c-1,0.3-2.1,0.3-3.1-0.1l0.2,0c-4.1,3.1-8.7,5.5-13.6,7.1c-2.4,0.8-5,1.3-7.5,1.7c-2.6,0.3-5.1,0.4-7.7,0.3
		c-5.1-0.2-10.2-0.9-15.3-1.6c-5.1-0.7-10.1-1.3-15.2-2.2c-2.5-0.4-5-0.9-7.5-1.5c-2.5-0.5-5-1.2-7.4-1.9c-2.5-0.7-4.9-1.5-7.3-2.4
		c-1.2-0.5-2.4-0.9-3.6-1.4l-3.5-1.6c-2.3-1.1-4.6-2.1-6.9-3.4c-2.2-1.2-4.4-2.6-6.2-4.5c-0.9-1-1.6-2-2.1-3.2
		c-0.5-1.2-0.8-2.5-0.8-3.7c0-1.3,0.1-2.6,0.7-3.8C113.7,377.1,114.5,376.1,115.7,375.5L115.7,375.5z"/>
</g>
<path class="st5" d="M155.7,353.7c4.4-0.8,9.4-2.1,13.6-3.8c3,12.9,4.4,31.5,4.1,44.8c-0.4-1.8-13.8-19.2-15.2-20.7
	c-2-2.1-3.2-4.7-4.4-7.4c-1.8-4.1-3.7-8.9-1.7-13"/>
<g>
	<path class="st6" d="M118.3,294.8c0,0,0.1,1,0.3,2.7c0.2,1.7,0.6,4.2,1,7.2c0.5,3,1.1,6.4,1.9,10.1c0.8,3.7,1.7,7.6,2.8,11.5
		c1.1,3.9,2.3,7.7,3.4,11.3c1.1,3.6,2.1,7,3,9.8c0.5,1.4,0.8,2.8,1.2,3.9c0.4,1.2,0.7,2.2,0.9,3.1c0.5,1.7,0.7,2.7,0.7,2.7l-0.1,0
		c0,0-0.4-0.9-1.1-2.6c-0.3-0.8-0.7-1.8-1.2-2.9c-0.4-1.1-1-2.4-1.5-3.8c-0.5-1.4-1.1-3-1.7-4.6c-0.6-1.6-1.1-3.4-1.7-5.2
		c-1.1-3.6-2.1-7.5-3.1-11.4c-1.9-7.8-3.3-15.8-4-21.8c-0.4-3-0.6-5.5-0.8-7.3c-0.1-1.8-0.2-2.8-0.2-2.8L118.3,294.8z"/>
</g>
<path class="st7" d="M158.8,368.5c1.2,0.9,6.4,7.6,13.2,14.8"/>
<path class="st0" d="M158.3,393.7c-1.6,0-2.3,2-2.6,3.5c-0.5,3.9-0.6,7.8-0.3,11.7c-1.5-0.5-2.9-1.1-4.4-1.6c0-2.8-0.1-5.5-0.1-8.3
	c0-1.2,0-2.5,0.4-3.7c0.4-1.2,1.2-2.3,2.4-2.6c1.6-0.4,3.1,0.5,4.5,1.4"/>
<path class="st8" d="M99.7,227.6C99,241.8,95.4,255.8,96,270"/>
<g>
	<path class="st6" d="M91.5,244c0,0,0-0.4,0.1-1.1c0-0.7,0.1-1.7,0.1-2.9c0-1.2-0.2-2.5-0.6-3.9c-0.4-1.4-1.2-2.7-1.9-4.2
		c-0.7-1.5-1.1-3.1-1.4-4.5c-0.1-0.7-0.2-1.5-0.3-2.1c-0.1-0.7-0.1-1.3-0.1-1.9c-0.1-2.4,0.1-4,0.1-4l0.1,0c0,0,0.2,1.6,0.6,3.9
		c0.1,0.6,0.2,1.2,0.3,1.9c0.1,0.7,0.2,1.4,0.3,2.1c0.2,1.4,0.5,3,1.1,4.4c0.6,1.4,1.4,2.9,1.7,4.4c0.4,1.5,0.4,2.9,0.4,4.1
		c0,1.2-0.2,2.2-0.2,2.9C91.6,243.6,91.6,244,91.5,244L91.5,244z"/>
</g>
<g>
	<path class="st6" d="M83.4,198.3c0,0,0.1,5.2,0.4,10.3c0.1,1.3,0.2,2.6,0.3,3.8c0.1,1.2,0.1,2.3,0.1,3.3c0,1,0,1.8,0,2.3
		c0,0.6,0,0.9,0,0.9l-0.1,0c0,0-0.1-0.3-0.2-0.9c-0.1-0.6-0.3-1.4-0.4-2.3c-0.1-1-0.3-2.1-0.3-3.3c-0.1-1.2-0.1-2.5-0.1-3.8
		c0-2.6,0-5.2,0.1-7.1C83.2,199.6,83.3,198.3,83.4,198.3L83.4,198.3z"/>
</g>
<g>
	<path class="st9" d="M80.1,303.4c11.3,7.2,9.9,17,21.2,23.2c5.4,2.9,21.4,16.2,25.5,17.4c1.5,0.4,3.1,0.5,4.6,0.6
		c7,0.5,13.9,2.2,20.2,5.2c1.5,0.7,3.1,1.6,3.7,3.2c0.5,1.3,0.2,2.8,0.2,4.2c0.1,2.5,1.2,4.8,2.3,7.1c1,2.3,2,4.8,1.5,7.3
		c-0.5,2.5-3,4.7-5.4,4c-1,3.2,2.6,5.8,5.8,6.7s7.1,1.6,8.4,4.6c0.4,0.9-0.6,2.6,0.3,2.9c4,1.6,4.2,2.9,3.2,4.5
		c-0.4,0.6-4.5,1-5.1,1.4c-0.6,0.3-3.4-0.1-4.1-0.1c-9.2,0.1-19.3,1-25.2-6.1c-2.1-2.6-3.4-5.7-4.6-8.8c-1.2-3-2.4-6.1-3.5-9.1
		c-0.3-0.8-0.7-1.7-1.3-2.4c-0.7-0.6-1.6-1-2.5-1.3c-9.2-3.2-36.8-20.4-39.3-21.5c-2.3-1-38.1-27.4-42.3-35.1
		c-0.5-0.8,1.9-8.2,2.1-9.1c2.4-11.6,5.7-23.3,10.2-34.2c2.2-5.4,3.9-12.5,7.7-14c3.9-1.5,8.9,5.6,12.8,7.1
		c2.9,1.2,15.1,2.7,16.1,5.7c0.6,1.9,0.2,3.9-0.2,5.9C90.1,283.5,85.8,293.9,80.1,303.4"/>
	<path d="M80.2,303.3c2.1,1.3,4.1,3,5.8,4.8c1.7,1.9,3.1,4,4.4,6.1c1.3,2.1,2.6,4.3,4.1,6.2c1.6,1.9,3.4,3.6,5.5,5
		c1,0.7,2.2,1.2,3.2,1.9c1.1,0.7,2.1,1.4,3.1,2.1c2,1.5,4.1,2.9,6.1,4.4l6.1,4.4c2,1.4,4.1,2.9,6.2,4.2c0.5,0.3,1.1,0.6,1.6,0.9
		c0.5,0.2,1.1,0.4,1.7,0.5c1.2,0.2,2.4,0.2,3.7,0.3c2.5,0.2,5,0.5,7.5,1c2.5,0.5,4.9,1.2,7.3,2c1.2,0.4,2.4,0.9,3.5,1.3
		c1.2,0.5,2.3,1,3.4,1.6c1.1,0.7,2.2,1.7,2.5,3.1c0.3,1.4,0.1,2.7,0.1,3.8c0.1,2.4,1.2,4.7,2.3,6.9c0.5,1.2,1,2.3,1.3,3.6
		c0.3,1.3,0.5,2.6,0.2,3.9c-0.3,1.4-1,2.6-2.1,3.5c-1,0.9-2.5,1.4-4,1l0.6-0.3c-0.5,1.4,0.3,2.9,1.5,3.9c1.2,1,2.7,1.8,4.3,2.2
		c1.6,0.4,3.3,0.8,4.9,1.5c0.8,0.4,1.6,0.8,2.3,1.5c0.3,0.3,0.6,0.7,0.9,1.1c0.1,0.2,0.2,0.4,0.3,0.6c0.1,0.2,0.2,0.6,0.2,0.8
		c0,0.5-0.1,1-0.1,1.4c0,0.2,0,0.4,0,0.5c0,0.1,0,0.1,0,0.1l0.5,0.2c0.2,0.1,0.4,0.2,0.6,0.3c0.4,0.2,0.8,0.4,1.2,0.6
		c0.4,0.2,0.8,0.5,1.1,0.9c0.3,0.4,0.7,0.9,0.7,1.5c0.1,0.6-0.1,1.1-0.4,1.5c-0.1,0.1-0.1,0.2-0.2,0.3c0,0.1,0,0-0.1,0.1
		c0,0,0,0-0.1,0.1c-0.1,0.1-0.1,0.1-0.2,0.1l-0.1,0.1c-0.3,0.1-0.5,0.2-0.7,0.3c-0.9,0.3-1.7,0.4-2.5,0.6c-0.4,0.1-0.8,0.2-1.2,0.2
		c-0.2,0-0.4,0.1-0.5,0.1c-0.1,0.1-0.1,0.1-0.2,0.1c-0.1,0-0.2,0.1-0.3,0.1c-0.2,0-0.3,0-0.4,0c-0.9,0-1.8-0.1-2.6-0.2l-0.6-0.1
		c-0.2,0-0.3,0-0.6,0l-1.3,0c-3.4,0.1-6.8,0.2-10.2-0.1c-3.4-0.3-6.9-1-10-2.8c-1.5-0.9-2.9-2-4-3.4c-1.1-1.3-2-2.9-2.8-4.4
		c-0.8-1.6-1.4-3.1-2-4.7l-1.8-4.7l-1.8-4.7c-0.3-0.7-0.6-1.4-1.2-1.8c-0.5-0.4-1.2-0.7-2.1-1c-1.6-0.6-3.2-1.3-4.7-2
		c-1.5-0.7-3-1.5-4.6-2.3c-6-3.2-11.9-6.5-17.7-9.9l-8.8-5.1l-2.2-1.3c-0.4-0.2-0.7-0.4-1.1-0.6l-0.6-0.3c-0.2-0.1-0.4-0.2-0.6-0.4
		c-1.5-0.9-2.8-1.9-4.2-2.9c-5.5-3.9-10.9-8-16.2-12.2c-5.3-4.2-10.6-8.5-15.6-13.1c-1.2-1.2-2.5-2.4-3.6-3.7
		c-0.6-0.6-1.1-1.3-1.7-2.1c-0.1-0.2-0.3-0.4-0.4-0.6l-0.2-0.3l0-0.1c-0.1-0.3,0-0.1-0.1-0.2c0,0-0.1-0.3-0.1-0.4
		c0-0.7,0.1-1.1,0.1-1.5c0.3-1.7,0.8-3.4,1.3-5l0.7-2.4c0.2-0.7,0.3-1.6,0.5-2.4c1.4-6.6,3.2-13.2,5.3-19.7c1.1-3.2,2.2-6.4,3.4-9.6
		c0.6-1.6,1.3-3.2,1.9-4.7c0.6-1.6,1.1-3.2,1.8-4.8c0.6-1.6,1.3-3.2,2.3-4.7c0.5-0.8,1-1.5,1.8-2.1c0.7-0.6,1.6-1.2,2.7-1.3
		c1.1-0.1,2,0.2,2.9,0.6c0.8,0.4,1.6,0.9,2.3,1.4c1.4,1,2.7,2.2,3.9,3.2c1.3,1.1,2.6,2.1,4,2.5c1.6,0.5,3.2,0.8,4.9,1.2
		c1.6,0.4,3.3,0.8,4.9,1.3c1.6,0.5,3.3,1,4.8,2.1c0.4,0.3,0.8,0.7,1,1.2c0.1,0.4,0.2,0.9,0.3,1.4c0.1,0.9,0,1.8-0.1,2.7
		c-0.3,1.7-0.8,3.3-1.2,5c-0.9,3.3-2,6.5-3.2,9.7c-2.4,6.3-5.4,12.4-9,18.2l-0.2-0.1c3.4-5.9,6.2-12,8.5-18.3c1.1-3.2,2.1-6.4,3-9.6
		c0.4-1.6,0.9-3.3,1.1-4.9c0.1-0.8,0.2-1.6,0.1-2.4c-0.1-0.4-0.1-0.7-0.3-1.1c-0.1-0.2-0.3-0.5-0.6-0.7c-1.2-0.9-2.9-1.4-4.4-1.9
		c-1.6-0.5-3.2-0.8-4.9-1.2c-1.6-0.4-3.3-0.7-5-1.1c-0.9-0.2-1.8-0.7-2.5-1.1c-0.7-0.5-1.4-1-2.1-1.5c-1.3-1.1-2.6-2.2-3.9-3.1
		c-1.3-0.9-2.8-1.8-4.1-1.7c-0.6,0.1-1.2,0.4-1.8,0.9c-0.5,0.5-1,1.1-1.4,1.8c-0.8,1.4-1.5,2.9-2.1,4.4c-0.6,1.6-1.1,3.2-1.7,4.8
		c-0.6,1.6-1.2,3.2-1.8,4.7c-1.2,3.1-2.3,6.3-3.3,9.5c-2,6.4-3.7,12.9-5.2,19.5c-0.2,0.8-0.3,1.6-0.6,2.5l-0.7,2.5
		c-0.5,1.6-0.9,3.2-1.3,4.8c-0.1,0.4-0.1,0.8-0.1,1c0,0-0.1-0.2,0-0.1c0,0,0.1,0.2,0,0l0,0.1l0.1,0.2c0.1,0.2,0.2,0.3,0.3,0.5
		c0.5,0.6,1,1.3,1.5,1.9c1.1,1.2,2.3,2.4,3.5,3.5c4.9,4.6,10.1,8.8,15.4,13c5.3,4.2,10.7,8.3,16.1,12.2c1.4,1,2.7,2,4.1,2.9
		c0.2,0.1,0.3,0.2,0.5,0.3l0.5,0.3c0.4,0.2,0.8,0.4,1.1,0.6l2.2,1.3l8.7,5.2c5.8,3.4,11.6,6.8,17.6,10c1.5,0.8,3,1.6,4.5,2.3
		c1.5,0.7,3,1.4,4.6,2c0.7,0.3,1.7,0.6,2.5,1.2c0.8,0.7,1.3,1.6,1.6,2.4l1.8,4.7l1.8,4.7c0.6,1.6,1.2,3.1,1.9,4.6
		c0.7,1.5,1.5,2.9,2.6,4.2c1,1.2,2.3,2.3,3.6,3.1c2.8,1.7,6.1,2.3,9.4,2.6c3.3,0.3,6.7,0.2,10.1,0.2l1.3,0c0.2,0,0.5,0,0.7,0
		l0.6,0.1c0.8,0.1,1.7,0.2,2.4,0.2c0.1,0,0.2,0,0.2,0c0,0,0,0,0.1,0c0,0,0.1-0.1,0.1,0c0.3-0.1,0.5-0.2,0.7-0.2
		c0.4-0.1,0.8-0.2,1.3-0.3c0.8-0.2,1.7-0.3,2.4-0.5c0.2-0.1,0.4-0.1,0.5-0.2l0,0c0,0,0,0,0,0c0,0,0,0,0,0c-0.1,0.1,0,0,0,0
		c0-0.1,0.1-0.2,0.1-0.2c0.2-0.3,0.3-0.6,0.2-0.9c0-0.5-0.6-1-1.3-1.4c-0.3-0.2-0.7-0.4-1.1-0.6c-0.2-0.1-0.4-0.2-0.6-0.3l-0.3-0.1
		c-0.1,0-0.2-0.1-0.4-0.2c-0.4-0.2-0.5-0.7-0.5-1c0-0.3,0-0.5,0-0.8c0.1-0.4,0.1-0.8,0.1-1.1c0-0.2-0.2-0.6-0.4-0.9
		c-0.2-0.3-0.4-0.6-0.7-0.9c-0.6-0.5-1.2-0.9-2-1.3c-1.5-0.7-3.1-1-4.7-1.5c-1.7-0.4-3.3-1.2-4.7-2.4c-0.7-0.6-1.3-1.3-1.6-2.2
		c-0.4-0.9-0.4-1.9-0.1-2.8l0.2-0.5l0.5,0.1c1,0.3,2.2-0.1,3-0.8c0.9-0.7,1.5-1.7,1.7-2.8c0.5-2.3-0.4-4.7-1.4-7
		c-1-2.3-2.2-4.6-2.3-7.3c0-1.3,0.2-2.6-0.1-3.7c-0.3-1.1-1.1-1.9-2.1-2.6c-1-0.6-2.2-1.1-3.3-1.6c-1.1-0.5-2.3-0.9-3.5-1.3
		c-2.3-0.8-4.8-1.5-7.2-2c-2.4-0.5-4.9-0.9-7.4-1c-1.2-0.1-2.5-0.1-3.8-0.4c-0.6-0.1-1.3-0.3-1.9-0.5c-0.6-0.3-1.1-0.6-1.7-0.9
		c-2.2-1.3-4.2-2.8-6.2-4.2l-6-4.5c-2-1.5-4-3-6-4.5c-1-0.7-2-1.5-3.1-2.1c-1-0.7-2.1-1.3-3.2-2c-2.1-1.4-4-3.1-5.6-5.1
		c-1.6-2-2.8-4.2-4.1-6.3c-1.3-2.1-2.6-4.3-4.3-6.1c-1.6-1.9-3.6-3.5-5.7-4.8L80.2,303.3z"/>
</g>
<g>
	<path class="st3" d="M50,252.2c-0.1,0.3,1.1,3.6,1.3,3.8c4.5,3.6,10,4.8,15.4,6.8c1.7,0.7,3.5,1.3,5,2.3c1.5,1.1,2.8,2.5,4.4,3.4
		c1.1,0.6,2.4,0.9,3.6,1.2c5,1.2,9.5,3.5,14.5,4.4c0.8-4.9,4-12.1,0.5-15.7c-1.8-1.8-6.5-2.3-8.9-3.1c-2.9-1-5.8-1.9-8.7-2.5
		c-1.9-0.3-3.8-0.5-5.6-1.2c-1.3-0.5-2.4-1.2-3.5-1.9c-4.3-2.7-8.7-5.4-13-8.1C55.1,241.8,50.8,248.2,50,252.2z"/>
	<path class="st2" d="M50,252.2c0.2,1,0.6,2,1,3c0.1,0.2,0.2,0.5,0.3,0.7c0.2,0.2,0.4,0.3,0.6,0.5c0.4,0.3,0.9,0.6,1.3,0.9
		c1.8,1.1,3.8,2,5.8,2.7c2,0.7,4,1.4,6,2.1c1,0.3,2,0.7,3,1.1c1,0.4,2,0.8,3,1.3c1.9,1,3.3,2.8,5.1,3.8c0.9,0.5,1.9,0.8,2.9,1.1
		c1,0.2,2.1,0.5,3.1,0.8c4.1,1.2,8,2.9,12.2,3.7l-0.4,0.3c0.4-2.5,1.2-4.9,1.6-7.3c0.2-1.2,0.4-2.4,0.4-3.6c0-1.2-0.2-2.4-0.8-3.4
		c-0.1-0.2-0.3-0.5-0.5-0.7c-0.1-0.1-0.2-0.2-0.3-0.3c-0.1-0.1-0.2-0.2-0.3-0.3c-0.4-0.3-1-0.6-1.5-0.8c-1.1-0.4-2.3-0.7-3.5-1
		c-1.2-0.3-2.5-0.5-3.7-0.9c-1.2-0.4-2.4-0.8-3.6-1.1c-1.2-0.4-2.4-0.7-3.6-0.9c-1.2-0.3-2.4-0.4-3.7-0.7c-1.2-0.2-2.5-0.5-3.7-1.1
		c-1.2-0.5-2.2-1.2-3.3-1.9l-6.3-4L55,242l0.3-0.1c-1.1,1.6-2.1,3.2-3,4.9C51.4,248.5,50.5,250.3,50,252.2L50,252.2z M50,252.2
		c0.1-0.5,0.2-0.9,0.4-1.4c0.2-0.5,0.3-0.9,0.5-1.4c0.4-0.9,0.8-1.8,1.2-2.6c0.9-1.7,1.8-3.4,2.9-5.1l0.1-0.2l0.2,0.1l6.4,3.8
		l6.4,3.8c1.1,0.6,2.1,1.3,3.2,1.8c1.1,0.5,2.3,0.8,3.5,1c1.2,0.2,2.5,0.4,3.7,0.7c1.2,0.3,2.5,0.6,3.7,1c1.2,0.4,2.4,0.8,3.6,1.2
		c1.1,0.4,2.3,0.7,3.6,1c1.2,0.3,2.4,0.6,3.7,1.1c0.6,0.2,1.2,0.5,1.8,0.9c0.1,0.1,0.2,0.2,0.4,0.3c0.2,0.1,0.2,0.3,0.4,0.4
		c0.2,0.3,0.4,0.5,0.6,0.8c0.7,1.2,0.8,2.5,0.8,3.8c0,1.3-0.2,2.5-0.5,3.8c-0.5,2.5-1.3,4.9-1.7,7.3l-0.1,0.4l-0.4-0.1
		c-4.3-0.8-8.2-2.6-12.2-3.8c-1-0.3-2-0.6-3.1-0.8c-1-0.3-2.1-0.6-3.1-1.1c-1-0.5-1.8-1.3-2.6-2c-0.8-0.7-1.6-1.4-2.5-1.9
		c-0.9-0.5-1.9-0.9-2.9-1.3c-1-0.4-2-0.8-3-1.2c-2-0.7-4-1.4-6-2.2c-2-0.8-3.9-1.7-5.8-2.8c-0.4-0.3-0.9-0.6-1.3-0.9
		c-0.2-0.2-0.4-0.3-0.6-0.5c-0.1-0.2-0.2-0.5-0.3-0.7C50.5,254.2,50.1,253.2,50,252.2L50,252.2z"/>
</g>
<g>
	<path class="st6" d="M80.1,257c0,0,0,0.1,0,0.2c0,0.1-0.1,0.3-0.1,0.5c0,0.2,0,0.5,0.1,0.8c0,0.3,0.2,0.6,0.3,1
		c0.6,1.4,2,3,3.5,4.4c0.8,0.7,1.6,1.4,2.3,2c0.7,0.6,1.4,1.2,2,1.7c0.3,0.3,0.6,0.5,0.8,0.7c0.2,0.2,0.5,0.4,0.6,0.5
		c0.4,0.3,0.6,0.5,0.6,0.5l0,0.1c0,0-1-0.3-2.4-1.1c-0.7-0.4-1.5-0.9-2.2-1.6c-0.8-0.7-1.5-1.4-2.2-2.2c-0.7-0.8-1.4-1.6-2-2.4
		c-0.6-0.8-1-1.7-1.3-2.4c-0.1-0.4-0.2-0.8-0.2-1.1c0-0.3,0-0.6,0-0.8c0-0.2,0.1-0.4,0.1-0.5C80,257.1,80,257,80.1,257L80.1,257z"/>
</g>
<g>
	<path class="st6" d="M86.6,257.4c0,0,0.4,0.5,1,1.3c0.6,0.8,1.5,1.7,2.4,2.6c0.5,0.4,1,0.8,1.4,1.2c0.4,0.4,0.8,0.8,1.2,1.2
		c0.7,0.7,1.1,1.3,1.1,1.3l-0.1,0.1c0,0-0.7-0.2-1.5-0.7c-0.4-0.3-0.9-0.6-1.4-1c-0.5-0.4-0.9-1-1.3-1.5c-0.9-1-1.6-2.1-2.1-3
		C86.8,258,86.5,257.4,86.6,257.4L86.6,257.4z"/>
</g>
<g>
	<path class="st6" d="M51.7,252.3c0,0,1.7,0.1,4.2,0c1.3-0.1,2.7-0.2,4.3-0.2c1.6,0,3.3,0,5,0.5c0.8,0.2,1.7,0.5,2.4,0.9
		c0.8,0.4,1.5,0.9,2.1,1.4c0.6,0.5,1.2,1,1.7,1.6c0.5,0.5,0.9,1.1,1.3,1.6c0.4,0.5,0.7,1,1,1.4c0.3,0.4,0.5,0.8,0.7,1.2
		c0.3,0.7,0.5,1.1,0.5,1.1l-0.1,0c0,0-0.3-0.3-0.7-0.9c-0.2-0.3-0.5-0.6-0.8-1c-0.3-0.4-0.7-0.8-1.1-1.3c-0.4-0.5-0.9-0.9-1.4-1.4
		c-0.5-0.5-1.1-1-1.7-1.5c-0.6-0.5-1.2-1-1.9-1.4c-0.7-0.4-1.4-0.7-2.2-1c-1.6-0.5-3.2-0.6-4.8-0.7c-1.6,0-3,0-4.3,0
		C53.3,252.6,51.7,252.4,51.7,252.3L51.7,252.3z"/>
</g>
<g>
	<path class="st6" d="M84.7,242.7c0,0,0,0.1,0,0.2c0,0.1,0,0.3,0,0.5c0,0.4,0.2,1.1,0.7,1.7c0.4,0.6,1.1,1.2,1.8,1.9
		c0.7,0.7,1.4,1.4,2.2,2.2c0.7,0.7,1.5,1.5,2.2,2.2c0.7,0.7,1.3,1.4,1.7,2c0.5,0.6,0.9,1.1,1.1,1.5c0.3,0.4,0.4,0.6,0.4,0.6
		l-0.1,0.1c0,0-0.2-0.2-0.6-0.4c-0.4-0.3-0.9-0.7-1.5-1.2c-0.6-0.5-1.2-1.2-1.9-1.9c-0.7-0.7-1.3-1.5-2-2.3c-0.7-0.8-1.4-1.6-2-2.3
		c-0.6-0.7-1.3-1.4-1.7-2.1c-0.4-0.7-0.6-1.4-0.6-1.9c0-0.2,0-0.4,0.1-0.5C84.6,242.7,84.6,242.7,84.7,242.7L84.7,242.7z"/>
</g>
<g>
	<path class="st6" d="M79.2,250.3c0,0-0.2-0.6-0.6-1.7c-0.4-1.1-1-2.6-1.6-4.4c-1.3-3.7-2.8-8.6-4-13.7c-0.6-2.5-1.1-5.1-1.6-7.5
		c-0.2-1.2-0.4-2.4-0.5-3.5c-0.1-1.1-0.2-2.2-0.3-3.1c-0.1-1-0.1-1.9-0.2-2.6c0-0.8-0.1-1.5-0.1-2c0-1.1,0-1.8,0-1.8l0.1,0
		c0,0,0.4,2.6,1,6.4c0.3,1.9,0.7,4.1,1,6.5c0.4,2.4,0.8,4.9,1.3,7.5c0.5,2.5,1.1,5,1.7,7.4c0.6,2.3,1.2,4.5,1.8,6.4
		c0.6,1.9,1.1,3.4,1.4,4.5C79.1,249.6,79.3,250.2,79.2,250.3L79.2,250.3z"/>
</g>
<g>
	<path class="st6" d="M69.8,236.4c0,0-0.1,0.7-0.1,1.8c0,1.1,0.1,2.5,0.3,3.9c0.1,0.7,0.3,1.4,0.5,2c0.2,0.6,0.3,1.3,0.4,1.8
		c0.2,1.1,0.3,1.8,0.3,1.8l-0.1,0c0,0-0.5-0.6-1-1.6c-0.2-0.5-0.5-1.1-0.6-1.8c-0.1-0.7-0.2-1.4-0.3-2.2c-0.1-1.5-0.1-3,0.1-4
		C69.5,237,69.7,236.3,69.8,236.4L69.8,236.4z"/>
</g>
<g>
	<path class="st6" d="M115.5,181.6c0,0-0.1,0.5-0.1,1.4c-0.1,0.9-0.1,2.2,0.1,3.7c0.1,1.5,0.4,3.3,0.9,5.2c0.5,1.9,1.1,3.9,1.8,5.8
		c0.7,1.9,1.5,3.9,2.1,5.7c0.3,0.9,0.6,1.8,0.9,2.7c0.3,0.9,0.5,1.7,0.7,2.4c0.8,3,0.9,5.1,0.9,5.1l-0.1,0c0,0-0.2-0.5-0.4-1.4
		c-0.1-0.4-0.3-1-0.5-1.6c-0.2-0.6-0.4-1.3-0.7-2c-0.5-1.5-1.1-3.2-1.8-5c-0.6-1.8-1.3-3.8-1.9-5.8c-0.6-2-1.2-4-1.6-5.9
		c-0.4-1.9-0.6-3.8-0.7-5.3c-0.1-1.6,0-2.9,0.1-3.8C115.3,182.1,115.4,181.6,115.5,181.6L115.5,181.6z"/>
</g>
<g>
	<path class="st6" d="M103.4,175c0,0,0.1,0.8,0.1,1.9c0.1,1.2,0.1,2.7,0.2,4.3c0,0.8,0,1.6,0,2.3c0,0.7-0.1,1.4-0.2,2
		c-0.2,1.2-0.5,1.9-0.5,1.9l-0.1,0c0,0-0.2-0.8-0.2-1.9c0-0.6,0-1.3,0-2c0-0.7,0.2-1.5,0.2-2.3C103.1,178.1,103.3,175,103.4,175
		L103.4,175z"/>
</g>
<g>
	<path class="st6" d="M131.1,164.3c0,0,0,0.4-0.1,1.2c0,0.7-0.1,1.8-0.1,3.1c0,1.3,0,2.8,0.1,4.4c0.1,1.6,0.2,3.3,0.5,5
		c0.2,1.7,0.5,3.4,0.8,4.9c0.3,1.6,0.5,3,0.8,4.3c0.3,1.3,0.5,2.3,0.6,3c0.2,0.7,0.2,1.2,0.2,1.2l-0.1,0c0,0-0.2-0.4-0.5-1.1
		c-0.2-0.3-0.3-0.8-0.5-1.3c-0.2-0.5-0.4-1-0.6-1.7c-0.2-0.6-0.4-1.3-0.6-2c-0.2-0.7-0.3-1.5-0.5-2.3c-0.3-1.6-0.5-3.3-0.6-5
		c-0.3-3.4-0.3-6.9-0.1-9.4c0.1-1.3,0.2-2.4,0.3-3.1C131,164.8,131,164.3,131.1,164.3L131.1,164.3z"/>
</g>
<g>
	<path d="M262.2,236c0,0,0,0.6,0.1,1.6c0,1,0,2.5,0,4.3c-0.1,1.8-0.2,3.8-0.3,6c-0.1,1.1-0.1,2.2-0.2,3.4c0,1.1-0.1,2.3-0.1,3.5
		c0,0.6,0,1.2,0.1,1.7c0,0.6,0.1,1.1,0.1,1.7c0,0.6,0.1,1.1,0.2,1.6c0.1,0.5,0.2,1.1,0.3,1.6c0.2,1.1,0.4,2,0.6,3
		c0.2,0.9,0.5,1.9,0.7,2.7c0.2,0.9,0.4,1.7,0.4,2.4c0.1,0.7,0.1,1.4,0,1.9c0,0.5-0.1,0.9-0.2,1.2c-0.1,0.3-0.1,0.4-0.1,0.4l-0.2,0
		c0,0,0-0.1,0-0.4c0-0.3-0.1-0.7-0.2-1.2c-0.1-0.5-0.3-1.1-0.5-1.7c-0.2-0.7-0.5-1.4-0.8-2.2c-0.3-0.8-0.7-1.7-1-2.7
		c-0.2-0.5-0.3-1-0.4-1.5c-0.2-0.5-0.3-1.1-0.3-1.6c-0.1-0.6-0.2-1.1-0.2-1.7c-0.1-0.6-0.1-1.2-0.1-1.8c0-1.2,0-2.4,0.1-3.6
		c0.1-1.2,0.2-2.4,0.3-3.5c0.1-1.2,0.3-2.3,0.4-3.4c0.3-2.2,0.6-4.2,0.8-5.9c0.2-1.7,0.3-3.2,0.4-4.2c0-1,0.1-1.6,0.1-1.6L262.2,236
		z"/>
</g>
<g>
	<path class="st6" d="M264.8,251c0,0,0.8-2.1,1.9-5.3c0.6-1.6,1.2-3.4,1.9-5.4c0.7-2,1.5-4.1,2.2-6.2c0.3-1.1,0.6-2.1,0.8-3.2
		c0.2-1.1,0.4-2.1,0.5-3.2c0.1-1,0.2-2,0.3-3c0.1-1,0.1-1.9,0.2-2.7c0.1-1.7,0.2-3.1,0.2-4.1c0.1-1,0.1-1.5,0.1-1.5l0.1,0
		c0,0,0.1,0.6,0.1,1.5c0,0.5,0.1,1.1,0.1,1.8c0,0.7,0.1,1.5,0.1,2.3c0,1.7,0,3.7-0.2,5.8c-0.1,1.1-0.3,2.1-0.6,3.2
		c-0.3,1.1-0.6,2.2-0.9,3.3c-0.7,2.1-1.6,4.2-2.4,6.2c-0.8,2-1.5,3.8-2.2,5.3C265.7,248.9,264.9,251,264.8,251L264.8,251z"/>
</g>
<g>
	<path class="st6" d="M272.1,267.7c0,0,0.3-1,0.8-2.5c0.4-1.5,0.9-3.6,1.3-5.6c0.2-1,0.3-2.1,0.4-3c0.2-1,0.3-1.9,0.4-2.6
		c0.2-0.8,0.3-1.4,0.4-1.9c0.1-0.5,0.2-0.7,0.2-0.7l0.1,0c0,0,0,0.3,0.1,0.7c0.1,0.5,0.1,1.1,0.1,1.9c0,0.4,0,0.8-0.1,1.3
		c0,0.5-0.1,0.9-0.2,1.4c-0.2,1-0.4,2-0.7,3c-0.5,2.1-1.1,4.1-1.7,5.6C272.7,266.8,272.2,267.8,272.1,267.7L272.1,267.7z"/>
</g>
<g>
	<path class="st6" d="M238.3,170.7c0,0,0.1,0.5,0.2,1.3c0.1,0.8,0.1,2-0.2,3.4c-0.1,0.7-0.3,1.5-0.5,2.2c-0.2,0.8-0.5,1.6-0.8,2.4
		c-0.6,1.7-1.5,3.4-2.4,5c-1,1.6-2,3.2-3.2,4.6c-0.6,0.7-1.2,1.3-1.8,1.9c-0.6,0.6-1.2,1.1-1.7,1.5c-0.5,0.5-1.1,0.8-1.6,1.2
		c-0.5,0.3-0.9,0.6-1.3,0.8c-0.7,0.4-1.1,0.6-1.1,0.6l-0.1-0.1c0,0,0.4-0.3,1-0.8c0.3-0.3,0.7-0.6,1.1-1c0.4-0.4,0.9-0.8,1.4-1.3
		c0.5-0.5,1-1,1.6-1.6c0.5-0.6,1.1-1.2,1.7-1.9c1.1-1.3,2.3-2.8,3.3-4.3c1-1.6,1.9-3.2,2.6-4.8c0.4-0.8,0.7-1.6,0.9-2.3
		c0.3-0.8,0.5-1.5,0.6-2.2c0.3-1.4,0.4-2.5,0.3-3.3C238.3,171.2,238.2,170.7,238.3,170.7L238.3,170.7z"/>
</g>
<g>
	<path class="st6" d="M211.5,253c0,0,0,0.5-0.1,1.3c0,0.8-0.1,2-0.1,3.5c0.1,2.9,0.5,6.7,1.4,10.4c0.5,1.9,1.1,3.7,1.7,5.4
		c0.6,1.7,1.1,3.3,1.6,4.7c0.2,0.7,0.4,1.3,0.6,1.9c0.2,0.6,0.3,1,0.5,1.5c0.3,0.8,0.4,1.3,0.4,1.3l-0.1,0c0,0-0.9-1.7-2.1-4.4
		c-0.6-1.3-1.2-2.9-1.8-4.6c-0.6-1.7-1.1-3.6-1.5-5.5c-0.8-3.8-1.1-7.7-1-10.6c0-1.5,0.1-2.7,0.2-3.5
		C211.3,253.5,211.4,253,211.5,253L211.5,253z"/>
</g>
<g>
	<path class="st2" d="M180.5,186.8c0,0-0.3,0.3-0.9,1c-0.6,0.7-1.4,1.6-2.3,2.9c-0.9,1.3-2,3-2.9,5c-1,2-1.9,4.4-2.5,7.1
		c-0.6,2.7-0.9,5.7-0.9,8.9c0,3.2,0.1,6.5,0.1,10c0.1,6.9,0.2,14.3,0.3,21.7c0.1,7.4,0.3,14.8,0.3,21.7c0,3.5,0.1,6.8,0.1,10
		c0,3.2,0,6.2,0,9c0,11.1-0.2,18.5-0.2,18.5l-0.1,0c0,0-0.3-7.4-0.5-18.5c-0.1-2.8-0.1-5.8-0.2-9c-0.1-3.2-0.1-6.5-0.1-10
		c-0.1-6.9-0.1-14.3-0.1-21.7c0-7.4-0.1-14.8-0.1-21.7c0-3.5-0.1-6.8,0-10c0.1-3.2,0.4-6.2,1.1-8.9c0.6-2.7,1.6-5.1,2.6-7.1
		c1-2,2.1-3.7,3-5c1-1.3,1.8-2.3,2.4-2.9C180.1,187.1,180.4,186.8,180.5,186.8L180.5,186.8z"/>
</g>
<g>
	<path class="st10" d="M203.8,173.6c-8.7,29.7-19.5,58.8-32.3,86.9c-0.1-3.4,1.2-6.7,2.5-9.9c8.1-20.1,14.5-40.9,20.8-61.7
		c1.1-3.5,2.1-6.9,3.2-10.4c0.7-2.3,2.3-5.1,4.6-4.4"/>
	<path class="st2" d="M203.9,173.6c-1.1,3.7-2.2,7.4-3.3,11.1c-1.1,3.7-2.3,7.4-3.5,11.1c-1.2,3.7-2.4,7.3-3.7,11
		c-1.3,3.7-2.6,7.3-3.9,10.9c-1.3,3.6-2.7,7.2-4.1,10.9c-1.4,3.6-2.8,7.2-4.3,10.8c-1.5,3.6-3,7.1-4.5,10.7
		c-1.5,3.6-3.1,7.1-4.7,10.6l-0.7,1.6l-0.1-1.7c-0.1-2,0.3-4,0.9-5.9c0.6-1.9,1.4-3.7,2.1-5.5c1.4-3.6,2.8-7.2,4.1-10.9
		c2.7-7.3,5.2-14.6,7.6-22c2.4-7.4,4.8-14.8,7.1-22.2l3.5-11.1l0.9-2.8c0.3-0.9,0.6-1.9,1-2.8c0.4-0.9,0.9-1.8,1.6-2.5
		c0.7-0.7,1.7-1.2,2.7-0.9l0,0.1c-0.9-0.3-1.9,0.2-2.5,0.9c-0.7,0.7-1.1,1.6-1.5,2.4c-0.4,0.9-0.6,1.8-0.9,2.8l-0.8,2.8l-3.3,11.2
		c-2.2,7.5-4.5,14.9-6.8,22.3c-2.4,7.4-4.9,14.8-7.6,22.1c-1.4,3.6-2.8,7.3-4.2,10.9c-0.7,1.8-1.5,3.6-2.1,5.4
		c-0.6,1.8-1,3.7-0.9,5.6l-0.8-0.2c1.6-3.5,3.2-7,4.7-10.6c1.5-3.5,3.1-7.1,4.6-10.7c1.5-3.6,2.9-7.2,4.4-10.7
		c1.4-3.6,2.8-7.2,4.2-10.8c1.4-3.6,2.7-7.3,4-10.9c1.3-3.6,2.6-7.3,3.8-11c1.2-3.7,2.4-7.3,3.6-11
		C201.5,181,202.7,177.3,203.9,173.6L203.9,173.6z"/>
</g>
<g>
	<path class="st10" d="M145.1,161.4c-0.2,12.7,1.6,25.5,5.3,37.9c6.3,21.3,18.3,41.4,20.8,63.3c-6.3-17.4-12.6-34.9-18.9-52.3
		c-2.3-6.3-4.6-12.6-6.1-19.1c-1.1-4.7-1.9-9.5-2.6-14.3c-0.8-5.3-1.7-10.7-1.4-16"/>
	<path class="st2" d="M145.1,161.4c-0.1,8.8,0.8,17.5,2.5,26.1c0.9,4.3,1.9,8.5,3.3,12.7l1,3.1l1.1,3.1c0.7,2.1,1.5,4.1,2.3,6.1
		c3.2,8.2,6.7,16.2,9.7,24.4c0.8,2.1,1.5,4.1,2.2,6.2l1,3.1l0.9,3.2c0.3,1.1,0.5,2.1,0.8,3.2l0.4,1.6l0.3,1.6
		c0.5,2.2,0.8,4.3,1.1,6.5l0.6,4.2l-1.4-4l-9.1-25l-9-25c-2.9-8.3-6.1-16.7-7.7-25.5c-0.8-4.4-1.4-8.8-2.1-13.1
		c-0.6-4.4-1.1-8.8-0.7-13.3l0.1,0c-0.2,4.4,0.4,8.8,1.1,13.2c0.7,4.4,1.4,8.7,2.3,13.1c0.9,4.3,2.1,8.6,3.5,12.8
		c1.4,4.2,2.9,8.3,4.5,12.5l9,25l8.9,25l-0.8,0.2c-0.3-2.2-0.6-4.3-1-6.5l-0.3-1.6L169,253c-0.3-1.1-0.5-2.1-0.8-3.2l-0.9-3.2
		l-1-3.1c-0.7-2.1-1.4-4.2-2.1-6.2c-3-8.2-6.4-16.3-9.6-24.5c-0.8-2-1.5-4.1-2.3-6.2l-1.1-3.1l-1-3.1c-1.3-4.2-2.3-8.5-3.2-12.8
		c-1.7-8.6-2.4-17.4-2.3-26.2L145.1,161.4z"/>
</g>
<g>
	<path class="st11" d="M172.1,264.8c2.3,0.4,13.2,4.2,16.6,4.9c-0.7,2.1-6.3,21.3-6.4,21.4c-0.2,0.1-2.5-0.8-3.5-1.1
		c-3.7-1.3-32-9.6-32.1-9.8c-0.1-0.2,4.7-20.5,5.7-20.2c4.5,1.4,13.7,3.5,18,4.7"/>
	<path class="st2" d="M172.1,264.7c1.4,0.3,2.8,0.7,4.2,1.1l4.1,1.3l4.1,1.3c1.4,0.4,2.8,0.8,4.2,1.1l0.1,0l0,0.1
		c-0.6,2-1.2,4-1.8,5.9l-1.7,6l-1.7,6l-0.9,3l-0.1,0.4c0,0.1-0.1,0.2-0.1,0.3l0,0.1c-0.1,0-0.1,0-0.1,0c0,0-0.1,0-0.2,0
		c-0.3-0.1-0.5-0.1-0.8-0.2l-1.5-0.5c-1.9-0.7-3.9-1.3-5.9-1.9l-5.9-1.8l-11.9-3.5l-5.9-1.8l-3-0.9c-0.1-0.1-0.2,0-0.4-0.2
		c-0.1-0.1-0.2-0.1-0.3-0.2l0,0c0,0,0,0.1,0-0.1l0-0.1c0-0.1,0-0.1,0-0.2l0.2-0.8l0.3-1.5c0.9-4,1.9-8.1,3.1-12c0.3-1,0.6-2,0.9-3
		c0.2-0.5,0.3-1,0.5-1.5c0.1-0.2,0.2-0.5,0.3-0.7c0.1-0.1,0.1-0.2,0.2-0.4c0-0.1,0.1-0.1,0.1-0.2c0-0.1,0.2-0.2,0.4-0.1
		c2,0.6,4,1.2,6,1.7c4,1.1,8,2,12,3.2l0,0.1c-4-1-8.1-1.9-12.1-2.9c-2-0.5-4-1-6-1.6c0.1,0,0.1,0,0.1,0c0,0-0.1,0.1-0.1,0.1
		c-0.1,0.1-0.1,0.2-0.2,0.3c-0.1,0.2-0.2,0.5-0.3,0.7c-0.2,0.5-0.3,1-0.5,1.5c-0.3,1-0.6,2-0.9,3c-1.1,4-2.1,8-3,12l-0.3,1.5
		l-0.2,0.7c0,0,0,0.1,0,0c0,0,0,0,0,0c0-0.1,0,0,0-0.1l0,0l0.1,0c0,0,0.2,0.1,0.3,0.1l3,0.9l5.9,1.8l11.9,3.6l5.9,1.8
		c2,0.6,4,1.2,5.9,1.9l1.5,0.5c0.2,0.1,0.5,0.2,0.7,0.2c0.1,0.1,0,0,0-0.1l0.1-0.4l0.9-3l1.8-5.9l1.8-5.9c0.6-2,1.2-4,1.8-5.9
		l0.1,0.1c-1.4-0.3-2.8-0.7-4.2-1.1l-4.1-1.3l-4.1-1.3C174.8,265.5,173.5,265.1,172.1,264.7L172.1,264.7z"/>
</g>
<g>
	<path class="st12" d="M172,260.4c-1.1-0.2-2.3,0-3.2,0.7c-0.3,0.2-0.5,0.4-0.7,0.7c-0.5,1,0.1,2.5-0.8,3.1c1.8,0.7,3.8,1,5.8,0.9
		c0.2,0,0.5,0,0.7-0.2c0.2-0.3,0.1-0.7-0.1-1s-0.5-0.5-0.7-0.8c-0.2-0.4-0.2-0.8-0.2-1.2c-0.1-0.8-0.3-1.5-0.8-2.1"/>
	<path class="st2" d="M172,260.4c-1.2-0.2-2.6,0.2-3.4,1.1c-0.1,0.1-0.2,0.2-0.3,0.4c-0.1,0.1-0.1,0.3-0.1,0.4
		c-0.1,0.3-0.1,0.6-0.1,0.9c0,0.3,0,0.6-0.1,1c-0.1,0.3-0.3,0.7-0.6,0.9l0-0.3c0.9,0.4,1.9,0.6,2.9,0.7c0.5,0.1,1,0.1,1.5,0.1
		c0.2,0,0.5,0,0.7,0c0.2,0,0.5,0,0.7,0c0.2,0,0.3-0.1,0.4-0.2c0-0.1,0-0.4-0.2-0.5c-0.1-0.2-0.3-0.3-0.5-0.6
		c-0.2-0.2-0.3-0.5-0.3-0.8c0-0.3,0-0.5,0-0.8c0-0.3,0-0.5-0.1-0.7c-0.1-0.5-0.3-1-0.6-1.4l0,0c0.3,0.4,0.6,0.8,0.8,1.3
		c0.2,0.5,0.2,1.1,0.3,1.5c0,0.2,0.1,0.4,0.3,0.6c0.2,0.2,0.4,0.3,0.6,0.5c0.2,0.2,0.3,0.5,0.3,0.9c-0.1,0.4-0.5,0.6-0.8,0.6
		c-0.3,0-0.5,0-0.8,0c-0.3,0-0.5,0-0.8,0c-0.5,0-1-0.1-1.5-0.2c-1-0.2-2-0.5-3-0.9l-0.3-0.1l0.3-0.2c0.5-0.3,0.5-1,0.5-1.6
		c0-0.3,0-0.6,0.1-1c0-0.2,0.1-0.3,0.2-0.5c0.1-0.2,0.2-0.3,0.3-0.4C169.3,260.4,170.7,260.1,172,260.4L172,260.4z"/>
</g>
<g>
	<path class="st2" d="M170.3,264c0.3-0.1,0.6-0.1,0.9-0.2l-0.1,0c0.3-0.4,0.1-0.9-0.2-1.2c-0.3-0.3-0.8-0.2-1.1,0.1
		c-0.1,0.1-0.1,0.2-0.2,0.2c0,0.1-0.1,0.2-0.1,0.3c0,0.2,0.1,0.4,0.2,0.6c0.1,0.2,0.3,0.3,0.5,0.4c0.1,0,0.2,0.1,0.3,0
		c0.1,0,0.2-0.1,0.2-0.2c0.1,0.1,0,0.3-0.1,0.4c-0.1,0.1-0.3,0.1-0.4,0.1c-0.3,0-0.6-0.2-0.8-0.4c-0.2-0.2-0.3-0.5-0.4-0.8
		c0-0.1,0-0.3,0.1-0.5c0.1-0.2,0.2-0.3,0.3-0.4c0.2-0.2,0.5-0.4,0.8-0.4c0.2,0,0.3,0,0.5,0c0.2,0,0.3,0.1,0.4,0.2
		c0.5,0.4,0.5,1.2,0.1,1.7l0,0l0,0C170.9,264,170.6,264,170.3,264z"/>
</g>
<g>
	<path class="st3" d="M195,138.6c3.2,0.1,5.7,2.6,7.3,5.3c2.8,4.8,3.4,10.5,3.8,15.9c0.2,2.6,0.3,5.2-0.6,7.7
		c-0.6,1.8-1.7,3.4-2.8,5c-4.1,6-8.4,11.9-12.8,17.7c0.4-3.2,0.5-7.1-2.4-8.8c-2.2-1.3-5.3-0.5-7.2,1.2c-1.9,1.7-3,4.1-3.9,6.4
		c2.7-5.1,6.9-9.4,10.5-14c4.3-5.5,7.9-11.6,10.6-17.9c1.4-3.4,2.6-7,1.8-10.6c-0.7-2.8-2.5-5.2-4.3-7.5"/>
	<path class="st2" d="M195,138.6c1.3,0,2.6,0.5,3.6,1.2c1.1,0.7,2,1.6,2.8,2.7c0.8,1,1.4,2.2,1.9,3.3c0.5,1.2,1,2.4,1.3,3.6
		c0.7,2.5,1.1,5,1.3,7.6c0.1,1.3,0.2,2.5,0.3,3.8c0.1,1.3,0.1,2.6,0,3.9c-0.1,1.3-0.4,2.6-0.9,3.8c-0.5,1.2-1.2,2.3-1.9,3.4
		c-1.4,2.1-2.9,4.2-4.3,6.3c-2.9,4.2-5.9,8.3-9,12.4l-0.8,1.1l0.2-1.3c0.3-2,0.4-4.2-0.3-6c-0.3-0.9-0.9-1.7-1.7-2.3l-0.1-0.1
		c0,0-0.1,0-0.1,0l-0.1,0l-0.3-0.2c-0.2-0.1-0.4-0.2-0.7-0.2c-0.5-0.1-0.9-0.2-1.4-0.1c-1,0.1-1.9,0.3-2.8,0.8
		c-0.4,0.2-0.8,0.5-1.2,0.8c-0.2,0.1-0.4,0.3-0.6,0.5c-0.2,0.2-0.3,0.4-0.5,0.5c-1.3,1.5-2.1,3.4-2.9,5.4l-0.9-0.4
		c2.3-4.4,5.6-8.1,8.7-11.8c3.1-3.7,5.9-7.6,8.4-11.8c1.2-2.1,2.3-4.2,3.4-6.4c1-2.2,2-4.4,2.6-6.7c0.3-1.2,0.5-2.3,0.5-3.5
		c0-1.2-0.2-2.4-0.6-3.5c-0.8-2.3-2.3-4.2-3.7-6.1l0.1-0.1c1.5,1.9,3.1,3.8,4,6.1c0.5,1.1,0.7,2.4,0.8,3.6c0,1.2-0.1,2.5-0.4,3.7
		c-0.5,2.4-1.5,4.7-2.5,6.9c-1,2.2-2.1,4.4-3.3,6.5c-1.2,2.1-2.5,4.2-3.9,6.2c-1.4,2-2.9,3.9-4.5,5.8c-3.1,3.7-6.3,7.3-8.6,11.5
		l-0.9-0.4c0.8-1.9,1.7-3.9,3.1-5.6c0.2-0.2,0.4-0.4,0.6-0.6c0.2-0.2,0.4-0.4,0.6-0.5c0.4-0.4,0.9-0.7,1.4-0.9
		c1-0.5,2.1-0.8,3.2-0.9c0.6,0,1.1,0,1.7,0.2c0.3,0.1,0.5,0.2,0.8,0.3l0.4,0.2l0.1,0c0.1,0,0.1,0,0.1,0.1l0.2,0.1
		c1,0.6,1.6,1.6,2,2.7c0.7,2.1,0.5,4.3,0.3,6.4l-0.7-0.3c3.1-4,6.2-8.1,9.1-12.3c1.5-2.1,2.9-4.2,4.4-6.3c0.7-1.1,1.4-2.1,1.9-3.3
		c0.5-1.1,0.8-2.4,0.9-3.6c0.1-1.3,0.1-2.5,0-3.8c-0.1-1.3-0.1-2.5-0.3-3.8c-0.2-2.5-0.6-5.1-1.3-7.5c-0.3-1.2-0.7-2.4-1.3-3.6
		c-0.5-1.2-1.1-2.3-1.9-3.3c-0.8-1-1.6-1.9-2.7-2.6c-1-0.7-2.3-1.1-3.6-1.2L195,138.6z"/>
</g>
<path class="st13" d="M146.4,117.4c-0.8,2.1-1,17.1-0.2,25.6c0.3,3.5,0.6,20.3,4.5,22.3c8.3,8.8,20.8,16,26.7,22.9
	c0.7-2.5,13.8-18.7,15.9-20.8c4.5-4,6.3-12.5,7.2-17.5c0.3-2.1-0.8-22.8,1.5-30.7"/>
<g>
	<path class="st3" d="M178.2,190.2c-2.2-5.8-8.2-9-12.9-12.9c-7.2-6.1-12-14.5-16.5-22.7c-2-3.7-4.1-7.8-3.1-11.8
		c-1.4,0.2-2.4,1.4-3.2,2.6c-3.5,6.1-2.3,13.9,0.7,20.3c3,6.3,7.7,11.8,11.2,17.9c0.8,1.4,1.5,2.9,2.8,3.9c1.2,1,3.1,1.5,4.4,0.7
		c2-1.2,2.1-4.4,4.2-5.5c1.9-1,4.1,0.3,5.8,1.6c2.3,1.7,4.5,3.5,6.8,5.2"/>
	<path class="st2" d="M178.1,190.3c-0.9-2.3-2.5-4.3-4.3-6c-1.8-1.7-3.8-3.1-5.8-4.6c-1-0.7-2-1.5-2.9-2.3c-0.9-0.8-1.9-1.6-2.7-2.5
		c-1.8-1.8-3.4-3.7-4.9-5.6c-3-4-5.5-8.3-7.9-12.6c-1.2-2.2-2.5-4.3-3.4-6.6c-0.5-1.2-0.9-2.4-1-3.6c-0.2-1.3-0.2-2.6,0.2-3.8
		l0.4,0.4c-0.7,0.1-1.3,0.5-1.9,1.1c-0.3,0.3-0.5,0.6-0.7,0.9c-0.1,0.2-0.2,0.3-0.3,0.5l-0.3,0.5c-0.7,1.4-1.2,2.9-1.5,4.5
		c-0.5,3.1-0.2,6.4,0.6,9.5c0.4,1.5,1,3.1,1.6,4.5c0.3,0.7,0.7,1.4,1.1,2.2c0.4,0.7,0.8,1.4,1.2,2.1c1.6,2.8,3.5,5.4,5.3,8.1
		c0.9,1.3,1.8,2.7,2.7,4.1c0.9,1.4,1.6,2.9,2.4,4.2c0.8,1.3,1.9,2.5,3.4,2.8c0.7,0.2,1.5,0.1,2-0.2c0.4-0.2,0.6-0.4,0.8-0.7
		c0.2-0.3,0.4-0.6,0.6-1c0.4-0.7,0.7-1.4,1.2-2.2c0.4-0.7,1.1-1.4,1.9-1.7c0.9-0.4,1.8-0.3,2.6,0c0.8,0.3,1.5,0.7,2.2,1.2
		c1.3,1,2.6,2,3.8,3l3.8,3l-0.1,0.1l-3.9-2.9c-1.3-0.9-2.6-2-3.9-2.8c-0.7-0.4-1.4-0.8-2.1-1c-0.7-0.2-1.5-0.2-2.2,0
		c-1.4,0.6-1.9,2.3-2.7,3.7c-0.2,0.4-0.4,0.7-0.7,1.1c-0.3,0.3-0.7,0.7-1,0.9c-0.8,0.5-1.8,0.6-2.7,0.4c-0.9-0.2-1.7-0.6-2.4-1.2
		c-0.7-0.6-1.2-1.2-1.7-1.9c-0.9-1.4-1.6-2.8-2.5-4.2c-0.9-1.4-1.8-2.7-2.7-4.1c-1.8-2.7-3.7-5.4-5.3-8.2c-0.8-1.4-1.6-2.9-2.3-4.4
		c-0.7-1.5-1.2-3.1-1.6-4.7c-0.8-3.2-1.1-6.6-0.5-9.8c0.3-1.6,0.8-3.3,1.6-4.7l0.3-0.5c0.1-0.2,0.2-0.4,0.3-0.6
		c0.2-0.4,0.5-0.7,0.8-1c0.6-0.6,1.4-1.1,2.3-1.3l0.5-0.1l-0.1,0.5c-0.6,2.3-0.1,4.8,0.8,7c0.9,2.3,2.2,4.4,3.3,6.6
		c1.2,2.2,2.4,4.3,3.7,6.4c1.3,2.1,2.6,4.2,4.1,6.2c1.5,2,3,3.9,4.8,5.6c0.9,0.9,1.8,1.7,2.7,2.5c0.9,0.8,1.9,1.6,2.9,2.3
		c2,1.5,4,3,5.7,4.7C175.8,185.9,177.3,187.9,178.1,190.3L178.1,190.3z"/>
</g>
<g>
	<path d="M138.9,356.6c0,0,0.4,0.1,1,0.3c0.6,0.3,1.5,0.8,2.3,1.7c0.4,0.4,0.8,0.9,1.1,1.5c0.3,0.6,0.6,1.3,0.8,1.9
		c0.2,0.7,0.5,1.4,0.8,2.1c0.3,0.7,0.6,1.4,1,2c0.4,0.7,0.8,1.3,1.2,1.9c0.4,0.6,0.8,1.2,1.2,1.8c0.4,0.6,0.9,1.1,1.3,1.5
		c0.4,0.5,0.8,0.9,1.2,1.3c0.8,0.8,1.5,1.4,2.1,1.7c0.3,0.2,0.5,0.3,0.6,0.4c0.1,0.1,0.2,0.2,0.2,0.2l0,0.1c0,0-0.4-0.1-1-0.3
		c-0.6-0.3-1.5-0.7-2.5-1.4c-0.9-0.7-1.9-1.7-2.8-2.9c-0.4-0.6-0.8-1.3-1.2-1.9c-0.4-0.7-0.6-1.4-0.9-2.1c-0.3-0.7-0.5-1.5-0.8-2.1
		c-0.3-0.7-0.6-1.4-1-2c-0.4-0.6-0.8-1.2-1.1-1.7c-0.4-0.5-0.7-1-1-1.4c-0.7-0.9-1.4-1.5-1.9-1.9c-0.3-0.2-0.5-0.3-0.6-0.4
		C138.9,356.7,138.8,356.6,138.9,356.6L138.9,356.6z"/>
</g>
<path class="st7" d="M249.5,379.5c0.1-0.5-0.3-1-0.7-1.3c-0.5-0.3-1-0.3-1.5-0.4c-1.1-0.2-2.3-0.3-3.4-0.5c-1.3-0.2-2.7-0.6-3.3-1.7
	"/>
<path class="st7" d="M258.9,372.4c1.7,0.3,2.5,2.8,4.2,2.7"/>
<g>
	<path d="M134.9,370.3c0,0-0.1,0.1-0.3,0.4c-0.2,0.2-0.4,0.6-0.5,1.2c-0.1,0.5-0.1,1.2,0.2,1.9c0.3,0.7,0.8,1.4,1.5,2
		c0.7,0.7,1.6,1.2,2.5,1.9c0.9,0.7,1.9,1.4,2.9,2.2c1,0.8,2,1.5,3.2,2.2c1.1,0.7,2.3,1.4,3.5,2c1.2,0.6,2.4,1.2,3.6,1.7
		c1.2,0.5,2.4,1,3.5,1.4c2.3,0.8,4.5,1.5,6.5,1.9c1.9,0.4,3.6,0.6,4.7,0.6c0.6,0,1,0.1,1.3,0.1c0.3,0,0.5,0,0.5,0l0,0.1
		c0,0-0.2,0-0.5,0.1c-0.3,0.1-0.8,0.1-1.4,0.2c-1.2,0.1-2.9,0.1-4.9-0.2c-2-0.2-4.3-0.8-6.7-1.8c-1.2-0.5-2.4-1-3.5-1.6
		c-1.2-0.6-2.3-1.3-3.5-2c-1.1-0.7-2.2-1.5-3.4-2.2c-1.1-0.7-2.2-1.4-3.3-2c-2.1-1.3-4.2-2.5-5.7-3.9c-0.7-0.7-1.3-1.6-1.5-2.5
		c-0.2-0.8-0.2-1.6,0-2.2c0.2-0.6,0.5-1,0.7-1.2C134.7,370.3,134.9,370.2,134.9,370.3L134.9,370.3z"/>
</g>
<path class="st7" d="M253.1,380.3c0.1,0.8,0.7,1.4,1.5,1.7s1.5,0.3,2.3,0.4c0.8,0,1.5,0.1,2.3,0.1c0.7,0,1.5,0.1,2.2-0.1
	c0.7-0.2,1.4-0.7,1.6-1.4"/>
<g>
	<path d="M133.9,381.7c0,0,0,0.1,0,0.3c0,0.2,0,0.5,0.1,0.8c0.1,0.7,0.3,1.7,1,2.6c0.3,0.5,0.8,0.8,1.3,1.2c0.6,0.3,1.2,0.6,2,0.8
		c1.5,0.4,3.1,0.5,4.8,0.5c0.8,0,1.6,0,2.5,0.1c0.8,0.1,1.6,0.1,2.4,0.2c1.5,0.1,2.9,0.3,4.2,0.4c1.2,0.1,2.2,0.2,2.9,0.3
		c0.7,0.1,1.1,0.1,1.1,0.1l0,0.1c0,0-1.6,0.4-4.1,0.4c-1.2,0-2.7-0.1-4.2-0.2c-0.8-0.1-1.6-0.2-2.4-0.3c-0.8-0.1-1.6-0.2-2.4-0.4
		c-0.8-0.1-1.6-0.3-2.4-0.4c-0.8-0.1-1.6-0.1-2.4-0.2c-0.8-0.1-1.6-0.2-2.3-0.5c-0.7-0.3-1.3-0.9-1.6-1.4c-0.7-1.2-0.8-2.3-0.7-3
		C133.7,382.1,133.8,381.7,133.9,381.7L133.9,381.7z"/>
</g>
<path class="st7" d="M265,376.8c1.2,0.1,2.4,0.2,3.6,0s2.4-0.8,3.1-1.7"/>
<path class="st7" d="M228.5,377.3c-1.2-0.1-2.5,0.2-3.6,0.5c-2.5,0.6-5,1.3-7.4,1.9c-1.2,0.3-2.4,0.6-3.5,1.1
	c-0.5,0.2-1,0.6-0.9,1.1c0.1,0.5,0.7,0.7,1.2,0.7c1.8,0.2,3.6,0.2,5.4-0.1c4.1-0.6,8-2.5,12.1-2.7"/>
<path class="st5" d="M173.3,394.7l170.3-56.3l4.1-88.5c0.1-2-1.8-3.5-3.8-2.9l-179,56.4c-1.2,0.4-2,1.6-1.8,2.8L173.3,394.7z"/>
<g>
	<path class="st9" d="M289,355.6c1.6,1.8,3.2,3.1,3.5,5.2c0.3,1.5-0.7,2.9-1.8,4c-1,1.1-2.2,2.1-3.5,2.9c-0.6,0.4-1.2,0.8-1.8,1.3
		c-1.5,1.3-2,3.4-3.1,5.1c-1.5,2.4-4.1,4.1-6.9,4.6c-0.5,0.1-1.1,0.1-1.5,0.4c-0.6,0.4-0.7,1.1-1.1,1.7c-1,1.5-4.9,3-6.7,3.1
		c-5,0.1-7.8,1.1-13.4,1.1c-3,0-5.8-2.3-6.6-2c-2.8,0.8-4.5-0.1-7.4-0.1c-3.9,0-7.1-2.9-9.6-6c-2.1-2.7-5-8.6-6.5-11.7
		c-0.2-0.4-0.4-0.9-0.3-1.3c0.1-0.3,0.3-0.6,0.6-0.8c1.1-0.8,2.6-0.9,3.9-0.6c1.3,0.4,2.4,1.2,3.4,2.1c3,2.7,4.8,8.4,8.4,10.2
		c0.1-1.3,1-1.4,0.5-2.6c-2.1-4.5-5.8-11.7-8.9-15.5c-0.5-0.6-1-1.2-1.1-1.9c-0.3-1.7,1.5-3.1,3.2-3.3c2.8-0.3,5.4,1.6,7.3,3.7
		c1.3,1.4,3.5,6,4.4,7.6c0.5,0.8,0.9,1.7,1.6,2.4c0.7,0.8,1.7,1.3,2.6,1.8c3.2,1.7,6.3,3.4,9.5,5.2c-0.4-1.1-1.6-1.7-2.5-2.5
		c-2-1.6-2.9-4.1-4.1-6.4c-1.8-3.5-5.1-9.7-7.9-12.5c-0.5-0.5-1-1-1.1-1.6c-0.2-1.3,1.3-2.1,2.6-2.2c3.2-0.2,6.1,1.7,8.4,3.9
		s2.8,5.1,5.5,6.7c5,2.8,4.4,1.3,9,4.8c1.3,0.9,8.4-1.3,9.8-2.1c-2.2-1.3-7.1-1-8.4-3.2s-2.2-4.4,0.1-5.6c0.8-0.4,4.8-1.5,5.7-1.5
		c2.9-0.1,5.8,0.4,8.5,1.5L289,355.6z"/>
	<path d="M289,355.6c0.8,0.9,1.8,1.8,2.5,2.8c0.7,1,1.3,2.3,1.1,3.6c-0.3,1.3-1.1,2.3-2,3.2c-0.9,0.9-1.8,1.7-2.8,2.5
		c-1,0.7-2.1,1.3-2.8,2.3c-0.7,1-1.2,2.1-1.8,3.3c-1.1,2.3-3.1,4.2-5.5,5.1c-0.6,0.2-1.2,0.4-1.8,0.5c-0.6,0.1-1.3,0.2-1.7,0.5
		c-0.4,0.3-0.6,0.9-1,1.5c-0.1,0.2-0.2,0.3-0.3,0.4c-0.1,0.1-0.2,0.3-0.4,0.4c-0.2,0.2-0.5,0.4-0.8,0.6c-1.1,0.7-2.3,1.2-3.5,1.6
		c-0.6,0.2-1.2,0.3-1.9,0.4l-1.9,0.1c-2.5,0.2-4.9,0.6-7.4,0.9c-1.3,0.1-2.5,0.2-3.8,0.2c-1.3,0.1-2.6-0.2-3.8-0.7
		c-0.6-0.2-1.2-0.5-1.7-0.8c-0.3-0.1-0.6-0.3-0.8-0.4c-0.3-0.1-0.5-0.2-0.6-0.1c-1.2,0.4-2.6,0.4-3.9,0.3c-1.3-0.2-2.4-0.3-3.7-0.3
		c-0.6,0-1.3-0.1-2-0.3c-0.6-0.2-1.3-0.4-1.8-0.7c-2.4-1.2-4.2-3-5.8-5c-1.6-2-2.8-4.3-4-6.5c-0.6-1.1-1.1-2.2-1.7-3.4l-0.8-1.7
		c-0.1-0.3-0.3-0.5-0.4-0.9c-0.1-0.3-0.2-0.8-0.1-1.2c0.1-0.5,0.4-0.8,0.7-1c0.3-0.2,0.6-0.4,0.9-0.6c0.7-0.3,1.4-0.4,2-0.4
		c1.4,0,2.7,0.6,3.7,1.4c1.1,0.8,2,1.7,2.8,2.7c0.8,1,1.4,2.1,2.1,3.2c1.3,2.1,2.7,4.3,4.7,5.4l-0.7,0.4c0-0.4,0.2-0.8,0.3-1.1
		c0.2-0.3,0.3-0.6,0.3-0.7c0.1-0.3-0.4-1-0.6-1.6c-0.6-1.2-1.1-2.3-1.7-3.5c-1.2-2.3-2.4-4.6-3.8-6.8c-0.7-1.1-1.4-2.2-2.1-3.2
		c-0.4-0.5-0.8-1-1.2-1.5c-0.4-0.5-0.8-1.2-0.8-2c0-0.8,0.4-1.5,0.9-2c0.5-0.5,1.1-0.9,1.8-1.1c1.4-0.4,2.8-0.2,4.1,0.3
		c1.3,0.5,2.4,1.3,3.4,2.2c0.5,0.4,1,0.9,1.4,1.4c0.4,0.6,0.8,1.1,1.1,1.7c1.3,2.2,2.4,4.6,3.7,6.8c0.3,0.5,0.7,1,1.1,1.5
		c0.4,0.4,1,0.8,1.5,1.1l3.4,1.9l6.8,3.7l-0.4,0.4c-0.5-1.2-2-1.8-3-2.9c-1.1-1.1-1.8-2.4-2.5-3.7c-0.7-1.3-1.3-2.6-2-3.9
		c-0.7-1.3-1.4-2.6-2.1-3.9c-0.7-1.3-1.5-2.5-2.3-3.7c-0.8-1.2-1.7-2.4-2.7-3.4c-0.3-0.3-0.5-0.6-0.7-1c-0.1-0.2-0.1-0.4-0.2-0.6
		c0-0.2,0-0.4,0.1-0.6c0.3-0.8,1-1.3,1.8-1.6c1.5-0.5,3.1-0.2,4.5,0.3c1.4,0.5,2.7,1.4,3.8,2.3c0.6,0.5,1.1,1,1.6,1.5
		c0.5,0.6,0.9,1.2,1.3,1.8c0.8,1.2,1.5,2.6,2.5,3.6c0.5,0.5,1.1,0.9,1.7,1.2c0.6,0.4,1.3,0.7,1.9,1c1.3,0.6,2.8,1,4,1.8
		c0.6,0.4,1.2,0.8,1.8,1.2c0.3,0.2,0.6,0.5,0.9,0.6c0.3,0.1,0.7,0.1,1,0.1c1.4-0.1,2.9-0.4,4.3-0.8c1.4-0.4,2.8-0.8,4.1-1.5l0,0.2
		c-1.1-0.6-2.4-0.8-3.6-1.1c-1.2-0.3-2.5-0.5-3.6-1.1c-0.6-0.3-1.1-0.8-1.3-1.4c-0.3-0.6-0.6-1.1-0.8-1.7c-0.2-0.6-0.4-1.2-0.3-1.9
		c0-0.7,0.5-1.2,1-1.6c0.5-0.4,1.2-0.5,1.8-0.7c0.6-0.2,1.2-0.4,1.8-0.5c0.6-0.2,1.2-0.3,1.8-0.4c0.6-0.1,1.3-0.1,1.9-0.1
		c2.5,0.1,5,0.6,7.4,1.5l0,0l0,0L289,355.6L289,355.6z M289,355.6l-5.4-4.1l0,0c-2.3-0.9-4.8-1.4-7.3-1.4c-0.6,0-1.3,0-1.9,0.1
		c-0.6,0.1-1.2,0.3-1.8,0.4c-0.6,0.2-1.2,0.3-1.8,0.5c-0.6,0.2-1.2,0.4-1.7,0.7c-0.5,0.4-0.9,0.9-0.9,1.5c-0.1,0.6,0.1,1.2,0.3,1.8
		c0.2,0.6,0.5,1.1,0.8,1.7c0.3,0.6,0.7,1,1.3,1.3c1.1,0.6,2.3,0.8,3.6,1.1c1.2,0.3,2.5,0.5,3.6,1.1l0.2,0.1l-0.2,0.1
		c-1.3,0.7-2.7,1.1-4.2,1.5c-1.4,0.4-2.9,0.8-4.3,0.8c-0.4,0-0.7,0-1.1-0.1c-0.4-0.2-0.6-0.4-0.9-0.6c-0.6-0.4-1.2-0.8-1.8-1.2
		c-1.2-0.8-2.7-1.1-4-1.7c-0.7-0.3-1.3-0.6-2-1c-0.6-0.3-1.3-0.8-1.8-1.3c-1.1-1.1-1.8-2.4-2.6-3.6c-0.4-0.6-0.8-1.2-1.3-1.7
		c-0.5-0.5-1.1-1-1.6-1.5c-1.1-0.9-2.4-1.7-3.7-2.2c-0.7-0.2-1.4-0.4-2.1-0.5c-0.3,0-0.7,0-1.1,0c-0.3,0-0.7,0.1-1,0.2
		c-0.6,0.2-1.3,0.7-1.4,1.2c-0.2,0.6,0.2,1.2,0.7,1.7c1.1,1,2,2.2,2.8,3.4c0.8,1.2,1.6,2.5,2.4,3.7c0.7,1.3,1.5,2.6,2.1,3.9
		c0.7,1.3,1.3,2.6,2,3.9c0.7,1.3,1.4,2.6,2.4,3.6c0.5,0.5,1.1,0.9,1.7,1.4c0.6,0.4,1.2,1,1.5,1.8l0.3,0.8l-0.8-0.4l-6.8-3.7
		l-3.4-1.9c-0.6-0.3-1.1-0.7-1.6-1.2c-0.5-0.5-0.9-1-1.3-1.6c-1.4-2.2-2.4-4.6-3.8-6.8c-0.3-0.5-0.7-1.1-1-1.6
		c-0.4-0.5-0.9-0.9-1.3-1.3c-0.9-0.8-2-1.6-3.1-2c-0.6-0.2-1.2-0.4-1.8-0.4c-0.3,0-0.6,0-0.9,0c-0.3,0-0.6,0.1-0.9,0.2
		c-1.1,0.3-2.1,1.3-2.1,2.3c0,1.1,1.1,2,1.8,3.1c0.8,1,1.5,2.1,2.2,3.2c1.4,2.2,2.6,4.5,3.8,6.8c0.6,1.2,1.2,2.3,1.7,3.5l0.4,0.9
		c0.1,0.3,0.3,0.7,0.3,1.2c-0.1,0.5-0.3,0.8-0.4,1c-0.1,0.3-0.2,0.5-0.2,0.8l-0.1,0.7l-0.6-0.3c-1.2-0.6-2.1-1.6-3-2.6
		c-0.8-1-1.5-2.1-2.2-3.1c-1.3-2.1-2.7-4.2-4.7-5.6c-1-0.7-2.1-1.2-3.2-1.2c-0.6,0-1.1,0.1-1.6,0.3c-0.5,0.2-1,0.6-1.1,0.9
		c-0.1,0.3,0.2,0.9,0.5,1.4l0.8,1.7c0.6,1.1,1.1,2.2,1.7,3.3c1.2,2.2,2.4,4.4,3.9,6.3c1.6,1.9,3.3,3.7,5.5,4.7
		c1.1,0.5,2.2,0.8,3.4,0.9c1.2,0,2.6,0.2,3.8,0.3c1.2,0.2,2.4,0.1,3.5-0.2c0.5-0.1,0.9,0.1,1.2,0.2c0.3,0.1,0.6,0.3,0.9,0.4
		c0.6,0.3,1.1,0.5,1.7,0.8c1.1,0.5,2.3,0.8,3.5,0.7c1.2,0,2.5-0.1,3.7-0.2c2.5-0.2,4.9-0.7,7.5-0.8l1.9-0.1c0.6,0,1.2-0.2,1.8-0.3
		c1.2-0.3,2.3-0.8,3.3-1.5c0.3-0.2,0.5-0.3,0.7-0.5c0.1-0.1,0.2-0.2,0.3-0.3c0.1-0.1,0.2-0.3,0.3-0.3c0.3-0.5,0.5-1.1,1.1-1.6
		c0.6-0.5,1.3-0.4,1.9-0.6c0.6-0.1,1.2-0.3,1.8-0.5c2.3-0.9,4.2-2.6,5.3-4.9c0.6-1.1,1.1-2.3,1.8-3.3c0.8-1.1,1.9-1.7,2.9-2.4
		c1-0.7,2-1.5,2.8-2.4c0.9-0.9,1.7-1.9,1.9-3.1c0.2-1.2-0.3-2.4-1-3.4C290.7,357.4,289.8,356.6,289,355.6z"/>
</g>
<path class="st7" d="M176.7,404.7c-1,0-2,0-2.9,0.1c-0.5,0.8,0.5,1.6,1.4,1.8c0.6,0.2,1.4,0.2,2-0.1c0.6-0.3,0.9-1.2,0.5-1.7
	c-0.4,0-0.8-0.1-1.2-0.1"/>
<g>
	<path class="st2" d="M184.7,464.4c0,0-0.6,9.9-1.2,19.7c-0.2,2.5-0.3,4.9-0.4,7.2c-0.1,1.1-0.1,2.3-0.2,3.3c-0.1,1.1-0.1,2-0.1,3
		c0,0.9,0,1.8,0.1,2.5c0,0.7,0.1,1.4,0.2,1.9c0.1,0.5,0.1,1,0.2,1.2c0,0.3,0.1,0.4,0.1,0.4l-0.1,0c0,0,0-0.1-0.1-0.4
		c-0.1-0.3-0.2-0.7-0.3-1.2c-0.1-0.5-0.3-1.2-0.4-1.9c-0.1-0.8-0.2-1.6-0.3-2.5c-0.1-0.9-0.1-1.9-0.1-3c0-1.1,0.1-2.2,0.1-3.4
		c0.2-2.3,0.4-4.8,0.7-7.2C183.7,474.2,184.6,464.4,184.7,464.4L184.7,464.4z"/>
</g>
<g>
	<path class="st14" d="M195,397.6c0.3-0.6-0.2-1.2-0.8-1.5c-0.6-0.3-1.4-0.3-2.1-0.3c-5.6-0.2-11.1-0.3-16.7-0.5
		c-0.8,0-1.7,0-2.4,0.3c-1.3,0.6-1.7,1.9-1.9,3.1c-0.6,3.1-1.1,6.6,1.3,8.9c1.8,1.7,4.6,2.2,7.2,2.6c0-0.4,0-0.9,0-1.3
		c-2.2,0.5-4.4-1.1-4.9-2.9c-0.6-1.8,0.1-3.8,0.7-5.6c0.2-0.6,0.4-1.2,0.9-1.6c0.8-0.7,2-0.8,3.1-0.8c4.8-0.2,9.5-0.4,14.3-0.6"/>
	<path class="st2" d="M195,397.6c0.2-0.4,0-0.9-0.4-1.2c-0.3-0.3-0.8-0.4-1.2-0.5c-0.9-0.1-1.8-0.1-2.7-0.1l-5.5-0.1l-5.5-0.1
		l-2.8-0.1c-0.9,0-1.8-0.1-2.7,0c-0.9,0.1-1.7,0.5-2.1,1.3c-0.4,0.8-0.6,1.7-0.8,2.6c-0.3,1.8-0.6,3.6-0.2,5.4
		c0.2,0.9,0.6,1.7,1.2,2.3c0.6,0.7,1.3,1.2,2.1,1.5c1.6,0.7,3.5,1,5.3,1.3l-0.3,0.3l0-1.3l0.4,0.3c-1.4,0.3-2.9-0.1-3.9-1.1
		c-0.5-0.5-1-1-1.2-1.7c-0.3-0.7-0.4-1.3-0.4-2c0-1.4,0.4-2.7,0.8-3.9c0.2-0.6,0.4-1.3,1-1.8c0.5-0.5,1.3-0.8,1.9-0.9
		c0.7-0.1,1.3-0.1,2-0.1l2-0.1l3.9-0.1c2.6-0.1,5.2-0.1,7.9-0.2l0,0.1c-2.6,0.2-5.2,0.3-7.9,0.5l-3.9,0.2l-2,0.1
		c-0.7,0-1.3,0.1-1.9,0.2c-0.6,0.1-1.2,0.3-1.6,0.7c-0.4,0.4-0.6,1-0.8,1.6c-0.4,1.2-0.8,2.5-0.8,3.7c0,0.6,0.1,1.3,0.3,1.8
		c0.2,0.6,0.6,1.1,1.1,1.5c0.9,0.8,2.2,1.3,3.4,1l0.4-0.1l0,0.4l0,1.3l0,0.3l-0.3-0.1c-1.8-0.3-3.7-0.6-5.4-1.4
		c-0.9-0.4-1.7-1-2.3-1.7c-0.6-0.7-1-1.6-1.3-2.5c-0.4-1.9-0.1-3.8,0.2-5.6c0.2-0.9,0.4-1.8,0.8-2.7c0.3-0.4,0.6-0.8,1-1
		c0.4-0.2,0.9-0.4,1.4-0.4c0.9-0.1,1.9,0,2.8,0l2.8,0.1l5.5,0.2l5.5,0.2c0.9,0.1,1.8,0,2.8,0.2c0.5,0.1,0.9,0.2,1.3,0.5
		C195,396.7,195.3,397.2,195,397.6L195,397.6z"/>
</g>
<path class="st0" d="M229.4,383.3c2.9,3.7,4.3,8.5,3.9,13.2c0,0.2,0,0.5,0.1,0.7c0.2,0.4,0.8,0.5,1.3,0.3c1.3-0.6,1.5-2.3,1.4-3.7
	c-0.2-2.9-0.9-5.8-2-8.5c-0.4-1.1-1-2.1-2-2.7c-1-0.6-2.5-0.4-2.9,0.7"/>
<path class="st0" d="M125.3,382.5c-2.6,0.6-4.1,3.2-5,5.7c-0.7,1.9-1.4,3.8-1.9,5.8c1.1,0.3,2,0.9,2.9,1.6c0.1-3.2,1.1-6.4,2.9-9
	c0.6-0.8,1.4-1.7,2.5-1.6c-0.5-1-1.3-1.8-2.3-2.2"/>
<g>
	<path class="st4" d="M186.1,400.2c10.1-2.2,20.3-4.4,30.4-6.6c2.5-0.5,5.8-0.7,6.8,1.6c0.6,1.2,0.1,2.8-0.8,3.8
		c-0.9,1-2.1,1.7-3.4,2.2c-3.5,1.4-7.2,2.1-10.6,3.6c-1.9,0.8-3.7,1.9-5.8,2.5c-1.7,0.5-3.5,0.6-5.3,0.7c-7.4,0.4-15,0.7-22.2-1.4"
		/>
	<path d="M186.1,400.1c0,0,5.6-1.3,14-3.1c4.2-0.9,9.1-2,14.4-3.2c1.3-0.3,2.6-0.7,4.1-0.8c1.4-0.1,3,0,4.2,1c0.6,0.5,1,1.2,1.1,2
		c0.1,0.8-0.1,1.5-0.4,2.2c-0.7,1.4-2,2.3-3.3,2.9c-2.7,1.2-5.5,1.9-8.2,2.8c-1.3,0.4-2.6,0.9-3.9,1.5c-1.2,0.6-2.5,1.2-3.7,1.7
		c-2.6,1.1-5.3,1.1-7.7,1.2c-2.5,0.1-4.8,0.2-7,0.2c-2.2,0-4.1-0.1-5.9-0.3c-1.8-0.2-3.3-0.4-4.5-0.7c-1.2-0.3-2.2-0.5-2.8-0.7
		c-0.6-0.2-1-0.3-1-0.3l0-0.1c0,0,0.3,0.1,1,0.3c0.7,0.2,1.6,0.4,2.9,0.6c1.2,0.2,2.8,0.4,4.5,0.5c1.7,0.1,3.7,0.2,5.9,0.1
		c2.2,0,4.5-0.2,6.9-0.3c2.5-0.2,5.1-0.1,7.5-1.2c1.2-0.5,2.4-1.1,3.7-1.7c1.3-0.6,2.6-1.1,4-1.5c2.7-0.8,5.5-1.5,8.1-2.7
		c1.3-0.6,2.5-1.4,3.1-2.6c0.3-0.6,0.5-1.3,0.4-1.9c-0.1-0.6-0.4-1.3-0.9-1.7c-1-0.9-2.5-1-3.8-0.9c-1.4,0.1-2.7,0.4-4,0.7
		c-5.3,1.1-10.2,2.2-14.4,3C191.7,399,186.1,400.2,186.1,400.1L186.1,400.1z"/>
</g>
<path class="st0" d="M212.3,389.9c-1.7,0.3-3.4,1-4.9,1.9c-0.4,0.2-0.7,0.5-0.8,0.9c-0.1,0.6,0.4,1.2,0.9,1.6
	c3.4,3.1,5.2,7.9,4.8,12.4c0.9,0.6,2.2,0.1,2.8-0.9c0.5-1,0.4-2.1,0.3-3.2c-0.6-4.5-2-9-4.1-13.1"/>
<path class="st9" d="M139.1,110.8c-4-1.2-7.8-4.8-10.2-9.9c-2.4-5.1-3.5-11.5-2.9-17.6c0.3-2.5,0.9-5.2,2.4-6.2
	c1.8-1.3,3.8,0.3,5.5,1.7c0.9,0.8,1.8,1.6,2.7,2.3"/>
<path d="M135,80.1c-0.5-0.3-1-0.8-1.7-1.3c-0.7-0.6-1.5-1.1-2.3-1.4c-0.8-0.3-1.8-0.4-2.6,0.2c-0.8,0.7-1.4,2-1.7,3.5
	c-0.2,0.8-0.3,1.6-0.4,2.4c0,0.9-0.1,1.7-0.1,2.6c0,1.7,0.1,3.6,0.3,5.3c0.5,3.4,1.4,6.8,2.7,9.5c0.6,1.3,1.4,2.6,2.1,3.6
	c0.8,1,1.5,2,2.3,2.7c1.5,1.5,2.9,2.4,3.9,3s1.6,0.7,1.6,0.7s-0.2,0-0.4-0.1c-0.3-0.1-0.7-0.2-1.2-0.4c-1-0.4-2.5-1.1-4.1-2.6
	c-0.9-0.7-1.7-1.6-2.4-2.6c-0.8-1-1.6-2.3-2.3-3.7c-1.4-2.8-2.4-6.3-2.9-9.9c-0.3-1.8-0.3-3.7-0.3-5.5c0-1,0.2-1.9,0.2-2.7
	c0.1-0.9,0.2-1.7,0.4-2.6c0.4-1.6,1.2-3.2,2.2-3.9c1-0.8,2.1-0.6,3.1-0.2c0.9,0.4,1.7,1.1,2.3,1.6c0.6,0.7,1.2,1.1,1.7,1.6
	c0.9,0.9,1.4,1.3,1.4,1.3S136.2,80.7,135,80.1z"/>
<g>
	<path class="st9" d="M134,105.7c0.6,1.3,1.5,2.1,2.4,2.1s2-1.4,2.4-2.8c-1-0.9-3.4-6.8-3.3-7.4c0.4-1.6,2.1-1.8,2.2-3.5
		c0-0.9,0.1-1.6,0-2.5c-0.1-0.8-0.4-1.7-0.7-2.4c-1.2-3.5-2.8-7-5.3-7.9c-0.7-0.3-1.5-0.2-2,0.6c-0.5,0.7-0.7,1.7-0.8,2.6
		c-0.2,1.9-0.6,3.7-0.8,5.6c-0.1,0.9-0.3,1.6-0.2,2.5c0.1,1.1,0.4,2.2,0.8,3.2c0.4,1.1,0.8,2.1,1.2,3.2c0.3,0.6,0.5,1.2,0.8,1.6
		c0.3,0.3,0.8,0.5,1.1,0.9c0.9,0.8,1.5,2.3,2,3.8"/>
	<path d="M134,105.7c0.3,0.5,0.6,1.1,1.1,1.4c0.2,0.2,0.5,0.4,0.8,0.5c0.1,0.1,0.3,0.1,0.4,0.1c0.1,0,0.3,0,0.4,0
		c0.3-0.1,0.5-0.2,0.7-0.4c0.2-0.2,0.4-0.4,0.6-0.7c0.3-0.5,0.6-1,0.7-1.6l0,0.2c-0.4-0.5-0.7-1-1-1.5c-0.3-0.5-0.5-1-0.8-1.5
		c-0.5-1-0.9-2.1-1.3-3.2c-0.1-0.3-0.2-0.5-0.3-0.8c0-0.2-0.1-0.3-0.1-0.5l0-0.2c0-0.1,0-0.1,0-0.1l0.1-0.2c0.2-0.6,0.7-1.1,1.1-1.5
		c0.4-0.4,0.8-0.7,0.9-1.2c0.1-0.4,0.1-1.1,0.1-1.6c0-1.1-0.2-2.1-0.6-3.2l-0.6-1.6c-0.2-0.5-0.4-1-0.6-1.5c-0.5-1-1-2-1.6-2.9
		c-0.6-0.9-1.4-1.7-2.4-2l0,0l0,0c-0.3-0.1-0.7-0.2-0.9-0.1c-0.3,0.1-0.5,0.3-0.7,0.6c-0.2,0.3-0.3,0.7-0.4,1.1
		c-0.1,0.4-0.2,0.8-0.2,1.2l-0.7,5c-0.1,0.8-0.3,1.7-0.3,2.5c-0.1,0.8,0,1.6,0.3,2.4c0.2,0.8,0.5,1.6,0.8,2.4l0.8,2.4l0,0
		c0.3,0.6,0.4,1.2,0.8,1.6l0,0c0.3,0.3,0.7,0.5,1.1,0.9l0,0c0.6,0.5,0.9,1.1,1.2,1.8c0.3,0.7,0.5,1.3,0.7,2c-0.3-0.7-0.5-1.3-0.8-2
		c-0.3-0.6-0.7-1.3-1.2-1.7l0,0l0,0c-0.3-0.3-0.8-0.5-1.1-0.9l0,0l0,0c-0.4-0.5-0.6-1.1-0.9-1.7l0,0l0,0l-0.9-2.3
		c-0.3-0.8-0.6-1.6-0.9-2.4c-0.3-0.8-0.4-1.7-0.4-2.6c0-0.9,0.2-1.7,0.3-2.5l0.7-5c0.1-0.8,0.2-1.7,0.7-2.5c0.2-0.4,0.6-0.8,1.1-1
		c0.5-0.2,1-0.1,1.5,0.1l0,0c1.2,0.4,2.1,1.3,2.7,2.3c0.7,1,1.2,2,1.7,3c0.2,0.5,0.4,1.1,0.6,1.6l0.6,1.6c0.4,1.1,0.7,2.3,0.6,3.4
		c0,0.6,0,1.1-0.2,1.8c-0.2,0.6-0.7,1.1-1.1,1.5c-0.4,0.4-0.8,0.8-1,1.2c0,0.1-0.1,0.3-0.1,0.3c0,0.1,0,0.2,0.1,0.4
		c0.1,0.3,0.1,0.5,0.2,0.8c0.4,1.1,0.8,2.1,1.2,3.1c0.2,0.5,0.5,1,0.7,1.5c0.3,0.5,0.5,1,0.9,1.4l0.1,0.1l0,0.1
		c-0.2,0.6-0.5,1.2-0.9,1.7c-0.2,0.3-0.4,0.5-0.6,0.7c-0.2,0.2-0.5,0.4-0.8,0.5c-0.2,0-0.3,0-0.5,0c-0.2,0-0.3-0.1-0.5-0.1
		c-0.3-0.1-0.5-0.3-0.8-0.5C134.6,106.8,134.2,106.3,134,105.7z"/>
</g>
<g>
	<path class="st15" d="M215.4,83c0.8-0.8,1.6-1.6,2.3-2.4c1.5-1.5,3.3-3,4.8-1.8c1.3,1,1.8,3.7,2,6.2c0.5,6.1-0.5,12.5-2.6,17.6
		s-5.4,8.7-8.8,10"/>
	<path class="st2" d="M215.4,83c0,0,0.4-0.4,1.2-1.4c0.4-0.5,0.9-0.9,1.4-1.6c0.5-0.6,1.2-1.2,2-1.7c0.8-0.4,1.7-0.7,2.6,0.1
		c0.9,0.7,1.5,2.2,1.9,3.9c0.2,0.9,0.3,1.7,0.4,2.6c0,0.9,0.1,1.7,0.1,2.7c0,1.8,0,3.7-0.3,5.5c-0.5,3.6-1.4,7.1-2.6,10
		c-0.6,1.4-1.3,2.7-2,3.7s-1.4,2-2.1,2.6c-1.4,1.5-2.7,2.2-3.5,2.6c-0.4,0.2-0.8,0.3-1,0.4c-0.2,0.1-0.4,0.1-0.4,0.1
		s0.5-0.2,1.4-0.7c0.9-0.5,2.1-1.5,3.4-3c0.7-0.8,1.3-1.7,2-2.8c0.6-1,1.3-2.3,1.8-3.6c1.1-2.7,2-6.1,2.4-9.5
		c0.2-1.7,0.3-3.5,0.3-5.3c0-0.9-0.1-1.7-0.1-2.6c0-0.7-0.1-1.6-0.3-2.4c-0.3-1.5-0.8-2.8-1.5-3.5c-0.7-0.7-1.5-0.5-2.3-0.2
		c-0.7,0.3-1.4,0.9-2,1.4c-0.6,0.6-1,1-1.5,1.3C215.8,82.5,215.4,83,215.4,83z"/>
</g>
<g>
	<path class="st15" d="M217.5,107.1c0.4-1.4,0.9-3,1.8-3.8c0.3-0.3,0.7-0.6,1-0.9c0.3-0.5,0.5-1.1,0.7-1.7c0.3-1.1,0.7-2.1,1-3.2
		c0.3-1.1,0.7-2.1,0.7-3.2c0-0.9-0.1-1.6-0.2-2.5c-0.2-1.9-0.4-3.7-0.6-5.6c-0.1-1-0.3-2-0.6-2.6c-0.5-0.8-1.2-0.8-1.8-0.5
		c-2.1,0.9-3.5,4.5-4.6,7.9c-0.3,0.7-0.5,1.6-0.6,2.4c-0.1,0.8-0.1,1.6-0.1,2.5c0.1,1.7,1.5,1.9,1.9,3.5c0.1,0.6-2,6.6-2.9,7.5
		c0.4,1.4,1.3,2.8,2.1,2.8c0.8-0.1,1.6-0.8,2.1-2.1"/>
	<path class="st16" d="M217.5,107.1c0.3-1.2,0.6-2.3,1.2-3.3c0.6-1.1,1.4-1.2,1.8-2.3c0.3-1.1,0.7-2.3,1-3.3
		c0.3-1.2,0.7-2.3,0.9-3.4c0.1-1.1,0-2.2-0.2-3.5c-0.1-1.2-0.3-2.5-0.4-3.7c-0.1-1.2-0.2-2.5-0.5-3.4c-0.3-0.8-1-1-1.6-0.6
		c-0.4,0.2-0.7,0.4-1,0.6c-0.3,0.3-0.6,0.7-0.8,1c-0.5,0.8-1,1.7-1.4,2.8c-0.4,1.1-0.8,2.1-1.2,3.2c-0.4,1.1-0.7,2.1-0.7,3.3
		c0,0.5,0,1.4,0.1,1.6c0.1,0.4,0.4,0.7,0.7,1c0.3,0.3,0.7,0.7,0.9,1.3c0.1,0.1,0.1,0.4,0.2,0.5l0,0.1c0,0.1,0-0.1,0,0.1l0,0l0,0
		l0,0.1c0,0.1,0,0.2,0,0.4c-0.1,0.4-0.2,0.6-0.3,1c-0.3,1.2-0.8,2.3-1.2,3.3s-0.9,2.1-1.6,2.9l0.1-0.5c0.2,0.6,0.4,1.3,0.7,1.7
		c0.3,0.5,0.7,0.9,1.1,1.1c0.2,0,0.4,0,0.6-0.1c0.2-0.1,0.4-0.2,0.6-0.4c0.4-0.3,0.8-0.9,1-1.5c-0.4,1.4-1.3,2.5-2.3,2.4
		c-0.5,0-0.9-0.5-1.2-1c-0.3-0.5-0.7-1-0.9-1.8l-0.1-0.3l0.2-0.2c0.5-0.7,1-1.9,1.4-2.8c0.4-1.1,0.8-2.1,1.1-3.2
		c0.1-0.2,0.2-0.6,0.2-0.7l0,0l0-0.1l0,0l0,0c0.1,0.3,0,0.1,0,0.1l0,0c0-0.1-0.1-0.3-0.1-0.3c-0.2-0.4-0.5-0.7-0.7-0.9
		c-0.3-0.3-0.7-0.7-0.9-1.4c-0.1-0.1-0.1-0.5-0.1-0.6l0-0.2l0-0.2c0-0.4,0-0.6,0-1c0-0.6,0.1-1.3,0.2-2.1s0.4-1.3,0.5-1.8
		c0.3-1.1,0.8-2.3,1.2-3.3c0.4-1.1,0.9-2.1,1.5-3.1c0.3-0.5,0.6-0.8,1-1.1c0.4-0.3,0.7-0.7,1.1-0.8c0.4-0.2,0.8-0.3,1.3-0.1
		c0.4,0.2,0.8,0.6,1.1,1.2c0.3,0.6,0.4,1.3,0.5,1.9l0.2,1.9c0.1,1.2,0.3,2.5,0.4,3.7s0.3,2.6,0.1,3.9c-0.2,1.3-0.6,2.4-1,3.6
		c-0.4,1.1-0.7,2.3-1.2,3.3c-0.2,0.6-0.6,0.9-0.9,1.3c-0.4,0.2-0.7,0.6-0.9,0.9C218.3,104.9,217.9,106,217.5,107.1z"/>
</g>
<path class="st9" d="M215,82.8c0.8-0.8,1.7-1.6,2.5-2.4c1.6-1.5,3.5-3.1,5-1.8c1.4,1,1.9,3.8,2.1,6.4c0.5,6.2-0.5,12.8-2.7,18
	c-2.2,5.2-5.6,8.9-9.3,10.2"/>
<g>
	<path class="st9" d="M217.7,106.9c0.4-1.4,0.9-3,1.8-3.8c0.3-0.3,0.7-0.6,1-0.9c0.3-0.5,0.5-1.1,0.7-1.7c0.3-1.1,0.7-2.1,1-3.2
		c0.3-1.1,0.7-2.1,0.7-3.2c0-0.9-0.1-1.6-0.2-2.5c-0.2-1.9-0.4-3.7-0.6-5.6c-0.1-1-0.3-2-0.6-2.6c-0.5-0.8-1.2-0.8-1.8-0.5
		c-2.1,0.9-3.5,4.5-4.6,7.9c-0.3,0.7-0.5,1.6-0.6,2.4c-0.1,0.8-0.1,1.6-0.1,2.5c0.1,1.7,1.5,1.9,1.9,3.5c0.1,0.6-2,6.6-2.9,7.5
		c0.4,1.4,1.3,2.8,2.1,2.8s1.6-0.8,2.1-2.1"/>
	<path d="M217.7,106.9c0.2-0.7,0.4-1.3,0.6-2c0.3-0.7,0.6-1.3,1.1-1.8l0,0c0.3-0.4,0.7-0.6,0.9-0.9l0,0c0.3-0.5,0.5-1.1,0.7-1.6l0,0
		c0.5-1.6,1-3.1,1.4-4.7c0.2-0.8,0.3-1.6,0.3-2.4c0-0.8-0.2-1.6-0.3-2.4l-0.6-4.9c-0.1-0.8-0.2-1.6-0.5-2.3
		c-0.1-0.2-0.2-0.3-0.3-0.5c-0.1-0.1-0.2-0.2-0.3-0.3c-0.3-0.1-0.6-0.1-0.9,0.1l0,0l0,0c-0.9,0.4-1.6,1.3-2.1,2.2
		c-0.6,0.9-1,1.9-1.4,2.9c-0.2,0.5-0.4,1-0.6,1.5l-0.5,1.6c-0.3,1-0.5,2.1-0.5,3.1c0,0.5,0,1.1,0.1,1.6c0.1,0.5,0.4,0.8,0.8,1.2
		c0.4,0.4,0.8,0.9,0.9,1.5c0.1,0.3,0,0.7,0,1c-0.1,0.3-0.2,0.5-0.2,0.8c-0.3,1.1-0.7,2.1-1.2,3.1c-0.2,0.5-0.4,1-0.7,1.5
		c-0.2,0.5-0.5,1-0.9,1.5l0-0.1c0.1,0.5,0.3,1.1,0.6,1.5c0.3,0.5,0.6,1,1.1,1.2c0.2,0.1,0.5,0,0.8-0.1c0.2-0.1,0.5-0.3,0.7-0.5
		c0.4-0.4,0.7-0.9,0.9-1.4c-0.2,0.5-0.5,1-0.8,1.5c-0.2,0.2-0.4,0.4-0.7,0.5c-0.3,0.1-0.6,0.2-0.9,0.2c-0.6-0.2-1-0.7-1.3-1.2
		c-0.3-0.5-0.5-1-0.7-1.6l0-0.1l0.1-0.1c0.3-0.4,0.5-0.9,0.7-1.4c0.2-0.5,0.4-1,0.6-1.5c0.4-1,0.8-2.1,1.1-3.1
		c0.1-0.3,0.2-0.5,0.2-0.8c0-0.3,0.1-0.4,0-0.7c-0.1-0.5-0.4-0.9-0.8-1.3c-0.4-0.4-0.8-0.9-1-1.5c-0.1-0.6-0.1-1.2-0.1-1.7
		c0-1.1,0.2-2.3,0.5-3.3l0.5-1.6c0.2-0.5,0.4-1,0.6-1.6c0.4-1,0.8-2.1,1.4-3c0.6-1,1.3-1.9,2.5-2.4l0,0c0.4-0.2,1-0.3,1.5,0
		c0.2,0.1,0.4,0.3,0.6,0.5c0.1,0.2,0.2,0.4,0.3,0.6c0.3,0.8,0.4,1.7,0.5,2.5L223,91c0.1,0.8,0.2,1.6,0.2,2.5c0,0.8-0.1,1.7-0.4,2.5
		c-0.2,0.8-0.5,1.6-0.7,2.3l-0.8,2.3l0,0l0,0c-0.2,0.5-0.4,1.1-0.8,1.7l0,0l0,0c-0.3,0.3-0.7,0.6-1,0.9l0,0l0,0
		c-0.5,0.5-0.8,1.1-1.1,1.7C218.1,105.6,217.9,106.2,217.7,106.9z"/>
</g>
<path d="M215.5,82.8c0,0,0.4-0.4,1.2-1.4c0.4-0.5,0.9-0.9,1.4-1.6c0.5-0.6,1.2-1.2,2-1.7c0.8-0.4,1.7-0.7,2.6,0.1
	c0.9,0.7,1.5,2.2,1.9,3.9c0.2,0.9,0.3,1.7,0.4,2.6c0,0.9,0.1,1.7,0.1,2.7c0,1.8,0,3.7-0.3,5.5c-0.5,3.6-1.4,7.1-2.6,10
	c-0.6,1.4-1.3,2.7-2,3.7c-0.7,1-1.4,2-2.1,2.6c-1.4,1.5-2.7,2.2-3.5,2.6c-0.4,0.2-0.8,0.3-1,0.4c-0.2,0.1-0.4,0.1-0.4,0.1
	s0.5-0.2,1.4-0.7c0.9-0.5,2.1-1.5,3.4-3c0.7-0.8,1.3-1.7,2-2.8c0.6-1,1.3-2.3,1.8-3.6c1.1-2.7,2-6.1,2.4-9.5
	c0.2-1.7,0.3-3.5,0.3-5.3c0-0.9-0.1-1.7-0.1-2.6c0-0.7-0.1-1.6-0.3-2.4c-0.3-1.5-0.8-2.8-1.5-3.5c-0.7-0.7-1.5-0.5-2.3-0.2
	c-0.7,0.3-1.4,0.9-2,1.4c-0.6,0.6-1,1-1.5,1.3C216,82.3,215.5,82.8,215.5,82.8z"/>
<path class="st9" d="M173.6,157.7c3.8,0.1,7.7-1,10.8-3.4c1.7-1.3,3.3-2.8,4.8-4.2c3.5-3.4,7.1-6.7,10.6-10.1
	c5.7-5.4,8.9-9,10.6-14.2c1.6-4.8,1.8-10,2.7-15c1.3-7.3-0.4-16.2,1.8-23.2c3-9.5,2.8-19.7,2-29.7c-0.4-4.7-2.3-9-5.4-12.3
	c-8.5-8.8-17.2-13.3-29.8-15.4c-0.8-0.1-1.4-0.2-2.2-0.2l-3.6-0.1c-0.6,0-1.3,0-2,0.1c-12.8,1.2-22.8,6.2-32.3,14.8
	c-3.3,3.1-5.6,7.2-6.3,11.9c-1.5,10-2.5,20.2-0.1,29.9c1.8,7.2,1.6,14.1,2.4,21.5c0.6,5-0.2,10.2,1,15c1.4,5.9,5.6,10.6,9.6,15
	c3.3,3.7,6.6,7.3,9.9,11c1.4,1.6,2.9,3.1,4.5,4.6C165.9,156.2,169.7,157.6,173.6,157.7L173.6,157.7z"/>
<path class="st2" d="M173.6,157.7c0,0,0.3,0,0.9,0s1.5-0.1,2.7-0.3c1.2-0.2,2.6-0.6,4.2-1.4c0.8-0.4,1.6-0.8,2.5-1.4
	c0.8-0.6,1.6-1.3,2.5-2c1.7-1.5,3.5-3.3,5.6-5.2c2-1.9,4.2-4,6.5-6.3c2.3-2.2,4.8-4.6,7.2-7.3c1.2-1.4,2.3-2.9,3.2-4.6
	c0.9-1.7,1.6-3.6,2.1-5.6c0.9-4,1.3-8.3,2-12.7c0.8-4.4,0.5-9,0.5-13.7c0.1-2.4,0.1-4.8,0.6-7.2c0.3-1.2,0.6-2.4,0.9-3.5
	c0.2-0.6,0.3-1.2,0.5-1.8c0.1-0.6,0.3-1.2,0.4-1.8c1-4.8,1.3-9.9,1.2-15c-0.1-2.6-0.2-5.2-0.4-7.8c-0.1-1.3-0.2-2.7-0.4-3.9
	c-0.2-1.3-0.6-2.5-1-3.7c-0.9-2.4-2.2-4.6-4-6.4c-1.8-1.8-3.7-3.6-5.7-5.2c-4-3.2-8.5-5.7-13.2-7.4c-2.4-0.8-4.8-1.5-7.3-2
	c-0.6-0.1-1.3-0.3-1.9-0.3l-0.9-0.1l-0.4-0.1c0,0-0.1,0-0.1,0h-0.1h-0.3l-1.9-0.2l-1.9-0.1h-0.9h-0.5h-0.1c-0.1,0,0,0-0.1,0H176H175
	h-0.5h-0.1c0,0-0.1,0-0.1,0h-0.3l-1.9,0.2c-0.6,0.1-1.3,0.2-1.9,0.3c-2.5,0.4-5,1-7.4,1.7c-4.8,1.5-9.4,3.8-13.6,6.7
	c-2.1,1.4-4.1,3-6,4.7c-0.9,0.8-1.9,1.7-2.7,2.7c-0.8,1-1.5,2-2.1,3.1c-1.3,2.2-2.1,4.6-2.4,7.2c-0.4,2.6-0.8,5.2-1,7.7
	c-0.5,5.1-0.7,10.2-0.2,15.1c0.3,2.4,0.7,4.8,1.3,7.2c0.6,2.4,0.9,4.8,1.1,7.1c0.4,4.8,0.6,9.3,1,13.7c0.4,4.5-0.1,8.8,0.5,12.9
	s2.5,7.6,4.6,10.5c2.1,3,4.5,5.4,6.7,7.9c2.1,2.4,4.2,4.7,6,6.7c1.9,2.1,3.6,4,5.2,5.6c0.8,0.8,1.6,1.6,2.4,2.2
	c0.8,0.6,1.6,1.2,2.3,1.6c1.5,0.9,3,1.4,4.1,1.6c1.2,0.3,2.1,0.4,2.7,0.5C173.3,157.7,173.6,157.7,173.6,157.7z M173.6,157.7
	c0,0-0.3,0-0.9-0.1s-1.5-0.1-2.7-0.5c-1.1-0.3-2.6-0.7-4.2-1.6c-0.8-0.4-1.6-1-2.4-1.6s-1.6-1.4-2.4-2.2c-1.6-1.6-3.3-3.6-5.2-5.6
	c-1.9-2-3.9-4.3-6.1-6.7c-2.1-2.4-4.5-4.9-6.7-7.9c-1.1-1.5-2.1-3.1-3-4.9c-0.8-1.8-1.4-3.7-1.8-5.8c-0.6-4.2-0.2-8.5-0.7-12.9
	c-0.5-4.4-0.7-9-1.1-13.7c-0.3-2.3-0.6-4.7-1.1-7c-0.6-2.3-1.1-4.8-1.3-7.3c-0.6-5-0.4-10.1,0-15.3c0.3-2.6,0.6-5.2,0.9-7.8
	c0.3-2.7,1.1-5.3,2.5-7.6c0.6-1.2,1.4-2.3,2.3-3.3s1.8-1.9,2.8-2.8c2-1.7,4-3.3,6.1-4.8c8.5-5.9,18.8-9.5,29.1-9.3l1.9,0.1l2,0.2
	h0.3h0.1c0.1,0,0.1,0,0.2,0l0.5,0.1l0.9,0.2c0.6,0.1,1.3,0.3,1.9,0.4c2.5,0.5,5,1.2,7.4,2.1c4.8,1.8,9.5,4.4,13.5,7.6
	c2,1.6,4,3.5,5.7,5.3c1.8,2,3.3,4.3,4.2,6.9c0.4,1.3,0.8,2.6,1,3.9c0.2,1.4,0.3,2.7,0.4,4c0.2,2.7,0.3,5.2,0.3,7.8
	c0.1,5.2-0.3,10.3-1.4,15.2c-0.1,0.6-0.3,1.2-0.4,1.8c-0.1,0.6-0.3,1.2-0.5,1.8c-0.4,1.2-0.7,2.3-0.9,3.5c-0.5,2.3-0.6,4.8-0.7,7.1
	c-0.1,4.7,0.1,9.4-0.7,13.8c-0.8,4.4-1.1,8.7-2.1,12.7c-0.5,2-1.2,3.9-2.1,5.6c-0.9,1.7-2.1,3.3-3.3,4.6c-2.4,2.8-4.9,5.1-7.2,7.3
	c-2.3,2.2-4.5,4.3-6.5,6.2c-2,1.9-3.8,3.7-5.6,5.2c-0.9,0.7-1.7,1.4-2.5,2s-1.6,1.1-2.5,1.4c-1.6,0.7-3,1.2-4.2,1.4
	c-1.2,0.2-2.1,0.3-2.7,0.3C174,157.8,173.6,157.7,173.6,157.7z"/>
<g>
	<g>
		<path class="st17" d="M169.3,84.3c0,0,0.1,0.1,0.2,0.4c0.1,0.2,0.4,0.6,0.5,1.1c0.5,0.9,1,2.4,1.2,4.1c0.2,1.8-0.2,3.9-0.5,6.1
			c-0.2,1.1-0.5,2.3-0.8,3.3c-0.4,1.1-0.8,2.3-1.3,3.3c-0.9,2.2-2.1,4.2-3.3,6.1c-0.6,0.9-1.2,1.8-1.5,2.7c-0.1,0.2-0.1,0.4-0.2,0.7
			c0,0.2,0,0.4,0,0.6c0,0.4,0.1,0.9,0.3,1.2c0.3,0.8,0.7,1.3,1.3,1.7c0.5,0.3,1.1,0.5,1.5,0.5s0.8-0.1,1.1-0.1
			c0.3-0.1,0.4-0.1,0.4-0.1v0.1c0,0-0.1,0.1-0.4,0.2c-0.3,0.1-0.6,0.3-1.1,0.3c-0.5,0.1-1.1,0-1.8-0.3c-0.6-0.3-1.4-1-1.7-1.8
			c-0.2-0.4-0.4-1-0.4-1.5c0-0.3,0-0.5,0-0.8c0-0.2,0.1-0.6,0.2-0.8c0.3-1.1,1-2,1.5-2.9c1.2-1.8,2.4-3.7,3.4-5.9
			c0.5-1.1,0.9-2.1,1.3-3.1s0.6-2.2,0.9-3.2c0.5-2.2,0.8-4.2,0.7-6c-0.1-1.8-0.5-3.1-1-4.1c-0.2-0.5-0.4-0.8-0.5-1.1
			C169.3,84.5,169.2,84.4,169.3,84.3L169.3,84.3z"/>
		<path class="st18" d="M169.3,84.3c0.1,0.1,0.1,0.3,0.2,0.4l0,0c0.2,0.3,0.4,0.7,0.6,1.1l0,0c0.6,1,0.9,2.1,1.1,3.3
			c0.2,1.1,0.3,2.3,0.2,3.5c-0.1,1.2-0.3,2.3-0.4,3.4c-0.2,1.1-0.4,2.3-0.8,3.4c-0.2,0.6-0.4,1.1-0.6,1.6l-0.6,1.6
			c-0.2,0.6-0.4,1.1-0.7,1.6c-0.2,0.5-0.5,1-0.8,1.6c-0.5,1-1.1,2-1.7,3c-0.3,0.5-0.7,0.9-0.9,1.4c-0.3,0.5-0.5,1-0.7,1.5l0,0l0,0
			c0,0.1-0.1,0.4-0.2,0.6l0-0.1l0,0.5c0,0.2,0,0.3,0,0.4c0,0.3,0.1,0.5,0.2,0.7l0,0l0,0c0.2,0.6,0.6,1.1,1.1,1.4l0,0
			c0.4,0.2,0.8,0.4,1.1,0.4c0.1,0,0.2,0,0.3,0c0.1,0,0.2,0,0.3,0c0.2,0,0.4-0.1,0.7-0.1l-0.2,0c0.2-0.1,0.3-0.1,0.5-0.1l0.5-0.1
			l0,0.6l0,0.1l0,0.2l-0.1,0.1c-0.1,0.1-0.1,0.1-0.2,0.1l-0.1,0.1c-0.1,0-0.2,0.1-0.2,0.1l-0.4,0.1c-0.3,0.1-0.6,0.2-0.9,0.2l0.1,0
			c-0.4,0.1-0.8,0-1.1,0c-0.2,0-0.3-0.1-0.5-0.1c-0.2-0.1-0.3-0.1-0.5-0.2c-0.1-0.1-0.3-0.2-0.5-0.3c-0.1-0.1-0.3-0.2-0.4-0.3
			c-0.3-0.2-0.5-0.5-0.7-0.8c-0.4-0.6-0.6-1.2-0.7-1.9c0-0.2,0-0.4,0-0.5l0-0.5c0-0.1,0-0.1,0-0.3c0-0.1,0-0.2,0-0.3
			c0-0.2,0.1-0.3,0.2-0.5l0,0.1c0.2-0.6,0.4-1.2,0.8-1.7l0.9-1.4c0.6-0.9,1.2-1.9,1.8-2.9l0.8-1.5c0.3-0.5,0.5-1,0.7-1.5l0.7-1.6
			c0.2-0.5,0.5-1.1,0.6-1.5l0.5-1.6c0.2-0.5,0.3-1.1,0.5-1.6c0.2-1.1,0.5-2.2,0.6-3.3c0.2-1.1,0.2-2.2,0.1-3.3
			c-0.1-1.1-0.4-2.2-0.8-3.2l0,0c-0.1-0.4-0.3-0.7-0.5-1.1l0,0l0,0c0-0.1,0-0.2,0-0.3C169.2,84.5,169.2,84.4,169.3,84.3z
			 M169.3,84.3c-0.1,0.1,0,0.2,0,0.3c0,0.1,0,0.2,0,0.4l0,0c0.2,0.3,0.4,0.7,0.6,1.1l0,0c0.5,1,0.8,2.1,1,3.3c0.2,1.1,0.2,2.3,0,3.4
			c-0.1,1.1-0.3,2.3-0.5,3.4c-0.1,0.6-0.3,1.1-0.4,1.7l-0.4,1.6c-0.2,0.6-0.4,1.1-0.6,1.6l-0.6,1.6c-0.2,0.6-0.5,1.1-0.7,1.6
			c-0.3,0.5-0.5,1-0.8,1.5c-0.6,1-1.2,2-1.8,2.9l-0.9,1.4c-0.3,0.5-0.5,0.9-0.6,1.4l0,0l0,0c0,0.1-0.1,0.2-0.1,0.4
			c0,0.1,0,0.1,0,0.2c0,0,0,0.1,0,0.2l0,0.5c0,0.2,0,0.3,0,0.4c0.1,0.5,0.3,1.1,0.6,1.5c0.2,0.2,0.4,0.4,0.6,0.6
			c0.1,0.1,0.2,0.2,0.3,0.3c0.1,0.1,0.2,0.1,0.4,0.2l0.4,0.1c0.1,0,0.3,0.1,0.4,0.1c0.3,0.1,0.5,0.1,0.7,0l0,0l0.1,0
			c0.2,0,0.4,0,0.6-0.1l0.4-0.1c0,0,0.1,0,0.1-0.1l0,0c0,0,0,0,0,0l-0.1,0.3l0-0.1l0.5,0.5c-0.1,0-0.1,0.1-0.2,0.1l-0.1,0l0,0
			c-0.1,0-0.4,0-0.6,0.1c-0.1,0-0.2,0-0.4,0c-0.1,0-0.3,0-0.4,0c-0.5-0.1-1-0.3-1.4-0.5l0,0l0,0c-0.6-0.4-1.2-1.1-1.4-1.9l0,0.1
			c-0.2-0.4-0.3-0.7-0.3-1c0-0.2,0-0.4,0-0.5l0-0.5l0-0.1l0-0.1c0.1-0.2,0.1-0.4,0.2-0.7l0,0.1c0.2-0.6,0.5-1.1,0.8-1.6
			c0.3-0.5,0.7-1,1-1.4c0.6-1,1.2-1.9,1.7-2.9c0.3-0.5,0.5-1,0.8-1.5c0.2-0.5,0.5-1,0.7-1.5l0.6-1.6c0.2-0.5,0.4-1.1,0.6-1.6
			c0.4-1.1,0.6-2.2,0.8-3.3c0.2-1.1,0.4-2.2,0.5-3.4c0.1-1.1,0.2-2.3,0-3.4c-0.2-1.1-0.5-2.2-1-3.3l0,0l0,0
			c-0.1-0.4-0.3-0.7-0.5-1.1l0,0C169.4,84.6,169.4,84.4,169.3,84.3z"/>
	</g>
</g>
<g>
	<g>
		<path class="st17" d="M180.8,84c0.1,0.1,0,0.2,0,0.7c-0.2,0.3-0.4,0.6-0.5,1.1c-0.5,1-0.9,2.4-1,4.1c-0.1,1.8,0.3,3.8,0.7,6
			c0.3,1.1,0.5,2.2,0.9,3.2s0.8,2.1,1.3,3.1c1,2.2,2.2,4.1,3.4,5.9c0.5,0.9,1.3,1.8,1.5,2.9c0.1,0.2,0.2,0.6,0.2,0.8
			c0,0.3,0,0.5,0,0.8c0,0.5-0.2,1.1-0.4,1.5c-0.4,0.8-1.1,1.5-1.7,1.8c-0.7,0.3-1.4,0.4-1.8,0.3c-0.5,0-0.8-0.2-1.1-0.3
			c-0.3-0.1-0.4-0.2-0.4-0.2v-0.1c0,0,0.1,0,0.4,0.1c0.3,0,0.6,0.1,1.1,0.1c0.5,0,1-0.2,1.5-0.5c0.5-0.4,1-0.9,1.3-1.7
			c0.2-0.3,0.3-0.8,0.3-1.2c0-0.2,0-0.4,0-0.6c-0.1-0.3-0.1-0.5-0.2-0.7c-0.3-0.9-0.8-1.8-1.5-2.7c-1.2-1.9-2.4-3.9-3.3-6.1
			c-0.5-1.1-0.9-2.3-1.3-3.3c-0.4-1.1-0.6-2.3-0.8-3.3c-0.4-2.2-0.7-4.3-0.5-6.1s0.7-3.2,1.2-4.1c0.2-0.5,0.5-0.9,0.5-1.1
			C180.7,84.1,180.8,84,180.8,84L180.8,84z"/>
		<path class="st18" d="M180.8,84c0.1,0.1,0,0.2,0,0.3c0,0.1,0,0.2,0,0.3l0,0l0,0c-0.2,0.3-0.4,0.7-0.5,1.1l0,0
			c-0.4,1-0.7,2.1-0.8,3.2c-0.1,1.1,0,2.2,0.1,3.3c0.2,1.1,0.4,2.2,0.6,3.3c0.1,0.5,0.3,1.1,0.5,1.6l0.5,1.6c0.2,0.5,0.4,1,0.6,1.5
			l0.7,1.6c0.2,0.5,0.5,1,0.7,1.5l0.8,1.5c0.6,1,1.2,1.9,1.8,2.9l0.9,1.4c0.3,0.5,0.6,1,0.8,1.7l0-0.1c0.1,0.2,0.1,0.4,0.2,0.5
			c0,0.1,0,0.2,0,0.3c0,0.1,0,0.2,0,0.3c0,0.3,0,0.6,0,1c0,0.4-0.1,0.7-0.2,1c-0.1,0.2-0.1,0.3-0.2,0.5c-0.1,0.2-0.2,0.3-0.3,0.5
			c-0.4,0.6-0.9,1-1.6,1.4c-0.2,0.1-0.3,0.1-0.5,0.2c-0.2,0.1-0.3,0.1-0.5,0.1c-0.3,0.1-0.7,0.1-1.1,0l0.1,0c-0.3,0-0.7-0.1-0.9-0.2
			l-0.4-0.1c-0.1,0-0.2-0.1-0.2-0.1l-0.1-0.1c-0.1,0-0.1,0-0.2-0.1l-0.1-0.1l0-0.2l0-0.1l0-0.6l0.5,0.1c0.2,0,0.4,0.1,0.5,0.1
			l-0.2,0c0.3,0,0.5,0.1,0.7,0.1c0.1,0,0.2,0,0.3,0l0.1,0l0.1,0c0.4-0.1,0.8-0.2,1.1-0.4l0,0c0.5-0.4,0.9-0.8,1.1-1.4l0,0l0,0
			c0.1-0.2,0.2-0.4,0.2-0.7c0-0.1,0-0.2,0-0.4l0-0.5l0,0.1c-0.1-0.3-0.1-0.6-0.2-0.6l0,0l0,0c-0.2-0.5-0.4-1-0.7-1.5
			c-0.3-0.5-0.6-0.9-0.9-1.4c-0.6-1-1.2-2-1.7-3c-0.3-0.5-0.5-1-0.8-1.6c-0.2-0.5-0.5-1-0.7-1.6l-0.6-1.6c-0.2-0.5-0.4-1.1-0.6-1.6
			c-0.3-1.1-0.6-2.2-0.8-3.4c-0.2-1.1-0.4-2.3-0.4-3.4c-0.1-1.1-0.1-2.3,0.2-3.5c0.2-1.1,0.6-2.2,1.1-3.3l0,0
			c0.2-0.4,0.4-0.7,0.6-1.1l0,0C180.7,84.2,180.7,84.1,180.8,84z M180.8,84c-0.1,0.1-0.1,0.3-0.2,0.4l0,0c-0.2,0.4-0.4,0.7-0.5,1.1
			l0,0l0,0c-0.5,1-0.8,2.1-1,3.3c-0.2,1.1-0.1,2.2,0,3.4c0.1,1.1,0.3,2.2,0.5,3.4c0.2,1.1,0.5,2.2,0.8,3.3c0.2,0.5,0.4,1.1,0.6,1.6
			l0.6,1.6c0.4,1,0.9,2,1.5,3c0.5,1,1.1,2,1.7,2.9c0.3,0.4,0.7,0.9,1,1.4c0.3,0.5,0.6,1,0.8,1.6l0-0.1c0.1,0.4,0.1,0.6,0.2,0.7
			l0,0.1l0,0.1l0,0.5c0,0.1,0,0.3,0,0.5c0,0.3-0.1,0.7-0.3,1l0-0.1c-0.2,0.8-0.8,1.5-1.4,1.9l0,0l0,0c-0.4,0.2-0.9,0.4-1.4,0.5
			c-0.1,0-0.1,0-0.2,0l-0.2,0c-0.1,0-0.3,0-0.4,0c-0.2,0-0.5-0.1-0.6-0.1l0,0l-0.1,0c-0.1,0-0.1,0-0.2-0.1l0.5-0.5l0,0.1l-0.1-0.3
			c0,0,0,0,0,0l0,0c0,0,0.1,0,0.1,0.1l0.4,0.1c0.2,0.1,0.4,0.1,0.6,0.1l0.1,0l0,0c0.2,0,0.5,0,0.7,0c0.1,0,0.3-0.1,0.4-0.1
			c0.1,0,0.3-0.1,0.4-0.1c0.5-0.2,0.9-0.6,1.2-1.1c0.1-0.1,0.2-0.2,0.2-0.3c0.1-0.1,0.1-0.2,0.2-0.4c0.1-0.3,0.2-0.5,0.2-0.8
			c0-0.2,0-0.6,0-0.9c0-0.1,0-0.1,0-0.2c0-0.1,0-0.1,0-0.2c0-0.1-0.1-0.3-0.1-0.4l0,0l0,0c-0.1-0.5-0.4-1-0.6-1.4l-0.9-1.4
			c-0.6-1-1.2-1.9-1.8-2.9c-0.3-0.5-0.6-1-0.8-1.5c-0.3-0.5-0.5-1-0.7-1.6l-0.6-1.6c-0.2-0.5-0.4-1-0.6-1.6l-0.4-1.6
			c-0.1-0.6-0.3-1.1-0.4-1.7c-0.2-1.1-0.4-2.2-0.5-3.4c-0.1-1.1-0.1-2.3,0-3.4c0.2-1.1,0.5-2.2,1-3.3l0,0c0.2-0.4,0.4-0.7,0.6-1.1
			l0,0c0-0.1,0-0.2,0-0.4C180.9,84.2,180.9,84.1,180.8,84z"/>
	</g>
</g>
<g>
	<path class="st18" d="M168.9,114.4c0,0,0,0,0.1,0.1c0.1,0.1,0.2,0.2,0.4,0.4c0.3,0.3,0.7,0.8,1.2,1.4c0.5,0.6,1,1.2,1.7,1.7
		c0.4,0.2,0.8,0.4,1.2,0.6c0.4,0.1,0.9,0.2,1.3,0.2l0.2,0c0,0,0.1,0,0.2,0l0.4,0c0.3,0,0.4-0.1,0.7-0.1c0.4-0.1,0.8-0.3,1.2-0.5
		c0.7-0.4,1.3-1.1,1.7-1.7c0.4-0.6,0.7-1.1,0.9-1.5c0.2-0.4,0.3-0.6,0.3-0.6s0,0.3-0.2,0.7c-0.1,0.4-0.3,1.1-0.7,1.7
		c-0.4,0.7-0.9,1.5-1.7,2.1c-0.4,0.3-0.9,0.5-1.4,0.7c-0.3,0.1-0.6,0.1-0.8,0.2l-0.4,0c-0.1,0-0.1,0-0.2,0l-0.2,0
		c-0.5,0-1.1-0.1-1.6-0.3c-0.5-0.2-1-0.5-1.4-0.8c-0.4-0.3-0.7-0.7-1-1c-0.3-0.4-0.5-0.7-0.7-1.1c-0.4-0.7-0.6-1.2-0.9-1.6
		C169.1,114.6,168.9,114.4,168.9,114.4z"/>
</g>
<g>
	<path class="st18" d="M179.3,110.2c0,0-0.2-0.1-0.4-0.3c-0.2-0.2-0.5-0.5-0.9-0.9c-0.4-0.3-0.8-0.7-1.3-1c-0.5-0.2-1.1-0.4-1.8-0.4
		c-0.3,0-0.7,0-0.9,0.1c-0.3,0.1-0.6,0.1-0.9,0.2c-0.5,0.2-1,0.6-1.3,0.9c-0.3,0.3-0.6,0.7-0.8,0.9c-0.2,0.2-0.3,0.4-0.3,0.4
		s0-0.2,0.1-0.4c0.1-0.3,0.3-0.7,0.6-1.1c0.3-0.4,0.8-0.9,1.4-1.2c0.3-0.1,0.6-0.3,1-0.3c0.4-0.1,0.7-0.1,1.1-0.1
		c0.4,0,0.7,0,1.1,0.1c0.3,0.1,0.7,0.2,1,0.4c0.6,0.3,1,0.8,1.3,1.2c0.3,0.4,0.5,0.8,0.7,1C179.2,110,179.3,110.2,179.3,110.2z"/>
</g>
<g>
	<path class="st19" d="M187.2,87.8c1.4-1.1,2.8-1.6,4.5-2.2c0.4-0.2,1.4-0.4,1.9-0.5c0.6,0,1.6-0.3,2.2-0.3c2.1,0,2.7-0.4,4.6,0.1
		c0.8,0.2,1.9,0.6,2.7,0.8c1.9,0.6,3.3,1.9,4.6,3c0.1,0.1,0.2,0.2,0.2,0.3c0,0.1-0.1,0.2-0.2,0.3c-1.6,1.2-3.5,2.4-5.5,3.1
		c-0.7,0.2-1.5,0.5-2.3,0.6c-1,0.1-2,0.1-3.2,0.1c-5.3-0.3-7.7-1.4-11.5-2.5c-0.1,0-0.3-0.1-0.4-0.3s0-0.2,0.1-0.3
		C185.7,89.5,186.4,88.7,187.2,87.8z"/>
	<path d="M187.2,87.7c1.2-0.9,2.6-1.5,4-2.2c0.7-0.3,1.5-0.5,2.2-0.7c0.2,0,0.4,0,0.6-0.1l0.6-0.1c0.4-0.1,0.7-0.2,1.2-0.2l0,0l0,0
		c0.6,0,1.2,0,1.8-0.1c0.6-0.1,1.3-0.1,1.9,0c0.3,0,0.6,0.1,1,0.2c0.3,0.1,0.6,0.2,0.9,0.3c0.6,0.2,1.2,0.4,1.7,0.6l0,0l0,0
		c0.9,0.3,1.8,0.8,2.5,1.3c0.8,0.6,1.5,1.2,2.2,1.8l0,0l0,0c0,0.1,0.1,0.1,0.1,0.2c0,0.1,0.1,0.2,0.1,0.4l0,0l0,0.1c0,0,0,0.1,0,0.1
		c0,0.1-0.1,0.1-0.1,0.1c-0.1,0.1-0.1,0.1-0.2,0.2l0,0l0,0c-1.6,1.2-3.3,2.2-5.2,3c-0.5,0.2-0.9,0.3-1.4,0.5c-0.5,0.1-1,0.3-1.5,0.3
		l-3,0.1c-0.5,0-1-0.1-1.5-0.1c-0.5,0-1-0.1-1.5-0.2c-1-0.1-2-0.3-2.9-0.6c-1.9-0.5-3.8-1.2-5.6-1.8l0,0c-0.1,0-0.2-0.1-0.3-0.1
		c-0.1-0.1-0.1-0.1-0.2-0.2c0-0.1,0.1-0.2,0.1-0.3c0.1-0.1,0.1-0.1,0.2-0.2c0.3-0.2,0.5-0.5,0.8-0.7
		C186.2,88.8,186.7,88.3,187.2,87.7L187.2,87.7L187.2,87.7z M187.2,87.8c-0.5,0.5-0.9,1.1-1.4,1.5c-0.3,0.2-0.5,0.5-0.8,0.7
		c-0.1,0.1-0.3,0.2-0.3,0.4c0.1,0.1,0.2,0.2,0.4,0.3l0,0c1.9,0.5,3.8,1.2,5.7,1.6c1,0.2,1.9,0.4,2.9,0.5c0.5,0.1,1,0.1,1.5,0.1
		c0.5,0,1,0.1,1.5,0.1l3-0.1c0.4,0,0.9-0.2,1.4-0.3c0.5-0.1,0.9-0.3,1.4-0.5c1.8-0.8,3.5-1.8,5-3l0,0c0,0,0.1-0.1,0.1-0.1
		c0,0,0,0,0,0l0,0l0,0c0,0,0,0,0,0c0,0.1,0-0.1-0.1-0.1l0,0c-1.4-1.2-2.8-2.4-4.5-3l0,0c-0.6-0.2-1.2-0.4-1.8-0.6
		c-0.3-0.1-0.6-0.2-0.9-0.3c-0.3-0.1-0.6-0.1-0.9-0.2c-0.6-0.1-1.2-0.1-1.8,0c-0.6,0-1.2,0.1-1.9,0l0,0c-0.4,0-0.7,0.1-1.1,0.1
		l-0.6,0.1c-0.2,0-0.4,0-0.6,0c-0.7,0.1-1.5,0.2-2.2,0.5C189.8,86.3,188.4,86.9,187.2,87.8z"/>
</g>
<path class="st20" d="M193.8,85.1c-1.4,1.2-1.9,3.7-0.8,5.4c0.9,1.4,2.4,2,4,2.2c0.3,0,0.6,0.1,0.9-0.1c0.3-0.1,0.9-0.2,1.3-0.5
	c0.8-0.6,0.7-0.5,1.2-1.5c0.4-0.7,0.4-1.5,0.5-2.2c0.1-0.5,0.1-1.2,0-1.7c-0.2-0.9-1-1.4-1.8-1.7c-0.8-0.3-1.6-0.3-2.5-0.3
	c-0.7,0-1.5,0-2.3,0.2C194.1,84.7,193.9,84.8,193.8,85.1"/>
<path class="st19" d="M199.1,85.6c0.6,0.1,1.1,0.7,1,1.3c-0.1,0.7-0.6,1.1-1.2,1.1c-0.6-0.1-1.1-0.7-1-1.3
	C197.9,86,198.5,85.5,199.1,85.6z"/>
<g>
	<g>
		<path d="M191.5,88.8c0.7,2.1,2.3,3.2,4.3,3.6c0.5,0.1,1.8-0.6,0.7-0.8c-1.5-0.3-2.8-1.5-3.4-3C193,88,191.5,88.5,191.5,88.8
			L191.5,88.8z"/>
	</g>
</g>
<g>
	<path class="st19" d="M166,89.4c0.1,0.1,0.2,0.2,0.1,0.3c-0.1,0.1-0.3,0.3-0.4,0.3c-3.8,1.1-6.2,2.2-11.5,2.5c-1.1,0-2.1,0-3.2-0.1
		c-0.8-0.1-1.6-0.4-2.3-0.6c-2-0.8-3.8-1.9-5.5-3.1c-0.1-0.1-0.2-0.2-0.2-0.3c0-0.1,0.1-0.2,0.2-0.3c1.3-1.1,2.7-2.4,4.6-3
		c0.8-0.2,1.9-0.6,2.7-0.8c1.9-0.4,2.4-0.1,4.6-0.1c0.6,0,1.6,0.3,2.2,0.3c0.5,0.1,1.4,0.3,1.9,0.5c1.7,0.7,3.1,1.2,4.5,2.2
		C164.4,88,165.1,88.8,166,89.4z"/>
	<path d="M166,89.4c0.1,0,0.1,0.1,0.2,0.2c0.1,0.1,0,0.2,0,0.2c-0.1,0.1-0.2,0.2-0.4,0.2l0,0c-1.9,0.5-3.7,1.2-5.7,1.7
		c-1,0.2-1.9,0.4-2.9,0.6c-0.5,0.1-1,0.1-1.5,0.2c-0.5,0.1-1,0.1-1.5,0.1l-3-0.1c-0.5,0-1-0.2-1.5-0.3c-0.5-0.1-1-0.3-1.4-0.5
		c-1.9-0.7-3.6-1.8-5.2-3l0,0l0,0c0,0-0.1-0.1-0.2-0.2c0,0-0.1-0.1-0.1-0.1c0-0.1-0.1-0.1-0.1-0.2c0,0,0-0.1,0-0.1c0,0,0-0.1,0-0.1
		c0-0.1,0-0.1,0.1-0.1c0-0.1,0.1-0.1,0.1-0.2l0,0l0,0c1.4-1.2,2.8-2.5,4.7-3.1l0,0l0,0c0.6-0.2,1.1-0.4,1.7-0.6
		c0.3-0.1,0.6-0.2,0.9-0.3l0.5-0.1c0.2,0,0.3-0.1,0.5-0.1c0.6-0.1,1.3,0,1.9,0c0.6,0.1,1.2,0.1,1.8,0.1l0,0l0,0
		c0.4,0,0.8,0.1,1.2,0.2l0.6,0.1c0.2,0,0.3,0,0.6,0.1c0.4,0.1,0.8,0.2,1.2,0.3c0.4,0.1,0.8,0.3,1.1,0.4c1.4,0.6,2.8,1.3,4,2.2l0,0
		l0,0C164.4,87.9,165.1,88.7,166,89.4z M166,89.5c-0.9-0.7-1.7-1.5-2.4-2.3l0,0c-1.2-0.9-2.7-1.4-4.1-1.9c-0.4-0.1-0.7-0.3-1.1-0.3
		c-0.4-0.1-0.7-0.2-1.1-0.2c-0.2,0-0.4,0-0.6-0.1l-0.6-0.1c-0.4-0.1-0.8-0.1-1.1-0.1l0,0c-0.6,0-1.3,0-1.9-0.1
		c-0.6-0.1-1.2-0.1-1.8,0c-0.1,0-0.3,0-0.4,0.1l-0.4,0.1c-0.3,0.1-0.6,0.2-0.9,0.3c-0.6,0.2-1.2,0.4-1.8,0.6l0,0
		c-1.7,0.6-3.1,1.7-4.5,2.9l0,0c0,0.1-0.1,0.1-0.1,0.1l0,0l0,0c0,0,0,0,0,0c0,0,0,0,0,0c0,0,0,0,0,0c0,0,0.1,0.1,0.1,0.1l0,0
		c1.5,1.2,3.2,2.2,5,3c0.5,0.2,0.9,0.3,1.4,0.5c0.5,0.1,0.9,0.3,1.4,0.3l3,0.1c0.5,0,1,0,1.5-0.1c0.5,0,1-0.1,1.5-0.1
		c1-0.1,1.9-0.3,2.9-0.5c1.9-0.4,3.8-1.1,5.7-1.6l0,0c0.1,0,0.2-0.1,0.3-0.2C166.2,89.7,166.1,89.6,166,89.5z"/>
</g>
<path class="st20" d="M157,84.4c0-0.3-0.2-0.4-0.4-0.3c-0.7-0.1-1.5-0.2-2.3-0.2c-0.9,0-1.7,0-2.5,0.3S150.2,85,150,86
	c-0.2,0.5-0.1,1.1,0,1.7c0.1,0.8,0.1,1.5,0.5,2.2c0.5,1,0.4,0.9,1.2,1.5c0.3,0.3,1,0.4,1.3,0.5c0.3,0.2,0.6,0.2,0.9,0.1
	c1.5-0.2,3.1-0.8,4-2.2C158.8,88.2,158.4,85.6,157,84.4"/>
<path class="st19" d="M152.9,86c0.1,0.7-0.4,1.3-1,1.3c-0.6,0.1-1.2-0.4-1.2-1.1s0.4-1.3,1-1.3C152.3,84.8,152.9,85.3,152.9,86z"/>
<g>
	<g>
		<path d="M159.2,88.1c0.1-0.3-1.5-0.8-1.7-0.3c-0.6,1.5-1.9,2.7-3.4,3c-1.1,0.2,0.2,0.9,0.7,0.8C156.9,91.3,158.5,90.2,159.2,88.1
			L159.2,88.1z"/>
	</g>
</g>
<g>
	<path class="st19" d="M174.5,128.2c4.4,0.4,8.4,0.1,12.8-1.5c-0.6,2.7-1.8,5.6-4.2,6.6c-0.8,0.3-1.6,0.5-2.4,0.6
		c-4,0.5-8,0.1-11.8-1.1c-1.6-0.5-3.2-1.1-4.5-2.2c-1.3-1.1-2.4-2.7-2.5-4.5C162,126.1,170.5,127.8,174.5,128.2z"/>
	<path class="st18" d="M174.5,128.2c2.2,0.2,4.3,0.2,6.5-0.1c2.2-0.3,4.3-0.8,6.3-1.6l0.3-0.1l-0.1,0.4c-0.3,1.4-0.7,2.7-1.3,4
		c-0.3,0.6-0.7,1.2-1.2,1.7c-0.5,0.5-1.1,1-1.8,1.3c-0.7,0.3-1.4,0.4-2.1,0.5c-0.7,0.1-1.4,0.2-2.1,0.2c-1.4,0.1-2.8,0.1-4.2,0
		c-1.4-0.1-2.8-0.4-4.1-0.7c-1.4-0.3-2.7-0.7-4-1.3c-1.3-0.6-2.5-1.4-3.4-2.5c-0.9-1.1-1.5-2.4-1.6-3.9l0-0.3l0.2,0.1
		c2.1,0.4,4.2,0.9,6.2,1.3C170.3,127.5,172.4,127.9,174.5,128.2z M174.5,128.2c-2.1-0.2-4.2-0.5-6.3-0.9l-6.3-1l0.2-0.2
		c0.1,1.3,0.8,2.6,1.7,3.5c0.9,1,2.1,1.7,3.3,2.2c1.2,0.5,2.5,0.9,3.9,1.2c1.3,0.3,2.7,0.5,4,0.6c1.3,0.1,2.7,0.2,4,0.1
		c0.7,0,1.4-0.1,2-0.2c0.7-0.1,1.3-0.2,1.9-0.4c1.2-0.5,2.1-1.5,2.8-2.6c0.7-1.1,1.1-2.4,1.5-3.8l0.3,0.2c-2.1,0.7-4.2,1.1-6.4,1.4
		C178.9,128.5,176.7,128.4,174.5,128.2z"/>
</g>
<g>
	<path class="st19" d="M162.8,128.3c0.7,0.6,1.5,1.1,2.4,1.4c1.2,0.5,2.5,0.8,3.8,1c3.6,0.7,7.3,1,10.9,1c0.8,0,1.7,0,2.5-0.1
		c0.8-0.1,1.5-0.3,2.2-0.5c0.3-0.1,0.7-0.2,0.9-0.4c0.4-0.2,0.6-0.6,0.8-1c0.5-0.9,0.9-1.9,0.9-3c-0.7,0.2-1.4,0.3-2.2,0.5
		c-0.4,0.1-0.8,0.2-1.2,0.3c-3.1,0.6-6.2,0.8-9.3,0.5c-0.9-0.1-1.8-0.2-2.7-0.3c-0.4-0.1-0.8-0.1-1.2-0.2c-0.6-0.1-1.2-0.2-1.8-0.2
		c-0.8-0.1-1.6-0.3-2.4-0.4c-1.5-0.3-3-0.5-4.5-0.8C162,126.9,162.3,127.6,162.8,128.3"/>
	<path class="st18" d="M162.8,128.3c0.9,0.7,1.9,1.3,3,1.6c1.1,0.4,2.2,0.6,3.4,0.8c2.3,0.4,4.6,0.6,6.9,0.8
		c1.2,0.1,2.3,0.1,3.5,0.1c0.6,0,1.2,0,1.7,0c0.3,0,0.6,0,0.9-0.1c0.3,0,0.6-0.1,0.8-0.2c0.6-0.1,1.2-0.3,1.7-0.4
		c0.6-0.1,0.9-0.4,1.2-0.9c0.6-0.9,1-2,1.1-3.2l0.3,0.3c-2.1,0.5-4.2,1-6.3,1.3c-2.2,0.3-4.3,0.3-6.5,0.1c-1.1-0.1-2.1-0.3-3.2-0.4
		c-1.1-0.2-2.1-0.3-3.2-0.5c-2.1-0.4-4.2-0.8-6.3-1.3l0.1-0.1C162.1,126.8,162.4,127.6,162.8,128.3l-0.1,0c-0.5-0.6-0.8-1.4-0.9-2.2
		l0-0.2l0.2,0l6.4,1c1,0.2,2.1,0.3,3.2,0.4l3.2,0.4c2.1,0.2,4.2,0.2,6.3-0.1c2.1-0.2,4.2-0.7,6.3-1.2l0.3-0.1l0,0.3
		c-0.1,1.2-0.5,2.4-1.2,3.4c-0.2,0.3-0.4,0.5-0.6,0.7c-0.3,0.2-0.6,0.3-0.9,0.4c-0.6,0.2-1.1,0.3-1.7,0.4c-0.3,0.1-0.6,0.1-0.9,0.2
		c-0.3,0-0.6,0.1-0.9,0.1c-0.6,0-1.2,0-1.8,0c-1.2,0-2.3-0.1-3.5-0.2c-2.3-0.2-4.6-0.5-6.9-0.9c-1.1-0.2-2.3-0.4-3.4-0.8
		C164.7,129.6,163.7,129,162.8,128.3L162.8,128.3z"/>
</g>
<g>
	<path class="st18" d="M182.9,138c0,0-0.2,0.2-0.6,0.6c-0.4,0.4-1,1-1.8,1.5c-0.8,0.5-2,0.9-3.2,1c-0.6,0.1-1.3,0.1-1.9,0.1
		c-0.7,0-1.3-0.1-2-0.1c-1.3-0.2-2.6-0.5-3.7-0.9c-1.2-0.4-2.2-1-3-1.5c-0.8-0.5-1.4-1.1-1.9-1.4c-0.4-0.4-0.6-0.6-0.6-0.6
		s0.3,0.2,0.7,0.5c0.5,0.3,1.1,0.8,2,1.2c0.8,0.5,1.9,0.9,3,1.3c1.1,0.4,2.4,0.7,3.6,0.8c1.2,0.2,2.6,0.2,3.7,0.2
		c1.2-0.1,2.3-0.3,3.1-0.8c0.8-0.4,1.5-0.9,1.9-1.3C182.7,138.2,182.9,138,182.9,138z"/>
</g>
<g>
	<path class="st18" d="M186.2,125.4c0,0-0.4-0.1-1-0.3c-0.6-0.2-1.5-0.4-2.6-0.5c-1.1-0.2-2.4-0.2-3.7-0.1c-0.7,0-1.4,0.1-2.1,0.3
		c-0.7,0.1-1.4,0.4-2.2,0.4c-0.4,0-0.8-0.1-1.2-0.2c-0.4-0.1-0.7-0.2-1-0.4c-0.7-0.2-1.4-0.4-2-0.5c-1.3-0.2-2.6-0.3-3.7-0.2
		c-1.1,0.1-2,0.2-2.6,0.3c-0.6,0.1-1,0.2-1,0.2s0.1,0,0.2-0.1c0.2-0.1,0.4-0.2,0.7-0.3c0.6-0.2,1.5-0.5,2.6-0.6
		c1.1-0.1,2.5-0.2,3.9,0c0.7,0.1,1.4,0.3,2.1,0.5c0.7,0.2,1.4,0.6,2,0.5c0.6,0,1.4-0.3,2.1-0.4c0.7-0.1,1.5-0.2,2.2-0.2
		c1.4-0.1,2.7,0.1,3.8,0.3c1.1,0.2,2,0.5,2.6,0.8C185.9,125.3,186.2,125.4,186.2,125.4z"/>
</g>
<g>
	<path class="st21" d="M181.1,91.7c-2-1.8-5-2-7.7-2c-1.5,0-3.1,0.2-4.4,1c0.2-0.5-0.3-1-0.3-1.5c0-0.5,0.3-0.9,0.7-1.1
		c0.4-0.2,0.9-0.3,1.3-0.4c2.8-0.4,5.7-0.5,8.3,0.4c0.5,0.2,1,0.4,1.4,0.7C181.2,89.6,181.5,90.8,181.1,91.7"/>
	<path class="st18" d="M181.1,91.8c-0.8-0.7-1.8-1.2-2.8-1.4c-1-0.3-2.1-0.4-3.1-0.4c-1.1,0-2.1,0-3.2,0.1c-1,0.1-2.1,0.4-2.9,0.9
		l-0.6,0.4l0.2-0.7c0.1-0.2-0.1-0.5-0.2-0.9c-0.2-0.3-0.2-0.9,0-1.3c0.2-0.4,0.6-0.7,1-0.8c0.4-0.2,0.8-0.2,1.1-0.3
		c1.4-0.2,2.9-0.4,4.4-0.3c1.5,0,3,0.4,4.4,0.9c0.3,0.1,0.7,0.3,1,0.6c0.3,0.3,0.6,0.6,0.7,0.9C181.4,90.3,181.4,91.1,181.1,91.8
		L181.1,91.8c0.2-0.7,0.1-1.4-0.3-2c-0.3-0.6-0.9-1-1.6-1.2c-1.3-0.5-2.8-0.7-4.2-0.7c-1.4,0-2.9,0.1-4.3,0.2
		c-0.7,0.1-1.4,0.2-1.7,0.8c-0.2,0.3-0.1,0.5,0,0.8c0.1,0.3,0.3,0.7,0.2,1.2l-0.4-0.3c0.9-0.6,2.1-0.9,3.1-0.9
		c1.1-0.1,2.1-0.1,3.2,0c1.1,0.1,2.1,0.2,3.2,0.5C179.4,90.5,180.3,91,181.1,91.8L181.1,91.8z"/>
</g>
<path class="st22" d="M163.8,78.6c-3.6-1-9.9-2.5-10.8-2.3c-0.5,0.1-3.8-0.5-4.8,0.4c-2.8,1.9-6.5,3.6-9.1,5.8
	c-1.2,1-1.4,2.5-2.6,3.6c3.4-2,7-2.9,10.4-4.9c1-0.6,2.5-0.7,3.6-0.6c0.6,0,16,2.2,16.9,2.3c1,0.1,4.1-1.8,3.3-2.4
	C170.7,80.4,166.1,79.2,163.8,78.6z"/>
<g>
	<path class="st21" d="M133.9,78.2c1.8,2.1,3.5,4.2,5.3,6.2c0.1,0.1,0.2,0.3,0.3,0.4c0.1,0.2,0.1,0.4,0.1,0.6
		c0.1,0.8,0.2,1.6,0.4,2.4c-1.5-1-2.9-2.3-4-3.8c-0.3-0.5-0.6-0.9-1-1.4c-0.2-0.3-0.3-0.5-0.5-0.8C134,80.7,133.7,79.4,133.9,78.2"
		/>
	<path class="st18" d="M134,78.2c1.4,1.4,2.7,2.9,4,4.3l1,1.1l0.5,0.6c0.1,0.2,0.4,0.4,0.4,0.8c0.1,0.3,0.1,0.6,0.1,0.8
		c0,0.2,0,0.5,0.1,0.7c0.1,0.5,0.1,1,0.2,1.4l0.2,0.7l-0.6-0.4c-0.8-0.6-1.6-1.3-2.3-2c-0.4-0.4-0.7-0.7-1-1.1
		c-0.3-0.4-0.6-0.8-0.9-1.2l-0.4-0.6c-0.1-0.2-0.3-0.4-0.4-0.7c-0.3-0.4-0.5-0.9-0.7-1.4c-0.3-1-0.4-2-0.3-3L134,78.2
		c-0.2,0.9,0,2,0.4,2.9c0.2,0.5,0.4,0.9,0.7,1.3c0.1,0.2,0.3,0.4,0.4,0.6l0.4,0.6c0.3,0.4,0.6,0.8,0.9,1.2c0.3,0.4,0.7,0.7,1,1.1
		c0.7,0.7,1.5,1.3,2.3,1.8l-0.4,0.3c-0.1-0.5-0.2-1-0.3-1.5c0-0.2-0.1-0.5-0.1-0.7c0-0.2,0-0.5-0.1-0.7c0-0.2-0.2-0.3-0.3-0.5
		l-0.5-0.6l-0.9-1.1C136.3,81.4,135,79.9,134,78.2L134,78.2z"/>
</g>
<g>
	<g>
		<path class="st21" d="M165.3,80.7h-22.1c-2.1,0-3.8,1.8-3.8,4.1v7.9c0,2.2,1.7,4.1,3.8,4.1h22.1c2.1,0,3.8-1.8,3.8-4.1v-7.9
			C169,82.5,167.3,80.7,165.3,80.7z M167.9,91.8c0,2-1.5,3.6-3.3,3.6h-20.8c-1.8,0-3.3-1.6-3.3-3.6v-6.2c0-2,1.5-3.6,3.3-3.6h20.8
			c1.8,0,3.3,1.6,3.3,3.6V91.8z"/>
		<g>
			<path class="st18" d="M165.3,80.7c0,0-5.3,0-13.2,0.1c-2,0-4.1,0-6.4,0.1c-0.6,0-1.1,0-1.7,0c-0.6,0-1.2,0-1.7,0.2
				c-1.1,0.3-2,1.2-2.4,2.4c-0.2,0.6-0.3,1.1-0.2,1.8c0,0.6,0,1.3,0,1.9c0,1.3,0,2.6,0,3.9c0,0.6,0,1.3,0,1.9c0,0.6,0.2,1.2,0.5,1.8
				c0.6,1.1,1.8,1.8,3,1.8c5.3,0,10.6,0,15.5-0.1c2.5,0,4.9,0,7.1,0c1-0.1,1.9-0.8,2.4-1.7c0.3-0.4,0.4-0.9,0.5-1.4
				c0.1-0.5,0.1-1,0.1-1.5c0-2,0.1-3.8,0.1-5.4c0-0.8,0.1-1.6,0-2.2c-0.1-0.7-0.3-1.3-0.6-1.7c-0.6-1-1.5-1.4-2.1-1.6
				c-0.3-0.1-0.5-0.1-0.7-0.1C165.3,80.7,165.3,80.7,165.3,80.7z M165.3,80.7c0,0,0.1,0,0.2,0c0.2,0,0.4,0,0.7,0.1
				c0.6,0.1,1.5,0.6,2.2,1.6c0.3,0.5,0.6,1.1,0.7,1.8c0.1,0.7,0.1,1.5,0.1,2.3c0,1.6,0.1,3.4,0.1,5.4c0,0.5,0,1,0,1.6
				c-0.1,0.5-0.3,1.1-0.5,1.6c-0.6,1-1.6,1.8-2.8,2c-1.2,0.1-2.3,0-3.5,0.1c-1.2,0-2.4,0-3.6,0c-4.9,0-10.2,0-15.5-0.1
				c-1.4,0-2.8-0.9-3.4-2.1c-0.3-0.6-0.5-1.3-0.6-2c0-0.7,0-1.3,0-2c0-1.3,0-2.6,0-3.9c0-0.6,0-1.3,0-1.9c0-0.6,0-1.3,0.3-1.9
				c0.4-1.2,1.4-2.2,2.6-2.6c0.6-0.2,1.2-0.1,1.8-0.2c0.6,0,1.2,0,1.7,0c2.3,0,4.4,0,6.4,0.1C160,80.6,165.3,80.7,165.3,80.7z"/>
			<path class="st18" d="M167.9,91.8c0,0,0,0.1,0,0.2c0,0.1,0,0.4-0.1,0.6c-0.1,0.5-0.4,1.4-1.2,2c-0.4,0.3-0.9,0.6-1.6,0.7
				c-0.6,0.1-1.3,0-2,0c-1.4,0-3.1,0-4.8,0c-3.5,0-7.7,0.1-12.1,0.1c-0.6,0-1.1,0-1.7,0c-0.5,0-1.2,0-1.7-0.2
				c-1.2-0.4-2-1.5-2.3-2.7c-0.2-0.6-0.1-1.2-0.1-1.8l0-1.8c0-1.2,0-2.3,0-3.5c0-1.3,0.6-2.5,1.7-3.3c0.5-0.4,1.2-0.6,1.8-0.6
				c0.6,0,1.2,0,1.8,0c2.3,0,4.6,0,6.8,0c2.2,0,4.3,0,6.4,0c2,0,3.9,0.1,5.7,0.1c0.4,0,0.9,0.1,1.3,0.2c0.4,0.2,0.8,0.4,1.1,0.7
				c0.6,0.6,1,1.3,1.1,2.1c0.1,0.7,0,1.4,0,2c0,0.6,0,1.2,0,1.7C167.9,90.6,167.9,91.8,167.9,91.8z M167.8,91.8c0,0,0-1.2,0-3.2
				c0-0.5,0-1.1,0-1.7c0-0.6,0-1.3-0.1-2c-0.2-0.7-0.5-1.3-1.1-1.9c-0.6-0.5-1.3-0.8-2.2-0.7c-1.8,0-3.7,0.1-5.7,0.1
				c-2,0-4.2,0-6.4,0c-2.2,0-4.5,0-6.8,0c-0.6,0-1.2,0-1.7,0c-0.5,0-1,0.2-1.5,0.5c-0.9,0.6-1.4,1.7-1.4,2.8c0,1.2,0,2.4,0,3.5
				l0,1.8c0,0.6,0,1.2,0.1,1.7c0.2,1.1,1,2,2,2.4c0.5,0.2,1,0.2,1.6,0.2c0.6,0,1.1,0,1.7,0c4.4,0,8.5,0.1,12.1,0.1
				c1.8,0,3.4,0,4.8,0c0.7,0,1.4,0,2,0c0.6-0.1,1.1-0.3,1.5-0.7c0.8-0.6,1.1-1.5,1.2-2c0.1-0.3,0.1-0.5,0.1-0.6
				C167.8,91.9,167.8,91.8,167.8,91.8z"/>
		</g>
	</g>
</g>
<path class="st22" d="M180.9,80.4c-0.8,0.7,2.3,2.5,3.3,2.4c1-0.1,16.3-2.3,16.9-2.3c1.1-0.1,2.6,0,3.6,0.6c3.4,2,7,2.9,10.4,4.9
	c-1.2-1.1-1.4-2.5-2.6-3.6c-2.6-2.2-6.3-3.9-9.1-5.8c-1-0.8-4.4-0.3-4.8-0.4c-0.9-0.3-7.2,1.3-10.8,2.3
	C185.5,79.2,180.9,80.4,180.9,80.4z"/>
<g>
	<path class="st21" d="M217.3,79.8c-2.2,2.1-4.4,4.2-6.7,6.2c-0.1,0.1-0.3,0.3-0.4,0.4c-0.1,0.2-0.1,0.4-0.1,0.6
		c-0.1,0.8-0.2,1.6-0.5,2.4c1.9-1,3.6-2.3,5-3.8c0.4-0.5,0.8-0.9,1.2-1.4c0.2-0.3,0.4-0.5,0.6-0.8C217.2,82.4,217.5,81,217.3,79.8"
		/>
	<path class="st18" d="M217.3,79.9c-0.7,0.8-1.4,1.6-2.2,2.4c-0.7,0.8-1.5,1.5-2.3,2.3l-1.2,1.1l-0.6,0.5c-0.2,0.2-0.4,0.4-0.5,0.5
		c-0.1,0.1-0.1,0.3-0.1,0.6c0,0.3-0.1,0.5-0.1,0.8c-0.1,0.5-0.2,1.1-0.4,1.6l-0.4-0.4c1-0.5,1.9-1.1,2.8-1.7c0.4-0.3,0.9-0.7,1.3-1
		c0.4-0.4,0.8-0.7,1.2-1.1l1.1-1.2l0.5-0.6c0.2-0.2,0.3-0.4,0.4-0.7c0.5-0.9,0.8-2.1,0.6-3.1l0.1,0c0.2,1.1,0,2.3-0.5,3.3
		c-0.1,0.3-0.3,0.5-0.4,0.7l-0.5,0.7l-1,1.3c-0.4,0.4-0.7,0.8-1.1,1.2c-0.4,0.4-0.8,0.8-1.3,1.1c-0.9,0.7-1.8,1.3-2.8,1.9l-0.6,0.4
		l0.2-0.7c0.1-0.5,0.3-1,0.3-1.5c0-0.3,0.1-0.5,0.1-0.8c0-0.2,0-0.6,0.2-0.9c0.2-0.3,0.4-0.5,0.6-0.6l0.6-0.6l1.2-1.1
		c0.8-0.7,1.6-1.4,2.4-2.1C215.6,81.1,216.4,80.5,217.3,79.9L217.3,79.9z"/>
</g>
<g>
	<g>
		<path class="st21" d="M206.6,81h-22.1c-2.1,0-3.8,1.8-3.8,4.1v7.9c0,2.2,1.7,4.1,3.8,4.1h22.1c2.1,0,3.8-1.8,3.8-4.1V85
			C210.4,82.8,208.7,81,206.6,81z M209.3,92.1c0,2-1.5,3.6-3.3,3.6h-20.8c-1.8,0-3.3-1.6-3.3-3.6v-6.2c0-2,1.5-3.6,3.3-3.6H206
			c1.8,0,3.3,1.6,3.3,3.6V92.1z"/>
		<g>
			<path class="st18" d="M206.6,81c0,0-5.3,0-13.2,0.1c-2,0-4.1,0-6.4,0.1c-0.6,0-1.1,0-1.7,0c-0.6,0-1.2,0-1.7,0.2
				c-1.1,0.3-2,1.2-2.4,2.4c-0.2,0.6-0.3,1.1-0.2,1.8c0,0.6,0,1.3,0,1.9c0,1.3,0,2.6,0,3.9c0,0.6,0,1.3,0,1.9c0,0.6,0.2,1.2,0.5,1.8
				c0.6,1.1,1.8,1.8,3,1.8c5.3,0,10.6,0,15.5-0.1c2.5,0,4.9,0,7.1,0c1-0.1,1.9-0.8,2.4-1.7c0.3-0.4,0.4-0.9,0.5-1.4
				c0.1-0.5,0.1-1,0.1-1.5c0-2,0.1-3.8,0.1-5.4c0-0.8,0.1-1.6,0-2.2c-0.1-0.7-0.3-1.3-0.6-1.7c-0.6-1-1.5-1.4-2.1-1.6
				c-0.3-0.1-0.5-0.1-0.7-0.1C206.7,81,206.6,81,206.6,81z M206.6,81c0,0,0.1,0,0.2,0c0.2,0,0.4,0,0.7,0.1c0.6,0.1,1.5,0.6,2.2,1.6
				c0.3,0.5,0.6,1.1,0.7,1.8c0.1,0.7,0.1,1.5,0.1,2.3c0,1.6,0.1,3.4,0.1,5.4c0,0.5,0,1,0,1.6c-0.1,0.5-0.3,1.1-0.5,1.6
				c-0.6,1-1.6,1.8-2.8,2c-1.2,0.1-2.3,0-3.5,0.1c-1.2,0-2.4,0-3.6,0c-4.9,0-10.2,0-15.5-0.1c-1.4,0-2.8-0.9-3.4-2.1
				c-0.3-0.6-0.5-1.3-0.6-2c0-0.7,0-1.3,0-2c0-1.3,0-2.6,0-3.9c0-0.6,0-1.3,0-1.9c0-0.6,0-1.3,0.3-1.9c0.4-1.2,1.4-2.2,2.6-2.6
				c0.6-0.2,1.2-0.1,1.8-0.2c0.6,0,1.2,0,1.7,0c2.3,0,4.4,0,6.4,0.1C201.4,80.9,206.6,81,206.6,81z"/>
			<path class="st18" d="M209.3,92.1c0,0,0,0.1,0,0.2c0,0.1,0,0.4-0.1,0.6c-0.1,0.5-0.4,1.4-1.2,2c-0.4,0.3-0.9,0.6-1.6,0.7
				c-0.6,0.1-1.3,0-2,0c-1.4,0-3.1,0-4.8,0c-3.5,0-7.7,0.1-12.1,0.1c-0.6,0-1.1,0-1.7,0c-0.5,0-1.2,0-1.7-0.2
				c-1.2-0.4-2-1.5-2.3-2.7c-0.2-0.6-0.1-1.2-0.1-1.8l0-1.8c0-1.2,0-2.4,0-3.5c0-1.2,0.6-2.5,1.7-3.2c0.5-0.4,1.2-0.6,1.8-0.6
				c0.6,0,1.2,0,1.8,0c2.3,0,4.6,0,6.8,0c2.2,0,4.3,0,6.4,0c2,0,3.9,0.1,5.7,0.1c0.4,0,0.9,0.1,1.3,0.2c0.4,0.2,0.8,0.4,1.1,0.7
				c0.6,0.6,1,1.3,1.1,2.1c0.1,0.7,0,1.4,0,2c0,0.6,0,1.2,0,1.7C209.3,90.9,209.3,92.1,209.3,92.1z M209.2,92.1c0,0,0-1.2,0-3.2
				c0-0.5,0-1.1,0-1.7c0-0.6,0-1.3-0.1-2c-0.2-0.7-0.5-1.3-1.1-1.9c-0.6-0.5-1.3-0.8-2.2-0.7c-1.8,0-3.7,0.1-5.7,0.1
				c-2,0-4.2,0-6.4,0c-2.2,0-4.5,0-6.8,0c-0.6,0-1.2,0-1.7,0c-0.5,0-1,0.2-1.5,0.5c-0.9,0.6-1.4,1.7-1.4,2.8c0,1.2,0,2.3,0,3.5
				l0,1.8c0,0.6,0,1.2,0.1,1.7c0.2,1.1,1,2,2,2.4c0.5,0.2,1,0.2,1.6,0.2c0.6,0,1.1,0,1.7,0c4.4,0,8.5,0.1,12.1,0.1
				c1.8,0,3.4,0,4.8,0c0.7,0,1.4,0,2,0c0.6-0.1,1.1-0.3,1.5-0.7c0.8-0.6,1.1-1.5,1.2-2c0.1-0.3,0.1-0.5,0.1-0.6
				C209.2,92.2,209.2,92.1,209.2,92.1z"/>
		</g>
	</g>
</g>
<g>
	<path d="M240.1,373.2c0,0,0.1,0.2,0.2,0.5c0.1,0.3,0.4,0.7,0.8,1.1c0.7,0.8,2,1.7,3.4,2.3c0.7,0.3,1.4,0.6,2,0.9
		c0.6,0.3,1.2,0.6,1.7,0.9c1,0.5,1.7,1,1.7,1l0,0.1c0,0-0.8,0-1.9-0.3c-0.6-0.1-1.2-0.4-1.9-0.7c-0.7-0.3-1.3-0.7-2-1.1
		c-1.3-0.8-2.6-1.8-3.3-2.8c-0.3-0.5-0.5-0.9-0.6-1.3C240.1,373.5,240,373.3,240.1,373.2L240.1,373.2z"/>
</g>
<g>
	<path d="M257.3,381.8c0,0,0.3,0.2,0.8,0.4c0.5,0.2,1.1,0.3,1.8,0.3c0.3,0,0.6-0.1,0.9-0.1c0.3,0,0.6,0,0.8,0c0.5,0,0.9,0,0.9,0
		l0,0.1c0,0-0.1,0.1-0.2,0.2c-0.1,0.1-0.3,0.3-0.6,0.4c-0.2,0.1-0.6,0.2-0.9,0.3c-0.4,0-0.7-0.1-1.1-0.1c-0.7-0.2-1.4-0.5-1.8-0.8
		C257.4,382.2,257.2,381.9,257.3,381.8L257.3,381.8z"/>
</g>
<g>
	<path d="M259,372.2c0,0,0.5,0.1,1.3,0.4c0.8,0.2,1.8,0.7,2.8,1c0.5,0.2,1,0.3,1.5,0.4c0.5,0.1,0.9,0.3,1.2,0.4
		c0.7,0.2,1.3,0.4,1.3,0.4l0,0.1c0,0-0.1,0.1-0.4,0.2c-0.2,0.1-0.6,0.2-1,0.2c-0.4,0-0.9,0-1.5-0.2c-0.5-0.2-1-0.4-1.5-0.7
		c-1-0.5-1.9-1.1-2.6-1.5C259.5,372.5,259,372.3,259,372.2L259,372.2z"/>
</g>
<g>
	<path d="M277.5,360.6c0,0,0.4-0.3,1.2-0.1c0.3,0.1,0.7,0.3,1,0.6c0.2,0.2,0.3,0.3,0.5,0.5c0.2,0.2,0.3,0.4,0.4,0.6
		c0.3,0.4,0.5,0.8,0.6,1.3c0.1,0.4,0.1,0.9,0.1,1.2c0,0.4-0.1,0.6-0.2,0.8c-0.1,0.2-0.2,0.3-0.2,0.3l-0.1,0c0,0-0.1-0.5-0.3-1.1
		c-0.1-0.3-0.2-0.6-0.3-1c-0.1-0.4-0.2-0.8-0.3-1.1c-0.1-0.2-0.2-0.4-0.3-0.5c-0.1-0.2-0.2-0.4-0.3-0.5c-0.2-0.3-0.5-0.5-0.8-0.7
		C278,360.6,277.5,360.7,277.5,360.6L277.5,360.6z"/>
</g>
<g>
	<path class="st23" d="M264.7,332.8l3.8-0.9c5-1.2,8.2-6.2,7.1-11.2l-1-4.3c-1.2-5-6.2-8.2-11.2-7.1l-3.8,0.9
		c-5,1.2-8.2,6.2-7.1,11.2l1,4.3C254.6,330.8,259.7,334,264.7,332.8z"/>
	<path class="st24" d="M264.7,332.8c0,0,1.2-0.3,3.2-0.7c1-0.2,2.2-0.5,3.4-1.3c1.2-0.8,2.4-1.9,3.2-3.5c0.9-1.5,1.3-3.5,1.1-5.5
		c-0.1-1-0.4-2-0.6-3c-0.3-1-0.4-2.1-0.8-3.2c-0.7-2.1-2.2-3.9-4.1-5.1c-2-1.2-4.4-1.5-6.7-1c-1.1,0.3-2.3,0.5-3.4,0.8
		c-1.1,0.3-2.2,0.7-3.2,1.3c-1.9,1.2-3.3,3.1-3.9,5.2c-0.3,1-0.4,2.1-0.3,3.1c0.1,1,0.3,2,0.5,3c0.2,1,0.4,1.9,0.6,2.9
		c0.2,0.9,0.6,1.7,1,2.5c0.9,1.5,2.1,2.6,3.3,3.3c1.2,0.7,2.4,1.1,3.5,1.2c1,0.1,1.8,0.1,2.4,0C264.4,332.8,264.7,332.8,264.7,332.8
		z M264.7,332.8c0,0-0.3,0.1-0.8,0.2c-0.5,0.1-1.4,0.2-2.4,0c-1-0.1-2.3-0.4-3.6-1.1c-1.3-0.7-2.6-1.8-3.5-3.3
		c-1-1.5-1.3-3.5-1.8-5.5c-0.2-1-0.5-2-0.6-3.1c-0.1-1.1,0-2.2,0.4-3.3c0.6-2.2,2.1-4.2,4.1-5.5c1-0.6,2.2-1.1,3.3-1.3
		c1.1-0.3,2.3-0.5,3.5-0.8c2.4-0.5,4.9-0.1,6.9,1.1c2.1,1.2,3.6,3.1,4.3,5.3c0.3,1.1,0.5,2.1,0.8,3.2c0.2,1,0.5,2,0.6,3.1
		c0.2,2-0.3,4-1.2,5.6c-0.9,1.6-2.1,2.7-3.3,3.5c-1.2,0.8-2.5,1.1-3.5,1.3C265.8,332.6,264.7,332.8,264.7,332.8z"/>
</g>
</svg>
