<?xml version="1.0" encoding="utf-8"?>
<!-- Generator: Adobe Illustrator 19.0.1, SVG Export Plug-In . SVG Version: 6.00 Build 0)  -->
<svg version="1.1" id="Layer_1" xmlns="http://www.w3.org/2000/svg" xmlns:xlink="http://www.w3.org/1999/xlink" x="0px" y="0px"
	 viewBox="0 0 225 293.8" style="enable-background:new 0 0 225 293.8;" xml:space="preserve">
<style type="text/css">
	.st0{stroke:#FFFFFF;}
	.st1{fill:#FFFFFF;stroke:#000000;}
	.st2{stroke:#FFFFFF;stroke-width:1.0909;}
	.st3{fill:#FFFFFF;}
</style>
<path class="st0" d="M21.8,263.7l-8.9-62h13.9C38.7,243.9,58.9,265,87.5,265c11.7,0,21.5-4,29.3-11.9c7.9-7.9,11.8-17.7,11.8-29.4
	c0-9.4-2.8-18.3-8.5-27c-5.7-8.6-21-20.6-45.9-36c-24.9-15.4-41.1-29.4-48.5-42C18.3,106.1,14.6,92.9,14.6,79
	c0-20.1,6.7-36.6,20.2-49.6C48.3,16.4,65.7,10,86.8,10c12.6,0,24.5,1.9,35.7,5.6c11.2,3.7,17.3,5.6,18.3,5.6c2.7,0,5.3-4.6,7.8-7.8
	h7.5l6.8,67.6l-14.2-2c-4.2-17.6-11.5-25.5-22-35.6C116,33.2,104.1,28.2,90.6,28.2c-10,0-18.2,2.8-24.8,8.5
	c-6.6,5.6-9.9,12.6-9.9,20.9c0,7,2.3,13.9,6.8,20.5c4.5,6.7,19.3,17.8,44.3,33.4c25,15.6,42.6,30.7,52.8,45.5
	c10.2,14.8,15.3,31.4,15.3,49.9c0,21.8-7.3,40.3-22,55.7c-14.7,15.4-32.6,23-53.8,23c-12.8,0-25.8-6.3-39-10.8s-20.4-7.8-21.8-7.8
	c-3.2,0-5.7-2.7-7.5,1.8L21.8,263.7z"/>
<path class="st1" d="M39.9,266.7l-8.9-65h13.9c11.9,42.3,32.2,63.4,60.7,63.4c11.7,0,21.5-4,29.3-11.9c7.9-7.9,11.8-17.7,11.8-29.4
	c0-9.4-2.8-18.3-8.5-27c-5.7-8.6-21-20.6-45.9-36c-24.9-15.4-41.1-29.4-48.5-42C36.4,106.1,32.7,92.9,32.7,79
	c0-20.1,6.7-36.6,20.2-49.6C66.4,16.4,83.8,10,104.9,10c12.6,0,24.5,1.9,35.7,5.6c11.2,3.7,17.3,5.6,18.3,5.6c2.7,0,5.3-1.6,7.8-4.8
	l7.5,2l6.8,66.6l-14.2-3c-4.2-17.6-11.5-28.5-22-38.6c-10.5-10.1-22.5-15.2-35.9-15.2c-10,0-18.2,2.8-24.8,8.5
	c-6.6,5.6-9.9,12.6-9.9,20.9c0,7,2.3,13.9,6.8,20.5c4.5,6.7,19.3,17.8,44.3,33.4c25,15.6,42.6,30.7,52.8,45.5
	c10.2,14.8,15.3,31.4,15.3,49.9c0,21.8-7.3,40.3-22,55.7c-14.7,15.4-32.6,23-53.8,23c-12.8,0-25.8-2.3-39-6.8s-20.4-6.8-21.8-6.8
	c-3.2,0-5.7-5.7-7.5-1.2L39.9,266.7z"/>
<path class="st2" d="M58.6,276.5L50,201.2h13.6c11.7,41.4,31.5,62,59.4,62c11.4,0,21-3.9,28.7-11.6c7.7-7.7,11.5-17.3,11.5-28.8
	c0-9.2-2.8-17.9-8.3-26.4c-5.5-8.4-20.5-20.2-44.9-35.3c-24.4-15.1-40.2-28.8-47.5-41.1c-7.2-12.3-10.9-25.3-10.9-38.9
	c0-19.7,6.6-35.8,19.8-48.5c13.2-12.7,30.1-19,50.9-19c12.3,0,24,1.8,34.9,5.5c10.9,3.6,16.9,5.5,17.9,5.5c2.6,0,5.1-1.5,7.6-4.6
	h7.3l6.6,67.1h-13.9c-4.1-17.2-11.3-30.8-21.6-40.7c-10.3-9.9-22-14.9-35.1-14.9c-9.7,0-17.8,2.8-24.3,8.3
	c-6.5,5.5-9.7,12.3-9.7,20.4c0,6.9,2.2,13.6,6.6,20.1c4.4,6.5,18.8,17.4,43.3,32.6c24.5,15.2,41.7,30.1,51.6,44.6
	c10,14.5,14.9,30.7,14.9,48.8c0,21.3-7.2,39.4-21.6,54.5c-14.4,15-31.9,22.5-52.6,22.5c-12.6,0-25.3-2.2-38.1-6.7
	s-19.9-6.7-21.3-6.7c-3.2,0-5.6,2.2-7.3,6.7H58.6z"/>
<g>
	<path d="M21.1,267.5l-7.7-65.4c1.1,0,3.8,0,7.2,0c9.3,0,21.8-0.1,28.9-0.5l9,74.4L21.1,267.5z"/>
	<path class="st3" d="M49.1,202.2l8.9,73.2l-36.4-8.3L14,202.6c1.3,0,3.7,0,6.6,0C29.8,202.7,41.9,202.6,49.1,202.2 M50,201.2
		c-7.2,0.4-20.8,0.5-29.3,0.5c-4.6,0-7.7,0-7.7,0l7.8,66.3l38.5,8.8L50,201.2L50,201.2z"/>
</g>
<g>
	<path class="st3" d="M149.1,80.5c-0.5-2.4-4-16.9-12.9-28.3c-10.9-12-19.4-17.3-22.3-18.9c1.9-0.6,6.3-1.9,12.3-1.9
		c6.9,0,13.9,1.6,20.7,4.8c13.7,6.4,24.8,18,29.6,31.1l5.6,19L149.1,80.5z"/>
	<path class="st3" d="M126.1,32.1c6.9,0,13.8,1.6,20.5,4.7c13.6,6.3,24.5,17.8,29.4,30.8l5.4,18.2l-31.9-5.6
		c-0.7-3.2-4.2-17-12.9-28.1l0,0l0,0c-10-11-17.8-16.3-21.4-18.4C117.3,32.9,121.2,32.1,126.1,32.1 M126.1,31.1
		c-8.3,0-13.5,2.3-13.5,2.3s9.6,4.4,23.1,19.2C145.5,65,148.6,81,148.6,81l34.1,6l-5.9-19.8C171.8,53.6,160.2,42,147,35.9
		C139.1,32.2,131.9,31.1,126.1,31.1L126.1,31.1z"/>
</g>
<polygon class="st0" points="190.1,19.9 156.1,13.4 148.6,13.4 182.8,19.9 "/>
<path class="st0" d="M148.6,13.4l34.1,6.5c0,0-3.2,4.7-7.6,4.6c-4.5-0.1-14.5-5.6-28.7-9.4L148.6,13.4z"/>
</svg>
