<?xml version="1.0" encoding="utf-8"?>
<!-- Generator: Adobe Illustrator 19.0.1, SVG Export Plug-In . SVG Version: 6.00 Build 0)  -->
<svg version="1.1" id="Layer_1" xmlns="http://www.w3.org/2000/svg" xmlns:xlink="http://www.w3.org/1999/xlink" x="0px" y="0px"
	 viewBox="0 0 360 504" style="enable-background:new 0 0 360 504;" xml:space="preserve">
<style type="text/css">
	.st0{fill:#041023;}
	.st1{fill:#D6AA7F;}
	.st2{fill:#B78355;}
	.st3{fill:#EDEDED;}
	.st4{fill:#231F20;}
	.st5{fill:#00A1A5;stroke:#231F20;stroke-width:2;stroke-miterlimit:10;}
	.st6{fill:#E85BB9;}
	.st7{fill:#9B9B9B;}
	.st8{fill:none;stroke:#231F20;stroke-miterlimit:10;}
	.st9{fill:#AF3A8E;}
	.st10{fill:#00A1A5;}
	.st11{fill:#00595B;}
	.st12{fill:#8E8E8E;}
	.st13{fill:#C1C1C1;}
	.st14{fill:#FFFFFF;}
	.st15{fill:#0090E8;}
	.st16{fill:#0D6A10;}
</style>
<path class="st0" d="M147.2,91c-6.6,10.6-9.5,23.6-7.9,36.1c0.9,7.2,3.2,14.3,2.1,21.5c-0.7,4.4-2.5,8.4-4.5,12.4
	c1-0.2,1.9-0.9,2.3-1.8c0.7,8.2,3.1,16.2,6.9,23.5c0-1,0-2,0-2.9c1.7,0.9,2.9,2.8,2.9,4.8c1.8,0.5,3.5-0.9,4.8-2.1
	c1.7-1.6,3.4-3.1,5.1-4.7c1.2-1.1,2.4-2.2,4-2.7s3.5,0,4.2,1.4c0.1-4.1,1.5-8.2,0.8-12.2c-0.4-2-1.3-3.9-2.2-5.7
	c-1.3-2.4-2.7-4.8-4.2-7.1c-1.4-2.1-2.9-4.2-3.8-6.6c-1.2-3.2-1.2-6.6-1.2-10c0-8.2,0-16.4,0-24.6c0-3.6,0-7.3-1.1-10.8
	s-3.4-6.7-6.7-8"/>
<g>
	<path class="st1" d="M168.3,157.1c-0.7,10.7-8,20.7-17.9,24.6c-1.5,0.6-3.1,1.1-4.2,2.2c-0.7,0.7-1.1,1.6-1.5,2.5
		c-2,4.2-4.1,8.5-6.1,12.7c-1.4,2.8-2.7,5.7-3.3,8.8c-2.3,11.6,7.6,22.9,19,25.8c11.4,2.8,23.5-1,33.9-6.6
		c8.9-4.8,17.2-11.1,22.9-19.4c5.7-8.3,8.7-18.9,6.5-28.7c-0.7-3.3-2.2-6.7-5.1-8.4c-2.9-1.7-7.4-1.9-8.5-5.1
		c-0.4-1.3-0.1-2.6,0.1-4c1.1-5.1,2.2-10.2,3.4-15.3c-4.4-0.3-8.9-0.6-13.1,0.7c-3.7,1.1-7,3.4-10.8,4.4c-5.5,1.5-12.6,0.8-15.7,5.6
		"/>
	<path d="M168.3,157.1c-0.7,9.8-6.7,19-15.4,23.6c-0.5,0.3-1.1,0.6-1.7,0.8c-0.6,0.3-1.1,0.5-1.7,0.7c-1.1,0.4-2.3,0.9-3.1,1.7
		c-0.9,0.8-1.3,2-1.9,3.1l-1.6,3.3l-3.1,6.6c-1,2.2-2.1,4.4-3,6.6c-0.4,1.1-0.8,2.3-1.1,3.4c-0.2,0.6-0.3,1.2-0.3,1.8
		c-0.1,0.6-0.2,1.2-0.2,1.8c-0.1,2.4,0.3,4.8,1.1,7.1s2,4.4,3.5,6.3c1.5,1.9,3.3,3.6,5.2,5c3.9,2.9,8.5,4.6,13.3,5.2
		c4.8,0.5,9.7,0,14.4-1.2s9.2-3.1,13.5-5.3s8.5-4.8,12.3-7.7c3.8-3,7.4-6.3,10.3-10.1c3-3.8,5.3-8.1,6.9-12.7
		c1.5-4.6,2.3-9.4,1.8-14.2c-0.2-2.4-0.6-4.8-1.5-7s-2.3-4.2-4.4-5.2c-1-0.5-2.2-0.9-3.3-1.3c-1.1-0.4-2.4-0.9-3.4-1.7
		s-1.7-2.2-1.7-3.6c0-1.3,0.4-2.5,0.6-3.7l3.2-14.3l0.3,0.4c-3.5-0.2-7-0.5-10.4,0.1c-1.7,0.3-3.4,0.8-5,1.4
		c-1.6,0.7-3.2,1.5-4.8,2.2c-0.8,0.4-1.6,0.7-2.5,1c-0.8,0.3-1.7,0.5-2.6,0.7c-1.7,0.3-3.5,0.5-5.2,0.8c-0.9,0.1-1.7,0.3-2.6,0.5
		c-0.9,0.2-1.7,0.4-2.5,0.7s-1.6,0.7-2.3,1.2s-1.3,1.2-1.8,1.9l-0.1-0.1c0.5-0.7,1.1-1.4,1.8-1.9c0.7-0.6,1.5-1,2.3-1.3
		s1.7-0.6,2.5-0.8c0.9-0.2,1.7-0.4,2.6-0.5c1.7-0.3,3.5-0.5,5.2-0.9c0.9-0.2,1.7-0.4,2.5-0.7s1.6-0.6,2.4-1c1.6-0.7,3.1-1.5,4.8-2.2
		c1.6-0.7,3.3-1.2,5.1-1.5c3.5-0.6,7.1-0.4,10.6-0.2h0.4l-0.1,0.4l-3.1,14.3c-0.2,1.2-0.6,2.4-0.5,3.5c0,1.1,0.5,2.1,1.4,2.8
		s2,1.1,3.1,1.5s2.3,0.8,3.5,1.4c1.1,0.6,2.2,1.4,3,2.4s1.4,2.1,1.9,3.3c0.9,2.3,1.4,4.8,1.6,7.3c0.4,4.9-0.3,9.9-1.9,14.6
		c-1.6,4.7-4,9-7.1,12.9c-3,3.9-6.7,7.3-10.6,10.2c-3.9,3-8.1,5.5-12.5,7.8c-4.4,2.2-8.9,4.1-13.7,5.3s-9.7,1.7-14.6,1.1
		c-4.9-0.5-9.7-2.3-13.6-5.3c-2-1.5-3.8-3.2-5.3-5.1c-1.5-2-2.7-4.1-3.6-6.5c-0.8-2.3-1.3-4.8-1.1-7.3c0-0.6,0.1-1.2,0.2-1.8
		c0.1-0.6,0.2-1.2,0.3-1.8c0.3-1.2,0.7-2.4,1.2-3.5c0.9-2.3,2-4.4,3.1-6.6l3.2-6.6l1.6-3.3c0.5-1.1,1-2.3,1.9-3.1
		c0.9-0.9,2.1-1.3,3.2-1.8c0.6-0.2,1.1-0.4,1.7-0.7c0.6-0.2,1.1-0.5,1.6-0.8C161.5,175.9,167.5,166.8,168.3,157.1L168.3,157.1z"/>
</g>
<g>
	<path class="st2" d="M171.6,189.7c0,0,0.4,0,1.2,0.1s1.9,0.1,3.2,0.1s2.8,0,4.4-0.2c0.8-0.1,1.6-0.3,2.4-0.5
		c0.8-0.2,1.6-0.5,2.4-0.9c0.7-0.4,1.5-0.8,2.1-1.4c0.6-0.5,1.2-1.1,1.8-1.7c0.6-0.6,1.1-1.2,1.7-1.7c0.6-0.5,1.2-0.9,1.8-1.3
		c1.2-0.7,2.4-0.8,3.2-0.8c0.4,0,0.7,0.1,0.9,0.2c0.2,0.1,0.3,0.1,0.3,0.1s-0.1,0-0.3-0.1c-0.2,0-0.5-0.1-0.9,0
		c-0.8,0-1.8,0.4-2.9,1c-0.5,0.3-1.1,0.8-1.6,1.3s-1,1.1-1.6,1.8c-0.6,0.6-1.1,1.3-1.8,1.9c-0.7,0.6-1.5,1.1-2.3,1.5
		s-1.7,0.7-2.6,0.9c-0.9,0.2-1.7,0.3-2.6,0.4c-0.8,0.1-1.7,0.1-2.4,0c-0.8,0-1.5-0.1-2.1-0.2c-1.3-0.1-2.4-0.4-3.2-0.5
		C172,189.8,171.6,189.7,171.6,189.7z"/>
</g>
<g>
	<path class="st3" d="M149.7,179.1c-1.7,0.6-3,2.1-4.1,3.6c-16.4,21.4-25.8,48.2-26.4,75.2c-0.1,3.3,0,6.7,1.3,9.7
		c1.1,2.5,3,4.5,4.2,7c0.7,1.5,1.2,3,1.6,4.6c2.1,7.7,7.4,16.2,4.4,23.5c-6.7,16-10.3,30.8-10.9,47c0,1.1-0.1,2.2,0.5,3.2
		c0.6,1.1,1.9,1.8,3.1,2.3c6.9,2.9,14.5,4.1,22,3.5c1.1-0.1,2.2-0.2,3.2,0.2c1,0.4,1.7,1.2,2.4,1.9c8.2,8.2,20.9,9.3,32.5,9
		s23.7-1.6,34.2,3.2c1.1,0.5,2.2,1.1,3.4,1c3.1-0.2,4.1-4.2,4.3-7.4c0.5-8,0.9-15.9,1.4-23.9c0.9-15.3,1.8-30.6,2.3-45.9
		c0.5-15.1,0.5-30.4-3.1-45.1c-6.2-25.3,0.4-51.2,0.9-77.3c0-2.2,0.1-4.4-0.7-6.5s-2.5-3.9-4.7-4.1c-0.6,4.6-1.2,9.2-1.9,13.8
		c-1.4,10.1-2.9,20.6-8.5,29.2c-1.6,2.4-3.4,4.5-5.4,6.6c-4.7,4.8-10.2,8.9-16.1,12.1c-3.1,1.6-6.3,3-9.5,4.3c-2.5,1-5.1,2-7.8,2.5
		c-7.7,1.7-16,0.3-22.6-3.8c-1.6-1-3-2.1-4.3-3.4c-1.3-1.4-2.3-3.1-3.1-4.9c-2.2-4.8-3.2-10.2-2.8-15.4c0.8-9.6,6-18.2,11-26.3"/>
	<path class="st4" d="M149.7,179.1c-1.2,0.5-2.3,1.4-3.1,2.4c-0.9,1-1.6,2.1-2.4,3.2c-1.6,2.1-3,4.3-4.5,6.5
		c-2.8,4.5-5.4,9.1-7.7,13.8c-4.5,9.5-7.9,19.6-10,29.9c-0.6,2.6-1,5.2-1.4,7.8c-0.3,2.6-0.7,5.2-0.8,7.9c-0.3,2.6-0.3,5.3-0.4,7.9
		c0,2.6,0,5.3,0.8,7.8s2.5,4.5,3.9,6.8c0.7,1.1,1.3,2.4,1.7,3.6c0.4,1.3,0.8,2.6,1.1,3.8c1.6,5,4,9.8,4.8,15.1
		c0.4,2.6,0.1,5.5-1,7.9c-1,2.4-2,4.9-2.8,7.4c-1.8,5-3.3,10-4.5,15.1s-2.1,10.3-2.6,15.6c-0.3,2.6-0.4,5.2-0.6,7.9
		c-0.1,1.3-0.1,2.6,0.6,3.6s1.9,1.5,3.1,2c4.8,2,10,3.2,15.3,3.4c1.3,0.1,2.6,0.1,3.9,0c1.3,0,2.6-0.2,4-0.2c0.7,0,1.4,0.1,2.1,0.5
		c0.6,0.3,1.2,0.8,1.6,1.3c0.9,0.9,1.9,1.8,2.9,2.6c4.1,3.2,9.2,5,14.3,5.9c5.2,0.9,10.4,1.1,15.7,0.9s10.5-0.5,15.8-0.4
		s10.7,0.7,15.7,2.6c1.2,0.4,2.5,1,3.7,1.5c0.6,0.2,1.2,0.4,1.8,0.5c0.6,0,1.2-0.1,1.6-0.4c1-0.6,1.6-1.8,2-2.9
		c0.4-1.2,0.6-2.5,0.6-3.8l0.9-15.8l1.8-31.6c0.5-10.5,1-21.1,1.2-31.6c0.1-10.5-0.3-21.1-2.4-31.4c-0.5-2.6-1.2-5.1-1.7-7.7
		c-0.5-2.6-0.9-5.2-1.2-7.9c-0.6-5.3-0.7-10.6-0.6-15.9c0.2-10.6,1.5-21.1,2.4-31.6c0.5-5.3,0.9-10.5,1.1-15.8
		c0-2.6,0.3-5.3-0.2-7.8c-0.3-1.3-0.8-2.4-1.6-3.4c-0.8-0.9-1.9-1.6-3.2-1.8l0.4-0.3l-1.4,10.6c-0.5,3.5-0.9,7.1-1.5,10.6
		s-1.3,7.1-2.3,10.5s-2.4,6.8-4.3,9.9c-1.8,3.1-4.2,5.9-6.7,8.4s-5.3,4.9-8.2,7s-6,4-9.2,5.6s-6.5,3-9.9,4.3s-6.9,2.2-10.5,2.4
		s-7.2-0.2-10.7-1.2s-6.7-2.6-9.6-4.8c-1.4-1.1-2.7-2.4-3.7-3.9s-1.8-3.1-2.4-4.8c-1.3-3.3-2-6.9-2.1-10.5s0.5-7.2,1.5-10.6
		c2.1-6.9,5.9-13,9.7-19.1c-3.7,6.1-7.5,12.3-9.6,19.1c-1,3.4-1.6,7-1.5,10.5c0.1,3.6,0.8,7.1,2.2,10.4c1.3,3.3,3.2,6.5,6.1,8.6
		c2.8,2.1,6.1,3.7,9.5,4.6c3.4,1,7,1.4,10.5,1.1c1.8-0.1,3.5-0.4,5.2-0.8c1.7-0.4,3.4-1,5.1-1.6c3.3-1.3,6.6-2.7,9.8-4.3
		s6.2-3.5,9.1-5.6c2.9-2.1,5.6-4.4,8.1-6.9s4.8-5.2,6.6-8.3s3.2-6.4,4.2-9.8c1-3.4,1.7-6.9,2.3-10.4s1-7.1,1.5-10.6l1.4-10.6v-0.3
		h0.3c1.4,0.1,2.7,0.9,3.6,2c0.9,1,1.5,2.4,1.8,3.7s0.3,2.7,0.3,4s0,2.6-0.1,4c-0.2,5.3-0.6,10.6-1,15.8c-0.9,10.5-2.1,21-2.3,31.5
		c-0.1,5.3,0.1,10.5,0.6,15.8c0.3,2.6,0.7,5.2,1.2,7.8s1.2,5.1,1.7,7.7c2.1,10.4,2.5,21,2.4,31.6c-0.1,10.6-0.6,21.1-1.1,31.7
		c-0.5,10.5-1.2,21.1-1.8,31.6l-0.9,15.8c-0.1,1.3-0.3,2.7-0.7,4s-1.1,2.6-2.4,3.4c-0.7,0.4-1.4,0.6-2.2,0.5c-0.7,0-1.4-0.3-2.1-0.5
		c-1.2-0.6-2.4-1.1-3.6-1.5c-4.9-1.8-10.2-2.4-15.4-2.5c-5.3-0.1-10.5,0.2-15.8,0.3c-5.3,0.1-10.6,0-15.9-0.9
		c-5.2-0.9-10.4-2.8-14.7-6.1c-1.1-0.8-2.1-1.7-3-2.7c-0.5-0.5-0.9-0.9-1.5-1.2c-0.5-0.3-1.1-0.4-1.7-0.4c-1.3,0-2.6,0.2-3.9,0.2
		c-1.3,0-2.7,0-4-0.1c-5.3-0.3-10.6-1.5-15.5-3.5c-1.2-0.5-2.5-1.1-3.4-2.3c-0.4-0.6-0.6-1.3-0.7-2s0-1.4,0-2
		c0.1-2.6,0.3-5.3,0.6-7.9c0.5-5.3,1.5-10.5,2.7-15.6s2.8-10.2,4.6-15.2c0.9-2.5,1.9-5,2.9-7.4c1.1-2.4,1.3-5,1-7.6
		c-0.7-5.2-3.2-10-4.7-15c-0.8-2.6-1.3-5.1-2.8-7.3c-1.4-2.2-3.1-4.3-3.9-6.9s-0.9-5.3-0.8-7.9s0.2-5.3,0.4-7.9
		c0.2-2.6,0.6-5.3,0.9-7.9c0.4-2.6,0.8-5.2,1.4-7.8c2.2-10.3,5.6-20.4,10.2-29.9c2.3-4.7,4.9-9.4,7.8-13.8c1.5-2.2,2.9-4.4,4.5-6.5
		c0.8-1.1,1.5-2.1,2.4-3.1C147.4,180.5,148.4,179.6,149.7,179.1z"/>
</g>
<g>
	<path class="st2" d="M167.7,233.4c0,0-0.1-0.2-0.2-0.5c-0.1-0.3-0.3-0.9-0.5-1.5s-0.3-1.4-0.4-2.2c-0.1-0.8-0.1-1.7-0.1-2.6
		c0-0.4,0.1-0.9,0.1-1.3c0-0.4,0.1-0.9,0.2-1.3c0.2-0.8,0.4-1.5,0.6-2.2c0.2-0.6,0.5-1.1,0.6-1.5c0.2-0.3,0.3-0.5,0.3-0.5
		s-0.1,0.9-0.4,2.1c-0.2,1.3-0.4,2.9-0.5,4.6c0,0.8,0,1.7,0,2.5s0.1,1.5,0.1,2.2C167.6,232.6,167.7,233.4,167.7,233.4z"/>
</g>
<path class="st5" d="M128.6,356.8c-3.9-2.2-7.6-4.8-11-7.8c-6.2,5.9-10.6,13.5-12.7,21.7c3.9,0.6,8.1-0.1,11.8-1.5
	c1.6-0.6,3.2-1.4,4.5-2.5c2.9-2.6,4-6.8,6.7-9.6"/>
<g>
	<path class="st6" d="M150.4,176.1c-5.3,2-10.6,3.9-16,5.9c-3.9,1.4-7.9,2.9-10.7,5.9c-2.2,2.4-3.5,5.6-4.5,8.7
		c-1.5,4.4-2.7,8.9-3.9,13.4c-7.1,27.2-13.2,54.6-18.4,82.3c4.5-1.9,9.5-2.2,14.2-1c0.8,0.2,1.7,0.5,2.3,1.2c1,1.3,0.3,3.3-0.4,4.8
		c-2.7,5.7-4.4,12.1-2.8,18.2c1.7,6.6,6.9,11.6,11.9,16.3c3.6-10,7.1-19.9,10.7-29.9c1.1-3.1,2.2-6.7,0.7-9.7
		c-0.7-1.3-1.9-2.6-1.6-4.1c0.2-1.2,1.4-1.9,2-2.9c1.4-2.4-1.1-6-3.9-5.4c1.9-4.2-1.9-8.7-4.3-12.6c-6.7-11-3.7-25-0.3-37.4
		c3.1-11.4,6.3-22.9,12.1-33.1c4.7-8.2,11-15.5,18.5-21.3c-3.3-0.3-6.6-0.2-9.9,0.3"/>
	<path class="st4" d="M150.4,176.1l-16,6.2c-2.7,1-5.3,2.1-7.6,3.7c-1.2,0.8-2.2,1.7-3.1,2.8s-1.6,2.3-2.2,3.5c-1.2,2.5-2,5.3-2.8,8
		s-1.5,5.5-2.2,8.3c-1.4,5.6-2.8,11.1-4.1,16.7c-2.7,11.1-5.2,22.3-7.6,33.5c-2.4,11.2-4.7,22.4-6.8,33.7l-1.4-1.1
		c2.5-1,5.1-1.6,7.8-1.8c1.3-0.1,2.7,0,4,0.1c1.3,0.2,2.6,0.4,4,0.9c0.7,0.2,1.5,0.7,2,1.4c0.5,0.7,0.6,1.7,0.6,2.5
		c-0.2,1.5-0.9,2.8-1.4,3.9c-1,2.3-1.9,4.6-2.4,7.1c-0.5,2.4-0.8,4.9-0.5,7.3c0.1,0.6,0.1,1.2,0.3,1.8l0.1,0.4c0,0.1,0,0.2,0,0.2
		l0.1,0.2l0.3,0.9c0.4,1.1,0.9,2.3,1.5,3.3c2.4,4.4,6.1,7.9,9.8,11.4l-1.3,0.3l9.8-27.2c0.8-2.3,1.7-4.5,2.2-6.8
		c0.2-1.1,0.3-2.3,0.1-3.4c-0.1-0.5-0.3-1.1-0.5-1.5c-0.2-0.5-0.6-1-0.9-1.5c-0.3-0.5-0.6-1.1-0.8-1.9c-0.2-0.7,0-1.6,0.4-2.2
		s0.8-1.1,1.2-1.5c0.2-0.2,0.4-0.5,0.5-0.6l0.2-0.4c0.1-0.1,0.1-0.2,0.1-0.3c0.2-0.9-0.2-2-0.8-2.8c-0.7-0.8-1.7-1.2-2.6-1.1
		l-1.2,0.2l0.5-1.1c0.9-2,0.3-4.4-0.8-6.5c-1.1-2.1-2.5-4-3.8-6.2l-0.9-1.6l-0.7-1.7c-0.3-0.6-0.4-1.2-0.6-1.7
		c-0.2-0.6-0.4-1.2-0.5-1.8c-0.6-2.4-0.9-4.8-1-7.3s0.1-4.9,0.4-7.3c0.3-2.4,0.7-4.8,1.2-7.2c1-4.8,2.4-9.4,3.7-14.1
		c2.6-9.3,5.7-18.6,10.5-27.1c2.4-4.2,5.2-8.2,8.4-11.9s6.7-7,10.6-10l0.1,0.3c-3.3-0.3-6.6-0.2-9.9,0.3v-0.2
		c3.3-0.5,6.6-0.7,9.9-0.4h0.4l-0.3,0.2c-3.8,3-7.3,6.3-10.4,10c-3.1,3.7-5.9,7.7-8.2,11.9c-4.7,8.5-7.6,17.7-10.2,27.1
		c-1.3,4.7-2.6,9.3-3.5,14.1c-0.5,2.4-0.9,4.7-1.2,7.1c-0.3,2.4-0.4,4.8-0.3,7.2s0.4,4.8,1,7.1c0.1,0.6,0.3,1.1,0.5,1.7
		s0.3,1.1,0.6,1.7l0.7,1.6l0.9,1.6c1.2,2,2.7,4,3.8,6.2c0.6,1.1,1.1,2.3,1.3,3.6c0.2,1.3,0.1,2.7-0.4,3.9l-0.7-0.8
		c1.5-0.3,2.9,0.4,3.8,1.4c0.9,1,1.4,2.4,1.1,3.9c-0.1,0.2-0.1,0.4-0.2,0.6l-0.2,0.4c-0.2,0.4-0.4,0.6-0.6,0.9
		c-0.4,0.5-0.8,0.9-1.1,1.3c-0.5,0.8-0.2,1.7,0.4,2.8c0.3,0.5,0.7,1,0.9,1.6c0.3,0.6,0.5,1.2,0.6,1.9c0.2,1.3,0.2,2.6-0.1,3.8
		c-0.2,1.2-0.6,2.4-1,3.6l-1.2,3.4l-9.7,27.3l-0.4,1.1l-0.9-0.8c-1.9-1.7-3.8-3.5-5.5-5.4c-1.8-1.9-3.4-4-4.7-6.3
		c-0.6-1.2-1.2-2.4-1.6-3.7l-0.3-0.9l-0.1-0.2c0-0.1,0-0.2-0.1-0.3l-0.1-0.5c-0.2-0.7-0.2-1.3-0.3-2c-0.3-2.7-0.1-5.3,0.5-7.9
		s1.4-5.1,2.5-7.4c0.5-1.2,1.1-2.3,1.2-3.3s-0.3-1.6-1.3-1.9c-1.1-0.3-2.3-0.6-3.5-0.7s-2.4-0.2-3.7-0.1c-2.4,0.1-4.9,0.7-7.1,1.6
		l-1.7,0.7L96,292c2.1-11.3,4.4-22.5,6.8-33.7c1.2-5.6,2.5-11.2,3.8-16.8s2.7-11.1,4.1-16.7c1.4-5.6,2.8-11.1,4.4-16.6
		c0.8-2.8,1.5-5.5,2.4-8.3c0.9-2.7,1.7-5.5,3-8.1c0.7-1.3,1.4-2.6,2.4-3.7c1-1.1,2.1-2.1,3.3-2.9c2.5-1.6,5.2-2.6,7.9-3.5l16.2-5.7
		L150.4,176.1z"/>
</g>
<g>
	<path class="st6" d="M221.3,163.2c6.9,3.3,13.7,6.8,20.4,10.5c3.8,2.1,7.5,4.2,10.9,6.9c10.6,8.4,16.6,21.3,20.6,34.2
		s6.4,26.3,11.7,38.8c1.6,3.7,3.4,7.3,4.8,11.1c1.4,3.6,2.4,7.3,3.5,11.1c1.4,4.8,2.7,9.6,4.1,14.4c1.5,5.2,2.9,10.5,2.7,15.9
		c-0.2,5.4-4.5,6.6-6.8,14c-6.9-9.8-14.5-12.3-25.8-17.5c3.7-1.3,1.6-6.3,1.5-10.2c-0.1-3.9-1.8-7.6-3.4-11.2
		c-3.6-7.6-7.1-15.3-10.7-22.9c-2.1-4.4-4.4-9.2-8.6-11.7c2.3,10.6-0.3,21.6-2.1,32.3c-1.9,11.2-2.9,22.6-1.9,33.9
		c0.7,7.1,2.1,14.1,3.3,21.2c3.3,19.3,4.7,38.9,4.2,58.5c0,1-0.1,2-0.6,2.8c-1.3,2.1-4.3,1.6-6.7,2.1c-3.2,0.6-5.8,3-8.4,4.9
		c-2.7,1.9-6.3,3.3-9.1,1.7c-1.8-11.5-3.5-23-5.3-34.4c-1.2-7.8-2.4-15.7-2.3-23.6c0.1-5.6,0.8-11.3,1.3-16.9
		c0.9-9.4,1.2-18.9,1.5-28.3c0.4-13.9,0.9-27.8,1.3-41.7c0.3-9.2,0.6-18.4-0.3-27.5c-0.6-7-2-14-1.7-21c0.3-8.1,2.5-15.9,3.6-23.9
		s0.9-16.6-3.4-23.5"/>
	<path class="st4" d="M221.3,163.1c7.1,3.3,14,6.9,20.9,10.6c3.4,1.9,6.9,3.8,10,6.2s6,5.2,8.4,8.3c4.9,6.2,8.4,13.3,11.1,20.7
		s4.6,15,6.7,22.5c2,7.5,4.2,15,7.2,22.2c1.5,3.6,3.3,7.1,4.8,10.7c1.5,3.7,2.5,7.5,3.6,11.2l3.2,11.3c1.1,3.8,2.2,7.5,3,11.4
		c0.4,2,0.6,3.9,0.7,6c0,0.5,0,1,0,1.5c0,0.6-0.1,1-0.1,1.5c-0.2,1.2-0.5,2.2-1,3.1c-1,1.9-2.3,3.3-3.3,4.9s-1.8,3.3-2.4,5.1
		l-0.6,1.9l-1.2-1.6l-1.2-1.5c-0.4-0.5-0.8-1-1.2-1.5c-0.4-0.5-0.9-0.9-1.3-1.4s-0.9-0.9-1.4-1.3s-1-0.8-1.4-1.3l-1.5-1.2
		c-1-0.7-2.1-1.5-3.2-2.1c-2.2-1.3-4.6-2.4-7-3.5l-7.2-3.3l-2.3-1l2.4-0.8c1-0.3,1.4-1,1.5-2.2c0.1-1.1-0.1-2.4-0.3-3.7
		c-0.1-0.6-0.2-1.3-0.3-2c-0.1-0.7-0.1-1.4-0.1-2c-0.1-1.2-0.3-2.4-0.7-3.6c-0.7-2.4-1.8-4.8-2.9-7.1l-3.3-7.1l-6.7-14.3
		c-1.1-2.4-2.2-4.7-3.5-6.9c-1.3-2.1-3-4.1-5.1-5.3l1.4-1c0.8,3.7,1,7.5,0.9,11.2c-0.1,3.7-0.6,7.4-1.2,11.1
		c-0.6,3.7-1.3,7.3-1.9,10.9c-0.6,3.6-1.1,7.2-1.5,10.9c-0.8,7.3-1,14.6-0.4,21.9s2.1,14.5,3.4,21.8c1.2,7.3,2.2,14.6,2.9,21.9
		s1.1,14.7,1.2,22.1c0.1,3.7,0.1,7.4,0,11.1l-0.1,2.8c0,0.9,0,1.9-0.3,2.9c-0.1,0.3-0.2,0.5-0.4,0.8c-0.1,0.2-0.3,0.4-0.5,0.6
		c-0.4,0.4-0.9,0.7-1.4,0.9c-1,0.4-2,0.5-2.9,0.6s-1.8,0.1-2.7,0.3c-0.8,0.2-1.6,0.5-2.4,0.9c-1.6,0.8-3,2-4.5,3.1s-3.1,2.2-5,2.8
		c-1.8,0.6-4,0.7-5.8-0.3l-0.3-0.1v-0.3l-4.6-30c-0.7-5-1.6-10-2.2-15c-0.6-5-1-10.1-0.8-15.2s0.8-10.1,1.3-15.1s0.8-10.1,1-15.1
		c0.4-10.1,0.7-20.2,1.1-30.3l1-30.3c0.1-5,0.2-10.1,0-15.1c-0.1-2.5-0.3-5-0.5-7.5c-0.3-2.5-0.6-5-0.9-7.5c-0.6-5-1-10.1-0.5-15.2
		c0.5-5.1,1.5-10,2.5-15s1.7-10,1.6-15c-0.1-2.5-0.4-5-1-7.5c-0.6-2.4-1.6-4.8-2.9-6.9l0.2-0.1c1.3,2.2,2.3,4.5,2.9,7
		c0.6,2.5,0.9,5,1,7.5c0.2,5.1-0.6,10.1-1.5,15.1s-2,9.9-2.4,14.9c-0.5,5,0,10.1,0.6,15.1c0.3,2.5,0.6,5,0.9,7.5
		c0.3,2.5,0.4,5,0.6,7.6c0.2,5.1,0.2,10.1,0.1,15.2l-0.9,30.3c-0.3,10.1-0.6,20.2-1,30.3c-0.2,5.1-0.5,10.1-0.9,15.1
		s-1.1,10.1-1.2,15.1c-0.4,10.1,1.5,20,3,30l4.7,30l-0.3-0.4c1.4,0.8,3.2,0.7,4.9,0.2c1.7-0.6,3.2-1.5,4.6-2.6
		c1.5-1.1,2.9-2.3,4.6-3.2c0.8-0.5,1.8-0.8,2.7-1c1-0.2,1.9-0.2,2.8-0.3c0.9-0.1,1.8-0.2,2.5-0.5c0.4-0.1,0.7-0.4,0.9-0.6
		c0.1-0.1,0.2-0.3,0.4-0.5c0-0.1,0.2-0.3,0.2-0.5c0.2-0.7,0.2-1.6,0.3-2.5l0.1-2.8c0.1-3.7,0.1-7.3,0-11c-0.2-7.3-0.6-14.7-1.3-22
		s-1.7-14.6-2.9-21.8c-1.2-7.2-2.8-14.5-3.5-21.9s-0.5-14.8,0.3-22.2c0.4-3.7,0.9-7.4,1.5-11c0.6-3.7,1.3-7.3,1.9-10.9
		c0.6-3.6,1-7.2,1.1-10.9c0.1-3.6-0.1-7.2-0.9-10.7l-0.4-2.1l1.9,1.1c2.4,1.5,4.3,3.6,5.7,5.9c1.5,2.3,2.6,4.7,3.7,7.1l6.7,14.3
		l3.3,7.1c1.1,2.4,2.3,4.8,3,7.4c0.4,1.3,0.6,2.7,0.7,4.1c0,0.7,0,1.3,0.1,1.9s0.2,1.3,0.3,1.9c0.2,1.3,0.4,2.6,0.3,4.2
		c-0.1,0.7-0.3,1.6-0.8,2.3c-0.5,0.8-1.3,1.3-2.1,1.5l0.1-1.8l7.2,3.3c2.4,1.1,4.8,2.3,7.1,3.6c1.2,0.7,2.3,1.4,3.4,2.2
		c0.5,0.4,1.1,0.8,1.6,1.2c0.5,0.4,1,0.9,1.5,1.3c0.5,0.5,1,0.9,1.5,1.4s0.9,1,1.4,1.5c0.4,0.5,0.9,1,1.3,1.6l1.2,1.6l-1.8,0.3
		c0.6-1.9,1.5-3.8,2.6-5.5s2.4-3.2,3.2-4.8c0.4-0.8,0.7-1.6,0.8-2.4c0.1-0.4,0.1-1,0.1-1.4c0-0.5,0-0.9,0-1.4c0-1.9-0.3-3.8-0.6-5.7
		c-0.7-3.8-1.8-7.5-2.9-11.3l-3.1-11.3c-1-3.8-2.1-7.5-3.5-11.1s-3.1-7.1-4.6-10.7c-3.1-7.3-5.2-14.9-7.1-22.4
		c-2-7.6-3.8-15.2-6.5-22.5c-2.6-7.3-6-14.4-10.8-20.5c-1.2-1.5-2.5-3-3.8-4.4c-0.7-0.7-1.4-1.3-2.1-2c-0.8-0.6-1.5-1.3-2.2-1.9
		c-3.1-2.4-6.4-4.4-9.8-6.3c-6.8-3.8-13.7-7.5-20.7-10.9L221.3,163.1z"/>
</g>
<g>
	<path class="st7" d="M165.8,281.4c0,0,0.5,0,1.5,0c0.9,0,2.3,0,3.9,0c1.6,0,3.5,0.1,5.5,0.1c2,0.1,4.2,0.1,6.3,0.2
		c4.3,0.1,8.6,0.1,11.8-0.3c0.8-0.1,1.5-0.2,2.2-0.3c0.6-0.1,1.2-0.2,1.7-0.3c0.9-0.2,1.4-0.3,1.4-0.3s-0.5,0.2-1.4,0.5
		c-0.5,0.1-1,0.3-1.6,0.5s-1.4,0.4-2.2,0.5c-1.6,0.3-3.5,0.6-5.5,0.7s-4.2,0.1-6.4,0.1c-2.2-0.1-4.3-0.2-6.3-0.3
		c-2-0.1-3.9-0.3-5.5-0.4s-3-0.3-3.9-0.4C166.3,281.4,165.8,281.4,165.8,281.4z"/>
</g>
<g>
	<path class="st7" d="M136.8,352.7c0,0,0.2-0.1,0.5-0.1c0.3-0.1,0.7-0.2,1.3-0.3c1.2-0.2,2.9-0.3,4.9,0s4.3,1,6.7,1.8
		s4.9,1.7,7.4,2.6s5,1.9,7.3,2.9s4.4,2.1,6.2,3s3.3,1.7,4.4,2c1.1,0.3,1.8,0.4,1.8,0.4s-0.2,0-0.5,0s-0.8,0-1.4-0.2
		c-1.2-0.2-2.8-0.8-4.6-1.6c-1.8-0.8-4-1.8-6.3-2.7c-2.3-0.9-4.8-1.9-7.3-2.8s-5-1.9-7.4-2.7c-2.4-0.9-4.5-1.7-6.5-2.1
		c-1.9-0.4-3.6-0.5-4.8-0.4c-0.6,0.1-1,0.1-1.3,0.2C137,352.7,136.8,352.7,136.8,352.7z"/>
</g>
<g>
	<path class="st7" d="M169.2,357.1c0,0,0.2-0.1,0.5-0.2c0.1-0.1,0.3-0.1,0.6-0.2c0.2-0.1,0.5-0.1,0.8-0.1c0.6,0,1.3,0.1,2,0.2
		c0.7,0.2,1.4,0.4,2.1,0.7c0.7,0.3,1.4,0.6,2,0.8c0.6,0.2,1.2,0.4,1.8,0.6c0.3,0.1,0.5,0.1,0.7,0.1s0.4,0.1,0.6,0.1
		c0.3,0,0.5,0,0.5,0s-0.2,0.1-0.5,0.2c-0.2,0.1-0.4,0.1-0.6,0.1c-0.2,0-0.5,0.1-0.8,0c-1.2,0-2.7-0.5-4.1-1c-0.7-0.3-1.4-0.6-2-0.8
		c-0.6-0.2-1.2-0.4-1.8-0.5c-0.3-0.1-0.5-0.1-0.7-0.1s-0.4,0-0.6,0C169.4,357.1,169.2,357.1,169.2,357.1z"/>
</g>
<g>
	<path class="st1" d="M98.1,292c-0.5,8.6-0.1,17.3,3.1,25.3c1,2.5,2.2,4.9,2.7,7.5c0.5,2.3,0.4,4.6,0.2,6.9
		c-0.2,3.8-0.4,7.6-0.6,11.4s-0.5,7.7-1.8,11.2c-0.4,1.1-0.9,2.2-1.1,3.4c-0.4,2.8,1.4,5.5,3.1,7.8c1.5,2.1,3.4,4.3,6,4.4
		c2.4,0.1,4.4-1.9,6.7-2.7c0.7-0.3,1.5-0.4,2-0.9c1.3-1.2,0.6-3.4-0.4-4.9c-1-1.4-2.4-2.9-2.2-4.7c0.3-2.5,3.6-3.8,3.9-6.3
		c1.1,2,2.5,3.9,4,5.7c1.4,1.6,3,3,5.1,3.4c2,0.4,4.5-0.7,5-2.7c0.3-1.5-0.4-3-1.5-4.2s-2.4-2-3.4-3.1c-3-3.2-3.4-7.9-5-12
		c-1.8-4.6-5.2-8.4-8.2-12.3s-5.8-8.4-6-13.3c-0.1-2.9,0.7-5.7,1.4-8.5c0.9-3.1,1.7-6.2,2.6-9.3c0.2-0.8,0.4-1.6,0.1-2.3
		c-0.3-0.6-0.8-1-1.4-1.4c-3.5-2.2-7.8-3-11.8-2.2c-1.8,0.4-3.9,1.8-3.2,3.5"/>
	<path d="M98.1,292c-0.2,4.6-0.1,9.3,0.5,13.8c0.3,2.3,0.7,4.6,1.3,6.8c0.6,2.2,1.4,4.4,2.3,6.5s1.9,4.3,2.2,6.7
		c0.3,2.3,0.2,4.7,0.1,7l-0.3,6.9c-0.1,2.3-0.2,4.6-0.4,6.9c-0.2,2.3-0.5,4.7-1.3,6.9c-0.3,1.1-0.9,2.2-1.2,3.3
		c-0.2,0.5-0.2,1-0.2,1.6c0,0.5,0.1,1.1,0.2,1.6c0.6,2.1,2,4,3.3,5.8c0.7,0.9,1.4,1.8,2.3,2.4c0.8,0.7,1.9,1.1,2.8,1.2
		c2.2,0.1,4-1.6,6.2-2.5c0.6-0.2,1.1-0.4,1.6-0.6c0.2-0.1,0.5-0.2,0.6-0.4c0.2-0.2,0.3-0.3,0.4-0.6c0.4-0.9,0.1-2-0.4-2.9
		s-1.3-1.8-1.9-2.8c-0.3-0.5-0.6-1.1-0.7-1.7c-0.2-0.6-0.1-1.3,0.1-1.9c0.4-1.3,1.4-2.1,2.1-2.9c0.8-0.8,1.5-1.7,1.6-2.7l0.1-1.2
		l0.6,1.1c1.1,2,2.5,3.9,4,5.6c0.8,0.9,1.6,1.7,2.5,2.3c0.9,0.6,2,1.1,3,1.1c1.1,0,2.2-0.3,3-1s1.1-1.8,0.9-2.8
		c-0.2-1-0.9-2-1.7-2.8s-1.7-1.5-2.6-2.3c-0.2-0.2-0.4-0.4-0.6-0.6c-0.2-0.2-0.4-0.4-0.6-0.7c-0.4-0.5-0.7-1-1-1.5
		c-0.6-1-1-2.2-1.4-3.3c-0.7-2.2-1.2-4.5-2.1-6.6c-1.7-4.3-4.8-7.9-7.6-11.5c-1.4-1.8-2.8-3.8-3.9-5.8c-1.1-2.1-2-4.3-2.3-6.6
		c-0.4-2.3-0.1-4.7,0.5-7c0.5-2.3,1.2-4.5,1.9-6.7c0.6-2.2,1.3-4.5,1.9-6.7c0.1-0.6,0-1.1-0.3-1.6s-0.8-0.8-1.3-1.1
		c-1-0.6-2-1.1-3.1-1.5c-2.2-0.8-4.5-1-6.8-0.8c-1.1,0.1-2.3,0.3-3.3,0.9c-0.5,0.3-1,0.7-1.3,1.1c-0.3,0.5-0.4,1.1-0.2,1.6h-0.1
		c-0.2-0.6-0.1-1.2,0.2-1.7c0.3-0.5,0.8-0.9,1.3-1.2c1-0.6,2.2-0.8,3.4-0.9c2.3-0.2,4.7,0.1,6.9,0.8c1.1,0.4,2.2,0.9,3.2,1.5
		c0.5,0.3,1,0.6,1.4,1.1s0.4,1.2,0.3,1.8c-0.5,2.3-1.2,4.5-1.8,6.8c-0.6,2.2-1.3,4.5-1.8,6.7s-0.8,4.6-0.4,6.8
		c0.4,2.3,1.2,4.4,2.3,6.5c1.1,2,2.5,3.9,3.9,5.7c1.4,1.8,2.9,3.6,4.3,5.5s2.6,3.9,3.5,6.1s1.4,4.5,2.1,6.7s1.7,4.3,3.4,5.8
		c0.8,0.8,1.8,1.5,2.6,2.3c0.9,0.8,1.6,1.9,1.9,3.1c0.3,1.2-0.1,2.7-1.1,3.5s-2.2,1.2-3.5,1.2s-2.4-0.6-3.4-1.2
		c-1-0.7-1.9-1.5-2.6-2.4c-1.6-1.8-3-3.7-4.1-5.7l0.7-0.1c-0.2,1.3-1.1,2.3-1.8,3.2c-0.8,0.8-1.6,1.7-1.9,2.6c-0.4,1,0,2,0.6,2.9
		c0.6,1,1.4,1.8,2,2.9c0.3,0.5,0.5,1.1,0.6,1.8c0.1,0.6,0.1,1.3-0.2,2c-0.1,0.3-0.4,0.7-0.6,0.8c-0.3,0.3-0.6,0.4-0.9,0.6
		c-0.6,0.3-1.1,0.4-1.6,0.6c-1,0.4-2,1-3,1.6s-2.2,1.1-3.5,1c-1.3,0-2.5-0.6-3.5-1.4s-1.7-1.7-2.5-2.6c-1.4-1.9-2.9-3.8-3.5-6.2
		c-0.2-0.6-0.2-1.2-0.2-1.9c0-0.6,0.1-1.2,0.3-1.8c0.3-1.2,0.8-2.2,1.2-3.3c0.7-2.2,1-4.4,1.2-6.7c0.2-2.3,0.3-4.6,0.5-6.9l0.4-6.9
		c0.1-2.3,0.3-4.6,0-6.9c-0.3-2.2-1.1-4.4-2-6.5s-1.7-4.3-2.3-6.6c-0.6-2.3-1-4.6-1.2-6.9C97.6,301.3,97.7,296.6,98.1,292L98.1,292z
		"/>
</g>
<path class="st8" d="M131.4,354.8c-0.9-0.6-2.2-0.6-3.2,0s-1.5,1.8-1.3,2.9"/>
<g>
	<path class="st4" d="M106.3,352.9c0,0-0.1,0-0.2,0.1s-0.3,0.2-0.5,0.3c-0.4,0.3-1,0.9-1.3,1.8s-0.4,2-0.2,3.1
		c0.1,0.6,0.4,1.1,0.7,1.6c0.3,0.5,0.7,1,1.1,1.5c0.8,1,1.8,1.8,2.7,2.6c0.9,0.8,1.7,1.7,2.3,2.5c0.6,0.8,1,1.5,1.2,2.1
		c0.2,0.5,0.3,0.9,0.3,0.9h-0.1c0,0-0.2-0.3-0.5-0.7c-0.2-0.2-0.4-0.5-0.6-0.8s-0.6-0.6-0.9-0.9c-0.7-0.7-1.5-1.4-2.4-2.2
		c-0.9-0.8-1.8-1.8-2.6-2.9c-0.4-0.5-0.8-1.1-1-1.7c-0.3-0.6-0.5-1.2-0.6-1.8c-0.2-1.3,0-2.5,0.4-3.4s1-1.5,1.5-1.8
		C105.9,353,106.1,352.9,106.3,352.9C106.2,352.9,106.3,352.8,106.3,352.9L106.3,352.9z"/>
</g>
<g>
	<path class="st4" d="M101.1,360.9c0,0,0.6,0.5,1.4,1.2s1.9,1.7,2.9,2.7c0.5,0.5,1,1,1.5,1.5c0.4,0.5,0.8,1,1.1,1.5
		c0.6,0.9,0.8,1.6,0.8,1.6l-0.1,0.1c0,0-0.6-0.4-1.4-1.2c-0.4-0.4-0.8-0.8-1.3-1.3c-0.4-0.5-0.9-1.1-1.3-1.7
		C103,363.1,101,361,101.1,360.9L101.1,360.9z"/>
</g>
<g>
	<path class="st4" d="M108.4,358.9c0,0,0.1-0.2,0-0.5c0-0.3-0.1-0.6-0.3-0.9c-0.1-0.1-0.2-0.3-0.3-0.4c-0.1-0.1-0.1-0.3-0.2-0.4
		c-0.1-0.3-0.1-0.5-0.1-0.5v-0.1c0,0,0.3-0.1,0.6,0.1c0.2,0.1,0.4,0.2,0.5,0.4c0.1,0.2,0.1,0.5,0.2,0.7c0.1,0.5,0,0.9-0.1,1.2
		C108.6,358.8,108.5,359,108.4,358.9L108.4,358.9z"/>
</g>
<g>
	<path class="st4" d="M115,354.7c0,0,0-0.2-0.1-0.5s-0.1-0.8-0.1-1.4s0-1.3,0.1-2s0.2-1.5,0.2-2.3c0.1-0.8,0.1-1.5,0.2-2.2
		s0.1-1.4,0.2-1.9c0-0.3,0-0.5,0-0.8s0-0.4,0-0.5s-0.1-0.2-0.2-0.2h-0.1l-0.1-0.1c0,0,0-0.1,0.1-0.1c0.2,0,0.3,0.1,0.5,0.2
		c0.1,0.1,0.1,0.2,0.2,0.3c0,0.1,0.1,0.2,0.1,0.3c0.1,0.2,0.1,0.5,0.2,0.8c0.1,0.6,0.1,1.3,0.1,2.1c-0.1,0.7-0.3,1.5-0.4,2.3
		c-0.3,1.5-0.6,3-0.7,4.2c-0.1,0.6,0,1.1,0,1.4C115.1,354.5,115.1,354.7,115,354.7L115,354.7z"/>
</g>
<g>
	<path class="st4" d="M103.6,346.5c0,0,0.1-1,0.5-2.3c0.3-1.4,0.9-3.2,1.2-5.1c0.1-0.9,0.2-1.9,0.2-2.7c0.1-0.9,0.1-1.7,0.2-2.4
		c0-0.4,0.1-0.7,0.1-1s0-0.5,0.1-0.8c0-0.4,0.1-0.7,0.1-0.7h0.1c0,0,0.3,0.9,0.5,2.4c0.1,0.7,0.1,1.6,0.1,2.5
		c-0.1,0.9-0.3,1.9-0.5,2.8c-0.4,1.9-1.1,3.7-1.6,5C103.9,345.6,103.6,346.5,103.6,346.5L103.6,346.5z"/>
</g>
<g>
	<path class="st9" d="M243.3,176.4c0,0,0.2-0.1,0.5-0.1c0.3-0.1,0.9-0.1,1.5,0.1c0.6,0.2,1.4,0.6,2.1,1.3c0.7,0.7,1.2,1.6,1.5,2.7
		c0.2,0.5,0.3,1.1,0.4,1.7c0.1,0.6,0.3,1.2,0.4,1.9c0.1,0.7,0.1,1.3,0.2,2c0.1,0.7,0,1.4,0,2.1c0,0.7-0.1,1.4-0.1,2.2
		c0,0.7-0.1,1.5-0.3,2.2c-0.2,1.5-0.5,3-0.8,4.4c-0.6,2.9-1.4,5.9-2,8.6c-0.3,1.4-0.6,2.7-0.8,4s-0.3,2.5-0.4,3.6
		c0,0.6,0,1.1-0.1,1.6c0,0.5-0.1,1,0,1.4c0.1,0.9,0,1.7,0.2,2.4c0.2,1.3,0.3,2,0.3,2s-0.2-0.7-0.5-2c-0.2-0.6-0.2-1.4-0.3-2.4
		c-0.1-0.9-0.1-2-0.1-3.1c0.1-1.1,0.1-2.4,0.3-3.7c0.1-1.3,0.4-2.6,0.6-4c0.5-2.8,1.3-5.7,1.9-8.6c0.3-1.5,0.6-2.9,0.8-4.4
		c0.1-0.7,0.2-1.4,0.3-2.2c0.1-0.7,0.2-1.4,0.2-2.1c0-0.7,0.1-1.4,0-2c0-0.7-0.1-1.3-0.1-1.9c-0.1-0.6-0.2-1.3-0.3-1.9
		c-0.1-0.6-0.2-1.1-0.3-1.7c-0.3-1.1-0.7-2-1.3-2.7s-1.2-1.1-1.8-1.3s-1.1-0.3-1.5-0.2C243.5,176.3,243.3,176.4,243.3,176.4z"/>
</g>
<g>
	<path class="st9" d="M246.3,245.5c0,0,0-0.1-0.1-0.2c-0.1-0.1-0.2-0.3-0.3-0.6c-0.3-0.5-0.6-1.3-0.8-2.4c-0.2-1-0.4-2.2-0.4-3.5
		c-0.1-1.3-0.1-2.6-0.1-4s0.2-2.8,0.6-4c0.3-1.3,0.9-2.4,1.4-3.2c0.5-0.9,0.8-1.6,1-2.2c0.2-0.6,0.2-0.9,0.2-0.9s0,0.1,0,0.2
		c0,0.2,0,0.4,0,0.7c-0.1,0.6-0.3,1.5-0.7,2.4c-0.4,1-0.8,2-1.1,3.2s-0.4,2.5-0.4,3.8s0,2.7,0,3.9c0,1.3,0,2.4,0.1,3.4
		s0.2,1.8,0.4,2.4C246.1,245.2,246.3,245.5,246.3,245.5z"/>
</g>
<g>
	<path class="st9" d="M233.3,176.8c0,0,0.2,0.7,0.4,1.8c0.2,1.2,0.6,2.8,0.9,4.9c0.3,2,0.7,4.4,0.9,7s0.4,5.3,0.4,8s-0.1,5.5-0.2,8
		c-0.1,2.5-0.1,4.9,0.1,7c0.1,1,0.2,1.9,0.3,2.8c0.1,0.8,0.3,1.5,0.4,2.1c0.1,0.6,0.3,1,0.4,1.3c0.1,0.3,0.1,0.5,0.1,0.5
		s-0.1-0.2-0.2-0.5c-0.1-0.3-0.3-0.7-0.5-1.3s-0.4-1.3-0.6-2.1c-0.2-0.8-0.4-1.7-0.5-2.8c-0.3-2-0.4-4.5-0.4-7c0-2.6,0.1-5.3,0-8
		c0-2.7-0.1-5.4-0.3-8c-0.2-2.5-0.3-4.9-0.6-7c-0.2-2-0.4-3.7-0.6-4.9C233.4,177.5,233.3,176.8,233.3,176.8z"/>
</g>
<g>
	<path class="st9" d="M234.2,229.4c0,0,0.3,0.6,0.7,1.6s1.1,2.4,1.9,4.2c0.4,0.9,0.8,1.8,1.2,2.8s0.9,2.1,1.2,3.2
		c0.4,1.2,0.6,2.4,0.7,3.7c0.1,1.3,0.1,2.5,0.1,3.8c0,2.5,0.1,5,0.2,7.4c0.1,2.4,0.3,4.6,0.5,6.4c0.2,1.9,0.4,3.4,0.5,4.5
		s0.2,1.7,0.2,1.7s-0.2-0.6-0.4-1.7s-0.6-2.6-0.9-4.5c-0.3-1.9-0.6-4.1-0.8-6.4c-0.2-2.4-0.3-4.9-0.4-7.4c0-1.3,0-2.5,0-3.7
		c-0.1-1.2-0.2-2.4-0.5-3.5c-0.6-2.2-1.5-4.3-2.1-6.1c-0.7-1.8-1.2-3.3-1.5-4.3C234.4,230,234.2,229.4,234.2,229.4z"/>
</g>
<g>
	<path class="st9" d="M232.6,236.5c0,0,0,1.5,0.1,4s0.1,6.2,0.2,10.5c0.1,4.4,0.2,9.4,0.2,14.9c0.1,5.4,0.1,11.3,0.2,17.1
		c0,5.8,0,11.6,0,17.1c0,5.4,0,10.5-0.1,14.9s-0.1,8-0.1,10.5s-0.1,4-0.1,4s0-1.5-0.1-4s-0.1-6.2-0.2-10.5
		c-0.1-4.4-0.2-9.4-0.2-14.9c-0.1-5.4-0.1-11.3-0.2-17.1c0-5.8,0-11.6,0-17.1s0-10.5,0.1-14.9s0.1-8,0.1-10.5
		C232.6,238,232.6,236.5,232.6,236.5z"/>
</g>
<g>
	<path class="st9" d="M239.7,332c0,0-0.1-0.6-0.2-1.6c-0.1-1-0.3-2.4-0.4-4.1c-0.1-1.7-0.3-3.7-0.5-5.8c-0.2-2.1-0.3-4.4-0.4-6.7
		c-0.1-2.3-0.2-4.6-0.3-6.7s-0.1-4.1-0.2-5.9c-0.1-1.7,0-3.1,0-4.1s0-1.6,0-1.6s0.1,0.6,0.2,1.6c0.1,1,0.3,2.4,0.4,4.1
		c0.1,1.7,0.3,3.7,0.5,5.8c0.2,2.1,0.3,4.4,0.4,6.7c0.1,2.3,0.2,4.6,0.3,6.7s0.1,4.1,0.2,5.9c0,1.7,0,3.1,0,4.1S239.7,332,239.7,332
		z"/>
</g>
<g>
	<path class="st9" d="M270.4,293.7c0,0,0.2-0.2,0.6-0.6c0.2-0.2,0.4-0.4,0.7-0.6c0.3-0.2,0.6-0.4,1-0.6s0.8-0.4,1.3-0.6
		s1-0.3,1.6-0.4c1.1-0.2,2.3-0.3,3.5-0.2c2.4,0.1,4.6,0.5,6.3,0.8c0.9,0.1,1.6,0.3,2.1,0.4s0.8,0.2,0.8,0.2s-0.3,0-0.8,0
		s-1.2,0-2.1,0s-1.9-0.1-3-0.2s-2.2-0.2-3.3-0.2c-1.1,0-2.3,0-3.3,0.1s-2,0.3-2.8,0.6c-0.4,0.1-0.8,0.3-1.1,0.4
		c-0.3,0.1-0.6,0.3-0.8,0.4C270.6,293.5,270.4,293.7,270.4,293.7z"/>
</g>
<g>
	<path class="st9" d="M291.2,288.7c-1.8,0.1-3.6,0.2-5.4,0.2c-1.8,0.1-3.6,0-5.4,0.3c-1.7,0.3-3.4,0.9-5.3,1.2
		c-1.8,0.3-3.7,0.4-5.5,0.2H269l0.1-0.6c0.2-1,0.5-2,0.9-2.9c0.2-0.5,0.5-1,1-1.4c0.5-0.3,0.8-0.6,1.3-0.9c0.9-0.6,1.8-1,2.7-1.5
		c0.9-0.4,1.9-0.8,2.9-1.1c2-0.6,4-0.9,6-1c1,0,2,0,3,0.1s2,0.2,3-0.1c-0.9,0.4-2,0.4-3,0.4s-2,0-3,0.1c-2,0.2-3.9,0.6-5.8,1.3
		c-0.9,0.3-1.8,0.7-2.7,1.1c-0.9,0.4-1.8,0.9-2.6,1.5c-0.4,0.2-0.8,0.6-1.2,0.8c-0.3,0.2-0.5,0.6-0.7,1.1c-0.4,0.9-0.6,1.8-0.8,2.8
		l-0.4-0.6c1.8,0.2,3.5,0.1,5.3-0.2c1.7-0.3,3.5-0.9,5.3-1.1c0.9-0.1,1.8-0.1,2.7-0.1l2.7,0.1C287.6,288.5,289.4,288.6,291.2,288.7z
		"/>
</g>
<g>
	<path class="st9" d="M267.7,284.2c0,0,0.1,0,0.3-0.1c0.2-0.1,0.4-0.2,0.7-0.3c0.6-0.3,1.4-0.8,2.2-1.5c0.8-0.7,1.8-1.6,2.9-2.5
		c0.6-0.4,1.2-0.9,1.9-1.2c0.7-0.3,1.5-0.6,2.2-0.8c1.5-0.3,3-0.4,4.4-0.4s2.7-0.1,3.8-0.1c1.1,0,2.1,0,2.7,0s1-0.1,1-0.1
		s-0.3,0.2-1,0.3c-0.7,0.1-1.6,0.2-2.7,0.4c-1.1,0.1-2.4,0.3-3.8,0.4s-2.9,0.2-4.3,0.5c-0.7,0.2-1.4,0.4-2,0.7
		c-0.6,0.3-1.2,0.7-1.8,1.1c-1.1,0.8-2.1,1.7-3.1,2.3c-0.9,0.6-1.8,1-2.5,1.2C268.1,284.1,267.7,284.1,267.7,284.2z"/>
</g>
<g>
	<path class="st9" d="M119.6,287.1c0,0,0.1,0,0.2,0.1s0.4,0.2,0.6,0.4c0.5,0.4,1.1,1.2,1.5,2.3c0.2,0.5,0.2,1.2,0.3,1.8
		c0,0.6,0.1,1.3,0.1,2s-0.1,1.5-0.5,2.2s-0.9,1.3-1.5,1.8c-2.1,2-4.3,3.9-6,5.3c-0.8,0.7-1.6,1.2-2,1.6c-0.5,0.4-0.8,0.6-0.8,0.6
		s0.2-0.3,0.7-0.7c0.4-0.5,1-1.1,1.8-1.9c1.5-1.6,3.6-3.6,5.7-5.6c0.5-0.5,1-1,1.3-1.5c0.3-0.6,0.4-1.2,0.5-1.8
		c0-0.6,0.1-1.3,0.1-1.9s0-1.2-0.1-1.7c-0.2-1-0.6-1.8-1-2.3C119.9,287.3,119.6,287.1,119.6,287.1z"/>
</g>
<g>
	<path class="st9" d="M124,324.9c-0.8,0.4-1.7,0.9-2.7,0.9s-2-0.6-2.3-1.6c-0.1-0.5,0-1.1,0.4-1.5c0.3-0.4,0.7-0.7,1-1
		s0.6-0.7,0.7-1.1c0.2-0.4,0.2-0.8,0.2-1.3c-0.1-0.9-0.4-1.7-0.9-2.5c-0.4-0.8-1.1-1.4-1.7-2.1c-0.7-0.7-1.4-1.3-2-2.1
		c-0.6-0.7-1.1-1.6-1.4-2.6l-0.2-0.8l0.8,0.4c0.8,0.3,1.7,0,2.3-0.7c0.7-0.6,1-1.5,1.1-2.5s0.1-2,0.2-3.1s0.4-2.2,0.8-3.1
		c0.8-2,2-3.7,2.8-5.5c0.4-0.9,0.7-1.9,1-2.9c0.2-1,0.4-2,0.5-3c0.3-2,0.3-4.1,0.3-6.1c0-2.1,0-4.1-0.2-6.2
		c-0.1-2.1-0.4-4.1-0.6-6.2c-0.3-2-0.6-4.1-1.1-6.1c1.1,4,1.9,8.1,2.3,12.2c0.2,2.1,0.3,4.1,0.4,6.2c0,2.1,0,4.2-0.2,6.2
		c-0.1,1-0.3,2.1-0.5,3.1s-0.6,2.1-1,3c-0.9,2-2,3.7-2.8,5.5c-0.4,0.9-0.7,1.9-0.7,2.8c-0.1,1-0.1,2-0.2,3.1c0,0.3-0.1,0.5-0.2,0.8
		c0,0.1-0.1,0.3-0.1,0.4c-0.1,0.2-0.1,0.3-0.2,0.4c-0.2,0.5-0.6,1-1,1.4s-0.9,0.7-1.5,0.9c-0.6,0.2-1.2,0.2-1.8-0.1l0.6-0.5
		c0.4,1.7,1.7,3,3,4.4c0.6,0.7,1.3,1.4,1.8,2.3c0.5,0.8,0.8,1.8,0.9,2.8c0,0.5-0.1,1-0.3,1.5c-0.2,0.5-0.5,0.9-0.9,1.2
		c-0.4,0.3-0.8,0.6-1,0.9c-0.3,0.3-0.4,0.7-0.4,1.1c0.2,0.8,1.1,1.5,2,1.5C122.2,325.7,123.1,325.3,124,324.9z"/>
</g>
<g>
	<path class="st9" d="M132.1,199.2c0,0-0.2,0.3-0.6,0.8c-0.4,0.5-0.9,1.3-1.6,2.4c-0.6,1.1-1.3,2.4-2,3.9s-1.5,3.3-2.3,5.3
		s-1.6,4.1-2.4,6.4c-0.4,1.1-0.8,2.3-1.1,3.5c-0.2,0.6-0.4,1.2-0.6,1.8s-0.4,1.3-0.5,1.9c-0.4,1.3-0.7,2.6-1,3.9
		c-0.3,1.3-0.7,2.6-0.9,4c-0.6,2.7-1.1,5.5-1.5,8.2c-0.5,2.8-0.9,5.6-1.2,8.3c-0.3,2.7-0.6,5.5-0.8,8.1c-0.1,1.3-0.2,2.6-0.3,3.9
		c-0.1,1.3-0.1,2.5-0.2,3.7c-0.1,2.4-0.2,4.7-0.2,6.8c-0.1,2.1-0.1,4-0.2,5.8c-0.1,1.7-0.3,3.2-0.5,4.4c-0.2,1.2-0.6,2.1-0.8,2.7
		c-0.3,0.6-0.4,0.9-0.4,0.9s0.1-0.3,0.4-0.9c0.2-0.6,0.5-1.5,0.7-2.8c0.2-1.2,0.3-2.7,0.3-4.4c0-1.7,0-3.7,0-5.8
		c0-2.1,0-4.4,0.1-6.8c0-1.2,0.1-2.5,0.1-3.7c0.1-1.3,0.1-2.6,0.2-3.9c0.2-2.6,0.4-5.4,0.7-8.1c0.3-2.8,0.7-5.6,1.1-8.4
		c0.5-2.8,1-5.6,1.6-8.3c0.3-1.4,0.6-2.7,1-4c0.3-1.3,0.7-2.6,1.1-3.9c0.4-1.3,0.7-2.5,1.2-3.7c0.4-1.2,0.8-2.4,1.2-3.5
		c0.8-2.3,1.7-4.4,2.6-6.4c0.9-1.9,1.7-3.7,2.5-5.2s1.5-2.8,2.2-3.9c0.7-1,1.3-1.8,1.7-2.3C131.9,199.4,132.1,199.2,132.1,199.2z"/>
</g>
<g>
	<path class="st9" d="M110.8,282c0,0-0.1-0.1-0.4-0.2c-0.2-0.1-0.6-0.3-1-0.4c-0.4-0.2-0.9-0.3-1.4-0.4c-0.3-0.1-0.5-0.1-0.8-0.1
		s-0.6,0-0.9-0.1c-0.6,0-1.3-0.1-1.9-0.3c-0.3-0.1-0.6-0.2-0.9-0.3c-0.3-0.1-0.5-0.3-0.7-0.5c-0.4-0.4-0.6-0.8-0.6-1
		c-0.1-0.3,0-0.4,0-0.4s0.1,0.1,0.2,0.4c0.2,0.2,0.4,0.5,0.8,0.7c0.2,0.1,0.4,0.2,0.6,0.3c0.2,0.1,0.5,0.1,0.7,0.2
		c0.5,0.1,1.1,0.1,1.7,0.1c0.3,0,0.6,0.1,0.9,0.1s0.6,0.1,0.9,0.2c0.6,0.2,1.1,0.5,1.5,0.8s0.7,0.6,0.9,0.8
		C110.7,281.9,110.8,282,110.8,282z"/>
</g>
<g>
	<path class="st9" d="M101.7,281.8c0,0,0.1-0.1,0.3-0.1c0.2-0.1,0.6-0.2,1-0.2c0.4-0.1,0.9-0.1,1.4,0c0.5,0,1.1,0.2,1.6,0.3
		c1,0.3,2,0.9,2.6,1.3c0.7,0.5,1.1,0.8,1.1,0.8s-0.5-0.1-1.3-0.3c-0.8-0.2-1.7-0.6-2.7-0.9s-1.9-0.6-2.7-0.7
		c-0.4-0.1-0.7-0.1-0.9-0.1C101.8,281.8,101.7,281.8,101.7,281.8z"/>
</g>
<g>
	<path class="st9" d="M116.6,273.8c0,0,0.3,0.8,0.5,2.1c0.2,1.3,0.5,2.9,0.5,4.6c0.1,1.7,0,3.4-0.1,4.7c-0.1,1.3-0.3,2.1-0.3,2.1
		s-0.1-0.8-0.3-2.1c-0.1-1.3-0.2-2.9-0.3-4.6c-0.1-1.7-0.1-3.4-0.1-4.6C116.6,274.6,116.6,273.8,116.6,273.8z"/>
</g>
<g>
	<path class="st9" d="M117.6,212c0,0,0,0.3,0,0.8s0,1.2,0.1,2.1c0,1.8,0.1,4.1,0.2,6.4c0.1,2.3,0.2,4.7,0.2,6.4
		c0,0.9,0.1,1.6,0.1,2.1s0,0.8,0,0.8s-0.3-1.1-0.7-2.9c-0.3-1.7-0.6-4.1-0.7-6.5c0-1.2,0-2.4,0-3.5s0.1-2.1,0.2-3s0.2-1.6,0.3-2.1
		C117.5,212.3,117.6,212,117.6,212z"/>
</g>
<g>
	<path class="st9" d="M129,185.7c0,0-0.3,0.4-0.8,1.2s-1.1,1.9-1.8,3.3c-0.7,1.4-1.3,3.1-1.8,4.9c-0.6,1.8-1,3.9-1.4,5.9
		s-0.6,4.1-0.7,6c-0.2,1.9-0.3,3.7-0.4,5.3s-0.2,2.9-0.2,3.8c-0.1,0.9-0.1,1.4-0.1,1.4s0-0.5-0.1-1.4c0-0.9-0.1-2.2-0.1-3.8
		s0-3.4,0.1-5.4s0.3-4.1,0.6-6.1c0.4-2.1,0.9-4.1,1.5-6s1.4-3.5,2.2-4.9c0.4-0.7,0.8-1.3,1.1-1.8c0.4-0.5,0.7-1,1-1.3
		c0.3-0.4,0.5-0.6,0.7-0.8C128.9,185.8,129,185.7,129,185.7z"/>
</g>
<g>
	<path class="st9" d="M128.8,196c0,0-0.1-0.1-0.2-0.4c-0.1-0.3-0.2-0.7-0.3-1.2s-0.1-1.1,0-1.7c0.1-0.6,0.3-1.3,0.6-1.9
		c0.3-0.6,0.7-1.1,1.1-1.6c0.4-0.4,0.7-0.9,1-1.2c0.6-0.7,0.8-1.3,0.8-1.3s0,0.2,0,0.4c0,0.3-0.1,0.7-0.3,1.1
		c-0.2,0.5-0.5,1-0.8,1.5s-0.7,1-0.9,1.5c-0.6,1-0.9,2.2-1,3.1C128.8,195.3,128.8,196,128.8,196z"/>
</g>
<g>
	<path class="st9" d="M108.2,271.2c0,0-0.2-0.7-0.3-1.8c-0.1-1.1-0.2-2.6-0.2-4c0-1.5,0.1-2.9,0.2-4s0.3-1.8,0.3-1.8
		s0.2,0.7,0.3,1.8c0.1,1.1,0.2,2.6,0.2,4c0,1.5-0.1,2.9-0.2,4C108.4,270.5,108.2,271.2,108.2,271.2z"/>
</g>
<g>
	<path class="st10" d="M229.3,376.2c2.7,7.4,4.2,15.1,4.5,22.9c0.1,2.4,0.1,4.8-0.3,7.1c-0.5,2.8-1.4,5.5-2.4,8.2
		c-1.8,5.1-3.7,10.3-5.5,15.4c-2,5.5-3.9,11-6,16.5c-3.1,8.2-6.5,16.3-9.9,24.4c-4.6,11.1-9.4,22.2-14.1,33.3h-70
		c-5.4-25.1-10.3-50.3-15.7-75.4c-1.6-7.3-3.2-14.5-4.7-21.8c-1.1-5-2.2-10.1-2.2-15.3c0-3,0.3-5.9,0.7-8.9c0.5-4.1,1-8.2,1.5-12.3
		c7.6-1,14.7-4.8,19.8-10.5c1.2-1.3,2.4-2.9,4.2-3.2c0.7-0.1,1.4,0,2.1,0.1c6,0.8,12,1.5,17.9,3c6,1.5,11.8,3.6,17.7,5.1
		c20.6,5.2,43.1,2.7,62.3,11.6"/>
	<path class="st4" d="M229.4,376.2c1.9,5.3,3.3,10.8,4,16.4c0.4,2.8,0.6,5.6,0.6,8.5c0,2.8-0.3,5.7-1.1,8.4c-0.8,2.7-1.8,5.4-2.7,8
		l-2.8,8c-1.9,5.3-3.8,10.6-5.7,15.9c-1,2.6-1.9,5.3-3,7.9l-3.1,7.9l-3.1,7.9c-1.1,2.6-2.1,5.3-3.2,7.9l-13.1,31.2l-0.1,0.3h-0.4
		l-70,0.2h-0.6l-0.1-0.6c-4.9-22.2-9.3-44.4-14-66.6l-7.3-33.2c-0.6-2.8-1.1-5.6-1.4-8.5s-0.3-5.8,0-8.7c0.3-2.9,0.6-5.7,1-8.5
		l1-8.4l0.1-0.8l0.8-0.1c2.6-0.4,5.2-1,7.6-2s4.8-2.3,6.9-3.9c1.1-0.8,2.1-1.6,3-2.5c1-0.9,1.8-1.9,2.8-2.9c0.5-0.5,1-1,1.7-1.5
		c0.7-0.4,1.5-0.8,2.3-0.8c0.8-0.1,1.6,0.1,2.2,0.1l2,0.3c5.4,0.7,10.8,1.5,16.2,2.9c5.3,1.4,10.5,3.2,15.7,4.7
		c1.3,0.4,2.6,0.7,3.9,1c1.3,0.3,2.6,0.6,4,0.8c2.6,0.5,5.3,0.9,8,1.3c5.4,0.7,10.8,1.2,16.2,1.8c2.7,0.3,5.4,0.7,8.1,1.1
		c2.7,0.4,5.4,0.9,8.1,1.5c1.3,0.3,2.7,0.7,4,1c1.3,0.4,2.6,0.8,3.9,1.2c1.3,0.4,2.6,0.9,3.8,1.4l3.7,1.6l-0.1,0.2l-3.8-1.5
		c-1.3-0.4-2.6-0.9-3.9-1.3c-1.3-0.4-2.6-0.7-3.9-1.1c-1.3-0.3-2.6-0.6-4-0.9c-2.7-0.5-5.3-0.9-8-1.3c-2.7-0.3-5.4-0.6-8.1-0.9
		c-5.4-0.5-10.8-0.9-16.3-1.6c-2.7-0.3-5.4-0.7-8.1-1.2c-1.4-0.2-2.7-0.5-4-0.8s-2.7-0.6-4-0.9c-5.3-1.4-10.4-3.2-15.7-4.5
		c-5.2-1.3-10.6-2-16-2.7l-2-0.3c-0.7-0.1-1.3-0.2-1.8-0.1c-1,0.1-2,0.8-2.8,1.8c-0.9,0.9-1.8,2.1-2.8,3c-1,1-2.1,1.9-3.2,2.7
		c-2.2,1.7-4.7,3.1-7.3,4.1c-2.6,1.1-5.3,1.8-8.1,2.2l0.9-0.9l-1,8.4c-0.3,2.8-0.7,5.6-1,8.4s-0.3,5.5,0,8.3s0.8,5.5,1.4,8.3
		l3.6,16.6l3.5,16.6c4.6,22.2,8.9,44.5,13.6,66.7l-0.7-0.6l70,0.2l-0.5,0.3l13.3-31.2c1.1-2.6,2.1-5.2,3.2-7.8l3.2-7.8l3.2-7.8
		c1.1-2.6,2-5.2,3-7.9c1.9-5.3,3.9-10.6,5.8-15.9l2.9-8c0.9-2.7,2-5.3,2.7-8c0.8-2.7,1.1-5.5,1.1-8.3s-0.2-5.6-0.5-8.4
		c-0.7-5.6-2-11.1-3.9-16.4L229.4,376.2z"/>
</g>
<g>
	<path class="st11" d="M148.3,370.4c0,0-0.1,0.1-0.2,0.3c-0.1,0.2-0.3,0.6-0.5,1c-0.4,0.9-1,2.3-1.4,4.1c-0.4,1.8-0.7,4.1-0.8,6.7
		s-0.2,5.6-0.2,8.8c0,3.2,0.3,6.7,1.3,10.3c1,3.5,2.8,7,5.1,10.4c1.1,1.7,2.4,3.3,3.7,4.9c0.3,0.4,0.6,0.9,0.8,1.4s0.3,1.1,0.2,1.7
		c-0.1,1.1-0.4,2.1-0.6,3.2c-0.8,4.2-1.7,8.4-2.5,12.6c-1.7,8.5-3.3,16.9-4.9,24.9c-0.8,4-1.5,7.8-2.3,11.4s-1.5,7.1-2.2,10.2
		c-0.7,3.2-1.4,6-2,8.6s-1.2,4.8-1.7,6.6c-0.5,1.8-0.9,3.2-1.2,4.2c-0.2,0.5-0.2,0.9-0.4,1.1c-0.1,0.2-0.1,0.3-0.2,0.3h-0.1
		c0,0,0-0.2,0.2-0.4c0.2-0.2,0.2-0.6,0.3-1.1c0.3-1,0.6-2.4,1-4.3c0.4-1.8,0.9-4.1,1.5-6.6c0.6-2.6,1.2-5.5,1.8-8.6
		c0.6-3.2,1.3-6.6,2-10.2s1.5-7.5,2.3-11.4c1.6-7.9,3.4-16.4,5.1-24.8c0.9-4.2,1.7-8.4,2.6-12.6c0.2-1,0.5-2.1,0.6-3.1
		s-0.3-1.9-0.9-2.7c-1.3-1.6-2.5-3.3-3.6-5c-2.3-3.4-4.1-6.9-5-10.6c-1-3.6-1.2-7.2-1.2-10.4c0-3.2,0.1-6.2,0.3-8.8
		c0.1-2.6,0.4-4.9,0.9-6.8c0.4-1.8,1-3.2,1.4-4.2c0.2-0.5,0.4-0.8,0.5-1C148.2,370.5,148.2,370.3,148.3,370.4L148.3,370.4z"/>
</g>
<g>
	<path class="st4" d="M180.1,371.5c0,0,0,0.2,0.1,0.5s0.2,0.8,0.4,1.3c0.4,1.1,1.3,2.6,2.9,3.7c0.8,0.6,1.8,1,2.8,1.5
		c1.1,0.5,2.2,0.9,3.3,1.4c1.2,0.4,2.4,0.9,3.6,1.3c1.2,0.4,2.5,0.8,3.8,1.1c1.3,0.3,2.6,0.6,3.9,0.9c1.3,0.2,2.6,0.5,3.8,0.6
		c1.2,0.2,2.4,0.3,3.6,0.4c1.1,0.1,2.2,0.2,3.2,0.2s1.9,0,2.7,0.1c0.8,0,1.5,0,2.1,0c1.2,0,1.8-0.1,1.8-0.1s-0.7,0.1-1.8,0.3
		c-1.2,0.1-2.9,0.3-4.9,0.3c-1,0-2.1,0-3.3,0s-2.4-0.1-3.6-0.3c-0.6-0.1-1.3-0.1-1.9-0.2c-0.6-0.1-1.3-0.2-2-0.3
		c-1.3-0.2-2.6-0.5-4-0.9c-1.3-0.3-2.6-0.7-3.9-1.1c-1.3-0.4-2.5-0.9-3.7-1.4s-2.3-1-3.3-1.5s-2-1.1-2.8-1.7s-1.4-1.4-1.9-2.1
		c-0.4-0.7-0.7-1.4-0.8-2c-0.2-0.6-0.2-1-0.2-1.4C180.1,371.7,180.1,371.5,180.1,371.5z"/>
</g>
<g>
	<path class="st11" d="M220.3,388.5c0,0,0,0.5,0,1.4s-0.1,2.3-0.1,4c-0.1,1.7-0.2,3.8-0.5,6.2c-0.3,2.4-0.6,5.1-1.2,7.9
		c-0.6,2.9-1.4,6-2.6,9.2c-1.1,3.2-2.6,6.5-4.5,9.6c-0.9,1.6-1.9,3.2-2.8,4.8c-0.9,1.7-1.5,3.4-2.1,5.2c-0.6,1.8-1.1,3.7-1.9,5.5
		c-0.7,1.8-1.6,3.6-2.4,5.4c-1.7,3.5-3.5,7-5.2,10.5s-3.2,6.9-4.7,10.3c-2.9,6.7-5.4,13.1-7.4,18.6s-3.6,10.2-4.6,13.4
		c-1,3.3-1.6,5.1-1.6,5.1s0.1-0.5,0.4-1.4c0.2-0.9,0.6-2.2,1.1-3.8c0.9-3.3,2.3-8,4.2-13.6s4.3-12,7.2-18.8c1.4-3.4,3-6.8,4.6-10.3
		s3.4-7,5.1-10.5c0.9-1.8,1.7-3.5,2.4-5.3s1.3-3.6,1.9-5.5c0.6-1.8,1.3-3.7,2.2-5.4c0.9-1.7,1.9-3.3,2.8-4.9
		c1.9-3.1,3.4-6.3,4.6-9.4c1.2-3.1,2-6.2,2.7-9c1.3-5.7,1.8-10.6,2.1-14C220.2,390.5,220.3,388.5,220.3,388.5z"/>
</g>
<g>
	<path class="st11" d="M144.8,416.5c0,0,0-0.1,0-0.3c0-0.2-0.1-0.5-0.3-0.8c-0.3-0.7-1.1-1.4-2.1-2.2c-1-0.7-2.4-1.5-3.7-2.5
		c-1.4-0.9-2.8-1.9-4.2-2.9s-2.8-2-4.2-2.8s-2.8-1.3-4-1.6c-1.2-0.3-2.3-0.6-3-0.7c-0.7-0.2-1.2-0.3-1.2-0.3s0.4,0,1.2,0.1
		c0.8,0.1,1.8,0.1,3.1,0.4c1.3,0.2,2.8,0.6,4.3,1.4c1.5,0.7,2.9,1.8,4.4,2.8c1.4,1,2.8,2,4.1,3c0.7,0.5,1.3,1,1.9,1.4
		c0.6,0.5,1.2,0.9,1.7,1.3c1,0.8,1.7,1.8,1.9,2.6C144.9,416,144.7,416.5,144.8,416.5z"/>
</g>
<g>
	<path class="st11" d="M156.8,411.7c0,0,0.8-0.1,2.2-0.3c1.4-0.2,3.4-0.5,5.7-0.8c2.4-0.3,5.1-0.7,8.1-1.1c1.5-0.2,3-0.4,4.6-0.5
		s3.3-0.1,4.9,0.3c1.6,0.4,3.1,1,4.6,1.6c1.5,0.5,2.9,1,4.4,1.4c2.9,0.8,5.6,1.5,7.9,2.1c4.7,1.1,7.8,1.8,7.8,1.8s-0.8-0.1-2.2-0.3
		c-1.4-0.2-3.4-0.5-5.7-1c-2.4-0.5-5.1-1-8-1.8c-1.4-0.4-2.9-0.9-4.4-1.4s-3-1.1-4.5-1.5s-3-0.4-4.6-0.3c-1.5,0.1-3.1,0.3-4.6,0.4
		c-3,0.3-5.8,0.5-8.2,0.8c-2.4,0.2-4.4,0.3-5.8,0.5C157.6,411.7,156.8,411.7,156.8,411.7z"/>
</g>
<g>
	<path class="st11" d="M200.5,419.5c-1.1,0.1-2.3,0.1-3.4,0.2c-1.1,0.1-2.3,0.1-3.4,0.1c-2.3,0.1-4.6,0.1-6.8,0.2l0.1-0.9
		c3.9,1,7.4,3,10.9,4.7c1.8,0.9,3.5,1.7,5.4,2.3c0.9,0.3,1.9,0.6,2.8,0.8c0.5,0.1,1,0.2,1.4,0.2c0.5,0.1,1,0.1,1.5,0.1
		c-0.5,0-1,0.1-1.5,0c-0.5,0-1-0.1-1.5-0.1c-1-0.1-2-0.3-2.9-0.6c-1.9-0.5-3.8-1.2-5.6-2.1l-5.3-2.5c-0.9-0.4-1.8-0.8-2.7-1.2
		c-0.9-0.4-1.8-0.7-2.8-0.9l-3.3-1h3.4c2.3,0,4.6,0.1,6.8,0.2c1.1,0,2.3,0.1,3.4,0.1C198.2,419.4,199.4,419.4,200.5,419.5z"/>
</g>
<g>
	<path class="st11" d="M211.5,392.2c0,0-0.3,0-0.9,0.1c-0.5,0-1.3,0.1-2.2,0.2c-1.9,0.1-4.3,0.3-6.8,0.3c-1.2,0-2.5,0-3.6,0
		c-1.2,0-2.2,0-3.1,0.1c-0.9,0.2-1.6,0.5-1.9,0.9c-0.2,0.2-0.3,0.3-0.4,0.5c-0.1,0.1-0.1,0.2-0.1,0.2s0-0.1,0.1-0.2s0.2-0.3,0.3-0.6
		c0.3-0.4,1-1,1.9-1.3s2.1-0.4,3.2-0.5c1.2-0.1,2.4-0.1,3.6-0.1c2.5,0,5,0,6.8,0.1c0.9,0,1.7,0.1,2.2,0.2
		C211.2,392.2,211.5,392.2,211.5,392.2z"/>
</g>
<g>
	<path class="st11" d="M107.8,376.1c0,0,1.1,0.1,2.7,0.5c0.8,0.2,1.7,0.5,2.7,0.9s2,0.8,3,1.3c0.5,0.2,1,0.5,1.5,0.8
		s0.9,0.6,1.4,0.9c0.4,0.3,0.8,0.6,1.2,0.9c0.4,0.3,0.7,0.6,1,0.9c0.6,0.6,0.9,1.2,1.2,1.6c0.2,0.4,0.3,0.7,0.3,0.7
		s-0.2-0.2-0.5-0.6c-0.3-0.3-0.8-0.8-1.4-1.3c-1.2-1-3.1-2.1-5-3c-2-0.9-3.9-1.9-5.4-2.5c-0.7-0.3-1.4-0.6-1.8-0.8
		C108,376.2,107.8,376.1,107.8,376.1z"/>
</g>
<g>
	<path class="st10" d="M173,380.5c1,0.3,2.1,0.4,3.2,0.3c0.2,0,0.4-0.1,0.6-0.2c0.1-0.2,0.1-0.4,0.1-0.6c-0.3-2.2-1.2-4.3-1.6-6.4
		c-0.4-2.2-0.4-4.6,0.9-6.4c-1.6-0.7-3.4-1-5.1-1c-0.1,0-0.3,0-0.4,0.1c-0.2,0.1-0.3,0.4-0.3,0.6c-1,4.8-0.1,10,2.6,14.1"/>
	<path class="st11" d="M173,380.4c0.7,0.2,1.4,0.3,2.2,0.3c0.4,0,0.7,0,1.1-0.1c0.2,0,0.3-0.1,0.4-0.2c0.1-0.1,0.1-0.3,0-0.4
		c-0.2-1.4-0.7-2.8-1.1-4.2c-0.4-1.4-0.8-2.9-0.9-4.4c-0.1-1.5,0.2-3.1,1.2-4.4l0.2,0.6c-1.6-0.6-3.3-0.9-5-0.9c-0.1,0-0.2,0-0.2,0
		l0,0c0,0.1-0.1,0.2-0.1,0.5c-0.1,0.4-0.2,0.9-0.2,1.3c-0.1,0.4-0.1,0.8-0.1,1.3c0,0.4,0,0.9,0,1.3c0,0.9,0,1.7,0.2,2.6
		c0.1,0.9,0.3,1.7,0.5,2.5c0.4,1.7,1.1,3.3,1.9,4.9l-0.1,0.1c-1.1-1.4-1.9-3-2.5-4.7c-0.2-0.4-0.3-0.9-0.4-1.3
		c-0.1-0.4-0.2-0.9-0.3-1.3c-0.2-0.9-0.3-1.8-0.3-2.7c0-0.9,0-1.8,0.1-2.7c0.1-0.5,0.1-0.9,0.2-1.3c0-0.2,0.1-0.5,0.3-0.8
		c0.1-0.2,0.3-0.3,0.5-0.4s0.4-0.1,0.5-0.1c1.8,0.1,3.6,0.5,5.3,1.2l0.5,0.2l-0.3,0.4c-0.8,1.1-1.2,2.5-1.1,4c0,1.4,0.3,2.9,0.7,4.3
		s0.8,2.9,1,4.3c0,0.2,0,0.4-0.1,0.6s-0.4,0.3-0.6,0.3c-0.4,0-0.7,0-1.1,0C174.5,380.8,173.7,380.7,173,380.4L173,380.4z"/>
</g>
<g>
	<path class="st11" d="M170.2,370.6c0,0-0.7,0-1.9,0s-2.9,0-4.9,0c-2,0.1-4.4,0.2-6.9,0.5c-1.3,0.1-2.6,0.3-3.9,0.5
		c-1.3,0.2-2.8,0.3-4.2-0.1s-2.6-0.9-3.9-1.4c-1.2-0.5-2.5-1-3.7-1.4c-1.2-0.5-2.3-0.9-3.4-1.4c-1.1-0.5-2.1-0.9-3-1.3
		s-1.8-0.8-2.5-1.1c-0.8-0.4-1.4-0.6-2-0.9c-0.6-0.2-1-0.5-1.2-0.7c-0.3-0.2-0.4-0.3-0.4-0.3l0.1-0.1c0,0,0.5,0.5,1.7,0.8
		c0.6,0.1,1.3,0.4,2.1,0.7c0.8,0.3,1.7,0.6,2.6,0.9c1,0.4,2,0.7,3.1,1.2c1.1,0.4,2.2,0.9,3.4,1.3c1.2,0.5,2.4,1,3.6,1.5
		c1.2,0.5,2.5,1.1,3.7,1.5s2.5,0.3,3.9,0.2c1.3-0.1,2.7-0.3,3.9-0.4c2.6-0.2,4.9-0.2,7-0.2c2,0,3.7,0.1,4.9,0.1
		C169.6,370.5,170.2,370.5,170.2,370.6L170.2,370.6z"/>
</g>
<g>
	<path class="st12" d="M151.9,366.3c0.8,0.6,2.2,0.3,2.8-0.5c0.6-0.9,0.5-2.1-0.1-3s-1.6-1.4-2.6-1.7c-0.5-0.1-1.1-0.2-1.6,0
		c-1.2,0.4-1.9,1.9-1.5,3.2c0.4,1.2,1.6,2.1,2.9,2.3"/>
	<path class="st13" d="M151.9,366.3c0,0,0.1,0,0.2,0.1c0.1,0.1,0.3,0.1,0.6,0.1c0.5,0,1.2-0.2,1.7-0.8c0.2-0.3,0.3-0.7,0.4-1.2
		c0-0.4-0.1-0.9-0.3-1.3c-0.5-0.8-1.4-1.4-2.5-1.7c-0.5-0.1-1.1-0.2-1.5,0c-0.4,0.1-0.8,0.5-1,0.9s-0.3,0.9-0.3,1.3
		c0,0.2,0,0.4,0.1,0.6s0.2,0.4,0.3,0.5c0.4,0.7,1,1.1,1.5,1.3C151.6,366.3,151.9,366.4,151.9,366.3c0,0.1-0.1,0.1-0.2,0.1
		c-0.1,0-0.3,0-0.6-0.1c-0.5-0.1-1.3-0.4-1.9-1.2c-0.2-0.2-0.3-0.4-0.4-0.7c-0.1-0.2-0.2-0.5-0.2-0.8c-0.1-0.6,0-1.2,0.3-1.8
		c0.3-0.6,0.8-1.1,1.5-1.4s1.4-0.2,2-0.1c1.2,0.3,2.5,1.1,3,2.2c0.3,0.6,0.4,1.2,0.3,1.8c-0.1,0.6-0.3,1.1-0.7,1.5
		c-0.7,0.7-1.7,0.7-2.2,0.6C152.1,366.6,151.9,366.3,151.9,366.3z"/>
</g>
<g>
	<path class="st11" d="M147.4,360c0,0-0.2,0.7-0.4,1.8c-0.2,1.1-0.4,2.5-0.1,3.9c0.1,0.7,0.4,1.3,0.6,2c0.2,0.6,0.4,1.2,0.5,1.7
		c0.3,1,0.4,1.8,0.4,1.8h-0.1c0,0-0.5-0.6-1.1-1.5c-0.3-0.5-0.6-1.1-0.8-1.7c-0.2-0.7-0.3-1.4-0.4-2.2c-0.1-1.5,0.2-3,0.6-4
		C147,360.7,147.3,360,147.4,360L147.4,360z"/>
</g>
<g>
	<path class="st10" d="M124,369.8c0.7-0.9,1.7-1.5,2.4-2.3c1.6-1.7,2.5-3.9,4.1-5.6c1.7-1.8,4.1-2.8,5.5-4.8c-0.6-0.3-1.2-0.7-1.8-1
		c-1.5-0.9-3.4-1.8-4.9-0.8c-0.6,0.4-1,1-1.4,1.6c-1.7,2.7-3.3,5.4-5,8.1c-1.4,2.3-2.9,4.9-2.3,7.5c1,0.3,2,0.7,2.9,1
		C123.8,371.9,124.1,371.3,124,369.8"/>
	<path class="st11" d="M124,369.8c0.5-0.6,1-1.1,1.6-1.6c0.5-0.5,1.1-1,1.5-1.6c0.9-1.2,1.6-2.5,2.4-3.7c0.4-0.6,0.9-1.2,1.5-1.7
		s1.1-1,1.7-1.4c1.2-0.9,2.4-1.7,3.2-2.9l0.1,0.4c-1-0.5-2-1.1-2.9-1.6c-1-0.4-2.1-0.7-3-0.4c-0.4,0.2-0.8,0.5-1.1,0.9
		s-0.6,0.9-0.9,1.4l-1.7,2.9l-1.7,2.9l-1.7,2.9c-0.6,1-1.1,1.9-1.4,2.9s-0.5,2.1-0.3,3.1l-0.2-0.3l2.9,1.1l-0.3,0.2
		C123.5,372.2,123.9,371,124,369.8L124,369.8c0.1,0.6,0.1,1.3,0.1,1.9s-0.1,1.2,0,1.8v0.4l-0.4-0.1l-3-0.9l-0.2-0.1l-0.1-0.2
		c-0.3-1.2-0.2-2.4,0.1-3.5c0.3-1.1,0.8-2.2,1.4-3.2c1.1-2,2.3-3.8,3.5-5.7l1.8-2.8c0.3-0.5,0.6-1,1-1.4c0.4-0.5,0.9-0.9,1.5-1.1
		s1.3-0.2,1.9-0.1c0.6,0.1,1.1,0.3,1.7,0.6c1,0.5,2,1.1,2.9,1.7l0.3,0.2l-0.2,0.3c-0.9,1.3-2.2,2.1-3.4,3c-0.6,0.4-1.2,0.8-1.7,1.3
		c-0.6,0.5-1,1-1.5,1.6c-0.9,1.2-1.6,2.5-2.5,3.6c-0.5,0.6-1,1.1-1.6,1.6C125.1,368.8,124.6,369.3,124,369.8L124,369.8z"/>
</g>
<g>
	<path class="st11" d="M146.3,399.1c0,0,0.5,0.3,1.2,0c0.4-0.2,0.8-0.5,1.2-0.9s0.7-1,1.2-1.6c0.4-0.6,0.8-1.3,1.2-2
		s0.8-1.5,1.2-2.3s0.8-1.7,1.2-2.5c0.4-0.9,0.7-1.8,1-2.7c0.6-1.8,1.2-3.7,1.7-5.4c0.5-1.7,1-3.4,1.4-4.8c0.2-0.7,0.4-1.3,0.6-1.9
		c0.2-0.6,0.3-1.1,0.5-1.5c0.3-0.8,0.4-1.3,0.4-1.3h0.1c0,0-0.1,0.5-0.2,1.3c-0.1,0.4-0.1,0.9-0.2,1.5c-0.1,0.6-0.2,1.3-0.4,2
		s-0.3,1.5-0.5,2.3s-0.4,1.7-0.7,2.6c-0.5,1.8-1.2,3.6-1.9,5.4c-0.4,0.9-0.7,1.8-1.2,2.7c-0.4,0.9-0.8,1.7-1.3,2.5
		c-0.4,0.8-0.9,1.6-1.3,2.3c-0.5,0.7-0.9,1.4-1.4,2c-0.4,0.6-0.8,1.1-1.3,1.6c-0.4,0.4-0.9,0.7-1.3,0.9c-0.4,0.2-0.8,0.1-1,0.1
		C146.4,399.3,146.3,399.2,146.3,399.1L146.3,399.1z"/>
</g>
<g>
	<path class="st11" d="M155.1,374.4c0,0-0.1,0.2-0.3,0.6s-0.5,0.9-0.8,1.5s-0.6,1.4-1,2.1c-0.3,0.8-0.7,1.6-0.9,2.5
		c-0.3,0.9-0.5,1.7-0.7,2.6c-0.1,0.4-0.2,0.8-0.3,1.2c-0.1,0.4-0.1,0.8-0.2,1.1c-0.1,0.7-0.2,1.3-0.3,1.7c-0.1,0.4-0.1,0.6-0.1,0.6
		s0-0.2-0.1-0.6s-0.1-1-0.1-1.7s0.1-1.5,0.2-2.4c0.1-0.4,0.1-0.9,0.3-1.3c0.1-0.5,0.2-0.9,0.4-1.4c0.3-0.9,0.7-1.8,1.1-2.6
		c0.4-0.8,0.9-1.5,1.3-2.1c0.4-0.6,0.8-1,1.1-1.3C154.9,374.5,155.1,374.4,155.1,374.4z"/>
</g>
<g>
	<path class="st1" d="M289.4,317.9c-14.6,13.8-30.6,26.3-47.6,37.1c-4.6,2.9-9.3,5.8-13.1,9.6c-5.1,5.1-8.5,11.8-13.7,16.9
		c-0.9,0.9-1.9,1.8-3.2,2.2c-1.5,0.5-3,0.4-4.6,0.2c-7.7-0.9-15.3-2.8-22.6-5.6c-0.3-0.1-0.7-0.3-0.9-0.5c-0.5-0.6-0.1-1.6,0.3-2.3
		c2.7-4.5,5.3-9.1,8-13.6c-3,1.2-6.1,2.3-9.4,2.7c-3.2,0.3-6.7-0.2-9.3-2.2c-0.2-0.1-0.4-0.3-0.5-0.5c-0.6-1.1,1-2,2.2-2.2
		c11-2,21.5-5.8,32-9.6c4.2-1.5,8.4-3,12.3-5.3c3-1.7,5.7-3.9,8.4-6c2.2-1.7,4.4-3.4,6.5-5.2c9.9-8.2,19.1-17.2,27.4-27.1
		c2-2.4,4.3-5,7.4-5.5c2-0.3,4.1,0.4,5.9,1.2c5.8,2.4,11.6,5.8,14.7,11.3c0.5,0.8,0.9,1.7,0.8,2.6s-0.9,1.8-1.8,1.8"/>
	<path d="M289.4,318c-9,8.6-18.6,16.6-28.6,24.1c-2.5,1.9-5,3.7-7.6,5.5c-2.5,1.8-5.1,3.5-7.7,5.3l-7.9,5.1
		c-2.6,1.7-5.2,3.5-7.5,5.6s-4.3,4.5-6.1,7c-1.9,2.5-3.6,5.1-5.6,7.5c-1,1.2-2,2.4-3.1,3.5s-2.3,2.2-4,2.7c-1.6,0.4-3.2,0.2-4.8,0
		c-1.5-0.2-3.1-0.4-4.6-0.7c-3.1-0.5-6.1-1.2-9.1-2.1c-1.5-0.4-3-0.9-4.5-1.4c-0.7-0.2-1.5-0.5-2.2-0.8l-1.1-0.4
		c-0.4-0.1-0.7-0.2-1.1-0.5c-0.2-0.1-0.4-0.3-0.5-0.5c-0.2-0.2-0.2-0.5-0.2-0.7c0-0.5,0.1-0.9,0.3-1.3c0.4-0.8,0.8-1.4,1.2-2.1
		l2.4-4l4.7-8.1l0.5,0.6c-3.3,1.2-6.6,2.5-10.2,2.8c-1.8,0.1-3.6,0-5.3-0.6c-0.9-0.3-1.7-0.6-2.5-1.1c-0.4-0.2-0.8-0.5-1.1-0.8
		c-0.2-0.2-0.4-0.4-0.5-0.7c0-0.1-0.1-0.3-0.1-0.5s0-0.3,0.1-0.5c0.2-0.6,0.7-0.9,1.1-1.2c0.4-0.2,0.9-0.4,1.3-0.5l2.6-0.5
		c1.7-0.4,3.4-0.7,5.1-1.2c3.4-0.9,6.7-1.9,10.1-2.9c3.3-1.1,6.6-2.2,9.9-3.4c3.3-1.2,6.6-2.3,9.8-3.6c3.2-1.3,6.4-2.8,9.2-4.7
		c2.9-1.9,5.6-4.2,8.3-6.3c2.7-2.2,5.5-4.3,8.1-6.6c2.7-2.3,5.3-4.6,7.8-7c5.1-4.8,9.9-9.8,14.5-15.1c1.2-1.3,2.2-2.7,3.5-3.9
		c1.3-1.2,2.7-2.4,4.5-2.9c0.9-0.3,1.8-0.3,2.7-0.2c0.9,0.1,1.8,0.3,2.6,0.6c1.7,0.6,3.3,1.3,4.9,2.1c3.1,1.6,6.1,3.5,8.6,6.1
		c1.2,1.3,2.3,2.7,3.1,4.2c0.4,0.8,0.7,1.7,0.6,2.6c-0.2,0.9-0.9,1.7-1.8,1.7v-0.1c0.9,0,1.6-0.8,1.7-1.6c0.1-0.9-0.2-1.7-0.6-2.5
		c-0.9-1.5-1.9-2.9-3.2-4.1c-2.5-2.5-5.5-4.3-8.6-5.9c-1.6-0.7-3.2-1.5-4.8-2c-1.6-0.5-3.4-0.8-5-0.3s-3,1.6-4.2,2.8
		c-1.2,1.2-2.3,2.6-3.4,3.9c-4.5,5.3-9.4,10.4-14.4,15.3c-2.5,2.4-5.1,4.8-7.8,7.1c-1.3,1.2-2.7,2.3-4,3.4l-4.1,3.3
		c-2.7,2.2-5.5,4.4-8.4,6.4s-6.1,3.6-9.4,4.8c-3.3,1.3-6.6,2.4-9.9,3.6c-3.3,1.2-6.6,2.3-10,3.4c-3.3,1.1-6.7,2.1-10.1,2.9
		c-1.7,0.4-3.4,0.8-5.1,1.2l-2.6,0.5c-0.7,0.2-1.6,0.6-1.8,1.1c-0.1,0.2,0,0.5,0.3,0.7s0.7,0.5,1,0.7c0.7,0.4,1.5,0.8,2.3,1
		c1.6,0.5,3.3,0.7,5,0.6c3.4-0.2,6.7-1.5,10-2.7l1-0.4l-0.5,0.9l-4.7,8.1l-2.4,4c-0.4,0.7-0.8,1.4-1.1,2c-0.2,0.3-0.3,0.7-0.3,1
		c0,0.1,0,0.3,0.1,0.4s0.2,0.2,0.3,0.3c0.3,0.2,0.7,0.3,1,0.4l1.1,0.4c0.7,0.3,1.5,0.5,2.2,0.8c1.5,0.5,3,1,4.4,1.4
		c3,0.8,6,1.5,9.1,2.1c1.5,0.3,3.1,0.5,4.6,0.7s3.1,0.4,4.5,0s2.6-1.4,3.7-2.5c1.1-1.1,2.1-2.3,3.1-3.5c1.9-2.4,3.7-5,5.6-7.5
		c1.9-2.5,3.9-4.9,6.2-7s4.9-3.9,7.5-5.6l7.9-5c2.6-1.7,5.2-3.4,7.7-5.2c2.6-1.8,5.1-3.6,7.6-5.4C270.7,334.4,280.3,326.4,289.4,318
		L289.4,318z"/>
</g>
<g>
	<path class="st4" d="M201.7,380.8c0,0-0.3,0-0.7,0.1s-0.9,0.3-1.3,0.7c-0.2,0.2-0.4,0.4-0.5,0.6c-0.2,0.2-0.3,0.3-0.5,0.4
		c-0.3,0.3-0.6,0.5-0.6,0.5H198c0,0,0-0.1-0.1-0.2c0-0.2,0-0.4,0-0.6c0.1-0.3,0.2-0.5,0.4-0.8c0.2-0.2,0.5-0.4,0.8-0.5
		c0.6-0.3,1.2-0.4,1.7-0.3C201.5,380.6,201.8,380.7,201.7,380.8L201.7,380.8z"/>
</g>
<path class="st0" d="M228.6,90.2c8.6,10.5,11,23.7,4.8,35c-0.9,1.5-1.9,3.1-2.5,4.7c-0.9,2.4-1.9,4.8-1.9,7.3c0,2.2,0,4.4,0.6,6.6
	c3,10.4,8.3,5.6,5.7,16c-0.5,1.9-1.8,3.6-2.9,5.4c-6.7,10.5-7.3,22.5-6.3,34c-2.3-4-4.6-8-6.9-12c-2.5,3.3-6.1,6.2-10.6,8.3
	c3.7-4,3.9-9.2,1.6-13.7c-2.2-4.5-6.6-8.3-11.5-11.6c-0.9-0.6-2-1.3-3.3-1.4c-1.3-0.2-2.6,0.2-3.8,0.6c-3.4,1.2-6.5,2.8-9.1,4.8
	c9.2-7.1,16.1-15.6,20.1-24.7c1.8-4.2,3.1-8.5,5.5-12.5c1.3-2.1,2.8-4,4.2-6.1c7.5-11.7,6.1-25.3,11.6-37.5c0.7-1.5,1.6-3.1,3.6-3.8
	"/>
<g>
	<path class="st4" d="M192.8,375.5c0,0-0.6,1.3-1.3,2.6c-0.2,0.3-0.3,0.7-0.5,0.9c-0.2,0.3-0.4,0.5-0.6,0.7
		c-0.4,0.4-0.8,0.5-0.8,0.5l-0.1-0.1c0,0,0-0.4,0.2-0.9c0.1-0.3,0.2-0.6,0.4-0.8c0.2-0.3,0.5-0.5,0.7-0.8
		C191.7,376.5,192.7,375.5,192.8,375.5L192.8,375.5z"/>
</g>
<g>
	<path class="st4" d="M207.4,384.4c0,0,0.4-0.7,0.7-1.3c0.1-0.2,0.1-0.3,0.2-0.5c0.1-0.1,0.2-0.2,0.3-0.3c0.2-0.2,0.5-0.2,0.5-0.2
		h0.1c0,0,0.1,0.3,0.1,0.6c0,0.2,0,0.3-0.1,0.5c-0.1,0.1-0.3,0.3-0.4,0.4c-0.3,0.3-0.6,0.5-0.8,0.7
		C207.6,384.4,207.5,384.5,207.4,384.4L207.4,384.4z"/>
</g>
<g>
	<path class="st4" d="M195.5,358.8c0,0-0.3-0.1-0.8,0s-1,0.3-1.4,0.8c-0.2,0.2-0.3,0.5-0.4,0.7c-0.1,0.2-0.2,0.5-0.3,0.6
		c-0.2,0.4-0.3,0.8-0.3,0.8h-0.1c0,0-0.1-0.1-0.2-0.2c-0.1-0.1-0.2-0.4-0.2-0.7c0-0.3,0-0.6,0.1-1c0.2-0.3,0.5-0.6,0.8-0.9
		c0.6-0.5,1.4-0.6,1.9-0.5c0.3,0,0.5,0.1,0.6,0.2C195.4,358.7,195.5,358.7,195.5,358.8L195.5,358.8z"/>
</g>
<g>
	<path class="st4" d="M184,357.9c0,0,0.2,0,0.6,0c0.4,0,0.8,0.2,1.3,0.4c0.2,0.1,0.5,0.2,0.7,0.3c0.2,0.2,0.3,0.3,0.4,0.5
		c0.2,0.4,0.1,0.7,0.1,0.7l-0.1,0.1c0,0-0.3,0-0.6-0.2c-0.2-0.1-0.3-0.2-0.5-0.3c-0.1-0.1-0.3-0.3-0.4-0.5c-0.3-0.3-0.7-0.5-1-0.7
		C184.2,358.1,184,358,184,357.9L184,357.9z"/>
</g>
<g>
	<path class="st1" d="M218.8,127.8c-2,6.6-4,13.4-8.3,18.9c-5.7,7.2-14.5,11-23,14.6c-5.7,2.4-12.4,4.9-18,2.1
		c-3.6-1.8-5.9-5.3-8.1-8.7c-2.2-3.4-4.3-6.8-6.5-10.2c-2.7-4.1-5.3-8.5-5.7-13.3c-0.3-4,1.1-7.9,1.3-12c0.4-6-1.6-11.8-2-17.8
		c-0.7-9.8,2.8-19.4,6.1-28.6c17.5-12.4,42.1-12.7,59.8-0.6c4,2.8,7.8,6.2,9.9,10.5c2.1,4.1,2.8,8.9,2.9,13.6
		c0.2,11.7-2.6,23.4-8.2,33.8"/>
	<path class="st4" d="M218.8,127.8c-1,3.3-2,6.7-3.3,9.9s-2.9,6.4-5,9.1c-1.1,1.3-2.3,2.6-3.5,3.7c-1.3,1.1-2.7,2.2-4,3.2
		c-2.9,2-5.8,3.5-8.9,5c-3.1,1.4-6.1,2.8-9.3,4s-6.4,2.3-9.9,2.3c-1.7,0-3.4-0.3-5-0.9c-1.6-0.6-3.1-1.7-4.3-2.9
		c-2.5-2.5-4.2-5.6-6.1-8.4l-5.6-8.7c-1.9-2.9-3.6-6-4.6-9.4c-0.5-1.8-0.7-3.5-0.7-5.4c0.1-1.8,0.4-3.5,0.7-5.3s0.6-3.4,0.7-5.2
		c0.1-1.8,0-3.4-0.2-5.2c-0.4-3.4-1.2-6.8-1.6-10.3c-0.4-3.5-0.4-7.1,0.2-10.6c0.5-3.5,1.4-6.9,2.4-10.2c1-3.3,2.3-6.6,3.4-9.9
		l0.1-0.2l0.1-0.1l3.3-2.3l3.4-1.9l3.6-1.7c1.2-0.4,2.5-0.9,3.7-1.3c1.3-0.4,2.6-0.7,3.7-1c1.3-0.3,2.6-0.5,3.8-0.7
		c1.3-0.2,2.6-0.3,3.9-0.5c1.3-0.1,2.6-0.1,3.9-0.2c1.3,0,2.7,0,3.9,0.1c1.3,0.1,2.6,0.2,3.9,0.3c1.3,0.1,2.6,0.4,3.8,0.6
		c1.3,0.2,2.6,0.6,3.8,0.9c1.3,0.3,2.5,0.8,3.7,1.2s2.5,1,3.6,1.4c2.4,1.1,4.7,2.4,6.9,3.8c2.3,1.4,4.3,3.1,6.2,5s3.5,4,4.7,6.5
		s1.9,5.2,2.3,7.8c0.4,2.7,0.4,5.5,0.4,8.2c-0.1,5.5-1,10.8-2.4,16.1s-3.4,10.3-6,15c2.5-4.7,4.4-9.8,5.8-15.1
		c1.4-5.3,2.1-10.6,2.1-16.1c0-2.7-0.1-5.4-0.5-8.1s-1.1-5.3-2.3-7.6c-1.2-2.4-2.8-4.4-4.6-6.3c-1.9-1.9-3.9-3.4-6.2-4.9
		c-2.2-1.4-4.4-2.7-6.8-3.7c-1.2-0.5-2.4-1-3.6-1.4c-1.3-0.4-2.5-0.8-3.7-1.1c-1.3-0.3-2.5-0.6-3.7-0.9c-1.3-0.2-2.6-0.5-3.8-0.6
		c-1.3-0.1-2.6-0.3-3.8-0.3c-1.3,0-2.6-0.1-3.8-0.1c-1.3,0.1-2.6,0.1-3.8,0.2c-1.3,0.2-2.6,0.3-3.8,0.5c-1.3,0.3-2.6,0.5-3.7,0.7
		c-1.3,0.3-2.5,0.6-3.7,1s-2.5,0.8-3.6,1.3l-3.5,1.5l-3.4,1.9l-3.3,2.2l0.2-0.2c-2.4,6.5-4.7,13.1-5.7,19.9
		c-0.5,3.4-0.6,6.9-0.2,10.3c0.4,3.4,1.2,6.8,1.6,10.3c0.2,1.8,0.3,3.5,0.2,5.4c-0.1,1.8-0.4,3.5-0.7,5.3s-0.6,3.4-0.7,5.2
		c-0.1,1.7,0.1,3.4,0.6,5.1c0.9,3.3,2.7,6.2,4.5,9.2l5.5,8.8c1.9,2.9,3.5,5.9,5.9,8.4c1.2,1.1,2.5,2.2,4,2.8s3.2,0.9,4.7,0.9
		c3.3,0,6.5-0.9,9.7-2.2c3.2-1.2,6.2-2.5,9.3-3.9s6-2.9,8.9-4.7c1.4-0.9,2.8-2,4-3.1c1.3-1.1,2.5-2.4,3.5-3.7c2.2-2.7,3.7-5.8,5.1-9
		C216.8,134.4,217.8,131.1,218.8,127.8z"/>
</g>
<g>
	<path class="st6" d="M96,294.2c-0.6-0.7-1.2-1.5-1.3-2.4c-0.1-1.2,0.8-2.4,2-3.1s2.6-1,4-1.2c4.1-0.7,8.3-1.4,12.3-0.7
		c0.3,0,0.6,0.1,0.7,0.3c0.2,0.2,0.3,0.5,0.4,0.8c0.3,1.5,0.5,3.1,0.8,4.6c-1.2,0.3-2.4,0.1-3.5-0.1c-2.8-0.4-5.7-0.2-8.5,0.1
		c-2.7,0.3-4.8,0.3-6.7,2.1"/>
	<path class="st4" d="M96,294.2c-0.4-0.4-0.9-0.9-1.2-1.5c-0.3-0.6-0.5-1.3-0.3-2s0.6-1.3,1-1.7c0.5-0.5,1-0.9,1.6-1.2
		c1.2-0.6,2.5-0.9,3.7-1.2c1.2-0.3,2.4-0.5,3.7-0.7c2.5-0.4,5-0.6,7.6-0.3c0.3,0,0.6,0.1,1,0.1c0.3,0.1,0.7,0,1.4,0.5
		c0.2,0.2,0.4,0.5,0.5,0.8s0.1,0.5,0.2,0.6l0.2,0.9l0.6,3.7l0.1,0.9l-0.8,0.2c-1,0.3-2,0.2-2.8,0.1l-1.2-0.2
		c-0.4-0.1-0.8-0.1-1.2-0.2c-1.5-0.2-3.1-0.2-4.7-0.2l-4.8,0.2c-0.8,0-1.6,0.1-2.3,0.3c-0.7,0.2-1.5,0.6-2.1,1.1
		c0.5-0.6,1.2-1.2,1.9-1.5c0.7-0.4,1.6-0.6,2.4-0.8c0.8-0.2,1.6-0.3,2.4-0.4s1.6-0.3,2.4-0.3c1.6-0.2,3.3-0.3,4.9-0.2
		c0.4,0,0.9,0.1,1.2,0.1l1.2,0.2c0.8,0.1,1.4,0.1,2-0.1l-0.7,1.1l-0.7-3.6c-0.1-0.5-0.3-1.5-0.2-1.2c0.1,0.1-0.1,0-0.4-0.1
		c-0.3,0-0.6-0.1-0.9-0.1c-1.2-0.2-2.4-0.2-3.6-0.2s-2.4,0.1-3.6,0.2s-2.4,0.3-3.6,0.5s-2.4,0.3-3.5,0.7c-1.1,0.4-2.1,1.1-2.5,2.1
		c-0.2,0.5-0.2,1.1,0,1.6C95.3,293.1,95.7,293.6,96,294.2z"/>
</g>
<path class="st14" d="M181.7,113.5c1.3-0.9,2.7-1.4,4.3-2c0.4-0.2,1.3-0.4,1.8-0.5c0.6-0.1,1.5-0.3,2.1-0.4c2.1-0.1,2.7-0.5,4.6-0.3
	c0.8,0.1,1.9,0.3,2.7,0.4c1.9,0.3,3.5,1.2,4.9,1.9c0.1,0.1,0.2,0.2,0.2,0.2c0,0.1-0.1,0.2-0.2,0.2c-1.5,1.1-3.3,2-5.2,2.7
	c-0.7,0.2-1.4,0.5-2.2,0.6c-1,0.2-2,0.2-3.2,0.3c-5.3,0.2-7.8-0.5-11.7-1c-0.1,0-0.3-0.1-0.4-0.2s0-0.2,0.1-0.2
	C180.3,114.9,180.9,114.2,181.7,113.5z"/>
<g>
	<path class="st2" d="M182.1,112.4c0,0,0.4-0.7,1.2-1.7s2-2.1,3.5-2.9c0.7-0.4,1.4-0.7,2.2-0.9c0.7-0.2,1.5-0.2,2.1-0.2
		c1.2,0,2,0.1,2,0.1l0,0c0,0-0.2,0-0.5,0.1c-0.3,0-0.8,0.1-1.4,0.2c-0.6,0.1-1.3,0.2-2,0.3c-0.7,0.1-1.4,0.4-2.1,0.8
		c-1.4,0.7-2.7,1.8-3.6,2.6C182.6,111.7,182.1,112.4,182.1,112.4L182.1,112.4z"/>
</g>
<g>
	<path class="st6" d="M268.2,296c-1.4,1.9-2.6,3.9-3.7,5.9c11.2,2.4,21.6,8.7,28.8,17.5c1.8-3.2,3.6-6.4,5.2-9.7
		c-7.9-4.6-16.1-8.7-24.5-12.3c-1.9-0.8-4-1.6-6.1-1.2"/>
	<path class="st4" d="M268.3,296.1c-1.3,1.9-2.5,3.9-3.5,6l-0.2-0.3l2.1,0.5l2.1,0.5l2.1,0.6l2,0.7l2,0.8l2,0.9l1.9,1l1.9,1.1
		l1.8,1.1l1.8,1.2l1.7,1.3l1.7,1.4l1.6,1.4l1.6,1.5l1.5,1.6l1.4,1.6l-1.3,0.1l5-9.7l0.4,1.3l-3.7-2l-3.7-2c-2.5-1.3-4.9-2.6-7.4-3.9
		s-5-2.6-7.5-3.8c-1.3-0.6-2.5-1.3-3.8-1.8s-2.6-0.9-4-0.7v-0.2c1.4-0.4,2.9-0.2,4.3,0.2c1.4,0.4,2.7,0.9,4,1.4
		c2.6,1,5.2,2.1,7.8,3.3l3.8,1.8c1.3,0.6,2.5,1.3,3.8,1.9s2.5,1.3,3.7,2s2.4,1.4,3.7,2.1l0.8,0.5l-0.4,0.8l-5.4,9.7l-0.5,1l-0.7-0.9
		l-1.3-1.6l-1.4-1.6l-1.5-1.5l-1.6-1.4l-1.6-1.4l-1.7-1.3l-1.7-1.2l-1.8-1.2l-1.8-1.1l-1.9-1l-1.9-0.9l-1.9-0.9l-2-0.8l-2-0.7
		l-2-0.6l-2.1-0.5l-0.3-0.1l0.1-0.3c1.1-2.1,2.4-4,3.8-5.9H268.3z"/>
</g>
<g>
	<path class="st2" d="M202.5,112.1c0,0,0,0.2,0.1,0.6s0.1,0.9,0,1.4c0,0.3-0.1,0.5-0.2,0.7c-0.1,0.2-0.2,0.4-0.3,0.6
		c-0.2,0.3-0.4,0.5-0.4,0.5l0,0c0,0,0-0.3,0.1-0.6c0-0.2,0.1-0.4,0.2-0.6c0.1-0.2,0.2-0.4,0.3-0.7c0.2-0.5,0.2-0.9,0.2-1.3
		C202.5,112.4,202.5,112.2,202.5,112.1L202.5,112.1z"/>
</g>
<g>
	<path class="st2" d="M167.1,106.8c0,0,0.1,0.1,0.2,0.4c0.1,0.2,0.4,0.6,0.5,1.1c0.5,0.9,1,2.5,1.2,4.3c0.2,1.9-0.2,4.1-0.5,6.4
		c-0.2,1.1-0.5,2.4-0.8,3.5s-0.8,2.4-1.3,3.5c-0.9,2.3-2.1,4.4-3.3,6.4c-0.6,0.9-1.2,1.9-1.4,2.8c-0.1,0.2-0.1,0.4-0.2,0.7
		c0,0.2,0,0.4,0,0.6c0,0.4,0.1,0.9,0.3,1.2c0.3,0.8,0.7,1.3,1.3,1.8c0.5,0.3,1.1,0.5,1.5,0.5c0.5,0,0.8-0.1,1.1-0.1
		c0.3-0.1,0.4-0.1,0.4-0.1v0.1c0,0-0.1,0.1-0.4,0.2c-0.3,0.1-0.6,0.3-1.1,0.3c-0.5,0.1-1.1,0-1.8-0.3c-0.6-0.3-1.4-1-1.7-1.9
		c-0.2-0.4-0.4-1-0.4-1.5c0-0.3,0-0.5,0-0.8c0-0.2,0.1-0.6,0.2-0.8c0.3-1.1,1-2.1,1.5-3c1.2-1.9,2.4-3.9,3.3-6.2
		c0.5-1.1,0.9-2.2,1.3-3.3c0.4-1.1,0.6-2.3,0.9-3.4c0.5-2.3,0.8-4.4,0.7-6.3s-0.5-3.3-1-4.3c-0.2-0.5-0.4-0.8-0.5-1.1
		C167.1,107,167,106.9,167.1,106.8L167.1,106.8z"/>
</g>
<path class="st14" d="M168.4,146.1c0.3,1,1.5,1.8,1.5,2.8c0,0.4-0.2,1,0.2,1.3c0.1,0.1,0.3,0.1,0.4,0.1c0.9,0.1,1.7,0.3,2.7,0.4
	c0.3,0,0.7,0.1,1,0s0.5-0.2,0.8-0.3c0.6-0.2,1.2-0.1,1.8-0.3c0.3-0.1,0.6-0.3,0.9-0.5c2.5-1.7,5.2-3.5,6.2-6.4
	c-1.3,0.1-2.5,0.9-3.8,1.4c-0.5,0.2-1.1,0.3-1.7,0.4C175.1,145.8,171.8,146.1,168.4,146.1"/>
<g>
	<path class="st2" d="M167.8,139.6L167.8,139.6c-0.1,0-0.2,0-0.3-0.2c-0.1-0.1-0.2-0.3-0.2-0.5s0.2-0.4,0.4-0.5s0.5-0.1,0.8,0
		c0.2,0,0.5,0.2,0.8,0.4c0.5,0.3,0.9,0.7,1.3,0.6h0.1l0,0l0,0c-0.1,0,0,0,0,0l0,0l0,0h0.1c0.1,0,0.1,0,0.1,0c0.1,0,0.1-0.1,0.2-0.2
		c0.1-0.2,0.2-0.4,0.3-0.5c0.1-0.4,0.2-0.9,0.1-1.2c0-0.4-0.2-0.7-0.3-0.9s-0.2-0.3-0.2-0.3l0.1-0.1c0,0,0.2,0,0.4,0.1
		c0.3,0.1,0.6,0.4,0.7,0.9c0.2,0.4,0.2,1.1,0,1.7c-0.1,0.3-0.2,0.6-0.6,0.9c-0.1,0.1-0.3,0.2-0.5,0.3c-0.1,0-0.2,0.1-0.3,0.1h-0.1
		l0,0l0,0l0,0h-0.1c-0.7-0.1-1.2-0.6-1.6-0.9s-0.8-0.5-1.2-0.4c-0.1,0-0.3,0.1-0.3,0.3s0,0.2,0.1,0.4
		C167.7,139.6,167.8,139.5,167.8,139.6L167.8,139.6z"/>
</g>
<g>
	<path class="st2" d="M190,139.1c0,0,0.2,0.1,0.4,0.4c0.2,0.2,0.4,0.6,0.6,0.9c0.3,0.7,0.4,1.5,0.4,1.5s-0.1,0-0.1-0.1
		c-0.1-0.1-0.2-0.2-0.2-0.3c-0.2-0.2-0.4-0.6-0.6-0.9c-0.2-0.4-0.3-0.7-0.3-1C190.2,139.5,190.2,139.3,190,139.1
		C190,139.1,190,139.1,190,139.1z"/>
</g>
<g>
	<path class="st4" d="M167.3,145.5c0,0,0.3,0.1,0.7,0.4c0.4,0.3,0.9,0.8,1.3,1.4c0.3,0.6,0.5,1.3,0.5,1.9c0,0.5,0,0.8,0,0.8
		s-0.1-0.3-0.3-0.8s-0.4-1-0.7-1.7c-0.2-0.3-0.3-0.5-0.5-0.8c-0.2-0.2-0.3-0.5-0.5-0.6c-0.2-0.2-0.3-0.3-0.4-0.4
		C167.4,145.6,167.3,145.5,167.3,145.5z"/>
</g>
<g>
	<path class="st4" d="M168.6,149.9c0,0,0.3,0.1,0.8,0.3s1.2,0.3,2,0.4c0.9,0.1,1.9,0.1,3-0.1c1.1-0.2,2.2-0.5,3.3-1
		c1-0.5,2-1.1,2.9-1.9s1.5-1.4,2.1-2.2c0.5-0.7,1-1.3,1.2-1.8c0.3-0.4,0.4-0.7,0.4-0.7s-0.1,0.3-0.3,0.7c-0.2,0.5-0.6,1.1-1.1,1.9
		c-0.5,0.7-1.2,1.5-2,2.4c-0.8,0.7-1.8,1.4-3,2.1c-1.1,0.5-2.2,0.8-3.5,1c-1.1,0.1-2.2,0.1-3.1-0.1c-0.9-0.1-1.6-0.4-2-0.6
		C168.8,150.1,168.6,149.9,168.6,149.9z"/>
</g>
<g>
	<path class="st6" d="M165.4,144.4c0,0,0.1,0.1,0.2,0.2c0.1,0.1,0.3,0.2,0.6,0.4c0.5,0.3,1.4,0.5,2.4,0.5s2.2-0.1,3.7-0.1
		c1.3-0.1,2.8-0.2,4.1-0.5l0.2-0.1c0,0,0.1,0,0.2-0.1l0.5-0.2c0.3-0.1,0.7-0.2,1-0.3c0.7-0.2,1.3-0.4,1.9-0.6
		c1.3-0.4,2.4-0.8,3.6-1.1c1-0.3,1.8-0.7,2.4-0.9c0.6-0.2,0.9-0.4,0.9-0.4s-0.1,0.1-0.2,0.2c-0.1,0.1-0.3,0.3-0.5,0.5
		c-0.5,0.4-1.2,1-2.1,1.7c-0.9,0.6-2.1,1.2-3.4,1.8c-0.6,0.3-1.2,0.6-2,0.8c-0.3,0.1-0.7,0.2-1,0.4l-0.5,0.2c-0.1,0-0.1,0-0.3,0.1
		l-0.3,0.1c-1.5,0.4-3.2,0.4-4.5,0.3c-0.7,0-1.3-0.1-2-0.2c-0.6-0.1-1.2-0.2-1.8-0.3c-1.1-0.3-2-0.8-2.4-1.3
		c-0.2-0.2-0.4-0.5-0.5-0.6C165.4,144.5,165.4,144.4,165.4,144.4z"/>
</g>
<g>
	<path class="st2" d="M171.2,153.4c0,0,0.1,0,0.3,0.1s0.5,0.1,0.8,0.2c0.3,0.1,0.7,0.1,1.2,0.2c0.4,0,0.9,0,1.3,0
		c0.5,0,0.9-0.1,1.3-0.2c0.4-0.1,0.8-0.2,1.1-0.3s0.6-0.2,0.8-0.3s0.3-0.1,0.3-0.1s-0.3,0.3-1,0.7c-0.6,0.4-1.6,0.6-2.5,0.7
		c-0.5,0-1,0-1.4-0.1s-0.9-0.2-1.2-0.3s-0.6-0.3-0.8-0.4C171.3,153.4,171.2,153.4,171.2,153.4z"/>
</g>
<path class="st0" d="M177.4,107.5c-0.6,0.6,2.9,1.3,3.7,1.1c0.8-0.2,13-5.5,13.6-5.6c0.9-0.2,1.9,0.1,2.9,0.4
	c3.1,1.1,6.1,2.3,9.2,3.4c-3.5-2.3-7.1-4.2-10.9-5.9c-0.3-0.1-0.6-0.3-1-0.3c-0.8-0.1-8.3,2.8-11.2,4
	C181.7,105.5,177.4,107.5,177.4,107.5z"/>
<path class="st15" d="M187.9,111.4c-1.2,1-1.4,2.9-0.3,4.1c0.9,1,2.4,1.3,3.8,1.3c0.3,0,0.6,0,0.8-0.2c0.3-0.1,0.8-0.2,1.1-0.5
	c0.7-0.5,0.6-0.4,0.9-1.2c0.3-0.6,0.3-1.1,0.3-1.7c0-0.4,0-0.9-0.2-1.2c-0.3-0.7-1-1-1.8-1.2s-1.5-0.1-2.3,0
	c-0.7,0.1-1.4,0.1-2.1,0.3C188.1,111.1,187.9,111.1,187.9,111.4"/>
<path class="st14" d="M165.9,113c-0.9-0.8-1.9-1.7-3.1-2.3c-0.3-0.1-0.6-0.3-0.9-0.4c-0.4-0.1-1.2-0.3-1.7-0.3
	c-1.6-0.1-2.3-0.1-3.8,0.1c-0.6,0.1-1.5,0.2-2.1,0.3c-1.4,0.3-2.5,1.2-3.6,2c-0.1,0.1,0.2,0.3,0.2,0.4s0.1,0.2,0.2,0.3
	c1.1,1,2,1.7,3.4,2.4c0.5,0.2,1,0.5,1.6,0.7c0.7,0.1,1.5,0.2,2.4,0.3c4,0.2,5.9-0.5,8.7-0.9c0.1,0,0.2-0.1,0.3-0.2s0-0.2-0.1-0.2
	C166.8,114.3,166.4,113.7,165.9,113z"/>
<g>
	<path class="st2" d="M165.6,111.6c0,0-0.3-0.6-0.9-1.4c-0.6-0.8-1.4-1.9-2.4-2.7c-0.5-0.4-1-0.7-1.6-0.9c-0.5-0.2-1.1-0.3-1.6-0.4
		c-1-0.1-1.6-0.2-1.6-0.2l0,0c0,0,0.6-0.1,1.6,0c0.5,0,1.1,0.1,1.7,0.3c0.6,0.2,1.1,0.6,1.6,1.1c1,0.9,1.8,2,2.3,2.8
		C165.4,110.9,165.6,111.6,165.6,111.6L165.6,111.6z"/>
</g>
<path class="st15" d="M160.5,109.9c-1.6,0-3.1,1.3-3.1,2.7c0,1.1,0.8,2.1,1.9,2.9c0.2,0.2,0.4,0.2,0.7,0.3c0.2,0.1,0.8,0.2,1.1,0.2
	c0.8,0,0.7,0,1.6-0.4c0.6-0.3,1-0.6,1.4-1.1c0.3-0.3,0.6-0.6,0.7-1c0.2-0.6,0-1.2-0.4-1.7s-1-0.8-1.7-1.2c-0.5-0.3-1.1-0.6-1.7-0.8
	C160.8,109.8,160.6,109.8,160.5,109.9"/>
<ellipse transform="matrix(-0.9999 -1.030748e-02 1.030748e-02 -0.9999 384.2973 226.4407)" class="st14" cx="192.7" cy="112.2" rx="1" ry="0.9"/>
<path class="st0" d="M167.2,105.7c0.5,0.6-2.2,1.5-3,1.3c-0.7-0.2-10.9-4.4-11.4-4.5c-0.8-0.2-1.5,0.2-2.2,0.6
	c-2.4,1.3,0.9-0.5-1.5,0.8c-0.3-2.1-0.2-1.5,2.8-3.5c0.3-0.2,0.5-0.3,0.8-0.4c0.6-0.2,6.9,2.2,9.4,3.2
	C163.5,103.9,167.2,105.7,167.2,105.7z"/>
<ellipse transform="matrix(-0.9997 2.330206e-02 -2.330206e-02 -0.9997 329.3097 221.4736)" class="st14" cx="163.4" cy="112.7" rx="1.1" ry="1"/>
<g>
	<g>
		<path class="st4" d="M167.3,114.9c-1.5-2.7-2.4-4.5-6.5-5.1c-4.4-0.7-7.9,0.6-11.7,2.4c-0.9,0.4-0.1,1.1,0.7,0.7
			c2.9-1.4,5.9-2.6,9.3-2.2c4,0.4,5.1,2.2,6.5,4.7C166,115.8,167.7,115.4,167.3,114.9L167.3,114.9z"/>
	</g>
</g>
<g>
	<g>
		<path class="st4" d="M179.9,115.5c5.4-5.2,14.2-6.3,21.3-2.7c0.4,0.2,1.8-0.2,1.5-0.5c-8.2-4.1-18.2-2.8-24.3,3.2
			C178.1,115.9,179.6,115.8,179.9,115.5L179.9,115.5z"/>
	</g>
</g>
<g>
	<g>
		<path class="st4" d="M152.3,111.3c-0.9-0.1-1.9,0.1-2.8,0.7c-0.2,0.1-0.5,0.2-0.2,0.4c0.3,0.1,0.9-0.1,1.1-0.2
			c0.3-0.2,0.5-0.2,0.8-0.1c0.4,0,0.8-0.1,1.1-0.3C152.7,111.4,152.6,111.3,152.3,111.3L152.3,111.3z"/>
	</g>
</g>
<g>
	<g>
		<path class="st4" d="M153.2,110.4c-0.4,0-0.8,0-1.3,0c-0.3,0-0.9,0.1-1,0.4c-0.2,0.3,0.2,0.4,0.4,0.4c0.4,0,0.8,0,1.3,0
			c0.3,0,0.9-0.1,1-0.4C153.8,110.5,153.5,110.4,153.2,110.4L153.2,110.4z"/>
	</g>
</g>
<g>
	<g>
		<path class="st4" d="M199.3,111.7c0.4,0,0.8,0,1.3,0c0.3,0,0.9-0.1,1-0.4c0.2-0.3-0.2-0.5-0.4-0.5c-0.4,0-0.8,0-1.3,0
			c-0.3,0-0.9,0.1-1,0.4C198.7,111.6,199,111.7,199.3,111.7L199.3,111.7z"/>
	</g>
</g>
<path class="st0" d="M230.3,95.6c-1.3-0.9-3-1.2-4.6-1.2c-0.8,0-1.7,0.1-2.4,0.4c-1.6,0.8-2.2,2.7-2.4,4.5c-0.1,1.1-0.2,2.2,0.4,3.2
	c0.7,1.3,2.3,1.9,3.7,1.9c0.8,0,1.7-0.1,2.4-0.6c0.5-0.4,0.9-1,1.2-1.5c0.7-1.2,1.3-2.4,1.5-3.8c0.2-0.9,0.1-2-0.7-2.6
	c-0.3-0.2-0.8-0.3-1.1-0.7"/>
<g>
	<g>
		<path class="st4" d="M202,111.9c0.2-0.1,0.4-0.1,0.5-0.2c0.2-0.1,0.6-0.3,0.4-0.6c-0.2-0.3-0.8-0.1-1,0s-0.4,0.1-0.5,0.2
			c-0.2,0.1-0.6,0.3-0.4,0.6C201.1,112.1,201.8,111.9,202,111.9L202,111.9z"/>
	</g>
</g>
<g>
	<g>
		<path class="st4" d="M202.9,112.6c0.2-0.2,0.5-0.4,0.7-0.6c0.3-0.2-0.3-0.3-0.4-0.3c-0.4,0-0.8,0.1-1,0.4
			c-0.2,0.2-0.5,0.4-0.7,0.6c-0.3,0.2,0.3,0.3,0.4,0.3C202.2,112.9,202.6,112.8,202.9,112.6L202.9,112.6z"/>
	</g>
</g>
<g>
	<g>
		<path class="st4" d="M201.1,112.7c0.7-0.1,1.3-0.4,1.6-1.1c0.1-0.3-0.5-0.2-0.6-0.2c-0.3,0-0.8,0.2-0.9,0.5
			c-0.1,0.2-0.1,0.2,0.2,0.1c-0.2,0-0.9,0.2-0.9,0.5C200.5,112.8,201,112.8,201.1,112.7L201.1,112.7z"/>
	</g>
</g>
<g>
	<path class="st1" d="M217.4,105.3c1-0.7,2.1-1.4,3.1-2.2c2-1.3,4.3-2.8,6.5-1.9c1.9,0.7,2.8,3,3.3,5.1c1.1,5.1,0.2,10.5-2.4,15
		c-2.6,4.4-6.8,7.7-11.5,9.1"/>
	<path class="st4" d="M217.4,105.3c0,0,0.6-0.4,1.6-1.2c0.5-0.4,1.2-0.8,1.9-1.4c0.7-0.5,1.6-1.1,2.7-1.5c1.1-0.4,2.4-0.7,3.6-0.1
		c1.3,0.5,2.3,1.8,2.9,3.1c0.3,0.7,0.5,1.4,0.7,2.2c0.1,0.7,0.3,1.4,0.4,2.3c0.2,1.5,0.2,3.1,0,4.6c-0.4,3.1-1.4,6.1-2.9,8.6
		c-0.7,1.2-1.6,2.4-2.5,3.3s-1.8,1.8-2.8,2.4c-1.8,1.3-3.5,2.1-4.7,2.5c-0.6,0.2-1.1,0.3-1.4,0.4c-0.3,0.1-0.5,0.1-0.5,0.1
		s0.7-0.2,1.9-0.7s2.8-1.4,4.4-2.8c0.9-0.7,1.7-1.5,2.6-2.5c0.8-0.9,1.6-2.1,2.3-3.2c1.4-2.4,2.3-5.3,2.7-8.2c0.2-1.4,0.2-3,0.1-4.4
		c-0.1-0.7-0.2-1.4-0.3-2.2c-0.1-0.6-0.3-1.3-0.6-2c-0.5-1.2-1.3-2.3-2.3-2.8s-2.2-0.3-3.2,0s-1.9,0.8-2.7,1.3s-1.4,0.9-2,1.2
		C218,104.9,217.4,105.3,217.4,105.3z"/>
</g>
<g>
	<path class="st1" d="M222.1,125.5c0.5-1.2,1.1-2.6,2.2-3.3c0.4-0.3,0.9-0.5,1.3-0.8c0.4-0.4,0.6-0.9,0.9-1.4
		c0.4-0.9,0.8-1.9,1.2-2.8s0.8-1.9,0.8-2.8c0-0.7-0.2-1.3-0.4-2.1c-0.4-1.5-0.9-3.1-1.3-4.6c-0.2-0.8-0.5-1.7-1.1-2.2
		c-0.7-0.6-1.7-0.6-2.5-0.3c-2.9,0.9-4.5,4-5.8,7c-0.3,0.6-0.6,1.3-0.7,2.1c-0.1,0.7,0,1.3,0.1,2.1c0.2,1.4,2.3,1.4,2.9,2.8
		c0.2,0.5-2.4,5.7-3.4,6.5c0.6,1.1,2,2.3,3.1,2.2c1.1-0.1,2.2-0.8,2.8-2"/>
	<path class="st2" d="M222.1,125.5c0.4-1,0.7-2,1.4-2.9s1.9-1.1,2.3-2.1c0.4-0.9,0.8-2,1.2-2.9c0.4-1,0.8-2,1-2.9
		c0.1-0.9-0.2-1.9-0.5-2.9s-0.6-2.1-0.9-3.1c-0.3-1-0.5-2.1-1-2.8c-0.5-0.6-1.5-0.7-2.3-0.4c-0.5,0.2-0.9,0.4-1.3,0.6
		c-0.4,0.3-0.8,0.6-1.1,0.9c-0.7,0.7-1.3,1.5-1.8,2.5c-0.5,0.9-1,1.9-1.4,2.8c-0.5,0.9-0.8,1.9-0.7,2.8c0,0.4,0.1,1.1,0.2,1.3
		c0.2,0.3,0.6,0.5,1,0.8c0.4,0.2,1,0.5,1.4,1c0.1,0.1,0.2,0.3,0.3,0.4v0.1c0,0.1,0-0.1,0,0.1l0,0l0,0v0.1c0,0.1,0,0.2,0,0.3
		c-0.1,0.3-0.2,0.5-0.3,0.8c-0.4,1-0.9,2-1.5,2.9s-1.1,1.9-2,2.6l0.1-0.4c0.3,0.5,0.7,1,1.1,1.3c0.5,0.4,1,0.7,1.6,0.8
		c0.3,0,0.6,0,0.9-0.1c0.3-0.1,0.6-0.2,0.8-0.4c0.5-0.3,1-0.8,1.3-1.3c-0.5,1.2-1.6,2.2-3,2.2c-0.7,0-1.3-0.3-1.8-0.7
		c-0.5-0.4-1-0.8-1.4-1.4l-0.1-0.2l0.2-0.2c0.7-0.6,1.2-1.7,1.7-2.5c0.5-0.9,1-1.9,1.3-2.8c0.1-0.2,0.2-0.5,0.2-0.6l0,0v-0.1l0,0
		l0,0c0.1,0.2,0,0.1,0,0.1l0,0c0-0.1-0.1-0.2-0.2-0.2c-0.3-0.3-0.7-0.5-1.1-0.7c-0.4-0.2-1-0.5-1.4-1.1c-0.1-0.1-0.2-0.4-0.2-0.5
		v-0.2v-0.2c0-0.3-0.1-0.5-0.1-0.8c0-0.5,0-1.1,0.1-1.8s0.4-1.1,0.6-1.5c0.4-0.9,0.9-2,1.4-2.9s1.1-1.9,1.9-2.7
		c0.4-0.4,0.8-0.7,1.3-1s1-0.6,1.5-0.7c0.6-0.2,1.1-0.3,1.8-0.2c0.6,0.1,1.2,0.4,1.6,0.9c0.4,0.5,0.6,1,0.8,1.5l0.4,1.5
		c0.3,1,0.6,2.1,0.8,3.1s0.6,2.2,0.4,3.3s-0.7,2.1-1.1,3.1c-0.5,0.9-0.8,2-1.4,2.9c-0.3,0.5-0.8,0.8-1.2,1.1
		c-0.5,0.2-0.9,0.5-1.2,0.8C223,123.5,222.5,124.5,222.1,125.5z"/>
</g>
<g>
	<g>
		<path d="M156.7,112.8c0.4,0.9,1,1.9,2,2.5c0.8,0.5,1.9,0.7,2.9,0.7c0.5,0,1.7-0.6,0.6-0.7c-2,0-3.2-1.4-3.8-2.9
			C158.1,112,156.5,112.5,156.7,112.8L156.7,112.8z"/>
	</g>
</g>
<g>
	<g>
		<path d="M186.1,114.3c0.8,1.5,2.4,2.2,4.3,2.3c0.5,0,1.6-0.6,0.6-0.6c-1.4-0.1-2.7-0.9-3.3-2C187.5,113.6,186,114,186.1,114.3
			L186.1,114.3z"/>
	</g>
</g>
<g>
	<path d="M169.7,148.2c0,0,0.1,0,0.2,0c0.1,0,0.2,0,0.3,0s0.3,0,0.5,0s0.4,0.1,0.5,0.1c0.4,0.1,0.8,0.1,1,0.2c0.3,0,0.5,0,0.5,0v0.1
		c0,0-0.2,0.1-0.5,0.1c-0.3,0.1-0.7,0.1-1.1,0.1c-0.2,0-0.4,0-0.6,0c-0.2,0-0.4-0.1-0.5-0.2c-0.1-0.1-0.3-0.2-0.3-0.2
		C169.7,148.3,169.6,148.3,169.7,148.2L169.7,148.2z"/>
</g>
<path d="M182.2,144.1c0.1,0.7,0.1,1.4-0.1,2.2c0.3-0.2,0.5-0.4,0.7-0.7s0.3-0.6,0.5-0.8s0.4-0.4,0.5-0.6c0.2-0.2,0.3-0.5,0.2-0.7
	c-0.2,0.1-0.4,0.2-0.7,0.3c-0.4,0.2-0.9,0.3-1.3,0.5"/>
<path class="st0" d="M179.4,85.2c-4,6.9-10,12.6-17.1,16.2c1.1-1.7,2.2-3.5,3.4-5.2c-3,3-6.5,5.5-10.3,7.4
	c-4.4,2.1-9.8,4.1-11.1,8.8c1.1-6.9,2-13.9,2.7-20.9c0.7-6.6,1.5-13.6,5.4-18.9c4-5.3,10.5-8,16.8-9.9c3.8-1.2,7.7-2.3,11.7-2.2
	c2,0.1,4.2,0.5,5.6,2c1.5,1.6,1.8,4,1.6,6.2c-0.6,6.7-4.9,12.3-9.1,17.5"/>
<path class="st0" d="M185.9,62.6c8.7-2.7,18.3,0.6,25.8,5.9c8.4,5.9,15.4,15,15.5,25.4c0,3.4-0.8,7-3.4,9.1c-1.5,1.2-3.3,1.8-5,2.7
	c-1.6,0.9-3,2.1-4.1,3.5c-3.6-2.4-6.5-5.7-8.6-9.6c-0.2,1.5,0,3.1,0.7,4.5c-3.9-3.8-7.6-7.7-11.1-11.9c0.2,2.8,1,5.6,2.5,7.9
	c-8-0.5-15.3-6.5-17.5-14.3c-0.5-1.8-0.7-3.6-0.8-5.5c-0.5-6.8,1-14.5,6.4-18.5"/>
<g>
	<g>
		<g>
			<path class="st16" d="M136.3,282.4c-3.6-7.1-3.9-14.2-0.5-21.1c3.4-6.9,9.5-11.1,17.6-13.7c-0.2-0.6-0.3-1.1-0.6-2
				c3,0.8,5.7,1.4,8.6,2c-1.5,2.6-2.9,4.9-4.5,7.5c-0.4-0.6-0.6-1-1-1.5c-6.2,1.9-10.8,5.1-13.5,10.2c-2.7,5.2-2.5,10.5,0.2,15.9
				C140.6,280.6,138.5,281.5,136.3,282.4z"/>
			<path class="st16" d="M182,284.4c-1.3-3-2.4-5.6-3.7-8.4c0.8,0.1,1.4,0.2,2.2,0.3c1.4-5.8,0.8-11.5-2.4-16.2
				c-3.1-4.7-7.7-6.9-13.6-7.5c-0.2-2.2-0.4-4.3-0.6-6.6c8.4,0.1,14.9,2.5,19.4,8.9c4.6,6.4,5.4,14.8,3.6,23.3
				c0.8,0.3,1.4,0.6,2.3,1C186.8,281.1,184.5,282.8,182,284.4z"/>
			<path class="st16" d="M142.9,290.1c-0.5,0.3-1,0.6-1.8,1.1c0-2.8,0-5.3,0-8c2.7,0.4,5.5,0.8,8.5,1.3c-0.4,0.5-0.7,0.9-1.2,1.4
				c4.3,3.1,9.2,4.4,14.6,4.2c5.4-0.2,9.8-2.2,13.5-6.1c1.9,1.3,3.8,2.5,5.6,3.8C175.6,297.4,157.6,300.2,142.9,290.1z"/>
			<path class="st16" d="M162.4,272.7c-0.7,1.8-0.5,3,0.5,4.2c0.5,0.6,0.8,1.4,1,1.7c0,1.8,0,3.3,0,4.8c-5.5,1.3-11.9-1.2-14.9-6.3
				c-3-5.1-1.5-11.5,3.6-15.1c0.7,0.6,1.3,1.1,1.8,1.5c0.1,0.4,0.2,0.5,0.2,0.6c-0.5,4.1,2.7,5.8,5.9,7.4
				C161.2,271.9,161.8,272.3,162.4,272.7z"/>
			<path class="st16" d="M164.4,259.1c5.2,0.6,10.8,5.3,10.2,13c-0.4,5.1-4.6,10.4-8.9,10.7c1-1.1,1.7-1.9,2.5-2.8
				c0.6-0.6,1.2-1.2,1.9-1.8c1-0.9,1.4-2,1.2-3.3c-1.9-1.2-3.9-2.4-5.9-3.6c0-0.1,0-0.2,0.1-0.3c-0.9,0.1-1.8,0.2-2.9,0.4
				c-0.9-0.5-2-1.1-3.2-1.8c0.4-0.5,0.6-1,0.9-1.1c1.2-0.2,2.4-0.4,3.8-0.6c0.7-1.5,1.6-3.3,2.5-5.2c-0.8-0.3-1.2-0.4-1.7-0.6
				c-0.6,0.4-1.1,0.7-1.8,1.2c-0.4-0.5-0.9-0.9-1-1.4c-0.1-0.4,0.3-1,0.6-1.4C163.3,260.1,163.9,259.6,164.4,259.1z"/>
			<path class="st16" d="M169.5,304.7c1.1,0.1,1.8,0.1,2.7,0.2c0,0.5,0,0.9,0.1,1.4c-1.2,0-2.1,0-3.3,0c0.7,1.1,1.6,0.1,2.4,0.8
				c0,0.2,0,0.7,0.1,1c-1.7,0.7-2.1,0.6-3.7-0.9c0-0.8,0-1.7,0-2.8c-0.7,0.2-1.3,0.3-2,0.5c-0.2,0.9-0.4,1.8-0.6,2.9
				c-0.6-0.4-1-0.6-1.4-0.9c0.1-0.6,0.2-1,0.3-1.5c-0.2-0.3-0.4-0.7-0.7-1.1c0.1-0.4,0.2-0.9,0.3-1.4c-0.4-0.1-0.7-0.1-1.3-0.2
				c-0.1,1.5-0.3,3-0.4,4.6c-2.1-0.1-1.2-2.4-2.8-2.7c-0.1,0.4-0.2,0.9-0.4,1.6c-0.3,0.1-0.6,0.3-1.1,0.4c-1.2-1.7,0.7-3.1,0-4.7
				c-1.1,0.1-2.3,0.3-3.4,0.4c0,0.2,0.1,0.3,0.1,0.5c0.6,0,1.2-0.1,1.9-0.1c0.2,0.3,0.4,0.7,0.6,1.2c-0.6,0.2-1.1,0.4-1.6,0.6
				c0.3,0.4,0.5,0.9,0.8,1.3c-1,1-1.2,1-3.2,0.3c-1.5-1.8-0.2-3.3,0.3-4.9c1.5-0.5,2.8-1.1,4.3,0c0.3-0.3,0.6-0.6,0.9-0.9
				c0.3,0.1,0.7,0.3,1,0.4c0.1,0.6,0,1.2,0.2,1.7c0.1,0.4,0.5,0.8,1.1,1.5c0.2-1.3,0.3-2.2,0.4-2.9c2.1,0,4,0.1,6,0.2
				c0.5,0.7,0.9,1.3,1.4,1.9c0.2-0.3,0.5-0.6,0.7-1c1.2-0.1,2.3-0.3,3.6-0.4c0.2,0.3,0.4,0.7,0.7,1.1
				C172.8,304.5,170.8,303.4,169.5,304.7z M165.7,303.8c0.5-0.3,0.7-0.5,1.2-0.8c-0.6-0.1-0.9-0.2-1.3-0.3
				C165.6,303,165.6,303.2,165.7,303.8z"/>
			<path class="st16" d="M139.7,301.2c-1,1-2,2-3.1,3.2c0.6,0.4,1,0.5,1.5,0.8c0-0.7,0-1.2,0-1.9c1.5-0.1,2.9-1,4.5-0.2
				c0.3-0.3,0.6-0.6,0.9-0.9c-0.1-0.5-0.2-0.9-0.3-1.4c1.1-1,1.8-1.1,2.7-0.6c1.2,0.7,1.3,2,0.3,3.9c0.4,0.2,0.8,0.4,1.2,0.5
				c0.2-0.6,0.5-1.2,0.7-1.9c-0.1-0.3-0.2-0.8-0.3-1.1c0.3-0.8,0.8-0.9,4.3-1.3c0.2,0.3,0.4,0.7,0.7,1.2c-0.6,0.2-1.1,0.4-1.6,0.5
				c-0.5,0.1-1,0.3-1.4,0.7c0.5,0,1-0.1,1.8-0.1c0.1,0.4,0.3,0.8,0.5,1.3c-0.7,0.1-1.1,0.1-1.6,0.2c-0.4,0.1-0.8,0.2-1.2,0.2
				c0,0.1,0,0.2,0.1,0.3c0.5,0.1,1,0.1,1.7,0.2c0.1,0.4,0.1,0.8,0.2,1.3c-1.4,0.7-2.4,0-3.4-0.7c-1.6,1.6-2.1-0.5-3.4-0.8
				c-0.1,0.5-0.2,1-0.2,1.5c-1.1,0-1.1,0-1.6-2.2c-0.3,1-0.6,2.1-0.9,3.3c-0.3,0-0.6,0-1.1,0.1c-0.1-0.5-0.2-0.9-0.3-1
				c-1.4-0.1-2.7-0.2-4-0.3c-0.3-0.7-0.5-1.3-0.7-1.7c0.6-1.9,2-3.2,3.7-4.1c0.4-0.2,1.2-0.2,1.6,0c0.6,0.3,0.8,1,0.2,1.7
				C140.8,301.8,140.4,301.6,139.7,301.2z M145.6,301.7c-0.1,0-0.3-0.1-0.4-0.1c-0.1,0.3-0.1,0.6-0.2,0.9c0.1,0,0.2,0,0.3,0.1
				C145.4,302.3,145.5,302,145.6,301.7z"/>
			<path class="st16" d="M177.2,307.9c-0.2,0.6-0.3,1.2-0.4,1.7c-1.5-0.1-1-1.3-1.4-2c-0.5-0.1-1-0.1-1.5-0.2
				c-0.6,0.4-0.4,1.6-1.9,0.9c0-2.2,2-3.5,2.7-5.4c0,0,0.1-0.1,0.1-0.1c0.5,0,0.9,0.1,1.4,0.2c0.3,0.7,0.6,1.4,0.8,1.8
				c1.3-0.4,2.6-0.7,3.8-1c0.6,0.6,1,1,1.5,1.6c-0.2,0.6-0.4,1.2-0.8,2.3c-0.6-1-1-1.5-1.4-2.1c-0.8,0.1-1.6,0.4-1.6,1.5
				c1.4,1.5,1.5,1.6,3.5,1.2c0.4-1.1,0.8-2.2,1.2-3.5c1.8,0.1,3.7,0.2,5.7,0.3c0.1,0.8,0.2,1.3,0.3,1.9c-1.7,0.2-3.4-1-4.9,0
				c0.6,0.2,1.2,0.4,1.9,0.6c0.2,0.3,0.4,0.7,0.9,1.4c-1.3-0.1-2.3-0.1-3.3-0.2c0,0.1,0,0.2,0,0.3c0.8,0.2,1.5,0.4,2.6,0.7
				c-0.2,0.6-0.1,1.2-0.4,1.3c-1.2,0.4-2.5,0.1-3.6-1.1C180.8,311,179.8,310.6,177.2,307.9z M175.7,304.9c-0.1-0.1-0.2-0.1-0.3-0.2
				c-0.1,0.2-0.2,0.4-0.4,0.6c0.1,0.1,0.1,0.1,0.2,0.2C175.4,305.3,175.6,305.1,175.7,304.9z"/>
			<path class="st16" d="M161.6,258.9c-0.2,0.7-0.3,1.3-0.4,1.8c-1.3,1.1-2.6,1-4.1,0.8c-0.3-0.4-0.6-0.8-1-1.4
				C157.9,259.2,159.6,258.9,161.6,258.9z"/>
		</g>
	</g>
</g>
</svg>
