<?xml version="1.0" encoding="utf-8"?>
<!-- Generator: Adobe Illustrator 19.0.1, SVG Export Plug-In . SVG Version: 6.00 Build 0)  -->
<svg version="1.1" id="Layer_1" xmlns="http://www.w3.org/2000/svg" xmlns:xlink="http://www.w3.org/1999/xlink" x="0px" y="0px"
	 viewBox="0 0 360 504" style="enable-background:new 0 0 360 504;" xml:space="preserve">
<style type="text/css">
	.st0{fill:#444444;}
	.st1{fill:#FFFFFF;}
	.st2{fill:none;stroke:#000000;stroke-miterlimit:10;}
	.st3{fill:#D6AA7F;}
	.st4{fill:none;stroke:#000000;stroke-width:1.0763;stroke-miterlimit:10;}
	.st5{fill:#BABABA;}
	.st6{fill:#AD8C6D;}
	.st7{fill:#232323;}
	.st8{fill:#282828;}
	.st9{fill:#232323;stroke:#000000;stroke-miterlimit:10;}
	.st10{fill:#332D29;stroke:#2D2621;stroke-width:1.0015;stroke-miterlimit:10;}
	.st11{fill:#231F20;}
	.st12{fill:#685438;}
	.st13{font-family:'Varsity-Regular';}
	.st14{font-size:38.7891px;}
	.st15{font-family:'Krungthep';}
	.st16{font-size:12px;}
	.st17{fill:#332D29;}
	.st18{fill:#2D2621;}
</style>
<g>
	<path class="st0" d="M249.3,401c2.8,7.5,4,15.5,5.1,23.4c3.7,26.3,7.8,52.8,5.6,79.2h-61.3c0.3-4.3-0.9-8.5-2.2-12.5
		c-4.4-13.8-8.7-27.6-13.1-41.4c1.3,9.8-2.4,19.5-4.6,29.2c-1.8,7.8-3.2,15.7-3.1,23.7h-64.8c-0.2-32,0.8-64.1,3.4-96"/>
	<path d="M249.4,401c1.5,4,2.6,8.3,3.4,12.5c0.8,4.2,1.4,8.5,2,12.8c1.2,8.5,2.5,17.1,3.6,25.7c0.5,4.3,1,8.6,1.4,12.9
		c0.4,4.3,0.7,8.6,0.9,12.9c0.1,2.2,0.2,4.3,0.2,6.5c0,2.2,0.1,4.3,0,6.5l0,3.2l-0.1,3.2c-0.1,2.2-0.3,4.3-0.4,6.5l0,0.4l-0.5,0
		l-61.3,0.2l-0.7,0l0.1-0.7c0.2-2.3-0.1-4.5-0.6-6.8c-0.5-2.2-1.2-4.5-2-6.7l-4.3-13.4l-8.5-26.8l1.6-0.4l0.2,1.7
		c0,0.6,0.1,1.1,0.1,1.7c0,1.1,0,2.3-0.1,3.4c-0.1,1.1-0.2,2.3-0.3,3.4c-0.1,1.1-0.3,2.2-0.5,3.4c-0.8,4.5-2.1,8.8-3.2,13.1
		c-1.1,4.3-2,8.7-2.7,13.1c-0.7,4.4-1.1,8.8-1,13.2l0,1l-1,0l-32.4,0l-16.2,0l-16.2-0.1l-0.9,0l0-0.9c0-8,0-16,0.2-24
		c0.1-4,0.2-8,0.3-12l0.5-12l0.6-12c0.2-4,0.5-8,0.7-12c0.6-8,1.2-16,2-24l0.2,0c-0.5,8-1,16-1.3,24l-0.5,12l-0.4,12l-0.2,12
		l-0.1,12c-0.1,8,0,16,0.1,24l-0.9-0.9l16.2-0.1l16.2,0l32.4,0l-1,1c0-4.5,0.4-9.1,1.1-13.5c0.7-4.5,1.7-8.8,2.8-13.2
		c1.1-4.4,2.4-8.6,3.3-13c0.2-1.1,0.4-2.2,0.6-3.3c0.2-1.1,0.3-2.2,0.3-3.3c0.1-1.1,0.1-2.2,0.1-3.3c0-0.5,0-1.1-0.1-1.6l-0.2-1.6
		l-0.8-8l2.4,7.6l8.4,26.8l4.2,13.4c0.7,2.2,1.4,4.5,1.9,6.8c0.5,2.3,0.8,4.7,0.6,7.2l-0.7-0.7l61.3,0.2l-0.5,0.4
		c0.1-2.1,0.3-4.3,0.4-6.4l0.1-3.2l0.1-3.2c0.1-2.2,0-4.3,0-6.5c0-2.2-0.1-4.3-0.2-6.5c-0.2-4.3-0.5-8.6-0.8-12.9
		c-0.4-4.3-0.8-8.6-1.3-12.9c-1-8.6-2.2-17.1-3.4-25.7c-1.2-8.5-2.3-17.2-5.3-25.3L249.4,401z"/>
</g>
<g>
	<path class="st1" d="M248.4,254.9c10.6-2.5,21.2-5.3,31.7-8.3c1.1-0.3,2.3-0.7,2.8-1.8c0.4-0.8,0.2-1.7,0-2.6
		c-4.5-18.9-10.7-37.8-21.8-53.8c-2.7-3.9-5.8-7.7-9.8-10.1c-3-1.8-6.3-2.8-9.6-3.8c-10.4-3.1-20.8-6.2-31.2-9.3
		c-5.5-1.6-11-3.3-16.7-3.6c-4.7-0.3-9.4,0.3-14.1,0.9c-5.1,0.7-10.2,1.3-15.3,2c-12.7,1.7-26,3.5-36.2,11.2
		c-2.2,1.6-4.3,3.6-6.7,4.8c-2.5,1.2-5.4,1.7-8.1,2.6c-7.8,2.5-14.2,8.4-18.6,15.3c-4.4,6.9-7.1,14.8-9.2,22.7
		c-3.8,13.7-6.3,27.8-7.5,42c9.9,1.7,19.8,3.4,29.7,5.1c1.4,0.2,2.8,0.5,4,1.3c1.6,1.2,2.2,3.2,2.7,5c5,19.1,1,39.5,3.3,59.1
		c1,8.1,3,16.4,0.6,24.1c-2.9,9.4,0.6,19.9-2.6,29.1c-0.7,2.1-1.6,4.1-2.3,6.2c-1.5,4.5-1.9,9.4-1.2,14.1c11.2,2.2,22.7,3,34.1,3.6
		c15.2,0.9,30.5,1.6,45.8,0.8c19.7-1,39.3-4.6,58.2-10.7c-2-8.6-2.8-17.4-3.6-26.1c-0.7-7.5-1.4-15.1-2-22.6
		c-0.3-3.4-0.6-6.7-0.4-10.1c0.2-3.2,0.9-6.3,1.2-9.5c0.9-10.6-2.5-21.1-2.7-31.8c-0.3-15.4,6.1-30.4,5.1-45.8"/>
	<path d="M248.4,254.9c7.1-1.7,14.1-3.5,21.1-5.4c3.5-1,7-1.9,10.5-2.9c0.9-0.2,1.7-0.5,2.4-1.1c0.7-0.6,0.7-1.5,0.6-2.4
		c-0.4-1.7-0.8-3.5-1.3-5.3c-3.6-14-8.2-27.9-15.3-40.5c-1.8-3.2-3.7-6.2-5.8-9.2c-2.1-2.9-4.4-5.8-7.2-8c-2.8-2.2-6.2-3.5-9.7-4.6
		l-10.4-3.1l-20.9-6.2c-6.9-2-13.9-4.3-21.1-4.2c-3.6,0-7.2,0.5-10.8,0.9l-10.8,1.4c-7.2,1-14.4,1.8-21.4,3.4
		c-7,1.6-13.9,4.1-19.7,8.4c-1.4,1.1-2.8,2.3-4.3,3.3c-1.5,1.1-3.2,2-5,2.5c-1.8,0.6-3.5,1-5.2,1.5c-1.7,0.5-3.3,1.2-4.9,2
		c-6.3,3.3-11.3,8.8-14.9,15c-3.6,6.2-5.9,13.1-7.8,20c-3.9,13.9-6.4,28.2-7.6,42.7l-0.6-0.8l21.5,3.6l5.4,0.9l2.7,0.5
		c0.9,0.2,1.8,0.3,2.8,0.6c0.5,0.2,0.9,0.4,1.4,0.7c0.1,0.1,0.2,0.1,0.3,0.2l0.3,0.2c0.2,0.2,0.4,0.4,0.6,0.6
		c0.7,0.8,1.2,1.7,1.5,2.6c0.3,0.9,0.6,1.8,0.8,2.7l0.6,2.6c0.7,3.6,1.2,7.2,1.5,10.9c0.3,3.6,0.4,7.3,0.4,10.9
		c0.1,7.3-0.2,14.5-0.1,21.8c0.1,3.6,0.2,7.2,0.6,10.8c0.3,3.6,1,7.1,1.4,10.8c0.4,3.6,0.7,7.3,0.2,11.1c-0.1,0.9-0.3,1.9-0.5,2.8
		l-0.7,2.7c-0.1,0.4-0.2,0.9-0.3,1.3c-0.1,0.4-0.2,0.8-0.2,1.3c-0.1,0.9-0.2,1.7-0.3,2.6c-0.2,3.5,0,7.2,0,10.8c0,1.8,0,3.7-0.2,5.5
		c-0.2,1.9-0.5,3.7-1,5.5c-0.5,1.8-1.3,3.5-1.9,5.2c-0.6,1.7-1.1,3.3-1.5,5.1c-0.7,3.4-0.8,7-0.4,10.5l-0.8-0.8
		c11.3,2.2,22.9,3,34.5,3.7c11.6,0.7,23.2,1.2,34.8,1.1c2.9,0,5.8-0.1,8.7-0.3c2.9-0.1,5.8-0.3,8.7-0.5c2.9-0.2,5.8-0.5,8.6-0.9
		c2.9-0.3,5.7-0.7,8.6-1.2c11.4-1.8,22.7-4.5,33.8-7.9l-0.5,1c-1.4-6-2.2-12.1-2.8-18.2c-0.6-6.1-1.1-12.2-1.6-18.3l-0.8-9.1
		c-0.2-3-0.6-6.1-0.7-9.2c0-1.5,0-3.1,0.1-4.7c0.1-1.6,0.4-3.1,0.6-4.6c0.2-1.5,0.5-3,0.6-4.5c0.1-1.5,0.2-3,0.2-4.5
		c-0.1-6.1-1.2-12.1-2-18.2c-0.4-3-0.7-6.1-0.7-9.2c0-3,0.2-6.2,0.6-9.2c0.8-6.1,2.1-12.1,3.2-18.1c0.5-3,1.1-6,1.3-9.1
		c0.3-3,0.4-6.1,0.3-9.1l0.2,0c0.2,3.1,0.1,6.1-0.1,9.2c-0.2,3.1-0.7,6.1-1.2,9.1c-1,6-2.3,12-3,18.1c-0.3,3-0.5,6-0.5,9.1
		c0.1,3,0.4,6.1,0.8,9.1c0.8,6,2,12.1,2.2,18.3c0,1.5,0,3.1-0.1,4.6c-0.1,1.6-0.3,3.1-0.6,4.6c-0.2,1.5-0.4,3-0.5,4.5
		c-0.1,1.5-0.1,3-0.1,4.5c0.1,3,0.5,6.1,0.7,9.1l0.9,9.1c0.6,6.1,1.1,12.2,1.8,18.3c0.7,6.1,1.5,12.1,2.9,18l0.2,0.7l-0.7,0.2
		c-11.1,3.6-22.5,6.4-34,8.2c-2.9,0.5-5.8,0.9-8.7,1.3c-2.9,0.4-5.8,0.7-8.7,0.9c-2.9,0.3-5.8,0.4-8.7,0.6c-2.9,0.1-5.8,0.2-8.7,0.3
		c-11.7,0.1-23.3-0.4-34.9-1.1c-11.6-0.7-23.3-1.5-34.8-3.7l-0.7-0.1l-0.1-0.7c-0.5-3.7-0.4-7.5,0.4-11.2c0.4-1.8,0.9-3.6,1.6-5.4
		c0.6-1.7,1.4-3.4,1.8-5c0.5-1.7,0.8-3.4,1-5.1c0.2-1.8,0.2-3.5,0.2-5.3c0-3.6-0.2-7.2,0-10.9c0.1-0.9,0.2-1.9,0.3-2.8
		c0-0.5,0.2-0.9,0.2-1.4c0.1-0.5,0.2-0.9,0.3-1.4l0.7-2.6c0.2-0.9,0.4-1.7,0.5-2.6c0.4-3.5,0.2-7.1-0.2-10.6
		c-0.4-3.6-1.1-7.2-1.4-10.8c-0.4-3.6-0.5-7.3-0.6-10.9c-0.1-7.3,0.2-14.5,0.1-21.8c0-3.6-0.1-7.2-0.4-10.8
		c-0.3-3.6-0.8-7.2-1.5-10.7l-0.6-2.7c-0.2-0.9-0.4-1.7-0.7-2.5c-0.3-0.8-0.7-1.5-1.2-2.1c-0.1-0.2-0.3-0.3-0.4-0.4l-0.3-0.2
		l-0.2-0.1c-0.3-0.2-0.7-0.4-1.1-0.5c-0.8-0.3-1.6-0.4-2.5-0.6l-2.7-0.5l-5.4-0.9L77.8,264l-0.6-0.1l0.1-0.7
		c1.2-14.5,3.9-28.9,7.8-42.9c2-7,4.3-14,8-20.3c3.7-6.3,8.9-12,15.4-15.4c1.6-0.9,3.4-1.5,5.1-2.1c1.8-0.5,3.5-0.9,5.2-1.5
		c1.7-0.5,3.2-1.3,4.7-2.4c1.5-1,2.8-2.2,4.3-3.3c5.9-4.4,13-6.9,20.1-8.5c7.1-1.6,14.4-2.4,21.5-3.3l10.8-1.4
		c3.6-0.5,7.2-0.9,10.9-0.9c3.7,0,7.3,0.5,10.9,1.3c3.6,0.8,7,1.9,10.5,2.9l20.8,6.2l10.4,3.1c3.5,1.1,7,2.4,9.9,4.7
		c2.9,2.3,5.2,5.1,7.3,8.1c2.1,3,4,6.1,5.8,9.2c7.1,12.7,11.7,26.6,15.2,40.7c0.4,1.8,0.9,3.5,1.3,5.3c0.1,0.5,0.1,0.9,0,1.4
		c-0.1,0.5-0.3,0.9-0.7,1.3c-0.7,0.7-1.7,0.9-2.5,1.2c-3.5,1-7,2-10.5,2.9c-7,1.9-14,3.7-21.1,5.3L248.4,254.9z"/>
</g>
<path class="st2" d="M240.8,230.7c-0.7,4.3,0.4,8.9,2.9,12.5c0.2,0.3,0.5,0.7,0.6,1.1c0.1,0.4,0.1,0.9,0.1,1.4
	c0.1,2.3,1.2,4.4,2.3,6.5c0.4,0.8,0.8,1.6,1.3,2.4"/>
<g>
	<path class="st3" d="M113.6,270.5c0.3,7,0,14.2-2.2,20.9c-1,3.2-2.4,6.3-3.3,9.5c-0.7,2.5-1.1,5.1-1.4,7.6
		c-0.9,5.9-1.7,11.8-0.2,17.6c0.5,2,1.3,3.9,1.8,5.8c0.7,2.9,0.8,5.8,1,8.8c0.2,5.2,0.4,10.5,0.6,15.7c0.1,3.5,0.3,7.1,1,10.6
		c1.1,5.2,3.6,10.2,6,15.1c1,2,2,4,3.7,5.6c1.1,1,2.4,1.9,3.6,2.8c4.7,3.7,7.3,8.8,9.9,13.7c1,1.9,2.1,4,3.3,5.8
		c2.5,3.5,4.4,7.3,5.7,11.3c-2.1,1.1-5,0.7-7.1-0.5c-2.1-1.1-3.6-2.9-5-4.6c-2.7-3.2-5.6-6.8-5.5-10.8c-0.2,1.3-0.5,2.6-0.7,3.8
		c-0.1,0.6-0.2,1.1-0.1,1.7c0.1,0.6,0.5,1.2,0.9,1.8c3.7,5.3,7.4,10.6,12,15.3c1.5,1.6,3.2,3.8,1.9,5.5c-1.6,2.1-5.5,0.8-7.8-0.7
		c-5.7-3.8-10.6-8.5-14.5-13.7c2.3,6.5,8.3,11.6,14.1,16.4c0.7,0.6,1.5,1.4,1.3,2.2c-0.3,1.3-2.2,1.6-3.8,1.5c-1.8,0-3.6,0-5.1-0.8
		c-1.4-0.7-2.3-1.9-3.8-2.5c-1.3-0.5-2.9-0.5-4.3-0.7c-3.7-0.6-6.6-2.9-9.3-5.1c-0.9-0.7-1.8-1.4-2.6-2.2c-0.9-0.8-1.8-1.5-2.6-2.4
		c-0.9-1.1-1.4-2.3-2-3.5c-3.5-8.3-5.2-17.1-4.8-25.9c0.1-3.2,0.5-6.5,0-9.7c-0.3-2-1-3.9-1.7-5.8c-2.4-6.4-5.1-12.8-7.8-19.2
		c-0.6-1.3-1.1-2.6-1.7-4c-1.6-3.8-3.2-7.5-4.6-11.4c-4.6-12.9-6.3-26.6-5-40c1.4-14.2,2.8-28.3,4.6-42.4
		c12.2-0.1,24.4,1.7,35.9,5.3"/>
	<path d="M113.7,270.5c0.3,6.7,0,13.6-1.9,20.1c-0.9,3.3-2.4,6.3-3.3,9.6c-1,3.2-1.4,6.6-1.9,9.9c-0.5,3.3-0.9,6.7-0.8,10.1
		c0.1,1.7,0.2,3.4,0.6,5c0.4,1.6,0.9,3.2,1.5,4.8c1.1,3.2,1.4,6.7,1.5,10l0.4,10.1c0.1,3.4,0.2,6.8,0.4,10.1
		c0.2,3.4,0.6,6.7,1.7,9.9c1,3.2,2.4,6.3,3.9,9.3c1.5,3,2.7,6.3,5.3,8.5c1.2,1.1,2.7,2,4,3.1c1.3,1.1,2.5,2.4,3.5,3.7
		c2.1,2.7,3.7,5.7,5.3,8.7c0.8,1.5,1.5,3,2.4,4.4c0.8,1.5,1.9,2.8,2.8,4.2c1.8,2.9,3.3,6,4.3,9.2l0.1,0.2l-0.2,0.1
		c-1,0.5-2.2,0.7-3.4,0.7c-1.1-0.1-2.3-0.3-3.3-0.8c-0.5-0.2-1-0.5-1.5-0.8c-0.5-0.3-0.9-0.7-1.3-1c-0.8-0.7-1.6-1.6-2.3-2.4
		c-1.4-1.7-2.9-3.4-4.1-5.3c-0.6-0.9-1.1-2-1.5-3c-0.2-0.5-0.3-1.1-0.4-1.7c-0.1-0.6-0.1-1.1-0.1-1.7l0.6,0.1l-0.7,3.8
		c-0.1,0.6-0.2,1.2-0.1,1.8c0.2,0.5,0.5,1.1,0.9,1.6c1.5,2.1,3,4.2,4.5,6.3c1.5,2.1,3.1,4.1,4.8,6c0.8,1,1.7,1.9,2.6,2.9
		c0.9,0.9,1.8,1.9,2.3,3.3c0.2,0.7,0.3,1.5-0.1,2.1c-0.1,0.2-0.2,0.3-0.3,0.5c-0.1,0.2-0.2,0.3-0.3,0.4c-0.1,0.1-0.3,0.2-0.5,0.3
		l-0.5,0.2c-1.4,0.5-2.8,0.2-4-0.2c-1.3-0.4-2.5-1.1-3.5-1.8c-1.1-0.7-2.1-1.5-3.1-2.3c-4.1-3.2-7.8-6.9-10.9-11.1l0.6-0.3
		c1.6,4.4,4.8,8,8.2,11.2c1.7,1.6,3.5,3.1,5.3,4.7c0.4,0.4,0.9,0.7,1.4,1.3c0.2,0.2,0.4,0.5,0.5,0.9c0.1,0.2,0.1,0.4,0.1,0.6
		c0,0.1,0,0.2-0.1,0.3c0,0.1,0,0.1-0.1,0.2c-0.4,0.8-1.1,1.1-1.6,1.3c-0.6,0.2-1.2,0.3-1.9,0.3c-1.2,0-2.4,0-3.6-0.2
		c-1.2-0.2-2.5-0.6-3.4-1.4c-1-0.7-1.8-1.5-2.9-1.8c-1-0.3-2.2-0.4-3.4-0.5c-2.5-0.3-4.7-1.4-6.7-2.7c-2-1.4-3.8-2.9-5.6-4.4
		c-0.9-0.8-1.9-1.5-2.7-2.4c-0.8-0.9-1.4-2-1.9-3.1c-1-2.2-1.8-4.4-2.5-6.7c-1.4-4.6-2.3-9.3-2.6-14.1c-0.2-2.4-0.1-4.8,0-7.2
		c0.1-2.4,0.3-4.7,0.1-7c-0.2-2.3-0.9-4.5-1.7-6.8c-0.8-2.2-1.7-4.4-2.5-6.6c-1.8-4.4-3.6-8.8-5.5-13.1c-1.8-4.4-3.8-8.7-5.4-13.2
		c-1.7-4.5-3-9-4-13.7c-1-4.7-1.6-9.4-1.9-14.1c-0.3-4.8-0.2-9.5,0.3-14.3l1.6-14.1l3.1-28.3l0-0.2l0.2,0c1.5,0,3,0,4.6,0.1
		c1.5,0.1,3,0.1,4.5,0.2c3,0.2,6,0.6,9,1c6,0.9,11.9,2.3,17.7,4.1l0,0.1c-5.8-1.8-11.7-3.1-17.7-3.9c-3-0.4-6-0.7-9-0.9
		c-1.5-0.1-3-0.2-4.5-0.2c-1.5,0-3-0.1-4.5,0l0.2-0.2l-3,28.3l-1.5,14.1c-0.4,4.7-0.5,9.4-0.2,14.2c0.3,4.7,0.9,9.4,1.9,14
		c1,4.6,2.4,9.1,4,13.6c1.7,4.4,3.6,8.8,5.4,13.1c1.9,4.4,3.7,8.7,5.5,13.1c0.9,2.2,1.7,4.4,2.6,6.7c0.8,2.2,1.6,4.6,1.8,7
		c0.2,2.4,0,4.8-0.1,7.2c-0.1,2.4-0.1,4.7,0,7.1c0.3,4.7,1.2,9.4,2.6,13.8c0.7,2.2,1.5,4.5,2.5,6.6c0.5,1.1,1,2.1,1.8,2.9
		c0.8,0.8,1.7,1.6,2.6,2.3c1.8,1.5,3.6,3.1,5.5,4.4c1.9,1.3,4,2.3,6.3,2.6c1.1,0.1,2.4,0.1,3.6,0.5c1.2,0.4,2.2,1.3,3.1,1.9
		c1.8,1.5,4.2,1.4,6.5,1.4c0.6,0,1.1-0.1,1.7-0.2c0.5-0.1,1-0.4,1.1-0.8c0.2-0.4,0-0.8-0.3-1.3c-0.3-0.4-0.8-0.8-1.3-1.2
		c-1.8-1.5-3.6-3.1-5.4-4.7c-3.5-3.2-6.7-7-8.4-11.6l-0.8-2.3l1.4,1.9c3.1,4.1,6.7,7.8,10.7,11c1,0.8,2,1.6,3.1,2.3
		c1,0.7,2.1,1.4,3.3,1.7c1.2,0.4,2.5,0.6,3.6,0.2l0.4-0.2l0.3-0.2c0.2-0.2,0.4-0.4,0.5-0.7c0.2-0.5,0.2-1.1,0-1.6
		c-0.4-1.1-1.3-2.1-2.1-3c-0.9-0.9-1.8-1.9-2.6-2.9c-1.7-2-3.3-4-4.8-6.1c-1.5-2.1-3-4.2-4.5-6.3c-0.4-0.5-0.8-1.1-1-1.8
		c-0.2-0.7-0.1-1.4,0.1-2l0.7-3.8l0.6,0.1c0,0.5,0,1.1,0.1,1.6c0.1,0.5,0.2,1.1,0.4,1.6c0.4,1,0.9,2,1.4,2.9c1.2,1.9,2.6,3.5,4,5.2
		c1.4,1.7,3,3.3,5,4.1c1.9,0.9,4.3,1.1,6.2,0.2l-0.1,0.3c-1-3.2-2.5-6.3-4.2-9.1c-0.9-1.4-1.9-2.8-2.8-4.3c-0.9-1.5-1.6-3-2.4-4.5
		c-1.5-3-3.1-6-5.2-8.6c-1-1.3-2.2-2.6-3.4-3.6c-1.3-1.1-2.7-2-4-3.1c-1.3-1.1-2.3-2.6-3.1-4.1c-0.8-1.5-1.5-3-2.3-4.5
		c-1.5-3-2.9-6.1-3.9-9.4c-1-3.2-1.5-6.6-1.6-10c-0.2-3.4-0.2-6.8-0.4-10.1l-0.3-10.1c-0.1-3.4-0.4-6.8-1.5-9.9
		c-0.5-1.6-1.1-3.2-1.5-4.9c-0.4-1.7-0.5-3.4-0.6-5c-0.1-3.4,0.3-6.8,0.8-10.1c0.5-3.3,0.9-6.7,1.9-10c1-3.2,2.4-6.3,3.4-9.6
		C113.6,284.1,113.9,277.2,113.7,270.5L113.7,270.5z"/>
</g>
<path class="st4" d="M113.5,269.5c0.7,0.3,1.6-0.3,2-0.9c2.2-2.9,2.4-6.7,1.8-10.3c-0.6-3.5-1.8-7-2-10.5c-0.1-2.4,0.2-4.9,1-7.2
	c1.2-3.6,3.6-7.2,2.6-10.9"/>
<g>
	<path class="st5" d="M119.4,345.4c0,0,0.6,0.3,1.6,0.9c1,0.6,2.4,1.5,4.1,2.5c0.8,0.5,1.7,1.1,2.7,1.7c1,0.6,2,1.2,3.1,1.8
		c1.1,0.6,2.2,1.2,3.3,1.8c1.2,0.6,2.4,1.1,3.6,1.6c4.9,2,10.1,3,14,3.3c1,0.1,1.9,0.1,2.7,0.2c0.8,0,1.5,0,2.1,0c1.2,0,1.8,0,1.8,0
		s-0.2,0-0.5,0.1c-0.3,0-0.8,0.1-1.3,0.2c-1.2,0.1-2.8,0.2-4.8,0.2c-1,0-2.1-0.1-3.2-0.2c-1.1-0.1-2.3-0.3-3.6-0.5
		c-2.5-0.5-5-1.2-7.5-2.2c-1.3-0.5-2.5-1.1-3.6-1.7c-1.2-0.6-2.3-1.3-3.4-1.9c-1.1-0.6-2.1-1.3-3-2c-0.9-0.6-1.8-1.2-2.6-1.8
		c-1.6-1.1-2.9-2.1-3.9-2.8C119.9,345.8,119.4,345.4,119.4,345.4z"/>
</g>
<g>
	<path class="st5" d="M126.7,363.6c0,0,0.2,0,0.6,0c0.4,0,1-0.1,1.8-0.1c1.5,0,3.7-0.1,6.3,0.1c2.6,0.2,5.7,0.5,8.9,1.3
		c1.6,0.4,3.3,0.9,4.8,1.5c1.6,0.6,3.2,1.3,4.8,2c1.6,0.8,3.1,1.6,4.6,2.6c1.5,0.9,2.9,1.9,4.2,2.8c1.3,0.9,2.6,1.9,3.7,2.9
		c1.2,0.9,2.2,1.9,3.2,2.7c2,1.7,3.5,3.2,4.7,4.3c1.1,1.1,1.7,1.7,1.7,1.7s-0.7-0.6-1.8-1.5c-1.2-1-2.9-2.3-4.9-4
		c-1-0.8-2.1-1.7-3.3-2.6c-1.2-0.9-2.5-1.8-3.8-2.7c-1.3-0.9-2.7-1.8-4.2-2.7c-1.4-0.9-3-1.7-4.5-2.5c-1.6-0.8-3.1-1.5-4.7-2.1
		c-1.6-0.6-3.2-1.1-4.7-1.5c-3.1-0.8-6.1-1.3-8.7-1.6c-2.6-0.3-4.7-0.4-6.3-0.5C127.5,363.7,126.7,363.6,126.7,363.6z"/>
</g>
<g>
	<path class="st5" d="M193.3,365.6c0,0,0.8-0.3,2.1-0.8c1.3-0.5,3.2-1.2,5.5-2c2.3-0.8,5-1.7,7.9-2.6c2.9-0.9,6-1.8,9.2-2.7
		c3.1-0.9,6.3-1.7,9.2-2.4c3-0.8,5.7-1.3,8.1-1.9c2.4-0.6,4.4-0.8,5.7-1.4c0.6-0.3,1.1-0.6,1.3-0.9c0.1-0.1,0.2-0.3,0.3-0.3
		c0.1-0.1,0.1-0.1,0.1-0.1s0,0-0.1,0.1c0,0.1-0.1,0.2-0.2,0.4c-0.2,0.3-0.6,0.7-1.3,1.1c-0.6,0.4-1.5,0.7-2.4,0.9
		c-1,0.3-2,0.6-3.2,0.9c-2.4,0.6-5.1,1.4-8,2.2c-2.9,0.8-6.1,1.7-9.2,2.6c-3.1,0.9-6.3,1.7-9.2,2.6c-2.9,0.8-5.7,1.6-8,2.3
		C196.5,364.7,193.3,365.6,193.3,365.6z"/>
</g>
<g>
	<path class="st5" d="M168.1,367.6c0,0,0.2-0.1,0.5-0.2c0.3-0.1,0.9-0.2,1.5-0.4c1.3-0.2,3.3-0.4,5.6,0c1.2,0.2,2.4,0.6,3.6,1.2
		c1.2,0.6,2.4,1.4,3.6,2.2c0.6,0.4,1.2,0.8,1.8,1.2c0.3,0.2,0.6,0.4,1,0.5c0.3,0.1,0.7,0.3,1,0.4c1.4,0.5,2.9,0.8,4.3,0.9
		c1.5,0.1,3,0.1,4.5,0.1c1.5-0.1,3-0.1,4.4-0.3c0.7-0.1,1.3-0.3,1.9-0.5c0.6-0.3,1.1-0.7,1.6-1.1c1-0.8,2-1.6,3.1-2.2
		c2.1-1.1,4.1-1.3,5.5-1.3c0.7,0,1.2,0.1,1.6,0.1c0.4,0.1,0.5,0.1,0.5,0.1s-0.2,0-0.6,0c-0.4,0-0.9,0-1.6,0
		c-1.3,0.1-3.2,0.5-5.2,1.6c-1,0.5-1.9,1.3-2.9,2.2c-0.5,0.4-1.1,0.9-1.7,1.2c-0.6,0.4-1.4,0.5-2.1,0.7c-1.5,0.2-2.9,0.3-4.5,0.4
		c-1.5,0.1-3.1,0.1-4.7,0c-1.6-0.2-3.1-0.5-4.6-1c-0.4-0.1-0.7-0.3-1.1-0.5c-0.4-0.2-0.7-0.4-1-0.6c-0.7-0.4-1.3-0.8-1.9-1.2
		c-1.2-0.8-2.3-1.6-3.4-2.2c-1.1-0.6-2.3-1-3.4-1.3c-2.2-0.5-4.1-0.5-5.5-0.4c-0.7,0.1-1.2,0.2-1.5,0.2
		C168.3,367.6,168.1,367.6,168.1,367.6z"/>
</g>
<g>
	<path class="st5" d="M166.7,388.5c0,0,0.4-0.1,1.2-0.2c0.8-0.1,1.8-0.2,3.2-0.3c1.3-0.1,2.8-0.2,4.5-0.2c1.6,0,3.4,0.1,5.2,0.3
		c1.8,0.2,3.5,0.6,5.1,1.2c1.6,0.5,3,1.2,4.1,1.8c1.2,0.6,2.1,1.3,2.7,1.7c0.6,0.5,0.9,0.8,0.9,0.8s-0.4-0.2-1-0.6
		c-0.7-0.4-1.6-0.9-2.8-1.4c-2.4-1.1-5.7-2.1-9.1-2.5c-1.7-0.2-3.4-0.3-5.1-0.4c-1.6-0.1-3.1-0.1-4.5-0.1c-1.3,0-2.4,0-3.2,0
		C167.1,388.5,166.7,388.5,166.7,388.5z"/>
</g>
<g>
	<path class="st5" d="M198.5,404.4c0,0,0.6-0.5,1.7-1.5c1-1,2.4-2.5,4-4.4c0.8-1,1.5-2,2.3-3.2c0.8-1.2,1.5-2.4,2.4-3.7
		c0.9-1.3,1.9-2.6,3.1-3.7c1.2-1.1,2.7-2,4.1-2.8c2.8-1.6,5.7-3.2,8.4-4.7c2.7-1.5,5.3-2.8,7.6-3.6c2.3-0.8,4.4-1,5.9-0.9
		c0.7,0,1.3,0.1,1.7,0.2c0.4,0.1,0.6,0.1,0.6,0.1s-0.2,0-0.6-0.1c-0.4-0.1-0.9-0.1-1.6-0.1c-0.7,0-1.6,0.1-2.5,0.3
		c-1,0.2-2,0.5-3.2,1c-2.3,0.9-4.7,2.3-7.4,3.8c-2.6,1.5-5.5,3.2-8.3,4.8c-1.4,0.8-2.8,1.7-4,2.7c-1.2,1-2.2,2.2-3,3.5
		c-0.9,1.3-1.7,2.5-2.5,3.6c-0.8,1.2-1.6,2.2-2.5,3.1c-1.6,1.9-3.2,3.2-4.3,4.1C199.1,403.9,198.5,404.4,198.5,404.4z"/>
</g>
<g>
	<path class="st5" d="M116.7,383.3c0,0,0.5,0,1.3-0.1c0.8,0,1.9-0.1,3.3-0.2c0.7,0,1.4-0.1,2.2-0.1c0.2,0,0.5,0,0.7,0.1
		c0.3,0.1,0.5,0.4,0.6,0.6c0.2,0.4,0.3,0.8,0.5,1.2c0.6,1.6,1.2,3.4,1.8,5.1c0.6,1.7,1.3,3.4,2,4.9c0.8,1.5,1.7,2.8,2.6,3.8
		c0.5,0.5,0.9,0.9,1.3,1.3c0.4,0.4,0.8,0.6,1.1,0.9c0.7,0.4,1.1,0.6,1.1,0.6s-0.1,0-0.3-0.1c-0.2-0.1-0.5-0.2-0.9-0.4
		c-0.7-0.4-1.7-1-2.8-1.9c-1-1-2.1-2.2-2.9-3.8c-0.9-1.5-1.6-3.2-2.2-5c-0.6-1.7-1.1-3.5-1.7-5.1c-0.1-0.4-0.3-0.8-0.4-1.1
		c-0.1-0.1-0.1-0.2-0.2-0.3c-0.1-0.1-0.3-0.1-0.4-0.1c-0.8,0-1.5-0.1-2.2-0.1c-1.4,0-2.5-0.1-3.3-0.2
		C117.1,383.4,116.7,383.3,116.7,383.3z"/>
</g>
<g>
	<path class="st5" d="M169.2,336.8c0,0,0.7-0.5,1.8-1.3c0.6-0.4,1.3-0.9,2.1-1.5c0.8-0.6,1.7-1.3,2.6-2.1c1-0.8,1.9-1.6,3-2.6
		c1-0.9,2.1-2,3.2-3c1.1-1.1,2.2-2.2,3.2-3.4c1.1-1.2,2.1-2.4,3.1-3.7c1-1.3,2-2.5,2.9-3.8c1-1.3,1.8-2.6,2.6-3.9
		c0.8-1.3,1.6-2.5,2.3-3.7c0.7-1.2,1.3-2.4,1.9-3.4c0.6-1.1,1.1-2.1,1.5-3c0.4-0.9,0.8-1.7,1.1-2.3c0.6-1.3,0.9-2,0.9-2
		s-0.3,0.8-0.7,2.1c-0.2,0.7-0.5,1.5-0.9,2.4c-0.2,0.5-0.4,1-0.6,1.5c-0.2,0.5-0.5,1-0.7,1.6c-0.5,1.1-1.1,2.3-1.7,3.5
		c-0.6,1.3-1.4,2.5-2.2,3.8c-0.8,1.3-1.7,2.6-2.6,3.9c-0.9,1.3-1.9,2.6-2.9,3.9c-1.1,1.2-2.1,2.5-3.2,3.7c-1.1,1.2-2.2,2.3-3.3,3.4
		c-1.1,1-2.2,2.1-3.3,2.9c-1.1,0.9-2.1,1.7-3.1,2.5c-0.5,0.4-1,0.7-1.4,1.1c-0.5,0.3-0.9,0.6-1.3,0.9c-0.8,0.6-1.5,1-2.2,1.4
		C169.9,336.4,169.2,336.8,169.2,336.8z"/>
</g>
<g>
	<path class="st5" d="M189.7,264.6c0,0,0.6,0,1.6,0c1,0,2.5-0.1,4.3-0.1c1.8-0.1,3.9-0.2,6.1-0.4c2.2-0.2,4.6-0.4,6.9-0.7
		c1.2-0.1,2.4-0.3,3.5-0.5c1.2-0.2,2.3-0.3,3.4-0.5c2.2-0.4,4.2-0.9,5.8-1.6c0.8-0.3,1.5-0.7,2.2-1.1c0.6-0.4,1.1-0.7,1.5-1.1
		c0.4-0.3,0.7-0.6,0.9-0.8c0.2-0.2,0.3-0.3,0.3-0.3s-0.1,0.1-0.3,0.3c-0.2,0.2-0.4,0.5-0.8,0.9c-0.7,0.7-1.9,1.7-3.6,2.5
		c-1.6,0.8-3.7,1.5-5.9,2c-2.2,0.5-4.6,0.8-7,1.1c-2.4,0.3-4.8,0.5-7,0.6c-2.2,0.1-4.3,0.1-6.1,0C192,264.9,189.7,264.6,189.7,264.6
		z"/>
</g>
<g>
	<path class="st5" d="M243.3,249c0,0-0.9-0.1-2.2-0.4c-1.3-0.2-3.1-0.5-4.9-0.7c-1.8-0.2-3.6-0.3-4.9-0.4c-1.4-0.1-2.3-0.2-2.3-0.2
		s0.9-0.3,2.3-0.4c0.7-0.1,1.5-0.1,2.3-0.1c0.9,0,1.8,0.1,2.7,0.1c0.9,0.1,1.8,0.3,2.7,0.5c0.8,0.2,1.6,0.4,2.3,0.7
		C242.5,248.5,243.3,249,243.3,249z"/>
</g>
<g>
	<path class="st5" d="M116.2,272.4c0,0,0.7-0.3,1.8-0.8c1.2-0.5,2.9-1.1,5.1-1.6c2.1-0.5,4.7-0.9,7.5-0.9c2.8,0,5.7,0.1,8.6,0.2
		c2.9,0.1,5.8-0.1,8.4-0.6c1.3-0.3,2.5-0.7,3.7-1.2c1.1-0.5,2.1-1.1,3-1.7c0.9-0.6,1.7-1.3,2.4-1.7c0.8-0.5,1.4-0.9,2.1-1.1
		c0.6-0.2,1.1-0.3,1.5-0.3c0.3,0,0.5,0,0.5,0s-0.2,0-0.5,0.1c-0.3,0.1-0.8,0.2-1.4,0.4c-0.6,0.3-1.2,0.7-1.9,1.2
		c-0.7,0.5-1.4,1.2-2.3,1.9c-1.7,1.4-4.1,2.6-6.8,3.3c-2.7,0.7-5.7,0.8-8.6,0.8c-2.9-0.1-5.8-0.3-8.5-0.3c-1.4,0-2.7,0-3.9,0.1
		c-1.2,0.1-2.4,0.3-3.5,0.4c-2.1,0.4-3.9,0.8-5.1,1.2C116.9,272.2,116.2,272.4,116.2,272.4z"/>
</g>
<g>
	<path class="st5" d="M116,266.9c0,0,0.4-0.5,1.1-1.3c0.7-0.8,1.7-1.9,3-3.2c1.3-1.2,2.9-2.7,5-3.8c1-0.6,2.1-1,3.3-1.3
		c1.2-0.3,2.4-0.5,3.7-0.5c1.2,0,2.4,0,3.6,0c1.2,0,2.3-0.2,3.3-0.5c2.1-0.6,3.8-1.8,5.1-3c0.6-0.6,1.1-1.3,1.5-1.9
		c0.4-0.6,0.7-1.2,0.9-1.6c0.2-0.5,0.4-0.9,0.5-1.1c0.1-0.3,0.1-0.4,0.1-0.4s0,0.1-0.1,0.4c-0.1,0.3-0.2,0.7-0.3,1.2
		c-0.2,0.5-0.4,1.1-0.8,1.7c-0.4,0.7-0.8,1.4-1.4,2c-1.2,1.4-3,2.7-5.2,3.5c-1.1,0.4-2.3,0.6-3.5,0.6c-1.2,0.1-2.4,0-3.6,0.1
		c-1.2,0-2.3,0.1-3.4,0.4c-1.1,0.3-2.2,0.7-3.1,1.2c-1,0.5-1.9,1-2.7,1.6c-0.8,0.6-1.6,1.2-2.3,1.8c-1.4,1.2-2.5,2.2-3.2,2.9
		C116.4,266.5,116,266.9,116,266.9z"/>
</g>
<g>
	<path class="st5" d="M115.9,249.9c0,0,0.2-0.1,0.5-0.4c0.4-0.2,0.8-0.6,1.5-0.9c1.2-0.7,2.9-1.6,4.6-2.5c1.7-0.9,3.3-1.8,4.5-2.5
		c0.6-0.4,1.1-0.7,1.5-0.9c0.3-0.2,0.6-0.4,0.6-0.4s-0.1,0.2-0.4,0.5c-0.3,0.3-0.7,0.8-1.2,1.2c-0.5,0.5-1.2,1-2,1.5
		c-0.7,0.5-1.6,1-2.4,1.4c-1.7,0.9-3.4,1.6-4.8,2.1c-0.7,0.3-1.2,0.4-1.6,0.6C116.2,249.8,115.9,249.9,115.9,249.9z"/>
</g>
<g>
	<path class="st5" d="M95.7,213c0,0,0,0.6,0.1,1.6c0,0.5,0,1.1,0.1,1.8c0,0.4,0,0.7,0,1.1c0,0.4,0,0.8,0.1,1.2
		c0.2,0.7,1.1,1.2,1.8,1.9c0.8,0.7,1.5,1.5,2.2,2.4c1.4,1.7,2.5,3.8,3.6,5.9c1,2.1,2,4.2,3,6.2c0.9,2,1.7,3.8,2.5,5.4
		c0.7,1.6,1.3,2.9,1.7,3.9c0.4,0.9,0.6,1.5,0.6,1.5s-0.3-0.5-0.8-1.4c-0.5-0.9-1.2-2.2-2-3.7c-0.8-1.5-1.8-3.3-2.8-5.3
		c-1-1.9-2-4-3.1-6.1c-1-2.1-2.2-4.1-3.4-5.8c-0.6-0.9-1.3-1.7-2-2.4c-0.4-0.4-0.7-0.7-1-1c-0.3-0.3-0.7-0.8-0.8-1.3
		c-0.1-0.5-0.1-0.9-0.1-1.3c0-0.4,0-0.8,0.1-1.1c0-0.7,0.1-1.3,0.1-1.8C95.6,213.6,95.7,213,95.7,213z"/>
</g>
<g>
	<path class="st5" d="M102.7,202.3c0,0,0.1,0.1,0.3,0.3c0.2,0.2,0.5,0.6,0.9,1c0.7,0.9,1.6,2.4,2.2,4.3c0.6,1.9,1.1,4.2,1.1,6.7
		c0.1,2.5-0.1,5.1-0.3,7.8c-0.2,2.6-0.4,5.2,0.2,7.5c0.2,0.6,0.4,1.1,0.6,1.6c0.3,0.5,0.5,1,0.9,1.4c0.6,0.9,1.3,1.7,2,2.5
		c1.3,1.5,2.2,2.9,2.6,4c0.2,0.5,0.3,1,0.4,1.3c0.1,0.3,0.1,0.5,0.1,0.5s0-0.2-0.1-0.5c-0.1-0.3-0.2-0.7-0.5-1.2
		c-0.5-1-1.5-2.3-2.9-3.7c-0.7-0.7-1.4-1.5-2.1-2.4c-0.4-0.5-0.7-1-1-1.5c-0.3-0.5-0.6-1.1-0.7-1.7c-0.4-1.2-0.5-2.6-0.6-3.9
		c0-1.3,0.1-2.6,0.2-4c0.2-2.6,0.4-5.2,0.4-7.7c0-1.2,0-2.4-0.2-3.5c-0.1-1.1-0.3-2.1-0.6-3.1c-0.5-1.9-1.2-3.4-1.8-4.3
		c-0.3-0.5-0.6-0.9-0.8-1.1C102.8,202.4,102.7,202.3,102.7,202.3z"/>
</g>
<g>
	<path class="st5" d="M92.3,234c0,0,0.2,0.2,0.6,0.6c0.4,0.4,1,1,1.7,1.7c1.4,1.4,3.1,3.3,4.8,5.2c0.8,1,1.6,2,2.3,3.1
		c0.6,1.1,1.1,2.1,1.4,3.1c0.3,1,0.3,1.8,0.2,2.4c0,0.3-0.1,0.5-0.1,0.7c0,0.1,0,0.2,0,0.2s0-0.1,0-0.2c0-0.2,0-0.4-0.1-0.6
		c0-0.3-0.1-0.6-0.2-1c-0.1-0.4-0.2-0.8-0.4-1.2c-0.3-0.9-0.9-1.8-1.6-2.8c-0.7-1-1.5-2-2.3-2.9c-1.7-2-3.3-4-4.4-5.5
		c-0.6-0.8-1-1.4-1.4-1.9C92.5,234.3,92.3,234,92.3,234z"/>
</g>
<g>
	<path class="st5" d="M83,234.3c0,0,0,0.1-0.1,0.3c0,0.2,0,0.5,0,0.8c0.1,0.7,0.5,1.6,1.2,2.5c0.8,0.9,2,1.6,3.2,2.5
		c0.6,0.5,1.3,1,1.8,1.6c0.5,0.6,1,1.4,1.4,2.1c0.7,1.5,1.2,3.1,1.9,4.4c0.6,1.3,1.5,2.4,2.4,3.2c0.9,0.7,1.8,1.2,2.5,1.5
		c0.7,0.3,1.1,0.4,1.1,0.4s-0.1,0-0.3,0c-0.2,0-0.5-0.1-0.8-0.2c-0.7-0.2-1.7-0.5-2.7-1.2c-1-0.7-2.1-1.8-2.8-3.2
		c-0.8-1.4-1.3-3-2-4.4c-0.3-0.7-0.7-1.4-1.2-2c-0.5-0.6-1-1.1-1.6-1.5c-1.2-0.9-2.4-1.8-3.1-2.8c-0.8-1-1-2.1-1-2.8
		C82.8,234.7,83,234.3,83,234.3z"/>
</g>
<g>
	<path class="st5" d="M82.3,245.6c0,0,0,0.2,0.1,0.4c0.1,0.2,0.2,0.5,0.5,0.8c0.2,0.3,0.6,0.6,0.9,1c0.4,0.4,0.8,0.8,1.1,1.3
		c0.7,0.9,1.2,2,1.5,2.8c0.3,0.8,0.3,1.4,0.3,1.4s-0.4-0.5-0.8-1.2c-0.5-0.7-1.1-1.6-1.8-2.5c-0.3-0.4-0.7-0.9-1-1.3
		c-0.3-0.4-0.6-0.9-0.8-1.3c-0.2-0.4-0.2-0.8-0.1-1.1C82.2,245.8,82.3,245.6,82.3,245.6z"/>
</g>
<g>
	<path class="st5" d="M78.7,255.1c0,0,0.6-0.1,1.6-0.2c1-0.1,2.5-0.3,4.3-0.2c0.9,0,1.9,0.2,2.9,0.4c1,0.2,2,0.7,3,1.1
		c1,0.4,2,0.7,3.2,0.7c1.1,0.1,2.3,0.1,3.5,0.2c2.4,0.2,4.7,0.5,6.9,0.9c2.2,0.4,4.2,0.8,5.9,1.1c1.7,0.3,3.2,0.7,4.2,0.9
		c1,0.2,1.6,0.4,1.6,0.4s-0.6-0.1-1.6-0.2c-1-0.1-2.5-0.3-4.2-0.5c-1.7-0.2-3.8-0.5-6-0.8c-2.2-0.3-4.5-0.6-6.8-0.8
		c-1.2-0.1-2.3-0.1-3.5-0.2c-1.2-0.1-2.4-0.4-3.4-0.9c-1-0.5-1.9-0.9-2.9-1.2c-0.9-0.3-1.9-0.5-2.7-0.6c-1.7-0.2-3.2-0.2-4.2-0.1
		C79.3,255.1,78.7,255.1,78.7,255.1z"/>
</g>
<g>
	<g>
		<path class="st3" d="M196.8,147.4c-0.4-1-0.7-2.1-1-3.2c-14.4-0.3-28.6-11.5-42.3-6.7c-1.4,0.6-7.6-2.8-8.6-1.7
			c-0.6,0.7,1.1,2,1.1,2.8c0,7,3.7,23.1,4.4,34.3c0.3,4.6,9.1,8.1,12.9,10.8c8.7,6.3,7,12.2,12.6,21.3c0.7-3.2,9.7-3.1,11.8-5.8
			c4.3-5.2,11.1-9,11.9-15.5c0.3-2.8-0.6-5.6-1.2-8.4c-2.3-9.2-2.5-19-0.4-28.4"/>
		<path d="M196.8,147.4c-0.4-1-0.7-2.1-1-3.2l0.1,0c-2.8-0.1-5.5-0.5-8.2-1.1c-2.7-0.6-5.3-1.5-8-2.3c-5.2-1.7-10.5-3.6-16-4.1
			c-2.7-0.3-5.5-0.2-8.2,0.5c-0.7,0.1-1.3,0.4-2,0.6c-0.4,0.1-0.8,0-1.1,0c-0.4-0.1-0.7-0.2-1-0.3c-1.3-0.4-2.6-0.9-3.9-1.3
			c-0.6-0.2-1.3-0.4-1.9-0.3c-0.3,0-0.4,0.1-0.4,0.4c0,0.2,0.2,0.5,0.4,0.8c0.2,0.3,0.4,0.6,0.6,0.9c0.1,0.2,0.2,0.3,0.2,0.6
			c0,0.2,0,0.4,0,0.5c0,0.7,0.1,1.4,0.1,2.1c0.2,2.7,0.7,5.5,1.1,8.2c0.9,5.5,1.8,10.9,2.6,16.4c0.2,1.4,0.4,2.7,0.5,4.1
			c0.1,0.7,0.1,1.4,0.2,2.1l0.1,1c0,0.4,0.1,0.6,0.2,0.9c0.4,1.2,1.3,2.2,2.4,3.1c1,0.9,2.2,1.6,3.3,2.4c2.3,1.5,4.8,2.6,7.1,4.3
			c2.2,1.6,4.3,3.7,5.7,6.1c1.5,2.4,2.3,5.1,3.3,7.7c1,2.6,2.1,5.1,3.6,7.4l-0.9,0.2c0.2-1,1-1.6,1.6-2c0.7-0.4,1.4-0.7,2.1-0.9
			c1.4-0.5,2.9-0.8,4.3-1.2c0.7-0.2,1.4-0.4,2-0.7c0.6-0.3,1.3-0.6,1.7-1c0.4-0.5,1-1.1,1.5-1.6c0.5-0.5,1-1.1,1.6-1.6
			c2.1-2.1,4.4-3.9,6.2-6.2c0.9-1.1,1.7-2.3,2.2-3.7c0.5-1.3,0.7-2.7,0.7-4.2c-0.1-1.4-0.4-2.9-0.7-4.3c-0.3-1.4-0.7-2.9-1-4.3
			c-0.6-2.9-1-5.8-1.2-8.8c-0.4-5.9,0.2-11.9,1.5-17.6l0.1,0c-0.6,2.9-1,5.8-1.2,8.7c-0.1,1.5-0.1,2.9-0.1,4.4
			c0,1.5,0.1,2.9,0.2,4.4c0.2,2.9,0.7,5.8,1.3,8.7c0.3,1.4,0.7,2.8,1.1,4.3c0.4,1.4,0.7,2.9,0.8,4.4c0.1,1.5-0.1,3.1-0.6,4.5
			c-0.5,1.4-1.3,2.7-2.3,3.9c-1.9,2.4-4.1,4.3-6.2,6.4c-0.5,0.5-1,1-1.5,1.6c-0.5,0.5-0.9,1-1.5,1.7c-0.6,0.6-1.3,1-2,1.3
			c-0.7,0.3-1.4,0.5-2.1,0.7c-1.4,0.4-2.9,0.7-4.2,1.2c-0.7,0.2-1.3,0.5-1.9,0.8c-0.6,0.3-1,0.8-1.2,1.3l-0.3,1.2l-0.6-1
			c-1.5-2.4-2.7-4.9-3.6-7.5c-1-2.6-1.8-5.2-3.1-7.6c-0.7-1.2-1.5-2.3-2.4-3.2c-0.9-1-1.9-1.9-3-2.7c-2.2-1.6-4.7-2.8-7-4.3
			c-1.2-0.7-2.3-1.5-3.4-2.5c-1.1-0.9-2.1-2-2.6-3.4c-0.1-0.4-0.2-0.8-0.2-1.1l-0.1-1c0-0.7-0.1-1.4-0.2-2.1
			c-0.1-1.4-0.3-2.7-0.5-4.1c-0.7-5.5-1.6-10.9-2.5-16.4c-0.4-2.7-0.8-5.5-1-8.2c-0.1-0.7-0.1-1.4-0.1-2.1l0-0.5
			c0-0.1-0.1-0.3-0.1-0.4c-0.1-0.3-0.4-0.6-0.6-0.8c-0.2-0.3-0.4-0.6-0.5-1c0-0.1,0-0.2,0-0.4c0-0.1,0.1-0.1,0.1-0.2l0-0.1
			c0.1-0.1,0.1-0.1,0.1-0.1c0.2-0.2,0.4-0.2,0.6-0.2c0.8-0.1,1.5,0.2,2.1,0.4c1.3,0.4,2.6,0.9,3.9,1.3c0.6,0.2,1.4,0.4,1.9,0.3
			c0.6-0.2,1.3-0.4,2-0.6c2.7-0.7,5.5-0.7,8.3-0.4c5.5,0.6,10.8,2.6,16,4.3c2.6,0.9,5.2,1.7,7.9,2.4c2.7,0.7,5.4,1.1,8.2,1.2l0,0
			l0,0C196.2,145.3,196.4,146.4,196.8,147.4L196.8,147.4z"/>
	</g>
</g>
<g>
	<path class="st5" d="M244.7,246.7c0,0,0.5-0.2,1.5-0.6c1-0.3,2.3-0.9,3.9-1.4c1.6-0.5,3.5-1.2,5.6-1.9c1-0.3,2.1-0.7,3.1-1
		c1.1-0.4,2-0.8,3-1.4c1-0.5,2.1-1.1,3.2-1.4c1.1-0.3,2.3-0.5,3.3-0.6c2.1-0.3,4.1-0.5,5.8-0.8c1.7-0.2,3.1-0.4,4.1-0.5
		c1-0.1,1.6-0.2,1.6-0.2s-0.6,0.1-1.5,0.3c-1,0.2-2.4,0.5-4.1,0.8c-1.7,0.3-3.7,0.7-5.8,1.1c-1.1,0.2-2.1,0.4-3.2,0.7
		c-1,0.3-2,0.8-3,1.3c-1,0.5-2.1,1.1-3.2,1.4c-1.1,0.4-2.2,0.7-3.2,1c-2.1,0.6-4,1.1-5.7,1.6c-1.7,0.5-3.1,0.8-4,1.1
		C245.3,246.6,244.7,246.7,244.7,246.7z"/>
</g>
<g>
	<path class="st5" d="M272.2,234.5c0,0,0.2-0.6,0.6-1.3c0.3-0.8,0.8-1.8,1.1-2.9c0.4-1,0.7-2.1,1-2.9c0.2-0.8,0.4-1.4,0.4-1.4
		s0.1,0.6,0.1,1.5c0,0.4,0,1-0.1,1.5c-0.1,0.5-0.3,1.1-0.4,1.7c-0.2,0.6-0.5,1.1-0.7,1.6c-0.3,0.5-0.6,0.9-0.9,1.2
		C272.7,234.2,272.2,234.5,272.2,234.5z"/>
</g>
<g>
	<path class="st5" d="M254.7,236c0,0,0.1,0.1,0.3,0.1c0.2,0,0.5,0,0.8-0.1c0.7-0.3,1.5-1.1,2.5-1.9c2-1.8,4.4-4.3,6.4-7.2
		c2-2.8,3.7-5.9,4.4-8.5c0.3-1.3,0.5-2.3,0.5-3.1c0-0.4,0-0.7,0-0.9c0-0.2,0-0.3,0-0.3s0,0.1,0.1,0.3c0,0.2,0.1,0.5,0.1,0.9
		c0,0.8,0.1,1.9-0.2,3.2c-0.3,1.3-0.7,2.8-1.4,4.4c-0.4,0.8-0.7,1.5-1.2,2.3c-0.4,0.8-0.9,1.5-1.4,2.2c-1,1.5-2.2,2.8-3.4,4
		c-1.2,1.2-2.4,2.2-3.4,3c-0.5,0.4-1,0.8-1.5,1c-0.5,0.3-0.9,0.5-1.3,0.6c-0.4,0.1-0.7,0.1-0.9,0C254.8,236,254.7,236,254.7,236z"/>
</g>
<g>
	<path class="st5" d="M246.8,235.8c0,0,0.4-0.4,1.1-1.2c0.7-0.7,1.6-1.9,2.5-3.3c1-1.4,2-3.1,2.8-5c0.9-1.9,1.5-4.1,2.6-6.2
		c0.5-1,1.3-2,1.9-2.9c0.7-0.9,1.4-1.8,1.9-2.7c1.2-1.8,2.1-3.5,2.7-5.1c0.6-1.6,1.1-2.9,1.3-3.9c0.3-1,0.4-1.5,0.4-1.5s0,0.1,0,0.4
		c0,0.3-0.1,0.7-0.1,1.2c-0.2,1-0.4,2.4-1,4.1c-0.6,1.6-1.3,3.5-2.5,5.4c-0.6,0.9-1.2,1.9-1.9,2.8c-0.7,0.9-1.3,1.8-1.8,2.8
		c-0.5,1-0.9,2-1.4,3.1c-0.4,1.1-0.8,2.1-1.3,3.1c-1,2-2.1,3.6-3.2,5c-1.1,1.4-2.1,2.4-2.9,3.1C247.3,235.5,246.8,235.8,246.8,235.8
		z"/>
</g>
<g>
	<path class="st5" d="M245.5,226.5c0,0,0.1-0.1,0.3-0.3c0.2-0.2,0.5-0.5,0.9-1c0.7-0.9,1.5-2.3,2.1-4.1c0.6-1.8,1-4,1.6-6.3
		c0.5-2.3,1.1-4.8,1.6-7.3c0.3-1.3,0.5-2.5,0.8-3.7c0.2-1.2,0.5-2.4,0.7-3.6c0.4-2.4,0.8-4.6,1.1-6.5c0.3-1.9,0.5-3.5,0.6-4.6
		c0.1-1.1,0.2-1.8,0.2-1.8s0,0.6,0,1.8c0,1.1,0,2.7-0.2,4.6c-0.2,1.9-0.4,4.2-0.7,6.5c-0.4,2.4-0.8,4.9-1.4,7.4
		c-0.5,2.5-1.1,5-1.7,7.3c-0.6,2.3-1.2,4.5-1.9,6.3c-0.7,1.8-1.7,3.2-2.4,4c-0.4,0.4-0.7,0.7-1,0.9
		C245.7,226.4,245.5,226.5,245.5,226.5z"/>
</g>
<g>
	<path class="st1" d="M175.5,206.2c-0.1,0.5-0.4,1.9-0.7,2.3c-0.3,3.6-1.9,7.1-2.5,10.7c-0.3,2.3-0.2,4.7-0.1,7
		c0.1,2.8,0.1,5.4,0.1,8.1c5.1-0.7,10.2-1.3,15.3-2c0-8.4,0.2-16.8,0.8-25.2c0.2-2.7,0.4-5.5,1.7-7.8c-2.3-0.8-5.1-1.3-7.2-0.1
		c-1,0.6-1.8,1.5-2.8,2c-0.4,0.3-0.9,0.4-1.3,0.7c-0.3,0.2-0.6,0.5-0.9,0.9c-0.6,0.7-1.2,1.3-1.8,2c-0.4,0.4-0.8,1-0.8,1.6"/>
	<path d="M175.6,206.2l-0.2,1.2c0,0.2-0.1,0.4-0.2,0.6c-0.1,0.2-0.1,0.4-0.3,0.6l0,0c-0.2,2.2-0.8,4.3-1.4,6.4
		c-0.3,1-0.6,2.1-0.8,3.2c-0.2,1.1-0.3,2.1-0.4,3.2c0,1.1,0,2.2,0,3.2c0.1,1.1,0.1,2.2,0.1,3.3l0.2,6.5l-0.3-0.3l15.3-2.1l-0.3,0.4
		c0-5.5,0-11.1,0.2-16.6c0.1-2.8,0.3-5.5,0.5-8.3c0.1-1.4,0.2-2.8,0.5-4.2c0.3-1.4,0.7-2.8,1.4-4l0.2,0.6c-1.4-0.5-2.8-0.8-4.3-0.8
		c-0.7,0-1.4,0.1-2.1,0.3c-0.3,0.1-0.7,0.3-1,0.5c-0.3,0.2-0.6,0.4-0.9,0.6c-0.6,0.5-1.2,1-1.9,1.3c-0.3,0.2-0.7,0.3-1,0.5
		c-0.3,0.2-0.5,0.5-0.8,0.7l-1.6,1.6c-0.3,0.3-0.5,0.5-0.8,0.8c-0.2,0.3-0.4,0.6-0.4,1l-0.1,0c0-0.4,0.2-0.8,0.4-1.1
		c0.2-0.3,0.5-0.6,0.7-0.9l1.5-1.7c0.2-0.3,0.5-0.6,0.8-0.8c0.3-0.3,0.7-0.4,1-0.6c0.7-0.3,1.2-0.8,1.8-1.3c0.3-0.2,0.6-0.5,0.9-0.7
		c0.3-0.2,0.7-0.4,1.1-0.6c0.7-0.3,1.5-0.4,2.3-0.5c1.6,0,3.1,0.3,4.6,0.8l0.5,0.2l-0.3,0.5c-0.6,1.2-1,2.5-1.2,3.8
		c-0.2,1.3-0.3,2.7-0.4,4.1c-0.2,2.8-0.3,5.5-0.5,8.3c-0.3,5.5-0.4,11.1-0.5,16.6l0,0.3l-0.3,0l-15.3,1.9l-0.3,0l0-0.3l-0.1-6.5
		c0-1.1,0-2.2-0.1-3.3c0-1.1,0-2.2,0-3.3c0.1-1.1,0.2-2.2,0.4-3.3c0.2-1.1,0.5-2.1,0.9-3.2c0.6-2.1,1.3-4.2,1.5-6.3l0,0l0,0
		c0.2-0.3,0.3-0.7,0.4-1.1L175.6,206.2L175.6,206.2z"/>
</g>
<g>
	<path class="st1" d="M197,160c2.2,0.2,4.1,1.7,5.8,3.1c1.8,1.6,3.6,3.1,5.2,4.9c5.1,5.7,7.8,13.5,14.1,17.8
		c-6.6,4.7-15.3,5.3-23.4,5.1c0.4,1.4,1.3,2.8,2.4,3.8c-1,1.1-2.6,1.7-4.1,2.1c-2.9,0.9-5.8,1.8-8.7,2.7c-2.5,0.8-5,1.6-7.3,2.9
		c-2.1,1.2-4,2.8-5.9,4.3c3.7-4.6,7.4-9.1,11.2-13.7c0.9-1.1,1.9-2.3,2.7-3.5c2.6-3.5,4.6-7.4,5.8-11.5c1.7-5.7,1.9-11.7,1.9-17.7"
		/>
	<path d="M197,160c0.8,0,1.5,0.3,2.2,0.6c0.7,0.3,1.4,0.7,2,1.2c1.2,0.9,2.4,1.9,3.6,2.9c1.2,1,2.3,2,3.3,3.2c0.5,0.6,1,1.1,1.5,1.8
		c0.5,0.6,0.9,1.2,1.4,1.8c1.8,2.5,3.4,5.1,5.1,7.6c0.4,0.6,0.9,1.2,1.4,1.8c0.5,0.6,1,1.2,1.5,1.7c0.5,0.5,1,1.1,1.6,1.5
		c0.6,0.5,1.2,0.9,1.8,1.4l0.6,0.4l-0.6,0.4l-1.3,0.9l-1.4,0.8l-1.4,0.7l-1.4,0.6c-1,0.4-2,0.7-2.9,0.9c-1,0.3-2,0.5-3,0.7
		c-2,0.4-4.1,0.6-6.1,0.7c-2,0.1-4.1,0.1-6.1,0l0.5-0.6c0.4,1.4,1.2,2.6,2.3,3.6l0.3,0.3l-0.3,0.3c-0.9,1-2.1,1.5-3.3,1.9
		c-1.2,0.4-2.3,0.7-3.5,1.1l-6.9,2.1c-2.3,0.7-4.6,1.5-6.6,2.6c-2.1,1.2-3.9,2.7-5.8,4.2l-0.4-0.4l8.4-10.2c1.4-1.7,2.8-3.4,4.2-5.1
		c0.7-0.9,1.4-1.7,2-2.6c0.6-0.9,1.2-1.8,1.8-2.8c2.2-3.8,3.8-8,4.5-12.3c0.8-4.3,0.9-8.8,0.9-13.2l0.1,0c0,4.4-0.1,8.8-0.8,13.2
		c-0.7,4.4-2.2,8.6-4.4,12.5c-0.5,1-1.1,1.9-1.8,2.8c-0.6,0.9-1.3,1.8-2,2.7c-1.3,1.8-2.7,3.5-4.1,5.2l-8.3,10.3l-0.4-0.4
		c1.8-1.6,3.7-3.1,5.8-4.3c2.1-1.2,4.5-2,6.7-2.7l6.9-2.2c1.1-0.4,2.3-0.7,3.4-1.1c1.1-0.4,2.2-0.9,2.9-1.7l0,0.6
		c-1.2-1-2.1-2.4-2.6-4l-0.2-0.6l0.6,0c2,0,4,0,6.1-0.1c2-0.1,4-0.3,6-0.6c1-0.2,2-0.4,2.9-0.6c1-0.3,1.9-0.6,2.9-0.9l1.4-0.6
		l1.3-0.6l1.3-0.7l1.2-0.8l0,0.8c-0.6-0.5-1.3-0.9-1.8-1.5c-0.6-0.5-1.1-1.1-1.7-1.6c-0.5-0.6-1-1.2-1.5-1.8
		c-0.5-0.6-0.9-1.2-1.4-1.9c-1.8-2.5-3.3-5.2-5-7.7c-0.4-0.6-0.9-1.3-1.3-1.8c-0.4-0.6-1-1.2-1.4-1.8c-1-1.1-2.1-2.2-3.2-3.2
		c-1.1-1-2.3-2.1-3.4-3C199.9,161,198.5,160.2,197,160L197,160z"/>
</g>
<g>
	<path class="st1" d="M165,183.1c1.8-0.2,3.4-1.1,4.6-2.4c2.6,6.6,8.3,11.6,11.8,17.7c0.1,0.3,0.3,0.5,0.3,0.8
		c0,0.5-0.5,0.9-0.9,1.2c-5.1,3.9-6.8,10.6-8.1,16.9c-0.4,1.7-0.7,3.4-1.1,5.1c-1.8-6.9-3.5-13.8-5.3-20.7
		c-1.3-5.2-2.8-10.7-6.8-14.3c2.1-1.1,4-2.6,5.5-4.4"/>
	<path d="M165,183c1.8-0.2,3.4-1.1,4.6-2.5l0.1-0.1l0.1,0.1c0.4,0.9,0.8,1.8,1.3,2.7c0.5,0.9,1,1.7,1.6,2.6c1.1,1.7,2.4,3.2,3.6,4.8
		c1.2,1.6,2.5,3.1,3.7,4.8c0.6,0.8,1.1,1.7,1.7,2.5c0.1,0.2,0.3,0.4,0.4,0.7c0.1,0.3,0.2,0.6,0,0.9c-0.3,0.6-0.8,0.9-1.1,1.2
		c-0.8,0.6-1.5,1.3-2.1,2.1c-0.6,0.8-1.2,1.6-1.7,2.4c-0.5,0.9-0.9,1.8-1.3,2.7c-0.4,0.9-0.7,1.9-1,2.8c-0.6,1.9-1,3.8-1.5,5.8
		l-1.2,5.9l-0.4,1.8l-0.5-1.8l-2.4-9.1l-2.3-9.1c-0.8-3-1.4-6.1-2.5-9c-0.5-1.5-1.1-2.9-1.9-4.2c-0.4-0.7-0.8-1.3-1.3-1.9
		c-0.5-0.6-1-1.2-1.5-1.7l-0.3-0.3l0.3-0.1c2.1-1,4-2.4,5.6-4.2l0.1,0.1c-1.5,1.9-3.3,3.5-5.4,4.6l0.1-0.4c0.6,0.5,1.1,1.1,1.6,1.7
		c0.5,0.6,1,1.3,1.4,1.9c0.8,1.3,1.5,2.8,2.1,4.3c0.6,1.5,1,3,1.4,4.5c0.4,1.5,0.8,3,1.2,4.5l2.3,9.1l2.3,9.1l-0.8,0l1.3-5.9
		c0.4-2,0.9-3.9,1.5-5.9c0.3-1,0.7-1.9,1.1-2.9c0.4-0.9,0.8-1.9,1.4-2.7c0.5-0.9,1.1-1.7,1.8-2.5c0.7-0.8,1.4-1.5,2.2-2.1
		c0.4-0.3,0.8-0.6,1-1c0.2-0.3-0.1-0.7-0.4-1.2c-0.5-0.9-1-1.7-1.6-2.5c-1.1-1.6-2.4-3.2-3.6-4.8c-1.2-1.6-2.4-3.2-3.5-4.9
		c-0.6-0.8-1.1-1.7-1.5-2.6c-0.5-0.9-0.9-1.8-1.3-2.7l0.2,0C168.5,182,166.8,182.9,165,183L165,183z"/>
</g>
<g>
	<path class="st5" d="M165.9,186.4c0,0,0.2-0.1,0.5-0.2c0.3-0.1,0.9-0.2,1.5,0c0.6,0.1,1.3,0.4,1.9,0.9c0.6,0.5,1.1,1.1,1.6,1.6
		c1,1.1,1.9,2.4,2.4,3.5c0.2,0.5,0.4,1,0.5,1.3c0.1,0.3,0.1,0.5,0.1,0.5s-0.4-0.7-1.1-1.5c-0.7-0.9-1.7-2-2.7-3.1
		c-0.5-0.6-1-1.1-1.4-1.6c-0.5-0.5-1-0.8-1.5-1c-0.5-0.2-0.9-0.3-1.3-0.3C166.1,186.4,165.9,186.4,165.9,186.4z"/>
</g>
<g>
	<path class="st1" d="M148.5,159c-2.1,2.4-2.9,4.6-5,7c-0.4,0.4-0.8,0.9-1.3,1.2c-0.5,0.3-1,0.6-1.5,0.9c-1.3,0.9-2,2.2-2.6,3.6
		c-1.2,3-1.4,6.4-0.6,9.5c1.4,5.5,5.7,10.6,5.1,16.2c2.7-0.8,5.3-1.7,8-2.5c1.2-0.4,2.4-0.8,3.5-1.4c1.3-0.7,2.3-1.7,3.4-2.7
		c3.1-2.8,6.4-5.3,10-7.4c-4-2.3-4.8-2.9-11.2-6c-3.3-3.5-3.9-4.3-4.9-7.1C150,166.6,149.1,162.8,148.5,159"/>
	<path d="M148.6,159c-1.2,1.4-2,3-3,4.5c-0.5,0.8-1,1.5-1.6,2.3c-0.6,0.7-1.2,1.5-2,2c-0.4,0.3-0.8,0.5-1.1,0.7
		c-0.4,0.3-0.6,0.5-0.9,0.9c-0.5,0.7-1,1.4-1.3,2.2c-0.7,1.6-1,3.4-1.1,5.2c0,0.9,0,1.8,0.1,2.6c0.1,0.9,0.3,1.7,0.6,2.6
		c0.3,0.9,0.6,1.7,0.9,2.5c0.3,0.8,0.7,1.6,1.1,2.5c0.8,1.6,1.5,3.3,2.1,5.1c0.3,0.9,0.5,1.8,0.6,2.7c0.2,0.9,0.1,1.9,0.1,2.8
		l-0.6-0.5l6.9-2.1c1.2-0.4,2.3-0.7,3.4-1.1c1.1-0.4,2-1.1,2.9-1.9c0.9-0.8,1.8-1.6,2.7-2.4c0.9-0.8,1.9-1.5,2.8-2.3
		c1.9-1.5,4-2.8,6-4l0,0.5c-1.8-1.1-3.7-2.2-5.5-3.2c-1.9-1-3.7-2-5.6-2.9l0,0l0,0c-1.2-1.3-2.3-2.5-3.3-3.9c-1-1.4-1.5-3.1-2-4.7
		C149.7,165.7,148.9,162.4,148.6,159L148.6,159c0.5,3.3,1.4,6.6,2.4,9.9c0.6,1.6,1.1,3.3,2,4.6c1,1.4,2.2,2.6,3.4,3.8l-0.1,0
		c1.9,0.9,3.8,1.9,5.7,2.9c1.9,1,3.7,2.1,5.6,3.1l0.5,0.3l-0.4,0.3c-2,1.2-4,2.6-5.9,4.1c-0.9,0.7-1.9,1.5-2.8,2.3
		c-0.9,0.8-1.8,1.6-2.7,2.4c-0.9,0.8-2,1.5-3.1,2c-1.1,0.5-2.3,0.8-3.5,1.2l-6.9,2.2l-0.7,0.2l0-0.7c0.1-0.9,0.1-1.7-0.1-2.6
		c-0.1-0.9-0.4-1.7-0.6-2.6c-0.6-1.7-1.3-3.3-2.1-5c-0.4-0.8-0.8-1.7-1.1-2.5c-0.3-0.8-0.7-1.7-0.9-2.6c-0.3-0.9-0.5-1.8-0.6-2.7
		c-0.1-0.9-0.1-1.9-0.1-2.8c0.1-1.9,0.5-3.7,1.3-5.4c0.4-0.9,0.8-1.7,1.5-2.4c0.3-0.4,0.7-0.7,1.1-1c0.4-0.3,0.8-0.5,1.2-0.7
		c0.7-0.4,1.3-1.1,1.9-1.8c0.6-0.7,1.1-1.4,1.6-2.1C146.2,161.8,147.2,160.3,148.6,159L148.6,159z"/>
</g>
<g>
	<path class="st5" d="M200.7,175.2c0,0,0,0.2,0.1,0.6c0.1,0.4,0.3,0.9,0.6,1.5c0.4,0.6,0.9,1.2,1.5,1.7c0.7,0.5,1.4,1,2.3,1.4
		c0.8,0.5,1.7,0.9,2.4,1.4c0.8,0.5,1.5,0.9,2,1.4c1.1,0.9,1.8,1.5,1.8,1.5s-0.2-0.1-0.6-0.3c-0.4-0.2-0.9-0.4-1.5-0.8
		c-1.3-0.7-2.9-1.5-4.6-2.4c-0.8-0.5-1.7-1-2.4-1.7c-0.7-0.6-1.2-1.4-1.5-2.1c-0.3-0.7-0.3-1.3-0.3-1.8
		C200.6,175.4,200.7,175.2,200.7,175.2z"/>
</g>
<g>
	<path class="st5" d="M179.7,211c0,0-0.3-0.7-0.4-1.9c-0.1-0.6-0.1-1.3,0-2c0.1-0.4,0.2-0.8,0.3-1.1l0.1-0.3l0.1-0.2
		c0.1-0.2,0.2-0.3,0.3-0.5c1-1.3,2.3-2,3.1-2.7c0.4-0.4,0.7-0.7,0.9-1c0.2-0.3,0.3-0.4,0.3-0.4s0,0,0,0.1c0,0.1,0,0.2-0.1,0.4
		c-0.1,0.3-0.3,0.8-0.6,1.3c-0.3,0.5-0.8,1-1.3,1.5c-0.5,0.5-1,1-1.5,1.5c-0.1,0.1-0.2,0.2-0.3,0.4l-0.1,0.2l-0.1,0.2
		c-0.1,0.3-0.3,0.6-0.4,0.9c-0.2,0.6-0.3,1.2-0.3,1.8c0,0.6-0.1,1-0.1,1.3C179.7,210.8,179.7,211,179.7,211z"/>
</g>
<g>
	<path class="st5" d="M237.9,201.6c0,0,0.1,0.4,0.3,1.2c0.2,0.8,0.5,1.9,0.9,3.2c0.4,1.3,0.9,2.8,1.4,4.5c0.6,1.6,1.1,3.4,1.7,5.1
		c0.3,0.9,0.5,1.8,0.7,2.6c0.2,0.9,0.4,1.8,0.6,2.6c0.2,0.9,0.3,1.7,0.4,2.5c0.1,0.8,0.2,1.5,0.2,2.2c0,0.3,0,0.7,0,1
		c0,0.3,0,0.6,0,0.9c0,0.6-0.1,1.1-0.1,1.5c-0.1,0.8-0.2,1.3-0.2,1.3s0-0.5,0-1.3c0-0.4,0-0.9-0.1-1.4c0-0.6-0.1-1.2-0.2-1.9
		c-0.1-0.7-0.2-1.4-0.3-2.2c-0.1-0.8-0.3-1.6-0.5-2.4c-0.4-1.7-0.9-3.4-1.4-5.1c-0.5-1.7-1.1-3.5-1.5-5.2c-0.5-1.7-0.9-3.2-1.1-4.6
		c-0.2-0.7-0.3-1.3-0.3-1.9c-0.1-0.6-0.2-1-0.2-1.4C238,202.1,237.9,201.6,237.9,201.6z"/>
</g>
<g>
	<path d="M182.4,413.3c0,0,0,0.6,0.1,1.6c0,1,0.1,2.5,0.1,4.3c0,1.8,0,3.9,0,6.1c0,1.1,0,2.3,0,3.4c0,1.2,0,2.3,0.2,3.5
		c0.2,1.1,0.5,2.2,1.1,3.1c0.7,0.9,1.2,2.1,1.5,3.2c0.3,1.1,0.5,2.2,0.6,3.2c0.1,1,0.1,2,0.1,2.9c0,1.8-0.1,3.3-0.1,4.3
		c0,1-0.1,1.6-0.1,1.6s-0.1-0.6-0.1-1.6c-0.1-1-0.1-2.5-0.2-4.3c-0.1-1.8-0.3-3.8-1-5.9c-0.3-1.1-0.8-1.9-1.5-2.9
		c-0.7-1.1-1.1-2.3-1.3-3.5c-0.4-2.5-0.1-4.8-0.1-7.1c0.1-2.2,0.2-4.3,0.3-6.1c0.1-1.8,0.2-3.3,0.3-4.3
		C182.3,413.9,182.4,413.3,182.4,413.3z"/>
</g>
<g>
	<path d="M187.7,435.7c0,0,0.1,0,0.3,0c0.2,0,0.4,0,0.8-0.1c0.6-0.2,1.3-0.9,2-1.8c0.7-0.9,1.4-2.1,2.2-3.3c0.8-1.2,1.6-2.5,2.4-3.9
		c0.4-0.7,0.7-1.3,1.1-2c0.3-0.7,0.7-1.3,0.9-2c0.3-0.7,0.5-1.3,0.7-1.9c0.2-0.6,0.4-1.2,0.5-1.8c0.1-0.6,0.2-1.1,0.3-1.6
		c0-0.5,0.1-0.9,0.1-1.2c0-0.7,0.1-1.1,0.1-1.1s0.1,0.4,0.1,1.1c0,0.3,0,0.8,0,1.2c0,0.5,0,1-0.1,1.6c-0.1,0.6-0.2,1.2-0.3,1.9
		c-0.1,0.7-0.4,1.4-0.6,2.1c-0.2,0.7-0.5,1.4-0.9,2.1c-0.3,0.7-0.7,1.4-1.1,2.1c-0.4,0.7-0.8,1.4-1.2,2c-0.4,0.7-0.9,1.3-1.3,1.9
		c-0.9,1.2-1.7,2.2-2.5,3.1c-0.8,0.9-1.7,1.5-2.4,1.6C188,435.9,187.7,435.6,187.7,435.7z"/>
</g>
<g>
	<path d="M158.7,433.7c0,0,0.1,0,0.3-0.1c0.2,0,0.5-0.1,0.9-0.1c0.8,0,2,0.1,3.2,0.6c0.6,0.2,1.3,0.5,2,0.8c0.7,0.3,1.4,0.6,2.2,1
		c1.5,0.8,3,1.7,4.5,2.7c1.5,1,2.9,2.1,4.2,3.2c1.3,1.1,2.4,2.2,3.3,3.2c0.9,1,1.6,1.9,2.1,2.5c0.5,0.6,0.7,1,0.7,1
		s-0.3-0.3-0.9-0.9c-0.5-0.6-1.4-1.3-2.3-2.2c-0.5-0.4-1-0.9-1.6-1.4c-0.6-0.5-1.2-1-1.8-1.5c-0.6-0.5-1.3-1-2-1.6
		c-0.7-0.5-1.4-1-2.1-1.5c-1.4-1-3-1.9-4.4-2.8c-1.4-0.8-2.8-1.6-4-2.1c-1.2-0.5-2.2-0.8-3-0.9c-0.4,0-0.7,0-0.9,0
		C158.8,433.7,158.7,433.7,158.7,433.7z"/>
</g>
<g>
	<path d="M160.1,459.4c0,0,0.1,0,0.3,0.1c0.2,0,0.4,0,0.7-0.1c0.6-0.2,1.3-0.8,2.2-1.4c0.9-0.6,2-1.3,3.1-2.1
		c1.2-0.7,2.4-1.5,3.8-2.2c0.7-0.3,1.4-0.6,2.2-0.7c0.8-0.2,1.5-0.2,2.2-0.1c1.4,0.1,2.6,0.3,3.7,0.1c1-0.1,1.9-0.5,2.4-0.8
		c0.2-0.2,0.4-0.4,0.5-0.5c0.1-0.1,0.2-0.2,0.2-0.2s0,0.1-0.1,0.2c-0.1,0.1-0.2,0.4-0.5,0.6c-0.5,0.5-1.3,1-2.4,1.3
		c-1.1,0.3-2.5,0.2-3.8,0.2c-1.3,0-2.7,0.3-4,0.9c-1.3,0.6-2.5,1.4-3.7,2c-1.2,0.7-2.3,1.3-3.3,1.8c-1,0.5-1.8,1-2.5,1.1
		C160.4,459.6,160.1,459.3,160.1,459.4z"/>
</g>
<g>
	<path d="M159.7,448.5c0,0,0.2-0.1,0.7-0.4c0.4-0.2,1-0.6,1.8-1c0.4-0.2,0.8-0.4,1.2-0.6c0.5-0.2,0.9-0.4,1.4-0.5
		c0.5-0.2,1.1-0.3,1.6-0.4c0.6-0.1,1.1-0.2,1.7-0.2c1.1-0.1,2.3,0,3.3,0.2c1.1,0.2,2,0.4,2.8,0.8c0.8,0.3,1.4,0.6,1.8,0.9
		c0.4,0.3,0.7,0.4,0.7,0.4s-0.3-0.1-0.7-0.2c-0.5-0.2-1.1-0.3-1.9-0.5c-0.8-0.2-1.7-0.3-2.7-0.4c-1-0.1-2.1-0.1-3.2,0
		c-0.5,0-1.1,0.1-1.6,0.2c-0.5,0.1-1,0.2-1.5,0.3c-0.5,0.1-1,0.2-1.4,0.4c-0.4,0.1-0.9,0.3-1.3,0.4c-0.8,0.3-1.5,0.5-1.9,0.6
		C160,448.5,159.7,448.5,159.7,448.5z"/>
</g>
<g>
	<path d="M188.7,446.1c0,0,0.1-0.1,0.3-0.2c0.2-0.1,0.5-0.3,1-0.4c0.4-0.2,1-0.3,1.6-0.5c0.6-0.2,1.3-0.3,2.1-0.5
		c1.5-0.3,3.4-0.5,5.3-0.7c1-0.1,2-0.2,3-0.4c0.5-0.1,1-0.2,1.5-0.2c0.5-0.1,1-0.2,1.5-0.3c2-0.5,3.9-1.2,5.6-2
		c1.7-0.8,3.3-1.7,4.5-2.6c0.6-0.4,1.2-0.9,1.7-1.3c0.5-0.4,0.9-0.8,1.2-1.1c0.7-0.6,1.1-1,1.1-1s-0.1,0.1-0.2,0.3
		c-0.2,0.2-0.4,0.5-0.7,0.8c-0.3,0.3-0.7,0.7-1.1,1.2c-0.5,0.4-1,0.9-1.6,1.4c-0.6,0.5-1.3,1-2,1.5c-0.7,0.5-1.6,1-2.4,1.5
		c-0.9,0.4-1.8,0.9-2.8,1.2c-1,0.4-2,0.7-3,0.9c-0.5,0.1-1,0.2-1.5,0.3c-0.5,0.1-1,0.2-1.6,0.2c-1,0.1-2,0.2-3,0.3
		c-1.9,0.1-3.8,0.2-5.3,0.3c-1.5,0.2-2.8,0.4-3.7,0.6c-0.4,0.1-0.8,0.2-1,0.3C188.8,446.1,188.7,446.1,188.7,446.1z"/>
</g>
<g>
	<path d="M190.4,452.9c0,0,0.5-0.1,1.3-0.3c0.8-0.1,2-0.3,3.4-0.5c1.4-0.1,3-0.2,4.8-0.2c1.8,0,3.6,0.2,5.5,0.4
		c1.9,0.3,3.7,0.6,5.4,1.1c1.7,0.4,3.2,1,4.6,1.4c1.3,0.4,2.4,0.8,3.2,1c0.8,0.2,1.2,0.3,1.2,0.3s-0.5,0-1.3-0.1
		c-0.8-0.1-2-0.3-3.3-0.6c-2.7-0.7-6.3-1.6-9.9-2c-0.9-0.1-1.8-0.2-2.7-0.3c-0.9-0.1-1.8-0.2-2.7-0.2c-1.7-0.1-3.3-0.1-4.7-0.1
		c-1.4,0-2.5,0-3.4,0.1C190.8,452.9,190.4,452.9,190.4,452.9z"/>
</g>
<g>
	<path d="M187.8,456.5c0,0,0.5,0.3,1.4,0.9c0.9,0.6,2.1,1.5,3.5,2.8c0.7,0.6,1.4,1.4,2.1,2.2c0.7,0.8,1.4,1.7,2.1,2.6
		c0.4,0.4,0.8,0.8,1.2,1.1c0.2,0.2,0.5,0.4,0.7,0.5c0.2,0.2,0.5,0.3,0.7,0.4c1,0.5,2.2,0.8,3.4,1c1.2,0.2,2.4,0.4,3.6,0.6
		c1.2,0.2,2.4,0.5,3.5,0.9c1.1,0.4,2.1,1,3.1,1.5c0.9,0.5,1.8,1,2.6,1.5c0.8,0.5,1.5,0.9,2.2,1.2c0.7,0.3,1.3,0.6,1.8,0.8
		c0.5,0.2,0.9,0.3,1.2,0.4c0.3,0.1,0.4,0.1,0.4,0.1s-0.2,0-0.4-0.1c-0.3,0-0.7-0.1-1.2-0.3c-1-0.3-2.5-0.9-4.2-1.7
		c-0.8-0.4-1.7-0.9-2.7-1.4c-0.9-0.5-2-0.9-3-1.3c-2.1-0.7-4.6-0.9-7-1.4c-1.2-0.2-2.5-0.6-3.6-1.1c-0.5-0.3-1.2-0.6-1.6-1
		c-0.5-0.4-0.9-0.9-1.3-1.3c-0.8-0.9-1.3-1.9-2-2.7c-0.6-0.8-1.3-1.6-1.9-2.3c-1.3-1.3-2.4-2.4-3.2-3.1
		C188.3,456.9,187.8,456.5,187.8,456.5z"/>
</g>
<g>
	<path class="st6" d="M89.2,269.7c0,0-0.1,2.2-0.2,5.4c0,3.2,0,7.5,0.9,11.7c0.5,2.1,1.2,4.1,2,5.9c0.4,0.9,0.8,1.8,1.1,2.7
		c0.3,0.9,0.7,1.7,1,2.4c0.6,1.5,0.9,2.8,1.1,3.8c0.1,0.5,0.2,0.8,0.2,1.1c0,0.3,0,0.4,0,0.4l-0.1,0c0,0,0-0.1-0.1-0.4
		c-0.1-0.2-0.2-0.6-0.3-1c-0.2-0.4-0.4-1-0.6-1.6c-0.2-0.6-0.5-1.3-0.9-2c-0.7-1.5-1.5-3.1-2.3-5c-0.8-1.9-1.5-4-1.8-6.1
		c-0.8-4.3-0.7-8.7-0.5-11.9C88.9,271.8,89.2,269.7,89.2,269.7L89.2,269.7z"/>
</g>
<g>
	<path class="st3" d="M281.7,245.7c5.9,7.3,8,16.6,10,25.5c1.3,5.8,2.6,11.6,3.9,17.4c1,4.6,2.1,9.2,2.3,13.8
		c0.4,7.9-1.6,15.6-3.5,23.3c-3,11.9-6,24-11.4,35.2c-1.3,2.7-2.8,5.5-3.2,8.4c-0.3,2.1,0,4.4-1.2,6.1c-0.7,1-1.8,1.7-2.5,2.8
		c-0.6,1.1-0.6,2.4-0.6,3.7c0.2,8.4,0.5,16.8,0.7,25.2c-1,1.4-1.6,3-1.9,4.6c-0.3,1.7-0.3,3.5-1.2,5c-1.4,2.2-4.6,2.8-6.7,4.5
		c-0.6,0.5-1,1-1.7,1.3c-1.4,0.8-3.3,0.5-4.7,1.2c-0.8,0.3-1.4,0.9-2.1,1.4c-2.1,1.6-4.9,2.6-7.6,2.6c-1.8,0-3.6-0.3-5.4,0.1
		c-1.4,0.2-3,0.8-4.1,0.1c-1.5-0.9-0.9-3.1,0.4-4.3c1.2-1.2,3-2,3.8-3.4c0.4-0.8,0.5-1.7,1.1-2.4c0.3-0.4,0.8-0.7,1.2-1.1
		c0.6-0.6,0.8-1.4,1-2.2c0.9-3.7,1.9-7.4,2.8-11.1c0.1-0.6,0.3-1.2,0.1-1.8c-0.2-0.6-0.7-1.1-1.4-1.1c-0.4,4.2-2.2,8.1-4.1,12
		c-0.5,1-0.9,1.9-1.7,2.7c-1.4,1.4-1.8,2.3-3.8,2.8c-0.3,0.1-2.3-0.2-2.5-0.3c-0.4-0.1-0.6-0.5-0.7-0.9c-1-3.3-0.1-6.7,0.8-10
		c0.7-2.5,1.4-5,2.1-7.5c1-3.5,2-7,3.5-10.3c0.3-0.7,0.7-1.4,1-2.2c0.2-0.6,0.4-1.3,0.7-1.9c0.6-1.2,1.5-2.1,2.5-3.1
		c5.2-5,10.4-10.7,11.5-17.5c1.5-10,3.6-19.1,3.8-29.2c0.1-2.1,0-4.3,0.2-6.4c0.1-2,0.4-4.1,0.7-6.1c1-7.9,2.1-15.9,3.1-23.8
		c0.9-7.2-2.2-14.3-7.6-19.6c-0.3-0.3-0.7-0.6-0.9-1c-0.3-0.5-0.5-1-0.6-1.5c-0.4-1-0.9-2-1.3-3c-3.2-6.7-5.7-13.6-8.2-20.5
		c3.3-0.1,6.6-1,9.8-1.8c4.6-1.2,9.1-2.4,13.7-3.7c3.3-0.9,6.5-1.8,9.8-2.7"/>
	<path d="M281.7,245.7c1.1,1.4,2.1,2.8,3,4.3c0.9,1.5,1.6,3.1,2.3,4.7c1.4,3.2,2.4,6.6,3.3,10c0.9,3.4,1.6,6.8,2.4,10.2l2.3,10.3
		c0.8,3.4,1.6,6.8,2.2,10.3c0.6,3.5,1,7,0.9,10.5c-0.2,7.1-2,13.9-3.7,20.7c-1.7,6.8-3.4,13.6-5.6,20.3c-1.1,3.3-2.3,6.6-3.7,9.9
		c-0.7,1.6-1.4,3.2-2.2,4.8c-0.8,1.6-1.6,3.1-2.1,4.8c-0.3,0.8-0.5,1.7-0.6,2.5c-0.1,0.8-0.2,1.7-0.2,2.6c-0.1,0.9-0.1,1.8-0.4,2.7
		c-0.3,0.9-0.8,1.7-1.5,2.3c-0.6,0.6-1.3,1.2-1.7,1.9c-0.4,0.7-0.5,1.6-0.6,2.4c0,1.7,0.1,3.5,0.1,5.2l0.6,21l0,0.1l-0.1,0.1
		c-0.9,1.3-1.5,2.8-1.8,4.3c-0.3,1.5-0.2,3.2-1,4.8c-0.1,0.2-0.2,0.4-0.3,0.6c-0.1,0.2-0.2,0.3-0.4,0.5c-0.3,0.3-0.6,0.6-0.9,0.9
		c-0.7,0.5-1.4,0.9-2.1,1.3c-1.5,0.7-2.9,1.4-4,2.6c-0.6,0.6-1.4,1-2.3,1.2c-0.8,0.2-1.6,0.2-2.4,0.4c-0.8,0.1-1.4,0.4-2.1,0.9
		c-0.6,0.5-1.3,1-2,1.5c-1.4,0.9-3,1.5-4.6,1.8c-1.6,0.3-3.3,0.3-4.9,0.2c-0.8,0-1.6,0-2.4,0.1c-0.8,0.1-1.5,0.3-2.4,0.5
		c-0.4,0.1-0.9,0.1-1.3,0c-0.4-0.1-0.9-0.3-1.2-0.6c-0.8-0.7-0.9-1.8-0.6-2.6c0.2-0.9,0.7-1.6,1.4-2.2c0.6-0.6,1.3-1,1.9-1.5
		c0.6-0.5,1.2-1,1.6-1.6c0.4-0.6,0.5-1.5,1-2.2c0.6-0.8,1.3-1.1,1.7-1.7c0.4-0.6,0.5-1.4,0.7-2.2l1.2-4.7l1.2-4.7
		c0.2-0.8,0.5-1.6,0.5-2.3c0-0.4-0.1-0.6-0.3-0.9c-0.2-0.2-0.5-0.4-0.7-0.4l0.4-0.3c-0.4,4.2-2.2,8.1-4,11.9
		c-0.4,0.9-0.9,1.9-1.6,2.8l-1.1,1.2c-0.3,0.4-0.7,0.8-1.2,1.1c-0.4,0.4-1,0.6-1.5,0.8c-0.1,0-0.3,0.1-0.4,0.1
		c-0.1,0-0.4,0.1-0.5,0.1c-0.3,0-0.5,0-0.8-0.1l-0.8-0.1c-0.3,0-0.5,0-0.9-0.2c-0.8-0.4-0.9-1.1-1-1.6c-0.6-2.1-0.4-4.3,0-6.4
		c0.4-2.1,1.1-4,1.6-6c1.2-4,2.2-8,3.6-12c0.7-2,1.6-3.9,2.4-5.7c0.2-0.5,0.3-1,0.5-1.5c0.2-0.5,0.5-1,0.9-1.4
		c0.7-0.9,1.5-1.6,2.2-2.3c3-2.9,5.8-5.9,8-9.4c1.1-1.7,2-3.6,2.5-5.5c0.5-1.9,0.7-4,1.1-6.1c0.7-4.1,1.4-8.2,2-12.3
		c0.6-4.1,1-8.2,1.2-12.3l0.2-6.2c0-0.3,0-0.5,0-0.8l0.1-0.8l0.2-1.5l0.3-3.1l3.3-24.7c0.5-4.1-0.4-8.2-2.2-11.9
		c-0.9-1.8-2.1-3.6-3.4-5.1c-0.7-0.8-1.4-1.5-2.1-2.3c-0.4-0.4-0.8-0.8-1-1.3c-0.2-0.5-0.3-1-0.6-1.5l-1.3-2.8
		c-0.4-0.9-0.9-1.9-1.3-2.8c-0.8-1.9-1.6-3.8-2.4-5.8c-1.5-3.9-2.9-7.8-4.3-11.7l-0.1-0.3l0.3,0c2.8-0.1,5.6-0.7,8.4-1.4l8.3-2.2
		l16.6-4.4l0,0.1l-16.5,4.6l-8.3,2.3c-2.8,0.7-5.6,1.4-8.5,1.5l0.2-0.3c1.4,3.9,2.8,7.8,4.4,11.6c0.8,1.9,1.6,3.8,2.4,5.7
		c0.4,0.9,0.9,1.9,1.3,2.8l1.3,2.8c0.2,0.5,0.4,1,0.6,1.4c0.2,0.4,0.5,0.8,0.9,1.1c0.7,0.7,1.5,1.5,2.2,2.3c1.4,1.6,2.5,3.4,3.5,5.2
		c1.9,3.7,2.8,8,2.4,12.2l-3.2,24.7l-0.3,3.1l-0.2,1.5l-0.1,0.8l0,0.8l-0.2,6.2c-0.1,4.2-0.6,8.3-1.2,12.4c-0.6,4.1-1.3,8.2-2,12.3
		c-0.4,2-0.5,4.1-1.1,6.2c-0.6,2.1-1.5,4-2.6,5.8c-2.2,3.6-5.2,6.6-8.1,9.5c-0.7,0.7-1.5,1.4-2.1,2.2c-0.6,0.8-0.9,1.6-1.2,2.7
		c-0.8,2-1.7,3.8-2.4,5.7c-1.4,3.9-2.4,7.9-3.6,11.9c-0.6,2-1.2,4-1.6,6c-0.4,2-0.6,4.1-0.1,6c0.1,0.3,0.1,0.5,0.2,0.7
		c0.1,0.2,0.2,0.3,0.3,0.3c0.1,0,0.4,0.1,0.7,0.1l0.8,0.1c0.3,0,0.5,0.1,0.7,0.1c0.2,0,0.1,0,0.3,0c0.1,0,0.2-0.1,0.3-0.1
		c0.5-0.2,0.9-0.4,1.3-0.6c0.4-0.3,0.7-0.7,1.1-1l1-1.1c0.6-0.7,1-1.7,1.5-2.6c1.8-3.7,3.5-7.5,3.9-11.6l0-0.3l0.3,0
		c1.1,0,1.9,1.1,1.8,2c0,0.9-0.3,1.7-0.5,2.5l-1.2,4.7l-1.2,4.7c-0.2,0.8-0.3,1.6-0.8,2.4c-0.5,0.8-1.3,1.2-1.7,1.8
		c-0.4,0.6-0.5,1.4-1,2.2c-0.4,0.8-1.1,1.3-1.8,1.9c-1.3,1-2.7,1.8-3.1,3.3c-0.2,0.7-0.1,1.5,0.4,1.9c0.5,0.5,1.3,0.5,2,0.4
		c0.8-0.1,1.6-0.3,2.4-0.4c0.8-0.1,1.7-0.1,2.5-0.1c1.6,0.1,3.2,0.2,4.8-0.2c1.5-0.3,3-0.9,4.4-1.7c0.7-0.4,1.3-0.9,1.9-1.4
		c0.6-0.5,1.5-0.9,2.3-1c0.8-0.2,1.6-0.2,2.4-0.4c0.8-0.2,1.4-0.5,2-1c0.6-0.5,1.3-1.1,2-1.5c0.7-0.4,1.4-0.8,2.2-1.2
		c1.4-0.7,2.8-1.5,3.5-2.9c0.7-1.4,0.7-3,1-4.6c0.3-1.6,0.9-3.2,1.9-4.6l-0.1,0.2l-0.5-21c0-1.8-0.1-3.5-0.1-5.3
		c0-0.9,0.2-1.8,0.6-2.7c0.5-0.8,1.2-1.4,1.8-2c0.6-0.6,1.1-1.3,1.3-2.1c0.3-0.8,0.4-1.7,0.4-2.5c0.1-0.9,0.1-1.8,0.2-2.6
		c0.1-0.9,0.4-1.7,0.7-2.6c0.6-1.7,1.4-3.3,2.2-4.8c0.8-1.6,1.5-3.2,2.2-4.8c1.4-3.2,2.6-6.5,3.7-9.8c2.2-6.6,3.9-13.4,5.7-20.2
		c1.7-6.8,3.5-13.6,3.8-20.6c0.1-3.5-0.2-7-0.8-10.4c-0.6-3.4-1.4-6.9-2.2-10.3l-2.3-10.3c-0.8-3.4-1.5-6.9-2.4-10.2
		c-0.9-3.4-1.9-6.8-3.2-10c-0.7-1.6-1.4-3.2-2.3-4.7C283.7,248.6,282.7,247.1,281.7,245.7L281.7,245.7z"/>
</g>
<g>
	<path class="st6" d="M271.1,251.5c0,0,0.1,0.6,0.3,1.6c0.2,1,0.6,2.4,1.1,4c0.2,0.8,0.5,1.7,0.7,2.7c0.3,1,0.5,2,0.7,3.1
		c0.2,1.1,0.4,2.2,0.6,3.3c0.2,1.1,0.3,2.3,0.4,3.4c0.2,2.3,0.3,4.6,0.2,6.8c-0.1,1.1-0.1,2.1-0.3,3.1c-0.1,1-0.3,1.9-0.4,2.8
		c-0.1,0.9-0.3,1.6-0.5,2.3c-0.2,0.7-0.3,1.3-0.5,1.8c-0.3,1-0.5,1.5-0.5,1.5l-0.1,0c0,0,0.1-0.6,0.2-1.6c0.1-0.5,0.1-1.1,0.2-1.8
		c0.1-0.7,0.2-1.5,0.3-2.3c0.1-0.9,0.2-1.8,0.2-2.8c0.1-1,0.1-2,0.2-3.1c0.1-2.1,0.2-4.4,0.1-6.7c-0.1-1.1-0.1-2.3-0.3-3.4
		c-0.1-1.1-0.3-2.2-0.4-3.3c-0.3-2.1-0.8-4.1-1.2-5.8c-0.4-1.7-0.7-3.1-0.9-4.1c-0.2-1-0.2-1.6-0.2-1.6L271.1,251.5z"/>
</g>
<g>
	<path class="st6" d="M296.2,296.4c0,0-0.1,1.4-0.4,3.5c-0.1,1-0.2,2.3-0.4,3.6c-0.1,1.3-0.3,2.7-0.4,4.1c0,0.7,0,1.4,0,2
		c0,0.7,0.1,1.3,0.2,2c0.1,1.3,0.4,2.5,0.5,3.5c0.1,0.5,0.2,1,0.2,1.4c0.1,0.4,0.1,0.8,0.2,1.1c0.1,0.6,0.1,1,0.1,1l-0.1,0
		c0,0-0.6-1.3-1.3-3.3c-0.3-1-0.6-2.2-0.8-3.6c-0.1-0.7-0.1-1.4-0.1-2.1c0-0.7,0.1-1.4,0.2-2.1c0.2-1.4,0.4-2.8,0.6-4.1
		c0.2-1.3,0.4-2.5,0.6-3.5c0.4-2.1,0.6-3.4,0.6-3.4L296.2,296.4z"/>
</g>
<g>
	<path class="st6" d="M75.4,311c0,0,0.4,1.3,0.9,3.3c0.5,2,1.1,4.7,1.5,7.4c0.2,1.4,0.4,2.7,0.5,4c0,0.6,0.1,1.3,0.1,1.8
		c0,0.6,0,1.1,0,1.7c0,1-0.1,1.9-0.2,2.5c-0.1,0.6-0.1,0.9-0.1,0.9l-0.1,0c0,0-0.1-0.3-0.1-0.9c-0.1-0.6-0.1-1.4-0.2-2.5
		c-0.1-1-0.2-2.2-0.3-3.5c-0.1-1.3-0.2-2.6-0.3-4c-0.3-2.7-0.7-5.4-1.1-7.4C75.6,312.3,75.3,311,75.4,311L75.4,311z"/>
</g>
<g>
	<path class="st6" d="M124.7,401.6c0,0,0,0.4,0.1,0.9c0.1,0.5,0.3,1.2,0.6,1.8c0.1,0.3,0.3,0.6,0.5,0.9c0.1,0.3,0.2,0.6,0.3,0.8
		c0.2,0.5,0.2,0.9,0.2,0.9l-0.1,0.1c0,0-0.4-0.2-0.8-0.6c-0.2-0.2-0.4-0.5-0.6-0.8c-0.1-0.3-0.2-0.7-0.3-1.1c-0.2-0.7-0.3-1.5-0.2-2
		C124.5,401.9,124.6,401.6,124.7,401.6L124.7,401.6z"/>
</g>
<g>
	<path class="st6" d="M113.8,406.9c0,0,0,2.6-0.1,5.2c0,0.3,0,0.6,0,0.9c0,0.3,0.1,0.6,0.2,0.8c0.1,0.2,0.2,0.5,0.3,0.7
		c0.1,0.2,0.2,0.4,0.4,0.6c0.3,0.4,0.5,0.7,0.7,0.9c0.2,0.2,0.3,0.3,0.3,0.3l0,0.1c0,0-0.2,0-0.5-0.1c-0.3-0.1-0.7-0.3-1.1-0.6
		c-0.2-0.2-0.4-0.4-0.6-0.7c-0.2-0.3-0.3-0.5-0.4-0.9c-0.1-0.3-0.1-0.7-0.1-1c0-0.4,0-0.7,0.1-1
		C113.3,409.5,113.7,406.9,113.8,406.9L113.8,406.9z"/>
</g>
<g>
	<path d="M103.5,411.2c0,0-0.3,0.4-0.6,1.2c-0.3,0.8-0.6,2.1-0.4,3.5c0.1,0.7,0.5,1.4,1.2,1.9c0.7,0.5,1.5,1,2.2,1.6
		c1.5,1.2,3,2.6,4.3,4.2c1.3,1.6,2.4,3.3,3.2,5.1c0.4,0.9,0.7,1.8,1,2.5c0.3,0.7,0.9,1.1,1.6,1.4c0.7,0.4,1.3,0.8,1.8,1.2
		c0.5,0.4,0.9,0.7,1.2,1.1c0.6,0.6,1,1,1,1l-0.1,0.1c0,0-0.4-0.3-1.1-0.8c-0.4-0.3-0.8-0.5-1.3-0.9c-0.5-0.3-1.1-0.6-1.8-1
		c-0.3-0.2-0.7-0.3-1.1-0.6c-0.4-0.3-0.7-0.6-1-1.1c-0.5-0.9-0.6-1.7-1.1-2.6c-0.7-1.7-1.7-3.5-2.9-5.1c-1.2-1.6-2.6-3-4-4.2
		c-0.7-0.6-1.5-1.1-2.2-1.7c-0.3-0.3-0.7-0.6-0.9-1c-0.2-0.4-0.3-0.8-0.4-1.2c-0.2-1.6,0.2-2.8,0.6-3.6c0.2-0.4,0.4-0.7,0.5-0.9
		C103.3,411.2,103.4,411.1,103.5,411.2L103.5,411.2z"/>
</g>
<g>
	<path d="M98.4,412.4c0,0,0,0.1,0,0.2c0,0.2,0,0.4,0,0.7c0,0.6,0.4,1.3,1,2.1c0.6,0.8,1.4,1.7,1.9,2.9c0.5,1.2,0.6,2.6,1.2,3.7
		c0.3,0.5,0.8,1,1.1,1.7c0.3,0.7,0.4,1.3,0.6,1.9c0.2,0.5,0.4,1.1,0.7,1.5c0.3,0.5,0.6,0.9,0.9,1.3c0.6,0.8,1.1,1.4,1.5,1.9
		c0.4,0.5,0.6,0.7,0.6,0.7l-0.1,0.1c0,0-0.3-0.2-0.7-0.6c-0.5-0.4-1.1-0.9-1.8-1.7c-0.4-0.4-0.7-0.8-1.1-1.3
		c-0.3-0.5-0.6-1.1-0.9-1.7c-0.2-0.6-0.3-1.3-0.5-1.8c-0.2-0.5-0.6-1.1-1-1.7c-0.7-1.3-0.6-2.7-1-3.9c-0.4-1.1-1.1-2.1-1.6-3
		c-0.5-0.9-0.9-1.7-0.9-2.3c0-0.3,0-0.6,0.1-0.7C98.3,412.4,98.3,412.3,98.4,412.4L98.4,412.4z"/>
</g>
<g>
	<path class="st6" d="M249.6,395.5c0,0,0,0.1,0,0.3c0,0.2,0,0.5,0.1,0.8c0.1,0.7,0.6,1.5,1.1,2.3c0.2,0.4,0.5,0.8,0.7,1.2
		c0.2,0.4,0.3,0.9,0.3,1.3c0,0.4,0,0.7-0.1,0.9c-0.1,0.2-0.1,0.3-0.1,0.3l-0.1,0c0,0-0.1-0.1-0.1-0.3c-0.1-0.2-0.2-0.5-0.3-0.8
		c-0.1-0.3-0.3-0.6-0.5-1c-0.2-0.4-0.3-0.8-0.5-1.3c-0.2-0.4-0.4-0.9-0.5-1.3c-0.1-0.4-0.2-0.9-0.2-1.3c0-0.4,0-0.7,0.1-0.9
		c0.1-0.2,0.1-0.3,0.1-0.3L249.6,395.5z"/>
</g>
<g>
	<path d="M261.4,400.3c0,0,0.1,0.1,0.3,0.2c0.2,0.1,0.5,0.4,0.8,0.8c0.3,0.4,0.6,0.9,0.8,1.6c0.2,0.7,0.3,1.4,0.2,2.2
		c-0.1,0.8-0.3,1.7-0.7,2.6c-0.4,0.9-0.9,1.7-1.4,2.6c-0.5,0.9-1.1,1.7-1.6,2.7c-0.5,0.9-0.9,1.9-1.1,2.9c-0.2,1-0.4,2.1-0.7,3.2
		c-0.3,1.1-0.8,2.1-1.6,2.9c-0.8,0.8-1.6,1.4-2.4,1.9c-0.8,0.5-1.5,1-2.2,1.4c-0.7,0.4-1.3,0.8-1.9,1.2c-0.6,0.3-1.1,0.6-1.5,0.9
		c-0.8,0.5-1.3,0.7-1.3,0.7l-0.1-0.1c0,0,0.4-0.4,1.2-0.9c0.4-0.3,0.8-0.7,1.3-1.1c0.5-0.4,1.1-0.9,1.8-1.3c0.7-0.5,1.4-1,2.1-1.6
		c0.7-0.6,1.5-1.1,2.2-1.8c0.7-0.7,1.1-1.5,1.4-2.5c0.3-1,0.5-2,0.8-3.1c0.3-1.1,0.7-2.1,1.2-3.1c0.5-0.9,1.1-1.8,1.7-2.7
		c0.6-0.8,1.1-1.7,1.5-2.5c0.4-0.8,0.6-1.7,0.7-2.4c0.2-1.6-0.2-2.9-0.8-3.7c-0.3-0.4-0.5-0.6-0.7-0.8
		C261.5,400.4,261.4,400.3,261.4,400.3L261.4,400.3z"/>
</g>
<g>
	<path d="M268.7,403.3c0,0,0.1,0.3,0.2,0.9c0.2,0.6,0.6,1.3,0.8,2.4c0.1,0.5,0.2,1.1,0.1,1.7c-0.1,0.6-0.6,1.2-0.9,1.7
		c-0.8,1-1.5,2.2-2.1,3.4c-0.6,1.2-1.1,2.5-1.5,3.7c-0.4,1.2-0.7,2.4-1,3.4c-0.4,1-0.8,1.8-1.3,2.2c-0.2,0.2-0.4,0.4-0.5,0.5
		c-0.1,0.1-0.2,0.1-0.2,0.1l-0.1-0.1c0,0,0.2-0.3,0.6-0.7c0.1-0.3,0.3-0.6,0.5-0.9c0.1-0.4,0.3-0.8,0.4-1.3c0.1-0.5,0.2-1,0.3-1.6
		c0.1-0.6,0.3-1.2,0.5-1.8c0.4-1.3,1-2.5,1.7-3.7c0.7-1.2,1.5-2.4,2.3-3.4c0.4-0.5,0.8-0.9,0.9-1.5c0.2-0.5,0.1-1.1,0-1.6
		c-0.2-1-0.5-1.8-0.7-2.4C268.6,403.7,268.6,403.4,268.7,403.3L268.7,403.3z"/>
</g>
<g>
	<path d="M273.4,404.6c0,0,0.1,0.2,0.3,0.7c0.2,0.4,0.5,1,0.6,1.8c0.1,0.4,0.1,0.9,0,1.4c-0.1,0.5-0.4,1-0.7,1.3
		c-0.4,0.4-0.6,0.7-1,1.2c-0.3,0.4-0.5,0.8-0.7,1.3c-0.4,0.9-0.6,1.9-0.9,2.9c-0.3,0.9-0.6,1.8-0.9,2.6c-0.4,0.7-0.7,1.3-1,1.7
		c-0.3,0.4-0.5,0.5-0.5,0.5l-0.1-0.1c0,0,0.1-0.2,0.3-0.7c0.1-0.2,0.2-0.5,0.3-0.8c0.1-0.3,0.2-0.6,0.3-1c0.2-0.8,0.4-1.6,0.7-2.6
		c0.3-1,0.6-2,1.2-3c0.2-0.5,0.5-1,0.9-1.4c0.3-0.4,0.7-0.8,1.1-1.1c0.3-0.3,0.6-0.7,0.7-1.1c0.1-0.4,0.2-0.8,0.1-1.2
		c-0.1-0.8-0.3-1.4-0.4-1.8C273.4,404.8,273.3,404.6,273.4,404.6L273.4,404.6z"/>
</g>
<g>
	<g>
		<path class="st3" d="M141.2,133.3c-4.8-10.4-6.9-22-6.1-33.4c0.3-4.5,1.1-9.2,3.3-13.2c2.3-4.2,6-7.4,9.9-9.9
			c17.3-11.1,40.5-9.7,56.5,3.2c2.8,9.2,5.6,18.8,4.5,28.3c-0.6,5.8-2.8,11.4-2.7,17.3l-0.3,2c0.1,3.4,0.1,6.7,0.2,10
			c0.1,1.2,0.1,2.4,0,3.5c-0.4,9.6-17,27.5-19.1,28c-4.2,1.1-8.6-0.4-12.4-2.4s-26.4-12.5-28.7-17.1
			C144.2,145.1,141.2,133.3,141.2,133.3z"/>
		<path d="M141.2,133.3c-2.1-4.6-3.7-9.5-4.8-14.5c-1.1-5-1.6-10.1-1.5-15.2c0-2.6,0.2-5.1,0.5-7.7c0.4-2.5,1-5,2-7.4
			c1-2.4,2.5-4.5,4.2-6.4c1.7-1.9,3.8-3.5,5.9-4.9c2.2-1.4,4.4-2.7,6.7-3.7c2.3-1.1,4.8-1.9,7.2-2.6c0.6-0.2,1.2-0.3,1.9-0.5
			l1.9-0.4c1.3-0.3,2.5-0.4,3.8-0.6c1.3-0.2,2.6-0.2,3.8-0.3c1.3-0.1,2.6,0,3.9,0c1.3,0.1,2.6,0.2,3.8,0.3c1.3,0.2,2.5,0.4,3.8,0.6
			c1.3,0.3,2.5,0.6,3.7,0.9c1.2,0.4,2.4,0.8,3.7,1.2l3.6,1.5l3.4,1.8l3.3,2l3.1,2.3l0.1,0.1l0,0.1c1.1,3.7,2.2,7.4,3.1,11.2
			c0.9,3.8,1.5,7.6,1.7,11.5c0,1,0,2,0,2.9c0,1-0.1,2-0.2,2.9c-0.2,1.9-0.6,3.9-1,5.8c-0.8,3.8-1.7,7.6-1.6,11.4l0,0l0,0l-0.3,2
			l0-0.1l0.1,7l0,3.5c0,1.2,0,2.3,0,3.5c-0.2,2.4-1.2,4.7-2.2,6.8c-1.1,2.1-2.3,4.1-3.6,6.1c-2.6,3.9-5.6,7.5-8.8,10.9
			c-0.8,0.8-1.6,1.7-2.5,2.5c-0.4,0.4-0.9,0.8-1.4,1.2c-0.1,0.1-0.2,0.2-0.4,0.3c-0.1,0.1-0.3,0.2-0.5,0.3c-0.4,0.1-0.6,0.1-0.9,0.2
			c-2.4,0.4-4.8,0.1-7.1-0.7c-1.1-0.4-2.2-0.8-3.3-1.3c-1.1-0.5-2.1-1.1-3.1-1.6L167,163c-4.1-2.1-8.3-4.3-12.3-6.7
			c-2-1.2-4-2.5-5.8-3.9c-0.9-0.7-1.8-1.5-2.5-2.5c-0.6-1.1-1-2.1-1.4-3.2c-0.8-2.2-1.5-4.4-2.1-6.7
			C142.4,137.8,141.8,135.5,141.2,133.3z M141.3,133.2c0.6,2.2,1.2,4.5,1.9,6.7c0.7,2.2,1.4,4.4,2.2,6.6c0.4,1.1,0.8,2.2,1.4,3.2
			c0.6,0.9,1.5,1.7,2.4,2.4c1.8,1.4,3.8,2.6,5.8,3.8c4,2.3,8.2,4.5,12.3,6.5l6.3,3.1c1.1,0.5,2.1,1.1,3.1,1.5c1,0.5,2.1,0.9,3.2,1.2
			c2.2,0.7,4.5,0.9,6.7,0.5c0.3-0.1,0.6-0.1,0.8-0.2c0.1,0,0.2-0.1,0.3-0.2c0.1-0.1,0.2-0.2,0.3-0.2c0.4-0.3,0.9-0.7,1.3-1.1
			c0.8-0.8,1.6-1.6,2.4-2.5c3.2-3.4,6.1-7,8.7-10.8c1.3-1.9,2.5-3.9,3.5-5.9c1-2.1,1.9-4.2,2.1-6.4c0.1-1.1,0-2.3,0-3.4l0-3.5
			l-0.1-7l0,0l0,0l0.3-2l0,0.1c-0.1-4,0.9-7.8,1.7-11.6c0.4-1.9,0.8-3.8,1-5.7c0.1-0.9,0.2-1.9,0.2-2.9c0.1-1,0-1.9,0-2.9
			c-0.1-3.8-0.7-7.6-1.6-11.4c-0.9-3.8-2-7.5-3.1-11.2l0.1,0.2l-3.1-2.3l-3.2-2l-3.4-1.7l-3.5-1.5c-1.2-0.4-2.4-0.8-3.6-1.2
			c-1.2-0.3-2.5-0.6-3.7-0.9c-1.3-0.2-2.5-0.5-3.8-0.6c-1.3-0.1-2.5-0.3-3.8-0.3c-1.3,0-2.5-0.1-3.8,0c-1.3,0.1-2.5,0.1-3.8,0.2
			c-1.3,0.2-2.5,0.3-3.8,0.5l-1.9,0.4c-0.6,0.1-1.2,0.3-1.8,0.4c-2.5,0.7-4.9,1.5-7.2,2.6c-2.3,1-4.5,2.3-6.7,3.7
			c-2.1,1.4-4.1,3-5.9,4.8c-1.7,1.8-3.2,4-4.2,6.3c-1,2.3-1.6,4.8-2,7.3c-0.4,2.5-0.5,5.1-0.6,7.6c-0.1,5.1,0.4,10.2,1.5,15.2
			C137.6,123.7,139.2,128.6,141.3,133.2L141.3,133.2L141.3,133.2z"/>
	</g>
</g>
<g>
	<path class="st7" d="M139.7,129.8c0.1,1.7,1.4,3.1,1.8,4.8c0.2,0.9,0.2,1.8,0.3,2.7c0.2,1.9,1.1,3.6,1.9,5.2c0.2,0.5,0.5,1,1,1.3
		c0.4-3.8-2.1-7.7-1.2-11.4c0.1-0.2,0.1-0.5,0.1-0.7c0-0.2-0.2-0.5-0.4-0.6c-1-1.1-2.5-1.7-4-1.7"/>
	<path d="M139.7,129.8c0.1,1.3,0.8,2.3,1.4,3.5c0.3,0.6,0.5,1.2,0.6,1.8c0.1,0.6,0.1,1.3,0.2,1.9c0.1,1.2,0.5,2.4,1.1,3.5
		c0.3,0.6,0.5,1.1,0.8,1.7c0.3,0.6,0.6,1.1,1,1.3l-0.5,0.3c0-0.7,0-1.4-0.1-2.1c-0.1-0.7-0.3-1.4-0.5-2.1l-0.5-2.1
		c-0.2-0.7-0.3-1.5-0.4-2.2c0-0.4,0-0.8,0-1.2c0-0.4,0.1-0.8,0.1-1.2c0.1-0.4,0.2-0.8,0.3-1c0-0.1,0-0.2-0.1-0.3
		c-0.1-0.1-0.2-0.2-0.3-0.4c-0.9-1-2.2-1.7-3.7-1.8l0-0.1c1.5-0.2,3.1,0.3,4.2,1.4c0.1,0.1,0.3,0.3,0.4,0.5c0.1,0.2,0.2,0.5,0.2,0.8
		c-0.1,0.5-0.1,0.8-0.2,1.1c0,0.3-0.1,0.7-0.1,1c0,0.3,0,0.7,0.1,1c0.2,1.4,0.5,2.8,0.8,4.2c0.1,0.7,0.3,1.5,0.4,2.2
		c0.1,0.8,0.1,1.5,0,2.3l-0.1,0.5l-0.5-0.2c-0.4-0.2-0.7-0.5-0.8-0.8c-0.2-0.3-0.3-0.6-0.5-0.9c-0.3-0.6-0.5-1.2-0.8-1.7
		c-0.5-1.2-0.9-2.4-1-3.7c0-0.6,0-1.3-0.1-1.9c-0.1-0.6-0.3-1.2-0.5-1.8c-0.2-0.6-0.5-1.1-0.8-1.7
		C139.8,131.1,139.6,130.5,139.7,129.8L139.7,129.8z"/>
</g>
<path class="st8" d="M188.8,113.6c-0.4,0.3,1.9,0.7,2.5,0.6c0.6-0.1,8.8-1.4,9.2-1.5c0.6-0.1,6.1,0,8.2,0.6c-2.4-1.1-1.2-1.1-3.8-2
	c-0.2-0.1-4.1-1.1-4.3-1.1c-0.6-0.1-5.6,1.4-7.6,2C191.7,112.5,188.8,113.6,188.8,113.6z"/>
<path class="st9" d="M205.7,80.9c2,6.8,4.6,9.1,3.3,18.9c-3.9-1.2-6.6-0.6-10.6-0.8c-3.1-0.2-13.1-1-16.1-0.9
	c-9.7,0.3-12.5,1.4-22.2,1.7c-0.7,0-1.4,0-2,0.4c-0.6,0.3-1,0.9-1.4,1.5c-1.8,3-1.9,7-4.3,9.6c-0.7,0.8-1.6,1.4-2.1,2.3
	c-0.3,0.6-0.5,1.3-0.6,2c-0.5,2.8-1.1,5.7-1.6,8.5c-0.4-2.8-0.9-5.7-1.3-8.5c-0.2-1.3-0.4-2.7-1.1-3.9c-2.1-3.6-7.3-3.6-11.3-2.5
	c-2.6-6.7-1.6-14.2,0.7-21c4-11.9,19.7-15.7,22.4-17c2.1-1,4.4-1.5,6.7-2c12.8-2.3,26.4,0.4,37.4,7.4L205.7,80.9z"/>
<rect x="137" y="112.5" transform="matrix(-0.8995 -0.4369 0.4369 -0.8995 233.9173 280.3939)" class="st10" width="24.3" height="1.7"/>
<g>
	<path d="M146.6,115.6c-0.2-1.3-0.5-2.7-1.2-3.9c-0.7-1.2-1.9-2-3.1-2.5c-1.3-0.5-2.7-0.6-4-0.5c-1.4,0.1-2.7,0.3-4,0.7l-0.1,0
		l0-0.1c-1.5-3.8-1.9-7.9-1.5-12c0.2-2,0.6-4,1.1-6c0.5-2,1.1-3.9,2-5.7c0.9-1.8,2.2-3.5,3.6-4.9c1.4-1.4,3-2.7,4.7-3.8
		c3.4-2.2,7.2-3.8,11-5.2l1.4-0.5c0.5-0.2,0.9-0.4,1.4-0.6c1-0.4,1.9-0.7,2.9-1c2-0.6,4-0.9,6-1.2c2-0.2,4.1-0.4,6.1-0.4
		c2,0,4.1,0.1,6.1,0.3c2,0.2,4,0.5,6,1c2,0.4,3.9,1,5.9,1.7c1.9,0.7,3.8,1.4,5.6,2.4c1.8,0.9,3.6,1.9,5.3,3l0,0l0,0l4.1,4.2l0.1,0.1
		l0,0.1c0.4,1.6,1,3.1,1.5,4.6c0.6,1.5,1.1,3.1,1.4,4.7c0.2,0.8,0.3,1.6,0.4,2.4l0.1,1.2l0,1.2l0,1.2c0,0.4-0.1,0.8-0.1,1.2
		c-0.1,0.8-0.2,1.6-0.3,2.4l-0.1,0c0.1-0.8,0.2-1.6,0.2-2.4c0-0.4,0.1-0.8,0-1.2l0-1.2l-0.1-1.2l-0.1-1.2c-0.1-0.8-0.3-1.6-0.4-2.4
		c-0.4-1.6-1-3.1-1.5-4.6c-0.6-1.5-1.2-3.1-1.7-4.6l0.1,0.2l-4.2-4.1l0.1,0.1c-1.7-1-3.4-2-5.2-2.9c-1.8-0.9-3.7-1.6-5.5-2.3
		c-1.9-0.6-3.8-1.2-5.8-1.6c-1.9-0.5-3.9-0.7-5.9-1c-2-0.2-4-0.3-6-0.3c-2,0-4,0.1-6,0.4c-2,0.3-4,0.6-5.9,1.1
		c-1,0.3-1.9,0.6-2.8,0.9c-0.4,0.2-0.9,0.4-1.4,0.6l-1.4,0.5c-3.8,1.3-7.5,2.9-10.9,5c-1.7,1.1-3.3,2.3-4.7,3.7
		c-1.4,1.4-2.6,3-3.6,4.7c-0.9,1.7-1.5,3.7-2,5.6c-0.5,1.9-0.9,3.9-1.1,5.9c-0.4,4-0.1,8.1,1.3,11.8l-0.2-0.1
		c1.3-0.4,2.7-0.6,4.1-0.6c1.4,0,2.8,0.1,4.1,0.6c1.3,0.5,2.5,1.4,3.2,2.6C146.3,112.9,146.5,114.3,146.6,115.6L146.6,115.6z"/>
</g>
<g>
	<path class="st3" d="M146.5,133.3c-4.6-1.2-8.6-4.3-11-8.3c-2.4-4.1-3.3-9-2.2-13.6c0.5-1.9,1.3-3.9,3.1-4.6
		c2.1-0.8,4.3,0.5,6.2,1.7c1,0.7,2,1.3,3,1.9"/>
	<path class="st11" d="M143.9,109.4c-0.5-0.3-1.2-0.7-1.9-1.1s-1.5-0.9-2.5-1.2c-0.9-0.3-2-0.5-3,0c-1,0.5-1.7,1.4-2.2,2.5
		c-0.3,0.6-0.5,1.2-0.6,1.8c-0.2,0.7-0.3,1.3-0.3,1.9c-0.1,1.3-0.1,2.7,0.1,4c0.2,1.3,0.5,2.6,0.9,3.9c0.5,1.2,1,2.4,1.6,3.5
		c0.3,0.6,0.7,1,1,1.5c0.4,0.5,0.7,1,1.1,1.4c0.8,0.9,1.6,1.6,2.4,2.2c0.8,0.7,1.6,1.2,2.3,1.6c0.7,0.4,1.4,0.7,1.9,1
		c0.6,0.2,1,0.4,1.3,0.5c0.3,0.1,0.5,0.2,0.5,0.2s-0.2-0.1-0.5-0.1c-0.4-0.1-0.8-0.2-1.4-0.4c-0.6-0.2-1.3-0.5-2-0.8
		s-1.6-0.8-2.5-1.4c-0.9-0.6-1.7-1.3-2.6-2.2c-0.4-0.4-0.8-0.9-1.2-1.4c-0.4-0.5-0.8-1.1-1.1-1.6c-0.7-1.1-1.3-2.3-1.8-3.7
		s-0.8-2.7-1-4.1c-0.2-1.4-0.2-2.8,0-4.2c0.1-0.3,0.1-0.7,0.2-1c0.1-0.3,0.2-0.7,0.2-1c0.2-0.7,0.4-1.4,0.7-2
		c0.3-0.6,0.6-1.2,1.1-1.7c0.3-0.3,0.5-0.5,0.8-0.7s0.6-0.4,0.9-0.5c1.3-0.5,2.5-0.3,3.5,0.2c1,0.4,1.8,1,2.5,1.4
		c0.7,0.5,1.3,0.9,1.8,1.3c1,0.7,1.5,1.1,1.5,1.1S144.9,110.1,143.9,109.4z"/>
</g>
<g>
	<path class="st3" d="M141.2,129c0.5,1.1,1.5,1.8,2.6,1.8c1.1,0.1,2.4-1,3-2c-1-0.8-3.5-5.4-3.3-5.9c0.6-1.2,2.5-1.2,2.7-2.5
		c0.1-0.6,0.2-1.3,0.1-1.9c-0.1-0.7-0.4-1.3-0.7-1.9c-1.3-2.6-2.8-5.5-5.5-6.4c-0.8-0.3-1.7-0.3-2.3,0.3c-0.6,0.5-0.8,1.3-1,2
		c-0.4,1.4-0.8,2.8-1.2,4.2c-0.2,0.6-0.4,1.2-0.4,1.9c0,0.9,0.4,1.7,0.7,2.5c0.4,0.8,0.8,1.7,1.1,2.5c0.2,0.5,0.5,1,0.8,1.3
		c0.4,0.3,0.8,0.5,1.2,0.8c1,0.7,1.5,1.9,2,3.1"/>
	<path class="st11" d="M139.4,126.3c-0.4-0.3-0.7-0.6-1.2-0.8c-0.2-0.1-0.5-0.3-0.7-0.4c-0.2-0.2-0.4-0.4-0.5-0.6
		c-0.3-0.5-0.5-0.9-0.7-1.3l-0.6-1.3c-0.4-0.9-0.9-1.7-1.1-2.8c-0.1-0.5-0.1-1.1,0.1-1.6c0.1-0.5,0.3-1,0.4-1.4l0.8-2.8l0.4-1.4
		c0.2-0.5,0.4-1,0.7-1.5c0.1-0.1,0.2-0.2,0.3-0.3c0.1-0.1,0.2-0.2,0.4-0.3c0.3-0.2,0.6-0.2,0.9-0.3c0.6-0.1,1.1-0.1,1.7,0.2
		c0.5,0.1,1,0.4,1.4,0.7c0.5,0.3,0.9,0.6,1.2,1c0.8,0.7,1.3,1.5,1.8,2.4c0.5,0.9,0.9,1.8,1.3,2.6c0.2,0.5,0.4,0.9,0.6,1.4
		s0.2,1.1,0.1,1.6c-0.1,0.3-0.1,0.5-0.1,0.8v0.1v0.1v0.1l-0.1,0.2c0,0.1-0.1,0.4-0.2,0.5c-0.2,0.3-0.5,0.5-0.7,0.6
		c-0.2,0.2-0.5,0.3-0.7,0.4c-0.4,0.3-0.8,0.5-1.1,0.7c-0.1,0.1-0.1,0.2-0.2,0.2v0.1c-0.1,0.1,0-0.1,0-0.1l0,0l0,0c0,0.1,0,0,0,0
		v-0.1c0,0,0,0.1,0,0.1c0.1,0.2,0.1,0.4,0.2,0.6c0.4,0.9,0.8,1.7,1.3,2.5c0.2,0.4,0.5,0.8,0.7,1.2c0.3,0.4,0.6,0.8,0.9,1.1l0.2,0.2
		l-0.1,0.2c-0.4,0.5-0.8,1-1.3,1.3c-0.5,0.4-1,0.6-1.7,0.7c-0.1,0-0.2,0-0.3,0c-0.1-0.1-0.1-0.1-0.2-0.1c-0.2,0-0.3-0.1-0.5-0.1
		c-0.3-0.1-0.6-0.3-0.8-0.4c-0.5-0.4-0.9-0.8-1.1-1.4c0.3,0.6,0.7,1,1.2,1.3c0.2,0.2,0.5,0.3,0.8,0.4c0.2,0.1,0.3,0.1,0.4,0.1
		c0.1,0,0.2,0,0.2,0h0.2c0.6-0.1,1.1-0.4,1.5-0.7c0.5-0.4,0.8-0.8,1.1-1.3l0.1,0.4c-0.5-0.3-0.7-0.7-1-1.1s-0.6-0.8-0.8-1.2
		c-0.6-0.8-1-1.7-1.4-2.6c-0.1-0.2-0.2-0.5-0.3-0.7c0-0.1-0.1-0.2-0.1-0.3c0-0.1,0-0.3,0-0.3l0,0l0,0c0,0,0.1-0.2,0.1-0.1l0.1-0.1
		c0.1-0.1,0.2-0.3,0.3-0.4c0.4-0.5,0.9-0.7,1.3-0.9s0.8-0.5,1-0.7c0.1-0.1,0.1-0.1,0.1-0.1c0-0.1,0.1-0.1,0.1-0.1l0.1-0.2l0,0
		c0,0,0,0.1,0,0.1l0,0v-0.1v-0.1c0-0.3,0.1-0.5,0.1-0.7c0.1-0.5,0-0.9-0.1-1.3c-0.1-0.4-0.3-0.9-0.5-1.3c-0.4-0.9-0.9-1.7-1.3-2.5
		c-0.5-0.8-1-1.5-1.7-2.2c-0.3-0.4-0.7-0.6-1-0.9c-0.4-0.2-0.7-0.4-1.2-0.6c-0.4-0.2-0.9-0.2-1.2-0.2c-0.2,0-0.4,0.1-0.5,0.2
		c-0.1,0.1-0.2,0.1-0.3,0.2c-0.1,0.1-0.2,0.2-0.2,0.2c-0.5,0.6-0.7,1.6-1,2.5l-0.8,2.8c-0.3,1-0.6,1.8-0.5,2.7
		c0.2,0.9,0.6,1.7,0.9,2.6l0.6,1.3c0.2,0.5,0.4,0.9,0.6,1.3c0.2,0.4,0.6,0.7,1,0.9c0.4,0.3,0.9,0.5,1.2,0.9c0.7,0.8,1,1.7,1.3,2.6
		C140.6,127.9,140.1,127,139.4,126.3z"/>
</g>
<g>
	<path class="st1" d="M175.2,118.9c-0.9-1-1.9-2-3.1-2.7c-0.3-0.2-0.6-0.4-0.9-0.5c-0.4-0.1-1.2-0.3-1.7-0.4c-1.6-0.2-2.4-0.2-3.8,0
		c-0.7,0.1-1.5,0.1-2.1,0.3c-1.4,0.3-2.6,1.2-3.6,2.1c-0.1,0.1,0.2,0.3,0.2,0.4c0,0.1,0.1,0.2,0.2,0.3c1.1,1.2,1.9,2,3.3,2.8
		c0.5,0.3,1,0.6,1.6,0.7c0.7,0.2,1.5,0.3,2.3,0.4c3.9,0.4,5.8-0.3,8.7-0.8c0.1,0,0.2,0,0.3-0.1s0-0.2-0.1-0.3
		C176.1,120.4,175.7,119.7,175.2,118.9z"/>
	<path d="M175.2,118.9c-0.5-0.5-1-1.1-1.6-1.5c-0.6-0.5-1.2-0.9-1.8-1.3c-0.3-0.2-0.7-0.3-1-0.3c-0.4-0.1-0.7-0.2-1.1-0.2
		c-0.7-0.1-1.5-0.1-2.2-0.1c-0.4,0-0.7,0-1.1,0.1c-0.4,0-0.7,0.1-1.1,0.1c-0.4,0-0.7,0.1-1.1,0.1c-0.3,0.1-0.7,0.1-1,0.2
		c-0.7,0.2-1.3,0.6-1.9,1c-0.3,0.2-0.6,0.4-0.9,0.7l-0.1,0.1l-0.1,0c0,0-0.1,0,0,0c0,0,0,0,0,0c0-0.2,0-0.1,0-0.1l0.1,0.1
		c0,0,0.1,0.1,0.1,0.1c0,0,0.1,0.2,0,0.2c0,0,0,0,0,0c0,0.1,0.1,0.1,0.1,0.2l0,0c1,1.1,2,2.1,3.2,2.7c0.3,0.2,0.6,0.3,0.9,0.5
		c0.3,0.1,0.6,0.3,1,0.3l1.1,0.2c0.3,0.1,0.7,0.1,1,0.2c1.4,0.1,2.9,0.2,4.3,0c1.4-0.2,2.8-0.5,4.2-0.7l0,0l0,0c0.1,0,0.2,0,0.2-0.1
		c0.1-0.1,0-0.2,0-0.2l0,0L175.2,118.9z M175.2,118.9l1.4,2.1l0,0c0,0.1,0.1,0.2,0.1,0.3c-0.1,0.1-0.2,0.2-0.3,0.2l0,0
		c-1.4,0.2-2.8,0.6-4.2,0.8c-1.4,0.2-2.9,0.2-4.3,0.1c-0.4,0-0.7-0.1-1.1-0.2l-1.1-0.2c-0.4,0-0.7-0.2-1.1-0.3
		c-0.3-0.1-0.7-0.3-1-0.5c-0.6-0.3-1.2-0.8-1.8-1.2c-0.6-0.5-1.1-1-1.6-1.5l0,0l0,0c0-0.1-0.1-0.1-0.2-0.3c0,0,0-0.1,0-0.1
		c0-0.1,0,0,0,0l-0.1-0.1l-0.1-0.1c0-0.1-0.1-0.1-0.1-0.3c0-0.1,0-0.1,0.1-0.1c0.1-0.1,0,0,0.1-0.1l0.1,0l0.1-0.1
		c0.3-0.2,0.6-0.5,0.9-0.7c0.6-0.5,1.3-0.9,2-1.1c0.4-0.1,0.7-0.2,1.1-0.3c0.4-0.1,0.8-0.1,1.1-0.1c0.4,0,0.8-0.1,1.1-0.1
		c0.4,0,0.8,0,1.1,0c0.8,0,1.5,0.1,2.3,0.2c0.4,0.1,0.7,0.2,1.1,0.3c0.4,0.1,0.7,0.2,1.1,0.4c0.6,0.4,1.2,0.9,1.8,1.4
		C174.2,117.8,174.7,118.3,175.2,118.9L175.2,118.9z"/>
</g>
<g>
	<path class="st11" d="M175.2,118.8c0,0-0.1-0.2-0.2-0.4c-0.2-0.2-0.4-0.6-0.7-0.9c-0.3-0.4-0.7-0.8-1.1-1.2
		c-0.4-0.4-0.9-0.8-1.4-1.2c-0.3-0.2-0.5-0.4-0.8-0.5c-0.3-0.2-0.6-0.3-0.8-0.4c-0.3-0.1-0.6-0.2-0.8-0.3c-0.3-0.1-0.6-0.1-0.8-0.2
		c-1-0.2-1.6-0.3-1.6-0.3v-0.1c0,0,0.2,0,0.4-0.1c0.3,0,0.7-0.1,1.2,0c0.5,0.1,1.1,0.1,1.7,0.3c0.3,0.1,0.6,0.3,0.9,0.5
		c0.3,0.2,0.6,0.4,0.8,0.6c0.5,0.4,1,0.9,1.4,1.3c0.4,0.5,0.7,0.9,1,1.3c0.3,0.4,0.4,0.7,0.6,1C175.2,118.6,175.2,118.7,175.2,118.8
		L175.2,118.8z"/>
</g>
<path class="st12" d="M166.7,115.4c-0.3,0-1.2,0.2-1.5,0.4c-1.2,0.6-1.8,1.9-1.4,3.1c0.4,1.2,1.6,2.1,2.8,2.5
	c0.3,0.1,0.5,0.2,0.8,0.2c0.2,0,0.8,0,1.2-0.1c0.8-0.3,0.8-0.2,1.5-0.8c0.5-0.7,0.4-0.6,0.7-1.1c0.2-0.4,0.3-1.1,0.3-1.5
	c0-0.7-0.2-1.4-0.8-1.8c-0.6-0.4-1.7-0.7-2.5-0.8L166.7,115.4z"/>
<path class="st1" d="M168.7,116c0.6-0.2,1.3,0.1,1.5,0.7c0.2,0.6-0.1,1.2-0.7,1.4c-0.6,0.2-1.3-0.1-1.5-0.7
	C167.8,116.8,168.1,116.2,168.7,116z"/>
<g>
	<g>
		<path d="M171.8,119.4c0.3-0.3-1-1.3-1.4-0.9c-1.2,1.4-2.7,2.5-4.7,1.9c-1-0.3-0.2,0.8,0.4,0.9c1,0.3,2,0.3,3,0
			C170.2,121.1,171,120.3,171.8,119.4L171.8,119.4z"/>
	</g>
</g>
<g>
	<path class="st1" d="M191.6,120.9c-0.1,0.1-0.1,0.2-0.1,0.3c0.1,0.1,0.2,0.1,0.3,0.1c2.7,0.5,4.4,1.2,8,0.8
		c0.7-0.1,1.5-0.2,2.1-0.4c0.6-0.2,1.1-0.5,1.5-0.7c1.3-0.8,2-1.6,3-2.8c0.1-0.1,0.2-0.2,0.2-0.3c0-0.1,0.3-0.3,0.2-0.4
		c-1-0.8-2-1.8-3.3-2.1c-0.6-0.1-1.3-0.2-1.9-0.3c-1.3-0.1-2-0.1-3.5,0c-0.5,0-1.2,0.2-1.6,0.4c-0.3,0.1-0.6,0.3-0.9,0.5
		c-1.1,0.7-2,1.7-2.8,2.7C192.5,119.5,192.1,120.2,191.6,120.9z"/>
	<path d="M191.7,120.9c0,0.1-0.1,0.2,0,0.3c0,0.1,0.1,0.1,0.2,0.1l0,0l0,0c1.3,0.2,2.6,0.5,4,0.7c1.3,0.1,2.7,0.1,4-0.1
		c0.6-0.1,1.3-0.2,1.9-0.3c0.3-0.1,0.6-0.2,0.9-0.3c0.3-0.1,0.6-0.3,0.9-0.5c1.1-0.7,2-1.6,2.9-2.6l0,0c0.1-0.1,0.1-0.2,0.1-0.2l0,0
		l0,0c0-0.1,0,0,0-0.1c0.1-0.1,0.1-0.1,0.1-0.2c0.1-0.1,0.1-0.2,0.1-0.1c0,0,0,0.1,0,0.1c0,0,0,0,0,0l-0.1-0.1
		c-0.3-0.2-0.5-0.5-0.8-0.7c-0.5-0.4-1.1-0.8-1.7-1.1c-0.6-0.2-1.3-0.3-2-0.4c-0.7-0.1-1.4-0.2-2.1-0.2c-0.7,0-1.4,0.1-2.1,0.2
		c-0.3,0.1-0.7,0.1-1,0.2c-0.3,0.1-0.7,0.2-0.9,0.4c-0.6,0.4-1.1,0.8-1.6,1.3c-0.5,0.5-1,1-1.4,1.5l0,0L191.7,120.9z M191.6,120.9
		l1.3-2.2l0,0l0,0c0.5-0.5,0.9-1.1,1.4-1.6c0.5-0.5,1-1,1.6-1.4c0.3-0.2,0.6-0.3,1-0.4c0.3-0.1,0.7-0.2,1-0.3
		c0.7-0.1,1.4-0.2,2.1-0.2c0.7,0,1.4,0.1,2.1,0.1c0.7,0.1,1.4,0.1,2.1,0.4c0.7,0.3,1.3,0.7,1.8,1.1c0.3,0.2,0.5,0.4,0.8,0.7l0.1,0.1
		l0.1,0.1c0.1,0.1,0.1,0.2,0.1,0.2c-0.1,0.2-0.1,0.2-0.2,0.3c0,0-0.1,0.1,0,0c0,0,0,0,0,0c0,0,0,0,0,0.1c0,0,0,0.1,0,0.1
		c0,0.1-0.1,0.2-0.1,0.2l0,0l0,0c-0.4,0.5-0.9,1-1.4,1.5c-0.5,0.5-1,0.9-1.6,1.3c-0.3,0.2-0.6,0.4-0.9,0.5c-0.3,0.2-0.6,0.3-1,0.4
		c-0.7,0.2-1.3,0.3-2,0.3c-1.3,0.1-2.7,0.1-4.1-0.1c-1.3-0.2-2.6-0.6-3.9-0.9l0,0c-0.1,0-0.2-0.1-0.3-0.2
		C191.5,121.1,191.6,121,191.6,120.9z"/>
</g>
<g>
	<path class="st11" d="M192.9,118.7c0-0.1,0.1-0.2,0.1-0.5c0.2-0.3,0.3-0.6,0.6-1c0.3-0.4,0.6-0.8,0.9-1.3c0.4-0.5,0.8-0.9,1.3-1.3
		c0.2-0.2,0.5-0.4,0.7-0.6c0.3-0.2,0.6-0.4,0.8-0.5c0.6-0.2,1.1-0.3,1.6-0.3s0.9,0,1.1,0c0.3,0.1,0.4,0.1,0.4,0.1v0.1
		c0,0-0.6,0.1-1.5,0.3c-0.2,0.1-0.5,0.1-0.7,0.2c-0.3,0.1-0.5,0.2-0.8,0.3c-0.3,0.1-0.5,0.2-0.8,0.4c-0.3,0.2-0.5,0.3-0.7,0.5
		c-0.5,0.4-0.9,0.8-1.3,1.2c-0.4,0.5-0.7,0.9-1,1.2c-0.3,0.4-0.5,0.7-0.6,0.9C193,118.5,192.9,118.7,192.9,118.7L192.9,118.7z"/>
</g>
<path class="st12" d="M197.9,115.3c-0.7,0.1-1.7,0.5-2.3,0.8c-0.6,0.3-0.8,1.1-0.8,1.8c0,0.4,0.1,1.1,0.3,1.5
	c0.2,0.6,0.1,0.5,0.6,1.2c0.6,0.7,0.6,0.6,1.4,0.8c0.3,0.1,0.9,0.2,1.1,0.1s0.5-0.1,0.7-0.2c1.2-0.5,2.3-1.3,2.7-2.5
	c0.4-1.3-0.1-2.5-1.3-3.1c-0.3-0.2-1.1-0.4-1.4-0.4L197.9,115.3z"/>
<circle class="st1" cx="198.8" cy="116.5" r="1.1"/>
<g>
	<g>
		<path d="M201.8,118.6c0.2-0.4-1.2-1-1.4-0.6c-0.8,1.6-2,2.9-3.9,2.7c-1-0.1,0,0.8,0.5,0.9c0.9,0.1,1.9-0.1,2.7-0.5
			C200.7,120.5,201.2,119.6,201.8,118.6L201.8,118.6z"/>
	</g>
</g>
<g>
	<path class="st11" d="M188.9,113.9c0.1,0,0,0.1-0.2,0.5c-0.1,0.2-0.4,0.5-0.6,1c-0.2,0.4-0.5,1-0.8,1.6c-0.2,0.6-0.4,1.3-0.5,2.1
		c-0.1,0.8,0,1.6,0.2,2.5c0.2,0.9,0.4,1.9,0.7,2.8c0.3,1,0.7,1.9,1.1,2.9c0.4,1,1,1.9,1.5,2.9c1.2,1.9,2.6,3.7,4,5.3
		c0.7,0.8,1.5,1.6,1.8,2.5c0.1,0.2,0.1,0.5,0.2,0.7c0,0.2,0,0.5,0,0.7c-0.1,0.4-0.2,0.9-0.4,1.2c-0.4,0.8-1.2,1.3-2,1.6
		c-0.8,0.3-1.5,0.3-2.1,0.3c-0.6,0-1-0.1-1.3-0.2c-0.1,0-0.2-0.1-0.3-0.1c-0.1,0-0.1,0-0.1,0v0c0,0,0.1,0,0.1,0c0.1,0,0.2,0,0.3,0.1
		c0.3,0.1,0.7,0.2,1.3,0.2s1.2-0.1,2-0.4c0.7-0.3,1.3-0.8,1.7-1.5c0.2-0.3,0.4-0.8,0.4-1.1c0-0.2-0.1-0.4-0.1-0.6
		c0-0.2-0.1-0.4-0.2-0.6c-0.4-0.8-1.1-1.6-1.8-2.4c-1.4-1.6-2.9-3.5-4-5.4c-0.6-1-1.1-1.9-1.5-2.9c-0.4-1-0.8-2-1-3
		c-0.2-1-0.5-1.9-0.6-2.9c-0.1-0.9-0.2-1.8-0.1-2.6c0.1-0.8,0.3-1.5,0.5-2.1c0.3-0.6,0.6-1.1,0.8-1.6c0.3-0.4,0.5-0.8,0.7-1
		C188.9,114,188.9,113.9,188.9,113.9L188.9,113.9z"/>
</g>
<g>
	<path class="st11" d="M188.1,141.6c-0.1-0.1,0.2-0.1,0.4-0.3c0.1-0.2,0.1-0.4,0-0.5c-0.1-0.2-0.4-0.3-0.7-0.3
		c-0.3,0-0.6,0.1-0.9,0.2s-0.5,0.4-0.8,0.6c-0.2,0.2-0.5,0.5-0.8,0.8c-0.3,0.3-0.7,0.5-1.1,0.6h-0.1l0,0h-0.1h-0.1h-0.2
		c-0.1,0-0.2,0-0.4,0c-0.2-0.1-0.5-0.1-0.7-0.2c-0.4-0.2-0.7-0.5-1-0.8c-0.2-0.3-0.4-0.7-0.4-1c-0.1-0.4-0.1-0.6-0.1-1
		c0.1-0.6,0.4-1,0.6-1.3c0.2-0.2,0.3-0.2,0.4-0.3s0.1-0.1,0.1-0.1l0.1,0.1c0,0-0.1,0.1-0.1,0.1c-0.1,0.1-0.2,0.2-0.2,0.3
		c-0.1,0.1-0.2,0.3-0.2,0.5c-0.1,0.2-0.1,0.4-0.1,0.7c0.1,0.3,0.1,0.5,0.2,0.8c0.1,0.3,0.2,0.6,0.4,0.9s0.4,0.5,0.7,0.7
		c0.2,0.1,0.3,0.2,0.5,0.2c0.1,0,0.2,0,0.2,0h0.2h0.1l0,0c0,0,0.1,0,0,0l0,0l0,0h0.1c0.4-0.1,0.7-0.3,1-0.5c0.2-0.2,0.5-0.5,0.8-0.7
		c0.2-0.3,0.5-0.5,0.9-0.6c0.3-0.2,0.7-0.2,1-0.2c0.3,0.1,0.6,0.2,0.7,0.4c0.1,0.2,0.1,0.4-0.1,0.6c-0.1,0.2-0.2,0.2-0.3,0.3
		C188.2,141.6,188.1,141.6,188.1,141.6L188.1,141.6z"/>
</g>
<path class="st1" d="M192.2,148.8c-3.5,0-6.9-0.3-10.2-1.1c-0.6-0.1-1.2-0.2-1.7-0.4c-1.3-0.4-2.5-1.3-3.9-1.4
	c1,2.9,3.7,4.8,6.3,6.4c0.3,0.2,0.6,0.3,1,0.4c0.6,0.2,1.3,0.1,1.8,0.3c0.3,0.1,0.6,0.3,0.8,0.3c0.3,0.1,0.7,0.1,1,0
	c0.9-0.1,1.8-0.3,2.7-0.4c0.2,0,0.3,0,0.4-0.1c0.4-0.3,0.2-0.8,0.2-1.3C190.6,150.5,191.9,149.9,192.2,148.8"/>
<g>
	<path class="st11" d="M195.1,147.3c-0.1,0.1-0.3,0.3-0.5,0.6c-0.2,0.2-0.6,0.4-1,0.7c-0.4,0.2-1,0.4-1.5,0.5
		c-0.6,0.2-1.2,0.2-1.8,0.3c-0.7,0.1-1.3,0.1-2,0.1c-0.7,0.1-1.5,0.1-2.2,0c-0.8-0.1-1.5-0.2-2.3-0.3l-0.3-0.1
		c-0.1-0.1-0.2-0.1-0.3-0.1l-0.5-0.2c-0.4-0.2-0.7-0.3-1.1-0.4l-0.3-0.1l-0.3-0.1c-0.2-0.1-0.3-0.2-0.5-0.2c-0.3-0.1-0.7-0.3-1-0.4
		c-1.3-0.6-2.5-1.1-3.5-1.7c-1-0.5-1.8-1.1-2.3-1.5c-0.3-0.2-0.5-0.4-0.6-0.5c-0.2-0.1-0.2-0.2-0.2-0.2s0.3,0.2,0.9,0.4
		c0.6,0.3,1.5,0.7,2.5,1.1c1,0.4,2.2,0.9,3.5,1.3c0.7,0.3,1.3,0.5,2,0.7c0.3,0.1,0.7,0.2,1.1,0.3l0.5,0.2c0.1,0,0.2,0.1,0.2,0.1
		l0.3,0.1c0.7,0.2,1.4,0.3,2.1,0.3c0.7,0.1,1.5,0.1,2.1,0.1c1.4,0.1,2.7,0.1,3.7,0c0.6-0.1,1.1-0.2,1.5-0.3c0.4-0.1,0.8-0.3,1.1-0.4
		c0.3-0.2,0.5-0.3,0.6-0.4c0.2-0.1,0.2-0.2,0.2-0.2S195.2,147.1,195.1,147.3z"/>
</g>
<g>
	<path class="st11" d="M193.1,148.5c-0.1,0.1-0.2,0.3-0.4,0.4c-0.2,0.2-0.3,0.4-0.5,0.7s-0.3,0.5-0.5,0.8c-0.3,0.6-0.6,1.2-0.7,1.6
		c-0.1,0.2-0.1,0.4-0.2,0.6c0,0.2-0.1,0.2-0.1,0.2s-0.1-0.1-0.1-0.2c0-0.1,0-0.3,0-0.6s0.1-0.6,0.2-0.9c0.1-0.2,0.1-0.3,0.2-0.5
		c0.1-0.2,0.2-0.3,0.2-0.5c0.2-0.3,0.4-0.6,0.6-0.8c0.2-0.3,0.4-0.4,0.7-0.6c0.2-0.2,0.4-0.3,0.6-0.3c0.2-0.1,0.2-0.1,0.2-0.1
		S193.3,148.2,193.1,148.5z"/>
</g>
<g>
	<path class="st11" d="M191.9,152.6c-0.1,0.1-0.3,0.2-0.6,0.3c-0.2,0.1-0.6,0.2-0.9,0.3c-0.4,0.1-0.8,0.2-1.2,0.3
		c-0.9,0.1-2,0.2-3.1,0.1c-0.6-0.1-1.2-0.2-1.7-0.3c-0.6-0.2-1.2-0.4-1.7-0.7c-0.5-0.2-1.1-0.6-1.6-0.9s-1-0.7-1.4-1.1
		c-0.9-0.8-1.6-1.6-2.1-2.3c-0.3-0.4-0.5-0.7-0.7-1.1s-0.3-0.6-0.4-0.8s-0.2-0.4-0.2-0.6c-0.1-0.2-0.1-0.2-0.1-0.2s0.2,0.3,0.4,0.7
		c0.2,0.4,0.7,1.1,1.2,1.8c0.3,0.3,0.6,0.7,1,1.1c0.3,0.4,0.8,0.7,1.2,1.1c0.4,0.3,0.8,0.7,1.3,1c0.4,0.3,1,0.6,1.5,0.8
		c0.5,0.2,1.1,0.4,1.6,0.6c0.6,0.2,1.1,0.3,1.7,0.4c0.5,0.1,1.1,0.2,1.6,0.2c0.5,0,1,0,1.5-0.1c0.4-0.1,0.9-0.1,1.2-0.2
		c0.3-0.1,0.7-0.2,0.9-0.2c0.5-0.2,0.8-0.3,0.8-0.3S192,152.6,191.9,152.6z"/>
</g>
<g>
	<path class="st11" d="M189.1,156.2c-0.2,0.1-0.4,0.3-0.8,0.4c-0.3,0.2-0.8,0.3-1.2,0.3c-0.2,0-0.5,0.1-0.7,0.1s-0.5,0-0.7,0
		c-0.2-0.1-0.5-0.1-0.7-0.1c-0.3-0.1-0.5-0.1-0.7-0.2c-0.4-0.2-0.8-0.3-1.2-0.5c-0.3-0.2-0.6-0.4-0.7-0.5c-0.2-0.2-0.3-0.2-0.3-0.2
		s0.1,0,0.3,0.1c0.2,0.1,0.4,0.2,0.8,0.3c0.2,0.1,0.4,0.1,0.6,0.2s0.4,0.1,0.6,0.2c0.4,0.1,0.9,0.1,1.3,0.2c0.5,0.1,1,0.1,1.4,0
		c0.2,0,0.4,0,0.6-0.1c0.2-0.1,0.4-0.1,0.6-0.1c0.3-0.1,0.6-0.2,0.8-0.2s0.3-0.1,0.3-0.1S189.3,156,189.1,156.2z"/>
</g>
<g>
	<path d="M190.9,150.8c0.1,0.1,0,0.1-0.1,0.2c-0.1,0.1-0.2,0.2-0.3,0.3c-0.1,0.1-0.3,0.1-0.5,0.2c-0.2,0-0.4,0-0.6,0
		c-0.4,0-0.8,0-1.1-0.1c-0.3-0.1-0.5-0.1-0.5-0.1v-0.1c0,0,0.2,0,0.5-0.1s0.7-0.1,1.1-0.2c0.2-0.1,0.4-0.1,0.6-0.2
		c0.2-0.1,0.3-0.1,0.5-0.1c0.1,0,0.2,0,0.3,0C190.8,150.8,190.9,150.8,190.9,150.8L190.9,150.8z"/>
</g>
<path d="M178.4,146.6c-0.4-0.2-0.9-0.4-1.3-0.6c-0.2-0.1-0.4-0.2-0.7-0.3c-0.1,0.3,0.1,0.6,0.2,0.8c0.1,0.2,0.3,0.4,0.5,0.6
	c0.2,0.3,0.3,0.6,0.5,0.9s0.4,0.6,0.7,0.7c-0.2-0.7-0.2-1.4-0.1-2.1"/>
<path class="st8" d="M173.8,112.3c-2-0.6-7.1-2.1-7.6-2c-0.2,0-4.1,1-4.3,1.1c-2.5,0.9-1.4,0.9-3.8,2c2.1-0.6,7.6-0.7,8.2-0.6
	c0.4,0.1,8.6,1.3,9.2,1.5c0.6,0.1,2.9-0.2,2.5-0.6C178,113.7,175.1,112.7,173.8,112.3z"/>
<g>
	<path class="st7" d="M141.2,78.5c8-10.2,25.6-11.1,33.6-10.8c1.8,0.1,3.7,0.3,5.5,0.6c6.9,1.2,13.5,3.6,19.6,7
		c1.6,0.9,3.2,1.9,4.6,3.2c3.8,3.7,5.1,9.3,5.6,14.6c0.1,1.4,0.1,3.5-0.7,5.5"/>
	<path d="M141.1,78.5c0,0,0.2-0.3,0.6-0.8c0.4-0.5,1.1-1.2,2-2.1c1.8-1.7,4.8-3.7,8.8-5.2c4-1.5,8.9-2.6,14.2-3
		c2.6-0.2,5.4-0.4,8.2-0.2c2.8,0.1,5.6,0.6,8.4,1.2c5.5,1.3,10.9,3.4,15.5,5.9c2.3,1.3,4.6,2.6,6.3,4.5c1.7,1.8,2.8,3.9,3.5,5.9
		c0.7,2,1.1,3.9,1.3,5.7c0.2,1.7,0.4,3.2,0.3,4.5c-0.1,1.2-0.3,2.2-0.5,2.8c-0.2,0.6-0.4,1-0.4,1l-0.1,0c0,0,0.1-0.3,0.3-1
		c0.2-0.6,0.4-1.6,0.4-2.8c0-1.2-0.2-2.7-0.4-4.4c-0.3-1.7-0.7-3.6-1.4-5.5c-0.7-2-1.8-4-3.5-5.7c-1.6-1.7-3.9-3-6.2-4.2
		c-4.6-2.4-9.9-4.4-15.4-5.6c-2.7-0.6-5.5-1.1-8.2-1.2c-2.7-0.1-5.5-0.1-8.1,0.1c-5.2,0.3-10.1,1.2-14.1,2.6c-2,0.7-3.7,1.5-5.2,2.3
		c-1.5,0.8-2.7,1.7-3.6,2.5c-0.9,0.8-1.6,1.5-2.1,2C141.4,78.3,141.2,78.5,141.1,78.5L141.1,78.5z"/>
</g>
<g>
	<path class="st7" d="M209.3,98.7c-0.3,3.5-4.7,2.3-7.8,3.5c0.4-0.4,0.8-0.8,1-1.4c-1.6,0.9-3.5,1.3-5.3,1c0.3-0.3,0.4-0.8,0.2-1.2
		c-2.1,0.5-4.3,0.8-6.5,0.8c0.2-0.2,0.5-0.5,0.7-0.7c-2.1,0-4.1,0.4-6.1,1.1c0.2-0.7,0.4-1.3,0.6-2c-2.6,0.3-5.1,1.1-7.4,2.3
		c0.2-0.5,0.4-1,0.7-1.5c-2.1-0.1-4.2,0.2-6.2,0.9c0.4-0.4,0.9-0.9,1.3-1.3c-2.6,0.3-5.2,1.1-7.5,2.3c0.4-0.5,0.8-1,1.3-1.5
		c-2.2,0.8-4.3,1.6-6.5,2.3c0.3-0.8,0.7-1.7,1-2.5c-2,1-4.1,1.7-6.2,2c0-3.6,0-7.1,0-10.7c0-1.1,0-2.2-0.5-3.1"/>
	<path d="M209.4,98.7c0,0.4-0.1,0.8-0.3,1.1c-0.2,0.4-0.5,0.7-0.8,0.9c-0.7,0.5-1.4,0.6-2.2,0.7c-1.5,0.2-3.1,0.3-4.5,0.8l-0.5,0.2
		l0.4-0.3c0.4-0.3,0.7-0.8,0.9-1.3l0.2,0.1c-1.6,0.9-3.5,1.3-5.4,1.1l-0.3,0l0.2-0.2c0.3-0.3,0.3-0.7,0.1-1l0.2,0.1
		c-2.1,0.5-4.4,0.8-6.6,0.9l-0.6,0l0.4-0.4l0.7-0.7l0.2,0.4c-2.1,0.1-4.1,0.4-6,1.1l-0.5,0.2l0.2-0.5l0.6-2l0.3,0.4
		c-2.5,0.4-5,1.1-7.3,2.3l-0.9,0.4l0.4-0.9l0.7-1.5l0.3,0.5c-2.1-0.1-4.1,0.2-6.1,0.9l-1.7,0.7l1.3-1.3l1.3-1.3l0.4,0.7
		c-2.6,0.4-5.1,1.1-7.4,2.3l-2.2,1.1l1.6-1.8l1.2-1.5l0.6,0.8c-2.2,0.8-4.3,1.6-6.5,2.3l-1.1,0.4l0.4-1l1-2.5l0.7,0.6
		c-2,1-4.2,1.6-6.4,2l-0.5,0.1l0-0.5l0.1-6.9l0.1-3.5c0-1.1,0.1-2.3-0.3-3.4l0.1,0c0.5,1.1,0.5,2.3,0.6,3.4l0.1,3.5l0.1,6.9
		l-0.5-0.4c2.1-0.4,4.2-1.1,6.1-2.1l1.1-0.6l-0.5,1.2l-1,2.5l-0.6-0.7c2.2-0.8,4.3-1.6,6.5-2.3l1.8-0.6l-1.2,1.4l-1.3,1.5l-0.6-0.8
		c2.4-1.2,5-1.9,7.7-2.3l1.2-0.2l-0.9,0.9l-1.3,1.3l-0.4-0.7c2-0.7,4.2-1,6.4-0.9l0.5,0l-0.2,0.5l-0.7,1.5l-0.5-0.5
		c2.4-1.2,4.9-1.9,7.6-2.2l0.5-0.1l-0.1,0.4l-0.6,2l-0.4-0.4c2-0.7,4.1-1,6.2-1l0.6,0l-0.4,0.4l-0.7,0.7l-0.2-0.4
		c2.2,0,4.4-0.2,6.5-0.7l0.1,0l0.1,0.1c0.2,0.5,0.1,1-0.2,1.4l-0.1-0.3c1.8,0.3,3.7-0.1,5.2-1l0.3-0.1l-0.1,0.3
		c-0.2,0.5-0.5,1-1,1.4l-0.1-0.2c1.5-0.5,3.1-0.5,4.6-0.8c0.8-0.1,1.5-0.3,2.2-0.7c0.3-0.2,0.6-0.5,0.7-0.8
		C209.2,99.4,209.2,99,209.4,98.7L209.4,98.7z"/>
</g>
<g>
	<path class="st6" d="M158.9,161c0,0,0.1,0.4,0.2,1.2c0.1,0.7,0.4,1.8,0.7,3.1c0.3,1.3,0.8,2.7,1.4,4.2c0.3,0.7,0.7,1.5,1,2.3
		c0.2,0.4,0.4,0.7,0.6,0.9c0.3,0.2,0.6,0.4,1,0.7c0.4,0.3,0.8,0.6,1.1,1c0.3,0.4,0.5,0.7,0.8,1.1c0.2,0.3,0.5,0.6,0.8,0.8
		c0.3,0.2,0.6,0.3,1,0.5c0.2,0.1,0.4,0.2,0.6,0.3c0.2,0.1,0.3,0.2,0.5,0.3c0.4,0.3,0.7,0.6,0.9,0.8c0.5,0.6,0.9,1.2,1.3,1.7
		c0.7,1.1,1.4,1.9,2,2.3c0.3,0.2,0.6,0.4,0.8,0.4c0.2,0.1,0.3,0.1,0.3,0.1s-0.1,0-0.3-0.1c-0.2,0-0.5-0.1-0.8-0.3
		c-0.7-0.4-1.5-1.1-2.4-2.2c-0.4-0.5-0.9-1-1.4-1.5c-0.3-0.2-0.6-0.5-0.8-0.7c-0.1-0.1-0.3-0.2-0.5-0.3c-0.1-0.1-0.3-0.1-0.5-0.2
		c-0.4-0.1-0.8-0.3-1.2-0.6c-0.4-0.3-0.8-0.6-1-1c-0.3-0.4-0.5-0.7-0.8-1c-0.1-0.2-0.3-0.3-0.4-0.4c-0.2-0.1-0.3-0.2-0.5-0.4
		c-0.3-0.2-0.8-0.4-1.1-0.8c-0.4-0.4-0.6-0.8-0.8-1.2c-0.4-0.8-0.7-1.6-1-2.4c-0.6-1.6-0.9-3.1-1.2-4.4c-0.3-1.3-0.3-2.4-0.4-3.2
		C158.9,161.4,158.9,161,158.9,161z"/>
</g>
<g>
	<g>
		<path d="M137.6,264.4c-0.5-1.1-0.8-1.6-1.3-2.7c0.3-0.2,0.5-0.2,0.8-0.4c-1.3-2.7-1.9-4-3.2-6.7c-0.3,0.2-0.5,0.2-0.8,0.4
			c-0.5-1.1-0.8-1.6-1.4-2.7c1.8-0.9,2.7-1.3,4.6-2.1c2.2,1.3,3.3,2,5.4,3.4c0.5-2.5,0.8-3.7,1.4-6.2c1.9-0.7,2.8-1,4.7-1.7
			c0.4,1.2,0.6,1.7,1,2.9c-0.3,0.1-0.5,0.2-0.9,0.3c1,2.8,1.4,4.2,2.4,7c0.3-0.1,0.5-0.2,0.8-0.3c0.4,1.2,0.6,1.7,1,2.9
			c-2.1,0.7-3.1,1.1-5.2,1.9c-0.4-1.1-0.7-1.7-1.1-2.8c0.3-0.1,0.5-0.2,0.8-0.3c-0.5-1.3-0.7-2-1.2-3.3c-0.5,2.3-0.7,3.4-1.1,5.7
			c-1.9-1.3-2.9-2-4.8-3.3c0.6,1.3,0.9,1.9,1.4,3.2c0.3-0.1,0.5-0.2,0.8-0.3c0.5,1.1,0.7,1.7,1.2,2.8
			C140.6,262.9,139.6,263.4,137.6,264.4z M142.2,261.9c-0.4-0.9-0.6-1.3-1-2.2c-0.3,0.1-0.5,0.2-0.8,0.3c-0.8-1.8-1.2-2.7-2-4.5
			c2.2,1.4,3.3,2.2,5.4,3.7c0.4-2.6,0.6-4,1.2-6.6c0.7,1.9,1.1,2.9,1.8,4.8c-0.3,0.1-0.5,0.2-0.8,0.3c0.3,0.9,0.5,1.3,0.9,2.2
			c1.8-0.7,2.7-1,4.6-1.6c-0.3-0.9-0.5-1.4-0.8-2.3c-0.3,0.1-0.5,0.2-0.8,0.3c-1.1-3.1-1.6-4.6-2.6-7.6c0.3-0.1,0.5-0.2,0.9-0.3
			c-0.3-0.9-0.5-1.4-0.8-2.3c-1.7,0.6-2.6,0.9-4.3,1.5c-0.6,2.5-0.9,3.8-1.4,6.3c-2.1-1.4-3.2-2.1-5.5-3.5c-1.7,0.7-2.5,1.1-4.1,1.9
			c0.4,0.9,0.6,1.3,1.1,2.2c0.3-0.2,0.5-0.2,0.8-0.4c1.4,2.9,2.1,4.4,3.5,7.3c-0.3,0.1-0.5,0.2-0.8,0.4c0.4,0.9,0.6,1.3,1.1,2.2
			C139.5,263,140.4,262.6,142.2,261.9z M138,263.3c-0.3-0.6-0.4-0.8-0.7-1.4c0.3-0.1,0.5-0.2,0.8-0.4c-1.5-3.2-2.3-4.8-3.8-8.1
			c-0.3,0.2-0.5,0.2-0.8,0.4c-0.3-0.6-0.4-0.8-0.7-1.4c1.3-0.6,1.9-0.9,3.1-1.5c2.6,1.5,3.9,2.3,6.3,4c0.6-2.9,0.9-4.4,1.6-7.3
			c1.3-0.5,2-0.7,3.3-1.2c0.2,0.6,0.3,0.9,0.5,1.5c-0.4,0.1-0.5,0.2-0.9,0.3c1.2,3.4,1.8,5.1,2.9,8.4c0.3-0.1,0.5-0.2,0.8-0.3
			c0.2,0.6,0.3,0.9,0.5,1.5c-1.5,0.5-2.3,0.8-3.8,1.4c-0.2-0.6-0.3-0.9-0.5-1.4c0.3-0.1,0.5-0.2,0.8-0.3c-0.9-2.6-1.4-3.8-2.4-6.4
			c-0.7,2.9-1,4.3-1.5,7.2c-2.4-1.7-3.6-2.5-6.1-4.1c1.1,2.5,1.7,3.7,2.8,6.2c0.3-0.1,0.5-0.2,0.8-0.4c0.2,0.6,0.4,0.8,0.6,1.4
			C140.1,262.3,139.4,262.6,138,263.3z"/>
		<path d="M153.1,258.1c-0.4-1.2-0.6-1.7-0.9-2.9c0.3-0.1,0.5-0.2,0.8-0.3c-0.9-2.8-1.3-4.3-2.2-7.1c-0.3,0.1-0.5,0.2-0.9,0.3
			c-0.4-1.2-0.6-1.7-0.9-2.9c2.3-0.8,3.5-1.1,5.9-1.7c0.3,1.2,0.5,1.8,0.8,2.9c-0.4,0.1-0.5,0.1-0.9,0.2c0.8,2.9,1.2,4.3,2,7.2
			c0.3-0.1,0.5-0.1,0.8-0.2c0.3,1.2,0.5,1.8,0.8,2.9C156.2,257.1,155.2,257.4,153.1,258.1z M157.9,256.3c-0.2-0.9-0.4-1.4-0.6-2.3
			c-0.3,0.1-0.5,0.1-0.8,0.2c-0.9-3.1-1.3-4.7-2.2-7.8c0.4-0.1,0.5-0.1,0.9-0.2c-0.3-0.9-0.4-1.4-0.6-2.3c-2.1,0.6-3.1,0.9-5.2,1.5
			c0.3,0.9,0.4,1.4,0.7,2.3c0.3-0.1,0.5-0.2,0.9-0.3c1,3.1,1.4,4.6,2.4,7.7c-0.3,0.1-0.5,0.2-0.8,0.3c0.3,0.9,0.4,1.4,0.7,2.3
			C155.1,257.1,156.1,256.8,157.9,256.3z M153.6,257.1c-0.2-0.6-0.3-0.9-0.5-1.5c0.3-0.1,0.5-0.1,0.8-0.2c-1-3.4-1.6-5.1-2.6-8.5
			c-0.3,0.1-0.5,0.2-0.9,0.3c-0.2-0.6-0.3-0.9-0.5-1.5c1.7-0.5,2.5-0.8,4.2-1.2c0.2,0.6,0.2,0.9,0.4,1.5c-0.4,0.1-0.5,0.1-0.9,0.2
			c1,3.4,1.5,5.2,2.4,8.6c0.3-0.1,0.5-0.1,0.8-0.2c0.2,0.6,0.2,0.9,0.4,1.5C155.9,256.4,155.1,256.7,153.6,257.1z"/>
		<path d="M160.1,256.1c-0.3-1.2-0.4-1.8-0.7-2.9c0.3-0.1,0.5-0.1,0.8-0.2c-0.7-2.9-1.1-4.3-1.8-7.2c-0.4,0.1-0.5,0.1-0.9,0.2
			c-0.3-1.2-0.4-1.8-0.7-3c3.7-0.9,5.6-1.3,9.4-2c1.1,0.7,1.7,1,2.8,1.7c0.5,3.6,0.8,5.5,1.4,9.1c-0.8,1-1.1,1.5-1.9,2.5
			C165.1,254.9,163.4,255.3,160.1,256.1z M168.3,254c0.7-0.9,1-1.4,1.7-2.3c-0.5-3.5-0.8-5.3-1.4-8.8c-1-0.6-1.5-1-2.5-1.6
			c-3.6,0.6-5.3,1-8.8,1.9c0.2,0.9,0.3,1.4,0.6,2.3c0.3-0.1,0.5-0.1,0.9-0.2c0.8,3.1,1.1,4.7,1.9,7.9c-0.3,0.1-0.5,0.1-0.8,0.2
			c0.2,0.9,0.3,1.4,0.6,2.3C163.5,254.9,165.1,254.6,168.3,254z M160.7,255.2c-0.1-0.6-0.2-0.9-0.4-1.5c0.3-0.1,0.5-0.1,0.8-0.2
			c-0.8-3.5-1.2-5.2-2-8.7c-0.3,0.1-0.5,0.1-0.9,0.2c-0.1-0.6-0.2-0.9-0.4-1.5c3.2-0.8,4.8-1.1,8.1-1.7c0.9,0.6,1.4,0.8,2.3,1.4
			c0.5,3.3,0.8,5,1.3,8.4c-0.6,0.8-0.9,1.2-1.5,2.1C165,254.2,163.6,254.5,160.7,255.2z M166.4,252.4c0.3-0.4,0.4-0.6,0.7-1
			c-0.5-2.9-0.8-4.3-1.3-7.2c-0.4-0.3-0.6-0.4-1.1-0.7c-1.3,0.2-1.9,0.4-3.2,0.6c0.7,3.5,1.1,5.2,1.9,8.7
			C164.6,252.7,165.2,252.6,166.4,252.4z M163.7,252.5c-0.7-3.2-1-4.7-1.7-7.9c1-0.2,1.5-0.3,2.6-0.5c0.3,0.2,0.5,0.3,0.8,0.5
			c0.5,2.7,0.7,4,1.2,6.6c-0.2,0.3-0.4,0.5-0.6,0.8C165.1,252.2,164.6,252.3,163.7,252.5z M165.9,251.7c0.2-0.2,0.2-0.3,0.4-0.5
			c-0.5-2.6-0.7-3.9-1.2-6.5c-0.2-0.1-0.3-0.2-0.5-0.3c-0.8,0.2-1.2,0.2-2.1,0.4c0.6,2.9,0.9,4.4,1.5,7.3
			C164.7,251.9,165.1,251.9,165.9,251.7z"/>
		<path d="M171.5,253.9c-0.2-1.2-0.3-1.8-0.4-3c0.3,0,0.5-0.1,0.8-0.1c-0.4-2.9-0.6-4.4-1-7.4c-0.4,0-0.5,0.1-0.9,0.1
			c-0.2-1.2-0.3-1.8-0.4-3c3.8-0.5,5.7-0.7,9.5-1c1,0.8,1.6,1.2,2.6,2c0.1,1.6,0.1,2.4,0.2,4.1c-0.9,0.9-1.3,1.4-2.2,2.3
			c-1.6,0.1-2.5,0.2-4.1,0.3c0.1,0.8,0.1,1.2,0.2,2.1c0.3,0,0.5-0.1,0.8-0.1c0.1,1.2,0.2,1.8,0.3,3
			C174.7,253.4,173.6,253.6,171.5,253.9z M176.5,252.9c-0.1-1-0.1-1.4-0.2-2.4c-0.3,0-0.5,0-0.8,0.1c-0.1-1.1-0.2-1.6-0.3-2.7
			c1.7-0.2,2.6-0.3,4.4-0.4c0.8-0.8,1.2-1.2,2-2.1c-0.1-1.5-0.1-2.3-0.2-3.8c-0.9-0.7-1.4-1.1-2.3-1.8c-3.6,0.2-5.4,0.4-9,0.9
			c0.1,1,0.2,1.4,0.3,2.4c0.4,0,0.5-0.1,0.9-0.1c0.4,3.2,0.6,4.8,1.1,8c-0.3,0-0.5,0.1-0.8,0.1c0.1,0.9,0.2,1.4,0.3,2.4
			C173.7,253.2,174.6,253.1,176.5,252.9z M172.1,253c-0.1-0.6-0.1-0.9-0.2-1.5c0.3,0,0.5-0.1,0.8-0.1c-0.5-3.5-0.7-5.3-1.1-8.9
			c-0.4,0-0.5,0.1-0.9,0.1c-0.1-0.6-0.1-0.9-0.2-1.5c3.3-0.4,4.9-0.6,8.2-0.8c0.9,0.7,1.3,1,2.1,1.7c0.1,1.3,0.1,2,0.2,3.3
			c-0.7,0.8-1.1,1.1-1.8,1.9c-1.8,0.1-2.7,0.2-4.5,0.4c0.2,1.4,0.2,2.1,0.4,3.5c0.3,0,0.5-0.1,0.8-0.1c0.1,0.6,0.1,0.9,0.2,1.5
			C174.5,252.7,173.7,252.8,172.1,253z M177.7,245.7c0.3-0.4,0.5-0.6,0.9-0.9c-0.1-0.8-0.1-1.3-0.2-2.1c-0.4-0.3-0.6-0.5-1-0.8
			c-1.3,0.1-2,0.2-3.3,0.3c0.2,1.5,0.2,2.3,0.4,3.8C175.8,245.9,176.4,245.8,177.7,245.7z M174.9,245.5c-0.1-1.2-0.2-1.8-0.3-2.9
			c1-0.1,1.5-0.2,2.5-0.2c0.3,0.2,0.5,0.4,0.8,0.6c0,0.6,0.1,0.9,0.1,1.6c-0.3,0.3-0.4,0.5-0.7,0.8
			C176.4,245.4,175.9,245.4,174.9,245.5z M177.3,245c0.2-0.2,0.3-0.3,0.4-0.5c0-0.6-0.1-0.9-0.1-1.4c-0.2-0.2-0.3-0.2-0.5-0.4
			c-0.8,0.1-1.3,0.1-2.1,0.2c0.1,0.9,0.1,1.4,0.2,2.3C176.1,245.1,176.5,245,177.3,245z"/>
		<path d="M183.9,250.6c-0.1-3.7-0.2-5.5-0.3-9.2c0.9-0.9,1.4-1.3,2.4-2.2c2.7,0,4.1,0,6.8,0.1c1,0.9,1.4,1.4,2.3,2.3
			c-0.2,3.7-0.3,5.5-0.6,9.2c-1,0.8-1.4,1.2-2.3,2c-2.4-0.1-3.6-0.1-6.1-0.1C185.3,251.9,184.8,251.5,183.9,250.6z M186.3,252.4
			c2.4,0,3.5,0,5.9,0.1c0.8-0.7,1.2-1.1,2.1-1.8c0.2-3.6,0.3-5.4,0.5-8.9c-0.8-0.8-1.3-1.3-2.1-2.1c-2.6-0.1-3.9-0.1-6.5-0.1
			c-0.9,0.8-1.3,1.2-2.2,2c0.1,3.6,0.1,5.4,0.2,9C185.1,251.2,185.5,251.6,186.3,252.4z M184.7,250.2c-0.1-3.4-0.1-5.1-0.2-8.5
			c0.8-0.7,1.2-1.1,2-1.8c2.4,0,3.6,0,6,0.1c0.8,0.7,1.2,1.1,1.9,1.9c-0.2,3.4-0.3,5.1-0.5,8.4c-0.8,0.7-1.2,1-1.9,1.7
			c-2.2-0.1-3.2-0.1-5.4-0.1C185.8,251.3,185.4,250.9,184.7,250.2z M187.9,250.4c1.1,0,1.7,0,2.8,0c0.4-0.3,0.5-0.5,0.9-0.8
			c0.1-2.9,0.2-4.3,0.3-7.2c-0.4-0.4-0.6-0.5-0.9-0.9c-1.2,0-1.8,0-3,0c-0.4,0.3-0.6,0.5-0.9,0.8c0,2.9,0,4.4,0,7.3
			C187.4,249.9,187.5,250.1,187.9,250.4z M187.4,249.3c0-2.7,0-4.1,0-6.8c0.3-0.3,0.5-0.4,0.8-0.7c1,0,1.5,0,2.4,0
			c0.3,0.3,0.4,0.4,0.7,0.7c-0.1,2.7-0.1,4.1-0.2,6.8c-0.3,0.3-0.4,0.4-0.7,0.7c-0.9,0-1.4,0-2.3,0
			C187.9,249.8,187.7,249.6,187.4,249.3z M188.2,249.7c0.8,0,1.2,0,2.1,0c0.2-0.2,0.3-0.2,0.5-0.4c0.1-2.6,0.1-4,0.2-6.6
			c-0.2-0.2-0.3-0.3-0.5-0.4c-0.9,0-1.3,0-2.2,0c-0.2,0.2-0.3,0.3-0.5,0.4c0,2.6,0,3.9,0,6.6C188,249.4,188.1,249.5,188.2,249.7z"/>
		<path d="M195.6,253c0.1-1.2,0.1-1.8,0.2-3c0.3,0,0.5,0,0.9,0.1c0.2-3,0.4-4.4,0.6-7.4c-0.4,0-0.5,0-0.9-0.1c0.1-1.2,0.1-1.8,0.2-3
			c2.4,0.2,3.7,0.3,6.1,0.6c-0.1,1.2-0.2,1.8-0.4,3c-0.4,0-0.5-0.1-0.9-0.1c-0.3,3-0.5,4.4-0.8,7.4c0.3,0,0.5,0.1,0.8,0.1
			c-0.1,1.2-0.2,1.8-0.4,3C198.8,253.3,197.8,253.2,195.6,253z M200.7,253.2c0.1-0.9,0.2-1.4,0.3-2.4c-0.3,0-0.5-0.1-0.9-0.1
			c0.4-3.2,0.5-4.8,0.9-8c0.4,0,0.6,0.1,0.9,0.1c0.1-1,0.2-1.4,0.3-2.4c-2.1-0.3-3.2-0.4-5.3-0.5c-0.1,1-0.1,1.4-0.2,2.4
			c0.4,0,0.5,0,0.9,0.1c-0.3,3.2-0.4,4.8-0.7,8.1c-0.3,0-0.5,0-0.8-0.1c-0.1,0.9-0.1,1.4-0.2,2.4C197.9,252.9,198.8,253,200.7,253.2
			z M196.4,252.3c0-0.6,0.1-0.9,0.1-1.5c0.3,0,0.5,0,0.8,0.1c0.3-3.6,0.5-5.3,0.8-8.9c-0.4,0-0.5,0-0.9-0.1c0-0.6,0.1-0.9,0.1-1.5
			c1.7,0.1,2.6,0.2,4.4,0.4c-0.1,0.6-0.1,0.9-0.2,1.5c-0.4,0-0.5-0.1-0.9-0.1c-0.4,3.6-0.6,5.3-1,8.9c0.3,0,0.5,0.1,0.8,0.1
			c-0.1,0.6-0.1,0.9-0.2,1.5C198.8,252.5,198,252.5,196.4,252.3z"/>
		<path d="M202.1,253.7c0.2-1.2,0.2-1.8,0.4-3c0.3,0,0.5,0.1,0.8,0.1c0.4-2.9,0.6-4.4,1-7.4c-0.4-0.1-0.5-0.1-0.9-0.1
			c0.2-1.2,0.2-1.8,0.4-3c2,0.3,3,0.4,5,0.8c1.3,2.7,1.9,4.1,3,6.9c0.3-1.2,0.4-1.8,0.6-3.1c-0.4-0.1-0.5-0.1-0.9-0.2
			c0.2-1.2,0.4-1.8,0.6-3c2.4,0.5,3.6,0.8,6,1.4c-0.3,1.2-0.4,1.8-0.7,3c-0.4-0.1-0.5-0.1-0.9-0.2c-0.7,2.9-1.1,4.3-1.8,7.2
			c0.3,0.1,0.5,0.1,0.8,0.2c-0.3,1.2-0.4,1.8-0.7,2.9c-1.8-0.4-2.7-0.7-4.5-1c-1-2.7-1.5-4-2.7-6.7c-0.2,1.2-0.3,1.8-0.5,3
			c0.3,0.1,0.5,0.1,0.8,0.1c-0.2,1.2-0.3,1.8-0.5,3C205.4,254.1,204.3,254,202.1,253.7z M207.2,254.2c0.2-1,0.3-1.4,0.4-2.4
			c-0.3-0.1-0.5-0.1-0.8-0.1c0.3-1.8,0.5-2.7,0.8-4.4c1.3,3,1.9,4.5,3,7.6c1.6,0.3,2.4,0.5,4,0.9c0.2-0.9,0.3-1.4,0.6-2.3
			c-0.3-0.1-0.5-0.1-0.8-0.2c0.8-3.1,1.1-4.7,1.9-7.9c0.4,0.1,0.5,0.1,0.9,0.2c0.2-0.9,0.3-1.4,0.6-2.3c-2.1-0.5-3.1-0.8-5.3-1.2
			c-0.2,0.9-0.3,1.4-0.5,2.3c0.4,0.1,0.5,0.1,0.9,0.2c-0.4,1.8-0.6,2.7-1,4.5c-1.2-3.1-1.9-4.7-3.3-7.8c-1.8-0.3-2.7-0.4-4.4-0.7
			c-0.1,0.9-0.2,1.4-0.3,2.4c0.4,0,0.5,0.1,0.9,0.1c-0.5,3.2-0.7,4.8-1.1,8c-0.3,0-0.5-0.1-0.8-0.1c-0.1,1-0.2,1.4-0.3,2.4
			C204.4,253.7,205.3,253.8,207.2,254.2z M203,253c0.1-0.6,0.1-0.9,0.2-1.5c0.3,0,0.5,0.1,0.8,0.1c0.5-3.5,0.8-5.3,1.3-8.8
			c-0.4-0.1-0.5-0.1-0.9-0.1c0.1-0.6,0.1-0.9,0.2-1.5c1.4,0.2,2.1,0.3,3.5,0.5c1.7,3.7,2.5,5.5,3.9,9.2c0.6-2.6,0.9-4,1.4-6.6
			c-0.4-0.1-0.6-0.1-0.9-0.2c0.1-0.6,0.2-0.9,0.3-1.5c1.7,0.4,2.6,0.6,4.3,1c-0.1,0.6-0.2,0.9-0.4,1.5c-0.4-0.1-0.5-0.1-0.9-0.2
			c-0.8,3.5-1.2,5.2-2,8.7c0.3,0.1,0.5,0.1,0.9,0.2c-0.1,0.6-0.2,0.9-0.4,1.5c-1.3-0.3-2-0.5-3.3-0.7c-1.3-3.6-2-5.4-3.6-9
			c-0.4,2.6-0.7,3.9-1.1,6.5c0.3,0.1,0.5,0.1,0.8,0.1c-0.1,0.6-0.2,0.9-0.3,1.5C205.3,253.4,204.6,253.3,203,253z"/>
		<path d="M218.1,247c0.4-1.5,0.6-2.2,1-3.7c5.1,1.3,7.7,2.1,12.6,4c-0.5,1.4-0.8,2.2-1.3,3.6c-1.3-0.5-1.9-0.7-3.2-1.2
			c0.1-0.3,0.2-0.4,0.3-0.7c-0.3-0.1-0.5-0.2-0.9-0.3c-0.9,2.8-1.4,4.2-2.4,7.1c0.3,0.1,0.5,0.2,0.8,0.3c-0.4,1.1-0.6,1.7-1,2.9
			c-2.1-0.7-3.2-1.1-5.3-1.7c0.3-1.2,0.5-1.7,0.8-2.9c0.3,0.1,0.5,0.1,0.8,0.2c0.8-2.9,1.3-4.3,2.1-7.1c-0.4-0.1-0.5-0.2-0.9-0.3
			c-0.1,0.3-0.1,0.5-0.2,0.8C220.1,247.5,219.4,247.3,218.1,247z M221.1,247.5c0.1-0.3,0.1-0.5,0.2-0.8c0.6,0.2,1,0.3,1.6,0.5
			c-0.9,3.1-1.4,4.6-2.3,7.7c-0.3-0.1-0.5-0.1-0.8-0.2c-0.3,0.9-0.4,1.4-0.7,2.3c1.9,0.5,2.8,0.8,4.7,1.5c0.3-0.9,0.5-1.4,0.8-2.3
			c-0.3-0.1-0.5-0.2-0.8-0.3c1-3.1,1.5-4.6,2.5-7.7c0.6,0.2,1,0.3,1.6,0.5c-0.1,0.3-0.2,0.5-0.3,0.8c1,0.4,1.5,0.5,2.5,0.9
			c0.4-1.2,0.7-1.8,1.1-3c-4.7-1.7-7.1-2.5-11.9-3.8c-0.3,1.2-0.5,1.9-0.8,3.1C219.6,247,220.1,247.2,221.1,247.5z M219.1,246.5
			c0.2-0.9,0.4-1.4,0.6-2.3c4.4,1.2,6.6,1.9,10.9,3.5c-0.3,0.9-0.5,1.3-0.8,2.2c-0.7-0.2-1-0.4-1.7-0.6c0.1-0.3,0.2-0.5,0.3-0.8
			c-1-0.3-1.5-0.5-2.5-0.8c-1.1,3.4-1.7,5.1-2.8,8.5c0.3,0.1,0.5,0.2,0.8,0.3c-0.2,0.6-0.3,0.9-0.5,1.5c-1.5-0.5-2.3-0.8-3.8-1.2
			c0.2-0.6,0.3-0.9,0.4-1.5c0.3,0.1,0.5,0.1,0.8,0.2c1-3.4,1.6-5.1,2.6-8.5c-1-0.3-1.5-0.5-2.5-0.7c-0.1,0.3-0.1,0.5-0.2,0.8
			C220.1,246.7,219.8,246.6,219.1,246.5z"/>
	</g>
</g>
<text transform="matrix(0.999 -4.404547e-02 4.404547e-02 0.999 140.1124 292.3571)" class="st13 st14">HIGH</text>
<text transform="matrix(0.9927 -0.1207 0.1207 0.9927 119.8428 281.4513)" class="st15 st16">19</text>
<text transform="matrix(1 0 0 1 226.4992 276.0032)" class="st15 st16">88</text>
<g>
	<path class="st17" d="M205.6,112.8l-13.1,0.2c-2.3,0-4.1,1.9-4,4.2l0.1,4.8c0,2.3,1.9,4.1,4.2,4l13.1-0.2c2.3,0,4.1-1.9,4-4.2
		l-0.1-4.8C209.7,114.5,207.8,112.7,205.6,112.8z M208.6,121c0,1.9-1.5,3.5-3.4,3.5l-11.9,0.2c-1.9,0-3.5-1.5-3.5-3.4l-0.1-3.6
		c0-1.9,1.5-3.5,3.4-3.5L205,114c1.9,0,3.5,1.5,3.5,3.4L208.6,121z"/>
	<g>
		<path class="st18" d="M205.6,112.8c0,0-1,0-2.6,0c-1.7,0-4.1,0.1-7,0.2c-0.7,0-1.5,0.1-2.2,0.1c-0.8,0-1.6,0-2.3,0.3
			c-1.5,0.5-2.7,2-2.6,3.7c0,0.9,0.1,1.8,0.1,2.7c0,0.5,0,0.9,0,1.4c0,0.5,0,1,0.1,1.4c0.2,0.8,0.6,1.6,1.3,2.2
			c0.7,0.5,1.5,0.8,2.4,0.8c3.8-0.1,7.7-0.2,11.3-0.3c0.9,0,1.8,0,2.5-0.1c0.7-0.2,1.4-0.6,1.9-1.1c0.5-0.5,0.8-1.2,0.9-1.9
			c0.1-0.3,0-0.7,0.1-1.1c0-0.4,0-0.7,0-1.1c0-0.7,0-1.4,0-2.1c0-0.7,0.1-1.3,0-1.8c-0.2-1.1-0.8-2-1.5-2.4
			c-0.7-0.5-1.3-0.7-1.7-0.8c-0.2,0-0.4-0.1-0.5-0.1C205.6,112.8,205.6,112.8,205.6,112.8z M205.6,112.7c0,0,0.1,0,0.2,0
			c0.1,0,0.3,0,0.5,0c0.4,0.1,1.1,0.2,1.8,0.7c0.7,0.5,1.4,1.3,1.7,2.5c0.2,0.6,0.1,1.2,0.2,1.9c0,0.7,0.1,1.3,0.1,2.1
			c0,0.4,0,0.7,0.1,1.1c0,0.4,0.1,0.8,0,1.2c-0.1,0.9-0.4,1.7-1,2.4c-0.6,0.7-1.4,1.2-2.4,1.5c-1,0.2-1.8,0.1-2.8,0.2
			c-3.6,0-7.4,0.1-11.3,0.1c-1.1,0-2.1-0.4-2.9-1c-0.8-0.7-1.4-1.6-1.5-2.6c-0.1-0.5-0.1-1-0.1-1.5c0-0.5,0-0.9,0-1.4
			c0-0.9,0-1.8,0-2.7c0-2,1.4-3.7,3.1-4.2c0.9-0.3,1.7-0.2,2.5-0.2c0.8,0,1.5,0,2.2,0c2.9,0,5.3,0,7,0
			C204.6,112.7,205.6,112.7,205.6,112.7z"/>
		<path class="st18" d="M208.7,121c0,0,0,0.1,0,0.2c0,0.1,0,0.2,0,0.4c-0.1,0.4-0.2,1-0.6,1.6c-0.4,0.6-1.2,1.2-2.2,1.4
			c-1,0.1-2.1,0.1-3.4,0.2c-2.5,0.1-5.4,0.2-8.4,0.3c-0.4,0-0.8,0-1.2,0c-0.4-0.1-0.9-0.2-1.2-0.4c-0.8-0.4-1.4-1.1-1.8-1.9
			c-0.2-0.4-0.3-0.9-0.3-1.3c0-0.4,0-0.8,0-1.2c0-0.8-0.1-1.6-0.1-2.5c-0.1-1.9,1.4-3.7,3.2-4c0.5-0.1,0.9-0.1,1.3-0.1
			c0.4,0,0.8,0,1.2,0c0.8,0,1.6,0,2.4-0.1c1.5,0,3-0.1,4.5,0c0.7,0,1.4,0,2.1,0c0.7,0,1.3,0,2,0.1c1.3,0.3,2.3,1.3,2.6,2.3
			c0.2,0.5,0.2,1,0.2,1.4c0,0.4,0,0.8,0,1.2C208.7,120.2,208.7,121,208.7,121z M208.6,121c0,0,0-0.8-0.1-2.3
			c-0.1-0.7,0.1-1.6-0.4-2.5c-0.4-0.9-1.3-1.6-2.4-1.8c-0.5-0.1-1.2,0-1.8,0c-0.7,0-1.4,0.1-2.1,0.1c-1.4,0.1-2.9,0.1-4.5,0.1
			c-0.8,0-1.6,0-2.4,0c-0.4,0-0.8,0-1.2,0c-0.4,0-0.8,0-1.1,0c-1.4,0.2-2.6,1.5-2.6,3c0,0.8,0,1.6,0,2.5l0,1.2
			c0,0.4,0.1,0.7,0.2,1.1c0.3,0.7,0.8,1.2,1.4,1.6c0.7,0.4,1.3,0.4,2.1,0.4c3.1,0,6,0,8.5,0c1.2,0,2.4,0.1,3.4,0
			c1-0.2,1.7-0.7,2.1-1.3c0.4-0.6,0.6-1.1,0.6-1.5c0-0.2,0-0.3,0-0.4C208.6,121,208.6,121,208.6,121z"/>
	</g>
</g>
<g>
	<path class="st17" d="M176.3,112.9l-13.1,0.2c-2.3,0-4.1,1.9-4,4.2l0.1,4.8c0,2.3,1.9,4.1,4.2,4l13.1-0.2c2.3,0,4.1-1.9,4-4.2
		l-0.1-4.8C180.4,114.7,178.6,112.9,176.3,112.9z M179.4,121.1c0,1.9-1.5,3.5-3.4,3.5l-11.9,0.2c-1.9,0-3.5-1.5-3.5-3.4l-0.1-3.6
		c0-1.9,1.5-3.5,3.4-3.5l11.9-0.2c1.9,0,3.5,1.5,3.5,3.4L179.4,121.1z"/>
	<g>
		<path class="st18" d="M176.3,113c0,0-1,0-2.6,0c-1.7,0-4.1,0.1-7,0.2c-0.7,0-1.5,0.1-2.2,0.1c-0.8,0-1.6,0-2.3,0.3
			c-1.5,0.5-2.7,2-2.6,3.7c0,0.9,0.1,1.8,0.1,2.7c0,0.5,0,0.9,0,1.4c0,0.5,0,1,0.1,1.4c0.2,0.8,0.6,1.6,1.3,2.2
			c0.7,0.5,1.5,0.8,2.4,0.8c3.8-0.1,7.7-0.2,11.3-0.3c0.9,0,1.8,0,2.5-0.1c0.7-0.2,1.4-0.6,1.9-1.1c0.5-0.5,0.8-1.2,0.9-1.9
			c0.1-0.3,0-0.7,0.1-1.1c0-0.4,0-0.7,0-1.1c0-0.7,0-1.4,0-2.1c0-0.7,0.1-1.3,0-1.8c-0.2-1.1-0.8-2-1.5-2.4
			c-0.7-0.5-1.3-0.7-1.7-0.8c-0.2,0-0.4-0.1-0.5-0.1C176.4,113,176.3,113,176.3,113z M176.3,112.9c0,0,0.1,0,0.2,0
			c0.1,0,0.3,0,0.5,0c0.4,0.1,1.1,0.2,1.8,0.7c0.7,0.5,1.4,1.3,1.7,2.5c0.2,0.6,0.1,1.2,0.2,1.9c0,0.7,0.1,1.3,0.1,2.1
			c0,0.4,0,0.7,0.1,1.1c0,0.4,0.1,0.8,0,1.2c-0.1,0.9-0.4,1.7-1,2.4c-0.6,0.7-1.4,1.2-2.4,1.5c-1,0.2-1.8,0.1-2.8,0.2
			c-3.6,0-7.4,0.1-11.3,0.1c-1.1,0-2.1-0.4-2.9-1c-0.8-0.7-1.4-1.6-1.5-2.6c-0.1-0.5-0.1-1-0.1-1.5c0-0.5,0-0.9,0-1.4
			c0-0.9,0-1.8,0-2.7c0-2,1.4-3.7,3.1-4.2c0.9-0.3,1.7-0.2,2.5-0.2c0.8,0,1.5,0,2.2,0c2.9,0,5.3,0,7,0
			C175.4,112.9,176.3,112.9,176.3,112.9z"/>
		<path class="st18" d="M179.4,121.1c0,0,0,0.1,0,0.2c0,0.1,0,0.2,0,0.4c-0.1,0.4-0.2,1-0.6,1.6c-0.4,0.6-1.2,1.2-2.2,1.4
			c-1,0.1-2.1,0.1-3.4,0.2c-2.5,0.1-5.4,0.2-8.4,0.3c-0.4,0-0.8,0-1.2,0c-0.4-0.1-0.9-0.2-1.2-0.4c-0.8-0.4-1.4-1.1-1.8-1.9
			c-0.2-0.4-0.3-0.9-0.3-1.3c0-0.4,0-0.8,0-1.2c0-0.8-0.1-1.6-0.1-2.5c-0.1-1.9,1.4-3.7,3.2-4c0.5-0.1,0.9-0.1,1.3-0.1
			c0.4,0,0.8,0,1.2,0c0.8,0,1.6,0,2.4-0.1c1.5,0,3-0.1,4.5,0c0.7,0,1.4,0,2.1,0c0.7,0,1.3,0,2,0.1c1.3,0.3,2.3,1.3,2.6,2.3
			c0.2,0.5,0.2,1,0.2,1.4c0,0.4,0,0.8,0,1.2C179.4,120.3,179.4,121.1,179.4,121.1z M179.3,121.1c0,0,0-0.8-0.1-2.3
			c-0.1-0.7,0.1-1.6-0.4-2.5c-0.4-0.9-1.3-1.6-2.4-1.8c-0.5-0.1-1.2,0-1.8,0c-0.7,0-1.4,0.1-2.1,0.1c-1.4,0.1-2.9,0.1-4.5,0.1
			c-0.8,0-1.6,0-2.4,0c-0.4,0-0.8,0-1.2,0c-0.4,0-0.8,0-1.1,0c-1.4,0.2-2.6,1.5-2.6,3c0,0.8,0,1.6,0,2.5l0,1.2
			c0,0.4,0.1,0.7,0.2,1.1c0.3,0.7,0.8,1.2,1.4,1.6c0.7,0.4,1.3,0.4,2.1,0.4c3.1,0,6,0,8.5,0c1.2,0,2.4,0.1,3.4,0
			c1-0.2,1.7-0.7,2.1-1.3c0.4-0.6,0.6-1.1,0.6-1.5c0-0.2,0-0.3,0-0.4C179.3,121.2,179.3,121.1,179.3,121.1z"/>
	</g>
</g>
<g>
	<path class="st17" d="M180.8,121.2c2.5-0.9,5.3-1,7.9-0.2c0.2-0.7,0.4-1.4,0.6-2.1c-3-0.9-6.3-0.9-9.3,0.1
		C180.3,119.8,180.5,120.5,180.8,121.2z"/>
	<path class="st18" d="M180.8,121.1c1.2-0.5,2.6-0.8,3.9-0.8c1.4-0.1,2.7,0.1,4.1,0.4l-0.4,0.2l0.6-2.1l0.3,0.5
		c-1.5-0.4-3-0.6-4.5-0.5c-0.8,0-1.5,0.1-2.3,0.2c-0.8,0.1-1.5,0.2-2.3,0.4l0.2-0.4C180.5,119.7,180.7,120.4,180.8,121.1z
		 M180.7,121.2c-0.4-0.7-0.7-1.4-1-2.1l-0.1-0.3l0.3-0.1c1.5-0.7,3.1-1,4.7-1c1.6,0,3.2,0.3,4.8,0.8l0.4,0.1l-0.1,0.3l-0.7,2.1
		l-0.1,0.3l-0.3-0.1C186.1,120.5,183.4,120.5,180.7,121.2L180.7,121.2L180.7,121.2z"/>
</g>
</svg>
