<?xml version="1.0" encoding="utf-8"?>
<!-- Generator: Adobe Illustrator 19.0.1, SVG Export Plug-In . SVG Version: 6.00 Build 0)  -->
<svg version="1.1" id="Layer_1" xmlns="http://www.w3.org/2000/svg" xmlns:xlink="http://www.w3.org/1999/xlink" x="0px" y="0px"
	 viewBox="0 0 351 504" style="enable-background:new 0 0 351 504;" xml:space="preserve">
<style type="text/css">
	.st0{fill:#D6AA7F;}
	.st1{fill:#DDDDDD;stroke:#231F20;stroke-miterlimit:10;}
	.st2{fill:#212121;stroke:#231F20;stroke-miterlimit:10;}
	.st3{fill:#3D364C;stroke:#231F20;stroke-miterlimit:10;}
	.st4{fill:#231F20;}
	.st5{fill:#413B51;}
	.st6{fill:#DDDDDD;}
	.st7{fill:#FFFFFF;}
	.st8{fill:#2B2233;}
	.st9{fill:#3D364C;}
	.st10{fill:none;stroke:#231F20;stroke-miterlimit:10;}
	.st11{fill:#2D2824;stroke:#231F20;stroke-miterlimit:10;}
	.st12{fill:#3F3F3F;}
	.st13{fill:#6D6D6D;}
	.st14{fill:#B78355;}
	.st15{fill:#16100A;}
	.st16{fill:#00E9D2;}
	.st17{fill:#16100A;stroke:#000000;stroke-miterlimit:10;}
</style>
<g>
	<path class="st0" d="M84,108c2.4,11.3,2.3,23.2-0.5,34.4c-0.8,3.4-1.8,6.8-1.5,10.2c1,8,8.9,12.5,13.9,18.8
		c2.4,3.2,28.1,26.8,43.8,31.8c12.4-9,4.2-27.6,8.3-41.3c4.4-3.2-6.5-16.9-6.2-22.5c0.8-13.5,2.9-32.8,2.9-41.3c0-1,1.9-2.5,1.3-3.4
		c-1.1-1.4-8.4,2.7-10,2c-16-5.8-32.6,7.8-49.4,8.1c-0.3,1.4-0.6,2.7-1.1,3.9"/>
	<path d="M84.1,108c1.1,5,1.7,10.1,1.9,15.3c0.1,5.1-0.3,10.3-1.3,15.4c-0.5,2.5-1.1,5-1.7,7.5c-0.5,2.5-0.9,5.1-0.3,7.5
		c0.5,2.4,1.8,4.7,3.4,6.6c1.6,2,3.5,3.7,5.3,5.5c1.8,1.8,3.7,3.6,5.3,5.6c1.7,1.8,3.6,3.6,5.5,5.3c3.8,3.4,7.7,6.8,11.7,9.9
		c4,3.2,8.1,6.2,12.4,9c2.2,1.4,4.3,2.7,6.6,3.9c2.3,1.2,4.6,2.3,7,3l-0.4,0.1l1-0.8l1-0.9l0.9-1c0.3-0.4,0.5-0.7,0.8-1.1
		c0.5-0.7,0.9-1.5,1.3-2.3c0.4-0.8,0.7-1.6,0.9-2.5c0.3-0.8,0.5-1.7,0.6-2.6c0.2-0.9,0.3-1.8,0.4-2.7c0.2-1.8,0.2-3.6,0.2-5.4
		c0-3.6-0.2-7.2-0.2-10.9c0-0.9,0-1.8,0.1-2.7c0-0.9,0.1-1.8,0.2-2.7c0.1-0.9,0.2-1.8,0.4-2.7l0.3-1.4l0.4-1.3l0-0.1l0.1-0.1
		c1-0.7,1-2.1,0.8-3.4c-0.2-1.3-0.7-2.6-1.2-3.8c-1-2.5-2.3-4.9-3.4-7.4c-0.6-1.2-1.1-2.5-1.6-3.8c-0.4-1.3-0.9-2.7-0.8-4.1
		c0.2-2.7,0.4-5.4,0.6-8.2l1.4-16.3c0.2-2.7,0.4-5.4,0.6-8.1c0.2-2.7,0.3-5.4,0.4-8.1c0-0.2,0-0.3,0-0.6c0-0.2,0.1-0.4,0.2-0.5
		c0.2-0.3,0.4-0.6,0.6-0.9c0.2-0.3,0.4-0.6,0.5-0.8c0.1-0.3,0.2-0.6,0-0.7c-0.2-0.2-0.5-0.2-0.8-0.2c-0.3,0-0.6,0.1-1,0.1
		c-0.6,0.1-1.3,0.4-1.9,0.6c-1.3,0.4-2.6,0.9-3.9,1.3c-0.7,0.2-1.3,0.4-2.1,0.3c-0.7-0.2-1.3-0.4-2-0.6c-2.6-0.7-5.3-1-8-0.8
		c-2.7,0.1-5.4,0.6-8,1.2c-5.3,1.3-10.4,3.2-15.6,4.9c-5.2,1.7-10.5,3.1-16,3.2l0.1,0c-0.3,1.3-0.6,2.6-1.1,3.9l-0.1,0
		c0.5-1.3,0.8-2.6,1.1-3.9l0,0l0,0c5.5-0.1,10.8-1.6,15.9-3.3c5.2-1.7,10.3-3.7,15.6-5c2.6-0.7,5.3-1.2,8.1-1.3
		c2.7-0.2,5.5,0.1,8.2,0.8c0.7,0.2,1.3,0.4,1.9,0.6c0.6,0.1,1.3-0.1,1.9-0.3c1.3-0.4,2.6-0.9,3.9-1.3c0.6-0.2,1.3-0.4,2-0.6
		c0.3-0.1,0.7-0.1,1-0.2c0.2,0,0.4,0,0.6,0c0.1,0,0.2,0,0.3,0.1l0.2,0.1l0.1,0.1c0.4,0.4,0.2,0.9,0.1,1.2c-0.2,0.3-0.3,0.6-0.5,0.9
		c-0.4,0.6-0.8,1.1-0.7,1.7c0,2.7-0.2,5.5-0.3,8.2c-0.2,2.7-0.4,5.4-0.6,8.2l-1.3,16.3c-0.2,2.7-0.4,5.4-0.6,8.1
		c-0.1,1.3,0.3,2.6,0.7,3.8c0.5,1.3,1,2.5,1.6,3.7c1.2,2.5,2.4,4.9,3.5,7.4c0.5,1.3,1,2.6,1.3,4c0.1,0.7,0.2,1.4,0.1,2.2
		c-0.1,0.7-0.5,1.5-1.1,2l0.1-0.2l-0.3,1.3l-0.3,1.3c-0.2,0.9-0.3,1.8-0.4,2.7c-0.1,0.9-0.1,1.8-0.2,2.7c0,0.9,0,1.8,0,2.7
		c0,3.6,0.2,7.2,0.3,10.9c0,1.8,0,3.7-0.2,5.5c-0.1,0.9-0.2,1.8-0.4,2.7c-0.2,0.9-0.4,1.8-0.6,2.7c-0.3,0.9-0.6,1.8-1,2.6
		c-0.4,0.9-0.9,1.7-1.4,2.4c-0.3,0.4-0.6,0.7-0.8,1.1l-0.9,1l-1,1l-1.1,0.9l-0.2,0.1l-0.2-0.1c-2.5-0.8-4.8-1.9-7.1-3.1
		c-2.3-1.2-4.5-2.5-6.7-3.9c-4.3-2.8-8.5-5.9-12.5-9c-4-3.2-8-6.5-11.8-10c-1.9-1.8-3.8-3.5-5.6-5.4c-1.6-2-3.4-3.8-5.2-5.6
		c-1.8-1.8-3.7-3.6-5.3-5.6c-1.6-2-3-4.4-3.5-7c-0.6-2.6-0.1-5.3,0.4-7.8c0.6-2.5,1.3-5,1.7-7.5c1-5,1.5-10.1,1.4-15.3
		C85.5,118.2,85,113.1,84.1,108L84.1,108z"/>
</g>
<path class="st1" d="M187.8,426.6c4.4,1.4,9.3-0.9,12.1-4.5c2.9-3.6,4-8.2,4.6-12.8c0.7-5.4,0.8-11-0.9-16.2
	c-1.7-5.2-5.4-9.9-10.4-12c-8.1-3.3-17.9,1.1-23,8.2c-5.1,7.2-6.4,16.3-6.6,25.1c0,2.1,0,4.3,1,6.2c1.5,2.8,4.8,4,7.8,4.8
	c5.8,1.5,11.9,2,17.9,1.5"/>
<path class="st2" d="M78.3,429.5c-0.4,6.4-3.3,12.3-5.4,18.4c-6.3,17.8-6.7,37.3-6.4,56.1h165.1c0.7-27.6,0.9-56.5-11.1-81.3
	c-47.3-0.2-94.6-1.2-141.9-3.1c-1.4,2-2,4.6-1.5,7"/>
<path class="st3" d="M178.8,430.4c0.3,6.3,0.6,12.7-1.1,18.8c-1.6,6.1-5.6,11.9-11.4,14.2c-3.3,1.3-7,1.4-10.6,1.5
	c-26.1,0.5-52.2-0.5-78.2-2.8c-4-0.4-8.2-0.8-11.7-2.8c-6.5-3.7-9.1-11.9-8.7-19.4c0.4-7.4,3.3-14.5,5.3-21.7
	c4-14.1,4.9-28.9,5.8-43.6c0.7-12.3,1.5-24.6,2.2-36.9c0.2-3.4,0.4-6.8-0.5-10.1c-1.1-3.9-3.8-7.1-6.2-10.3
	C50.4,300.2,41.2,280,32.2,260c-8.1-17.8-16.2-38.6-7.5-56.1c10.4-21.1,40.3-27,49.9-48.5c1.2-2.6,3.3-6,5.9-5
	c0.6,0.3,1.2,0.8,1.6,1.3c34.5,35,61.9,77,79.9,122.7c0.5-9-0.7-18-1.9-27c-4.6-33.3-9.1-66.6-13.7-99.9c10.4,8,23,13.1,36,14.5
	c6.4,0.7,13.1,0.6,18.9,3.4c4.2,2,7.6,5.5,10.6,9.1c11.1,13.3,18.3,29.5,25.3,45.4c4.5,10.3,9.1,20.6,13.6,30.9
	c1.4,3.1,2.7,6.2,3.6,9.4c0.9,3.3,1.3,6.7,2,10c2,8.6,6.3,16.4,9,24.8s3.4,18.1-1.5,25.4c-7.5,11.2-24.5,11.6-34.1,21.1
	c-1.2,1.2-2.3,2.6-2.6,4.2c-0.6,3.4,2.2,6.2,4.3,8.9c9.7,12.4,6.7,30.2,10.3,45.5c1.8,7.6,5.3,14.8,7.7,22.2c3.3,10,4.6,20.6,4,31.1
	c-0.1,2.3-0.4,4.7-1.8,6.5c-1.3,1.7-3.5,2.6-5.5,3.3c-11.1,3.8-23.2,5-34.8,3.5c-3.8-0.5-7.7-1.3-10.5-3.9c-3.3-3-4.4-7.7-5.3-12
	c-4.5-20.9-8.9-41.7-13.4-62.6c-0.9,13.8-1.9,27.5-2.8,41.3"/>
<g>
	<path class="st0" d="M241.3,282.9c2.1-1.4,2.8-4.2,4-6.5c2.7-5.1,8.3-8,13.9-9.5c5.6-1.5,11.4-1.9,16.9-3.6c2.8-0.9,5.4-2.1,8.2-3
		c2.2-0.7,4.5-1.3,6.7-1.7c3.1-0.6,7.1-0.4,8.2,2.5c1,2.5-1.1,5.1-3,7.1c7.6,0.8,14.1-5.1,21.3-7.7c2.2-0.8,5-1.2,6.7,0.4
		c0.4,0.3,0.7,0.7,1.1,0.9c0.4,0.2,0.8,0.1,1.3,0.1c2.5-0.3,5-0.6,7.4-0.8c1.6-0.2,3.3-0.4,4.8,0.2c1.5,0.6,2.8,2.2,2.4,3.8
		c-2.8,1.8-6.1,2.7-9.3,3.7c-13.9,4.5-26.4,12.4-38.2,20.8c-1.7,1.2-3.4,2.4-5.3,3.3c-2.2,1.1-4.7,1.6-7.1,2.2
		c-11.4,2.8-22.6,6.2-33.5,10.5c-2.6-7.7-4.8-15.5-6.5-23.5"/>
	<path d="M241.3,282.8c1.3-0.9,2.1-2.3,2.7-3.7c0.6-1.4,1.2-2.9,2.2-4.2c1.8-2.6,4.4-4.6,7.2-6c2.8-1.4,5.9-2.3,9-2.9
		c3.1-0.6,6.2-1.1,9.3-1.8c1.5-0.3,3.1-0.7,4.5-1.2c1.5-0.5,2.9-1.1,4.4-1.6c1.5-0.6,2.9-1.1,4.4-1.6c1.5-0.5,3-0.9,4.6-1.2
		c1.5-0.3,3.1-0.6,4.7-0.6c1.6,0.1,3.3,0.4,4.5,1.7c0.6,0.6,0.9,1.4,1,2.3c0.1,0.8-0.1,1.7-0.4,2.4c-0.7,1.5-1.7,2.7-2.8,3.8
		l-0.2-0.5c0.5,0,1,0.1,1.5,0.1c0.5,0,1,0,1.5-0.1c1-0.1,2-0.3,3-0.7c1-0.3,1.9-0.7,2.9-1.1c0.9-0.4,1.9-0.9,2.8-1.3
		c1.8-0.9,3.7-2,5.5-2.9c0.9-0.5,1.9-0.9,2.9-1.3c1-0.4,2-0.8,3-1c1.1-0.2,2.2-0.3,3.2,0c0.5,0.1,1.1,0.4,1.5,0.7
		c0.5,0.3,0.8,0.8,1.2,1c0.3,0.2,0.8,0.2,1.3,0.1l1.6-0.2l3.1-0.4l3.1-0.4c1-0.1,2.1-0.2,3.2-0.1c1.1,0.1,2.2,0.6,3,1.4
		c0.8,0.8,1.4,2,1.1,3.2l0,0.2l-0.1,0.1c-1.9,1.2-3.9,2-5.9,2.6c-2.1,0.7-4.1,1.3-6.1,2c-2,0.7-4,1.5-5.9,2.4
		c-2,0.8-3.9,1.8-5.8,2.7c-7.6,3.9-14.8,8.5-21.8,13.4c-1.8,1.2-3.5,2.5-5.3,3.6c-1.8,1.2-3.9,2-6,2.5c-2.1,0.6-4.2,1-6.2,1.5
		c-2.1,0.5-4.1,1.1-6.2,1.6c-8.2,2.3-16.4,4.9-24.4,7.9l-0.3,0.1l-0.1-0.3c-2.6-7.7-4.7-15.6-6.3-23.6l0.1,0c0.9,4,1.9,7.9,3,11.8
		c1.1,3.9,2.3,7.8,3.7,11.6l-0.4-0.2c8-3.1,16.1-5.9,24.3-8.2c2.1-0.6,4.1-1.2,6.2-1.7c2.1-0.6,4.2-1,6.2-1.6c2-0.6,4-1.3,5.8-2.4
		c1.8-1.1,3.5-2.4,5.3-3.6c7-4.9,14.2-9.6,21.9-13.4c1.9-1,3.9-1.9,5.8-2.7c2-0.9,4-1.6,6-2.4c2-0.7,4.1-1.3,6.1-2
		c2-0.7,4-1.4,5.8-2.5l-0.2,0.2c0.2-0.9-0.2-1.8-0.9-2.5c-0.7-0.7-1.6-1.1-2.6-1.2c-1-0.1-2-0.1-3,0.1l-3.1,0.3l-3.1,0.3l-1.6,0.2
		c-0.5,0.1-1.2,0.1-1.7-0.2c-0.5-0.3-0.8-0.8-1.2-1c-0.4-0.3-0.8-0.5-1.3-0.6c-0.9-0.3-2-0.2-2.9,0c-1,0.2-2,0.5-2.9,0.9
		c-1,0.4-1.9,0.8-2.8,1.3c-1.9,0.9-3.7,1.9-5.6,2.9c-0.9,0.5-1.9,0.9-2.8,1.3c-1,0.4-1.9,0.8-3,1.1c-1,0.3-2,0.5-3.1,0.7
		c-0.5,0.1-1.1,0.1-1.6,0.1c-0.5,0-1.1,0-1.6-0.1l-0.6,0l0.4-0.4c1.1-1.1,2.1-2.3,2.7-3.7c0.3-0.7,0.5-1.4,0.4-2.2
		c-0.1-0.7-0.4-1.4-0.9-2c-1-1.1-2.6-1.5-4.1-1.5c-1.5-0.1-3.1,0.2-4.6,0.5c-1.5,0.3-3.1,0.7-4.5,1.1c-1.5,0.5-3,1-4.4,1.6
		c-1.5,0.6-2.9,1.1-4.4,1.6c-1.5,0.5-3,0.8-4.6,1.2c-3.1,0.6-6.2,1.1-9.3,1.7c-3.1,0.6-6.1,1.5-8.9,2.8c-2.8,1.4-5.4,3.3-7.2,5.8
		c-0.9,1.3-1.5,2.7-2.2,4.2C243.5,280.6,242.7,282,241.3,282.8L241.3,282.8z"/>
</g>
<g>
	<path class="st4" d="M265.5,278.4c0,0,0.1,0,0.4,0c0.2,0,0.6,0.1,1,0.1c0.9,0,2.1-0.1,3.5-0.5c1.4-0.4,2.9-1.3,4.2-2.5
		c0.3-0.3,0.6-0.7,1-1c0.4-0.3,0.9-0.5,1.4-0.7c0.9-0.2,1.9-0.5,2.9-0.7c1.9-0.5,3.8-1.1,5.5-1.7c1.7-0.6,3.4-1.1,4.8-1.6
		c1.4-0.5,2.5-0.9,3.4-1.2c0.8-0.3,1.3-0.5,1.3-0.5l0,0.1c0,0-1.7,1.1-4.4,2.3c-0.7,0.3-1.4,0.6-2.2,0.9c-0.8,0.3-1.6,0.6-2.5,0.9
		c-1.8,0.6-3.7,1-5.7,1.4c-1,0.2-1.9,0.4-2.9,0.6c-0.5,0.1-0.9,0.3-1.2,0.5c-0.4,0.3-0.7,0.6-1,0.9c-1.4,1.3-3,2.1-4.5,2.5
		c-1.5,0.4-2.7,0.4-3.6,0.4c-0.4,0-0.8-0.1-1-0.1C265.6,278.5,265.5,278.4,265.5,278.4L265.5,278.4z"/>
</g>
<g>
	<path class="st4" d="M279.8,288.8c0,0,0.2,0,0.5,0.1c0.4,0.1,0.9,0.1,1.6,0.1c1.4,0,3.3-0.4,5.4-1.5c2.1-1.1,4.2-2.8,6.6-4.6
		c1.2-0.9,2.5-1.6,3.9-2.4c1.4-0.7,2.8-1.5,4.2-2.2c2.8-1.4,5.7-2.7,8.5-3.7c1.4-0.5,2.7-1,4-1.4c1.3-0.4,2.5-0.8,3.7-1.1
		c4.6-1.2,7.7-1.7,7.7-1.7l0,0.1c0,0-0.8,0.2-2.1,0.6c-1.3,0.4-3.2,1-5.4,1.7c-2.2,0.7-4.8,1.6-7.5,2.7c-2.7,1-5.6,2.2-8.5,3.5
		c-2.8,1.3-5.7,2.7-8.1,4.3c-2.4,1.6-4.6,3.4-6.7,4.4c-2.1,1.1-4.1,1.4-5.5,1.4c-0.7,0-1.2-0.1-1.6-0.2
		C280,289,279.8,288.9,279.8,288.8L279.8,288.8z"/>
</g>
<g>
	<path class="st4" d="M305.6,267.5c0,0,1.1-0.6,2.8-1.4c1.7-0.8,4-1.7,6.4-2.4c1.2-0.4,2.4-0.7,3.5-1c1.1-0.2,2.2-0.4,3.1-0.5
		c0.9-0.1,1.7-0.2,2.2-0.2c0.5,0,0.9,0,0.9,0l0,0.1c0,0-0.3,0.1-0.8,0.3c-0.5,0.2-1.3,0.4-2.2,0.6c-0.9,0.2-1.9,0.5-3.1,0.7
		c-1.1,0.2-2.3,0.4-3.5,0.7c-2.4,0.6-4.7,1.3-6.4,1.9C306.8,267.1,305.7,267.6,305.6,267.5L305.6,267.5z"/>
</g>
<g>
	<path class="st4" d="M257.3,287.9c0,0,4.7-0.2,9.4-0.2c1.2,0,2.3-0.1,3.4-0.1c1.1,0,2.1,0.1,3,0.2c0.9,0.1,1.6,0.2,2.1,0.3
		c0.5,0.1,0.8,0.1,0.8,0.1l0,0.1c0,0-0.3,0.1-0.8,0.1c-0.5,0.1-1.2,0.1-2.1,0.2c-0.9,0.1-1.9,0.1-3,0.1c-1.1,0-2.3-0.1-3.4-0.2
		c-4.7-0.2-9.4-0.5-9.4-0.5L257.3,287.9z"/>
</g>
<g>
	<path class="st5" d="M81,147.8c-4.4,0-6.8,5-8.8,9c-2.4,4.7-5.6,9-9.5,12.5c-1.7,1.5-3.6,3.5-2.9,5.6c0.8,2.4,4,2.5,6.5,2.4
		c2.5-0.1,5.8,0.9,5.7,3.4c-0.2,3.4-6.5,3.7-6.6,7.1c0,1,0.6,1.9,1.3,2.7c5.6,6.4,14.5,8.6,21.3,13.6c2,1.5,3.8,3.2,5.6,4.9
		c24.4,23.4,45,50.8,60.8,80.7c1.8,0,3.6-0.1,5.5-0.1c1.6-18.8-6.2-37-15.1-53.7c-14.6-27.6-32.4-53.5-53-77.1
		c-3.6-4.2-7.5-8.4-12.3-11.1"/>
	<path class="st4" d="M81,147.8c-1,0-2,0.3-2.9,0.8c-0.9,0.5-1.6,1.3-2.3,2.1c-1.3,1.6-2.2,3.4-3.2,5.3c-1.8,3.7-4.1,7.2-6.8,10.3
		c-0.7,0.8-1.4,1.5-2.1,2.2c-0.7,0.7-1.5,1.4-2.2,2.2c-0.7,0.8-1.3,1.6-1.6,2.6c-0.3,1,0,2,0.7,2.7c0.7,0.7,1.7,1,2.7,1.1
		c1,0.1,2,0.1,3.1,0.1c1,0,2.1,0.1,3.1,0.5c1,0.3,2,0.9,2.4,2c0.2,0.5,0.2,1.1,0.1,1.6c-0.1,0.5-0.4,1-0.8,1.4
		c-0.7,0.8-1.7,1.3-2.6,1.8c-0.9,0.5-1.8,1-2.4,1.8c-0.7,0.7-0.8,1.8-0.4,2.7c0.4,0.9,1.2,1.6,1.9,2.4c0.7,0.7,1.5,1.4,2.3,2
		c1.6,1.3,3.4,2.3,5.2,3.3c3.6,2,7.4,3.7,10.9,5.9c3.6,2.2,6.5,5.1,9.5,8c3,2.9,5.9,5.8,8.7,8.8c2.9,3,5.6,6,8.4,9.1
		c5.5,6.2,10.7,12.6,15.6,19.2c2.5,3.3,4.9,6.7,7.2,10c1.2,1.7,2.3,3.4,3.5,5.1l3.4,5.2l3.3,5.3l3.2,5.3l3.1,5.4l3,5.4l-0.4-0.2
		l5.5-0.1l-0.4,0.4c0.2-3.4,0.2-6.9-0.1-10.3c-0.3-3.4-0.9-6.9-1.7-10.2c-0.8-3.4-1.8-6.7-3-9.9c-1.2-3.3-2.4-6.5-3.9-9.6
		c-1.4-3.2-2.9-6.3-4.5-9.4c-1.6-3.1-3.2-6.1-4.9-9.2c-1.7-3-3.4-6.1-5.1-9.1c-1.8-3-3.5-6-5.3-9c-0.9-1.5-1.8-3-2.7-4.4
		c-0.9-1.5-1.8-2.9-2.8-4.4c-1.9-2.9-3.8-5.8-5.8-8.7l-3-4.3l-3-4.2c-2-2.8-4.1-5.6-6.2-8.4c-2.1-2.8-4.2-5.5-6.4-8.2
		c-2.2-2.7-4.4-5.4-6.6-8.1c-2.2-2.7-4.5-5.3-6.9-7.8c-2.4-2.5-5-4.8-8-6.6l0-0.1c3,1.7,5.7,4,8.2,6.5c2.5,2.5,4.7,5.1,7,7.7
		c2.3,2.6,4.5,5.3,6.7,8c2.2,2.7,4.4,5.4,6.5,8.2c2.1,2.7,4.2,5.5,6.3,8.3l3.1,4.2l3,4.3c2,2.9,3.9,5.7,5.9,8.6
		c1,1.4,1.9,2.9,2.8,4.4c0.9,1.5,1.9,2.9,2.8,4.4c1.8,3,3.6,5.9,5.4,8.9c1.8,3,3.5,6,5.1,9.1c1.7,3.1,3.3,6.1,4.9,9.2
		c1.6,3.1,3.1,6.3,4.5,9.4c1.4,3.2,2.7,6.4,3.9,9.7c1.2,3.3,2.1,6.7,3,10.1c0.8,3.4,1.3,6.9,1.7,10.4c0.3,3.5,0.3,7,0,10.5l0,0.4
		l-0.4,0l-5.5,0.1l-0.3,0l-0.1-0.2l-2.9-5.4l-3-5.4l-3.1-5.3l-3.2-5.3l-3.4-5.2c-1.1-1.7-2.3-3.4-3.5-5.1c-2.3-3.4-4.7-6.7-7.2-10.1
		c-4.9-6.6-10.1-13-15.5-19.2c-2.7-3.1-5.5-6.2-8.3-9.1c-2.8-3-5.7-5.9-8.7-8.8c-2.9-2.9-5.9-5.8-9.4-8c-3.5-2.2-7.3-3.9-10.9-5.9
		c-1.8-1-3.6-2.1-5.2-3.4c-0.8-0.6-1.6-1.3-2.3-2.1c-0.7-0.7-1.5-1.5-1.9-2.5c-0.5-1-0.3-2.3,0.4-3.1c0.7-0.8,1.7-1.3,2.5-1.8
		c0.9-0.5,1.8-1,2.5-1.7c0.4-0.4,0.6-0.8,0.7-1.2l0.1-0.4l0-0.1c0,0,0-0.1,0-0.1l0-0.2c0-0.1,0-0.2,0-0.4c0-0.1,0-0.2-0.1-0.3
		c-0.4-0.9-1.3-1.5-2.2-1.8c-0.9-0.3-2-0.5-3-0.5c-1,0-2.1,0-3.1-0.1c-1-0.2-2.1-0.5-2.9-1.2c-0.8-0.8-1.1-1.9-0.8-3
		c0.3-1,0.9-1.9,1.6-2.7c0.7-0.8,1.5-1.4,2.2-2.2c0.7-0.7,1.5-1.5,2.1-2.2c2.8-3.1,5.1-6.5,6.8-10.2c0.9-1.8,1.9-3.7,3.2-5.3
		c0.7-0.8,1.4-1.5,2.3-2.1C78.9,148,80,147.7,81,147.8L81,147.8z"/>
</g>
<g>
	<path class="st6" d="M149.6,339.5c0,3.3-1.6,6.6-4.3,8.5c-1.7,1.2-2.8,0.5-3.9-1.3c-0.2-0.3-0.2-0.3,0,0c4.6,3.8,7.9,7.4,13.9,8.1
		c3.3,0.4,6.6,0.3,10,0.2c2.7-0.1,5.4-0.2,8.2-0.3c-0.1-1.6-0.1-3.2-0.2-4.9c0-1-0.1-2-0.4-2.9c-0.9-2.7-3.9-4.1-6.6-5.2
		c-2.6-1-5.2-1.8-7.9-2.6c-3.4-1-7.1-1.9-10.5-1"/>
	<path class="st4" d="M149.6,339.5c0,2.6-0.9,5.1-2.6,7.1c-0.4,0.5-0.9,0.9-1.4,1.3c-0.3,0.2-0.5,0.4-0.8,0.6
		c-0.3,0.2-0.6,0.3-1,0.3c-0.3,0-0.7,0-1-0.2c-0.3-0.2-0.6-0.4-0.8-0.6c-0.2-0.2-0.4-0.5-0.6-0.8l-0.3-0.4l-0.1-0.1c0,0,0,0,0,0
		c0,0,0,0,0,0c0,0-0.1,0,0.1,0c0.1,0,0.2-0.1,0.2-0.2c0-0.1,0-0.1,0-0.1c0,0,0.1,0.1,0.1,0.1l0,0c2.2,1.8,4.4,3.8,6.7,5.3
		c0.6,0.4,1.2,0.8,1.8,1.1c0.6,0.3,1.3,0.6,1.9,0.8c1.3,0.5,2.7,0.7,4.1,0.8c2.8,0.3,5.7,0.1,8.6,0l8.6-0.4l-0.5,0.5l-0.2-4.4
		c0-0.7-0.1-1.5-0.2-2.2c-0.1-0.3-0.1-0.7-0.2-1l-0.2-0.5l-0.2-0.4c-0.7-1.2-1.8-2-3.1-2.7c-1.3-0.7-2.6-1.2-4-1.7
		c-1.4-0.5-2.8-1-4.2-1.5c-1.4-0.5-2.8-1-4.2-1.4c-2.8-0.8-5.8-1.4-8.7-0.8l0-0.1c1.4-0.4,2.9-0.5,4.4-0.4c1.5,0.1,3,0.4,4.4,0.7
		c2.9,0.7,5.7,1.6,8.5,2.6c1.4,0.5,2.8,1,4.2,1.7c1.3,0.7,2.7,1.7,3.5,3.1l0.3,0.6l0.2,0.5c0.1,0.4,0.2,0.8,0.3,1.2
		c0.1,0.8,0.1,1.5,0.2,2.3l0.2,4.4l0,0.5l-0.5,0l-8.6,0.2c-2.9,0.1-5.8,0.2-8.7-0.1c-1.4-0.1-2.9-0.4-4.3-0.9
		c-0.7-0.3-1.4-0.5-2-0.9c-0.7-0.3-1.3-0.7-1.9-1.1c-2.4-1.6-4.5-3.6-6.7-5.5l0,0l0,0c-0.1-0.1-0.1-0.1-0.2-0.2c0,0,0,0,0-0.1
		c0-0.1,0.1-0.2,0.2-0.2c0.1,0,0.1,0,0.1,0c0,0,0,0,0,0c0,0,0,0,0.1,0.1l0.1,0.1l0.2,0.4c0.2,0.3,0.3,0.5,0.5,0.8
		c0.4,0.5,0.9,0.8,1.5,0.8c0.3,0,0.6-0.1,0.8-0.3c0.3-0.1,0.5-0.3,0.8-0.5c0.5-0.4,1-0.8,1.4-1.3C148.5,344.5,149.5,342,149.6,339.5
		L149.6,339.5z"/>
</g>
<g>
	<path class="st7" d="M137.7,337.9c-0.6,1.8,0,3.8,0.8,5.5c1.2,2.4,3.2,4.8,5.9,4.9c0.6,0,1.2,0,1.6-0.4c0.4-0.3,0.5-0.8,0.7-1.3
		c0.7-2.5,1.5-5.1,2.2-7.6c-1.9-0.5-3.7-1.1-5.6-1.6c-1.9-0.5-3.9-1-5.7-0.3"/>
	<path class="st4" d="M137.7,337.9c-0.2,1-0.2,2.1,0.1,3c0.1,0.5,0.3,1,0.5,1.4c0.2,0.5,0.4,0.9,0.7,1.4c1,1.7,2.4,3.3,4.2,3.9
		c0.4,0.2,0.9,0.2,1.4,0.2c0.5,0,0.8-0.1,1.1-0.4c0.2-0.2,0.4-0.7,0.5-1.2l0.4-1.5c0.6-2,1.2-4,1.8-6l0.3,0.5
		c-1.9-0.5-3.7-1.2-5.6-1.7c-0.9-0.3-1.8-0.6-2.8-0.7c-0.9-0.2-1.9-0.1-2.8,0.2c0.4-0.2,0.9-0.4,1.4-0.4c0.5-0.1,1-0.1,1.5-0.1
		c1,0.1,2,0.3,2.9,0.5c1.9,0.5,3.8,0.9,5.6,1.4l0.4,0.1l-0.1,0.4c-0.5,2-1.1,4-1.7,6l-0.4,1.5c-0.2,0.5-0.3,1.1-0.8,1.6
		c-0.5,0.5-1.2,0.7-1.8,0.6c-0.6,0-1.1-0.1-1.7-0.3c-1.1-0.4-2-1.1-2.7-1.9c-0.7-0.8-1.3-1.7-1.8-2.7c-0.2-0.5-0.4-1-0.6-1.5
		c-0.2-0.5-0.3-1-0.4-1.5C137.3,340,137.3,338.9,137.7,337.9z"/>
</g>
<g>
	<path class="st6" d="M224.8,285.4c5.1-1.1,10.1-2.1,15.2-3.2c0.5-0.1,1.1-0.2,1.7,0c0.5,0.2,0.8,0.7,1,1.2
		c3.5,7.2,4.7,15.4,5.7,23.4c0.3,2.2,0.6,4.4,0.6,6.7c0,2.3-0.4,4.6-1.1,6.7c-0.2,0.6-0.5,1.3-0.9,1.8c-0.5,0.5-1.3,0.8-2,1
		c-5.4,1.6-10.9,3.2-16.3,4.8c-1.4-14.3-2.8-28.7-4.1-43"/>
	<path class="st4" d="M224.8,285.4l9.5-2.1l4.8-1l1.2-0.3c0.4-0.1,0.8-0.1,1.3,0c0.4,0.1,0.8,0.5,1,0.9c0.2,0.4,0.4,0.7,0.6,1.1
		c1.4,2.9,2.4,6.1,3.2,9.2c0.8,3.2,1.3,6.4,1.8,9.6l0.7,4.8c0.2,1.6,0.4,3.2,0.5,4.9c0.1,1.6-0.1,3.3-0.3,4.9
		c-0.1,0.8-0.3,1.6-0.6,2.4c-0.2,0.8-0.4,1.6-1.1,2.4c-0.6,0.7-1.5,1-2.3,1.2l-2.3,0.7l-4.7,1.4l-9.3,2.8l-0.6,0.2l-0.1-0.6l-1-10.7
		c-0.4-3.6-0.6-7.2-1-10.8c-0.3-3.6-0.6-7.2-0.9-10.8c-0.3-3.6-0.5-7.2-0.8-10.8l0.1,0c0.4,3.6,0.9,7.1,1.3,10.7
		c0.4,3.6,0.8,7.2,1.2,10.7c0.4,3.6,0.8,7.2,1.1,10.7l1,10.7l-0.6-0.4l9.4-2.7l4.7-1.3l2.3-0.7c0.8-0.2,1.5-0.5,1.9-1
		c0.5-0.5,0.7-1.3,0.9-2.1c0.2-0.8,0.4-1.5,0.6-2.3c0.3-1.6,0.4-3.2,0.4-4.8c0-1.6-0.2-3.2-0.4-4.8l-0.6-4.8
		c-0.9-6.4-2.1-12.8-4.8-18.7c-0.3-0.7-0.6-1.6-1.3-1.8c-0.7-0.2-1.5,0.1-2.3,0.2l-4.8,1L224.8,285.4L224.8,285.4z"/>
</g>
<g>
	<path class="st5" d="M145,146.1c4,1.1,7.9,2.3,11.3,4.7s5.9,6.1,6.1,10.2c0,0.7,0,1.5,0.4,2.1c0.4,0.7,1.1,1,1.9,1.2
		c4.6,1.7,9.4,2.5,14.3,2.4c0.3,13.9,3.9,27.6,4.2,41.6c0.2,11.3-1.7,22.5-3.7,33.7c-2.7,15.6-3.3,30.6-8.1,45.7
		c-0.2,0.7-0.5,1.5-1.1,2c-0.7,0.5-1.6,0.5-2.4,0.4c-2-0.1-4.1-0.2-6.1-0.3c-0.2-3.8,1-7.5,1.7-11.3c1.5-9-0.4-18.2-2.2-27.2
		c-6.5-32.4-15.1-65.3-15.1-98c0-2.9-2.1-5.8-3-8.6"/>
	<path class="st4" d="M145.1,146.1c3.5,0.9,7,2,10.1,3.9c1.6,0.9,3,2.1,4.2,3.5c1.2,1.4,2.1,3,2.7,4.7c0.3,0.9,0.4,1.8,0.5,2.7
		c0,0.9,0,1.9,0.7,2.5c0.6,0.6,1.6,0.8,2.4,1.1c0.9,0.3,1.7,0.5,2.6,0.8c3.5,0.9,7.1,1.3,10.7,1.2l0.2,0l0,0.2
		c0.3,11.1,2.6,22,3.7,33.1c0.3,2.8,0.5,5.5,0.5,8.3c0.1,2.8,0,5.6-0.2,8.3c-0.3,5.6-1.1,11.1-1.9,16.6c-0.9,5.5-1.9,10.9-2.6,16.4
		c-0.8,5.5-1.4,11-2.2,16.5c-0.8,5.5-1.8,11-3.1,16.4c-0.4,1.3-0.7,2.7-1.1,4c-0.2,0.7-0.4,1.3-0.6,2c-0.2,0.7-0.6,1.5-1.4,1.9
		c-0.8,0.4-1.5,0.4-2.2,0.3l-2.1-0.1l-4.2-0.2l-0.4,0l0-0.4c-0.1-3.2,0.6-6.2,1.2-9.2c0.2-0.7,0.3-1.5,0.4-2.2
		c0.1-0.8,0.2-1.5,0.3-2.3c0.2-1.5,0.2-3,0.2-4.5c0-6.1-1.2-12.1-2.4-18.1c-1.2-6-2.4-12-3.7-18c-1.3-6-2.6-12-3.7-18
		c-1.2-6-2.4-12.1-3.4-18.1c-0.5-3-1-6.1-1.5-9.1c-0.4-3-0.9-6.1-1.2-9.1c-0.4-3-0.6-6.1-0.9-9.2c-0.2-3.1-0.5-6.1-0.5-9.2
		c-0.2-3.1-0.1-6.1-0.2-9.2c0-1.5-0.5-3-1.1-4.4c-0.6-1.4-1.3-2.8-1.8-4.2l0.1,0c0.5,1.4,1.3,2.8,1.9,4.2c0.6,1.4,1.2,2.9,1.2,4.5
		c0.1,3.1,0.1,6.1,0.3,9.2c0.1,3.1,0.4,6.1,0.6,9.2c0.3,3,0.6,6.1,1,9.1c0.4,3,0.8,6.1,1.3,9.1c0.5,3,1,6.1,1.5,9.1
		c1.1,6,2.3,12.1,3.5,18.1c2.5,12,5.1,24,7.5,36.1c1.2,6,2.3,12.1,2.3,18.3c0,1.6-0.1,3.1-0.2,4.7c-0.1,0.8-0.2,1.5-0.3,2.3
		c-0.1,0.8-0.3,1.5-0.4,2.3c-0.6,3-1.4,6-1.3,9l-0.4-0.4l4.2,0.2l2.1,0.1c0.7,0,1.3,0,1.8-0.2c1-0.5,1.2-2.1,1.6-3.4
		c0.4-1.3,0.8-2.7,1.1-4c1.4-5.4,2.4-10.8,3.2-16.3c0.8-5.5,1.5-11,2.3-16.5c0.8-5.5,1.8-11,2.7-16.4c0.9-5.5,1.6-11,2-16.5
		c0.2-2.8,0.3-5.5,0.2-8.3c-0.1-2.8-0.2-5.5-0.5-8.3c-1-11-3.3-22-3.6-33.1l0.2,0.2c-3.6,0.1-7.3-0.3-10.8-1.3
		c-0.9-0.2-1.7-0.5-2.6-0.8c-0.8-0.3-1.8-0.5-2.5-1.2c-0.4-0.3-0.6-0.8-0.6-1.3c-0.1-0.5-0.1-0.9-0.1-1.4c0-0.9-0.2-1.8-0.5-2.6
		c-0.5-1.7-1.4-3.3-2.6-4.7c-1.2-1.4-2.6-2.6-4.1-3.5C152,148.2,148.5,147.1,145.1,146.1L145.1,146.1z"/>
</g>
<g>
	<path class="st8" d="M63.3,205.7c0,0,0.8,0.8,2.1,2.1c0.7,0.7,1.5,1.5,2.4,2.5c0.4,0.5,0.9,1,1.4,1.6c0.5,0.6,1,1.2,1.5,1.8
		c1.1,1.2,2.2,2.6,3.3,4.1c1.2,1.5,2.3,3.1,3.5,4.7c1.2,1.7,2.4,3.4,3.6,5.2c1.2,1.8,2.4,3.6,3.5,5.5c2.3,3.7,4.4,7.5,6.4,11.1
		c2,3.6,3.7,7,5.2,9.9c1.5,2.9,2.7,5.4,3.5,7.1c0.8,1.7,1.3,2.7,1.3,2.7s-0.5-1-1.5-2.6c-0.9-1.7-2.2-4.1-3.8-6.9
		c-0.8-1.4-1.7-3-2.6-4.6c-0.9-1.6-1.9-3.4-2.9-5.1c-2-3.6-4.2-7.3-6.5-11c-1.1-1.9-2.3-3.7-3.5-5.5c-1.1-1.8-2.4-3.5-3.5-5.2
		c-1.2-1.7-2.3-3.3-3.4-4.8c-1.1-1.5-2.2-2.9-3.2-4.2c-1-1.3-1.9-2.5-2.8-3.5c-0.8-1-1.6-1.9-2.2-2.6
		C64.1,206.6,63.3,205.7,63.3,205.7z"/>
</g>
<g>
	<path class="st6" d="M136,135.3c5,6.6,9.6,13.5,13.6,20.7c0.6,1.1,1.2,2.2,1.4,3.4c0.4,2.6-1.2,5-2.8,7.1c-1,1.4-2.1,3-1.9,4.7
		c0.5,2.8,4.3,3.9,5.2,6.5c-2.1-1-4.2-2.3-5.9-4c-1.6-1.7-2.8-4-2.9-6.3c0-1.3,0.2-2.6,0.4-3.9c1.1-7.3-0.8-15-5.2-20.9
		c-0.8-1.1-1.7-2.2-2.2-3.4C135.2,138,135.2,136.4,136,135.3"/>
	<path class="st4" d="M136,135.3c5.1,6.6,9.8,13.5,13.9,20.8c0.5,0.9,1,1.9,1.2,2.9c0.2,1.1,0.1,2.2-0.2,3.2c-0.3,1-0.8,2-1.4,2.9
		c-0.6,0.9-1.2,1.7-1.8,2.6c-0.6,0.8-1,1.7-1.1,2.7c0,0.5,0,0.9,0.2,1.4c0.1,0.4,0.4,0.8,0.8,1.2c0.7,0.7,1.5,1.4,2.3,2
		c0.8,0.7,1.6,1.5,2,2.6l0.4,0.9l-0.9-0.4c-1.8-0.9-3.6-1.9-5.2-3.3c-0.8-0.7-1.5-1.5-2.1-2.3c-0.6-0.9-1.1-1.8-1.4-2.8
		c-0.3-1-0.4-2.1-0.4-3.2c0.1-1,0.3-2.1,0.4-3c0.1-1,0.2-2,0.3-3c0-1,0-2-0.1-3c-0.1-1-0.2-2-0.3-3c-0.2-1-0.4-1.9-0.6-2.9
		c-0.3-1-0.6-1.9-0.9-2.8c-0.4-0.9-0.8-1.8-1.2-2.7c-0.5-0.9-1-1.8-1.5-2.6c-0.5-0.8-1.2-1.6-1.7-2.5c-0.6-0.9-1-1.8-1.2-2.8
		C135.1,137.2,135.3,136.1,136,135.3L136,135.3c-0.6,0.9-0.7,2-0.5,2.9c0.2,1,0.7,1.8,1.3,2.6c0.6,0.8,1.2,1.6,1.8,2.4
		c0.6,0.8,1.1,1.7,1.6,2.6c0.5,0.9,1,1.8,1.4,2.7c0.4,0.9,0.7,1.9,1,2.9c0.3,1,0.5,2,0.7,3c0.2,1,0.3,2,0.4,3c0.1,1,0.1,2.1,0.1,3.1
		c0,1-0.1,2.1-0.3,3.1c-0.2,1-0.3,2-0.4,3c-0.1,1,0,1.9,0.3,2.8c0.3,0.9,0.7,1.8,1.2,2.6c0.5,0.8,1.2,1.5,1.9,2.2
		c1.5,1.3,3.2,2.3,5,3.2l-0.6,0.5c-0.3-0.9-1-1.6-1.8-2.3c-0.8-0.7-1.6-1.3-2.3-2.1c-0.4-0.4-0.7-0.9-0.9-1.4
		c-0.2-0.5-0.3-1.1-0.2-1.7c0.1-1.1,0.7-2.1,1.3-3c0.6-0.9,1.3-1.7,1.8-2.5c0.6-0.9,1.1-1.8,1.4-2.7c0.3-1,0.4-1.9,0.2-2.9
		c-0.2-1-0.7-1.9-1.1-2.8C145.5,149,141,142,136,135.3L136,135.3z"/>
</g>
<g>
	<path class="st9" d="M116.7,287.8c20.3-0.2,40.6,1.1,60.6,3.9c2.5,0.3,4.9,0.7,7.4,0.5c3.8-0.4,7.4-2.2,10.9-3.7
		c9-3.7,19-5,28.7-3.7c3.5,20.7,5.1,41.8,4.7,62.8c-6.5,2.4-13.5-1-20.3-1.6c-9.7-0.9-19.3,3.7-29.1,3.1c-7.1-0.4-13.8-3.6-20.8-3.8
		c-7.7-0.2-15.1,3.3-22.8,3.4c-2.8,0-5.7-0.3-8.4,0.5c-2.8,0.9-5.1,2.9-7.9,3.9c-1.8,0.6-3.7,0.8-5.6,0.9
		c-13.8,0.4-27.6-6.2-35.9-17.1c-2.2-2.8-4-5.9-6.1-8.8c-1.6-2.2-3.5-4.2-5.3-6.3c-11-12.8-19.6-27.3-28.1-41.8
		c-2.3-3.9-4.7-7.9-5.9-12.3c-1.1-3.8-1.4-7.7-2.4-11.5c-2.7-10.3-10.4-19.6-9.4-30.2"/>
	<path class="st4" d="M116.7,287.8c18.2-0.2,36.4,0.8,54.4,3c2.3,0.3,4.5,0.6,6.8,0.9c2.2,0.3,4.5,0.6,6.8,0.4
		c2.2-0.2,4.4-1,6.5-1.8c2.1-0.9,4.2-1.8,6.3-2.6c4.3-1.6,8.8-2.6,13.3-3.2c4.5-0.5,9.1-0.5,13.7,0.1l0.2,0l0,0.2
		c0.4,2.6,0.9,5.2,1.2,7.8c0.4,2.6,0.7,5.2,1.1,7.8c0.3,2.6,0.6,5.2,0.9,7.8c0.3,2.6,0.5,5.2,0.7,7.9c0.2,2.6,0.4,5.2,0.5,7.9
		c0.1,2.6,0.2,5.3,0.3,7.9c0.1,2.6,0.1,5.3,0.1,7.9c0,2.6,0,5.3,0,7.9l0,0.2l-0.2,0.1c-2.9,1.1-6,1-9,0.5c-3-0.5-5.8-1.2-8.7-1.8
		c-5.8-1.2-11.7,0-17.5,1.1c-2.9,0.6-5.8,1.2-8.8,1.5c-3,0.3-6,0.3-9-0.3c-5.9-1-11.5-3.2-17.4-3.3c-5.9-0.1-11.6,1.9-17.5,2.9
		c-5.9,1.4-12.3-1-17.2,2.7c-1.3,0.7-2.6,1.6-4,2.1c-1.4,0.6-3,0.8-4.5,0.9c-0.7,0.1-1.5,0.1-2.3,0.1c-0.7,0-1.5,0-2.2,0
		c-0.8-0.1-1.5-0.1-2.3-0.2l-2.2-0.3c-5.9-0.9-11.7-3-16.8-6.2c-5.1-3.2-9.6-7.3-13.1-12.2c-1.7-2.4-3.3-5-5.1-7.3
		c-1.8-2.3-3.8-4.5-5.7-6.8c-3.8-4.6-7.4-9.3-10.8-14.3c-3.4-4.9-6.5-10-9.6-15c-3.1-5.1-6.1-10.2-9.1-15.4
		c-1.5-2.6-2.8-5.3-3.7-8.1c-0.9-2.9-1.3-5.8-1.8-8.8c-0.5-2.9-1.3-5.8-2.4-8.5c-1.1-2.8-2.3-5.5-3.5-8.2c-1.2-2.7-2.4-5.5-3.2-8.3
		c-0.8-2.9-1.2-5.9-0.9-8.8l0.1,0c-0.3,3,0.2,5.9,1,8.8c0.8,2.8,2,5.6,3.3,8.3c1.2,2.7,2.5,5.4,3.7,8.1c1.1,2.8,2,5.7,2.5,8.6
		c0.5,2.9,0.9,5.9,1.9,8.7c0.9,2.8,2.3,5.4,3.7,8c3,5.1,6.1,10.2,9.1,15.3c6.2,10.1,12.8,20,20.5,29.1c1.9,2.3,4,4.4,5.8,6.8
		c1.8,2.4,3.4,4.9,5.1,7.3c3.3,4.8,7.8,8.9,12.8,12c5,3.1,10.6,5.1,16.4,6l2.2,0.3l2.2,0.1c0.7,0.1,1.5,0,2.2,0c0.7,0,1.4,0,2.2-0.1
		c1.5-0.1,2.9-0.3,4.2-0.8c1.3-0.5,2.6-1.3,3.9-2c1.3-0.7,2.7-1.5,4.2-1.9c1.5-0.4,3-0.5,4.5-0.5c1.5,0,3,0.1,4.4,0
		c1.5-0.1,2.9-0.2,4.4-0.5c5.8-0.9,11.6-3,17.6-2.9c6.1,0.1,11.7,2.4,17.5,3.4c2.9,0.5,5.9,0.6,8.8,0.3c2.9-0.3,5.8-0.9,8.8-1.5
		c2.9-0.6,5.8-1.2,8.8-1.4c1.5-0.2,3-0.2,4.5-0.2c1.5,0.1,3,0.2,4.5,0.5c2.9,0.5,5.8,1.3,8.7,1.8c2.9,0.5,5.9,0.5,8.6-0.5l-0.2,0.3
		c0-2.6,0.1-5.3,0.1-7.9c0-2.6-0.1-5.3-0.1-7.9c-0.1-2.6-0.2-5.2-0.3-7.9c-0.1-2.6-0.3-5.2-0.5-7.9c-0.2-2.6-0.4-5.2-0.7-7.8
		c-0.3-2.6-0.5-5.2-0.8-7.8c-0.3-2.6-0.7-5.2-1-7.8c-0.4-2.6-0.8-5.2-1.2-7.8l0.2,0.2c-4.5-0.6-9-0.6-13.5-0.1
		c-4.5,0.5-8.9,1.5-13.2,3.1c-2.1,0.8-4.2,1.7-6.3,2.6c-2.1,0.9-4.3,1.6-6.6,1.8c-2.3,0.2-4.6-0.1-6.8-0.4c-2.2-0.3-4.5-0.6-6.8-0.9
		c-18-2.3-36.2-3.4-54.4-3.2L116.7,287.8z"/>
</g>
<g>
	<path class="st0" d="M120.9,288.8c0.2-1.2-0.6-2.3-1.5-3c-0.9-0.8-2-1.4-2.6-2.4c-0.8-1.3-0.8-3-1.4-4.4c-1.1-2.6-4.1-4-5.5-6.5
		c-1-1.9-1.1-4.3-2.8-5.6c-0.5-0.4-1.2-0.7-1.8-0.9c-2.2-0.8-4.3-1.6-6.5-2.4c-0.8-0.3-1.6-0.6-2.3-0.3c-0.9,0.4-1.3,1.6-1,2.6
		c0.3,1,1,1.7,1.7,2.4c1.9,1.8,4,3.5,6.3,4.9c-5.3-1-11-0.1-15.6,2.6c-0.5,0.3-1,0.6-1.4,1.1c-1,1.5,0.2,3.6,1.8,4.3
		c1.7,0.7,3.5,0.4,5.3,0.2c3.8-0.3,7.6,0.2,11.1,1.4c-1.8,0.1-3.7-0.2-5.5-0.2c-3.1,0.1-6.1,1.2-8.5,3.2c-0.4,0.4-0.9,0.8-0.8,1.4
		c0,0.5,0.5,0.8,0.9,1.1c3.5,2.4,8.3,2,12.2,0.4c-0.2,1.8,1.6,3.4,3.4,3.5c1.8,0.1,3.5-0.9,4.8-2.2c0.4-0.5,0.9-1,1.5-1.3
		c0.4-0.2,0.9-0.2,1.4-0.2c2.4,0.1,4.9,0.1,7.3,0.2"/>
	<path d="M120.9,288.8c0.2-1.1-0.5-2.1-1.3-2.8c-0.8-0.7-1.8-1.2-2.5-2c-0.8-0.8-1.1-2-1.3-3c-0.2-1.1-0.5-2.1-1.1-2.9
		c-1.2-1.7-3.1-2.8-4.5-4.7c-0.7-0.9-1.1-2-1.4-3c-0.3-1-0.7-2-1.4-2.7c-0.6-0.7-1.6-1-2.7-1.4l-3-1.1l-3-1.1
		c-0.5-0.2-1-0.3-1.4-0.3c-0.2,0-0.4,0-0.6,0.1c-0.2,0.1-0.3,0.2-0.4,0.4c-0.2,0.3-0.3,0.8-0.3,1.2c0,0.4,0.2,0.9,0.5,1.3
		c0.5,0.8,1.4,1.5,2.2,2.2c1.6,1.4,3.3,2.7,5.1,3.8l2.2,1.4l-2.6-0.5c-3.2-0.6-6.5-0.5-9.7,0.3c-1.6,0.4-3.1,1-4.6,1.7
		c-0.7,0.4-1.5,0.7-2,1.2c-0.5,0.5-0.7,1.2-0.5,1.9c0.2,0.7,0.7,1.4,1.3,1.8c0.6,0.4,1.4,0.6,2.2,0.7c0.8,0.1,1.6,0,2.4,0
		c0.8-0.1,1.7-0.1,2.5-0.2c3.4-0.1,6.8,0.4,9.9,1.5l1.5,0.5l-1.6,0.1c-1.3,0.1-2.6-0.1-3.9-0.1c-0.6,0-1.3-0.1-1.9,0
		c-0.6,0-1.2,0.1-1.9,0.2c-1.2,0.2-2.4,0.6-3.6,1.2c-0.6,0.3-1.1,0.6-1.6,0.9c-0.5,0.4-1,0.7-1.5,1.1c-0.4,0.4-0.5,1-0.1,1.4
		c0.2,0.2,0.4,0.4,0.7,0.5c0.3,0.2,0.5,0.3,0.8,0.5c1.1,0.6,2.3,0.9,3.6,1c2.5,0.2,5.1-0.3,7.4-1.2l0.3-0.1l0,0.3
		c-0.1,0.8,0.3,1.7,0.9,2.3c0.6,0.6,1.4,1,2.3,1.1c1.8,0.1,3.4-0.9,4.6-2.1c0.3-0.3,0.6-0.7,0.9-1c0.4-0.3,0.8-0.5,1.3-0.5
		c0.5,0,0.9,0,1.4,0l1.3,0l5.4,0.2l0,0.1l-5.4-0.1l-1.3,0c-0.4,0-0.9,0-1.3,0c-0.4,0-0.8,0.2-1.2,0.5c-0.3,0.3-0.6,0.6-0.9,1
		c-0.6,0.7-1.3,1.3-2.2,1.7c-0.4,0.2-0.8,0.4-1.3,0.5c-0.4,0.1-0.9,0.1-1.4,0.1c-0.9-0.1-1.8-0.5-2.5-1.1c-0.7-0.6-1.1-1.6-1-2.5
		l0.2,0.2c-2.4,1-5,1.5-7.6,1.3c-1.3-0.1-2.6-0.4-3.8-1c-0.3-0.1-0.6-0.3-0.9-0.5c-0.3-0.2-0.6-0.4-0.8-0.6c-0.2-0.2-0.4-0.6-0.4-1
		c0-0.4,0.3-0.7,0.5-1c0.5-0.5,1-0.9,1.5-1.2c0.5-0.4,1.1-0.7,1.7-1c1.2-0.6,2.4-1,3.7-1.2c0.6-0.1,1.3-0.2,1.9-0.2
		c0.7,0,1.3,0,1.9,0c1.3,0.1,2.5,0.2,3.8,0.1l-0.1,0.6c-3.1-1-6.4-1.5-9.7-1.4c-0.8,0-1.6,0.1-2.5,0.2c-0.8,0.1-1.7,0.1-2.6,0.1
		c-0.9-0.1-1.8-0.3-2.5-0.8c-0.7-0.5-1.3-1.3-1.6-2.2c-0.1-0.5-0.2-0.9,0-1.4c0-0.2,0.2-0.5,0.3-0.7c0.1-0.2,0.3-0.4,0.4-0.6
		c0.7-0.7,1.5-1,2.2-1.4c1.5-0.8,3.1-1.4,4.8-1.8c3.3-0.8,6.8-1,10.1-0.4l-0.3,0.9c-1.9-1.1-3.6-2.5-5.3-3.9
		c-0.8-0.8-1.6-1.4-2.3-2.4c-0.3-0.5-0.6-1.1-0.7-1.7c-0.1-0.6,0.1-1.3,0.5-1.9c0.2-0.3,0.5-0.5,0.8-0.7c0.3-0.2,0.7-0.2,1-0.2
		c0.7,0,1.2,0.2,1.8,0.4l3,1.2l3,1.2c0.5,0.2,1,0.4,1.5,0.6c0.5,0.2,1,0.6,1.4,1.1c0.8,0.9,1.1,2,1.5,3c0.3,1,0.7,2,1.3,2.9
		c0.6,0.9,1.4,1.6,2.2,2.3c0.8,0.7,1.6,1.5,2.2,2.5c0.7,0.9,0.9,2.1,1.1,3.1c0.2,1.1,0.4,2.1,1.1,2.9c0.7,0.8,1.6,1.4,2.4,2.1
		C120.5,286.6,121.2,287.7,120.9,288.8L120.9,288.8z"/>
</g>
<g>
	<path class="st0" d="M70.7,106.5C63.3,93,59.6,77.6,59.9,62.4c0.1-6.2,1-12.4,3.8-17.8c2.9-5.7,7.8-10.1,13.2-13.8
		c23.5-15.8,56.1-15.4,79.3,0.8c4.4,12,9,24.5,8.1,37.4c-0.5,7.8-3.1,15.4-2.6,23.2c0.3,5.3,2.1,10.4,1.7,15.6
		c-0.5,6.3-4.1,12-7.6,17.4c-2.9,4.5-5.8,8.9-8.6,13.4c-2.9,4.5-5.9,9-10.7,11.3c-7.5,3.6-16.3,0.4-23.9-2.7
		c-11.2-4.6-22.9-9.6-30.5-19c-5.6-7.1-8.4-16-11-24.7"/>
	<path d="M70.7,106.5c-3.4-6.1-6-12.7-7.8-19.4C61,80.4,60,73.4,59.8,66.4c-0.1-3.5,0-7,0.4-10.5c0.4-3.5,1.3-6.9,2.7-10.1
		c1.4-3.2,3.5-6.1,6-8.6c2.5-2.5,5.2-4.7,8.1-6.7c1.5-0.9,3-1.8,4.5-2.7c1.6-0.8,3.1-1.6,4.7-2.4c1.6-0.7,3.2-1.4,4.9-2l5-1.6
		l5.1-1.3l5.2-0.9l5.2-0.5l5.3-0.1l5.3,0.2l5.2,0.6l5.2,1l5.1,1.4l5,1.7l4.8,2.1l4.7,2.5l4.4,2.8l0.1,0.1l0,0.1
		c1.6,4.2,3.1,8.5,4.5,12.8c1.4,4.3,2.5,8.7,3.2,13.2c0.4,2.2,0.5,4.5,0.6,6.8c0,2.3,0,4.6-0.3,6.8c-0.5,4.5-1.5,8.9-2.1,13.4
		c-0.3,2.2-0.4,4.5-0.3,6.7c0.1,2.2,0.4,4.4,0.8,6.7c0.4,2.2,0.8,4.5,1,6.8c0.1,1.2,0.1,2.3,0,3.5c-0.1,1.1-0.3,2.3-0.6,3.4
		c-1.2,4.5-3.5,8.5-5.9,12.3l-7.4,11.4l-3.7,5.7c-1.3,1.9-2.6,3.8-4.2,5.4c-1.6,1.7-3.4,3.1-5.6,4.1c-1,0.5-2.1,0.9-3.3,1.1
		c-0.6,0.1-1.1,0.2-1.7,0.3c-0.6,0.1-1.2,0.1-1.7,0.1c-4.6,0.1-9.1-1.2-13.3-2.8c-4.2-1.6-8.4-3.4-12.5-5.2c-4.1-1.9-8.2-4-11.9-6.5
		c-1.9-1.3-3.7-2.7-5.4-4.2c-1.7-1.5-3.3-3.2-4.7-5c-2.8-3.6-4.9-7.7-6.5-11.9c-1.7-4.2-3-8.5-4.2-12.9l0.1,0
		c1.3,4.3,2.7,8.6,4.4,12.8c1.7,4.2,3.9,8.2,6.7,11.7c1.4,1.7,3,3.4,4.7,4.8c1.7,1.5,3.5,2.8,5.4,4.1c3.8,2.5,7.8,4.5,11.9,6.4
		c4.1,1.8,8.3,3.5,12.5,5.1c4.2,1.5,8.6,2.8,13,2.6c0.6,0,1.1,0,1.6-0.1c0.5-0.1,1.1-0.2,1.6-0.3c1.1-0.2,2.1-0.6,3.1-1.1
		c2-0.9,3.7-2.3,5.2-3.9c3-3.2,5.3-7.2,7.8-11l7.4-11.4c2.4-3.8,4.7-7.7,5.8-12c0.3-1.1,0.5-2.1,0.6-3.3c0.1-1.1,0.1-2.2,0-3.3
		c-0.1-2.2-0.6-4.4-0.9-6.7c-0.4-2.2-0.7-4.5-0.8-6.8c-0.1-2.3,0.1-4.6,0.4-6.8c0.6-4.5,1.6-8.9,2.1-13.4c0.3-2.2,0.3-4.5,0.3-6.7
		c-0.1-2.2-0.2-4.5-0.6-6.7c-0.7-4.4-1.8-8.8-3.1-13.1c-1.3-4.3-2.9-8.5-4.4-12.8l0.1,0.2l-4.4-2.8l-4.6-2.5l-4.8-2.1l-4.9-1.7
		l-5-1.4l-5.1-1l-5.2-0.6l-5.2-0.3l-5.2,0.1l-5.2,0.5l-5.1,0.9l-5.1,1.2l-5,1.6l-4.8,2c-1.6,0.8-3.1,1.6-4.7,2.3
		c-1.5,0.9-3,1.8-4.5,2.7c-2.9,1.9-5.6,4.1-8.1,6.6c-2.4,2.5-4.5,5.3-5.9,8.5c-1.4,3.2-2.3,6.6-2.7,10c-0.5,3.5-0.5,6.9-0.5,10.4
		c0.2,7,1.2,13.9,3,20.7C64.8,93.8,67.4,100.3,70.7,106.5L70.7,106.5z"/>
</g>
<g>
	<path class="st4" d="M106.2,274c0,0,0.3,0,0.7,0c0.5,0,1.1,0,1.7,0.1c0.3,0.1,0.6,0.1,0.9,0.2c0.3,0.1,0.5,0.2,0.7,0.4
		c0.4,0.3,0.5,0.6,0.5,0.6l0,0.1c0,0-0.4,0.1-0.8,0c-0.2,0-0.5-0.1-0.7-0.2c-0.2-0.1-0.5-0.3-0.7-0.4
		C107.3,274.4,106.2,274.1,106.2,274L106.2,274z"/>
</g>
<g>
	<path class="st4" d="M105.8,283c0,0,1.7-0.2,3.4-0.4c0.4,0,0.8-0.1,1.2-0.1c0.4,0,0.8,0.1,1.2,0.2c0.3,0.1,0.6,0.4,0.7,0.5
		c0.1,0.2,0.2,0.3,0.2,0.3l-0.1,0.1c0,0-0.1,0-0.3-0.1c-0.2,0-0.4-0.1-0.7-0.1c-0.3,0-0.6,0-1,0c-0.4,0-0.8-0.1-1.2-0.1
		C107.5,283.3,105.8,283.1,105.8,283L105.8,283z"/>
</g>
<g>
	<path class="st4" d="M103.5,289.3c0,0,0.3-0.2,0.8-0.4c0.5-0.2,1.2-0.5,2-0.7c0.4-0.1,0.7-0.2,1.1-0.2c0.4,0,0.7,0,1,0.1
		c0.6,0.1,0.9,0.4,0.9,0.4l0,0.1c0,0-0.4,0.2-0.9,0.3c-0.3,0.1-0.6,0.1-0.9,0.1c-0.3,0-0.7,0-1,0C105,289,103.6,289.4,103.5,289.3
		L103.5,289.3z"/>
</g>
<g>
	<path class="st4" d="M100.2,275c0,0,0.2,0.2,0.4,0.6c0.2,0.4,0.4,1,0.5,1.6c0.1,0.3,0.1,0.6,0.1,0.9c0,0.3-0.1,0.6-0.2,0.8
		c-0.2,0.4-0.5,0.7-0.5,0.7l-0.1,0c0,0-0.1-0.3-0.2-0.7c0-0.2-0.1-0.4-0.1-0.7c0-0.2,0.1-0.5,0.1-0.8c0-0.5,0-1.1-0.1-1.5
		C100.2,275.3,100.1,275,100.2,275L100.2,275z"/>
</g>
<path class="st10" d="M102.7,288.7c0.7-0.2,1.2-0.8,1.2-1.5"/>
<g>
	<path class="st4" d="M102.8,272.3c0,0,0.2-0.1,0.3-0.2c0.2-0.1,0.4-0.3,0.5-0.5c0.1-0.1,0.1-0.2,0.1-0.3c0.1-0.1,0.1-0.1,0.2-0.2
		c0.2-0.1,0.4-0.2,0.4-0.2l0.1,0c0,0,0.2,0.2,0.2,0.5c0,0.2,0,0.3-0.1,0.5c-0.1,0.1-0.3,0.2-0.4,0.3c-0.3,0.2-0.7,0.3-0.9,0.3
		C103,272.5,102.8,272.4,102.8,272.3L102.8,272.3z"/>
</g>
<g>
	<path class="st8" d="M207.4,173.6c0,0,0.2,1,0.6,2.9c0.4,1.8,0.9,4.4,1.5,7.6c0.3,1.6,0.6,3.3,0.8,5.1c0.3,1.8,0.6,3.7,0.7,5.7
		c0.2,2,0.4,4,0.5,6.1c0.1,2.1,0.2,4.2,0.3,6.3c0.1,4.3,0,8.5-0.3,12.5c-0.1,2-0.3,3.9-0.5,5.7c-0.2,1.8-0.4,3.5-0.7,5.1
		c-0.4,3.2-1,5.8-1.3,7.6c-0.4,1.8-0.6,2.8-0.6,2.8s0.2-1,0.4-2.9c0.3-1.8,0.6-4.5,1-7.6c0.4-3.2,0.6-6.9,0.9-10.8
		c0.2-4,0.3-8.2,0.2-12.4c0-2.1-0.1-4.2-0.2-6.3c-0.1-2.1-0.3-4.1-0.5-6.1c-0.4-3.9-0.8-7.6-1.3-10.8
		C208,177.8,207.4,173.6,207.4,173.6z"/>
</g>
<g>
	<path class="st8" d="M213.6,218.1c0,0,0.3-0.7,0.9-1.7c0.5-1,1.2-2.4,2-3.7c0.7-1.4,1.4-2.7,2-3.7c0.5-1,1-1.7,1-1.7
		s-0.1,0.8-0.4,1.9c-0.3,1.1-0.9,2.6-1.6,4c-0.7,1.4-1.6,2.7-2.4,3.6C214.2,217.6,213.6,218.1,213.6,218.1z"/>
</g>
<g>
	<path class="st8" d="M212.6,247.5c0,0,0-0.1,0.1-0.4c0-0.2,0.1-0.6,0.3-1.1c0.2-0.4,0.4-1,0.7-1.6c0.3-0.6,0.6-1.2,1-1.9
		c0.3-0.7,0.7-1.5,1.1-2.3c0.4-0.8,0.7-1.7,1-2.7c0.3-0.9,0.6-1.9,0.9-2.9c0.3-1,0.6-2,0.9-3.1c0.6-2,1.1-4.1,1.7-6
		c0.3-1,0.6-1.9,1-2.7c0.3-0.9,0.7-1.7,1-2.4c0.4-0.7,0.7-1.4,1-2c0.3-0.6,0.6-1.1,0.9-1.4c0.5-0.8,0.8-1.2,0.8-1.2
		s-0.2,0.5-0.7,1.3c-0.2,0.4-0.4,0.9-0.7,1.5c-0.3,0.6-0.5,1.3-0.8,2c-0.3,0.8-0.6,1.5-0.8,2.4c-0.3,0.9-0.5,1.8-0.8,2.7
		c-0.5,1.9-1.1,4-1.6,6c-0.3,1-0.6,2.1-0.9,3.1c-0.3,1-0.7,2-1,2.9c-0.4,0.9-0.7,1.8-1.2,2.7c-0.4,0.9-0.8,1.6-1.2,2.3
		c-0.4,0.7-0.8,1.3-1.2,1.9c-0.3,0.5-0.6,1-0.8,1.5C212.7,247,212.6,247.5,212.6,247.5z"/>
</g>
<g>
	<path class="st8" d="M216.9,251.3c0,0-0.2,0.5-0.6,1.3c-0.2,0.4-0.4,0.9-0.7,1.5c-0.3,0.6-0.5,1.2-0.8,1.9
		c-0.3,0.7-0.5,1.5-0.8,2.3c-0.3,0.8-0.5,1.7-0.7,2.7c-0.2,0.9-0.5,1.9-0.6,2.9c-0.2,1-0.4,2-0.5,3c-0.3,2-0.6,4.1-0.8,6
		c-0.1,1-0.2,1.9-0.3,2.8c-0.1,0.9-0.1,1.7-0.2,2.5c-0.1,1.5-0.2,2.8-0.3,3.7c-0.1,0.9-0.1,1.4-0.1,1.4s0-0.5-0.1-1.4
		c0-0.9-0.1-2.2,0-3.7c0-1.6,0-3.4,0.2-5.3c0.1-1,0.1-2,0.3-3c0.1-1,0.3-2,0.4-3.1c0.2-1,0.4-2.1,0.6-3c0.2-1,0.5-2,0.7-2.9
		c0.3-0.9,0.6-1.8,0.9-2.7c0.3-0.8,0.6-1.6,1-2.3c0.2-0.4,0.3-0.7,0.5-1c0.2-0.3,0.3-0.6,0.5-0.9c0.3-0.6,0.6-1,0.8-1.4
		C216.6,251.7,216.9,251.3,216.9,251.3z"/>
</g>
<g>
	<path class="st8" d="M216.5,280.6c0,0,0-0.1,0.1-0.3c0.1-0.2,0.2-0.5,0.4-0.9c0.4-0.8,1-1.8,2-2.9c1-1.1,2.4-2.2,4-3.1
		c1.6-0.9,3.5-1.7,5.3-2.3c1.9-0.6,3.8-1,5.6-1.4c1.8-0.4,3.5-0.7,4.9-1c1.4-0.3,2.6-0.5,3.5-0.6c0.8-0.1,1.3-0.2,1.3-0.2
		s-0.5,0.1-1.3,0.4c-0.8,0.2-2,0.6-3.4,1c-1.4,0.4-3,0.8-4.8,1.3c-0.9,0.2-1.8,0.5-2.7,0.7c-0.9,0.2-1.8,0.5-2.8,0.8
		c-1.8,0.6-3.6,1.2-5.2,2.1c-1.6,0.8-3,1.8-4,2.8c-1,1-1.8,1.9-2.3,2.6C216.7,280.2,216.5,280.6,216.5,280.6z"/>
</g>
<g>
	<path class="st8" d="M223,283.7c0,0,0.2-0.3,0.6-0.7c0.4-0.4,1-1,1.8-1.6c0.8-0.6,1.8-1.2,2.9-1.6c1.1-0.5,2.4-0.9,3.7-1.2
		c1.3-0.3,2.6-0.5,3.8-0.5c1.2-0.1,2.3-0.1,3.3-0.1c1.9,0,3.2,0.2,3.2,0.2s-0.3,0.1-0.9,0.1c-0.6,0.1-1.4,0.2-2.3,0.3
		c-1,0.1-2.1,0.2-3.2,0.4c-1.2,0.2-2.4,0.4-3.7,0.6c-1.2,0.3-2.4,0.6-3.5,1c-1.1,0.4-2.1,0.9-2.9,1.3c-0.8,0.5-1.5,0.9-2,1.2
		C223.3,283.5,223,283.7,223,283.7z"/>
</g>
<g>
	<path class="st8" d="M221.7,259.5c0,0,0.1,0,0.3,0c0.2,0,0.4-0.1,0.7-0.2c0.6-0.3,1.3-0.9,2.1-1.7c0.4-0.4,0.8-0.9,1.2-1.4
		c0.4-0.5,0.8-1.1,1.2-1.6c0.4-0.6,0.8-1.2,1.2-1.8c0.4-0.6,0.8-1.3,1.1-2c1.5-2.7,2.7-5.5,3.7-7.6c0.5-1.1,0.9-1.9,1.2-2.6
		c0.3-0.6,0.5-1,0.5-1s-0.4,1.5-1.1,3.7c-0.4,1.1-0.8,2.4-1.4,3.7c-0.3,0.7-0.6,1.4-0.9,2.1c-0.3,0.7-0.7,1.4-1.1,2.1
		c-0.4,0.7-0.8,1.4-1.2,2c-0.4,0.6-0.9,1.3-1.3,1.8c-0.5,0.6-0.9,1.1-1.4,1.6c-0.5,0.5-0.9,0.9-1.4,1.3c-0.9,0.8-1.8,1.3-2.4,1.5
		c-0.3,0.1-0.6,0.1-0.8,0.1C221.8,259.5,221.7,259.5,221.7,259.5z"/>
</g>
<g>
	<path class="st8" d="M224.8,236.3c0,0,0.2-0.3,0.5-0.8c0.3-0.5,0.8-1.3,1.3-2.2c0.6-0.9,1.2-1.9,2-3c0.7-1.1,1.5-2.2,2.2-3.4
		c1.3-2.4,2.2-5,2.6-7.1c0.2-1,0.3-1.9,0.4-2.5c0.1-0.6,0.1-1,0.1-1s0.1,0.3,0.1,1c0,0.6,0.1,1.5,0,2.6c-0.1,1.1-0.3,2.3-0.7,3.6
		c-0.4,1.3-0.9,2.6-1.6,3.9c-0.7,1.3-1.5,2.4-2.3,3.5c-0.8,1.1-1.6,2-2.2,2.8c-0.7,0.8-1.2,1.5-1.6,2
		C225,236,224.8,236.3,224.8,236.3z"/>
</g>
<g>
	<path class="st8" d="M211.5,206.8c0,0,0.1,0,0.2,0c0.1,0,0.4,0,0.6-0.1c0.5-0.2,1.1-0.7,1.6-1.4c1.2-1.5,2.7-3.4,4.2-5.4
		c0.7-1,1.5-2,2.1-2.9c0.7-0.9,1.2-1.9,1.6-2.7c0.2-0.4,0.3-0.8,0.4-1.2c0.1-0.4,0.2-0.7,0.2-0.9c0.1-0.5,0-0.9,0-0.9s0,0.1,0,0.2
		c0,0.1,0.1,0.4,0.1,0.6c0,0.6,0,1.4-0.3,2.3c-0.3,0.9-0.8,2-1.4,3c-0.6,1-1.3,2-2.1,3.1c-1.5,2-3.2,3.9-4.6,5.2
		c-0.7,0.7-1.4,1.1-2,1.2C211.8,206.9,211.5,206.8,211.5,206.8z"/>
</g>
<g>
	<path class="st8" d="M183.1,209.3c3.2-0.9,6.4-2,9.4-3.2c1.5-0.6,3-1.3,4.5-2.1c1.5-0.7,3-1.5,4.4-2.4l0.3-0.2l0.1,0.3
		c0.9,1.9,1.7,3.8,2.2,5.9c0.5,2,0.9,4.1,1.2,6.2c0.3,2.1,0.4,4.2,0.5,6.2l0.3,6.2c0.1,2.1,0.2,4.1,0.4,6.2c0.2,2.1,0.6,4.1,1,6.1
		c0.5,2,1.1,4,1.7,5.9c0.7,2,1.4,3.9,2,5.9c0.6,2,1.2,4,1.6,6.1c0.1,0.5,0.2,1,0.3,1.6c0.1,0.5,0.2,1,0.2,1.6c0,0.3,0,0.6-0.1,0.9
		c0,0.2-0.1,0.3-0.2,0.5c0,0.1-0.2,0.3-0.3,0.4c-0.4,0.5-0.9,0.8-1.4,1c-3.8,1.8-7.9,2.9-12.1,3.4c-2.1,0.2-4.2,0.3-6.3,0.2
		c-2.1-0.1-4.2-0.4-6.2-0.9c-2-0.5-4-1.3-5.7-2.5c-1.7-1.2-3.2-2.8-4.1-4.7c1,1.8,2.5,3.3,4.2,4.5c1.7,1.1,3.7,1.8,5.7,2.3
		c2,0.4,4.1,0.6,6.1,0.7c2.1,0.1,4.1,0,6.2-0.3c4.1-0.5,8.1-1.7,11.8-3.5c0.4-0.2,0.8-0.5,1.1-0.8c0.1-0.1,0.1-0.1,0.2-0.3
		c0-0.1,0.1-0.2,0.1-0.3c0.1-0.2,0.1-0.4,0.1-0.7c0-0.5-0.1-1-0.2-1.5c-0.1-0.5-0.2-1-0.3-1.5c-0.4-2-1-4-1.6-5.9
		c-0.6-2-1.4-3.9-2-5.9c-0.7-2-1.3-4-1.8-6c-0.4-2.1-0.8-4.1-1-6.2c-0.2-2.1-0.3-4.2-0.4-6.2c-0.2-4.2-0.2-8.3-0.7-12.4
		c-0.2-2.1-0.5-4.1-1-6.1c-0.5-2-1.2-3.9-2-5.8l0.4,0.1c-2.9,1.6-6,3.1-9.1,4.3C189.5,207.6,186.3,208.6,183.1,209.3z"/>
</g>
<g>
	<path class="st8" d="M39.7,189.2c0,0,0.8,0,2.3,0c0.7,0,1.6,0,2.6,0c1,0,2.2,0.1,3.4,0.2c1.3,0.1,2.6,0.2,4.1,0.5
		c1.4,0.2,2.9,0.5,4.5,0.9c1.5,0.4,3.1,1,4.6,1.6c1.5,0.7,3,1.5,4.4,2.5c0.7,0.5,1.4,1,2,1.6c0.6,0.5,1.2,1.2,1.8,1.8
		c1.1,1.3,2.1,2.6,3,3.9c1.8,2.6,3.1,5.3,4.3,7.5c1.2,2.2,2.1,4.1,2.9,5.3c0.7,1.3,1.2,2,1.2,2s-0.1-0.2-0.4-0.5
		c-0.2-0.3-0.6-0.8-1-1.4c-0.8-1.2-2-3-3.2-5.2c-1.3-2.2-2.7-4.7-4.5-7.3c-0.9-1.3-1.9-2.5-3-3.7c-0.5-0.6-1.1-1.2-1.8-1.7
		c-0.6-0.5-1.3-1-1.9-1.5c-1.3-1-2.8-1.8-4.2-2.5c-1.5-0.6-3-1.2-4.5-1.6c-1.5-0.4-3-0.8-4.4-1c-1.4-0.3-2.7-0.5-4-0.6
		c-2.5-0.3-4.6-0.5-6-0.6C40.6,189.2,39.7,189.2,39.7,189.2z"/>
</g>
<g>
	<path class="st8" d="M34.8,214.6c0,0,0.4,0,1.2-0.1c0.8-0.1,1.8-0.2,3.1-0.2c1.3-0.1,2.8-0.2,4.4-0.2c1.6,0,3.4,0,5.1,0.4
		c1.7,0.4,3.4,1,4.9,1.6c1.5,0.6,2.9,1.3,4,1.9c1.2,0.6,2,1.3,2.6,1.7c0.6,0.5,0.9,0.8,0.9,0.8s-0.3-0.3-1-0.7
		c-0.6-0.4-1.6-0.9-2.8-1.4c-1.2-0.5-2.6-1-4.1-1.6c-1.5-0.6-3.1-1.1-4.7-1.5c-1.6-0.4-3.3-0.5-4.9-0.5c-1.6,0-3.1-0.1-4.4-0.1
		c-1.3,0-2.4-0.1-3.1-0.1C35.2,214.6,34.8,214.6,34.8,214.6z"/>
</g>
<g>
	<path class="st8" d="M39.3,226.4c0,0,0.7-0.2,1.9-0.4c1.2-0.2,2.9-0.5,5-0.6c1-0.1,2.2-0.1,3.4-0.1c1.2,0,2.5,0,3.8,0.1
		c1.3,0.1,2.6,0.2,4,0.5c1.4,0.2,2.7,0.5,4.1,0.8c1.3,0.3,2.7,0.7,4,1.1c1.3,0.4,2.6,0.9,3.8,1.4c2.4,1,4.5,2.2,6.3,3.2
		c1.8,1,3.2,2.1,4.2,2.8c0.5,0.4,0.9,0.7,1.1,0.9c0.3,0.2,0.4,0.3,0.4,0.3s-0.6-0.4-1.6-1c-1-0.6-2.5-1.5-4.3-2.4
		c-1.8-1-4-1.9-6.4-2.9c-1.2-0.5-2.4-0.9-3.7-1.3c-1.3-0.4-2.6-0.8-3.9-1.1c-1.3-0.3-2.7-0.6-4-0.8c-1.3-0.2-2.6-0.4-3.9-0.5
		c-1.3-0.1-2.5-0.2-3.7-0.3c-1.2,0-2.3-0.1-3.3,0c-2.1,0-3.8,0.1-5,0.2C40,226.3,39.3,226.4,39.3,226.4z"/>
</g>
<g>
	<path class="st8" d="M33.9,242.5c0,0,0.5,0.2,1.4,0.6c0.9,0.4,2.2,1,3.7,1.8c1.5,0.8,3.3,1.6,5.2,2.6c1.9,0.9,3.9,1.8,6,2.5
		c1,0.4,2.1,0.6,3.2,0.9c1.1,0.2,2.1,0.4,3.2,0.5c2.1,0.2,4,0.3,5.7,0.2c1.7-0.1,3.1-0.3,4-0.5c1-0.2,1.5-0.3,1.5-0.3
		s-0.1,0-0.4,0.1c-0.3,0.1-0.6,0.2-1.1,0.3c-1,0.3-2.3,0.6-4,0.8c-1.7,0.2-3.7,0.3-5.8,0.1c-1.1-0.1-2.2-0.2-3.3-0.5
		c-1.1-0.2-2.2-0.5-3.3-0.9c-2.2-0.7-4.3-1.7-6.1-2.6c-1.9-1-3.6-2-5-2.9c-1.5-0.9-2.7-1.6-3.5-2.1
		C34.3,242.8,33.9,242.5,33.9,242.5z"/>
</g>
<g>
	<path class="st8" d="M37.1,262c0,0,0.5,0.9,1.4,2.3c0.9,1.5,2.4,3.5,4.2,5.8c1.9,2.3,4.3,4.8,7.1,7.2c1.4,1.2,2.9,2.5,4.3,3.8
		c1.4,1.3,2.9,2.8,4.1,4.4c2.4,3.3,4.1,6.9,5.7,10.3c0.8,1.7,1.6,3.3,2.4,4.8c0.8,1.5,1.6,2.9,2.4,4.1c0.8,1.2,1.6,2.3,2.4,3.2
		c0.8,0.9,1.6,1.6,2.2,2.2c0.7,0.6,1.2,1,1.6,1.2c0.4,0.3,0.6,0.4,0.6,0.4s-0.2-0.1-0.6-0.4c-0.4-0.2-1-0.6-1.7-1.1
		c-1.4-1-3.2-2.8-5-5.3c-1.8-2.4-3.5-5.5-5.1-8.9c-1.6-3.3-3.4-6.9-5.7-10.1c-1.2-1.6-2.5-3-3.9-4.4c-1.4-1.3-2.9-2.6-4.3-3.8
		c-2.8-2.5-5.1-5.1-7-7.5c-1.8-2.4-3.1-4.5-4-6.1c-0.4-0.8-0.7-1.4-0.9-1.8C37.2,262.3,37.1,262,37.1,262z"/>
</g>
<g>
	<path class="st8" d="M70.5,286.2c0,0,0.3,0,0.8-0.1c0.5,0,1.3-0.1,2.2-0.2c1.8-0.1,4.2-0.2,6.5-0.2c1.2,0,2.4,0,3.5,0.1
		c1.1,0,2.2,0.2,3.1,0.4c0.9,0.3,1.5,0.7,2,1c0.4,0.3,0.6,0.5,0.6,0.5s-0.3-0.1-0.7-0.3c-0.5-0.2-1.2-0.4-2-0.6
		c-0.9-0.1-1.9-0.1-3-0.1c-1.1,0-2.3,0-3.5,0c-2.4,0-4.8-0.1-6.5-0.2c-0.9-0.1-1.6-0.2-2.2-0.2C70.8,286.3,70.5,286.2,70.5,286.2z"
		/>
</g>
<g>
	<path class="st8" d="M91.8,300.5c0,0,0-0.2,0.1-0.6c0.1-0.4,0.2-0.9,0.5-1.5c0.3-0.6,0.7-1.2,1.3-1.8c0.6-0.6,1.3-1.1,2-1.6
		c0.4-0.2,0.8-0.4,1.1-0.6c0.4-0.2,0.8-0.3,1.2-0.4c0.8-0.2,1.5-0.4,2.1-0.5c1.2-0.2,2.1-0.2,2.1-0.2s-0.8,0.4-1.9,0.8
		c-0.6,0.2-1.2,0.5-1.9,0.8c-0.4,0.1-0.7,0.3-1.1,0.5c-0.4,0.2-0.7,0.3-1.1,0.6c-0.7,0.4-1.3,0.9-1.9,1.3c-0.6,0.5-1,1-1.4,1.5
		c-0.4,0.5-0.6,0.9-0.8,1.2C91.9,300.3,91.8,300.5,91.8,300.5z"/>
</g>
<g>
	<path class="st8" d="M122.5,300.3c0,0,0.2,0,0.5-0.1c0.3-0.1,0.7-0.4,1.1-0.8c0.4-0.4,0.7-1,1.1-1.7c0.4-0.6,0.8-1.3,1.3-2
		c0.9-1.3,1.8-2.7,2.5-3.7c0.7-1,1.2-1.6,1.2-1.6s-0.2,0.8-0.7,1.9c-0.5,1.1-1.2,2.6-2.1,3.9c-0.5,0.7-0.9,1.3-1.4,1.9
		c-0.5,0.6-0.9,1.2-1.4,1.6c-0.5,0.4-1,0.6-1.4,0.6C122.7,300.4,122.5,300.3,122.5,300.3z"/>
</g>
<g>
	<path class="st8" d="M162.6,320.4c0,0,0.4-0.4,1-1c0.3-0.3,0.7-0.7,1.1-1.2c0.4-0.5,0.9-1,1.4-1.7c0.5-0.6,1-1.3,1.5-2.1
		c0.5-0.8,1-1.6,1.4-2.4c0.2-0.4,0.4-0.9,0.7-1.3c0.2-0.5,0.4-0.9,0.6-1.4c0.2-0.5,0.4-1,0.6-1.4l0.5-1.5c0.3-1,0.6-2,0.8-3
		c0.2-1,0.4-2,0.5-3c0.1-1,0.2-1.9,0.2-2.8c0-0.9-0.1-1.7-0.3-2.5c-0.4-1.5-1.1-2.6-1.8-3.2c-0.3-0.3-0.6-0.5-0.9-0.6
		c-0.2-0.1-0.3-0.2-0.3-0.2s0.1,0,0.4,0.1c0.2,0.1,0.6,0.2,1,0.5c0.7,0.5,1.7,1.6,2.2,3.2c0.2,0.8,0.4,1.7,0.5,2.6
		c0.1,0.9,0,1.9,0,2.9c-0.1,1-0.2,2-0.4,3.1c-0.2,1-0.5,2.1-0.8,3.1l-0.5,1.5c-0.2,0.5-0.4,1-0.6,1.5c-0.2,0.5-0.5,0.9-0.7,1.4
		c-0.2,0.5-0.5,0.9-0.7,1.3c-0.3,0.4-0.5,0.8-0.8,1.3c-0.3,0.4-0.6,0.8-0.8,1.2c-0.6,0.7-1.1,1.4-1.6,2c-0.5,0.6-1.1,1.1-1.5,1.6
		c-0.5,0.4-0.9,0.8-1.3,1.1C163,320.1,162.6,320.4,162.6,320.4z"/>
</g>
<g>
	<path class="st8" d="M139.3,312.2c0,0,0.1-0.4,0.4-1c0.3-0.6,0.9-1.5,1.6-2.4c0.7-1,1.5-2.1,2.2-3.4c0.8-1.3,1.5-2.6,2.2-4.1
		c0.3-0.7,0.6-1.4,0.9-2.2c0.2-0.7,0.5-1.5,0.6-2.2c0.2-0.7,0.3-1.4,0.4-2.1c0.1-0.7,0-1.3,0-1.9c-0.1-1.1-0.5-2.1-0.9-2.6
		c-0.2-0.3-0.4-0.5-0.5-0.6c-0.1-0.1-0.2-0.2-0.2-0.2s0.1,0.1,0.2,0.2c0.2,0.1,0.4,0.3,0.6,0.5c0.5,0.5,1.1,1.4,1.3,2.6
		c0.1,0.6,0.2,1.3,0.2,2c0,0.7-0.1,1.5-0.2,2.2c-0.3,1.5-0.8,3.1-1.4,4.6c-0.3,0.7-0.7,1.5-1.1,2.2c-0.4,0.7-0.8,1.4-1.2,2
		c-0.8,1.3-1.8,2.3-2.5,3.3c-0.8,0.9-1.5,1.6-1.9,2.2C139.5,311.8,139.3,312.2,139.3,312.2z"/>
</g>
<g>
	<path class="st8" d="M106.8,234.8c0,0,0,0.2,0.1,0.5c0.1,0.3,0.2,0.7,0.5,1.3c0.5,1.1,1.4,2.4,2.8,3.9c0.7,0.8,1.4,1.6,2.2,2.4
		c0.4,0.4,0.8,0.9,1.1,1.4c0.4,0.5,0.7,1,1.1,1.5c0.7,1,1.5,2.1,2.1,3.3c0.7,1.2,1.3,2.4,1.9,3.6c0.6,1.2,1.1,2.5,1.5,3.8
		c0.2,0.6,0.4,1.3,0.6,1.9c0.2,0.6,0.4,1.3,0.5,1.9c0.3,1.2,0.5,2.4,0.7,3.6c0.1,0.6,0.2,1.1,0.2,1.7c0,0.5,0.1,1.1,0.1,1.6
		c0.2,2,0.1,3.7,0,4.9c-0.1,1.2-0.2,1.8-0.2,1.8s0-0.7,0-1.8c0-0.6-0.1-1.3-0.1-2.1c-0.1-0.8-0.2-1.7-0.3-2.7
		c-0.1-0.5-0.1-1-0.2-1.5c-0.1-0.5-0.2-1.1-0.3-1.6c-0.2-1.1-0.5-2.3-0.8-3.5c-0.2-0.6-0.3-1.2-0.5-1.8c-0.2-0.6-0.4-1.2-0.6-1.8
		c-0.4-1.2-0.9-2.5-1.5-3.7c-1.1-2.4-2.4-4.7-3.8-6.8c-0.4-0.5-0.7-1-1-1.5c-0.4-0.5-0.7-1-1.1-1.4c-0.7-0.9-1.4-1.7-2-2.5
		c-1.3-1.6-2.1-3.1-2.5-4.2c-0.2-0.6-0.3-1-0.4-1.3C106.9,234.9,106.8,234.8,106.8,234.8z"/>
</g>
<g>
	<path class="st8" d="M67,376.1l17,1.2l8.5,0.6c2.8,0.2,5.7,0.4,8.5,0.5c5.7,0.2,11.3,0.2,17-0.3c1.4-0.1,2.8-0.3,4.2-0.5
		c1.4-0.2,2.8-0.5,4.1-0.8c0.7-0.1,1.4-0.3,2-0.5c0.7-0.2,1.4-0.4,2-0.6c1.3-0.4,2.7-0.9,4-1.5l0.4-0.2l0.2,0.4
		c1,1.8,1.9,3.6,2.7,5.6c0.7,1.9,1.4,3.9,1.9,5.9c1.1,4,1.7,8,2.1,12.1c0.5,4.1,0.7,8.1,1,12.2c0.3,4.1,0.6,8.1,0.7,12.2
		c0.2,4.1,0.2,8.2,0,12.2c-0.2,4.1-0.6,8.2-1.9,12.1c-0.6,1.9-1.5,3.8-2.6,5.6c-1.1,1.7-2.4,3.3-3.9,4.7c-2.9,2.9-6.2,5.3-9.5,7.6
		c3.3-2.4,6.5-4.9,9.3-7.8c1.4-1.5,2.7-3.1,3.7-4.8c1.1-1.7,1.9-3.6,2.5-5.5c1.2-3.9,1.6-7.9,1.7-12c0.1-4.1,0-8.1-0.2-12.2
		c-0.2-4.1-0.5-8.1-0.8-12.2c-0.3-4.1-0.6-8.1-1.1-12.1c-0.2-2-0.5-4-0.9-6c-0.3-2-0.8-4-1.3-5.9c-0.5-2-1.1-3.9-1.8-5.8
		c-0.7-1.9-1.6-3.7-2.6-5.4l0.6,0.2c-1.3,0.5-2.7,1.1-4,1.5c-0.7,0.2-1.4,0.4-2.1,0.6c-0.7,0.2-1.4,0.4-2.1,0.5
		c-1.4,0.3-2.8,0.6-4.2,0.8c-1.4,0.2-2.8,0.4-4.3,0.5c-1.4,0.1-2.8,0.2-4.3,0.3c-1.4,0.1-2.9,0.1-4.3,0.1c-2.9,0-5.7-0.1-8.5-0.3
		c-2.8-0.2-5.7-0.4-8.5-0.6l-8.5-0.8L67,376.1z"/>
</g>
<g>
	<path class="st8" d="M71.7,374.5c0,0,0.1,0,0.3-0.2c0.2-0.1,0.4-0.4,0.6-0.8c0.2-0.4,0.4-0.9,0.6-1.5c0.2-0.6,0.5-1.2,0.8-2
		c0.6-1.4,1.1-3.1,1.7-5c0.3-0.9,0.5-1.9,0.8-2.8c0.2-1,0.5-2,0.7-3c0.2-1,0.4-2,0.6-3c0.1-1,0.3-2,0.4-2.9c0.2-1.9,0.4-3.7,0.5-5.2
		c0.1-1.5,0.1-2.8,0.1-3.7c0-0.9,0-1.4,0-1.4s0.1,0.5,0.2,1.4c0.1,0.4,0.1,1,0.1,1.6c0.1,0.6,0.1,1.3,0.1,2.1c0,0.8,0,1.6,0,2.5
		c0,0.9-0.1,1.8-0.2,2.8c-0.2,1.9-0.5,4-0.9,6c-0.4,2-1,4-1.6,5.9c-0.3,0.9-0.7,1.8-1,2.6c-0.4,0.8-0.7,1.6-1,2.3
		c-0.3,0.7-0.6,1.3-1,1.9c-0.3,0.5-0.5,1-0.8,1.4c-0.3,0.4-0.5,0.6-0.7,0.8C71.8,374.4,71.7,374.5,71.7,374.5z"/>
</g>
<g>
	<path class="st9" d="M213.4,360.3c6.3-0.3,12.4-3.4,16.5-8.2c2.8,3.7,5.6,7.5,7,11.8c1,3.1,1.3,6.4,1.7,9.7
		c1.7,14.9,5,29.5,10,43.7c1.4,4,2.9,8,3.6,12.3c1.2,7.7-0.7,15.5-3,23c-1.2,3.9-2.8,8.2-6.5,9.9c-3.9,1.9-8.8,0.1-11.7-3.2
		s-4.1-7.6-5-11.8c-1.4-6.7-2.1-13.6-2.1-20.5c0-3.5,0.2-7-0.2-10.5c-0.6-5.2-2.4-10.1-3.8-15.1c-4-13.5-6-27.6-5.9-41.7"/>
	<path class="st4" d="M213.4,360.3l1.2-0.1l1.2-0.2c0.8-0.1,1.5-0.3,2.3-0.5c0.8-0.2,1.5-0.5,2.2-0.7c0.7-0.3,1.4-0.6,2.2-1
		c0.7-0.4,1.4-0.8,2-1.2c0.7-0.4,1.3-0.9,1.9-1.4c0.6-0.5,1.2-1,1.8-1.6l0.8-0.8l0.8-0.9l0.1-0.1l0.1,0.1c2.9,3.8,5.9,7.8,7.3,12.5
		c0.7,2.3,1,4.8,1.3,7.2c0.3,2.4,0.6,4.8,0.9,7.2c1.4,9.6,3.4,19,6.2,28.3c1.4,4.6,2.9,9.2,4.5,13.7c0.8,2.3,1.5,4.6,2,7
		c0.3,1.2,0.4,2.4,0.5,3.6c0.1,1.2,0.1,2.4,0.1,3.7c-0.1,4.9-1.1,9.7-2.4,14.4c-0.7,2.3-1.3,4.7-2.2,7c-1,2.2-2.3,4.5-4.5,5.9
		c-0.5,0.4-1.1,0.6-1.7,0.9c-0.6,0.2-1.3,0.4-1.9,0.4c-1.3,0.1-2.6,0-3.8-0.4c-2.4-0.7-4.6-2.2-6.1-4.1c-1.6-1.9-2.6-4.2-3.4-6.5
		c-0.8-2.3-1.2-4.7-1.7-7.1c-0.9-4.8-1.4-9.6-1.6-14.4c-0.3-4.8,0.2-9.7-0.3-14.5c-0.5-4.8-2-9.4-3.5-14c-1.4-4.6-2.6-9.3-3.5-14.1
		c-1.8-9.5-2.6-19.2-2.4-28.9c0,9.7,0.9,19.3,2.9,28.8c1,4.7,2.2,9.4,3.6,14c1.4,4.6,3,9.2,3.5,14.1c0.5,4.9,0.1,9.7,0.4,14.5
		c0.2,4.8,0.8,9.6,1.7,14.3c0.5,2.4,0.9,4.7,1.7,7c0.7,2.3,1.8,4.4,3.3,6.2c1.5,1.8,3.5,3.2,5.7,3.8c1.1,0.3,2.3,0.4,3.4,0.3
		c0.6-0.1,1.1-0.2,1.6-0.4c0.6-0.2,1-0.5,1.5-0.8c1.9-1.3,3.2-3.3,4.1-5.5c0.9-2.2,1.6-4.5,2.2-6.8c1.3-4.6,2.3-9.4,2.4-14.1
		c0-1.2,0-2.4-0.1-3.6c0-0.6-0.1-1.2-0.2-1.8c-0.1-0.6-0.2-1.2-0.3-1.8c-0.5-2.3-1.2-4.6-2-6.9c-1.6-4.5-3.2-9.2-4.5-13.8
		c-2.7-9.3-4.7-18.8-6-28.4c-0.3-2.4-0.6-4.8-0.9-7.2c-0.3-2.4-0.6-4.8-1.3-7.1c-1.3-4.6-4.2-8.6-7.1-12.5l0.2,0l-0.8,0.9l-0.8,0.8
		c-0.6,0.5-1.2,1.1-1.8,1.5c-0.6,0.5-1.3,0.9-2,1.3c-0.7,0.4-1.4,0.8-2.1,1.1c-0.7,0.3-1.4,0.7-2.2,0.9c-0.7,0.3-1.5,0.5-2.3,0.7
		c-0.8,0.2-1.5,0.4-2.3,0.5l-1.2,0.1L213.4,360.3z"/>
</g>
<g>
	<path class="st8" d="M235.5,391.7c0,0-0.1,0.6-0.3,1.8c-0.2,1.1-0.4,2.7-0.8,4.6c-0.4,1.9-0.8,4.1-1.2,6.5c-0.4,2.4-0.8,4.9-1,7.5
		c-0.1,1.3-0.2,2.5-0.2,3.8c0,1.3,0,2.5,0.1,3.7c0.2,2.4,0.5,4.6,1,6.4c0.5,1.9,1,3.4,1.4,4.4c0.4,1,0.7,1.6,0.7,1.6
		s-0.3-0.5-0.9-1.6c-0.5-1-1.2-2.5-1.8-4.3c-0.6-1.9-1.1-4.1-1.4-6.5c-0.1-1.2-0.2-2.5-0.2-3.8c0-1.3,0.1-2.6,0.2-3.9
		c0.1-1.3,0.3-2.6,0.5-3.8c0.2-1.3,0.4-2.5,0.7-3.7c0.5-2.4,1-4.6,1.5-6.4c0.4-1.9,0.9-3.4,1.2-4.5
		C235.4,392.4,235.5,391.7,235.5,391.7z"/>
</g>
<g>
	<path class="st4" d="M221,349c0,0-0.9,0.7-2.4,1.8c-1.6,1.1-3.8,2.7-6.5,4.5c-1.4,0.9-2.9,1.8-4.5,2.8c-1.6,0.9-3.4,1.9-5.2,2.8
		c-1.8,0.9-3.7,1.9-5.7,2.7c-2,0.9-4,1.7-6,2.5c-4.1,1.6-8.3,3-12.2,4c-1,0.2-1.9,0.5-3,0.7c-0.5,0.1-1,0.1-1.6,0.1
		c-0.5,0-1.1-0.2-1.5-0.5c-0.9-0.6-1.5-1.3-2.1-1.9c-0.6-0.6-1.2-1.3-1.8-1.9c-4.5-4.8-7.4-8.1-7.4-8.1l0.1-0.1c0,0,3.2,3,7.9,7.6
		c0.6,0.6,1.2,1.2,1.8,1.8c0.6,0.6,1.2,1.3,2,1.7c1.4,0.9,3.4,0,5.4-0.5c4-1,8.1-2.3,12.2-3.8c2-0.8,4.1-1.6,6-2.4
		c2-0.9,3.9-1.7,5.7-2.6c1.8-0.9,3.6-1.8,5.2-2.7c1.6-0.9,3.2-1.8,4.6-2.6c2.8-1.7,5.1-3.2,6.6-4.3C220.1,349.6,221,348.9,221,349
		L221,349z"/>
</g>
<g>
	<path class="st4" d="M171.4,348l2.7,5c0.9,1.7,1.6,3.5,2.1,5.3c1,3.7,1.4,7.5,0.7,11.3l0,0.2l-0.2,0.1c-0.8,0.5-1.8,0.8-2.7,0.8
		c-1,0-1.9-0.2-2.7-0.6c-0.4-0.2-0.8-0.4-1.2-0.7c-0.4-0.3-0.7-0.5-1.1-0.8c-0.7-0.6-1.3-1.2-1.9-1.9c-1.2-1.3-2.3-2.7-3.3-4.1
		c-1-1.4-2-2.9-2.8-4.5l0.1-0.1c1,1.4,2.1,2.8,3.2,4.1c1.1,1.3,2.3,2.6,3.5,3.9c0.6,0.6,1.2,1.2,1.8,1.8c0.3,0.3,0.7,0.5,1,0.8
		c0.4,0.2,0.7,0.4,1.1,0.6c1.4,0.7,3.2,0.9,4.6,0l-0.2,0.3c0.4-1.8,0.5-3.7,0.4-5.5c-0.1-1.9-0.4-3.7-0.8-5.5
		c-0.4-1.8-1.1-3.6-1.9-5.3L171.4,348L171.4,348z"/>
</g>
<path class="st11" d="M178.3,435.7c4.4,0,8.9,0,13.3-0.1c0.1-4.6-0.9-9.1-2.9-13.2c-2.8,0-5.5,0-8.3,0c-0.1,4-0.7,8-1.8,11.8"/>
<g>
	<path class="st12" d="M184.9,444.4c0,0,0.1,0.7,0.2,1.9c0.1,0.6,0.1,1.3,0.2,2.2c0.1,0.8,0.1,1.8,0.1,2.8c0,1,0,2.2,0,3.4
		c0,1.2-0.1,2.4-0.2,3.7c-0.2,1.3-0.3,2.6-0.5,4c-0.2,1.4-0.5,2.7-0.8,4.1c-0.3,1.3-0.6,2.7-1.1,4c-0.4,1.3-0.8,2.6-1.3,3.8
		c-0.5,1.2-1,2.4-1.5,3.5c-0.5,1.1-1,2.1-1.6,3c-0.5,0.9-1,1.7-1.5,2.4c-0.5,0.7-0.9,1.3-1.2,1.8c-0.7,1-1.1,1.5-1.1,1.5l-0.1-0.1
		c0,0,0.3-0.6,0.9-1.7c0.3-0.5,0.7-1.2,1-1.9c0.2-0.4,0.4-0.8,0.6-1.2c0.2-0.4,0.4-0.9,0.6-1.3c0.5-0.9,0.9-1.9,1.4-3
		c0.5-1.1,0.9-2.2,1.4-3.4c0.4-1.2,0.9-2.4,1.4-3.7c0.5-1.3,0.8-2.6,1.2-3.9c0.3-1.3,0.7-2.7,0.9-4c0.3-1.3,0.4-2.7,0.6-3.9
		c0.1-1.3,0.3-2.5,0.3-3.7c0.1-1.2,0.1-2.3,0.1-3.3c0-1,0-2,0-2.8c0-0.8-0.1-1.6-0.1-2.2C184.8,445.1,184.8,444.4,184.9,444.4
		L184.9,444.4z"/>
</g>
<g>
	<path class="st12" d="M163.9,502.3c0,0,0.2-0.4,0.6-1c0.2-0.3,0.4-0.8,0.6-1.2c0.1-0.2,0.2-0.5,0.3-0.8c0.1-0.3,0.2-0.6,0.3-0.9
		c0.2-0.6,0.4-1.3,0.6-2c0.2-0.7,0.3-1.5,0.4-2.3c0.1-0.8,0.2-1.7,0.2-2.5c0.1-0.9,0.1-1.7,0.1-2.6c0-1.8,0-3.5,0-5.2
		c0-0.8,0-1.6,0.1-2.4c0.1-0.8,0.1-1.5,0.2-2.1c0.1-0.7,0.2-1.3,0.3-1.8c0.1-0.5,0.2-1,0.3-1.4c0.2-0.8,0.4-1.2,0.4-1.2l0.1,0
		c0,0,0,0.4-0.1,1.2c-0.1,0.8-0.2,1.9-0.2,3.2c-0.1,1.3-0.1,2.9-0.1,4.5c-0.1,1.7-0.1,3.4-0.3,5.2c-0.1,0.9-0.1,1.8-0.2,2.6
		c-0.1,0.9-0.2,1.7-0.3,2.6c-0.1,0.8-0.3,1.6-0.5,2.4c-0.2,0.7-0.4,1.4-0.7,2c-0.1,0.3-0.2,0.6-0.4,0.9c-0.1,0.3-0.3,0.5-0.4,0.8
		c-0.2,0.5-0.5,0.9-0.7,1.2C164.2,501.9,164,502.3,163.9,502.3L163.9,502.3z"/>
</g>
<g>
	<path class="st12" d="M152.3,484.1c0,0-0.6,0.1-1.8,0.2c-0.6,0-1.3,0.1-2,0.3c-0.8,0.1-1.7,0.2-2.6,0.4c-1,0.2-2,0.4-3.1,0.7
		c-1.1,0.2-2.2,0.6-3.4,0.9c-1.2,0.4-2.4,0.7-3.5,1.2c-1.2,0.4-2.4,0.9-3.6,1.4c-1.2,0.6-2.3,1.1-3.5,1.7c-1.1,0.6-2.2,1.2-3.3,1.8
		c-1,0.6-2,1.2-3,1.8c-0.9,0.6-1.8,1.2-2.6,1.7c-0.8,0.5-1.5,1.1-2.2,1.5c-0.6,0.5-1.2,0.9-1.6,1.2c-0.9,0.7-1.4,1.1-1.4,1.1
		l-0.1-0.1c0,0,0.4-0.5,1.3-1.3c0.4-0.4,0.9-0.9,1.5-1.4c0.6-0.5,1.3-1.1,2-1.7c0.8-0.6,1.6-1.2,2.5-1.9c0.9-0.7,1.9-1.3,3-1.9
		c1.1-0.6,2.2-1.2,3.4-1.8c1.2-0.6,2.4-1.1,3.6-1.6c1.2-0.5,2.4-1,3.7-1.4c1.2-0.4,2.4-0.8,3.6-1.1c1.2-0.3,2.3-0.6,3.4-0.8
		c1.1-0.2,2.1-0.4,3.1-0.5c1-0.2,1.9-0.3,2.7-0.3c0.8-0.1,1.5-0.2,2-0.2C151.7,484,152.3,484,152.3,484.1L152.3,484.1z"/>
</g>
<path class="st10" d="M191,483c3.9-0.6,6.5,3.7,9.1,6.7c4.1,4.8,10.7,7.3,16.9,6.5"/>
<g>
	<path class="st12" d="M136.3,475.4c0,0-0.2,0-0.6,0.1c-0.4,0.1-1,0.2-1.7,0.4c-0.7,0.2-1.6,0.4-2.6,0.8c-1,0.4-2.1,0.8-3.3,1.4
		c-2.4,1.1-5,2.7-7.8,4.4c-1.4,0.9-2.9,1.7-4.4,2.6c-1.5,0.8-3.1,1.7-4.7,2.4c-3.2,1.5-6.5,2.8-9.7,3.7c-1.6,0.5-3.2,0.9-4.6,1.2
		c-1.5,0.3-2.9,0.5-4.2,0.7c-1.3,0.2-2.5,0.3-3.6,0.4c-1.1,0.1-2,0.1-2.8,0.1c-1.5,0-2.4,0-2.4,0l0-0.1c0,0,0.9-0.1,2.4-0.3
		c0.8-0.1,1.7-0.2,2.7-0.4c1.1-0.1,2.2-0.4,3.5-0.6c1.3-0.2,2.7-0.5,4.1-0.9c1.5-0.4,3-0.7,4.6-1.2c3.2-0.9,6.5-2,9.7-3.5
		c1.6-0.7,3.2-1.5,4.7-2.3c1.5-0.8,3-1.7,4.4-2.5c2.9-1.7,5.6-3.2,8-4.2c1.2-0.5,2.3-1,3.4-1.3c1-0.3,1.9-0.6,2.7-0.7
		c0.8-0.2,1.4-0.3,1.8-0.3C136.1,475.4,136.3,475.3,136.3,475.4L136.3,475.4z"/>
</g>
<g>
	<path class="st6" d="M83.6,140.1c-2.4,2-3.4,5.5-2.6,8.5c0.6,2,1.8,3.6,3,5.3c1.2,1.6,2.3,3.1,3.5,4.7c0.9,1.1,1.7,2.3,2.6,3.4
		c3,4,6.2,7.8,9.6,11.6c0.3-2,0.6-4,0.9-5.9c0.1-0.4,0.1-0.9,0.4-1.2c0.4-0.6,1.2-0.9,1.9-1c1.9-0.2,3.8,0.6,5,2
		c0.3-1.6-1.2-2.9-2.6-3.7c-7.8-4.8-16.2-9.7-21.1-17.5c-0.4-0.7-0.8-1.4-1-2.2c-0.2-1.3,0.2-2.5,0.7-3.7"/>
	<path class="st4" d="M83.6,140.1c-1.3,1.1-2.1,2.6-2.5,4.3c-0.4,1.6-0.3,3.4,0.3,4.9c0.6,1.6,1.6,2.9,2.6,4.3l3.1,4
		c2.1,2.7,4.1,5.4,6.2,8c2.1,2.6,4.3,5.2,6.6,7.7l-0.6,0.2l0.5-3.7l0.3-1.9c0-0.3,0.1-0.6,0.2-1c0-0.2,0.1-0.3,0.2-0.5
		c0-0.1,0.1-0.2,0.1-0.3c0-0.1,0.1-0.1,0.2-0.2c0.5-0.6,1.3-0.8,1.9-0.9c0.3,0,0.7-0.1,1,0c0.3,0,0.7,0.1,1,0.1c1.3,0.3,2.6,1,3.5,2
		l-0.8,0.2c0.1-0.6-0.1-1.2-0.6-1.8c-0.5-0.5-1.1-1-1.8-1.4c-1.4-0.8-2.8-1.7-4.1-2.5c-1.4-0.9-2.7-1.7-4.1-2.6
		c-1.3-0.9-2.6-1.9-3.9-2.9c-1.3-1-2.5-2.1-3.7-3.2c-0.6-0.6-1.2-1.2-1.7-1.8c-0.6-0.6-1-1.2-1.6-1.9c-0.5-0.7-1-1.3-1.4-2
		c-0.4-0.7-0.9-1.4-1.2-2.1c-0.3-0.8-0.4-1.7-0.2-2.5c0.2-0.8,0.5-1.6,0.8-2.3l0.1,0c-0.3,0.8-0.5,1.5-0.6,2.3
		c-0.1,0.8,0,1.6,0.3,2.3c0.3,0.7,0.8,1.4,1.3,2c0.4,0.7,1,1.3,1.5,1.9c0.5,0.6,1,1.2,1.6,1.8c0.5,0.6,1.1,1.1,1.7,1.7
		c1.2,1.1,2.4,2.1,3.7,3.1c2.6,1.9,5.3,3.7,8,5.4l4.1,2.5c0.7,0.4,1.4,0.9,2,1.6c0.6,0.6,1.1,1.6,0.8,2.6l-0.2,0.9l-0.6-0.7
		c-0.7-0.9-1.8-1.5-2.9-1.7c-0.3-0.1-0.6-0.1-0.9-0.1c-0.3,0-0.6,0-0.9,0c-0.6,0.1-1.1,0.3-1.4,0.6c-0.2,0.2-0.2,0.4-0.3,0.7
		c-0.1,0.3-0.1,0.6-0.2,0.9l-0.3,1.9l-0.6,3.7l-0.1,0.8l-0.5-0.6c-2.2-2.6-4.4-5.2-6.5-7.8c-2.1-2.6-4.1-5.4-6.1-8.1l-3-4.1
		c-1-1.4-2-2.8-2.6-4.4c-0.6-1.6-0.7-3.4-0.2-5.1C81.3,142.7,82.2,141.2,83.6,140.1L83.6,140.1z"/>
</g>
<g>
	<path class="st6" d="M108.6,166.5c4.6,4,6.8,10.6,5.5,16.5c1.6-0.1,3.2-0.1,4.7,0.5c1.1,0.4,2,1.1,2.9,1.9c2.1,1.7,4.2,3.3,6.3,5
		c1.4,1.1,2.9,2.3,4.2,3.5c2.9,2.7,5.3,5.8,7.1,9.3c0-5.1,0-10.2,0-15.2c0-1.3,0-2.6,0.4-3.8c0.8-2.7,3.2-4.9,3.4-7.7
		c0.1-0.7,0-1.4,0.4-2c0.8-1,2.4-0.5,3.5,0.2c1.9,1.1,3.7,2.1,5.6,3.2c0.5,0.3,1,0.6,1.4,1.1c0.6,0.8,0.7,1.8,0.7,2.8
		c0,1.4,0,2.9-0.6,4.1c-0.4,0.9-1.1,1.6-1.5,2.4c-1.3,2.8,0.6,5.9,1.3,8.9c0.5,1.8,0.5,3.6,0.9,5.4c0.4,2.1,1.1,4.1,1.8,6
		c3.7,10.7,6.3,21.9,7.8,33.1c0.8,6.2,0.5,12.5,0.3,18.7c-0.2,6.2-1.2,12.6-4.3,18c-2.9-2.9-5.5-6.2-7.6-9.6c-1-1.7-2-3.4-2.7-5.2
		c-0.5-1.2-0.9-2.5-1.4-3.8c-0.9-2.3-2.3-4.4-3.6-6.5c-5.5-8.7-11.3-17.2-17.3-25.5c-0.7-1-1.5-2-2-3.1c-0.5-1.1-0.8-2.2-1.1-3.3
		c-1.7-5.7-5-10.9-6.4-16.7c-0.9-3.7-1.3-8-4.1-10.6c-1.6-1.5-2.9-3.1-4-5c-0.8-1.3-1.2-2.8-1.8-4.2c-1.3-3-3.2-5.7-5.7-7.7
		c-0.9-0.7-1.8-1.4-2.5-2.3c-0.9-1.2-1.3-2.8-1.4-4.4c-0.1-1.5,0-3.2,0.9-4.4c1-1.4,2.7-2,4.3-2s3.2,0.8,4.5,1.8"/>
	<path class="st4" d="M108.7,166.5l0.8,0.8l0.8,0.8l0.7,0.9l0.7,0.9l0.6,1l0.5,1l0.5,1l0.4,1.1l0.3,1.1l0.3,1.1l0.2,1.1l0.1,1.1
		l0,1.1l0,1.1l-0.1,1.1l-0.2,1.1l-0.1-0.1c1.4,0,2.8-0.1,4.2,0.3c1.4,0.4,2.5,1.3,3.6,2.2l3.3,2.6l1.6,1.3c0.5,0.4,1.1,0.9,1.6,1.3
		l3.2,2.7c1.1,0.9,2.1,1.9,3,2.9c1.9,2.1,3.5,4.4,4.8,6.9l-0.3,0.1l0-9l0-4.5c0-1.5-0.1-3,0.2-4.5c0.4-3.2,3-5.3,3.6-8.2
		c0.2-0.7,0-1.5,0.3-2.3c0.1-0.2,0.2-0.4,0.4-0.5c0.2-0.2,0.4-0.3,0.6-0.3c0.4-0.1,0.8-0.1,1.2,0c0.8,0.1,1.5,0.5,2.1,0.9l2,1.1
		c1.3,0.7,2.6,1.4,3.9,2.2c0.7,0.4,1.2,1.1,1.4,1.9c0.2,0.8,0.2,1.6,0.2,2.3c0,1.5-0.2,3.2-1.1,4.5c-0.4,0.6-0.9,1.2-1.1,1.9
		c-0.3,0.7-0.4,1.4-0.3,2.1c0.1,1.4,0.6,2.9,1.1,4.3c0.5,1.4,0.9,2.9,1.1,4.4c0.2,1.5,0.3,3,0.7,4.4c0.4,1.4,0.9,2.8,1.4,4.3
		c2,5.7,3.7,11.5,5,17.3c0.7,2.9,1.3,5.9,1.8,8.8c0.5,3,1,5.9,1.3,8.9c0.6,6,0.3,12.1,0.1,18.1c-0.1,3-0.4,6-1.1,9
		c-0.7,3-1.7,5.9-3.2,8.5l-0.3,0.5l-0.4-0.4c-2.1-2.1-4-4.3-5.7-6.7c-1.7-2.4-3.3-4.9-4.5-7.6c-0.6-1.4-1.1-2.7-1.6-4.1
		c-0.5-1.3-1.2-2.6-1.9-3.9c-1.5-2.5-3.1-5-4.6-7.4c-3.2-4.9-6.5-9.7-9.8-14.5l-5.1-7.1c-0.9-1.2-1.7-2.6-2-4
		c-0.4-1.4-0.8-2.8-1.3-4.2c-1-2.7-2.3-5.4-3.4-8.1c-1.2-2.7-2.1-5.5-2.7-8.4c-0.3-1.4-0.6-2.9-1-4.2c-0.5-1.4-1.1-2.7-2-3.7
		c-2.1-2-4.1-4.3-5.3-7.1c-0.6-1.4-1-2.8-1.7-4c-0.7-1.3-1.4-2.5-2.4-3.6c-0.9-1.1-2-2.1-3.1-3c-0.6-0.5-1.1-0.9-1.7-1.5
		c-0.5-0.6-0.9-1.2-1.2-1.9c-0.5-1.4-0.6-2.9-0.6-4.4c0.1-1.5,0.6-3,1.8-4c1.2-0.9,2.8-1.3,4.2-1.1c1.5,0.2,2.8,0.9,4,1.8l-0.1,0.1
		c-1.1-0.9-2.5-1.6-3.9-1.7c-1.4-0.2-2.9,0.2-4,1.1c-1.1,0.9-1.6,2.4-1.7,3.8c0,1.4,0.1,2.9,0.6,4.2c0.3,0.7,0.6,1.3,1.1,1.8
		c0.5,0.5,1.1,1,1.6,1.4c1.2,0.9,2.2,1.9,3.2,3.1c1,1.1,1.8,2.4,2.5,3.7c0.7,1.3,1.2,2.7,1.7,4.1c0.5,1.3,1.4,2.5,2.2,3.7
		c0.4,0.6,0.9,1.1,1.4,1.6c0.5,0.5,1,1,1.6,1.5c1.1,1.1,1.7,2.5,2.2,3.9c0.5,1.4,0.8,2.9,1.1,4.3c0.6,2.9,1.5,5.6,2.7,8.3
		c1.2,2.7,2.4,5.3,3.5,8.1c0.5,1.4,0.9,2.8,1.3,4.2c0.4,1.4,1.1,2.6,1.9,3.7c1.7,2.3,3.5,4.7,5.2,7.1c3.4,4.8,6.7,9.6,9.8,14.6
		c1.6,2.5,3.2,4.9,4.7,7.5c0.7,1.3,1.4,2.6,2,4c0.5,1.4,1,2.8,1.6,4.1c1.2,2.6,2.7,5.1,4.4,7.5c1.7,2.4,3.6,4.6,5.6,6.7l-0.7,0.1
		c1.5-2.6,2.5-5.4,3.2-8.3c0.7-2.9,1-5.9,1.1-8.9c0.2-6,0.6-12,0-18c-0.3-3-0.8-5.9-1.3-8.9c-0.5-3-1.1-5.9-1.8-8.8
		c-1.3-5.8-3-11.6-5-17.3c-0.5-1.4-1-2.8-1.4-4.3c-0.4-1.5-0.5-3-0.7-4.5c-0.2-1.5-0.6-2.9-1.1-4.3c-0.5-1.4-1-2.9-1.1-4.4
		c0-0.8,0.1-1.6,0.4-2.3c0.3-0.8,0.8-1.4,1.2-2c0.9-1.2,1-2.7,1-4.1c0-0.7,0-1.5-0.2-2.2c-0.2-0.7-0.6-1.2-1.2-1.6
		c-1.3-0.8-2.6-1.5-3.9-2.2l-2-1.1c-0.6-0.4-1.3-0.7-2-0.8c-0.7-0.1-1.4,0-1.7,0.6c-0.3,0.6-0.2,1.4-0.3,2.2
		c-0.6,3.1-3.2,5.2-3.6,8.2c-0.2,1.5-0.2,3-0.2,4.5l0,4.5l0,9l0,0.7l-0.3-0.6c-1.3-2.5-2.9-4.8-4.7-6.8c-0.9-1-1.9-2-3-2.9l-3.2-2.7
		c-0.5-0.5-1.1-0.9-1.6-1.3l-1.6-1.3l-3.3-2.6c-1.1-0.9-2.2-1.8-3.5-2.1c-1.3-0.4-2.7-0.3-4.1-0.3l-0.1,0l0-0.1l0.2-1.1l0.1-1.1
		l0-1.1l0-1.1l-0.1-1.1l-0.2-1.1l-0.3-1.1l-0.3-1.1l-0.4-1.1l-0.5-1l-0.5-1l-0.6-1l-0.7-0.9l-0.7-0.9l-0.8-0.8L108.7,166.5
		L108.7,166.5z"/>
</g>
<g>
	<path class="st13" d="M144.7,231.3c0,0-0.1-0.2-0.3-0.4c-0.2-0.3-0.5-0.8-0.7-1.4c-0.5-1.2-1-3.1-1.3-5.4c-0.6-4.5-1.6-10.6-1-16.7
		c0.3-3,1.1-6.1,2.3-8.7c0.7-1.3,1.4-2.5,2.2-3.6c0.8-1,1.6-2,2.4-2.8c0.8-0.8,1.5-1.6,2.1-2.3c0.6-0.7,1.2-1.3,1.6-1.8
		c0.8-1,1.3-1.6,1.3-1.6l0.1,0.1c0,0-0.3,0.7-1.1,1.8c-0.7,1.1-1.9,2.6-3.4,4.4c-0.7,0.9-1.5,1.8-2.2,2.9c-0.7,1-1.5,2.2-2,3.4
		c-1.2,2.5-2.1,5.4-2.5,8.4c-0.4,3-0.4,6-0.2,8.8c0.2,2.8,0.5,5.5,0.7,7.7c0.2,2.3,0.6,4.1,1.1,5.3c0.2,0.6,0.5,1.1,0.7,1.4
		C144.7,231.1,144.8,231.2,144.7,231.3L144.7,231.3z"/>
</g>
<g>
	<path class="st13" d="M139.6,204.9c0,0-0.1,0.5-0.2,1.3c-0.1,0.8-0.3,2-0.4,3.4c-0.1,1.4-0.2,3-0.1,4.8c0,0.9,0.1,1.8,0.2,2.7
		c0.1,0.9,0.1,1.9,0.1,2.8c0.1,0.9,0.2,1.8,0.5,2.6c0.3,0.9,0.6,1.7,0.9,2.5c0.3,0.8,0.6,1.6,0.8,2.4c0.2,0.8,0.5,1.5,0.7,2.2
		c0.2,0.7,0.4,1.3,0.6,1.8c0.2,0.5,0.3,1,0.5,1.4c0.3,0.8,0.5,1.2,0.5,1.2l-0.1,0c0,0-0.3-0.4-0.7-1.1c-0.2-0.4-0.4-0.8-0.7-1.3
		c-0.2-0.5-0.5-1.1-0.8-1.8c-0.3-0.7-0.6-1.4-0.9-2.1c-0.3-0.7-0.6-1.5-0.9-2.4c-0.3-0.8-0.6-1.7-0.8-2.6c-0.3-0.9-0.4-1.9-0.4-2.9
		c0-1,0-1.9,0-2.8c-0.1-0.9-0.1-1.8-0.1-2.7c0-1.8,0.1-3.4,0.3-4.8c0.2-1.4,0.4-2.5,0.6-3.3C139.4,205.3,139.5,204.8,139.6,204.9
		L139.6,204.9z"/>
</g>
<g>
	<path class="st13" d="M146.9,205.5c0,0,0.1,0.3,0.2,0.7c0.1,0.5,0.3,1.1,0.6,2c0.3,0.8,0.8,1.8,1.3,3c0.5,1.1,1.2,2.4,1.8,3.8
		c0.6,1.4,1.2,3,1.5,4.8c0.3,1.8,0.2,3.7,0.3,5.6c0,1.9,0.2,3.9,0.7,5.8c0.5,2,1.1,3.9,1.6,6c0.5,2,0.6,4.2,0.5,6.2c0,2,0,4,0.5,5.8
		c0.4,1.8,1.2,3.5,1.7,5.3c0.5,1.8,0.6,3.5,0.9,5c0.5,3,1.5,5.4,2.1,7.1c0.7,1.7,1.1,2.6,1.1,2.6l-0.1,0c0,0-0.5-0.9-1.3-2.5
		c-0.4-0.8-0.9-1.8-1.3-3c-0.5-1.2-0.9-2.6-1.2-4.1c-0.3-1.5-0.5-3.2-1-4.8c-0.5-1.7-1.3-3.4-1.8-5.3c-0.5-2-0.5-4-0.4-6.1
		c0.1-2,0.1-4-0.4-6c-0.4-2-1-4-1.5-6c-0.5-2-0.7-4.1-0.6-6c0-1.9,0.1-3.8-0.2-5.5c-0.2-1.7-0.8-3.3-1.3-4.8
		c-0.6-1.4-1.2-2.7-1.7-3.9c-0.5-1.2-0.9-2.2-1.2-3c-0.3-0.9-0.5-1.5-0.6-2C146.9,205.8,146.8,205.5,146.9,205.5L146.9,205.5z"/>
</g>
<path class="st7" d="M125.3,90c0.1,0.1,0.2,0.3,0.1,0.4c-0.1,0.1-0.4,0.3-0.5,0.3c-4.7,0.9-7.8,2.1-14.2,1.6
	c-1.4-0.1-2.6-0.3-3.8-0.6c-1-0.3-1.8-0.7-2.7-1.2c-2.3-1.3-4.4-3.1-6.3-5c-0.1-0.1-0.2-0.3-0.2-0.4c0-0.1,0.1-0.3,0.2-0.4
	c1.7-1.3,3.6-2.8,5.9-3.4c1-0.1,2.3-0.6,3.3-0.7c2.3-0.3,3,0.3,5.5,0.6c0.7,0.1,1.8,0.6,2.6,0.7c0.6,0.1,1.7,0.6,2.2,0.9
	c2,1.2,3.6,2.1,5.2,3.7C123.6,87.8,124.3,89,125.3,90z"/>
<g>
	<path class="st14" d="M121.5,84.8c0,0-0.6-0.9-1.8-1.9c-1.1-1-2.6-2.3-4.4-3.1c-0.9-0.5-1.8-0.9-2.6-1c-0.9-0.1-1.8-0.3-2.5-0.4
		c-0.8-0.1-1.4-0.3-1.8-0.3c-0.4-0.1-0.6-0.1-0.6-0.1l0,0c0,0,1-0.1,2.5-0.1c0.8,0,1.8,0,2.6,0.3c1,0.3,1.9,0.6,2.8,1.1
		c1.8,1,3.3,2.4,4.3,3.5S121.5,84.8,121.5,84.8L121.5,84.8z"/>
</g>
<g>
	<path class="st14" d="M96.4,84.4c0,0.1,0,0.4,0,0.8c0,0.5,0,1,0.3,1.6c0.1,0.4,0.3,0.6,0.4,0.9c0.1,0.3,0.3,0.5,0.3,0.8
		c0.1,0.4,0.1,0.8,0.1,0.8l0,0c0,0-0.3-0.3-0.5-0.6c-0.1-0.3-0.3-0.5-0.4-0.8c-0.1-0.3-0.3-0.5-0.3-0.9c-0.1-0.6-0.1-1.3,0-1.8
		C96.4,84.7,96.4,84.4,96.4,84.4L96.4,84.4z"/>
</g>
<g>
	<path class="st14" d="M140.2,78c0.1,0.1,0,0.3,0,0.9c-0.3,0.4-0.5,0.8-0.8,1.4c-0.6,1.3-1.3,3-1.4,5.3c-0.1,2.3,0.4,4.9,1,7.7
		c0.4,1.4,0.8,2.8,1.3,4.1c0.5,1.4,1.1,2.6,1.8,4c1.4,2.8,3,5.3,4.6,7.5c0.8,1.1,1.8,2.3,2.1,3.6c0.1,0.3,0.3,0.8,0.3,1
		c0,0.4,0,0.6,0,1c0,0.6-0.3,1.4-0.5,1.9c-0.5,1-1.5,1.9-2.4,2.3c-1,0.4-1.9,0.5-2.5,0.4c-0.6,0-1.1-0.3-1.5-0.4
		c-0.4-0.1-0.5-0.3-0.5-0.3v-0.1c0,0,0.1,0,0.5,0.1c0.4,0,0.9,0.1,1.5,0.1c0.6,0,1.4-0.3,2.1-0.6c0.8-0.5,1.4-1.1,1.8-2.1
		c0.3-0.4,0.4-1,0.4-1.5c0-0.3,0-0.5,0-0.8c-0.1-0.4-0.1-0.6-0.3-0.9c-0.4-1.1-1.1-2.3-2-3.4c-1.6-2.4-3.3-5-4.5-7.8
		c-0.6-1.4-1.3-2.9-1.8-4.3c-0.5-1.4-0.9-2.9-1.1-4.3c-0.5-2.8-1-5.5-0.8-7.8c0.3-2.3,1-4.1,1.6-5.3c0.3-0.6,0.6-1.1,0.8-1.4
		C140.1,78.2,140.2,78,140.2,78L140.2,78z"/>
</g>
<g>
	<path class="st14" d="M139.3,118c0-0.1,0.3-0.1,0.4-0.1c0.1-0.3,0.1-0.4,0-0.6c-0.1-0.3-0.4-0.4-0.6-0.4c-0.6-0.1-1.3,0.4-1.8,1
		c-0.5,0.6-1.1,1.6-2.3,2h-0.1l0,0l0,0l0,0h-0.1c-0.1,0-0.4,0-0.5,0c-0.4,0-0.6-0.1-0.9-0.3c-0.6-0.3-1-0.8-1.3-1.1
		c-0.6-0.9-0.8-1.9-0.6-2.6c0-0.9,0.4-1.5,0.8-1.8c0.4-0.3,0.6-0.4,0.6-0.4l0.1,0.1c0,0-0.1,0.1-0.3,0.5c-0.1,0.4-0.3,0.9-0.1,1.5
		c0,0.5,0.3,1.3,0.6,1.9c0.1,0.3,0.4,0.5,0.6,0.8c0.1,0.1,0.3,0.3,0.4,0.3c0.1,0,0.1,0,0.3,0h0.1l0,0l0,0c0,0,0.1,0,0,0l0,0l0,0h0.1
		c0.6-0.1,1.3-0.9,1.9-1.5c0.4-0.4,0.8-0.8,1.1-0.9c0.4-0.3,0.9-0.3,1.3-0.3s0.8,0.3,0.9,0.6c0.1,0.4,0,0.6-0.1,0.9
		s-0.3,0.4-0.4,0.4C139.3,118,139.3,118,139.3,118L139.3,118z"/>
</g>
<g>
	<path d="M142.8,128.8c-0.1,0-0.4,0.2-0.7,0.3c-0.5,0.2-1.7,0.4-3.1,0.4c-0.8,0-1.5-0.1-2.3-0.1c-0.9,0-1.6-0.1-2.5-0.2
		c-1.6-0.1-3.6-0.4-5.5-0.8l-0.4-0.1c-0.2-0.1-0.2-0.1-0.4-0.1l-0.6-0.2c-0.4-0.2-0.9-0.3-1.2-0.4c-1-0.2-1.7-0.5-2.4-0.7
		c-1.5-0.5-2.9-1-4-1.4c-1.1-0.5-1.9-0.9-2.5-1.2c-0.2-0.1-0.5-0.3-0.6-0.4c-0.1-0.1-0.2-0.1-0.2-0.1s0.4,0.2,1.1,0.4
		c0.7,0.2,1.7,0.5,2.9,0.8c1.4,0.3,2.7,0.7,4.3,1.1c0.7,0.2,1.5,0.4,2.3,0.6c0.4,0.1,0.9,0.2,1.2,0.3l0.6,0.2
		c0.1,0.1,0.2,0.1,0.2,0.1l0.2,0.1c1.6,0.4,3.3,0.6,5,0.8c1.7,0.2,3.2,0.4,4.5,0.6s2.4,0.2,3,0.1c0.4-0.1,0.6-0.1,0.8-0.1
		c0.1,0,0.3-0.1,0.3-0.1S143,128.7,142.8,128.8z"/>
</g>
<g>
	<path class="st14" d="M111.6,117.5c-0.1,0.1-0.1,0.4-0.1,0.5c0,0.4-0.1,0.8-0.4,1.3c-0.3,0.4-0.5,0.9-0.8,1.1
		c0,0.1-0.1,0.3-0.3,0.4c0,0.1-0.1,0.1-0.1,0.1s0.1-1,0.5-1.9c0.3-0.4,0.5-0.9,0.8-1.1c0.3-0.4,0.5-0.5,0.5-0.5
		S111.7,117.3,111.6,117.5z"/>
</g>
<g>
	<path class="st14" d="M134.7,134.9c-0.3,0.1-0.6,0.4-1,0.5c-0.4,0.1-1,0.3-1.5,0.4c-0.5,0.1-1.1,0.1-1.8,0.1
		c-1.1-0.1-2.4-0.4-3.1-0.9c-0.9-0.5-1.3-0.9-1.3-0.9s0.1,0,0.4,0.1c0.3,0.1,0.6,0.3,1,0.4c0.4,0.1,0.9,0.3,1.4,0.4
		c0.5,0.1,1,0.3,1.6,0.3c0.5,0,1.1,0,1.6,0c0.6-0.1,1.1-0.1,1.5-0.3c0.4-0.1,0.8-0.1,1-0.3s0.4-0.1,0.4-0.1S134.8,134.7,134.7,134.9
		z"/>
</g>
<path class="st15" d="M119.7,74.3c-3.6-1.5-12.8-3.8-13.8-3.6c-0.5,0-0.9,0.3-1.3,0.4c-4.6,2-9.2,4.4-13.4,7.2
	c3.8-1.4,7.5-1.5,11.3-2.9c1.1-0.4,2.4-0.8,3.5-0.5c0.6,0.1,15.7,5.3,16.7,5.5c1,0.3,5.3-1.9,4.5-2.6
	C127.3,77.7,122,75.1,119.7,74.3z"/>
<path class="st16" d="M114.1,81.5c0-0.4-0.3-0.5-0.5-0.4c-0.9-0.3-1.9-0.4-2.8-0.5c-1.1-0.1-2.1-0.3-3.1,0c-1,0.3-2,0.8-2.4,1.8
	c-0.3,0.5-0.3,1.3-0.3,1.9c0,0.9,0,1.8,0.4,2.6c0.5,1.3,0.4,1.1,1.3,1.9c0.4,0.4,1.1,0.6,1.5,0.8c0.4,0.3,0.8,0.3,1.1,0.3
	c1.9,0,3.9-0.5,5.1-2C116,86.1,115.7,83.1,114.1,81.5"/>
<path class="st7" d="M140.1,89.3c-0.1,0.1-0.3,0.3-0.1,0.4c0.1,0.1,0.3,0.3,0.4,0.3c3.7,0.7,6.3,1.9,11.5,1.3
	c1.1-0.1,2.1-0.3,3.1-0.6c0.8-0.3,1.5-0.9,2.1-1.3c1.9-1.3,2.9-2.8,4.4-4.7c0.1-0.1,0.3-0.4,0.3-0.6c0-0.1,0.4-0.6,0.3-0.7
	c-1.5-1.5-2.9-3.1-4.8-3.5c-0.8-0.1-2-0.3-2.8-0.4c-1.9-0.3-2.8-0.3-4.9,0c-0.7,0-1.7,0.3-2.3,0.6c-0.4,0.1-0.8,0.4-1.2,0.7
	c-1.6,1.2-2.8,2.9-4,4.5C141.3,86.6,140.8,87.8,140.1,89.3z"/>
<g>
	<path class="st14" d="M141.8,83.8c0,0,0.3-0.8,1.1-1.8c0.6-1,1.6-2.3,2.9-3.4c0.6-0.6,1.3-1.1,2-1.4c0.8-0.3,1.5-0.4,2.1-0.4
		c1.3-0.1,2,0,2,0l0,0c0,0-0.8,0.1-2,0.3c-0.6,0.1-1.4,0.3-2,0.5c-0.8,0.3-1.4,0.6-2,1.1c-1.3,1-2.3,2.3-3,3.3
		C142.2,83.1,141.8,83.8,141.8,83.8L141.8,83.8z"/>
</g>
<path class="st16" d="M148,79.2c-0.1-0.1-0.4-0.1-0.8,0c-0.6,0.4-1.4,0.8-2,1.3c-0.8,0.5-1.5,1-2,1.8c-0.5,0.8-0.8,1.6-0.5,2.5
	c0.1,0.5,0.5,1,0.9,1.4c0.5,0.6,1,1.1,1.8,1.5c1.1,0.5,1,0.5,2,0.5c0.4,0,1.1-0.3,1.4-0.4c0.4-0.1,0.6-0.3,0.9-0.5
	c1.4-1.1,2.3-2.6,2.3-4.3C151.9,80.9,150,79.2,148,79.2"/>
<circle class="st7" cx="107.5" cy="82.8" r="1.4"/>
<path class="st17" d="M85,68.5c-2.4,1.6-2.7,5-2.7,7.9c0,7-0.2,11.6,2.1,19.6c-2.5,1.6-2.4,2.9-5.3,3.4c0-5.6-0.8-11.1-2.3-16.5
	c-0.7-2.3-1.6-4.7-3.5-6.2c-1.1-0.8-2.4-1.2-3.3-2.2c-2.1-2.1-1.3-5.9,0.8-7.8c2.2-2,5.2-2.6,8.2-2.8c1.3-0.1,2.7-0.2,3.9,0.4
	c1.2,0.6,2.1,2,1.7,3.2"/>
<path class="st15" d="M146.2,72.4c3-1.3,10.8-2.9,11.6-2.6c0.4,0.1,0.6,0.3,1,0.5c3.6,2.4,3.8,1.8,3.4,4.3c-0.7,1.1,1.1,1.9-1.9,0.3
	c-0.9-0.5-1.8-1-2.8-0.8c-0.6,0.1-13.2,4-14.1,4.3c-0.9,0.3-4.3-0.9-3.6-1.6C139.8,76.6,144.3,73.3,146.2,72.4z"/>
<circle class="st7" cx="144.5" cy="83.3" r="1.4"/>
<g>
	<g>
		<path class="st4" d="M124,89.1c0.4,0.5,2.3,0.6,1.8,0c-7.4-9.4-19.8-11.6-29.9-5c-0.4,0.4,1.4,1.1,1.9,0.8
			C106.5,79.2,117.3,80.8,124,89.1L124,89.1z"/>
	</g>
</g>
<path class="st17" d="M79.4,28.9c-7.7,3.1-14.2,9.3-17.7,16.8c-4,8.5-4.1,18.3-3.8,27.7c0.1,5.1,0.4,10.4,2.9,15
	c0.9,1.7,2.7,3.4,4.4,2.5c1-0.5,1.4-1.8,1.7-2.9c3.7-14.4,7.3-28.9,11-43.3"/>
<g>
	<g>
		<path class="st4" d="M139.7,87.6c-0.4,0.9,1.6,1.4,2,0.5c1.6-4,3-7,7.9-7.8c4.3-0.6,7.9,1.1,11.6,3.3c1,0.6,2-0.5,0.9-1.1
			c-4.6-2.8-9-4.6-14.4-3.4C142.6,80.3,141.5,83.2,139.7,87.6L139.7,87.6z"/>
	</g>
</g>
<g>
	<path class="st0" d="M76.4,108.1c-6-1.6-11.4-5.7-14.7-11.1c-3.3-5.4-4.4-12.1-3-18.2c0.6-2.5,1.8-5.3,4.1-6.2
		c2.8-1.1,5.8,0.6,8.3,2.3c1.3,0.9,2.6,1.8,3.9,2.6"/>
	<path class="st4" d="M72.5,76.3c-0.8-0.4-1.5-0.9-2.5-1.5c-1-0.6-2.1-1.3-3.4-1.6s-2.8-0.6-4,0c-1.3,0.6-2.3,1.9-2.9,3.4
		c-0.4,0.8-0.6,1.6-0.8,2.4c-0.1,0.9-0.3,1.8-0.4,2.6c-0.1,1.8-0.1,3.6,0.1,5.4c0.5,3.5,1.6,7,3.4,9.9c0.9,1.4,1.9,2.8,2.9,3.9
		c1.1,1.1,2.1,2.1,3.3,3c2.1,1.6,4.1,2.8,5.7,3.4c1.5,0.6,2.4,0.9,2.4,0.9s-0.3,0-0.6-0.1c-0.4-0.1-1-0.3-1.8-0.5
		c-1.5-0.5-3.8-1.4-6-3c-1.3-0.8-2.4-1.8-3.5-2.9c-1.1-1.1-2.3-2.5-3.1-4c-1.9-3-3.1-6.7-3.6-10.4c-0.3-1.9-0.3-3.8,0-5.7
		c0.1-1,0.4-1.9,0.5-2.8c0.3-0.9,0.5-1.8,0.9-2.6c0.8-1.6,2-3.1,3.6-3.8c1.6-0.8,3.3-0.4,4.6,0.1c1.4,0.5,2.5,1.3,3.4,1.9
		c0.9,0.8,1.8,1.3,2.4,1.8c1.3,1,2,1.5,2,1.5S74.3,77,72.5,76.3z"/>
</g>
<g>
	<path class="st0" d="M69.1,102.4c0.8,1.4,2.1,2.3,3.5,2.4c1.4,0.1,3.1-1.3,3.9-2.6c-1.4-1-4.6-7.3-4.4-7.9c0.8-1.6,3.4-1.6,3.6-3.4
		c0.1-0.9,0.3-1.6,0.1-2.5c-0.1-0.9-0.5-1.8-0.9-2.5c-1.6-3.6-3.8-7.4-7.4-8.5c-1-0.4-2.3-0.4-3.1,0.4c-0.8,0.6-1.1,1.6-1.4,2.6
		c-0.5,1.9-1.1,3.8-1.6,5.7c-0.3,0.9-0.5,1.6-0.5,2.5c0,1.1,0.5,2.3,1,3.4c0.5,1.1,1,2.3,1.5,3.4c0.4,0.6,0.6,1.3,1.1,1.8
		c0.5,0.4,1.1,0.6,1.6,1c1.4,0.9,2.1,2.5,2.8,4"/>
	<path class="st14" d="M67,99c-0.4-0.4-0.9-0.8-1.5-1c-0.5-0.4-1.1-0.8-1.5-1.4c-0.8-1.1-1.1-2.4-1.8-3.5c-0.5-1.3-1.1-2.4-1.4-3.8
		c-0.3-1.4,0.3-2.8,0.5-4s0.6-2.5,1-3.8l0.5-1.9c0.3-0.6,0.5-1.3,1-1.9c0.5-0.6,1.3-1,2-1.1c0.9-0.1,1.5,0,2.3,0.3
		c0.6,0.1,1.3,0.5,1.9,0.9c0.6,0.4,1.1,0.8,1.6,1.3c1,1,1.8,2.1,2.4,3.3c0.6,1.1,1.3,2.4,1.8,3.5c0.3,0.5,0.6,1.1,0.8,1.9
		c0.1,0.8,0.1,1.5,0.1,2.1c0,0.4-0.1,0.6-0.1,1v0.3v0.3c0,0.1-0.1,0.5-0.3,0.6c-0.5,0.8-1.3,1.1-1.8,1.4c-0.5,0.3-1,0.5-1.4,0.9
		c-0.1,0-0.3,0.1-0.3,0.3l0,0c0,0-0.1,0.1,0-0.1l0,0l0,0v0.1l0,0c0,0.1,0.1,0.5,0.3,0.8c0.4,1.1,1,2.3,1.6,3.4c0.6,1,1.3,2.3,2.1,3
		l0.3,0.3l-0.1,0.3c-0.5,0.8-1.1,1.3-1.8,1.8c-0.6,0.5-1.4,0.9-2.3,0.9c-1.8,0-3.1-1.1-3.8-2.6c0.4,0.6,1,1.3,1.6,1.6
		c0.3,0.3,0.6,0.4,1,0.5c0.4,0.1,0.8,0.1,1.1,0.1c0.8-0.1,1.4-0.5,2-1c0.5-0.4,1-1,1.4-1.6l0.1,0.5c-1.1-0.9-1.8-2-2.5-3.1
		s-1.4-2.3-1.9-3.5c-0.1-0.4-0.3-0.6-0.4-1c0-0.1,0-0.3,0-0.4v-0.1l0,0l0,0c0-0.3,0,0,0-0.1v-0.1c0.1-0.1,0.3-0.4,0.4-0.5
		c0.5-0.6,1.3-1,1.8-1.3c0.5-0.4,1-0.6,1.3-1c0.1-0.3,0.3-1.1,0.3-1.6c0.1-1.1-0.3-2.3-0.9-3.4c-0.5-1.1-1.1-2.3-1.8-3.4
		c-0.6-1.1-1.4-2.1-2.3-3c-0.4-0.4-0.9-0.8-1.4-1.1c-0.5-0.3-1-0.5-1.6-0.8c-1-0.4-2.3-0.3-2.9,0.5c-0.6,0.9-0.9,2.1-1.3,3.4
		c-0.4,1.3-0.8,2.5-1.1,3.8s-0.8,2.4-0.6,3.5c0.3,1.1,0.8,2.3,1.3,3.5c0.5,1.1,1,2.4,1.5,3.5c0.5,1.1,2,1.4,2.9,2.5s1.3,2.3,1.8,3.5
		C68.5,100.9,67.8,99.6,67,99z"/>
</g>
<g>
	<g>
		<path d="M152.8,83.3c0.3-0.5-1.8-1.1-2-0.5c-0.8,2.1-2.1,4.1-4.6,4.3c-1.4,0.1,0.1,1,0.8,1c1.3,0,2.5-0.4,3.5-1.1
			C151.6,86.1,152.3,84.7,152.8,83.3L152.8,83.3z"/>
	</g>
</g>
<g>
	<g>
		<path d="M116.5,86.1c0.1-0.4-1.8-1.1-2-0.5c-0.9,1.6-2.6,2.9-4.5,3c-1.4,0.1,0.1,1,0.8,1C113.2,89.5,115.3,88.3,116.5,86.1
			L116.5,86.1z"/>
	</g>
</g>
<g>
	<path class="st15" d="M163.1,45.4c0,2.5,0.8,6.4-2.1,8.6c-2.5,1.9-11.6,1.8-14.3,3.4c-11.5,6.7-25.4,6.9-38.7,7
		c1.7-1.1,3.1-2.8,3.6-4.7c-8.5,6.5-18.7,10.8-29.2,12.5c2.1-1.4,3.9-3.2,5.4-5.2c-2.8,1-5.7,2.1-8.5,3.1c-1.6,0.6-3.4,1.2-4.9,0.4
		c-0.8-0.4-1.4-1.1-1.9-1.8c-4.3-6.1-3.3-14.3-2.1-21.7c0.6-3.9,1.4-8.1,4.2-10.9c1-1,2.2-1.9,3-3.1c0.8-1.3,1.1-2.8,1.8-4.1
		c0.9-1.7,2.5-3,4.1-4.1c7.1-4.7,15.6-6.8,24.1-7.2c8.5-0.4,16.9,0.9,25.2,2.8c7,1.5,14,3.5,19.8,7.7S163.5,38.3,163.1,45.4
		L163.1,45.4z"/>
	<path d="M163.2,45.4c0,1.3,0.2,2.7,0.1,4c-0.1,1.3-0.4,2.7-1.3,3.8c-0.4,0.5-0.9,1-1.5,1.3c-0.6,0.3-1.2,0.5-1.9,0.7
		c-1.3,0.3-2.6,0.5-3.9,0.7c-1.3,0.2-2.6,0.4-3.9,0.6c-1.3,0.2-2.6,0.5-3.8,1c-1.2,0.6-2.3,1.3-3.5,1.8c-0.6,0.3-1.2,0.6-1.8,0.8
		c-0.6,0.2-1.2,0.5-1.9,0.7l-1.9,0.6l-1.9,0.5c-1.3,0.3-2.6,0.7-3.9,0.9c-1.3,0.3-2.6,0.5-3.9,0.7c-1.3,0.2-2.6,0.3-4,0.5
		c-5.3,0.5-10.6,0.6-16,0.6l-0.8,0l0.7-0.4c1.7-1,3-2.7,3.5-4.6l0.4,0.3l-1.6,1.2l-1.7,1.1l-1.7,1.1l-1.7,1
		c-1.2,0.7-2.3,1.3-3.5,1.9c-1.2,0.6-2.4,1.2-3.7,1.7c-1.2,0.5-2.5,1-3.8,1.5c-1.3,0.4-2.5,0.9-3.8,1.2l-1.9,0.5l-2,0.5l-2,0.4
		l-2,0.4L81,72.7l1.3-0.9c2-1.4,3.8-3.1,5.3-5.1l0.4,0.5l-9.3,3.4c-0.8,0.3-1.6,0.5-2.5,0.5c-0.9,0-1.8-0.3-2.5-0.8
		c-0.7-0.6-1.2-1.3-1.7-2c-0.5-0.7-0.9-1.5-1.2-2.2c-1.4-3.1-1.7-6.6-1.6-9.9c0.1-3.4,0.6-6.7,1.1-9.9c0.6-3.2,1.2-6.7,3.3-9.5
		c1-1.4,2.5-2.4,3.5-3.6c1-1.2,1.2-2.8,2-4.4c0.8-1.6,2.1-2.8,3.5-3.8c0.7-0.5,1.4-0.9,2.1-1.4c0.7-0.4,1.5-0.9,2.2-1.2
		c3-1.6,6.1-2.7,9.4-3.6c3.2-0.8,6.6-1.4,9.9-1.6c3.3-0.2,6.7-0.2,10,0.1c6.7,0.5,13.2,1.9,19.6,3.4c3.2,0.8,6.4,1.8,9.5,3
		c3.1,1.3,6,2.9,8.7,5c2.6,2.1,5,4.4,6.8,7.3C162.3,38.7,163.4,42,163.2,45.4z M163.1,45.4c0.1-3.3-1-6.6-2.8-9.3
		c-1.8-2.8-4.2-5.1-6.8-7.1c-2.6-2-5.6-3.6-8.6-4.8c-3.1-1.2-6.3-2.1-9.5-2.9c-6.4-1.5-13-2.7-19.6-3.1c-3.3-0.2-6.6-0.2-9.9,0
		c-3.3,0.2-6.5,0.7-9.7,1.6c-3.2,0.8-6.3,2-9.2,3.5c-0.7,0.4-1.4,0.8-2.1,1.2c-0.7,0.5-1.4,0.9-2.1,1.3c-1.3,0.9-2.5,2-3.2,3.4
		c-0.7,1.4-1,3.2-2.1,4.6c-1.2,1.4-2.6,2.2-3.5,3.5c-1.9,2.6-2.6,5.9-3.2,9.1c-0.5,3.3-1.1,6.5-1.2,9.8c-0.1,3.3,0.2,6.6,1.5,9.6
		c0.3,0.7,0.7,1.4,1.1,2.1c0.4,0.7,0.9,1.3,1.5,1.8c1.2,1,2.9,0.8,4.4,0.2l9.3-3.4l1-0.4L88,67.1c-1.5,2.1-3.3,3.9-5.5,5.3l-0.2-0.6
		l2-0.3l2-0.4l1.9-0.5l1.9-0.5c1.3-0.4,2.5-0.8,3.8-1.2c1.3-0.5,2.5-0.9,3.7-1.4c1.2-0.5,2.4-1.1,3.6-1.7c1.2-0.6,2.4-1.2,3.5-1.9
		l1.7-1l1.7-1.1l1.7-1.1l1.6-1.2l0.6-0.4l-0.2,0.7c-0.6,2-2,3.8-3.8,4.8l-0.1-0.4c5.3,0,10.6,0,15.9-0.5c1.3-0.1,2.6-0.3,4-0.4
		c1.3-0.2,2.6-0.4,3.9-0.6c1.3-0.2,2.6-0.5,3.9-0.9l1.9-0.5l1.9-0.6c0.6-0.2,1.2-0.5,1.9-0.7c0.6-0.2,1.2-0.5,1.8-0.8
		c1.2-0.5,2.4-1.2,3.5-1.8c1.2-0.6,2.6-0.8,3.9-1c1.3-0.2,2.6-0.4,4-0.6c1.3-0.2,2.6-0.4,3.9-0.7c0.6-0.2,1.3-0.4,1.9-0.6
		c0.6-0.3,1.1-0.8,1.5-1.2c0.8-1,1.2-2.4,1.3-3.7C163.2,48,163.1,46.7,163.1,45.4z"/>
</g>
<g>
	<path d="M131.5,155.7c0,0,0.2,0.4,0.5,1.1c0.2,0.4,0.4,0.8,0.6,1.3c0.2,0.5,0.4,1.1,0.6,1.8c0.2,0.7,0.4,1.4,0.6,2.2
		c0.2,0.8,0.3,1.6,0.5,2.5c0.1,0.9,0.2,1.8,0.2,2.7c0.1,0.9,0,1.8,0,2.8c-0.1,0.9-0.1,1.9-0.3,2.8c-0.1,0.9-0.3,1.8-0.5,2.6
		c-0.3,0.8-0.5,1.7-0.8,2.4c-0.3,0.7-0.6,1.4-0.9,2.1c-0.3,0.6-0.6,1.2-0.9,1.6c-0.3,0.5-0.6,0.9-0.8,1.2c-0.5,0.6-0.8,1-0.8,1
		l-0.1-0.1c0,0,0.2-0.4,0.6-1.1c0.2-0.4,0.4-0.8,0.6-1.3c0.1-0.3,0.2-0.5,0.4-0.8c0.1-0.3,0.2-0.6,0.4-0.9c0.3-0.6,0.5-1.3,0.8-2.1
		c0.3-0.7,0.5-1.5,0.7-2.3c0.2-0.8,0.4-1.7,0.6-2.5c0.2-0.9,0.3-1.8,0.4-2.7c0.1-0.9,0.1-1.8,0.1-2.7c0-0.9-0.1-1.8-0.1-2.6
		c-0.1-0.8-0.2-1.7-0.3-2.4c-0.1-0.8-0.3-1.5-0.5-2.2c-0.2-0.7-0.3-1.3-0.5-1.8c-0.2-0.5-0.3-1-0.5-1.4
		C131.6,156.2,131.4,155.8,131.5,155.7L131.5,155.7z"/>
</g>
<g>
	<path d="M94.9,142c0,0,0.3,1.2,0.8,3c0.5,1.8,1.3,4.2,2.2,6.5c0.5,1.2,1,2.3,1.5,3.4c0.5,1.1,0.9,2.1,1.2,2.9
		c0.4,0.9,0.6,1.6,0.9,2.1c0.2,0.5,0.3,0.8,0.3,0.8l-0.1,0c0,0-0.2-0.2-0.5-0.7c-0.3-0.4-0.8-1.1-1.3-1.9c-0.2-0.4-0.5-0.9-0.7-1.3
		c-0.3-0.5-0.5-1-0.7-1.5c-0.5-1.1-0.9-2.3-1.3-3.5c-0.8-2.4-1.4-4.8-1.8-6.7C95,143.3,94.8,142,94.9,142L94.9,142z"/>
</g>
</svg>
