<?xml version="1.0" encoding="utf-8"?>
<!-- Generator: Adobe Illustrator 19.0.1, SVG Export Plug-In . SVG Version: 6.00 Build 0)  -->
<svg version="1.1" id="Layer_1" xmlns="http://www.w3.org/2000/svg" xmlns:xlink="http://www.w3.org/1999/xlink" x="0px" y="0px"
	 viewBox="0 0 288.3 483.2" style="enable-background:new 0 0 288.3 483.2;" xml:space="preserve">
<style type="text/css">
	.st0{fill:#28211B;}
	.st1{fill:#301809;}
	.st2{fill:#C9A56B;}
	.st3{fill:#231F20;}
	.st4{fill:#7A5605;}
	.st5{fill:#915B2A;}
	.st6{fill:#F9B2DD;}
	.st7{fill:#DD529F;}
	.st8{fill:#FFFFFF;}
	.st9{fill:#54280A;}
	.st10{fill:#44230B;}
	.st11{fill:#230E09;}
	.st12{fill:#915B2A;stroke:#000000;stroke-width:0.6306;stroke-miterlimit:10;}
</style>
<g>
	<path class="st0" d="M106.4,90.5c0.5,5.1,1.1,10.3,0.6,15.4c-0.4,5.1-1.9,10.3-5.1,14.4c5.3,4.6,11,8.9,17.4,12
		c8.5,4.1,18,5.8,27.4,7c6.6,0.9,13.3,1.5,19.7-0.2c8.4-2.2,15.2-8,21.6-13.7c0.5-0.5,1.1-1,1.3-1.6c0.2-0.6,0.1-1.3-0.1-1.9
		c-1.9-9.3-2.4-18.9-1.4-28.4c-6.8-0.2-13.6,1.4-20.3,2.4c-15.2,2.4-30.9,2-45.9-1.2c-1-0.2-2.1-0.4-3-0.9c-1.2-0.6-2.1-1.5-3.1-2.3
		c-2.5-2.4-5.1-4.7-7.6-7.1"/>
	<path class="st1" d="M106.4,90.4c0.6,5.1,1.1,10.3,0.7,15.4c-0.2,2.6-0.7,5.1-1.5,7.6c-0.4,1.2-0.9,2.4-1.5,3.6
		c-0.3,0.6-0.6,1.1-1,1.7c-0.3,0.5-0.7,1.1-1.1,1.6l0-0.2c4,3.5,8.3,6.7,12.8,9.4c2.3,1.4,4.7,2.5,7.1,3.5c2.4,1,5,1.9,7.5,2.6
		c5.1,1.4,10.4,2.3,15.6,3c5.3,0.7,10.6,1.3,15.8,0.9c2.6-0.2,5.2-0.7,7.7-1.6c2.5-0.9,4.8-2.1,7.1-3.5c2.2-1.4,4.4-3,6.4-4.7
		c2-1.7,4.1-3.4,6-5.2c0.5-0.5,0.8-0.9,0.8-1.4c0-0.5-0.2-1.2-0.3-1.9c-0.3-1.3-0.5-2.6-0.7-3.9c-0.4-2.6-0.7-5.3-0.9-8
		c-0.4-5.3-0.3-10.7,0.3-16l0.5,0.6c-3.5-0.1-6.9,0.2-10.4,0.8c-3.5,0.5-6.9,1.2-10.4,1.7c-1.7,0.3-3.5,0.5-5.2,0.7
		c-1.8,0.2-3.5,0.3-5.3,0.4c-1.8,0.1-3.5,0.2-5.3,0.2c-1.8,0-3.5,0-5.3,0c-1.8,0-3.5-0.1-5.3-0.2c-1.8-0.1-3.5-0.3-5.3-0.4
		c-1.7-0.2-3.5-0.4-5.2-0.6c-1.7-0.3-3.5-0.5-5.2-0.9c-0.9-0.1-1.7-0.3-2.6-0.5c-0.9-0.2-1.7-0.3-2.6-0.6c-0.9-0.2-1.7-0.6-2.4-1.2
		c-0.7-0.5-1.4-1.1-2-1.7l-7.6-7.3l0.1-0.1l7.8,7.1c1.3,1.2,2.6,2.3,4.3,2.7c0.8,0.2,1.7,0.4,2.5,0.6c0.9,0.2,1.7,0.3,2.6,0.5
		c1.7,0.3,3.5,0.6,5.2,0.8c1.7,0.2,3.5,0.4,5.2,0.6c1.7,0.1,3.5,0.3,5.2,0.4c1.7,0.1,3.5,0.1,5.2,0.1c1.7,0,3.5,0,5.2-0.1
		c1.7-0.1,3.5-0.2,5.2-0.3c1.7-0.1,3.5-0.3,5.2-0.5c1.7-0.2,3.5-0.4,5.2-0.7c3.4-0.5,6.9-1.2,10.4-1.7c3.5-0.5,7-0.9,10.6-0.8l0.5,0
		l-0.1,0.5c-0.5,5.3-0.7,10.6-0.3,15.9c0.2,2.6,0.5,5.3,0.9,7.9c0.2,1.3,0.4,2.6,0.7,3.9c0.1,0.7,0.3,1.3,0.3,2.1
		c0,0.4-0.1,0.8-0.3,1.1c-0.2,0.3-0.4,0.6-0.7,0.9c-2,1.8-4,3.5-6.1,5.2c-2.1,1.7-4.2,3.3-6.5,4.7c-2.3,1.4-4.7,2.6-7.2,3.5
		c-2.5,0.9-5.2,1.4-7.9,1.6c-5.4,0.4-10.7-0.2-16-1c-5.3-0.7-10.6-1.7-15.7-3.1c-2.6-0.7-5.1-1.6-7.6-2.6c-2.5-1-4.9-2.2-7.1-3.6
		c-4.6-2.7-8.8-6.1-12.8-9.6l-0.1-0.1l0.1-0.1c0.4-0.5,0.8-1,1.1-1.6c0.3-0.5,0.7-1.1,1-1.7c0.6-1.1,1.1-2.3,1.5-3.5
		c0.8-2.4,1.3-5,1.5-7.5C107.4,100.7,106.8,95.6,106.4,90.4L106.4,90.4z"/>
</g>
<g>
	<path class="st2" d="M213.5,421.7c0.9,20.5-1.4,41.1-6.5,61l-73.5,0.5c-0.3-9.9,2-19.6,1.8-29.5c0-0.9-1.4-2.5-1.1-3.3
		c-2.2-1-2.5,7.7-2.1,10.1c1.3,7.5,1,15.7-2,22.8H45.8c0.2-5.6,2.2-8.8,0.8-15.9c-1.2-5.8-1.5-11.7-0.7-17.6l3.1-22.6
		c0.5-3.8,1-7.6,2.2-11.2c1.7-5.4,4.9-10.8,3.9-16.4c19.8-3.2,39.4,5.1,58.8,10.2c11.1,2.9,22.4,4.8,33.8,6.7
		c19,3.2,38.3,6.4,57.3,3.3c2.9-0.5,5.9-1.1,8.8-0.4c-0.7,0.9-1.3,1.8-2,2.6"/>
	<path class="st3" d="M213.6,421.7l0.1,3.8l0.1,3.8l0,3.8l-0.1,3.8l-0.2,3.8l-0.2,3.8l-0.3,3.8l-0.4,3.8l-0.4,3.8l-0.5,3.8l-0.6,3.8
		l-0.7,3.8l-0.7,3.8l-0.8,3.8l-0.9,3.8l-0.9,3.7l0,0.1l-0.1,0l-73.5,0.6l-0.2,0l0-0.2c0-1.4,0-2.8,0-4.2c0-1.4,0.1-2.8,0.2-4.2
		c0.2-2.8,0.5-5.5,0.8-8.3c0.3-2.7,0.5-5.5,0.6-8.2c0.1-1.4,0.1-2.8,0-4.1c0-0.3,0-0.7-0.1-0.9c-0.1-0.3-0.3-0.6-0.4-0.9
		c-0.2-0.3-0.3-0.6-0.5-1c-0.1-0.3-0.3-0.7-0.1-1.2l0.1,0.4c-0.4-0.3-0.8,0.4-1.1,1c-0.2,0.6-0.4,1.3-0.5,2
		c-0.2,1.4-0.3,2.8-0.3,4.2c0,0.7,0,1.4,0.1,2.1l0.3,2.1c0.2,1.4,0.3,2.9,0.4,4.3c0.2,2.9,0.1,5.8-0.4,8.6c-0.2,1.4-0.5,2.8-0.9,4.2
		c-0.4,1.4-0.9,2.8-1.4,4.1l-0.1,0.2l-0.2,0l-84.2,0.1l-0.4,0l0-0.4c0.1-1.8,0.4-3.6,0.7-5.3c0.3-1.7,0.6-3.5,0.6-5.2
		c0-1.7-0.1-3.5-0.5-5.2c-0.4-1.7-0.6-3.5-0.8-5.3c-0.4-3.6-0.5-7.1-0.1-10.7c0.2-1.8,0.5-3.5,0.7-5.3l0.7-5.3l1.4-10.5
		c0.5-3.5,0.9-7,1.6-10.5c0.4-1.7,0.8-3.5,1.4-5.2c0.6-1.7,1.3-3.3,1.9-5c0.6-1.7,1.2-3.3,1.5-5c0.3-1.7,0.4-3.4,0.2-5.1l-0.1-0.5
		l0.5-0.1c3.3-0.5,6.7-0.8,10.1-0.7c3.4,0,6.8,0.4,10.1,0.8c6.7,1,13.2,2.7,19.7,4.6c6.5,1.9,12.9,3.9,19.3,5.6
		c6.5,1.7,13,3.1,19.6,4.3c6.6,1.2,13.2,2.3,19.8,3.5c6.6,1.1,13.3,2.1,19.9,2.8c6.7,0.7,13.4,1,20.1,0.8c3.3-0.2,6.7-0.4,10-0.9
		c3.3-0.4,6.7-1.3,10-0.5l0.1,0l-0.1,0.1l-2,2.6l-0.1-0.1l2-2.7l0,0.1c-3.3-0.8-6.6,0.2-10,0.6c-3.3,0.5-6.7,0.8-10,1
		c-3.4,0.2-6.7,0.2-10.1,0.1c-3.4-0.1-6.7-0.3-10.1-0.7c-6.7-0.6-13.3-1.6-20-2.7c-6.6-1.1-13.3-2.2-19.9-3.3
		c-6.6-1.2-13.2-2.5-19.7-4.2c-6.5-1.7-12.9-3.7-19.4-5.5c-6.4-1.8-12.9-3.5-19.6-4.5c-3.3-0.5-6.6-0.8-10-0.8
		c-3.3-0.1-6.7,0.2-9.9,0.7l0.4-0.6c0.3,1.8,0.2,3.7-0.2,5.5c-0.4,1.8-0.9,3.5-1.6,5.2c-0.6,1.7-1.3,3.3-1.9,5
		c-0.6,1.7-1,3.3-1.4,5.1c-0.7,3.4-1.1,7-1.6,10.5L47.5,441l-0.7,5.3c-0.2,1.8-0.5,3.5-0.7,5.3c-0.4,3.5-0.3,7,0.1,10.5
		c0.2,1.8,0.5,3.5,0.8,5.2c0.4,1.8,0.5,3.6,0.5,5.4c0,1.8-0.3,3.6-0.6,5.3c-0.3,1.7-0.6,3.5-0.7,5.2l-0.4-0.4l84.2,0.1l-0.3,0.2
		c0.6-1.3,1-2.6,1.4-4c0.4-1.4,0.7-2.8,0.9-4.2c0.4-2.8,0.5-5.7,0.4-8.5c-0.1-1.4-0.2-2.8-0.4-4.2l-0.3-2.1
		c-0.1-0.7-0.1-1.5-0.1-2.2c0-1.4,0.1-2.9,0.3-4.3c0.1-0.7,0.3-1.4,0.5-2.1c0.1-0.4,0.3-0.7,0.6-1c0.1-0.2,0.3-0.3,0.6-0.4
		c0.3-0.1,0.5,0,0.7,0.1l0.2,0.1l-0.1,0.3c-0.1,0.4,0.3,1.1,0.6,1.7c0.2,0.3,0.3,0.6,0.5,1c0.2,0.4,0.1,0.8,0.1,1.1
		c0,1.4,0,2.8-0.1,4.2c-0.1,2.8-0.4,5.5-0.7,8.3c-0.3,2.8-0.6,5.5-0.8,8.2c-0.1,1.4-0.2,2.8-0.2,4.1c-0.1,1.4-0.1,2.8,0,4.1
		l-0.3-0.2l73.5-0.4l-0.1,0.1l0.9-3.7l0.9-3.7l0.8-3.8l0.7-3.8l0.7-3.8l0.6-3.8l0.5-3.8l0.5-3.8l0.4-3.8l0.3-3.8l0.2-3.8l0.2-3.8
		l0.1-3.8l0-3.8l0-3.8L213.6,421.7L213.6,421.7z"/>
</g>
<g>
	<path class="st4" d="M159,438.7c0,0,0.8-0.1,2.1-0.2c1.3-0.1,3.3-0.2,5.6-0.3c2.3,0,5,0,7.9,0.1c2.9,0.1,5.9,0.1,9,0
		c1.5,0,3-0.1,4.5-0.3c0.7-0.1,1.5-0.2,2.2-0.3c0.7-0.1,1.4-0.2,2.1-0.3c1.4-0.3,2.7-0.6,4-0.9c1.3-0.4,2.4-0.7,3.5-1.1
		c2.2-0.8,3.9-1.5,5.2-2c1.2-0.5,2-0.8,2-0.8s-0.7,0.3-1.9,0.9c-1.2,0.6-2.9,1.4-5.1,2.3c-1.1,0.4-2.2,0.9-3.5,1.3
		c-1.3,0.4-2.6,0.8-4,1.1c-0.7,0.1-1.4,0.3-2.2,0.4c-0.7,0.1-1.5,0.2-2.2,0.3c-1.5,0.2-3,0.3-4.6,0.3c-3.1,0.1-6.2,0-9-0.1
		c-2.9-0.1-5.5-0.3-7.8-0.4c-1.1,0-2.2-0.1-3.1-0.1c-0.9,0-1.7,0-2.4,0C159.8,438.7,159,438.7,159,438.7z"/>
</g>
<g>
	<path class="st4" d="M135.5,449.9c0,0,0.3-0.4,0.8-1.1c0.5-0.7,1-1.8,1.6-3.2c0.6-1.4,1.1-3,1.7-4.8c0.6-1.8,1.3-3.6,1.9-5.5
		c0.6-1.9,1.1-3.8,1.5-5.6c0.2-0.9,0.4-1.8,0.5-2.6c0.1-0.8,0.2-1.6,0.3-2.4c0.1-1.5,0.1-2.7,0.1-3.6c-0.1-0.9-0.1-1.4-0.1-1.4
		s0.1,0.5,0.3,1.4c0.1,0.4,0.1,1,0.2,1.6c0,0.6,0.1,1.3,0.1,2.1c0,0.8-0.1,1.6-0.1,2.4c-0.1,0.9-0.2,1.8-0.4,2.7
		c-0.3,1.9-0.9,3.8-1.5,5.7c-0.6,1.9-1.3,3.8-2,5.5c-0.7,1.7-1.4,3.4-2,4.7c-0.7,1.4-1.4,2.4-2,3.1c-0.3,0.3-0.5,0.6-0.7,0.8
		C135.6,449.9,135.5,449.9,135.5,449.9z"/>
</g>
<g>
	<path class="st2" d="M202.7,421.8c-2.3,9.8-3.8,19.9-4.4,30c-0.2,3.3-0.3,6.6,0,9.8c0.5,4.2,1.7,8.2,2.9,12.2
		c1.2,4.1,2.5,8.2,3.7,12.2c1,1.4,3.1,0.1,4.2-1.3c7.3-9.9,11.6-22.1,12.1-34.4c0.1-3.2,0-6.3-0.1-9.5c-0.1-2.3-0.2-4.5-0.3-6.8
		c-0.1-3.1-0.3-6.5-2.4-8.8c-2.4-2.8-6.5-3.2-10.2-3.4c-2.2-0.1-4.4-0.3-6.6-0.4"/>
	<path class="st3" d="M202.7,421.9c-2.4,10.6-3.9,21.5-4.4,32.4c-0.1,2.7-0.1,5.4,0.3,8.1c0.4,2.7,1,5.3,1.8,7.9
		c0.8,2.6,1.6,5.2,2.4,7.8l2.4,7.8l0-0.1c0.4,0.6,1.3,0.5,2,0.1c0.7-0.4,1.3-1,1.8-1.7c1-1.5,2-2.9,2.9-4.4c0.9-1.5,1.7-3.1,2.5-4.7
		c0.8-1.6,1.5-3.2,2.1-4.9c0.6-1.7,1.2-3.3,1.7-5c0.3-0.8,0.5-1.7,0.7-2.6c0.2-0.9,0.4-1.7,0.6-2.6c0.4-1.7,0.6-3.5,0.8-5.2
		c0.2-1.8,0.3-3.5,0.4-5.3c0.1-3.5-0.1-7.1-0.2-10.6l-0.2-5.3c-0.1-1.8-0.2-3.5-0.6-5.2c-0.4-1.7-1.4-3.2-2.8-4.2
		c-1.4-1-3.1-1.6-4.8-1.9c-1.7-0.3-3.5-0.4-5.3-0.6l-5.3-0.4l0-0.1l5.3,0.2c1.8,0.1,3.6,0.1,5.3,0.4c1.8,0.3,3.6,0.8,5.1,1.9
		c1.5,1.1,2.6,2.7,3.1,4.5c0.5,1.8,0.7,3.6,0.7,5.3l0.2,5.3c0.2,3.5,0.4,7.1,0.2,10.7c-0.1,1.8-0.2,3.6-0.4,5.4
		c-0.2,1.8-0.5,3.5-0.9,5.3c-0.4,1.8-0.8,3.5-1.3,5.2c-0.5,1.7-1.1,3.4-1.8,5.1c-0.7,1.7-1.4,3.3-2.2,4.9c-0.8,1.6-1.7,3.2-2.6,4.7
		c-0.9,1.5-1.9,3-3,4.5c-0.5,0.8-1.2,1.4-2.1,1.9c-0.4,0.2-0.9,0.4-1.4,0.4c-0.5,0-1.1-0.3-1.4-0.7l0,0l0,0l-2.3-7.8
		c-0.8-2.6-1.6-5.2-2.3-7.9c-0.7-2.6-1.4-5.3-1.8-8c-0.4-2.7-0.4-5.5-0.2-8.2C198.5,443.3,200.1,432.5,202.7,421.9L202.7,421.9z"/>
</g>
<g>
	<path class="st2" d="M69.2,402.9c-0.7,11.5-2.4,22.8-5.1,34c-0.9,3.6-1.8,7.2-3.3,10.6c-1.9,4.4-4.5,8.4-7.1,12.3
		c-2.7,4-5.4,8-8,12.1c-1.5,1.2-3.4-1-4.1-2.8c-4.7-13.2-5.3-27.8-1.8-41.3c0.9-3.5,2.1-6.9,3.2-10.3c0.8-2.4,1.7-4.9,2.5-7.3
		c1.1-3.3,2.5-6.9,5.5-8.8c3.5-2.2,8.1-1.4,12.2-0.4c2.4,0.6,4.9,1.2,7.3,1.7"/>
	<path class="st3" d="M69.3,402.9c-0.7,12.4-2.6,24.7-5.5,36.7c-0.8,3-1.7,6-3,8.8c-1.3,2.8-2.9,5.5-4.5,8.1
		c-1.7,2.6-3.4,5.2-5.1,7.8l-5.1,7.7l0,0l0,0c-0.5,0.4-1.2,0.5-1.8,0.3c-0.6-0.2-1-0.5-1.4-0.9c-0.8-0.8-1.3-1.7-1.6-2.7
		c-0.7-1.9-1.3-3.8-1.8-5.8c-0.5-2-0.9-3.9-1.3-5.9c-0.3-2-0.6-4-0.8-6c-0.1-2-0.3-4.1-0.2-6.1c0-1,0-2,0.1-3c0-1,0.1-2,0.2-3
		c0.2-2,0.5-4,0.8-6c0.4-2,0.8-4,1.3-5.9c1.1-3.9,2.4-7.7,3.8-11.5l2-5.7c0.7-1.9,1.4-3.8,2.6-5.6c1.1-1.7,2.8-3.2,4.8-3.8
		c2-0.7,4.1-0.6,6.1-0.4c2,0.3,4,0.8,5.9,1.3l5.9,1.5l0,0.1l-5.9-1.3c-2-0.4-3.9-0.9-5.9-1.1c-2-0.2-4-0.2-5.9,0.5
		c-1.8,0.6-3.4,2-4.4,3.7c-1.1,1.7-1.7,3.5-2.4,5.4l-1.9,5.7c-1.3,3.8-2.6,7.6-3.7,11.5c-0.5,1.9-0.9,3.9-1.3,5.9
		c-0.3,2-0.6,4-0.8,6c-0.1,1-0.2,2-0.2,3c-0.1,1-0.1,2-0.1,3c0,2,0.1,4,0.2,6c0.2,2,0.4,4,0.7,6c0.3,2,0.7,3.9,1.2,5.9
		c0.5,1.9,1.1,3.9,1.7,5.8c0.3,0.9,0.8,1.8,1.4,2.4c0.6,0.7,1.5,1.1,2.2,0.5l-0.1,0.1l5.2-7.7c1.7-2.6,3.5-5.1,5.2-7.7
		c1.7-2.6,3.3-5.2,4.6-8c1.3-2.8,2.2-5.8,3-8.7C66.4,427.5,68.3,415.2,69.3,402.9L69.3,402.9z"/>
</g>
<g>
	<path class="st5" d="M175.5,111.7c-2.1,8.2-4.1,17.5,0.3,24.8c2.6,4.1,6.8,6.9,11.2,9c6.2,3.1,12.9,5.3,19.8,6.6
		c0,10.6-7.4,19.9-16,26.1c-12.6,9.2-28.4,13.6-44,13.5c-5.1,0-10.3-0.5-15.1-2.1c-4.8-1.5-9.2-4.1-13.6-6.6
		c-7.2-4.1-14.4-8.3-20.2-14.1s-10.2-13.6-10-21.9c16.1,0.5,33.7-12.1,31.4-40.7c13.9-5.7,28.3,0.9,43-1.8c2.8-0.5,5.8-0.9,8.4,0
		c2.7,1,4.9,3.8,4.1,6.6"/>
	<path d="M175.5,111.7c-0.6,2.5-1.2,4.9-1.7,7.4c-0.2,1.3-0.4,2.5-0.5,3.8c-0.1,1.3-0.2,2.5-0.1,3.8c0,1.3,0.2,2.5,0.4,3.8
		c0.3,1.2,0.6,2.5,1.1,3.6l0.4,0.9c0.1,0.3,0.3,0.6,0.5,0.8c0.3,0.6,0.6,1.1,1,1.6c0.7,1,1.6,2,2.5,2.8c1.9,1.7,4,3.1,6.3,4.3
		c2.2,1.2,4.5,2.3,6.9,3.2c4.7,1.9,9.6,3.3,14.6,4.3l0.1,0l0,0.1c0,3.3-0.7,6.6-2,9.7c-1.3,3.1-3.1,5.9-5.2,8.4
		c-2.1,2.5-4.5,4.8-7.1,6.9c-2.6,2-5.4,3.9-8.3,5.5c-5.8,3.2-12,5.6-18.5,7.2c-3.2,0.8-6.5,1.4-9.8,1.7c-3.3,0.4-6.6,0.5-9.9,0.5
		c-3.3,0-6.6-0.3-9.9-0.9c-3.3-0.6-6.4-1.7-9.5-3.1c-3-1.4-5.9-3-8.8-4.7c-2.9-1.6-5.7-3.3-8.5-5c-2.8-1.8-5.5-3.6-8.1-5.8
		c-2.6-2.1-4.9-4.4-7-7.1c-2-2.6-3.8-5.5-5-8.6c-1.2-3.1-1.9-6.4-1.9-9.8l0-0.3l0.3,0l1.8,0c0.6,0,1.2,0,1.8-0.1
		c1.2-0.2,2.4-0.2,3.6-0.6l1.8-0.4l1.7-0.6c1.2-0.3,2.2-0.9,3.3-1.4c0.6-0.2,1.1-0.5,1.6-0.9l1.5-0.9c1-0.7,1.9-1.5,2.9-2.2
		c0.9-0.9,1.8-1.7,2.6-2.6l1.1-1.4c0.4-0.5,0.8-0.9,1.1-1.4l1-1.5c0.3-0.5,0.7-1,0.9-1.6l0.8-1.6c0.3-0.5,0.6-1.1,0.7-1.7
		c0.4-1.1,0.9-2.3,1.2-3.4l0.9-3.5c0.2-1.2,0.4-2.4,0.6-3.6c0.2-1.2,0.2-2.4,0.3-3.6l0.1-1.8c0-0.6,0-1.2,0-1.8l-0.1-3.6l0-0.2
		l0.2-0.1l1.8-0.6c0.3-0.1,0.6-0.2,0.9-0.3l0.9-0.2c0.6-0.1,1.2-0.3,1.8-0.4l1.9-0.3c0.6-0.1,1.3-0.2,1.9-0.2c0.6,0,1.3-0.1,1.9-0.1
		c1.3-0.1,2.5-0.1,3.8,0c1.3,0,2.5,0.1,3.8,0.2l3.8,0.3c2.5,0.2,5,0.5,7.5,0.6c1.3,0.1,2.5,0.2,3.8,0.2c1.3,0.1,2.5,0,3.8,0l1.9-0.1
		c0.6,0,1.3-0.1,1.9-0.2l1.9-0.3c0.6-0.1,1.2-0.2,1.9-0.3c1.2-0.2,2.5-0.3,3.8-0.2c1.3,0.1,2.5,0.3,3.7,1c1.1,0.6,2.1,1.5,2.7,2.6
		c0.6,1.1,0.9,2.4,0.5,3.7l-0.1,0c0.3-1.2,0.1-2.5-0.6-3.6c-0.6-1.1-1.6-1.9-2.7-2.5c-1.1-0.6-2.4-0.8-3.6-0.9
		c-1.2-0.1-2.5,0-3.7,0.2c-0.6,0.1-1.2,0.2-1.9,0.3l-1.9,0.3c-0.6,0.1-1.3,0.2-1.9,0.2l-1.9,0.1c-1.3,0-2.5,0.1-3.8,0
		c-1.3,0-2.5-0.1-3.8-0.1c-2.5-0.2-5-0.4-7.5-0.6l-3.8-0.3c-1.3-0.1-2.5-0.2-3.8-0.1c-1.3,0-2.5,0-3.8,0.1c-0.6,0-1.2,0.1-1.9,0.2
		c-0.6,0.1-1.2,0.1-1.9,0.2l-1.8,0.3c-0.6,0.1-1.2,0.3-1.8,0.5l-0.9,0.2c-0.3,0.1-0.6,0.2-0.9,0.3l-1.8,0.6l0.2-0.3l0.2,3.7
		c0,0.6,0.1,1.2,0,1.8l-0.1,1.8c-0.1,1.2,0,2.5-0.3,3.7c-0.2,1.2-0.3,2.4-0.5,3.6l-0.9,3.6c-0.4,1.2-0.8,2.3-1.2,3.5
		c-0.2,0.6-0.5,1.1-0.8,1.7l-0.8,1.7c-0.2,0.6-0.6,1.1-0.9,1.6l-1,1.6c-0.3,0.5-0.7,1-1.1,1.5l-1.2,1.4c-0.8,0.9-1.8,1.7-2.6,2.6
		c-1,0.8-1.9,1.5-2.9,2.2l-1.6,1c-0.5,0.3-1.1,0.6-1.6,0.9c-1.1,0.5-2.2,1.1-3.4,1.4l-1.8,0.6l-1.8,0.4c-1.2,0.3-2.4,0.4-3.6,0.6
		c-0.6,0.1-1.2,0.1-1.8,0.1l-1.8,0l0.3-0.3c0,3.3,0.6,6.5,1.8,9.6c1.2,3.1,2.9,5.9,4.9,8.5c2,2.6,4.4,4.9,6.9,7c2.5,2.1,5.2,4,8,5.7
		c2.8,1.8,5.6,3.4,8.5,5c2.9,1.6,5.7,3.3,8.7,4.7c3,1.4,6.1,2.4,9.3,3c3.2,0.6,6.5,0.9,9.8,0.9c3.3,0,6.6-0.1,9.9-0.5
		c3.3-0.3,6.5-0.9,9.7-1.7c6.4-1.5,12.6-3.9,18.4-7.1c2.9-1.6,5.6-3.4,8.2-5.4c2.6-2,5-4.3,7.1-6.8c2.1-2.5,3.9-5.3,5.2-8.3
		c1.3-3,2-6.3,2-9.6l0.1,0.1c-5-0.9-9.9-2.4-14.6-4.3c-2.4-1-4.7-2-6.9-3.2c-2.2-1.2-4.4-2.6-6.3-4.3c-0.9-0.9-1.8-1.8-2.5-2.8
		c-0.4-0.5-0.7-1.1-1-1.6c-0.2-0.3-0.3-0.6-0.5-0.8l-0.4-0.9c-0.5-1.2-0.8-2.4-1.1-3.7c-0.2-1.3-0.4-2.5-0.4-3.8
		c0-1.3,0-2.5,0.1-3.8c0.1-1.3,0.3-2.5,0.5-3.8C174.2,116.6,174.8,114.1,175.5,111.7L175.5,111.7z"/>
</g>
<g>
	<path class="st6" d="M95.6,145.6c-8.4,1.6-16.9,3.2-25.3,4.9c-5.7,1.1-11.7,2.3-16.1,6c-8.4,7-8.4,19.6-10.2,30.3
		c-3,18-13,34.6-14.3,52.8c-0.1,0.9-0.1,1.7,0.1,2.5c0.5,1.8,2.1,3.1,3.6,4.1c2.8,2,5.7,3.8,8.7,5.6c-2.3-7.7-2.5-16-0.6-23.8
		c0.4-1.4,0.8-2.9,1.9-3.9c1.2-1.1,3-1.4,4.7-1.6c6.6-0.7,13.3-1.5,19.7,0s12.6,5.6,14.8,11.8c3.3,9.5-3.6,19.2-4.9,29.2
		c-0.9,6.5,0.6,13.2-0.9,19.5c-1.7,7.1-7.1,13-8.1,20.3c-0.7,4.6,0.4,9.3,0.5,14c0.2,7.5-2.1,14.7-4.5,21.8
		c-1.9,5.9-3.9,11.8-5.8,17.8c-1.8,5.4-3.5,10.9-3.6,16.6c0,4.1,0.9,8.1,0.9,12.1s-1,8.4-4,11.1c0.2,1.1,0,1.6,0.3,2.8
		c26.3,4.3,51.6,13.6,77.4,20.1s53.2,10.4,79.1,3.9c5.2-1.3,11.4-4.6,10.8-10c-0.5-4-4.5-6.4-6.6-9.8c-4-6.7,0.7-15.1,0.9-22.9
		c0.1-4.7-1.4-9.2-2.4-13.8c-1.5-7.3-1.6-14.8-1.6-22.3c0-10.9-0.1-21.8-0.1-32.6c-0.1-19.1,0-38.9,7.5-56.4
		c11.4-2.6,22.8-5.2,34.2-7.7c-6.4-7.3-8.1-17.4-9.6-26.9c-1.6-10.2-3.2-20.5-4.8-30.7c-1.4-8.7-2.8-17.7-7.3-25.4
		c-4.4-7.7-12.6-13.8-21.5-13.2c-1.4,0.1-2.9,0.4-4,1.3c-1,0.9-1.6,2.2-2.2,3.4c-3.1,6.3-8,11.6-13.5,16
		c-12.2,9.5-28,14.4-43.4,13.5s-30.5-7.6-41.5-18.5c-5.7-5.6-10.6-13.4-8.9-21.2"/>
	<path class="st3" d="M95.6,145.7l-18.3,3.5l-9.2,1.8c-3,0.6-6.1,1.4-8.9,2.6c-1.4,0.6-2.8,1.4-4,2.3c-0.3,0.2-0.6,0.5-0.9,0.7
		l-0.9,0.8c-0.6,0.5-1.1,1.1-1.6,1.7c-2,2.4-3.3,5.3-4.3,8.2c-1.9,5.9-2.3,12.2-3.2,18.4c-0.2,1.5-0.6,3.1-0.8,4.6
		c-0.4,1.5-0.7,3-1.1,4.5c-0.8,3-1.8,6-2.7,8.9c-2,5.9-4.2,11.7-6,17.7c-0.9,3-1.7,6-2.4,9c-0.7,3-1.1,6.1-1.4,9.2
		c-0.1,0.8-0.1,1.5,0,2.3c0.1,0.7,0.5,1.4,0.9,2c0.9,1.2,2.3,2.1,3.5,2.9c2.6,1.8,5.2,3.4,7.9,5L42,252c-1.4-4.8-2-9.9-1.8-14.9
		c0.1-2.5,0.4-5,0.9-7.5c0.3-1.2,0.5-2.5,1-3.7c0.3-0.6,0.6-1.2,1.1-1.6c0.5-0.5,1-0.8,1.6-1.1c1.2-0.5,2.5-0.6,3.7-0.8l3.7-0.4
		c2.5-0.2,5-0.4,7.5-0.4c5,0,10.2,0.8,14.6,3.3c2.2,1.2,4.2,2.8,5.8,4.8c1.6,2,2.7,4.4,3.2,6.8c0.5,2.5,0.3,5.1-0.1,7.6
		c-0.5,2.5-1.2,4.9-2,7.3c-1.6,4.8-3.3,9.5-3.6,14.5c-0.3,5,0.4,10-0.3,15.1c-0.3,2.5-1.2,4.9-2.2,7.2c-1,2.3-2.3,4.5-3.4,6.8
		c-1.1,2.2-2.1,4.5-2.7,7c-0.6,2.4-0.6,4.9-0.4,7.4c0.2,2.5,0.5,5,0.6,7.5c0.1,2.5-0.1,5.1-0.5,7.6c-0.8,5-2.3,9.8-3.9,14.6
		l-4.7,14.3c-1.5,4.8-3.3,9.5-4.2,14.4c-0.5,2.5-0.7,4.9-0.5,7.4c0.1,2.5,0.5,5,0.7,7.5c0.2,2.5,0.2,5.1-0.3,7.6
		c-0.6,2.5-1.7,4.9-3.7,6.7l0.1-0.3c0.1,0.5,0.1,1,0.1,1.4c0,0.5,0,0.9,0.1,1.3l-0.3-0.3c13.9,2.3,27.6,6,41.1,9.8
		c13.5,3.9,27,8,40.7,11.3c13.7,3.3,27.6,5.7,41.6,6.1c7,0.2,14-0.1,21-1c0.9-0.1,1.7-0.2,2.6-0.4l2.6-0.5c1.7-0.3,3.4-0.7,5.1-1.1
		c1.7-0.4,3.4-0.8,5-1.5c1.6-0.7,3.1-1.5,4.4-2.6c1.3-1.1,2.3-2.5,2.7-4.1c0-0.4,0.1-0.8,0.1-1.2c0-0.2,0-0.4,0-0.6l-0.1-0.6
		c-0.2-0.8-0.6-1.5-1-2.2c-0.9-1.4-2.2-2.7-3.3-4c-0.6-0.7-1.2-1.4-1.7-2.1l-0.4-0.6l-0.3-0.6c-0.2-0.4-0.4-0.8-0.5-1.2
		c-1.3-3.5-0.8-7.2-0.1-10.7c0.7-3.5,1.6-6.9,1.7-10.3c0.1-3.5-0.7-6.9-1.5-10.3c-0.9-3.4-1.5-6.9-1.9-10.4
		c-0.7-7.1-0.5-14.1-0.6-21.1l-0.1-21.1c0-7-0.1-14.1,0.1-21.1c0.2-7,0.6-14.1,1.7-21.1c0.6-3.5,1.3-7,2.2-10.4
		c0.9-3.4,2.1-6.8,3.5-10l0.1-0.2l0.2-0.1l34.2-7.7l-0.3,0.8c-3.6-4.2-5.8-9.4-7.3-14.6c-1.4-5.3-2.2-10.6-3-16l-2.5-16l-2.5-16
		c-0.9-5.3-2-10.6-4-15.6c-2-5-5-9.6-9.2-12.9c-2.1-1.7-4.4-3.1-6.9-4c-2.5-0.9-5.2-1.3-7.8-1.1c-1.3,0.1-2.6,0.4-3.6,1.3
		c-1,0.8-1.5,2.1-2.1,3.3c-1.2,2.4-2.7,4.7-4.4,6.9c-3.4,4.3-7.5,7.9-11.9,11c-2.2,1.6-4.6,2.9-7,4.2c-2.4,1.2-4.9,2.4-7.4,3.3
		c-2.5,0.9-5.1,1.7-7.8,2.4c-2.6,0.6-5.3,1.1-8,1.4c-2.7,0.3-5.4,0.4-8.1,0.4c-2.7-0.1-5.4-0.3-8.1-0.7c-5.4-0.8-10.6-2.3-15.6-4.4
		c-5-2.1-9.7-4.8-14-8.1c-4.3-3.3-8.3-7-11.4-11.5c-1.5-2.3-2.8-4.7-3.5-7.3c-0.8-2.6-0.9-5.4-0.4-8l0.1,0c-0.5,2.6-0.4,5.4,0.4,8
		c0.7,2.6,2,5,3.5,7.2c3.1,4.5,7.1,8.1,11.4,11.4c4.3,3.2,9,5.9,14,8c5,2.1,10.2,3.5,15.5,4.3c2.7,0.4,5.4,0.6,8,0.7
		c2.7,0,5.4-0.1,8.1-0.4c2.7-0.3,5.3-0.7,7.9-1.4c2.6-0.6,5.2-1.4,7.7-2.4c2.5-0.9,5-2.1,7.4-3.3c2.4-1.3,4.7-2.6,6.9-4.2
		c4.4-3.1,8.5-6.7,11.8-10.9c1.7-2.1,3.1-4.4,4.3-6.8c0.6-1.2,1.1-2.5,2.2-3.5c1.1-1,2.6-1.3,3.9-1.4c2.7-0.2,5.5,0.2,8.1,1.1
		c2.6,0.9,5,2.4,7.1,4.1c4.3,3.4,7.4,8.2,9.4,13.2c2.1,5.1,3.2,10.4,4.1,15.7l2.6,16l2.5,16c0.9,5.3,1.6,10.7,3,15.9
		c1.4,5.2,3.6,10.2,7.1,14.2l0.6,0.6l-0.8,0.2l-34.2,7.7l0.3-0.3c-1.3,3.2-2.5,6.5-3.4,9.9c-0.9,3.4-1.6,6.8-2.2,10.3
		c-1.1,6.9-1.6,13.9-1.7,21c-0.2,7-0.1,14.1-0.1,21.1l0.1,21.1c0.1,7-0.1,14.1,0.6,21.1c0.3,3.5,1,6.9,1.8,10.3
		c0.8,3.4,1.7,6.9,1.5,10.5c-0.1,3.6-1.1,7-1.8,10.5c-0.3,1.7-0.6,3.4-0.7,5.2c-0.1,1.7,0.1,3.5,0.7,5c1.1,3.3,4.2,5.3,6.2,8.4
		c0.5,0.8,0.9,1.6,1.1,2.6l0.1,0.7c0,0.3,0,0.5,0,0.7c0,0.5-0.1,0.9-0.1,1.4c-0.4,1.9-1.6,3.4-3,4.6c-1.4,1.2-3,2-4.7,2.7
		c-1.7,0.7-3.4,1.2-5.1,1.5c-1.7,0.4-3.4,0.8-5.2,1.1l-2.6,0.5c-0.9,0.1-1.7,0.2-2.6,0.4c-7,0.9-14.1,1.2-21.1,1
		c-14.1-0.4-28.1-2.8-41.8-6.1c-13.7-3.3-27.2-7.5-40.7-11.4c-13.5-3.9-27.1-7.6-41-9.9l-0.2,0l0-0.2c-0.1-0.5-0.1-1-0.1-1.4
		c0-0.5,0-0.9-0.1-1.3l0-0.2l0.1-0.1c1.8-1.6,2.9-3.9,3.5-6.3c0.5-2.4,0.5-4.9,0.3-7.4c-0.2-2.5-0.6-5-0.7-7.5
		c-0.1-2.5,0.1-5.1,0.5-7.6c0.9-5,2.7-9.7,4.2-14.5l4.7-14.3c1.6-4.8,3.1-9.6,3.9-14.5c0.4-2.5,0.6-4.9,0.5-7.5
		c-0.1-2.5-0.4-5-0.6-7.5c-0.2-2.5-0.2-5.1,0.4-7.6c0.6-2.5,1.6-4.8,2.7-7.1c2.2-4.5,4.9-8.8,5.6-13.8c0.7-4.9,0-10,0.3-15
		c0.3-5.1,2.1-9.9,3.7-14.6c0.8-2.4,1.5-4.8,2-7.2c0.5-2.4,0.6-5,0.1-7.4c-0.5-2.5-1.5-4.7-3.1-6.7c-1.6-1.9-3.5-3.5-5.7-4.7
		c-4.4-2.5-9.4-3.3-14.4-3.3c-2.5,0-5,0.2-7.5,0.4l-3.7,0.4c-1.2,0.1-2.5,0.3-3.6,0.7c-1.1,0.4-2,1.4-2.5,2.5
		c-0.5,1.1-0.7,2.4-1,3.6c-0.5,2.4-0.8,4.9-0.9,7.4c-0.2,5,0.4,10,1.8,14.8l0.1,0.4l-0.4-0.2c-2.7-1.6-5.3-3.2-7.9-5
		c-1.3-0.9-2.6-1.7-3.6-3c-0.5-0.6-0.9-1.4-1-2.2c-0.1-0.8-0.1-1.6,0-2.4c0.3-3.1,0.7-6.2,1.4-9.2c0.7-3,1.5-6.1,2.4-9
		c1.8-6,4.1-11.8,6.1-17.7c1-3,1.9-5.9,2.7-8.9c0.4-1.5,0.7-3,1.1-4.5c0.3-1.5,0.6-3,0.8-4.6c1-6.1,1.4-12.4,3.3-18.4
		c0.9-3,2.3-5.9,4.3-8.3c0.5-0.6,1-1.2,1.6-1.7l0.9-0.8c0.3-0.2,0.6-0.5,0.9-0.7c1.3-0.9,2.6-1.7,4.1-2.3c2.9-1.2,5.9-2,9-2.6
		l9.2-1.8L95.6,145.7L95.6,145.7z"/>
</g>
<g>
	<path class="st7" d="M83.1,241.8c0,0,0.1-0.1,0.4-0.4c0.3-0.3,0.6-0.7,0.9-1.3c0.7-1.2,1.3-3.2,1.2-5.6c-0.1-1.2-0.3-2.5-0.7-3.8
		c-0.4-1.3-1-2.7-1.6-4c-0.6-1.4-1.3-2.8-2-4.2c-0.7-1.4-1.4-3-1.9-4.5c-0.6-1.6-0.9-3.2-1.3-4.8c-0.3-1.6-0.6-3.2-0.7-4.7
		c-0.1-1.5-0.1-3-0.1-4.4c0.1-1.4,0.2-2.7,0.4-4c0.2-1.2,0.4-2.3,0.7-3.3c0.2-1,0.5-1.8,0.7-2.5c0.2-0.7,0.4-1.2,0.6-1.6
		c0.1-0.4,0.2-0.5,0.2-0.5s-0.1,0.2-0.2,0.6c-0.1,0.4-0.3,0.9-0.4,1.6c-0.2,0.7-0.4,1.5-0.5,2.5c-0.2,1-0.3,2.1-0.5,3.3
		c-0.1,1.2-0.2,2.5-0.2,3.9c0,1.4,0.1,2.8,0.2,4.4c0.1,1.5,0.4,3,0.7,4.6c0.4,1.5,0.8,3.1,1.3,4.6c0.5,1.5,1.1,3,1.8,4.5
		c0.7,1.5,1.4,2.9,2,4.3c0.6,1.4,1.1,2.8,1.5,4.2c0.4,1.4,0.5,2.7,0.6,4c0.1,2.5-0.8,4.5-1.5,5.7c-0.4,0.6-0.8,1-1.1,1.3
		C83.3,241.7,83.1,241.8,83.1,241.8z"/>
</g>
<g>
	<path class="st7" d="M216.9,256.6c0,0-0.3-0.8-0.7-2.2c-0.4-1.4-1-3.4-1.3-5.9c-0.2-1.2-0.3-2.6-0.3-4c0-1.4,0.2-3,0.6-4.5
		c0.4-1.5,0.9-3.1,1.4-4.6c0.5-1.5,0.9-3.1,1.4-4.7c0.9-3.2,1.5-6.4,1.9-9.4c0.2-1.5,0.4-3,0.5-4.4c0.1-1.4,0.2-2.7,0.3-4
		c0.1-1.2,0.1-2.4,0.1-3.4c0-1,0-1.9,0-2.6c0-1.4,0-2.3,0-2.3s0,0.2,0.1,0.6c0,0.4,0.1,0.9,0.2,1.7c0.1,1.4,0.3,3.5,0.2,6
		c0,1.2,0,2.6-0.1,4c-0.1,1.4-0.2,2.9-0.4,4.5c-0.4,3.1-1,6.3-1.8,9.6c-0.4,1.6-0.9,3.2-1.4,4.7c-0.5,1.5-1,3-1.4,4.5
		c-0.4,1.5-0.7,2.9-0.7,4.3c-0.1,1.4,0,2.7,0.1,3.9c0.3,2.4,0.7,4.5,1,5.9C216.7,255.7,216.9,256.6,216.9,256.6z"/>
</g>
<g>
	<path class="st7" d="M87.3,181.2c0,0-0.1,0.8-0.2,2.3c-0.1,0.7-0.1,1.6-0.1,2.6c0,1,0,2.2,0,3.4c0,1.3,0.1,2.6,0.3,4
		c0.2,1.4,0.4,2.9,0.7,4.5c0.3,1.5,0.6,3.1,1.1,4.7c0.4,1.6,1,3.2,1.6,4.7c0.6,1.6,1.2,3.1,1.9,4.6c0.7,1.5,1.4,3,2.1,4.4
		c1.4,2.8,2.7,5.5,3.8,7.8c0.5,1.2,1,2.2,1.3,3.2c0.4,1,0.7,1.8,0.9,2.5c0.2,0.7,0.4,1.3,0.5,1.6c0.1,0.4,0.2,0.6,0.2,0.6
		s-0.3-0.8-0.8-2.2c-0.5-1.4-1.4-3.3-2.5-5.5c-1.1-2.3-2.6-4.8-4-7.6c-1.5-2.8-3-5.8-4.2-9c-0.6-1.6-1.1-3.2-1.5-4.8
		c-0.4-1.6-0.8-3.2-1-4.8c-0.5-3.1-0.7-6.1-0.7-8.7c0-1.3,0.1-2.4,0.2-3.5c0.1-1,0.2-1.9,0.3-2.7c0.1-0.7,0.2-1.3,0.3-1.7
		C87.3,181.4,87.3,181.2,87.3,181.2z"/>
</g>
<g>
	<path class="st7" d="M112.9,310.2c0,0,0,0.1,0,0.2c0,0.1,0,0.3,0,0.6c0.1,0.5,0.2,1.3,0.6,2.2c0.4,0.9,0.9,2,1.7,3.2
		c0.8,1.2,1.7,2.4,2.7,3.8c1,1.4,2.1,2.9,3.3,4.4c0.6,0.8,1.2,1.6,1.9,2.4c0.7,0.8,1.3,1.6,2,2.4c0.7,0.8,1.4,1.7,2.1,2.5
		c0.7,0.8,1.5,1.7,2.2,2.5c1.5,1.7,3.1,3.3,4.7,5c1.6,1.6,3.2,3.2,4.9,4.8c0.8,0.8,1.7,1.5,2.5,2.2c0.8,0.7,1.6,1.5,2.5,2.1
		c1.6,1.4,3.2,2.7,4.8,3.9c1.5,1.2,3,2.4,4.4,3.4c1.4,1,2.7,1.9,3.8,2.7c1.2,0.8,2.1,1.5,3,2c1.7,1.1,2.6,1.7,2.6,1.7
		s-1-0.6-2.7-1.6c-0.9-0.5-1.9-1.2-3.1-1.9c-1.2-0.7-2.5-1.6-3.9-2.6c-1.4-1-2.9-2.1-4.5-3.2c-1.6-1.2-3.2-2.5-4.9-3.8
		c-0.8-0.7-1.7-1.4-2.5-2.1c-0.8-0.7-1.7-1.5-2.5-2.2c-1.7-1.5-3.3-3.1-5-4.7c-1.6-1.7-3.2-3.3-4.7-5c-0.8-0.8-1.5-1.7-2.2-2.5
		c-0.7-0.9-1.4-1.7-2.1-2.5c-0.7-0.8-1.3-1.7-2-2.5c-0.6-0.8-1.2-1.7-1.8-2.4c-1.2-1.6-2.2-3.1-3.2-4.6c-0.9-1.4-1.8-2.8-2.5-4
		c-0.7-1.2-1.3-2.3-1.6-3.3c-0.3-1-0.4-1.8-0.4-2.3c0-0.3,0-0.5,0-0.6C112.9,310.2,112.9,310.2,112.9,310.2z"/>
</g>
<g>
	<path class="st7" d="M100.2,310.2c0,0,0,0.7,0,1.8c0,1.1-0.1,2.8-0.1,4.7c0,2,0.1,4.2,0.4,6.6c0.1,1.2,0.4,2.4,0.7,3.7
		c0.1,0.6,0.3,1.2,0.5,1.8c0.2,0.6,0.4,1.3,0.7,1.8c0.9,2.4,2.2,4.7,3.4,6.8c1.2,2.1,2.4,4.1,3.4,5.8c1,1.7,1.7,3.2,2.1,4.3
		c0.2,0.5,0.4,1,0.5,1.2c0.1,0.3,0.2,0.4,0.2,0.4s-0.3-0.6-0.8-1.6c-0.3-0.5-0.6-1.1-1-1.8c-0.4-0.7-0.9-1.4-1.4-2.3
		c-2.1-3.3-5.2-7.5-7.2-12.5c-0.3-0.6-0.4-1.2-0.7-1.9c-0.2-0.7-0.4-1.3-0.5-1.9c-0.3-1.3-0.5-2.6-0.6-3.8c-0.2-2.5-0.2-4.8,0-6.8
		c0.1-2,0.3-3.6,0.4-4.7C100.1,310.8,100.2,310.2,100.2,310.2z"/>
</g>
<g>
	<path class="st7" d="M144.5,372c0,0,0.4,0,1.1,0c0.7,0,1.8-0.1,3,0c1.2,0,2.7,0,4.2,0c1.6,0,3.2,0.1,4.9,0.2
		c1.7,0.1,3.3,0.2,4.9,0.3c1.6,0.1,3,0.3,4.2,0.4c1.2,0.1,2.3,0.3,3,0.3c0.7,0.1,1.1,0.2,1.1,0.2s-0.4,0-1.1,0c-0.7,0-1.8,0.1-3,0
		c-1.2,0-2.7,0-4.2,0c-1.6,0-3.2-0.1-4.9-0.2c-1.7-0.1-3.3-0.2-4.9-0.3c-1.6-0.1-3-0.3-4.2-0.4c-1.2-0.1-2.3-0.3-3-0.3
		C144.9,372.1,144.5,372,144.5,372z"/>
</g>
<g>
	<path class="st7" d="M128.9,313.7c0,0,0.9,0.6,2.6,1.6c1.6,1,4,2.4,6.9,4c1.5,0.8,3,1.6,4.7,2.4c1.7,0.8,3.5,1.6,5.4,2.4
		c1.9,0.8,3.9,1.5,6,2.1c2.1,0.6,4.2,1.2,6.3,1.6c2.2,0.5,4.3,0.8,6.4,1c2.1,0.2,4.3,0.3,6.3,0.3c2-0.1,4-0.1,5.9-0.4
		c1.9-0.2,3.6-0.5,5.2-0.9c0.8-0.2,1.6-0.4,2.3-0.6c0.7-0.2,1.4-0.4,2-0.6c1.3-0.4,2.4-0.8,3.2-1.2c0.9-0.4,1.6-0.7,2-0.9
		c0.5-0.2,0.7-0.3,0.7-0.3s-0.2,0.1-0.7,0.4c-0.5,0.2-1.1,0.6-2,1c-0.9,0.4-1.9,0.9-3.2,1.4c-0.6,0.2-1.3,0.5-2,0.7
		c-0.7,0.2-1.5,0.4-2.3,0.7c-1.6,0.4-3.4,0.8-5.3,1.1c-1.9,0.3-3.9,0.5-6,0.5c-2.1,0-4.2,0-6.4-0.2c-2.2-0.2-4.4-0.5-6.6-1
		c-2.2-0.5-4.3-1.1-6.4-1.7c-2.1-0.7-4.1-1.4-6-2.2c-3.8-1.6-7.3-3.4-10.1-5.1c-1.4-0.8-2.7-1.6-3.8-2.4c-1.1-0.7-2.1-1.4-2.9-1.9
		c-0.8-0.5-1.4-1-1.8-1.3C129.1,313.9,128.9,313.7,128.9,313.7z"/>
</g>
<g>
	<path class="st7" d="M55.5,372.1c0,0,0-0.1,0-0.3c0-0.2,0-0.5,0.1-0.8c0.1-0.7,0.4-1.7,1-2.9c0.6-1.2,1.6-2.5,3-3.8
		c1.4-1.3,3.2-2.5,5.3-3.4c2.1-0.9,4.6-1.6,7.2-1.8c2.6-0.3,5.5-0.1,8.3,0.4c2.9,0.5,5.7,1.4,8.5,2.5c2.8,1.1,5.6,2.5,8.3,3.9
		c2.7,1.4,5.3,3,8,4.4c2.6,1.4,5.2,2.8,7.8,4.1c5.1,2.6,9.9,4.8,14.1,6.7c4.2,1.8,7.7,3.3,10.2,4.2c2.5,1,3.9,1.5,3.9,1.5
		s-0.4-0.1-1-0.3c-0.7-0.2-1.7-0.5-2.9-1c-2.5-0.9-6.1-2.2-10.3-3.9c-4.2-1.7-9.1-3.9-14.3-6.4c-2.6-1.3-5.2-2.6-7.8-4
		c-2.6-1.4-5.3-2.9-8-4.3c-2.7-1.4-5.4-2.8-8.2-3.9c-2.8-1.1-5.6-2-8.3-2.5c-2.8-0.5-5.5-0.7-8.1-0.5c-2.6,0.2-5,0.8-7.1,1.6
		c-2.1,0.9-3.9,1.9-5.3,3.2c-1.4,1.2-2.4,2.5-3,3.6c-0.7,1.2-1,2.2-1.2,2.8c-0.1,0.3-0.1,0.6-0.2,0.8
		C55.5,372,55.5,372.1,55.5,372.1z"/>
</g>
<g>
	<path class="st7" d="M58,378.2c0,0,0-0.1-0.1-0.3c-0.1-0.2-0.1-0.4-0.2-0.8c-0.1-0.7,0.1-1.8,0.9-2.9c0.8-1.1,2.1-2.2,3.8-2.9
		c0.9-0.4,1.8-0.7,2.9-0.9c1-0.2,2.1-0.3,3.3-0.3c4.6-0.2,10,1,15.2,3.5c2.6,1.2,5.2,2.7,7.6,4.4c2.5,1.7,4.9,3.6,7.2,5.5
		c4.7,3.9,9.2,8,13.8,11.3c2.3,1.7,4.6,3.1,6.9,4.4c2.2,1.3,4.4,2.4,6.5,3.4c4.1,1.9,7.7,3.2,10.2,4c1.3,0.4,2.3,0.7,3,0.9
		c0.7,0.2,1.1,0.3,1.1,0.3s-0.4-0.1-1.1-0.2c-0.7-0.1-1.7-0.4-3-0.7c-2.6-0.7-6.2-1.8-10.4-3.6c-2.1-0.9-4.3-2-6.6-3.3
		c-2.3-1.3-4.7-2.7-7-4.4c-4.7-3.3-9.2-7.4-13.9-11.2c-2.3-1.9-4.7-3.8-7.1-5.5c-2.4-1.7-4.9-3.2-7.5-4.4c-2.5-1.2-5.1-2.2-7.6-2.8
		c-2.5-0.6-4.9-0.9-7.2-0.9c-1.1,0-2.2,0.1-3.2,0.2c-1,0.1-1.9,0.4-2.8,0.7c-1.7,0.7-3,1.7-3.8,2.7c-0.8,1-1,2.1-1,2.8
		c0,0.4,0.1,0.6,0.1,0.8C58,378.1,58,378.2,58,378.2z"/>
</g>
<g>
	<path class="st7" d="M63,401.1c0,0,0.1-0.4,0.4-1c0.3-0.6,0.6-1.5,1.1-2.5c0.2-0.5,0.4-1.1,0.6-1.7c0.2-0.6,0.4-1.3,0.6-1.9
		c0.4-1.4,0.8-2.8,1-4.3c0.1-0.7,0.2-1.5,0.3-2.2c0.1-0.7,0.2-1.5,0.2-2.2c0.1-1.4,0-2.7-0.1-3.8c-0.1-0.6-0.1-1.1-0.2-1.5
		c-0.1-0.4-0.2-0.8-0.3-1.1c-0.3-0.6-0.6-0.8-0.6-0.8s0.1,0,0.2,0.1c0.1,0.1,0.4,0.3,0.6,0.6c0.2,0.3,0.4,0.7,0.5,1.1
		c0.2,0.5,0.3,1,0.4,1.5c0.1,0.6,0.2,1.2,0.3,1.8c0,0.7,0.1,1.4,0.1,2.1c0,0.7,0,1.5-0.1,2.2c-0.1,0.8-0.2,1.5-0.3,2.3
		c-0.2,0.8-0.3,1.5-0.5,2.2c-0.2,0.7-0.4,1.4-0.7,2.1c-0.2,0.7-0.5,1.3-0.8,1.9c-0.3,0.6-0.5,1.2-0.8,1.7c-0.5,1-1.1,1.8-1.4,2.4
		C63.2,400.8,63,401.1,63,401.1z"/>
</g>
<g>
	<path class="st7" d="M89.2,399.4c0,0-0.3-0.3-0.8-0.7c-0.5-0.5-1.3-1.1-2.1-2c-0.8-0.9-1.8-1.9-2.8-3c-1-1.2-2-2.4-2.9-3.7
		c-0.5-0.7-0.9-1.3-1.3-2c-0.4-0.7-0.8-1.3-1.2-2c-0.8-1.3-1.4-2.6-1.9-3.7c-0.5-1.1-0.9-2-1.2-2.7c-0.3-0.7-0.4-1-0.4-1
		s0.8,1.4,2,3.4c0.6,1,1.4,2.2,2.2,3.5c0.8,1.2,1.7,2.6,2.6,3.9c0.9,1.3,1.9,2.6,2.8,3.8c0.9,1.2,1.8,2.3,2.5,3.2
		C88.2,398.2,89.2,399.4,89.2,399.4z"/>
</g>
<g>
	<path class="st7" d="M80.3,381.4c0,0,0.6,0.7,1.7,2c0.5,0.6,1.2,1.4,2,2.2c0.8,0.9,1.7,1.8,2.7,2.8c1,1,2.1,2.1,3.3,3.2
		c1.2,1.1,2.5,2.2,3.8,3.4c1.4,1.1,2.8,2.3,4.3,3.4c1.5,1.1,3.1,2.2,4.6,3.3c1.6,1,3.2,2.1,4.8,3c1.6,1,3.2,1.8,4.8,2.6
		c0.8,0.4,1.6,0.8,2.3,1.1c0.8,0.4,1.5,0.8,2.3,1.1c1.5,0.7,2.9,1.3,4.2,1.8c1.3,0.5,2.5,1,3.6,1.4c1.1,0.4,2,0.7,2.8,1
		c1.6,0.5,2.5,0.8,2.5,0.8s-0.9-0.2-2.5-0.6c-0.8-0.2-1.8-0.5-2.9-0.8c-0.6-0.2-1.2-0.3-1.8-0.5c-0.6-0.2-1.3-0.4-1.9-0.7
		c-1.4-0.5-2.8-1-4.3-1.7c-1.5-0.6-3.1-1.3-4.7-2.1c-1.6-0.8-3.3-1.6-4.9-2.6c-1.7-0.9-3.3-2-4.9-3c-1.6-1.1-3.2-2.2-4.6-3.3
		c-1.5-1.1-2.9-2.3-4.3-3.5c-1.3-1.2-2.6-2.3-3.8-3.5c-1.2-1.2-2.3-2.3-3.2-3.3c-0.5-0.5-1-1-1.4-1.5c-0.4-0.5-0.8-1-1.2-1.4
		c-0.7-0.9-1.4-1.7-1.9-2.4C80.8,382.1,80.3,381.4,80.3,381.4z"/>
</g>
<g>
	<path class="st7" d="M193.6,400.9c0,0,0.3,0,0.8,0.1c0.5,0.1,1.2,0.1,2,0.1c0.4,0,0.9,0,1.3,0c0.5,0,1,0,1.5-0.1
		c1-0.1,2.1-0.2,3.2-0.4c1.1-0.2,2.1-0.5,3.1-0.8c0.5-0.2,1-0.3,1.4-0.5c0.4-0.2,0.9-0.3,1.2-0.5c0.8-0.3,1.4-0.6,1.8-0.8
		c0.4-0.2,0.7-0.3,0.7-0.3s-0.2,0.2-0.6,0.5c-0.2,0.2-0.4,0.3-0.7,0.5c-0.3,0.2-0.6,0.4-1,0.6c-0.7,0.4-1.6,0.9-2.6,1.3
		c-0.5,0.2-1,0.4-1.6,0.5c-0.5,0.2-1.1,0.3-1.7,0.4c-0.6,0.1-1.1,0.2-1.7,0.2c-0.6,0.1-1.1,0.1-1.6,0.1c-1.1,0-2.1-0.1-2.9-0.3
		c-0.4-0.1-0.8-0.2-1.1-0.2c-0.3-0.1-0.6-0.2-0.9-0.2C193.8,401,193.6,400.9,193.6,400.9z"/>
</g>
<g>
	<path class="st7" d="M66,335.8c0,0,0.4-0.1,1-0.2c0.6-0.1,1.5-0.3,2.6-0.5c2.1-0.4,5-0.8,7.9-1.1c1.4-0.2,2.9-0.3,4.3-0.2
		c0.7,0,1.4,0.1,2,0.2c0.6,0.1,1.2,0.3,1.7,0.5c0.5,0.2,1,0.5,1.3,0.7c0.4,0.3,0.7,0.5,0.9,0.8c0.2,0.2,0.4,0.4,0.5,0.6
		c0.1,0.1,0.2,0.2,0.2,0.2s-0.1-0.1-0.2-0.2c-0.1-0.1-0.3-0.3-0.6-0.5c-0.2-0.2-0.6-0.4-1-0.6c-0.4-0.2-0.8-0.4-1.3-0.5
		c-0.5-0.1-1.1-0.3-1.7-0.3c-0.6-0.1-1.2-0.1-1.9-0.1c-1.3,0-2.7,0.1-4.2,0.3c-2.9,0.3-5.8,0.6-7.9,0.7c-1.1,0.1-2,0.1-2.6,0.1
		C66.4,335.8,66,335.8,66,335.8z"/>
</g>
<g>
	<path class="st7" d="M208.8,258.9c0,0,0.2-0.1,0.4-0.3c0.3-0.2,0.7-0.5,1.2-1c1-0.9,2.2-2.3,3.2-4.3c0.5-1,0.9-2.2,1.1-3.4
		c0.2-1.3,0.3-2.6,0.4-4c0.1-2.8,0.2-5.9,0.3-8.9c0.1-3,0.3-6,0.3-8.9c0-2.8-0.1-5.5-0.4-7.7c-0.1-1.1-0.3-2.1-0.5-3
		c-0.2-0.9-0.4-1.7-0.6-2.3c-0.2-0.6-0.4-1.1-0.5-1.5c-0.1-0.3-0.2-0.5-0.2-0.5s0.1,0.2,0.2,0.5c0.2,0.3,0.4,0.8,0.6,1.4
		c0.3,0.6,0.5,1.4,0.8,2.3c0.3,0.9,0.5,1.9,0.7,3c0.4,2.3,0.7,4.9,0.7,7.8c0,2.9-0.1,5.9-0.2,8.9c-0.1,3-0.3,6-0.4,8.9
		c-0.1,1.4-0.3,2.8-0.6,4.1c-0.3,1.3-0.7,2.5-1.3,3.5c-1.1,2.1-2.5,3.4-3.6,4.2c-0.5,0.4-1,0.7-1.3,0.9
		C209,258.8,208.8,258.9,208.8,258.9z"/>
</g>
<g>
	<path class="st7" d="M30.5,242.7c0,0,0.2-0.7,0.8-1.5c0.3-0.4,0.7-0.9,1.1-1.4c0.4-0.5,1-0.9,1.5-1.4c0.6-0.4,1.1-0.8,1.7-1.1
		c0.6-0.3,1.1-0.5,1.6-0.7c1-0.3,1.7-0.4,1.7-0.4s-0.6,0.4-1.4,0.9c-0.9,0.5-2,1.3-3,2.1c-1.1,0.8-2.1,1.7-2.8,2.3
		c-0.4,0.3-0.7,0.6-0.9,0.8C30.6,242.6,30.5,242.7,30.5,242.7z"/>
</g>
<g>
	<path class="st4" d="M146.6,451.4c0,0,0.2,0,0.5,0c0.3,0,0.7,0,1.3,0c0.3,0.1,0.6,0.1,0.9,0.2c0.3,0.1,0.7,0.2,1,0.3
		c0.7,0.3,1.5,0.7,2.3,1.2c1.6,1,3.4,2.4,5.3,3.8c0.5,0.3,1,0.7,1.5,1c0.5,0.3,1.1,0.6,1.6,0.9c1.1,0.5,2.2,1,3.4,1.3
		c2.4,0.7,4.8,1.1,7.2,1.5c2.3,0.3,4.5,0.6,6.4,0.8c1.9,0.2,3.4,0.5,4.5,0.6c1.1,0.2,1.7,0.3,1.7,0.3s-0.6,0-1.7-0.1
		c-1.1-0.1-2.7-0.1-4.6-0.2c-1.9-0.1-4.1-0.2-6.5-0.5c-2.4-0.2-4.9-0.6-7.4-1.4c-1.2-0.4-2.4-0.9-3.6-1.4c-0.6-0.3-1.1-0.6-1.6-0.9
		c-0.5-0.3-1-0.7-1.5-1.1c-1.9-1.5-3.5-3-5-4c-0.8-0.5-1.5-1-2.2-1.3c-0.3-0.2-0.7-0.3-1-0.4c-0.3-0.1-0.6-0.2-0.9-0.3
		c-0.5-0.1-1-0.2-1.3-0.2C146.8,451.4,146.6,451.4,146.6,451.4z"/>
</g>
<g>
	<path class="st4" d="M134,427.9c0,0-1.1,0-3,0.1c-0.9,0-2.1,0.1-3.4,0.1c-0.7,0-1.4,0-2.1,0c-0.7,0-1.5,0-2.3-0.1
		c-1.6,0-3.4-0.1-5.3-0.3c-1.9-0.1-3.8-0.3-5.9-0.6c-2-0.3-4.1-0.5-6.2-0.9c-2.1-0.3-4.2-0.8-6.4-1.2c-2.1-0.5-4.2-1-6.3-1.6
		c-2.1-0.5-4.1-1.2-6-1.8c-1.9-0.7-3.8-1.3-5.5-2c-1.7-0.7-3.4-1.3-4.9-2c-0.7-0.3-1.5-0.6-2.1-0.9c-0.7-0.3-1.3-0.6-1.9-0.9
		c-1.2-0.6-2.2-1.1-3.1-1.5c-1.7-0.9-2.6-1.4-2.6-1.4s1,0.4,2.7,1.2c0.9,0.4,1.9,0.8,3.1,1.3c1.2,0.5,2.6,1.1,4.1,1.7
		c1.5,0.6,3.2,1.2,4.9,1.8c1.7,0.6,3.6,1.2,5.6,1.8c1.9,0.6,3.9,1.2,6,1.7c2.1,0.6,4.2,1,6.3,1.5c2.1,0.4,4.2,0.9,6.3,1.3
		c2.1,0.4,4.2,0.7,6.2,1c2,0.2,4,0.5,5.8,0.7c1.9,0.2,3.6,0.4,5.2,0.4c1.6,0.1,3.1,0.2,4.4,0.3c1.3,0.1,2.5,0.1,3.4,0.1
		C132.9,427.8,134,427.9,134,427.9z"/>
</g>
<g>
	<path class="st5" d="M120.6,309.7c3.6,1.1,7.1,2.3,10.7,3.4c11.7,3.4,23.8,5.2,36,5.2c5.8,0,11.6-0.4,17.4-0.8
		c6.9-0.5,13.8-1,20.7-1.5c10.1-0.7,20.1-1.4,30.2-2.2c3.3-0.2,7.1-0.7,9-3.4c1.1-1.5,1.4-3.5,1.7-5.3c0.7-4.9,1.4-9.8,1.6-14.7
		c0.6-14.1-2.8-28.5,0.7-42.1c-7.6-0.8-15.2-0.9-22.8-0.3c-1.6,0.1-3.2,0.3-4.6,1.1c-1.2,0.7-2.1,1.9-2.8,3.1c-2.3,4-3,8.6-4,13
		c-1.6,7.8-3.9,15.4-6.8,22.8c-7.4,0.1-14.6-2.7-22-3.9c-10.8-1.7-21.7,0.1-32.4,1.9c-4.7,0.8-9.4,1.6-13.8,3.5
		c-4.5,1.9-8.4,4.9-12.2,7.8c-1.3,1-2.6,2-3.5,3.4c-1.5,2.6-1.5,6.5-4.3,7.5"/>
	<path d="M120.6,309.7l11.3,3.5c3.8,1.1,7.6,2,11.5,2.7c7.7,1.5,15.6,2.2,23.4,2.2c7.9,0,15.7-0.7,23.5-1.3l23.5-1.7l11.8-0.9
		c3.9-0.3,7.9-0.5,11.8-0.9c1.9-0.2,3.9-0.6,5.5-1.7c0.8-0.5,1.5-1.2,1.9-2.1c0.5-0.8,0.7-1.8,0.9-2.7c0.6-3.9,1.2-7.8,1.6-11.7
		c0.8-7.8,0.2-15.7-0.3-23.5c-0.2-3.9-0.4-7.9-0.3-11.8c0.1-3.9,0.6-7.9,1.6-11.7l0.2,0.3c-5.7-0.6-11.5-0.8-17.3-0.6
		c-1.4,0.1-2.9,0.1-4.3,0.3c-1.4,0.1-2.9,0.2-4.2,0.6c-1.4,0.4-2.5,1.3-3.3,2.4c-0.8,1.1-1.5,2.4-2,3.7c-1.1,2.6-1.7,5.5-2.3,8.3
		c-0.6,2.8-1.2,5.7-1.9,8.5c-1.4,5.6-3.2,11.1-5.3,16.5l-0.1,0.2l-0.2,0c-4.1,0-8.2-0.8-12.1-1.7c-2-0.5-4-1-5.9-1.4
		c-2-0.4-4-0.8-6-1c-4-0.5-8.1-0.5-12.1-0.2c-4,0.3-8.1,0.8-12.1,1.4l-6,1c-2,0.3-4,0.7-6,1.1c-2,0.4-4,0.9-5.9,1.6
		c-1.9,0.7-3.8,1.5-5.5,2.5c-1.8,1-3.4,2.1-5.1,3.3c-1.6,1.2-3.3,2.4-4.9,3.7c-0.8,0.6-1.5,1.3-2.1,2.2c-0.5,0.9-0.9,1.8-1.2,2.8
		c-0.3,1-0.6,1.9-1.1,2.9c-0.2,0.5-0.5,0.9-0.9,1.2c-0.4,0.4-0.8,0.6-1.3,0.8l0-0.1c0.5-0.2,0.9-0.4,1.3-0.8
		c0.3-0.4,0.6-0.8,0.9-1.2c0.5-0.9,0.7-1.9,1.1-2.8c0.3-1,0.6-1.9,1.2-2.8c0.5-0.9,1.3-1.6,2.1-2.3c1.6-1.3,3.2-2.5,4.9-3.7
		c1.6-1.2,3.3-2.4,5.1-3.4c1.8-1,3.6-1.9,5.5-2.6c1.9-0.7,3.9-1.2,5.9-1.6c2-0.4,4-0.8,6-1.1l6-1c8-1.3,16.2-2.2,24.4-1.3
		c2,0.2,4,0.6,6,1c2,0.4,4,0.9,5.9,1.4c4,0.9,7.9,1.7,12,1.7l-0.3,0.2c2.1-5.4,3.9-10.9,5.3-16.5c0.7-2.8,1.3-5.6,1.9-8.4
		c0.6-2.8,1.2-5.7,2.3-8.4c0.6-1.4,1.2-2.7,2.1-3.9c0.9-1.2,2.1-2.2,3.6-2.6c1.4-0.4,2.9-0.5,4.3-0.6c1.4-0.1,2.9-0.2,4.3-0.3
		c5.8-0.2,11.6,0,17.4,0.6l0.3,0l-0.1,0.3c-1,3.8-1.4,7.7-1.6,11.6c-0.1,3.9,0,7.8,0.2,11.8c0.2,3.9,0.5,7.8,0.6,11.8
		c0.1,3.9,0,7.9-0.4,11.8c-0.4,3.9-1,7.8-1.6,11.7c-0.2,1-0.5,1.9-1,2.8c-0.5,0.9-1.2,1.7-2,2.2c-1.7,1.1-3.7,1.5-5.7,1.8
		c-3.9,0.3-7.8,0.6-11.8,0.9l-11.8,0.8l-23.5,1.6c-7.8,0.5-15.7,1.2-23.6,1.2c-7.9,0-15.7-0.8-23.5-2.3c-3.9-0.7-7.7-1.7-11.5-2.8
		L120.6,309.7L120.6,309.7z"/>
</g>
<g>
	<path class="st4" d="M68.5,435.4c0,0,0.9-0.1,2.6-0.2c1.6-0.1,4-0.3,6.8-0.5c2.8-0.1,6.1-0.3,9.7-0.3c3.5,0,7.3,0.2,11.1,0.6
		c1.9,0.2,3.8,0.5,5.6,0.8c1.8,0.3,3.6,0.7,5.4,1.1c1.7,0.4,3.4,0.7,5,1c1.6,0.3,3.1,0.5,4.5,0.7c2.8,0.3,5.1,0.5,6.8,0.5
		c1.6,0,2.6,0,2.6,0s-0.9,0.1-2.6,0.2c-1.6,0-4,0.1-6.9-0.1c-2.8-0.2-6.1-0.7-9.6-1.4c-1.7-0.3-3.5-0.7-5.3-1
		c-1.8-0.3-3.7-0.5-5.5-0.7c-3.7-0.4-7.5-0.6-11-0.7c-3.5-0.1-6.8-0.1-9.6-0.1C72.3,435.4,68.5,435.4,68.5,435.4z"/>
</g>
<g>
	<path class="st4" d="M128.5,449.6c0,0-0.2,0-0.5,0.1c-0.3,0-0.7,0.1-1.3,0.2c-0.6,0.1-1.3,0.1-2.1,0.1c-0.8,0-1.7,0-2.7,0
		c-2,0-4.2-0.1-6.6,0c-1.2,0.1-2.4,0.2-3.7,0.4c-1.2,0.2-2.4,0.6-3.7,1.1c-1.2,0.4-2.5,0.9-3.7,1.2c-1.3,0.3-2.5,0.6-3.8,0.7
		c-2.5,0.3-4.8,0.2-6.7,0c-1-0.1-1.9-0.3-2.6-0.5c-0.8-0.2-1.5-0.4-2-0.5c-0.5-0.2-1-0.3-1.3-0.4c-0.3-0.1-0.4-0.2-0.4-0.2
		s0.2,0,0.5,0.1c0.3,0.1,0.7,0.2,1.3,0.3c0.6,0.1,1.2,0.2,2,0.4c0.8,0.1,1.7,0.2,2.6,0.3c1.9,0.1,4.2,0.1,6.6-0.3
		c1.2-0.2,2.4-0.4,3.6-0.8c1.2-0.3,2.4-0.8,3.7-1.2c1.2-0.4,2.5-0.8,3.8-1.1c1.3-0.2,2.6-0.3,3.8-0.4c2.5-0.1,4.8,0.2,6.7,0.3
		c1.9,0.1,3.6,0.2,4.7,0.2C127.8,449.7,128.5,449.6,128.5,449.6z"/>
</g>
<g>
	<path class="st5" d="M44,223.4c-6.3,14.4-2.7,31.1,1.1,46.4c2,8.3,4.1,16.6,6.1,24.9c1.7,6.8,4.5,14.8,11.4,16.2
		c3.3,0.7,6.7-0.5,10.1-1c9.8-1.7,19.7,1.5,29.7,1.9c13.4,0.5,26.4-4,39-8.5c13.4-4.8,26.8-9.5,40.1-14.3c2.3-0.8,4.7-1.6,7.1-1.5
		c2,0.1,4,0.8,5.9,1.5c7,2.3,14.4,3.3,21.8,2.9c8.5-0.4,17.6-2.5,25.1,1.5c1.7,0.9,3.3,2.1,5.1,2.8c1.8,0.6,4.1,0.6,5.4-0.9
		s0.8-4.3-1.1-4.6c1.2,1.2,3.4,0.5,4.4-0.8c1-1.3,1.3-3.1,1.5-4.8c0.6-4.8,0.5-10.8-3.9-12.9c2.2-1.2,2.5-4.5,1.2-6.7
		c-1.3-2.2-3.7-3.4-6-4.4c-9.4-4-20-5.3-30-3.7c-10.7,1.7-20.8,6.5-31.5,7.7c-5.7,0.6-11.5,0.2-17.2,0.3c-15,0.3-29.8,4.1-44.8,4.2
		c-15,0.1-31.4-4.4-39.8-16.8c-2.8-4.1-4.5-9.4-2.5-13.9c0.6-1.3,1.5-2.5,1.3-3.9c-0.1-1-0.8-1.9-1.4-2.7
		c-9.1-10.8-25.6-14.6-38.5-8.9"/>
	<path d="M44,223.5c-1.2,2.8-2.1,5.8-2.6,8.8c-0.6,3-0.7,6.1-0.8,9.2c0,3.1,0.3,6.1,0.6,9.2c0.4,3,0.9,6.1,1.6,9.1
		c1.2,6,2.8,12,4.3,17.9l4.4,17.9c0.8,3,1.7,5.9,3.2,8.6c0.7,1.3,1.6,2.6,2.7,3.7c1.1,1.1,2.3,2,3.8,2.5c2.9,1.2,6,0.6,9-0.1
		c1.5-0.3,3-0.6,4.5-0.8c1.5-0.1,3.1-0.2,4.6-0.2c6.2,0,12.2,1.3,18.3,2c6.1,0.7,12.3,0.4,18.3-0.7c6-1.1,11.9-2.8,17.8-4.8
		c5.8-2,11.6-4.1,17.4-6.2l17.4-6.2l8.7-3.1l4.3-1.6c1.4-0.5,2.9-1,4.4-1.3c1.5-0.3,3.1-0.3,4.7,0c1.5,0.3,3,0.9,4.4,1.3
		c2.9,0.9,5.9,1.6,8.9,2.1c3,0.5,6.1,0.7,9.1,0.7c3.1,0,6.1-0.2,9.2-0.5c3.1-0.3,6.1-0.5,9.2-0.4c3.1,0.1,6.2,0.6,9,1.9
		c1.4,0.6,2.7,1.5,4,2.3c1.3,0.8,2.7,1.4,4.2,1.3c0.7,0,1.5-0.1,2.1-0.5c0.6-0.3,1.2-0.9,1.4-1.5c0.2-0.7,0.2-1.4,0-2.1
		c-0.2-0.7-0.8-1.2-1.5-1.3l0.2-0.4c0.7,0.6,1.7,0.7,2.6,0.3c0.4-0.2,0.8-0.4,1.2-0.8c0.3-0.3,0.6-0.7,0.8-1.2
		c0.4-0.9,0.6-1.9,0.8-2.9c0.1-1,0.2-2,0.3-3c0.1-2,0.1-4.1-0.5-6c-0.1-0.5-0.3-1-0.5-1.4c-0.1-0.2-0.2-0.4-0.3-0.7
		c-0.1-0.2-0.2-0.4-0.4-0.6c-0.3-0.4-0.6-0.8-1-1.1c-0.4-0.3-0.8-0.6-1.2-0.8l-0.5-0.2l0.4-0.2c1.1-0.6,1.7-1.8,1.8-3
		c0.1-1.2-0.2-2.5-0.8-3.5c-1.4-2.1-3.8-3.3-6.2-4.2c-4.8-2-9.9-3.2-15-3.8c-5.1-0.6-10.4-0.4-15.5,0.5c-5.1,0.9-10.1,2.5-15.1,4
		c-5,1.5-10,2.9-15.2,3.5c-5.2,0.6-10.4,0.3-15.6,0.3c-10.4,0-20.7,1.8-31,3.1c-5.2,0.6-10.4,1.1-15.6,1.1c-5.2,0-10.5-0.5-15.5-1.7
		c-5.1-1.2-10-3.1-14.5-5.9c-2.2-1.4-4.3-3-6.1-4.9c-1.8-1.9-3.5-3.9-4.8-6.2c-1.3-2.3-2.2-4.8-2.4-7.4c-0.1-1.3,0.1-2.6,0.5-3.9
		c0.4-1.3,1.2-2.4,1.6-3.6c0.2-0.6,0.3-1.2,0.1-1.9c-0.2-0.6-0.5-1.2-0.9-1.7c-0.4-0.5-0.8-1-1.3-1.5c-0.4-0.5-0.9-1-1.4-1.4
		c-1.8-1.8-4-3.3-6.2-4.6c-2.2-1.3-4.7-2.3-7.1-3.1c-2.5-0.8-5.1-1.2-7.6-1.4c-2.6-0.2-5.2,0-7.8,0.3c-2.6,0.4-5.1,1.2-7.5,2.2
		l0-0.1c2.4-1,4.9-1.8,7.5-2.2c2.6-0.4,5.2-0.5,7.8-0.4c2.6,0.2,5.2,0.6,7.7,1.4c2.5,0.8,4.9,1.7,7.2,3.1c2.2,1.3,4.4,2.8,6.3,4.7
		c0.5,0.4,0.9,0.9,1.4,1.4c0.4,0.5,0.9,0.9,1.3,1.5c0.4,0.5,0.8,1.1,0.9,1.8c0.2,0.7,0.1,1.4-0.1,2c-0.4,1.3-1.2,2.3-1.6,3.6
		c-0.4,1.2-0.5,2.5-0.4,3.8c0.2,2.6,1.1,5.1,2.3,7.3c1.3,2.2,3,4.2,4.8,6.1c1.8,1.8,3.9,3.4,6.1,4.8c4.4,2.7,9.3,4.6,14.4,5.7
		c5.1,1.2,10.2,1.6,15.4,1.6c5.2-0.1,10.4-0.5,15.5-1.2l15.5-2c5.2-0.6,10.4-1.1,15.6-1.1c5.2,0,10.4,0.3,15.6-0.3
		c5.1-0.6,10.2-2,15.1-3.5c5-1.5,10-3.1,15.1-4c5.1-0.9,10.4-1.1,15.6-0.5c5.2,0.6,10.3,1.8,15.2,3.8c1.2,0.5,2.4,1,3.5,1.7
		c1.1,0.7,2.2,1.6,2.9,2.7c0.8,1.1,1.1,2.5,0.9,3.9c-0.1,1.3-0.8,2.7-2.1,3.4l0-0.5c0.5,0.3,0.9,0.5,1.3,0.9
		c0.4,0.3,0.8,0.7,1.1,1.2c0.2,0.2,0.3,0.4,0.4,0.7c0.1,0.2,0.3,0.5,0.4,0.7c0.2,0.5,0.4,1,0.5,1.5c0.5,2,0.6,4.1,0.5,6.2
		c-0.1,1-0.2,2-0.3,3.1c-0.1,1-0.3,2.1-0.8,3c-0.2,0.5-0.5,0.9-0.9,1.3c-0.4,0.4-0.9,0.7-1.4,0.9c-0.5,0.2-1.1,0.3-1.6,0.2
		c-0.6-0.1-1.1-0.3-1.5-0.7l-0.6-0.6l0.8,0.1c0.9,0.1,1.6,0.8,1.9,1.6c0.3,0.8,0.3,1.6,0,2.4c-0.3,0.8-0.9,1.4-1.6,1.8
		c-0.7,0.4-1.5,0.5-2.3,0.5c-1.6,0-3.1-0.6-4.5-1.4c-1.3-0.8-2.6-1.7-4-2.3c-2.8-1.3-5.8-1.8-8.9-1.9c-3.1-0.1-6.1,0.1-9.2,0.4
		c-3.1,0.3-6.1,0.5-9.2,0.5c-3.1,0-6.2-0.3-9.2-0.8c-3-0.5-6.1-1.2-9-2.2c-1.5-0.5-2.9-1-4.4-1.3c-1.5-0.3-3-0.3-4.5,0
		c-1.5,0.3-2.9,0.8-4.4,1.3l-4.3,1.5l-8.7,3.1l-17.4,6.2c-5.8,2-11.6,4.2-17.4,6.1c-5.8,2-11.7,3.7-17.8,4.8
		c-6.1,1.1-12.3,1.4-18.4,0.7c-6.1-0.7-12.2-1.9-18.3-2c-1.5,0-3.1,0.1-4.6,0.2c-1.5,0.2-3,0.4-4.5,0.8c-1.5,0.3-3,0.6-4.6,0.7
		c-0.8,0-1.5,0-2.3-0.1c-0.4-0.1-0.8-0.1-1.1-0.2c-0.4-0.1-0.8-0.2-1.1-0.4c-1.5-0.6-2.8-1.5-3.8-2.6c-1.1-1.1-1.9-2.4-2.7-3.8
		c-1.5-2.7-2.4-5.7-3.2-8.7l-4.4-17.9c-1.4-6-3-11.9-4.2-17.9c-0.6-3-1.2-6-1.5-9.1c-0.4-3-0.6-6.1-0.6-9.2c0-3.1,0.2-6.2,0.8-9.2
		C41.9,229.2,42.8,226.3,44,223.5L44,223.5z"/>
</g>
<g>
	<path class="st4" d="M136.5,451.2c0.6,0,1.3,0,1.9,0l0.1,0l0,0.1l0.3,1.1l-0.1-0.1c1.3,0.5,2.3,1.6,3,2.7c0.8,1.1,1.3,2.4,1.8,3.6
		c0.5,1.2,1,2.5,1.3,3.8c0.4,1.3,0.7,2.6,1,3.9c0.5,2.6,0.8,5.3,0.7,8c0,1.3-0.1,2.7-0.2,4c-0.1,0.7-0.2,1.3-0.3,2
		c-0.1,0.7-0.3,1.3-0.4,2c0-0.7,0.1-1.3,0.1-2c0-0.7,0.1-1.3,0.1-2c0-1.3,0-2.6,0-3.9c0-0.7-0.1-1.3-0.1-2c0-0.7-0.1-1.3-0.2-2
		c-0.2-1.3-0.4-2.6-0.6-3.9c-0.3-1.3-0.6-2.6-0.9-3.8c-0.4-1.3-0.8-2.5-1.2-3.7c-0.5-1.2-0.9-2.4-1.6-3.6c-0.6-1.1-1.5-2.1-2.6-2.7
		l-0.1,0l0-0.1l-0.2-1.2l0.1,0.1C137.8,451.3,137.1,451.2,136.5,451.2z"/>
</g>
<g>
	<path class="st3" d="M121.5,134.9c0,0,0.3,0.6,0.8,1.8c0.5,1.1,1.2,2.7,2,4.7c0.8,2,1.8,4.2,2.8,6.7c1,2.5,2,5.1,3.1,7.7
		c1,2.6,2,5.3,3,7.8c0.9,2.5,1.8,4.8,2.5,6.8c0.7,2,1.3,3.7,1.7,4.8c0.4,1.2,0.6,1.8,0.6,1.8s-0.3-0.6-0.8-1.8
		c-0.5-1.1-1.2-2.7-2-4.7c-0.8-2-1.8-4.2-2.8-6.7c-1-2.5-2-5.1-3.1-7.7c-1-2.6-2-5.3-3-7.8c-0.9-2.5-1.8-4.8-2.5-6.8
		c-0.7-2-1.3-3.7-1.7-4.8C121.8,135.6,121.5,134.9,121.5,134.9z"/>
</g>
<g>
	<path class="st3" d="M146.6,172.1c0,0,0-0.2,0.1-0.5c0.1-0.3,0.2-0.8,0.4-1.4c0.4-1.2,1.1-2.8,2-4.7c0.9-1.9,1.9-4.1,3-6.5
		c0.5-1.2,1-2.4,1.5-3.7c0.5-1.3,0.9-2.6,1.4-3.9c0.4-1.3,0.9-2.6,1.2-4c0.4-1.3,0.7-2.6,1-3.9c0.3-1.3,0.6-2.5,0.8-3.7
		c0.2-1.2,0.5-2.3,0.6-3.3c0.3-2.1,0.6-3.8,0.8-5c0.2-1.2,0.2-1.9,0.2-1.9s0,0.7,0,1.9c-0.1,1.2-0.1,3-0.4,5.1
		c-0.1,1-0.3,2.2-0.5,3.4c-0.2,1.2-0.4,2.4-0.7,3.7c-0.3,1.3-0.6,2.6-1,3.9c-0.4,1.3-0.8,2.7-1.2,4c-0.4,1.3-0.9,2.6-1.4,3.9
		c-0.5,1.3-1,2.5-1.6,3.7c-1.1,2.4-2.3,4.5-3.3,6.4c-1,1.8-1.8,3.4-2.3,4.5C146.8,171.4,146.6,172.1,146.6,172.1z"/>
</g>
<g>
	<path class="st5" d="M103.6,266.9c-3.5-1.8-6.5-4.6-8.6-8.1c-1-1.7-1-3.9-1.1-6c-0.1-2.8-1.2-5.5-3.1-7.5
		c-6.3-6.9-13.6-14.2-22.3-17.3c-1,0.6-1.2,2.2-0.8,3.3c0.5,1.1,1.4,2,2.4,2.8c3.3,2.9,6.7,5.7,10,8.6c-2.7-0.8-4.6-2.3-6.7-3.2
		c-5-2-9.4-3.5-14.6-2.1c-1.1,0.3-1.4,1.2-1.2,2.2c0.2,2.1,2.3,3.9,4.4,4.1c9.3,0.7,12.3,4.5,18.9,7.4c-7.6-3.4-11.8-2.5-24.2-3.6
		c-1.3-0.1-2.8,0.9-2.8,2.4c0,0.3,0.3,0.9,0.7,1.4c1,1.4,2.5,2.4,4.2,2.7c19.5,4.2,13.6-0.3,20.5,5.3c-4.4-0.9-8.1-0.6-13.2-1.3
		c-2.8-0.4-4.1,3.3-1.7,4.8c0.3,0.2,0.6,0.3,0.9,0.5c2.3,1,5.8,0.2,8.2,0.9c22.1,6.5,18.7,1.5,28.5,2.1"/>
	<path d="M103.5,266.9c-2-1.1-3.9-2.4-5.5-4.1c-0.8-0.8-1.5-1.7-2.2-2.6c-0.7-0.9-1.3-1.9-1.6-3c-0.3-1.1-0.4-2.3-0.4-3.4
		c0-1.1-0.1-2.3-0.4-3.4c-0.3-1.1-0.7-2.2-1.3-3.1c-0.6-1-1.3-1.8-2.1-2.7c-3.1-3.3-6.3-6.6-9.9-9.5c-0.9-0.7-1.8-1.4-2.7-2.1
		c-0.9-0.7-1.9-1.3-2.9-1.9l-1.5-0.9l-1.5-0.8l-1.6-0.7l-1.6-0.6l0.1,0c-0.7,0.4-1,1.3-0.9,2.1c0,0.8,0.4,1.6,1,2.2
		c0.5,0.6,1.2,1.2,1.8,1.7l1.9,1.7l7.8,6.7l0.7,0.6l-0.8-0.3c-1.1-0.3-2.1-0.8-3-1.3c-1-0.5-1.9-1.1-2.9-1.5c-1-0.5-2-0.8-3-1.2
		c-1-0.4-2-0.7-3.1-1c-2.1-0.6-4.2-0.9-6.4-0.7c-1.1,0.1-2.2,0.3-3.1,0.6c-0.9,0.4-0.9,1.7-0.6,2.6c0.3,1,1,1.8,1.9,2.4
		c0.4,0.3,0.9,0.5,1.4,0.6c0.5,0.1,1,0.1,1.6,0.2c0.5,0,1.1,0.1,1.6,0.2c0.5,0.1,1.1,0.2,1.6,0.3c1.1,0.2,2.1,0.5,3.2,0.9
		c2.1,0.7,4,1.8,5.9,2.9c1.9,1.1,3.8,2.2,5.8,3.1l-0.2,0.5c-2.2-0.9-4.4-1.7-6.7-2.1c-2.3-0.4-4.7-0.6-7.1-0.7l-7.1-0.4
		c-1.2-0.1-2.4-0.2-3.5-0.2c-1,0.1-2.1,0.9-2.1,2c-0.1,0.4,0.3,0.9,0.6,1.4c0.3,0.5,0.7,0.9,1.2,1.2c0.9,0.7,1.9,1.2,3.1,1.4
		c2.3,0.5,4.7,1,7,1.3c2.3,0.4,4.7,0.6,7.1,0.7c0.6,0,1.2,0,1.8,0.2c0.6,0.2,1.2,0.5,1.7,0.9c1,0.7,1.9,1.5,2.8,2.2l1,0.8l-1.3-0.3
		c-2.4-0.5-4.8-0.7-7.2-0.8c-1.2-0.1-2.4-0.1-3.7-0.3c-0.6-0.1-1.2-0.1-1.8-0.2l-0.4-0.1l-0.5,0l-0.4,0.1l-0.4,0.1
		c-1,0.4-1.6,1.7-1.3,2.8c0.1,0.5,0.5,1,0.9,1.3c0.2,0.2,0.5,0.3,0.8,0.4l0.2,0.1l0.1,0c0,0,0,0,0,0l0.1,0c0.1,0.1,0.3,0.1,0.4,0.2
		c1.1,0.3,2.4,0.3,3.6,0.4c1.2,0,2.5,0,3.7,0.3l3.5,1c1.2,0.3,2.4,0.6,3.5,0.9c1.2,0.3,2.4,0.6,3.6,0.8c1.2,0.2,2.4,0.4,3.6,0.6
		c1.2,0.2,2.4,0.2,3.6,0.2c1.2-0.1,2.4-0.2,3.6-0.5c1.2-0.3,2.4-0.6,3.6-0.7c1.2-0.1,2.4-0.1,3.7-0.1l0,0.1c-1.2,0-2.4,0-3.7,0.1
		c-1.2,0.1-2.4,0.4-3.6,0.7c-1.2,0.3-2.4,0.5-3.6,0.5c-1.2,0-2.5,0-3.7-0.2c-1.2-0.1-2.4-0.3-3.6-0.6c-1.2-0.2-2.4-0.5-3.6-0.8
		c-1.2-0.3-2.4-0.6-3.6-0.9l-3.5-1c-1.2-0.3-2.4-0.2-3.6-0.2c-1.2,0-2.5,0-3.7-0.4c-0.2,0-0.3-0.1-0.4-0.2l-0.1,0c0,0,0,0-0.1,0
		l-0.1,0l-0.2-0.1c-0.3-0.2-0.5-0.2-0.8-0.5c-0.5-0.4-1-0.9-1.1-1.6c-0.3-1.3,0.4-2.8,1.6-3.3l0.5-0.2l0.5-0.1l0.5,0
		c0.2,0,0.3,0,0.5,0.1c0.6,0.1,1.2,0.1,1.8,0.2c1.2,0.1,2.4,0.2,3.6,0.2c2.4,0.1,4.9,0.3,7.3,0.8l-0.3,0.5c-0.9-0.7-1.8-1.5-2.8-2.2
		c-0.5-0.3-1-0.6-1.5-0.8c-0.5-0.1-1.1-0.1-1.7-0.2c-2.4-0.1-4.8-0.3-7.1-0.7c-2.4-0.4-4.7-0.8-7-1.3c-1.2-0.2-2.4-0.8-3.3-1.6
		c-0.5-0.4-0.9-0.9-1.3-1.4c-0.2-0.3-0.3-0.5-0.5-0.8c-0.1-0.1-0.1-0.3-0.2-0.5c-0.1-0.2,0-0.4,0-0.6c0.1-1.4,1.4-2.4,2.7-2.5
		c1.3,0,2.4,0.2,3.6,0.2l7.1,0.4c2.4,0.1,4.8,0.3,7.1,0.8c2.4,0.4,4.7,1.2,6.8,2.2l-0.2,0.5c-2-0.9-3.9-2-5.8-3.1
		c-1.9-1.1-3.8-2.1-5.8-2.9c-1-0.4-2.1-0.7-3.1-0.9c-0.5-0.1-1.1-0.2-1.6-0.3c-0.5-0.1-1.1-0.2-1.6-0.2c-0.5-0.1-1.1-0.1-1.7-0.2
		c-0.6-0.1-1.1-0.4-1.6-0.7c-0.9-0.6-1.7-1.5-2.1-2.6c-0.2-0.6-0.3-1.1-0.2-1.7c0-0.6,0.4-1.2,1-1.5c1.1-0.4,2.2-0.5,3.3-0.6
		c2.2-0.2,4.4,0.2,6.5,0.7c1.1,0.3,2.1,0.6,3.1,1c1,0.4,2,0.8,3,1.2c1,0.5,1.9,1,2.9,1.6c1,0.5,1.9,1,3,1.3l-0.2,0.3l-7.8-6.7
		l-1.9-1.7c-0.6-0.6-1.3-1.1-1.9-1.8c-0.6-0.7-1-1.5-1-2.4c0-0.4,0-0.9,0.2-1.3c0.2-0.4,0.5-0.8,0.9-1l0.1,0l0.1,0l1.6,0.6l1.6,0.7
		l1.5,0.8l1.5,0.9c1,0.6,1.9,1.2,2.9,1.9c0.9,0.7,1.8,1.4,2.7,2.1c3.5,2.9,6.7,6.2,9.8,9.6c0.8,0.8,1.6,1.7,2.1,2.7
		c0.6,1,1,2.1,1.3,3.2c0.3,1.1,0.4,2.3,0.4,3.4c0,1.1,0.1,2.3,0.4,3.4c0.3,1.1,0.9,2.1,1.5,3c0.7,0.9,1.4,1.8,2.2,2.6
		C99.7,264.4,101.5,265.8,103.5,266.9L103.5,266.9z"/>
</g>
<g>
	<path class="st3" d="M235,273.3c0,0,1.5-0.1,3.8-0.2c1.2,0,2.5,0,3.9,0c0.7,0,1.5,0.1,2.3,0.2c0.8,0.2,1.5,0.6,2.2,1.1
		c0.6,0.5,1.2,1,1.8,1.5c0.6,0.5,1.1,1,1.7,1.4c1.1,1,2.1,1.9,2.9,2.7c0.8,0.8,1.5,1.5,1.9,2c0.5,0.5,0.7,0.8,0.7,0.8l-0.1,0.1
		c0,0-0.3-0.2-0.9-0.6c-0.6-0.4-1.3-1-2.2-1.7c-0.9-0.7-1.9-1.6-3-2.5c-0.5-0.5-1.1-1-1.6-1.5c-0.6-0.5-1.1-1.1-1.7-1.5
		c-0.6-0.5-1.2-0.9-1.8-1.1c-0.7-0.2-1.4-0.3-2.1-0.3c-1.4-0.1-2.8-0.2-3.9-0.3C236.5,273.4,235,273.4,235,273.3L235,273.3z"/>
</g>
<g>
	<path class="st3" d="M232.3,281.8c0,0,0.3-0.1,0.9-0.1c0.6-0.1,1.4-0.1,2.4,0c1,0.1,2.2,0.3,3.4,0.6c1.2,0.4,2.4,0.8,3.7,1.4
		c1.2,0.6,2.4,1.3,3.4,2c1,0.7,1.9,1.5,2.7,2.1c0.7,0.7,1.3,1.3,1.7,1.7c0.4,0.4,0.6,0.7,0.6,0.7l-0.1,0.1c0,0-0.3-0.2-0.8-0.5
		c-0.2-0.2-0.5-0.3-0.9-0.6c-0.3-0.2-0.7-0.5-1.1-0.8c-0.8-0.6-1.7-1.2-2.8-1.9c-1-0.7-2-1.4-3.2-2.1c-1.1-0.6-2.3-1.2-3.5-1.6
		c-1.1-0.4-2.3-0.7-3.2-0.8c-1-0.2-1.8-0.2-2.4-0.2C232.6,281.9,232.3,281.9,232.3,281.8L232.3,281.8z"/>
</g>
<g>
	<path class="st3" d="M235.8,263.9c0,0,0.3-0.1,0.8-0.2c0.5-0.1,1.3-0.2,2.2-0.3c1.9-0.2,4.4,0,6.8,1c0.6,0.2,1.2,0.6,1.7,0.9
		c0.5,0.3,1,0.8,1.5,1.1c0.9,0.8,1.6,1.7,2,2.6c0.5,0.8,0.8,1.6,0.9,2.1c0.2,0.5,0.2,0.8,0.2,0.8l-0.1,0c0,0-0.2-0.3-0.4-0.7
		c-0.3-0.5-0.7-1.1-1.3-1.8c-0.6-0.7-1.3-1.5-2.1-2.3c-0.4-0.4-0.8-0.8-1.3-1.1c-0.5-0.4-1-0.7-1.5-1c-2.1-1.1-4.6-1.4-6.5-1.4
		c-0.9,0-1.7,0-2.2,0.1C236.2,264,235.9,264,235.8,263.9L235.8,263.9z"/>
</g>
<g>
	<path class="st5" d="M146.5,139.1c3.8,0.1,7.6-1,10.7-3.2c1.7-1.2,3.2-2.6,4.7-4c3.5-3.2,7-6.3,10.5-9.5c5.7-5.1,8.8-8.4,10.5-13.3
		c1.6-4.5,1.8-9.4,2.7-14c1.3-6.9-0.4-15.2,1.8-21.8c3-8.9,2.8-18.4,2-27.9c-0.4-4.4-2.2-8.5-5.3-11.6c-8.4-8.3-17-12.4-29.5-14.4
		c-0.7-0.1-1.4-0.2-2.2-0.2l-3.6-0.1c-0.6,0-1.3,0-1.9,0.1c-12.6,1.1-22.6,5.8-32,13.8c-3.3,2.9-5.5,6.8-6.2,11.2
		c-1.5,9.4-2.4,19-0.1,28c1.7,6.8,1.6,13.2,2.4,20.2c0.6,4.7-0.2,9.6,1,14.1c1.4,5.6,5.5,10,9.5,14.1c3.2,3.4,6.5,6.8,9.8,10.3
		c1.4,1.5,2.9,2.9,4.4,4.3C138.9,137.6,142.7,138.9,146.5,139.1L146.5,139.1z"/>
	<g>
		<path d="M146.5,139c0,0,0.3,0,0.9,0c0.6,0,1.5-0.1,2.7-0.3c1.2-0.2,2.6-0.6,4.2-1.3c1.6-0.7,3.2-1.8,5-3.3
			c3.4-2.9,7.4-6.6,12-10.8c2.3-2.1,4.8-4.3,7.1-6.9c1.1-1.3,2.2-2.7,3.1-4.4c0.9-1.6,1.5-3.4,2-5.2c1-3.7,1.3-7.7,2-11.8
			c0.8-4.1,0.5-8.4,0.6-12.8c0-2.2,0.1-4.4,0.6-6.7c0.2-1.1,0.6-2.2,0.9-3.3c0.2-0.5,0.3-1.1,0.5-1.6c0.2-0.5,0.3-1.1,0.4-1.7
			c1-4.5,1.4-9.2,1.3-14c0-2.4-0.1-4.8-0.3-7.2c-0.1-1.2-0.2-2.4-0.3-3.6c-0.2-1.2-0.5-2.4-0.9-3.5c-0.8-2.3-2.1-4.4-3.8-6.2
			c-1.7-1.8-3.6-3.4-5.6-5c-4-3.1-8.5-5.5-13.3-7.1c-2.4-0.8-4.9-1.5-7.4-2c-1.2-0.3-2.5-0.5-3.8-0.7c-0.6-0.1-1.2-0.1-1.9-0.1
			l-1.9-0.1c-10.2-0.2-20.3,3.2-28.6,8.7c-2.1,1.4-4.1,2.9-6,4.5c-1.9,1.6-3.5,3.4-4.7,5.6c-1.2,2.1-1.9,4.5-2.2,6.9
			c-0.4,2.4-0.7,4.8-0.9,7.2c-0.5,4.8-0.6,9.5-0.1,14c0.3,2.3,0.7,4.5,1.3,6.7c0.5,2.2,0.8,4.4,1.1,6.6c0.4,4.4,0.6,8.7,1,12.8
			c0.4,4.2,0,8.2,0.5,12c0.5,3.8,2.3,7.1,4.4,9.9c2.1,2.8,4.4,5.1,6.6,7.4c2.1,2.3,4.2,4.4,6,6.4c1.9,1.9,3.5,3.8,5.1,5.3
			c0.8,0.8,1.6,1.5,2.4,2.1c0.8,0.6,1.6,1.1,2.3,1.5c1.5,0.8,2.9,1.3,4.1,1.6c1.2,0.3,2.1,0.4,2.7,0.4
			C146.2,139,146.5,139,146.5,139z M146.5,139.1c0,0-0.3,0-0.9-0.1c-0.6,0-1.5-0.2-2.7-0.4c-1.2-0.3-2.6-0.7-4.1-1.5
			c-0.8-0.4-1.6-0.9-2.4-1.5c-0.8-0.6-1.6-1.3-2.4-2.1c-1.6-1.5-3.3-3.4-5.2-5.3c-1.9-1.9-3.9-4.1-6-6.3c-2.1-2.3-4.5-4.6-6.7-7.4
			c-2.1-2.8-4-6.2-4.5-10c-0.6-3.8-0.1-7.9-0.6-12c-0.5-4.1-0.7-8.4-1.1-12.8c-0.2-2.2-0.6-4.4-1.1-6.6c-0.5-2.2-1-4.5-1.3-6.8
			c-0.5-4.6-0.4-9.4,0.1-14.2c0.2-2.4,0.6-4.8,0.9-7.2c0.3-2.4,1.1-4.9,2.3-7.1c1.2-2.2,2.9-4.1,4.9-5.7c1.9-1.6,3.9-3.1,6-4.5
			c8.4-5.6,18.6-9,29-8.8l1.9,0.1c0.6,0,1.3,0.1,1.9,0.2c1.3,0.2,2.5,0.4,3.8,0.7c2.5,0.5,5,1.2,7.4,2c4.9,1.6,9.4,4.1,13.4,7.2
			c2,1.6,3.9,3.2,5.6,5c1.7,1.8,3,4,3.9,6.4c0.4,1.2,0.7,2.4,0.9,3.6c0.2,1.2,0.2,2.5,0.3,3.7c0.2,2.4,0.3,4.9,0.3,7.3
			c0,4.8-0.3,9.6-1.3,14.1c-0.1,0.6-0.3,1.1-0.4,1.7c-0.1,0.6-0.3,1.1-0.5,1.7c-0.3,1.1-0.7,2.2-0.9,3.3c-0.4,2.2-0.6,4.4-0.6,6.6
			c-0.1,4.4,0.2,8.7-0.6,12.8c-0.8,4.1-1.1,8.1-2,11.8c-0.5,1.9-1.1,3.7-2,5.3c-0.9,1.6-2,3.1-3.1,4.4c-2.3,2.6-4.9,4.8-7.2,6.9
			c-4.7,4.2-8.6,7.9-12,10.8c-1.7,1.4-3.4,2.6-5,3.3c-1.6,0.7-3,1.1-4.2,1.3c-1.2,0.2-2.1,0.2-2.7,0.3
			C146.8,139.1,146.5,139.1,146.5,139.1z"/>
	</g>
</g>
<path class="st8" d="M157.8,77.8c-0.1,0.1-0.1,0.3,0,0.4c0.1,0.1,0.3,0.1,0.4,0.1c3.8,0.3,6.4,1,11.5,0.1c1-0.2,2-0.4,3-0.7
	c0.7-0.3,1.4-0.6,2-1.1c1.7-1.2,2.7-2.3,4-3.8c0.1-0.1,0.2-0.3,0.2-0.4c0-0.1,0.3-0.5,0.2-0.6c-1.5-1-3.1-2.1-5.1-2.3
	c-0.8-0.1-1.9-0.1-2.8-0.1c-1.9-0.1-2.9,0-5,0.4c-0.6,0.1-1.6,0.4-2.1,0.6c-0.4,0.1-0.8,0.4-1.2,0.7c-1.5,1-2.6,2.4-3.7,3.7
	C158.8,75.9,158.3,76.8,157.8,77.8z"/>
<path class="st9" d="M169.8,69.7c0-0.2-0.3-0.3-0.5-0.2c-0.8,0.2-1.7,0.4-2.4,0.6c-0.9,0.2-1.8,0.5-2.5,1c-0.7,0.5-1.3,1.4-1.2,2.3
	c0,0.6,0.3,1.2,0.6,1.7c0.4,0.7,0.8,1.5,1.4,2.1c0.9,0.9,0.8,0.8,1.8,1.1c0.4,0.2,1.2,0.1,1.5,0.1c0.3,0,0.7-0.1,1-0.2
	c1.6-0.7,3-1.8,3.4-3.5C173.3,72.8,171.9,70.4,169.8,69.7"/>
<path class="st8" d="M165.5,71.3c0.8,0.3,1.3,1.1,1,1.9c-0.2,0.7-1,1.2-1.8,0.9c-0.8-0.3-1.3-1.1-1-1.9
	C163.9,71.4,164.7,71,165.5,71.3z"/>
<g>
	<path class="st3" d="M158,77.1c0.3-0.6,0.7-1.5,1.2-2.5c0.3-0.5,0.6-1,0.9-1.6c0.3-0.6,0.8-1.2,1.3-1.8c0.6-0.6,1.3-1,2.1-1.4
		c0.8-0.3,1.7-0.6,2.6-0.7s1.7-0.2,2.6-0.3c0.8,0,1.7-0.1,2.5,0c0.8,0,1.6,0.1,2.4,0.3c0.4,0.1,0.7,0.2,1,0.3c0.3,0.1,0.7,0.2,1,0.3
		c0.6,0.2,1.2,0.5,1.6,0.7s0.8,0.5,1.1,0.7c0.3,0.2,0.5,0.4,0.7,0.5c0.1,0.1,0.2,0.2,0.2,0.2s-0.1,0-0.3-0.1c-0.2,0-0.4-0.1-0.8-0.3
		c-0.3-0.1-0.7-0.3-1.2-0.5c-0.5-0.2-1-0.4-1.6-0.5c-0.6-0.1-1.3-0.2-2-0.4c-0.7-0.1-1.4-0.2-2.2-0.2c-0.8,0-1.6,0-2.4,0.1
		c-0.8,0.1-1.7,0.1-2.4,0.3c-0.8,0.1-1.6,0.3-2.3,0.6c-0.7,0.3-1.3,0.7-1.8,1.1c-0.6,0.5-1,1-1.4,1.5c-0.4,0.5-0.8,1-1.1,1.5
		c-0.7,1-1.2,1.8-1.5,2.3c-0.4,0.6-0.6,0.9-0.6,0.9S157.8,77.8,158,77.1z"/>
</g>
<path class="st8" d="M140.8,77.3c0.1,0.1,0.1,0.3,0,0.4s-0.3,0.1-0.4,0.1c-3.8,0.3-6.4,1-11.5,0.1c-1-0.2-2-0.4-3-0.7
	c-0.7-0.3-1.4-0.6-2-1.1c-1.7-1.2-2.7-2.3-4-3.8c-0.1-0.1-0.2-0.3-0.2-0.4c0-0.1-0.3-0.5-0.2-0.6c1.5-1,3.1-2,5.1-2.3
	c0.8-0.1,1.9-0.1,2.8-0.1c1.9-0.1,2.9,0,5,0.4c0.6,0.1,1.6,0.4,2.1,0.6c0.4,0.1,0.8,0.4,1.2,0.7c1.5,1,2.6,2.4,3.7,3.7
	C139.8,75.4,140.3,76.3,140.8,77.3z"/>
<path class="st9" d="M128.4,69.2c0-0.2,0.3-0.2,0.5-0.2c0.8,0.2,1.6,0.5,2.4,0.7c0.9,0.3,1.8,0.7,2.5,1.2c0.7,0.6,1.2,1.5,1.1,2.4
	c0,0.6-0.3,1.1-0.7,1.7c-0.4,0.7-0.9,1.4-1.5,2c-1,0.8-0.9,0.8-1.9,1c-0.4,0.1-1.2,0.1-1.5,0c-0.3,0-0.7-0.2-1-0.3
	c-1.5-0.7-2.9-2-3.2-3.7C124.8,72,126.2,69.8,128.4,69.2"/>
<path class="st8" d="M132.6,71c-0.8,0.2-1.3,1-1.2,1.8c0.1,0.8,0.9,1.3,1.7,1s1.3-1,1.2-1.8C134.2,71.3,133.4,70.8,132.6,71z"/>
<g>
	<path class="st3" d="M140.4,76.9c-0.3-0.6-0.9-1.4-1.5-2.3c-0.3-0.5-0.7-1-1.1-1.5c-0.4-0.5-0.9-1-1.4-1.5
		c-0.5-0.5-1.1-0.8-1.8-1.1c-0.7-0.3-1.5-0.5-2.3-0.6c-0.8-0.1-1.6-0.2-2.4-0.3c-0.8-0.1-1.6-0.1-2.4-0.1c-0.8,0-1.5,0-2.2,0.2
		c-0.7,0.1-1.4,0.3-2,0.4c-0.6,0.1-1.1,0.3-1.6,0.5c-0.5,0.2-0.9,0.3-1.2,0.5c-0.3,0.1-0.6,0.2-0.8,0.3c-0.2,0.1-0.3,0.1-0.3,0.1
		s0-0.1,0.2-0.2c0.1-0.1,0.3-0.3,0.7-0.5c0.3-0.2,0.7-0.4,1.1-0.7c0.4-0.3,1-0.6,1.6-0.7c0.3-0.1,0.6-0.2,1-0.3
		c0.3-0.1,0.7-0.2,1-0.3c0.7-0.2,1.6-0.3,2.4-0.3c0.8,0,1.7,0,2.5,0c0.9,0.1,1.7,0.1,2.6,0.3s1.7,0.4,2.6,0.7
		c0.8,0.3,1.5,0.8,2.1,1.4c0.6,0.6,1,1.2,1.3,1.7c0.3,0.6,0.7,1.1,0.9,1.6c0.5,1,0.9,1.8,1.2,2.4c0.2,0.6,0.3,1,0.3,1
		S140.7,77.4,140.4,76.9z"/>
</g>
<g>
	<path class="st9" d="M152.7,70.8c0,0,0,0.1-0.2,0.4c-0.1,0.3-0.3,0.7-0.4,1.1c-0.2,0.5-0.4,1.1-0.6,1.8c-0.2,0.7-0.3,1.5-0.5,2.4
		c-0.2,1.7-0.3,3.8-0.1,6c0.1,1.1,0.3,2.2,0.6,3.4c0.3,1.1,0.6,2.3,1,3.4c0.8,2.2,1.8,4.4,2.9,6.3c0.5,1,1.1,1.9,1.6,2.8
		c0.5,0.9,0.9,1.9,1,2.8c0,0.3,0,0.4,0,0.7c0,0.1,0,0.2,0,0.3c0,0.1,0,0.2,0,0.3c0,0.4-0.2,0.8-0.3,1.1c-0.2,0.3-0.3,0.6-0.6,0.9
		c-0.2,0.2-0.5,0.4-0.7,0.6c-0.4,0.3-0.9,0.3-1.2,0.3c-0.1,0-0.2,0-0.3,0s-0.1,0-0.1,0v0c0,0,0,0,0.1,0c0.1,0,0.2,0,0.3,0
		c0.3,0,0.7-0.1,1-0.4c0.4-0.3,0.8-0.8,1-1.4c0.1-0.3,0.2-0.7,0.3-1c0-0.1,0-0.2,0-0.3c0-0.1,0-0.2,0-0.3c0-0.2,0-0.4-0.1-0.6
		c-0.2-0.8-0.6-1.7-1-2.6c-0.5-0.9-1.1-1.8-1.7-2.7c-1.1-1.9-2.1-4.1-2.8-6.4c-0.3-1.1-0.7-2.3-0.9-3.4c-0.3-1.1-0.4-2.3-0.5-3.4
		c-0.2-2.2,0-4.4,0.3-6.1c0.2-0.9,0.3-1.7,0.6-2.4c0.2-0.7,0.4-1.3,0.6-1.8c0.2-0.5,0.3-0.8,0.5-1.1
		C152.6,70.9,152.6,70.8,152.7,70.8L152.7,70.8z"/>
</g>
<path class="st3" d="M161.7,111.3c0,0.5,0,1,0,1.5c0.9-0.8,1.5-1.9,1.7-3c-0.5,0.5-1,1-1.6,1.5"/>
<path class="st3" d="M137.4,112.5c0.3,0.7,0.2,1.5-0.1,2.2c-0.4-0.3-0.8-0.7-1.3-1.1c-1.3-1.1-2.7-2.3-3.5-3.9
	c0.5,0.2,0.9,0.7,1.4,1c0.2,0.1,0.5,0.3,0.7,0.4C135.4,111.5,136.4,112,137.4,112.5"/>
<g>
	<path class="st9" d="M149.7,106.7c0,0,0.1,0,0.2-0.1c0.1,0,0.2-0.2,0.3-0.4c0-0.2,0-0.5,0-0.8c-0.1-0.3-0.3-0.6-0.7-0.7
		c-0.3-0.1-0.8-0.1-1.2,0c-0.4,0.1-0.8,0.3-1,0.7c-0.1,0.2-0.3,0.4-0.5,0.6c-0.2,0.2-0.4,0.4-0.6,0.5c-0.2,0.1-0.5,0.3-0.7,0.3
		c-0.1,0-0.2,0.1-0.4,0.1c-0.1,0-0.3,0-0.4,0c-0.6,0-1.2-0.2-1.7-0.5c-0.5-0.4-0.8-0.9-1-1.4c-0.1-0.5-0.2-1.1,0-1.6
		c0.1-0.5,0.3-0.9,0.5-1.3c0.2-0.3,0.4-0.7,0.7-0.9c0.2-0.3,0.5-0.4,0.7-0.6c0.2-0.1,0.3-0.2,0.5-0.3c0.1,0,0.2-0.1,0.2-0.1l0,0
		c0,0,0,0-0.1,0.1c-0.1,0.1-0.2,0.2-0.4,0.3c-0.1,0.1-0.3,0.3-0.5,0.6c-0.2,0.3-0.3,0.6-0.5,0.9c-0.1,0.4-0.2,0.7-0.3,1.2
		c0,0.4,0,0.8,0.1,1.2c0.1,0.4,0.3,0.8,0.7,1.1c0.3,0.3,0.8,0.5,1.2,0.5c0.1,0,0.2,0,0.3,0c0.1,0,0.2,0,0.3-0.1
		c0.2-0.1,0.4-0.2,0.7-0.3c0.2-0.1,0.4-0.3,0.6-0.4c0.2-0.2,0.3-0.3,0.5-0.6c0.3-0.4,0.8-0.7,1.3-0.8c0.4-0.1,0.9,0,1.3,0.1
		c0.4,0.2,0.6,0.6,0.7,0.9c0.1,0.3,0.1,0.7,0,0.9s-0.2,0.4-0.3,0.4C149.8,106.6,149.8,106.6,149.7,106.7L149.7,106.7z"/>
</g>
<path class="st8" d="M161.8,111.1c-5.4,4.1-12.7,4.7-19.1,3c-1-0.3-2-0.6-3-1c-0.9-0.3-1.7-0.7-2.6-0.6c-0.3,0.6-0.2,1.3,0,1.9
	c0.3,0.6,0.7,1,1.2,1.4c1.5,1.3,3,2.6,4.6,3.7c0.4,0.3,0.9,0.6,1.4,0.7c0.4,0.1,0.9,0.2,1.4,0.2c2.9,0,5.8-0.4,8.5-1.5
	c2.7-1.1,5.2-2.8,7-5.2C161.7,113.1,162.3,112,161.8,111.1"/>
<g>
	<path class="st3" d="M164.4,109c-0.2,0.2-0.4,0.5-0.8,0.8c-0.2,0.2-0.4,0.3-0.6,0.6c-0.2,0.2-0.5,0.4-0.7,0.7
		c-0.3,0.2-0.6,0.4-0.9,0.7c-0.3,0.3-0.7,0.4-1,0.7c-0.3,0.2-0.7,0.4-1.2,0.7c-0.4,0.2-0.8,0.4-1.3,0.6c-0.9,0.4-1.9,0.7-3,1
		c-1,0.3-2.2,0.5-3.3,0.6c-1.1,0.1-2.3,0.1-3.5,0.1c-1.1,0-2.3-0.2-3.4-0.4c-1.1-0.2-2.2-0.5-3.3-0.8c-1-0.3-2-0.7-2.9-1.1
		c-0.9-0.4-1.7-0.8-2.5-1.2c-0.4-0.2-0.7-0.4-1.1-0.6c-0.3-0.2-0.7-0.4-1-0.6c-0.6-0.3-1.1-0.7-1.5-1c-0.4-0.3-0.7-0.5-1-0.7
		c-0.2-0.2-0.3-0.3-0.3-0.3s0.5,0.3,1.4,0.8c0.4,0.2,1,0.5,1.6,0.9c0.6,0.3,1.3,0.7,2.1,1c0.8,0.3,1.6,0.7,2.5,1.1
		c0.9,0.4,1.9,0.7,2.9,1c1,0.3,2.1,0.5,3.2,0.7c1.1,0.2,2.2,0.3,3.4,0.4c1.1,0,2.3,0,3.4-0.1c1.1-0.1,2.2-0.3,3.2-0.5
		c1-0.3,2-0.6,2.9-0.9c0.9-0.3,1.7-0.7,2.5-1.1c0.3-0.2,0.7-0.4,1-0.6c0.3-0.2,0.6-0.4,0.9-0.6c0.3-0.2,0.5-0.4,0.8-0.6
		c0.3-0.2,0.5-0.3,0.7-0.5c0.4-0.3,0.7-0.6,0.9-0.8c0.2-0.2,0.3-0.3,0.3-0.3S164.4,108.7,164.4,109z"/>
</g>
<g>
	<path class="st3" d="M163.5,110.4c-0.1,0.3-0.3,0.7-0.5,1.1c-0.5,1-1.3,2.3-2.6,3.7c-0.6,0.7-1.3,1.5-2.1,2.2
		c-0.9,0.7-1.9,1.2-2.9,1.7c-1,0.5-2.1,1-3.4,1.4c-0.3,0.1-0.6,0.2-1,0.2c-0.3,0-0.6,0-0.9,0.1c-0.6,0.1-1.3,0.1-1.9,0.1
		c-1.3,0-2.5-0.1-3.7-0.4c-0.3-0.1-0.6-0.2-0.9-0.3l-0.1,0l-0.1,0c-0.1,0-0.1,0-0.2-0.1c-0.2-0.1-0.3-0.2-0.4-0.3
		c-0.5-0.3-1-0.7-1.4-1.1c-0.9-0.7-1.7-1.5-2.5-2.2c-0.8-0.7-1.5-1.4-2.2-2.1c-1.3-1.3-2.4-2.4-3.1-3.2c-0.8-0.8-1.2-1.3-1.2-1.3
		s1.9,1.6,4.6,4.1c1.4,1.2,3,2.7,4.8,4.1c0.4,0.3,0.9,0.7,1.4,1c0.1,0.1,0.2,0.2,0.3,0.2c0,0,0.1,0,0.2,0.1l0.1,0l0.1,0
		c0.3,0.1,0.6,0.2,0.8,0.3c1.1,0.3,2.3,0.4,3.5,0.4c0.6,0,1.2,0,1.8-0.1c0.3,0,0.6,0,0.9-0.1c0.3,0,0.6-0.1,0.8-0.2
		c1.1-0.3,2.2-0.8,3.3-1.3c1-0.5,2-1,2.8-1.6c0.8-0.7,1.5-1.4,2.1-2c1.2-1.4,2.2-2.6,2.7-3.5c0.1-0.2,0.2-0.4,0.3-0.6
		c0.1-0.2,0.2-0.3,0.3-0.5c0.1-0.3,0.2-0.4,0.2-0.4S163.4,110.1,163.5,110.4z"/>
</g>
<g>
	<path class="st9" d="M143.6,124.7c0.4,0.1,0.9,0.2,1.6,0.3c0.7,0.1,1.4,0.1,2.2,0c0.8,0,1.7-0.2,2.5-0.4c0.4-0.1,0.9-0.2,1.3-0.3
		c0.4-0.1,0.8-0.3,1.2-0.4c0.8-0.3,1.5-0.5,2.1-0.7c0.6-0.2,1.1-0.4,1.4-0.7c0.3-0.2,0.5-0.3,0.5-0.3s0,0-0.1,0.1
		c0,0.1-0.2,0.2-0.3,0.3c-0.3,0.3-0.7,0.6-1.4,0.9c-0.6,0.3-1.3,0.7-2.1,1c-0.8,0.3-1.7,0.6-2.5,0.8c-0.5,0.1-0.9,0.2-1.4,0.2
		c-0.4,0-0.9,0.1-1.3,0.1c-0.9,0-1.7-0.1-2.3-0.2c-0.7-0.2-1.2-0.3-1.6-0.5c-0.2-0.1-0.3-0.2-0.4-0.2c-0.1,0-0.1-0.1-0.1-0.1
		S143.2,124.6,143.6,124.7z"/>
</g>
<g>
	<path class="st10" d="M139.4,73c0,0-0.2-0.1-0.5-0.3c-0.2-0.2-0.6-0.5-1-0.8c-0.4-0.3-0.9-0.7-1.5-1c-0.3-0.2-0.6-0.3-0.9-0.5
		c-0.3-0.2-0.6-0.3-0.9-0.5c-0.3-0.1-0.7-0.3-1-0.4c-0.3-0.1-0.7-0.3-1-0.4s-0.6-0.2-0.9-0.3c-0.3-0.1-0.5-0.2-0.8-0.3
		c-0.3-0.1-0.5-0.2-0.7-0.2c-0.2-0.1-0.4-0.1-0.5-0.2c-0.3-0.1-0.5-0.1-0.5-0.1v0c0,0,0.2,0,0.5,0c0.1,0,0.3,0,0.6,0
		c0.2,0,0.5,0,0.7,0.1c0.3,0,0.6,0.1,0.9,0.2c0.3,0.1,0.6,0.2,0.9,0.3c0.3,0.2,0.7,0.3,1,0.5c0.3,0.2,0.7,0.3,1,0.5
		c0.3,0.2,0.6,0.3,0.9,0.6c0.3,0.2,0.6,0.4,0.9,0.6c0.6,0.4,1,0.8,1.4,1.2c0.4,0.3,0.7,0.7,0.9,0.9C139.3,72.9,139.4,73,139.4,73
		L139.4,73z"/>
</g>
<g>
	<path class="st10" d="M160.1,72.9c0,0,0-0.2,0.2-0.3c0.2-0.2,0.5-0.6,0.9-0.9c0.4-0.3,0.9-0.8,1.4-1.2c0.3-0.2,0.6-0.4,0.9-0.6
		c0.3-0.2,0.6-0.4,0.9-0.6c0.3-0.2,0.7-0.3,1-0.5c0.3-0.2,0.7-0.3,1-0.5c0.3-0.1,0.6-0.3,0.9-0.3s0.6-0.2,0.9-0.2
		c0.3,0,0.5-0.1,0.7-0.1c0.2,0,0.4,0,0.6,0c0.3,0,0.5,0,0.5,0v0c0,0-0.2,0-0.5,0.1c-0.1,0-0.3,0.1-0.5,0.2c-0.2,0-0.4,0.1-0.7,0.2
		c-0.2,0.1-0.5,0.2-0.8,0.3c-0.3,0.1-0.6,0.2-0.9,0.3c-0.3,0.1-0.7,0.3-1,0.4c-0.3,0.1-0.7,0.3-1,0.4c-0.3,0.2-0.6,0.3-0.9,0.5
		c-0.3,0.2-0.6,0.3-0.9,0.5c-0.6,0.3-1,0.7-1.5,1s-0.8,0.6-1,0.8C160.2,72.7,160.1,72.9,160.1,72.9L160.1,72.9z"/>
</g>
<g>
	<path class="st3" d="M179.2,72.7c0,0,0.1,0.2,0.1,0.6c0.1,0.3,0.1,0.8,0,1.3c0,0.2-0.1,0.4-0.1,0.7c0,0.2-0.1,0.4-0.2,0.5
		c-0.1,0.3-0.3,0.5-0.3,0.5h0c0,0,0-0.2,0-0.6c0-0.2,0.1-0.4,0.1-0.6c0.1-0.2,0.2-0.4,0.2-0.6c0.1-0.4,0.2-0.8,0.2-1.2
		S179.2,72.7,179.2,72.7L179.2,72.7z"/>
</g>
<g>
	<path class="st3" d="M119.2,72.2c0,0,0,0.2,0,0.6s0,0.7,0.2,1.2c0.1,0.2,0.2,0.4,0.2,0.6c0,0.2,0.1,0.4,0.1,0.6c0,0.3,0,0.6,0,0.6
		h0c0,0-0.1-0.2-0.3-0.5c-0.1-0.1-0.2-0.3-0.2-0.5c0-0.2-0.1-0.4-0.1-0.7c0-0.5,0-0.9,0-1.3C119.2,72.4,119.2,72.2,119.2,72.2
		L119.2,72.2z"/>
</g>
<path class="st11" d="M154.2,66.9c-0.8,0.8,3.1,2.2,4.1,2c1-0.3,15.6-5.8,16.3-5.9c1.1-0.2,2.2,0.4,3.2,0.9
	c3.4,1.9,6.9,3.8,10.3,5.7c-3.8-3.4-7.8-6.5-12.1-9.3c-0.3-0.3-0.7-0.5-1.1-0.6c-0.9-0.3-9.8,2.8-13.4,4.1
	C159.4,64.6,154.2,66.9,154.2,66.9z"/>
<path class="st11" d="M135.9,64.5c-3.6-1.3-12.5-4.4-13.4-4.1c-0.4,0.1-0.8,0.3-1.1,0.6c-4.2,2.8-8.2,5.9-12.1,9.3
	c3.4-1.9,6.9-3.8,10.3-5.7c1-0.6,2.1-1.1,3.2-0.9c0.7,0.1,15.3,5.6,16.3,5.9c1,0.3,4.9-1.2,4.1-2C143.3,67.6,138.1,65.3,135.9,64.5z
	"/>
<g>
	<path class="st12" d="M111.2,92.5c-3.8-1.3-7.2-4.5-9.3-8.8s-2.8-9.6-1.9-14.5c0.4-2,1.1-4.2,2.6-4.9c1.7-0.9,3.7,0.5,5.2,1.8
		c0.8,0.7,1.7,1.4,2.5,2.1"/>
	<path class="st3" d="M108.8,67.2c-0.5-0.3-1-0.7-1.6-1.2c-0.6-0.5-1.3-1-2.1-1.3c-0.8-0.3-1.7-0.5-2.5,0s-1.4,1.5-1.8,2.7
		c-0.2,0.6-0.4,1.3-0.5,1.9c-0.1,0.7-0.2,1.4-0.2,2.1c-0.1,1.4-0.1,2.9,0.1,4.3c0.3,2.8,1,5.6,2.1,7.9c0.6,1.1,1.2,2.2,1.8,3.1
		c0.7,0.9,1.3,1.7,2.1,2.4c1.3,1.3,2.6,2.2,3.6,2.7s1.5,0.7,1.5,0.7s-0.2,0-0.4-0.1c-0.2-0.1-0.6-0.2-1.1-0.4
		c-1-0.4-2.4-1.1-3.8-2.4c-0.8-0.6-1.5-1.4-2.2-2.3c-0.7-0.9-1.4-2-2-3.2c-1.2-2.4-2-5.3-2.3-8.3c-0.2-1.5-0.2-3,0-4.5
		c0.1-0.8,0.2-1.5,0.3-2.2c0.2-0.7,0.3-1.4,0.6-2.1c0.5-1.3,1.3-2.5,2.3-3c1-0.6,2.1-0.3,2.9,0.1c0.9,0.4,1.6,1,2.1,1.5
		c0.6,0.6,1.1,1,1.5,1.4c0.8,0.8,1.3,1.2,1.3,1.2S109.9,67.8,108.8,67.2z"/>
</g>
<g>
	<path class="st12" d="M106.6,88c0.5,1.1,1.3,1.8,2.2,1.9c0.9,0.1,2-1,2.5-2.1c-0.9-0.8-2.9-5.8-2.8-6.3c0.5-1.3,2.1-1.3,2.3-2.7
		c0.1-0.7,0.2-1.3,0.1-2c-0.1-0.7-0.3-1.4-0.6-2c-1-2.9-2.4-5.9-4.7-6.8c-0.6-0.3-1.4-0.3-2,0.3c-0.5,0.5-0.7,1.3-0.9,2.1
		c-0.3,1.5-0.7,3-1,4.5c-0.2,0.7-0.3,1.3-0.3,2c0,0.9,0.3,1.8,0.6,2.7c0.3,0.9,0.6,1.8,1,2.7c0.2,0.5,0.4,1,0.7,1.4
		c0.3,0.3,0.7,0.5,1,0.8c0.9,0.7,1.3,2,1.7,3.2"/>
	<path class="st9" d="M105.3,85.3c-0.2-0.3-0.6-0.6-1-0.8c-0.3-0.3-0.7-0.6-1-1.1c-0.5-0.9-0.7-1.9-1.1-2.8c-0.3-1-0.7-1.9-0.9-3
		c-0.2-1.1,0.2-2.2,0.3-3.2c0.2-1,0.4-2,0.6-3l0.3-1.5c0.2-0.5,0.3-1,0.6-1.5c0.3-0.5,0.8-0.8,1.3-0.9c0.6-0.1,1,0,1.4,0.2
		c0.4,0.1,0.8,0.4,1.2,0.7s0.7,0.6,1,1c0.6,0.8,1.1,1.7,1.5,2.6s0.8,1.9,1.1,2.8c0.2,0.4,0.4,0.9,0.5,1.5c0.1,0.6,0.1,1.2,0.1,1.7
		c0,0.3-0.1,0.5-0.1,0.8V79v0.2c0,0.1-0.1,0.4-0.2,0.5c-0.3,0.6-0.8,0.9-1.1,1.1c-0.3,0.2-0.6,0.4-0.9,0.7c-0.1,0-0.2,0.1-0.2,0.2
		l0,0c0,0-0.1,0.1,0-0.1l0,0l0,0v0.1l0,0c0,0.1,0.1,0.4,0.2,0.6c0.2,0.9,0.6,1.8,1,2.7c0.4,0.8,0.8,1.8,1.3,2.4l0.2,0.2l-0.1,0.2
		c-0.3,0.6-0.7,1-1.1,1.4c-0.4,0.4-0.9,0.7-1.4,0.7c-1.1,0-2-0.9-2.4-2.1c0.2,0.5,0.6,1,1,1.3c0.2,0.2,0.4,0.3,0.6,0.4
		c0.2,0.1,0.5,0.1,0.7,0.1c0.5-0.1,0.9-0.4,1.3-0.8c0.3-0.3,0.6-0.8,0.9-1.3l0.1,0.4c-0.7-0.7-1.1-1.6-1.6-2.5
		c-0.5-0.9-0.9-1.8-1.2-2.8c-0.1-0.3-0.2-0.5-0.2-0.8c0-0.1,0-0.2,0-0.3v-0.1l0,0l0,0c0-0.2,0,0,0-0.1v-0.1c0.1-0.1,0.2-0.3,0.2-0.4
		c0.3-0.5,0.8-0.8,1.1-1c0.3-0.3,0.6-0.5,0.8-0.8c0.1-0.2,0.2-0.9,0.2-1.3c0.1-0.9-0.2-1.8-0.6-2.7c-0.3-0.9-0.7-1.8-1.1-2.7
		c-0.4-0.9-0.9-1.7-1.4-2.4c-0.2-0.3-0.6-0.6-0.9-0.9c-0.3-0.2-0.6-0.4-1-0.6c-0.6-0.3-1.4-0.2-1.8,0.4c-0.4,0.7-0.6,1.7-0.8,2.7
		s-0.5,2-0.7,3s-0.5,1.9-0.4,2.8c0.2,0.9,0.5,1.8,0.8,2.8c0.3,0.9,0.6,1.9,1,2.8c0.3,0.9,1.3,1.1,1.8,2c0.6,0.9,0.8,1.8,1.1,2.8
		C106.2,86.8,105.8,85.8,105.3,85.3z"/>
</g>
<g>
	<path class="st12" d="M186.6,71c0.8-0.7,1.7-1.4,2.5-2.1c1.6-1.3,3.5-2.7,5.2-1.8c1.5,0.7,2.2,2.9,2.6,4.9
		c0.9,4.9,0.2,10.2-1.9,14.5c-2.1,4.3-5.5,7.5-9.3,8.8"/>
	<path class="st3" d="M186.6,71c0,0,0.5-0.4,1.3-1.2c0.4-0.4,1-0.8,1.5-1.4c0.6-0.5,1.3-1.1,2.1-1.5c0.9-0.4,1.9-0.7,2.9-0.1
		c1,0.5,1.8,1.7,2.3,3c0.2,0.7,0.4,1.4,0.6,2.1c0.1,0.7,0.2,1.4,0.3,2.2c0.2,1.5,0.2,3,0,4.5c-0.3,3-1.1,5.9-2.3,8.3
		c-0.6,1.2-1.3,2.3-2,3.2c-0.7,0.9-1.4,1.7-2.2,2.3c-1.4,1.3-2.9,2-3.8,2.4c-0.5,0.2-0.9,0.3-1.1,0.4c-0.2,0.1-0.4,0.1-0.4,0.1
		s0.6-0.2,1.5-0.7s2.2-1.4,3.6-2.7c0.7-0.7,1.3-1.5,2.1-2.4c0.6-0.9,1.3-2,1.8-3.1c1.1-2.3,1.8-5.1,2.1-7.9c0.2-1.4,0.2-2.9,0.1-4.3
		c-0.1-0.7-0.2-1.4-0.2-2.1c-0.1-0.6-0.2-1.3-0.5-1.9c-0.4-1.2-1-2.2-1.8-2.7c-0.8-0.5-1.7-0.3-2.5,0c-0.8,0.3-1.5,0.8-2.1,1.3
		c-0.6,0.5-1.1,0.9-1.6,1.2C187,70.6,186.6,71,186.6,71z"/>
</g>
<g>
	<path class="st12" d="M190.4,90.5c0.4-1.2,0.9-2.5,1.7-3.2c0.3-0.3,0.7-0.5,1-0.8c0.3-0.4,0.5-0.9,0.7-1.4c0.3-0.9,0.6-1.8,1-2.7
		c0.3-0.9,0.6-1.8,0.6-2.7c0-0.7-0.2-1.3-0.3-2c-0.3-1.5-0.7-3-1-4.5c-0.2-0.8-0.4-1.6-0.9-2.1c-0.6-0.6-1.3-0.6-2-0.3
		c-2.3,0.9-3.7,3.9-4.7,6.8c-0.2,0.6-0.5,1.3-0.6,2s0,1.3,0.1,2c0.2,1.4,1.8,1.4,2.3,2.7c0.2,0.5-1.9,5.5-2.8,6.3
		c0.5,1.1,1.6,2.2,2.5,2.1c0.9-0.1,1.7-0.8,2.2-1.9"/>
	<path class="st9" d="M190.4,90.5c0.3-1,0.6-1.9,1.1-2.8c0.6-0.9,1.5-1.1,1.8-2c0.3-0.9,0.6-1.9,1-2.8c0.3-1,0.6-1.9,0.8-2.8
		c0.1-0.9-0.2-1.8-0.4-2.8s-0.5-2-0.7-3c-0.2-1-0.4-2-0.8-2.7c-0.4-0.6-1.2-0.7-1.8-0.4c-0.4,0.2-0.7,0.4-1,0.6
		c-0.3,0.3-0.6,0.6-0.9,0.9c-0.6,0.7-1,1.5-1.4,2.4s-0.8,1.8-1.1,2.7c-0.4,0.9-0.6,1.8-0.6,2.7c0,0.4,0.1,1.1,0.2,1.3
		c0.2,0.3,0.5,0.5,0.8,0.8c0.3,0.2,0.8,0.5,1.1,1c0.1,0.1,0.2,0.3,0.2,0.4v0.1c0,0.1,0-0.1,0,0.1l0,0l0,0v0.1c0,0.1,0,0.2,0,0.3
		c-0.1,0.3-0.2,0.5-0.2,0.8c-0.3,1-0.7,1.9-1.2,2.8s-0.9,1.8-1.6,2.5l0.1-0.4c0.2,0.5,0.6,1,0.9,1.3c0.4,0.4,0.8,0.7,1.3,0.8
		c0.2,0,0.5,0,0.7-0.1c0.2-0.1,0.5-0.2,0.6-0.4c0.4-0.3,0.8-0.8,1-1.3c-0.4,1.2-1.3,2.1-2.4,2.1c-0.6,0-1-0.3-1.4-0.7
		c-0.4-0.4-0.8-0.8-1.1-1.4l-0.1-0.2l0.2-0.2c0.6-0.6,1-1.6,1.3-2.4c0.4-0.9,0.8-1.8,1-2.7c0.1-0.2,0.2-0.5,0.2-0.6l0,0v-0.1l0,0
		l0,0c0.1,0.2,0,0.1,0,0.1l0,0c0-0.1-0.1-0.2-0.2-0.2c-0.2-0.3-0.6-0.5-0.9-0.7s-0.8-0.5-1.1-1.1c-0.1-0.1-0.2-0.4-0.2-0.5v-0.2
		v-0.2c0-0.3-0.1-0.5-0.1-0.8c0-0.5,0-1.1,0.1-1.7c0.1-0.6,0.3-1.1,0.5-1.5c0.3-0.9,0.7-1.9,1.1-2.8s0.9-1.8,1.5-2.6
		c0.3-0.4,0.6-0.7,1-1c0.4-0.3,0.8-0.6,1.2-0.7c0.5-0.2,0.9-0.3,1.4-0.2c0.5,0.1,1,0.4,1.3,0.9s0.5,1,0.6,1.5l0.3,1.5
		c0.2,1,0.5,2,0.6,3c0.2,1,0.5,2.1,0.3,3.2c-0.2,1.1-0.6,2-0.9,3c-0.4,0.9-0.6,1.9-1.1,2.8c-0.2,0.5-0.6,0.8-1,1.1
		c-0.4,0.2-0.7,0.5-1,0.8C191.1,88.6,190.7,89.6,190.4,90.5z"/>
</g>
<g>
	<path class="st9" d="M141.6,112.2c0,0,0.2-0.1,0.6-0.3c0.4-0.2,0.9-0.4,1.7-0.5c0.7-0.1,1.6-0.2,2.5,0c0.5,0.1,0.9,0.3,1.3,0.5
		c0.4,0.2,0.9,0.5,1.2,0.6c0.3,0.1,0.7-0.2,1.1-0.4c0.5-0.2,0.9-0.3,1.4-0.4c0.9-0.1,1.8,0.1,2.5,0.3c1.4,0.4,2.2,1,2.2,1
		s-0.2-0.1-0.6-0.2c-0.4-0.1-1-0.3-1.6-0.5c-0.7-0.2-1.5-0.3-2.4-0.2c-0.4,0-0.9,0.2-1.2,0.3c-0.2,0.1-0.4,0.2-0.6,0.3
		c-0.2,0.1-0.6,0.2-0.9,0.1c-0.6-0.2-0.9-0.5-1.3-0.7c-0.4-0.2-0.8-0.4-1.2-0.5c-0.8-0.2-1.7-0.3-2.4-0.2c-0.7,0.1-1.3,0.2-1.7,0.4
		C141.8,112.1,141.6,112.2,141.6,112.2z"/>
</g>
<g>
	<path class="st0" d="M148.5,15.9c-2.8,0.3,1.6,4,0.9,6.7c-0.5,1.8-0.6,3.7-0.5,5.6c0.1,0.9,0.2,1.8,0.4,2.7
		c0.7,3.8,1.6,7.7,3.9,10.9c1.7,2.4,4.2,4.2,6.5,5.9c7.5,5.5,15.1,11,22.6,16.5c2.2,1.6,4.5,3.3,7.2,3.7c2.6-5.7,4.3-11.8,4.2-18.1
		s-2.1-12.6-6.3-17.2c-3.3-3.6-7.6-6-11.9-8.3c-1.6-0.9-3.2-1.7-4.9-2.5C165.4,19.4,158.9,16,148.5,15.9"/>
	<path class="st1" d="M148.5,15.9c-0.4,0-0.8,0.2-0.8,0.5c-0.1,0.3,0.1,0.7,0.2,1c0.3,0.7,0.7,1.3,1,2c0.3,0.7,0.6,1.4,0.7,2.2
		c0,0.4,0,0.8-0.1,1.2c-0.1,0.4-0.2,0.7-0.2,1.1c-0.2,1.5-0.3,3-0.1,4.5c0.2,1.5,0.5,3,0.8,4.4c0.7,2.9,1.6,5.8,3.3,8.3
		c1.7,2.4,4.1,4.2,6.6,6l14.7,10.8l7.3,5.4c1.2,0.9,2.4,1.8,3.7,2.6c1.3,0.8,2.6,1.4,4.1,1.6l-0.4,0.2c2.8-6,4.6-12.7,4.2-19.4
		c-0.2-3.3-0.9-6.6-2.3-9.7c-1.3-3.1-3.3-5.8-5.8-8c-2.5-2.2-5.4-3.9-8.3-5.5c-1.5-0.8-2.9-1.6-4.4-2.4c-1.5-0.8-3-1.5-4.5-2.2
		c-3-1.4-6.2-2.7-9.4-3.5c-1.6-0.4-3.3-0.7-4.9-0.9C151.9,16.1,150.2,16,148.5,15.9L148.5,15.9c1.7,0,3.4,0,5,0.2
		c1.7,0.2,3.3,0.5,5,0.9c3.3,0.8,6.4,2,9.5,3.4c1.5,0.7,3.1,1.4,4.6,2.1c1.5,0.8,3,1.6,4.5,2.4c3,1.6,5.9,3.3,8.5,5.5
		c2.6,2.2,4.7,5,6,8.1c1.4,3.1,2.2,6.5,2.4,9.8c0.1,1.7,0.1,3.4-0.1,5.1c-0.1,1.7-0.4,3.4-0.8,5c-0.7,3.3-1.9,6.5-3.2,9.6l-0.1,0.3
		l-0.3,0c-1.6-0.3-3-0.9-4.4-1.7c-1.3-0.8-2.6-1.7-3.8-2.6l-7.4-5.3L159.3,48c-1.2-0.9-2.4-1.8-3.6-2.9c-1.1-1-2.2-2.2-3.1-3.5
		c-1.7-2.6-2.6-5.6-3.2-8.6c-0.3-1.5-0.6-3-0.7-4.5c-0.1-1.5-0.1-3.1,0.2-4.6c0.1-0.4,0.2-0.8,0.3-1.1c0.1-0.4,0.2-0.7,0.2-1.1
		c0-0.7-0.3-1.4-0.6-2.1c-0.3-0.7-0.7-1.4-0.9-2.1c-0.1-0.4-0.3-0.7-0.2-1.2C147.6,16,148.1,15.8,148.5,15.9L148.5,15.9z"/>
</g>
<g>
	<path class="st0" d="M147.4,15.8c0.7,0,1.4,0.5,1.5,1.2c0.4,1.7-0.3,2.4,0.3,4.7c0.5,1.8,0.6,3.7,0.5,5.6c-0.1,0.9-0.2,1.8-0.4,2.7
		c-0.7,3.8-1.6,7.7-3.9,10.9c-1.7,2.4-4.2,4.2-6.5,5.9c-7.5,5.5-15.1,11-22.6,16.5c-2.2,1.6-4.5,3.3-7.2,3.7
		c-2.6-5.7-4.3-11.8-4.2-18.1c0.1-6.3,2.1-12.6,6.3-17.2c3.3-3.6,7.6-6,11.9-8.3c1.6-0.9,3.2-1.7,4.9-2.5c5.1-2.4,10.6-3.8,16.1-5.1
		c0.1,0,0.3,0,0.4,0L147.4,15.8z"/>
	<path class="st1" d="M147.4,15.8c0.8,0,1.5,0.6,1.6,1.4c0.2,0.7,0.1,1.5,0,2.3c-0.2,1.5,0.5,2.9,0.7,4.4c0.2,1.5,0.3,3,0,4.5
		c-0.2,1.5-0.4,3-0.7,4.5c-0.6,2.9-1.6,5.9-3.4,8.4c-0.9,1.2-2,2.3-3.1,3.3c-1.2,1-2.4,1.9-3.6,2.8l-7.2,5.3l-7.3,5.3l-7.3,5.3
		c-1.2,0.9-2.4,1.8-3.7,2.6c-1.3,0.8-2.8,1.4-4.3,1.7l-0.3,0.1l-0.1-0.3c-1.3-3-2.4-6.1-3.2-9.3c-0.7-3.2-1.1-6.5-0.9-9.7
		c0.1-3.3,0.8-6.5,2-9.6c1.2-3,3-5.9,5.4-8.1c2.4-2.3,5.2-4,8-5.6c1.4-0.8,2.9-1.6,4.3-2.3c1.5-0.7,2.9-1.5,4.4-2.2
		c3-1.3,6.1-2.3,9.2-3.1c1.6-0.4,3.1-0.8,4.7-1.2C144.1,15.6,145.8,15.8,147.4,15.8z M147.4,15.9c-1.6,0-3.2-0.2-4.8,0.4
		c-1.6,0.4-3.1,0.8-4.7,1.2c-3.1,0.9-6.2,1.9-9.2,3.2c-1.5,0.7-2.9,1.5-4.3,2.2c-1.4,0.7-2.8,1.5-4.3,2.3c-2.8,1.6-5.5,3.4-7.8,5.6
		c-2.3,2.2-4.1,5-5.2,8c-1.2,3-1.8,6.2-1.9,9.4c-0.2,6.4,1.5,12.8,4.2,18.6l-0.4-0.2c1.4-0.2,2.8-0.8,4-1.6c1.3-0.8,2.4-1.7,3.6-2.6
		l7.2-5.3l7.3-5.3l7.3-5.3c2.4-1.7,4.9-3.5,6.6-5.8c0.9-1.2,1.6-2.5,2.2-3.8c0.6-1.4,1-2.8,1.3-4.2c0.4-1.5,0.6-2.9,0.9-4.4
		c0.3-1.5,0.3-3,0.1-4.4c-0.1-1.5-0.8-2.9-0.6-4.5c0.1-0.8,0.2-1.5,0-2.2C148.8,16.5,148.1,15.9,147.4,15.9z"/>
</g>
<g>
	<path class="st4" d="M63.2,401.6c0,0-0.3,0.1-0.8,0.3c-0.5,0.2-1.3,0.6-2.2,1.1c-0.9,0.5-1.9,1.3-3,2.2c-1.1,1-2.2,2.2-3.3,3.6
		c-1.1,1.4-2.1,3.1-3.1,4.9c-0.9,1.8-1.8,3.8-2.5,5.9c-1.5,4.2-2.6,8.9-3.2,13.6c-0.6,4.7-0.8,9.5-0.9,14c-0.1,2.2,0,4.4-0.1,6.5
		c0,2.1,0,4,0,5.8c0,1.8,0,3.5-0.1,4.9c0,1.5-0.1,2.7-0.1,3.8c-0.1,2.1-0.2,3.3-0.2,3.3l-0.1,0c0,0,0-1.2-0.1-3.3
		c-0.1-2.1-0.1-5.1-0.2-8.7c0-1.8-0.1-3.8-0.1-5.8c0-2.1,0-4.2,0-6.5c0.1-4.5,0.4-9.3,1.1-14.1c0.7-4.8,1.8-9.5,3.4-13.7
		c0.8-2.1,1.7-4.1,2.7-5.9c1-1.8,2.1-3.5,3.2-4.9c1.1-1.4,2.3-2.6,3.4-3.6c1.1-1,2.2-1.7,3.1-2.2c0.9-0.5,1.7-0.9,2.2-1.1
		C62.9,401.7,63.1,401.5,63.2,401.6L63.2,401.6z"/>
</g>
<g>
	<path class="st4" d="M207.2,424.6c0,0,0.2,0.2,0.6,0.4c0.4,0.3,0.9,0.7,1.6,1.4c1.3,1.3,2.9,3.4,4.1,6.3c1.2,2.9,2,6.5,2.3,10.3
		c0.2,1.9,0.3,3.9,0.4,6c0.1,2,0.2,4.1,0.2,6.2c0,2.1-0.2,4.1-0.6,6.2c-0.4,2-0.9,4-1.5,5.8c-0.6,1.8-1.3,3.6-2,5.2
		c-0.7,1.6-1.3,3.2-1.9,4.6c-2.4,5.7-4.2,9.4-4.2,9.4l-0.1,0c0,0,1.3-3.9,3.5-9.7c0.6-1.4,1.1-3,1.8-4.7c0.6-1.7,1.3-3.4,1.9-5.2
		c0.6-1.8,1.2-3.7,1.6-5.7c0.4-1.9,0.6-4,0.7-6c0.1-2,0-4.1-0.1-6.1c-0.1-2-0.1-4-0.3-5.9c-0.3-3.8-0.9-7.4-2-10.2
		c-1.1-2.9-2.6-5-3.9-6.3c-0.6-0.7-1.1-1.1-1.5-1.4C207.3,424.9,207.1,424.7,207.2,424.6L207.2,424.6z"/>
</g>
</svg>
